M48
; DRILL file {KiCad 6.0.9-8da3e8f707~117~ubuntu20.04.1} date Sun 25 Dec 2022 14:44:30 CET
; FORMAT={-:-/ absolute / metric / decimal}
; #@! TF.CreationDate,2022-12-25T14:44:30+01:00
; #@! TF.GenerationSoftware,Kicad,Pcbnew,6.0.9-8da3e8f707~117~ubuntu20.04.1
; #@! TF.FileFunction,Plated,1,2,PTH
FMAT,2
METRIC
; #@! TA.AperFunction,Plated,PTH,ViaDrill
T1C0.300
; #@! TA.AperFunction,Plated,PTH,ViaDrill
T2C0.381
; #@! TA.AperFunction,Plated,PTH,ViaDrill
T3C0.400
; #@! TA.AperFunction,Plated,PTH,ViaDrill
T4C0.508
; #@! TA.AperFunction,Plated,PTH,ComponentDrill
T5C0.700
; #@! TA.AperFunction,Plated,PTH,ViaDrill
T6C0.762
; #@! TA.AperFunction,Plated,PTH,ComponentDrill
T7C0.889
; #@! TA.AperFunction,Plated,PTH,ComponentDrill
T8C1.000
; #@! TA.AperFunction,Plated,PTH,ComponentDrill
T9C2.300
; #@! TA.AperFunction,Plated,PTH,ComponentDrill
T10C2.311
; #@! TA.AperFunction,Plated,PTH,ComponentDrill
T11C3.200
%
G90
G05
T1
X100.345Y-55.32
X100.345Y-60.4
X100.345Y-67.385
X100.345Y-72.465
X100.345Y-74.37
X100.345Y-78.18
X112.014Y-73.838
X112.852Y-73.863
X114.351Y-82.55
X121.3Y-55.32
X121.3Y-56.59
X121.3Y-57.86
X121.3Y-59.13
X122.316Y-76.91
X122.824Y-77.672
X125.745Y-57.225
X127.762Y-100.838
X134.62Y-102.242
X135.433Y-116.281
X136.144Y-101.854
X136.794Y-104.596
X137.006Y-102.834
X137.16Y-99.822
X137.16Y-106.68
X137.302Y-105.231
X137.378Y-121.335
X137.478Y-120.481
X138.176Y-101.854
X138.481Y-121.412
X139.446Y-101.989
X139.446Y-102.87
X139.715Y-57.225
X143.002Y-103.378
X144.795Y-56.59
X155.702Y-93.98
X155.702Y-103.124
X155.702Y-105.156
X155.956Y-96.266
X155.956Y-98.298
X155.956Y-100.838
X156.225Y-55.955
X156.355Y-107.587
T2
X114.823Y-74.878
X122.57Y-119.328
T3
X121.387Y-82.55
X123.52Y-74.879
X126.365Y-100.508
X127.762Y-67.183
X171.45Y-88.9
T4
X130.825Y-92.404
X133.299Y-84.684
X142.89Y-96.849
X158.496Y-96.52
X168.656Y-117.907
T5
X96.965Y-110.821
X96.965Y-113.321
X96.965Y-115.321
X96.965Y-117.821
X98.465Y-110.321
X98.465Y-112.321
X98.465Y-114.321
X98.465Y-116.321
X98.465Y-118.321
T6
X130.835Y-84.658
X136.565Y-95.782
X142.255Y-48.97
X172.1Y-66.115
T7
X129.302Y-48.387
X129.302Y-50.876
X131.359Y-48.387
X133.95Y-48.387
X136.007Y-48.387
X136.007Y-50.876
X148.387Y-48.387
X148.387Y-50.876
X150.444Y-48.387
X153.035Y-48.387
X155.092Y-48.387
X155.092Y-50.876
T8
X86.58Y-55.279
X86.58Y-57.569
X86.58Y-59.859
X86.58Y-62.149
X86.58Y-64.439
X88.56Y-56.424
X88.56Y-58.714
X88.56Y-61.004
X88.56Y-63.294
X88.56Y-65.584
X88.92Y-82.625
X90.54Y-55.279
X90.54Y-57.569
X90.54Y-59.859
X90.54Y-62.149
X90.54Y-64.439
X91.46Y-82.625
X93.283Y-86.333
X93.283Y-88.873
X93.283Y-91.413
X93.283Y-93.953
X93.283Y-96.493
X93.283Y-99.033
X95.823Y-86.333
X95.823Y-88.873
X95.823Y-91.413
X95.823Y-93.953
X95.823Y-96.493
X95.823Y-99.033
X106.68Y-53.34
X106.68Y-55.88
X106.68Y-58.42
X106.68Y-60.96
X106.68Y-63.5
X106.68Y-66.04
X106.68Y-68.58
X106.68Y-71.12
X106.68Y-73.66
X106.68Y-76.2
X106.68Y-78.74
X106.68Y-81.28
X106.68Y-83.82
X106.68Y-86.36
X106.68Y-88.9
X109.22Y-53.34
X109.22Y-55.88
X109.22Y-58.42
X109.22Y-60.96
X109.22Y-63.5
X109.22Y-66.04
X109.22Y-68.58
X109.22Y-71.12
X109.22Y-73.66
X109.22Y-76.2
X109.22Y-78.74
X109.22Y-81.28
X109.22Y-83.82
X109.22Y-86.36
X109.22Y-88.9
X113.03Y-48.255
X113.03Y-50.795
X116.84Y-45.72
X116.84Y-48.26
X116.84Y-50.8
X116.84Y-53.34
X116.84Y-55.88
X116.84Y-58.42
X116.84Y-60.96
X116.84Y-63.5
X116.84Y-66.04
X116.84Y-68.58
X116.84Y-71.12
X116.84Y-73.66
X116.84Y-76.2
X116.84Y-78.74
X116.84Y-81.28
X116.84Y-83.82
X116.84Y-86.36
X116.84Y-88.9
X116.84Y-91.44
X116.84Y-93.98
X116.84Y-96.52
X116.84Y-99.06
X116.84Y-101.6
X116.84Y-107.95
X116.84Y-110.49
X116.84Y-113.03
X119.38Y-45.72
X119.38Y-48.26
X119.38Y-50.8
X119.38Y-53.34
X119.38Y-55.88
X119.38Y-58.42
X119.38Y-60.96
X119.38Y-63.5
X119.38Y-66.04
X119.38Y-68.58
X119.38Y-71.12
X119.38Y-73.66
X119.38Y-76.2
X119.38Y-78.74
X119.38Y-81.28
X119.38Y-83.82
X119.38Y-86.36
X119.38Y-88.9
X119.38Y-91.44
X119.38Y-93.98
X119.38Y-96.52
X119.38Y-99.06
X119.38Y-101.6
X123.355Y-86.964
X123.355Y-89.504
X127.013Y-86.929
X127.013Y-89.469
X127.013Y-92.009
X136.54Y-69.925
X136.54Y-72.465
X136.54Y-75.005
X136.54Y-77.545
X136.54Y-80.085
X136.54Y-82.625
X141.745Y-120.726
X141.745Y-123.266
X141.745Y-125.806
X141.745Y-128.346
X141.745Y-130.886
X141.745Y-133.426
X147.98Y-88.087
X150.52Y-88.087
X153.06Y-88.087
X161.163Y-61.971
X161.163Y-64.511
X161.163Y-85.09
X161.163Y-87.63
X165.1Y-45.72
X165.1Y-48.26
X165.1Y-50.8
X165.1Y-53.34
X165.1Y-55.88
X165.1Y-58.42
X165.1Y-60.96
X165.1Y-63.5
X165.1Y-66.04
X165.1Y-68.58
X165.1Y-71.12
X165.1Y-73.66
X165.1Y-76.2
X165.1Y-78.74
X165.1Y-81.28
X165.1Y-83.82
X165.1Y-86.36
X165.1Y-88.9
X165.1Y-91.44
X165.1Y-93.98
X165.1Y-96.52
X165.1Y-99.06
X165.1Y-101.6
X167.64Y-45.72
X167.64Y-48.26
X167.64Y-50.8
X167.64Y-53.34
X167.64Y-55.88
X167.64Y-58.42
X167.64Y-60.96
X167.64Y-63.5
X167.64Y-66.04
X167.64Y-68.58
X167.64Y-71.12
X167.64Y-73.66
X167.64Y-76.2
X167.64Y-78.74
X167.64Y-81.28
X167.64Y-83.82
X167.64Y-86.36
X167.64Y-88.9
X167.64Y-91.44
X167.64Y-93.98
X167.64Y-96.52
X167.64Y-99.06
X167.64Y-101.6
X172.043Y-94.36
X172.043Y-96.9
X172.043Y-99.44
X172.654Y-118.295
X172.654Y-121.065
X172.654Y-123.835
X172.654Y-126.605
X172.654Y-129.375
X172.987Y-45.669
X175.494Y-119.68
X175.494Y-122.45
X175.494Y-125.22
X175.494Y-127.99
X175.527Y-45.669
X178.067Y-45.669
X178.138Y-53.34
X178.138Y-55.88
X178.138Y-58.42
X178.138Y-60.96
X178.138Y-63.5
X178.138Y-66.04
X178.138Y-68.58
X178.138Y-71.12
X178.138Y-73.66
X178.138Y-76.2
X178.138Y-78.74
X178.138Y-81.28
X178.138Y-83.82
X178.138Y-86.36
X178.138Y-88.9
X178.138Y-91.44
X178.138Y-93.98
X178.138Y-96.52
X178.138Y-99.06
X178.138Y-101.6
X180.678Y-53.34
X180.678Y-55.88
X180.678Y-58.42
X180.678Y-60.96
X180.678Y-63.5
X180.678Y-66.04
X180.678Y-68.58
X180.678Y-71.12
X180.678Y-73.66
X180.678Y-76.2
X180.678Y-78.74
X180.678Y-81.28
X180.678Y-83.82
X180.678Y-86.36
X180.678Y-88.9
X180.678Y-91.44
X180.678Y-93.98
X180.678Y-96.52
X180.678Y-99.06
X180.678Y-101.6
T9
X94.965Y-107.751
X94.965Y-120.891
T10
X125.898Y-45.39
X132.655Y-44.577
X139.411Y-45.39
X144.983Y-45.39
X151.74Y-44.577
X158.496Y-45.39
T11
X88.49Y-47.624
X88.49Y-72.624
X174.074Y-111.335
X174.074Y-136.335
T0
M30
