%TF.GenerationSoftware,KiCad,Pcbnew,6.0.0-d3dd2cf0fa~116~ubuntu20.04.1*%
%TF.CreationDate,2022-03-15T23:07:46+01:00*%
%TF.ProjectId,arrow_deca_retro_cape,6172726f-775f-4646-9563-615f72657472,0.71*%
%TF.SameCoordinates,Original*%
%TF.FileFunction,Profile,NP*%
%FSLAX46Y46*%
G04 Gerber Fmt 4.6, Leading zero omitted, Abs format (unit mm)*
G04 Created by KiCad (PCBNEW 6.0.0-d3dd2cf0fa~116~ubuntu20.04.1) date 2022-03-15 23:07:46*
%MOMM*%
%LPD*%
G01*
G04 APERTURE LIST*
%TA.AperFunction,Profile*%
%ADD10C,0.050000*%
%TD*%
G04 APERTURE END LIST*
D10*
X161357174Y-111901974D02*
X148683148Y-111901974D01*
X120675987Y-104140000D02*
X120675987Y-114600000D01*
X134620013Y-115870000D02*
X121945987Y-115870000D01*
X148683148Y-111901974D02*
G75*
G03*
X147413148Y-113171974I-1J-1269999D01*
G01*
X120675987Y-114600000D02*
G75*
G03*
X121945987Y-115870000I1269999J-1D01*
G01*
X182341185Y-140462000D02*
G75*
G03*
X183103185Y-139700000I-1J762001D01*
G01*
X83870000Y-122795000D02*
X135128000Y-122799000D01*
X147413148Y-113171974D02*
X147413148Y-134631974D01*
X135890013Y-104140000D02*
X135890013Y-114600000D01*
X161357174Y-135901974D02*
G75*
G03*
X162627174Y-134631974I1J1269999D01*
G01*
X83970000Y-40499000D02*
X182341185Y-40499000D01*
X183103185Y-41261000D02*
G75*
G03*
X182341185Y-40499000I-762001J-1D01*
G01*
X135890013Y-104140000D02*
G75*
G03*
X134620013Y-102870000I-1269999J1D01*
G01*
X162627174Y-113171974D02*
G75*
G03*
X161357174Y-111901974I-1269999J1D01*
G01*
X162627174Y-113171974D02*
X162627174Y-134631974D01*
X161357174Y-135901974D02*
X148683148Y-135901974D01*
X135890000Y-123655188D02*
X135890000Y-139700000D01*
X135889999Y-123655188D02*
G75*
G03*
X135128000Y-122799000I-862019J-9D01*
G01*
X83970000Y-40499000D02*
G75*
G03*
X83120000Y-41249000I5J-856672D01*
G01*
X134620013Y-102870000D02*
X121945987Y-102870000D01*
X147413148Y-134631974D02*
G75*
G03*
X148683148Y-135901974I1269999J-1D01*
G01*
X182341185Y-140462000D02*
X136652000Y-140462000D01*
X183103185Y-41261000D02*
X183103185Y-139700000D01*
X135890000Y-139700000D02*
G75*
G03*
X136652000Y-140462000I762001J1D01*
G01*
X134620013Y-115870000D02*
G75*
G03*
X135890013Y-114600000I1J1269999D01*
G01*
X83120000Y-121945000D02*
G75*
G03*
X83870000Y-122795000I856672J5D01*
G01*
X121945987Y-102870000D02*
G75*
G03*
X120675987Y-104140000I-1J-1269999D01*
G01*
X83120000Y-41249000D02*
X83120000Y-121945000D01*
M02*
