%TF.GenerationSoftware,KiCad,Pcbnew,6.0.9-8da3e8f707~117~ubuntu20.04.1*%
%TF.CreationDate,2022-12-25T14:44:32+01:00*%
%TF.ProjectId,arrow_deca_retro_cape,6172726f-775f-4646-9563-615f72657472,0.90*%
%TF.SameCoordinates,Original*%
%TF.FileFunction,Drillmap*%
%TF.FilePolarity,Positive*%
%FSLAX45Y45*%
G04 Gerber Fmt 4.5, Leading zero omitted, Abs format (unit mm)*
G04 Created by KiCad (PCBNEW 6.0.9-8da3e8f707~117~ubuntu20.04.1) date 2022-12-25 14:44:32*
%MOMM*%
%LPD*%
G01*
G04 APERTURE LIST*
%ADD10C,0.050000*%
%ADD11C,0.200000*%
G04 APERTURE END LIST*
D10*
X16135717Y-11190197D02*
X14868315Y-11190197D01*
X12067599Y-10414000D02*
X12067599Y-11460000D01*
X14438394Y-7453996D02*
G75*
G03*
X14565393Y-7580996I127006J6D01*
G01*
X13462001Y-11587000D02*
X12194599Y-11587000D01*
X14565393Y-6655583D02*
G75*
G03*
X14438393Y-6782590I-3J-126997D01*
G01*
X15658200Y-6782590D02*
G75*
G03*
X15531196Y-6655590I-127000J0D01*
G01*
X14868315Y-11190205D02*
G75*
G03*
X14741315Y-11317197I-5J-126995D01*
G01*
X15531196Y-7580996D02*
G75*
G03*
X15658196Y-7453996I4J126996D01*
G01*
X12067600Y-11460000D02*
G75*
G03*
X12194599Y-11587000I127000J0D01*
G01*
X18234119Y-14046198D02*
G75*
G03*
X18310319Y-13970000I2J76199D01*
G01*
X8387000Y-12279500D02*
X13512800Y-12279900D01*
X14741315Y-11317197D02*
X14741315Y-13463197D01*
X14565393Y-7580996D02*
X15531196Y-7580996D01*
X13589001Y-10414000D02*
X13589001Y-11460000D01*
X14565393Y-6655590D02*
X15531196Y-6655590D01*
X16135717Y-13590197D02*
G75*
G03*
X16262717Y-13463197I3J126997D01*
G01*
X15658196Y-6782590D02*
X15658196Y-7453996D01*
X8397000Y-4049900D02*
X18234119Y-4049900D01*
X18310320Y-4126100D02*
G75*
G03*
X18234119Y-4049900I-76200J0D01*
G01*
X13589000Y-10414000D02*
G75*
G03*
X13462001Y-10287000I-127000J0D01*
G01*
X16262723Y-11317197D02*
G75*
G03*
X16135717Y-11190197I-127003J-3D01*
G01*
X16262717Y-11317197D02*
X16262717Y-13463197D01*
X16135717Y-13590197D02*
X14868315Y-13590197D01*
X13589000Y-12365519D02*
X13589000Y-13970000D01*
X13589002Y-12365519D02*
G75*
G03*
X13512800Y-12279900I-86202J-1D01*
G01*
X8397000Y-4049903D02*
G75*
G03*
X8312000Y-4124900I0J-85667D01*
G01*
X13462001Y-10287000D02*
X12194599Y-10287000D01*
X14438393Y-6782590D02*
X14438393Y-7453996D01*
X14741313Y-13463197D02*
G75*
G03*
X14868315Y-13590197I126997J-3D01*
G01*
X18234119Y-14046200D02*
X13665200Y-14046200D01*
X18310319Y-4126100D02*
X18310319Y-13970000D01*
X13589000Y-13970000D02*
G75*
G03*
X13665200Y-14046200I76200J0D01*
G01*
X13462001Y-11587001D02*
G75*
G03*
X13589001Y-11460000I-1J127001D01*
G01*
X8312000Y-12194500D02*
G75*
G03*
X8387000Y-12279500I80000J-5000D01*
G01*
X12194599Y-10286999D02*
G75*
G03*
X12067599Y-10414000I1J-127001D01*
G01*
X8312000Y-4124900D02*
X8312000Y-12194500D01*
D11*
X8566963Y-14359176D02*
X8566963Y-14159176D01*
X8614582Y-14159176D01*
X8643153Y-14168700D01*
X8662201Y-14187748D01*
X8671725Y-14206795D01*
X8681249Y-14244890D01*
X8681249Y-14273462D01*
X8671725Y-14311557D01*
X8662201Y-14330605D01*
X8643153Y-14349652D01*
X8614582Y-14359176D01*
X8566963Y-14359176D01*
X8766963Y-14359176D02*
X8766963Y-14225843D01*
X8766963Y-14263938D02*
X8776487Y-14244890D01*
X8786011Y-14235367D01*
X8805058Y-14225843D01*
X8824106Y-14225843D01*
X8890772Y-14359176D02*
X8890772Y-14225843D01*
X8890772Y-14159176D02*
X8881249Y-14168700D01*
X8890772Y-14178224D01*
X8900296Y-14168700D01*
X8890772Y-14159176D01*
X8890772Y-14178224D01*
X9014582Y-14359176D02*
X8995534Y-14349652D01*
X8986011Y-14330605D01*
X8986011Y-14159176D01*
X9119344Y-14359176D02*
X9100296Y-14349652D01*
X9090772Y-14330605D01*
X9090772Y-14159176D01*
X9347915Y-14359176D02*
X9347915Y-14159176D01*
X9414582Y-14302033D01*
X9481249Y-14159176D01*
X9481249Y-14359176D01*
X9662201Y-14359176D02*
X9662201Y-14254414D01*
X9652677Y-14235367D01*
X9633630Y-14225843D01*
X9595534Y-14225843D01*
X9576487Y-14235367D01*
X9662201Y-14349652D02*
X9643153Y-14359176D01*
X9595534Y-14359176D01*
X9576487Y-14349652D01*
X9566963Y-14330605D01*
X9566963Y-14311557D01*
X9576487Y-14292509D01*
X9595534Y-14282986D01*
X9643153Y-14282986D01*
X9662201Y-14273462D01*
X9757439Y-14225843D02*
X9757439Y-14425843D01*
X9757439Y-14235367D02*
X9776487Y-14225843D01*
X9814582Y-14225843D01*
X9833630Y-14235367D01*
X9843153Y-14244890D01*
X9852677Y-14263938D01*
X9852677Y-14321081D01*
X9843153Y-14340128D01*
X9833630Y-14349652D01*
X9814582Y-14359176D01*
X9776487Y-14359176D01*
X9757439Y-14349652D01*
X9938392Y-14340128D02*
X9947915Y-14349652D01*
X9938392Y-14359176D01*
X9928868Y-14349652D01*
X9938392Y-14340128D01*
X9938392Y-14359176D01*
X9938392Y-14235367D02*
X9947915Y-14244890D01*
X9938392Y-14254414D01*
X9928868Y-14244890D01*
X9938392Y-14235367D01*
X9938392Y-14254414D01*
M02*
