%FSLAX45Y45*%
G04 Gerber Fmt 4.5, Leading zero omitted, Abs format (unit mm)*
G04 Created by KiCad (PCBNEW 6.0.0-d3dd2cf0fa~116~ubuntu20.04.1) date 2022-03-15 23:08:24*
%MOMM*%
%LPD*%
G01*
G04 APERTURE LIST*
%TA.AperFunction,Profile*%
%ADD10C,0.050000*%
%TD*%
%ADD11C,0.200000*%
G04 APERTURE END LIST*
D10*
X16135717Y-11190197D02*
X14868315Y-11190197D01*
X12067599Y-10414000D02*
X12067599Y-11460000D01*
X13462001Y-11587000D02*
X12194599Y-11587000D01*
X14868315Y-11190197D02*
G75*
G03*
X14741315Y-11317197I0J-127000D01*
G01*
X12067599Y-11460000D02*
G75*
G03*
X12194599Y-11587000I127000J0D01*
G01*
X18234119Y-14046200D02*
G75*
G03*
X18310319Y-13970000I0J76200D01*
G01*
X8387000Y-12279500D02*
X13512800Y-12279900D01*
X14741315Y-11317197D02*
X14741315Y-13463197D01*
X13589001Y-10414000D02*
X13589001Y-11460000D01*
X16135717Y-13590197D02*
G75*
G03*
X16262717Y-13463197I0J127000D01*
G01*
X8397000Y-4049900D02*
X18234119Y-4049900D01*
X18310319Y-4126100D02*
G75*
G03*
X18234119Y-4049900I-76200J0D01*
G01*
X13589001Y-10414000D02*
G75*
G03*
X13462001Y-10287000I-127000J0D01*
G01*
X16262717Y-11317197D02*
G75*
G03*
X16135717Y-11190197I-127000J0D01*
G01*
X16262717Y-11317197D02*
X16262717Y-13463197D01*
X16135717Y-13590197D02*
X14868315Y-13590197D01*
X13589000Y-12365519D02*
X13589000Y-13970000D01*
X13589000Y-12365519D02*
G75*
G03*
X13512800Y-12279900I-86202J-1D01*
G01*
X8397000Y-4049900D02*
G75*
G03*
X8312000Y-4124900I1J-85667D01*
G01*
X13462001Y-10287000D02*
X12194599Y-10287000D01*
X14741315Y-13463197D02*
G75*
G03*
X14868315Y-13590197I127000J0D01*
G01*
X18234119Y-14046200D02*
X13665200Y-14046200D01*
X18310319Y-4126100D02*
X18310319Y-13970000D01*
X13589000Y-13970000D02*
G75*
G03*
X13665200Y-14046200I76200J0D01*
G01*
X13462001Y-11587000D02*
G75*
G03*
X13589001Y-11460000I0J127000D01*
G01*
X8312000Y-12194500D02*
G75*
G03*
X8387000Y-12279500I85667J1D01*
G01*
X12194599Y-10287000D02*
G75*
G03*
X12067599Y-10414000I0J-127000D01*
G01*
X8312000Y-4124900D02*
X8312000Y-12194500D01*
D11*
X8567119Y-14359176D02*
X8567119Y-14159176D01*
X8614738Y-14159176D01*
X8643310Y-14168700D01*
X8662357Y-14187748D01*
X8671881Y-14206795D01*
X8681405Y-14244890D01*
X8681405Y-14273462D01*
X8671881Y-14311557D01*
X8662357Y-14330605D01*
X8643310Y-14349652D01*
X8614738Y-14359176D01*
X8567119Y-14359176D01*
X8767119Y-14359176D02*
X8767119Y-14225843D01*
X8767119Y-14263938D02*
X8776643Y-14244890D01*
X8786167Y-14235367D01*
X8805214Y-14225843D01*
X8824262Y-14225843D01*
X8890929Y-14359176D02*
X8890929Y-14225843D01*
X8890929Y-14159176D02*
X8881405Y-14168700D01*
X8890929Y-14178224D01*
X8900452Y-14168700D01*
X8890929Y-14159176D01*
X8890929Y-14178224D01*
X9014738Y-14359176D02*
X8995690Y-14349652D01*
X8986167Y-14330605D01*
X8986167Y-14159176D01*
X9119500Y-14359176D02*
X9100452Y-14349652D01*
X9090929Y-14330605D01*
X9090929Y-14159176D01*
X9348071Y-14359176D02*
X9348071Y-14159176D01*
X9414738Y-14302033D01*
X9481405Y-14159176D01*
X9481405Y-14359176D01*
X9662357Y-14359176D02*
X9662357Y-14254414D01*
X9652833Y-14235367D01*
X9633786Y-14225843D01*
X9595690Y-14225843D01*
X9576643Y-14235367D01*
X9662357Y-14349652D02*
X9643310Y-14359176D01*
X9595690Y-14359176D01*
X9576643Y-14349652D01*
X9567119Y-14330605D01*
X9567119Y-14311557D01*
X9576643Y-14292509D01*
X9595690Y-14282986D01*
X9643310Y-14282986D01*
X9662357Y-14273462D01*
X9757595Y-14225843D02*
X9757595Y-14425843D01*
X9757595Y-14235367D02*
X9776643Y-14225843D01*
X9814738Y-14225843D01*
X9833786Y-14235367D01*
X9843310Y-14244890D01*
X9852833Y-14263938D01*
X9852833Y-14321081D01*
X9843310Y-14340128D01*
X9833786Y-14349652D01*
X9814738Y-14359176D01*
X9776643Y-14359176D01*
X9757595Y-14349652D01*
X9938548Y-14340128D02*
X9948071Y-14349652D01*
X9938548Y-14359176D01*
X9929024Y-14349652D01*
X9938548Y-14340128D01*
X9938548Y-14359176D01*
X9938548Y-14235367D02*
X9948071Y-14244890D01*
X9938548Y-14254414D01*
X9929024Y-14244890D01*
X9938548Y-14235367D01*
X9938548Y-14254414D01*
M02*
