%FSLAX45Y45*%
G04 Gerber Fmt 4.5, Leading zero omitted, Abs format (unit mm)*
G04 Created by KiCad (PCBNEW 6.0.0-d3dd2cf0fa~116~ubuntu20.04.1) date 2022-03-15 23:08:24*
%MOMM*%
%LPD*%
G01*
G04 APERTURE LIST*
%TA.AperFunction,Profile*%
%ADD10C,0.050000*%
%TD*%
%ADD11C,0.200000*%
%ADD12C,0.030000*%
%ADD13C,0.038100*%
%ADD14C,0.040000*%
%ADD15C,0.050800*%
%ADD16C,0.060000*%
%ADD17C,0.070000*%
%ADD18C,0.076200*%
%ADD19C,0.088900*%
%ADD20C,0.100000*%
%ADD21C,0.231140*%
%ADD22C,0.320000*%
G04 APERTURE END LIST*
D10*
X16135717Y-11190197D02*
X14868315Y-11190197D01*
X12067599Y-10414000D02*
X12067599Y-11460000D01*
X13462001Y-11587000D02*
X12194599Y-11587000D01*
X14868315Y-11190197D02*
G75*
G03*
X14741315Y-11317197I0J-127000D01*
G01*
X12067599Y-11460000D02*
G75*
G03*
X12194599Y-11587000I127000J0D01*
G01*
X18234119Y-14046200D02*
G75*
G03*
X18310319Y-13970000I0J76200D01*
G01*
X8387000Y-12279500D02*
X13512800Y-12279900D01*
X14741315Y-11317197D02*
X14741315Y-13463197D01*
X13589001Y-10414000D02*
X13589001Y-11460000D01*
X16135717Y-13590197D02*
G75*
G03*
X16262717Y-13463197I0J127000D01*
G01*
X8397000Y-4049900D02*
X18234119Y-4049900D01*
X18310319Y-4126100D02*
G75*
G03*
X18234119Y-4049900I-76200J0D01*
G01*
X13589001Y-10414000D02*
G75*
G03*
X13462001Y-10287000I-127000J0D01*
G01*
X16262717Y-11317197D02*
G75*
G03*
X16135717Y-11190197I-127000J0D01*
G01*
X16262717Y-11317197D02*
X16262717Y-13463197D01*
X16135717Y-13590197D02*
X14868315Y-13590197D01*
X13589000Y-12365519D02*
X13589000Y-13970000D01*
X13589000Y-12365519D02*
G75*
G03*
X13512800Y-12279900I-86202J-1D01*
G01*
X8397000Y-4049900D02*
G75*
G03*
X8312000Y-4124900I1J-85667D01*
G01*
X13462001Y-10287000D02*
X12194599Y-10287000D01*
X14741315Y-13463197D02*
G75*
G03*
X14868315Y-13590197I127000J0D01*
G01*
X18234119Y-14046200D02*
X13665200Y-14046200D01*
X18310319Y-4126100D02*
X18310319Y-13970000D01*
X13589000Y-13970000D02*
G75*
G03*
X13665200Y-14046200I76200J0D01*
G01*
X13462001Y-11587000D02*
G75*
G03*
X13589001Y-11460000I0J127000D01*
G01*
X8312000Y-12194500D02*
G75*
G03*
X8387000Y-12279500I85667J1D01*
G01*
X12194599Y-10287000D02*
G75*
G03*
X12067599Y-10414000I0J-127000D01*
G01*
X8312000Y-4124900D02*
X8312000Y-12194500D01*
D11*
D12*
X10019467Y-5517000D02*
X10049467Y-5547000D01*
X10049467Y-5517000D02*
X10019467Y-5547000D01*
X10019467Y-6025000D02*
X10049467Y-6055000D01*
X10049467Y-6025000D02*
X10019467Y-6055000D01*
X10019467Y-6723500D02*
X10049467Y-6753500D01*
X10049467Y-6723500D02*
X10019467Y-6753500D01*
X10019467Y-7231500D02*
X10049467Y-7261500D01*
X10049467Y-7231500D02*
X10019467Y-7261500D01*
X10019467Y-7422000D02*
X10049467Y-7452000D01*
X10049467Y-7422000D02*
X10019467Y-7452000D01*
X10019467Y-7803000D02*
X10049467Y-7833000D01*
X10049467Y-7803000D02*
X10019467Y-7833000D01*
X12114967Y-5517000D02*
X12144967Y-5547000D01*
X12144967Y-5517000D02*
X12114967Y-5547000D01*
X12114967Y-5644000D02*
X12144967Y-5674000D01*
X12144967Y-5644000D02*
X12114967Y-5674000D01*
X12114967Y-5771000D02*
X12144967Y-5801000D01*
X12144967Y-5771000D02*
X12114967Y-5801000D01*
X12114967Y-5898000D02*
X12144967Y-5928000D01*
X12144967Y-5898000D02*
X12114967Y-5928000D01*
X12216567Y-7676000D02*
X12246567Y-7706000D01*
X12246567Y-7676000D02*
X12216567Y-7706000D01*
X12267367Y-7752200D02*
X12297367Y-7782200D01*
X12297367Y-7752200D02*
X12267367Y-7782200D01*
X12559467Y-5707500D02*
X12589467Y-5737500D01*
X12589467Y-5707500D02*
X12559467Y-5737500D01*
X13664367Y-10444600D02*
X13694367Y-10474600D01*
X13694367Y-10444600D02*
X13664367Y-10474600D01*
X13689767Y-10254100D02*
X13719767Y-10284100D01*
X13719767Y-10254100D02*
X13689767Y-10284100D01*
X13715167Y-10508100D02*
X13745167Y-10538100D01*
X13745167Y-10508100D02*
X13715167Y-10538100D01*
X13722787Y-12118460D02*
X13752787Y-12148460D01*
X13752787Y-12118460D02*
X13722787Y-12148460D01*
X13732807Y-12033135D02*
X13762807Y-12063135D01*
X13762807Y-12033135D02*
X13732807Y-12063135D01*
X13833080Y-12126200D02*
X13863080Y-12156200D01*
X13863080Y-12126200D02*
X13833080Y-12156200D01*
X13865619Y-10818928D02*
X13895619Y-10848928D01*
X13895619Y-10818928D02*
X13865619Y-10848928D01*
X13956467Y-5707500D02*
X13986467Y-5737500D01*
X13986467Y-5707500D02*
X13956467Y-5737500D01*
X13981867Y-10457300D02*
X14011867Y-10487300D01*
X14011867Y-10457300D02*
X13981867Y-10487300D01*
X14096167Y-13746600D02*
X14126167Y-13776600D01*
X14126167Y-13746600D02*
X14096167Y-13776600D01*
X14134267Y-10266800D02*
X14164267Y-10296800D01*
X14164267Y-10266800D02*
X14134267Y-10296800D01*
X14223167Y-10622400D02*
X14253167Y-10652400D01*
X14253167Y-10622400D02*
X14223167Y-10652400D01*
X14248567Y-10711300D02*
X14278567Y-10741300D01*
X14278567Y-10711300D02*
X14248567Y-10741300D01*
X14417280Y-10424400D02*
X14447280Y-10454400D01*
X14447280Y-10424400D02*
X14417280Y-10454400D01*
X14464467Y-5644000D02*
X14494467Y-5674000D01*
X14494467Y-5644000D02*
X14464467Y-5674000D01*
X14718467Y-10266800D02*
X14748467Y-10296800D01*
X14748467Y-10266800D02*
X14718467Y-10296800D01*
X14718467Y-10597000D02*
X14748467Y-10627000D01*
X14748467Y-10597000D02*
X14718467Y-10627000D01*
X14958300Y-10353280D02*
X14988300Y-10383280D01*
X14988300Y-10353280D02*
X14958300Y-10383280D01*
X14985167Y-10939900D02*
X15015167Y-10969900D01*
X15015167Y-10939900D02*
X14985167Y-10969900D01*
X15315367Y-10266800D02*
X15345367Y-10296800D01*
X15345367Y-10266800D02*
X15315367Y-10296800D01*
X15556667Y-10393800D02*
X15586667Y-10423800D01*
X15586667Y-10393800D02*
X15556667Y-10423800D01*
X15582067Y-10952600D02*
X15612067Y-10982600D01*
X15612067Y-10952600D02*
X15582067Y-10982600D01*
X15607467Y-5580500D02*
X15637467Y-5610500D01*
X15637467Y-5580500D02*
X15607467Y-5610500D01*
X15886867Y-10266800D02*
X15916867Y-10296800D01*
X15916867Y-10266800D02*
X15886867Y-10296800D01*
D13*
X11501317Y-7487800D02*
G75*
G03*
X11501317Y-7487800I-19050J0D01*
G01*
X12276017Y-11932800D02*
G75*
G03*
X12276017Y-11932800I-19050J0D01*
G01*
D14*
X12138660Y-8235000D02*
X12138660Y-8275000D01*
X12118660Y-8255000D02*
X12158660Y-8255000D01*
X12352020Y-7467920D02*
X12352020Y-7507920D01*
X12332020Y-7487920D02*
X12372020Y-7487920D01*
X12636500Y-10030780D02*
X12636500Y-10070780D01*
X12616500Y-10050780D02*
X12656500Y-10050780D01*
X15330367Y-10592000D02*
X15330367Y-10632000D01*
X15310367Y-10612000D02*
X15350367Y-10612000D01*
X15901867Y-10553900D02*
X15901867Y-10593900D01*
X15881867Y-10573900D02*
X15921867Y-10573900D01*
X16092367Y-10553900D02*
X16092367Y-10593900D01*
X16072367Y-10573900D02*
X16112367Y-10573900D01*
D15*
X13100428Y-9258361D02*
X13100428Y-9222439D01*
X13064506Y-9222439D01*
X13064506Y-9258361D01*
X13100428Y-9258361D01*
X14306928Y-9702861D02*
X14306928Y-9666939D01*
X14271006Y-9666939D01*
X14271006Y-9702861D01*
X14306928Y-9702861D01*
X15513428Y-9702861D02*
X15513428Y-9666939D01*
X15477506Y-9666939D01*
X15477506Y-9702861D01*
X15513428Y-9702861D01*
X16256328Y-9588561D02*
X16256328Y-9552639D01*
X16220406Y-9552639D01*
X16220406Y-9588561D01*
X16256328Y-9588561D01*
X16832761Y-11905161D02*
X16832761Y-11869239D01*
X16796839Y-11869239D01*
X16796839Y-11905161D01*
X16832761Y-11905161D01*
D16*
X8737300Y-10903300D02*
X8767300Y-10873300D01*
X8737300Y-10843300D01*
X8707300Y-10873300D01*
X8737300Y-10903300D01*
D11*
X8777300Y-10853300D02*
X8697300Y-10853300D01*
X8777300Y-10893300D02*
X8697300Y-10893300D01*
X8697300Y-10853300D02*
G75*
G03*
X8697300Y-10893300I0J-20000D01*
G01*
X8777300Y-10893300D02*
G75*
G03*
X8777300Y-10853300I0J20000D01*
G01*
D16*
X8737300Y-12183300D02*
X8767300Y-12153300D01*
X8737300Y-12123300D01*
X8707300Y-12153300D01*
X8737300Y-12183300D01*
D11*
X8777300Y-12133300D02*
X8697300Y-12133300D01*
X8777300Y-12173300D02*
X8697300Y-12173300D01*
X8697300Y-12133300D02*
G75*
G03*
X8697300Y-12173300I0J-20000D01*
G01*
X8777300Y-12173300D02*
G75*
G03*
X8777300Y-12133300I0J20000D01*
G01*
D16*
X9587300Y-10903300D02*
X9617300Y-10873300D01*
X9587300Y-10843300D01*
X9557300Y-10873300D01*
X9587300Y-10903300D01*
D11*
X9642300Y-10853300D02*
X9532300Y-10853300D01*
X9642300Y-10893300D02*
X9532300Y-10893300D01*
X9532300Y-10853300D02*
G75*
G03*
X9532300Y-10893300I0J-20000D01*
G01*
X9642300Y-10893300D02*
G75*
G03*
X9642300Y-10853300I0J20000D01*
G01*
D16*
X9587300Y-12183300D02*
X9617300Y-12153300D01*
X9587300Y-12123300D01*
X9557300Y-12153300D01*
X9587300Y-12183300D01*
D11*
X9642300Y-12133300D02*
X9532300Y-12133300D01*
X9642300Y-12173300D02*
X9532300Y-12173300D01*
X9532300Y-12133300D02*
G75*
G03*
X9532300Y-12173300I0J-20000D01*
G01*
X9642300Y-12173300D02*
G75*
G03*
X9642300Y-12133300I0J20000D01*
G01*
D17*
X9477300Y-11128300D02*
X9547300Y-11198300D01*
X9547300Y-11128300D02*
X9477300Y-11198300D01*
X9547300Y-11163300D02*
G75*
G03*
X9547300Y-11163300I-35000J0D01*
G01*
X9477300Y-11378300D02*
X9547300Y-11448300D01*
X9547300Y-11378300D02*
X9477300Y-11448300D01*
X9547300Y-11413300D02*
G75*
G03*
X9547300Y-11413300I-35000J0D01*
G01*
X9477300Y-11578300D02*
X9547300Y-11648300D01*
X9547300Y-11578300D02*
X9477300Y-11648300D01*
X9547300Y-11613300D02*
G75*
G03*
X9547300Y-11613300I-35000J0D01*
G01*
X9477300Y-11828300D02*
X9547300Y-11898300D01*
X9547300Y-11828300D02*
X9477300Y-11898300D01*
X9547300Y-11863300D02*
G75*
G03*
X9547300Y-11863300I-35000J0D01*
G01*
X9627300Y-11078300D02*
X9697300Y-11148300D01*
X9697300Y-11078300D02*
X9627300Y-11148300D01*
X9697300Y-11113300D02*
G75*
G03*
X9697300Y-11113300I-35000J0D01*
G01*
X9627300Y-11278300D02*
X9697300Y-11348300D01*
X9697300Y-11278300D02*
X9627300Y-11348300D01*
X9697300Y-11313300D02*
G75*
G03*
X9697300Y-11313300I-35000J0D01*
G01*
X9627300Y-11478300D02*
X9697300Y-11548300D01*
X9697300Y-11478300D02*
X9627300Y-11548300D01*
X9697300Y-11513300D02*
G75*
G03*
X9697300Y-11513300I-35000J0D01*
G01*
X9627300Y-11678300D02*
X9697300Y-11748300D01*
X9697300Y-11678300D02*
X9627300Y-11748300D01*
X9697300Y-11713300D02*
G75*
G03*
X9697300Y-11713300I-35000J0D01*
G01*
X9627300Y-11878300D02*
X9697300Y-11948300D01*
X9697300Y-11878300D02*
X9627300Y-11948300D01*
X9697300Y-11913300D02*
G75*
G03*
X9697300Y-11913300I-35000J0D01*
G01*
D18*
X13045440Y-8427720D02*
X13121640Y-8503920D01*
X13121640Y-8427720D02*
X13045440Y-8503920D01*
X13083540Y-8427720D02*
X13083540Y-8503920D01*
X13045440Y-8465820D02*
X13121640Y-8465820D01*
X13618407Y-9540120D02*
X13694607Y-9616320D01*
X13694607Y-9540120D02*
X13618407Y-9616320D01*
X13656507Y-9540120D02*
X13656507Y-9616320D01*
X13618407Y-9578220D02*
X13694607Y-9578220D01*
X14187367Y-4858900D02*
X14263567Y-4935100D01*
X14263567Y-4858900D02*
X14187367Y-4935100D01*
X14225467Y-4858900D02*
X14225467Y-4935100D01*
X14187367Y-4897000D02*
X14263567Y-4897000D01*
X17171867Y-6573400D02*
X17248067Y-6649600D01*
X17248067Y-6573400D02*
X17171867Y-6649600D01*
X17209967Y-6573400D02*
X17209967Y-6649600D01*
X17171867Y-6611500D02*
X17248067Y-6611500D01*
D19*
X12885730Y-4794250D02*
X12974630Y-4883150D01*
X12974630Y-4794250D02*
X12885730Y-4883150D01*
X12961611Y-4870131D02*
X12961611Y-4807269D01*
X12898749Y-4807269D01*
X12898749Y-4870131D01*
X12961611Y-4870131D01*
X12885730Y-5043170D02*
X12974630Y-5132070D01*
X12974630Y-5043170D02*
X12885730Y-5132070D01*
X12961611Y-5119051D02*
X12961611Y-5056189D01*
X12898749Y-5056189D01*
X12898749Y-5119051D01*
X12961611Y-5119051D01*
X13091470Y-4794250D02*
X13180370Y-4883150D01*
X13180370Y-4794250D02*
X13091470Y-4883150D01*
X13167351Y-4870131D02*
X13167351Y-4807269D01*
X13104489Y-4807269D01*
X13104489Y-4870131D01*
X13167351Y-4870131D01*
X13350550Y-4794250D02*
X13439450Y-4883150D01*
X13439450Y-4794250D02*
X13350550Y-4883150D01*
X13426431Y-4870131D02*
X13426431Y-4807269D01*
X13363569Y-4807269D01*
X13363569Y-4870131D01*
X13426431Y-4870131D01*
X13556290Y-4794250D02*
X13645190Y-4883150D01*
X13645190Y-4794250D02*
X13556290Y-4883150D01*
X13632171Y-4870131D02*
X13632171Y-4807269D01*
X13569309Y-4807269D01*
X13569309Y-4870131D01*
X13632171Y-4870131D01*
X13556290Y-5043170D02*
X13645190Y-5132070D01*
X13645190Y-5043170D02*
X13556290Y-5132070D01*
X13632171Y-5119051D02*
X13632171Y-5056189D01*
X13569309Y-5056189D01*
X13569309Y-5119051D01*
X13632171Y-5119051D01*
X14794230Y-4794250D02*
X14883130Y-4883150D01*
X14883130Y-4794250D02*
X14794230Y-4883150D01*
X14870111Y-4870131D02*
X14870111Y-4807269D01*
X14807249Y-4807269D01*
X14807249Y-4870131D01*
X14870111Y-4870131D01*
X14794230Y-5043170D02*
X14883130Y-5132070D01*
X14883130Y-5043170D02*
X14794230Y-5132070D01*
X14870111Y-5119051D02*
X14870111Y-5056189D01*
X14807249Y-5056189D01*
X14807249Y-5119051D01*
X14870111Y-5119051D01*
X14999970Y-4794250D02*
X15088870Y-4883150D01*
X15088870Y-4794250D02*
X14999970Y-4883150D01*
X15075851Y-4870131D02*
X15075851Y-4807269D01*
X15012989Y-4807269D01*
X15012989Y-4870131D01*
X15075851Y-4870131D01*
X15259050Y-4794250D02*
X15347950Y-4883150D01*
X15347950Y-4794250D02*
X15259050Y-4883150D01*
X15334931Y-4870131D02*
X15334931Y-4807269D01*
X15272069Y-4807269D01*
X15272069Y-4870131D01*
X15334931Y-4870131D01*
X15464790Y-4794250D02*
X15553690Y-4883150D01*
X15553690Y-4794250D02*
X15464790Y-4883150D01*
X15540671Y-4870131D02*
X15540671Y-4807269D01*
X15477809Y-4807269D01*
X15477809Y-4870131D01*
X15540671Y-4870131D01*
X15464790Y-5043170D02*
X15553690Y-5132070D01*
X15553690Y-5043170D02*
X15464790Y-5132070D01*
X15540671Y-5119051D02*
X15540671Y-5056189D01*
X15477809Y-5056189D01*
X15477809Y-5119051D01*
X15540671Y-5119051D01*
D20*
X8496027Y-5477860D02*
X8596027Y-5577860D01*
X8596027Y-5477860D02*
X8496027Y-5577860D01*
X8546027Y-5577860D02*
X8596027Y-5527860D01*
X8546027Y-5477860D01*
X8496027Y-5527860D01*
X8546027Y-5577860D01*
X8496027Y-5706860D02*
X8596027Y-5806860D01*
X8596027Y-5706860D02*
X8496027Y-5806860D01*
X8546027Y-5806860D02*
X8596027Y-5756860D01*
X8546027Y-5706860D01*
X8496027Y-5756860D01*
X8546027Y-5806860D01*
X8496027Y-5935860D02*
X8596027Y-6035860D01*
X8596027Y-5935860D02*
X8496027Y-6035860D01*
X8546027Y-6035860D02*
X8596027Y-5985860D01*
X8546027Y-5935860D01*
X8496027Y-5985860D01*
X8546027Y-6035860D01*
X8496027Y-6164860D02*
X8596027Y-6264860D01*
X8596027Y-6164860D02*
X8496027Y-6264860D01*
X8546027Y-6264860D02*
X8596027Y-6214860D01*
X8546027Y-6164860D01*
X8496027Y-6214860D01*
X8546027Y-6264860D01*
X8496027Y-6393860D02*
X8596027Y-6493860D01*
X8596027Y-6393860D02*
X8496027Y-6493860D01*
X8546027Y-6493860D02*
X8596027Y-6443860D01*
X8546027Y-6393860D01*
X8496027Y-6443860D01*
X8546027Y-6493860D01*
X8750027Y-5592360D02*
X8850027Y-5692360D01*
X8850027Y-5592360D02*
X8750027Y-5692360D01*
X8800027Y-5692360D02*
X8850027Y-5642360D01*
X8800027Y-5592360D01*
X8750027Y-5642360D01*
X8800027Y-5692360D01*
X8750027Y-5821360D02*
X8850027Y-5921360D01*
X8850027Y-5821360D02*
X8750027Y-5921360D01*
X8800027Y-5921360D02*
X8850027Y-5871360D01*
X8800027Y-5821360D01*
X8750027Y-5871360D01*
X8800027Y-5921360D01*
X8750027Y-6050360D02*
X8850027Y-6150360D01*
X8850027Y-6050360D02*
X8750027Y-6150360D01*
X8800027Y-6150360D02*
X8850027Y-6100360D01*
X8800027Y-6050360D01*
X8750027Y-6100360D01*
X8800027Y-6150360D01*
X8750027Y-6279360D02*
X8850027Y-6379360D01*
X8850027Y-6279360D02*
X8750027Y-6379360D01*
X8800027Y-6379360D02*
X8850027Y-6329360D01*
X8800027Y-6279360D01*
X8750027Y-6329360D01*
X8800027Y-6379360D01*
X8750027Y-6508360D02*
X8850027Y-6608360D01*
X8850027Y-6508360D02*
X8750027Y-6608360D01*
X8800027Y-6608360D02*
X8850027Y-6558360D01*
X8800027Y-6508360D01*
X8750027Y-6558360D01*
X8800027Y-6608360D01*
X8841967Y-8212500D02*
X8941967Y-8312500D01*
X8941967Y-8212500D02*
X8841967Y-8312500D01*
X8891967Y-8312500D02*
X8941967Y-8262500D01*
X8891967Y-8212500D01*
X8841967Y-8262500D01*
X8891967Y-8312500D01*
X9004027Y-5477860D02*
X9104027Y-5577860D01*
X9104027Y-5477860D02*
X9004027Y-5577860D01*
X9054027Y-5577860D02*
X9104027Y-5527860D01*
X9054027Y-5477860D01*
X9004027Y-5527860D01*
X9054027Y-5577860D01*
X9004027Y-5706860D02*
X9104027Y-5806860D01*
X9104027Y-5706860D02*
X9004027Y-5806860D01*
X9054027Y-5806860D02*
X9104027Y-5756860D01*
X9054027Y-5706860D01*
X9004027Y-5756860D01*
X9054027Y-5806860D01*
X9004027Y-5935860D02*
X9104027Y-6035860D01*
X9104027Y-5935860D02*
X9004027Y-6035860D01*
X9054027Y-6035860D02*
X9104027Y-5985860D01*
X9054027Y-5935860D01*
X9004027Y-5985860D01*
X9054027Y-6035860D01*
X9004027Y-6164860D02*
X9104027Y-6264860D01*
X9104027Y-6164860D02*
X9004027Y-6264860D01*
X9054027Y-6264860D02*
X9104027Y-6214860D01*
X9054027Y-6164860D01*
X9004027Y-6214860D01*
X9054027Y-6264860D01*
X9004027Y-6393860D02*
X9104027Y-6493860D01*
X9104027Y-6393860D02*
X9004027Y-6493860D01*
X9054027Y-6493860D02*
X9104027Y-6443860D01*
X9054027Y-6393860D01*
X9004027Y-6443860D01*
X9054027Y-6493860D01*
X9095967Y-8212500D02*
X9195967Y-8312500D01*
X9195967Y-8212500D02*
X9095967Y-8312500D01*
X9145967Y-8312500D02*
X9195967Y-8262500D01*
X9145967Y-8212500D01*
X9095967Y-8262500D01*
X9145967Y-8312500D01*
X9278347Y-8583340D02*
X9378347Y-8683340D01*
X9378347Y-8583340D02*
X9278347Y-8683340D01*
X9328347Y-8683340D02*
X9378347Y-8633340D01*
X9328347Y-8583340D01*
X9278347Y-8633340D01*
X9328347Y-8683340D01*
X9278347Y-8837340D02*
X9378347Y-8937340D01*
X9378347Y-8837340D02*
X9278347Y-8937340D01*
X9328347Y-8937340D02*
X9378347Y-8887340D01*
X9328347Y-8837340D01*
X9278347Y-8887340D01*
X9328347Y-8937340D01*
X9278347Y-9091340D02*
X9378347Y-9191340D01*
X9378347Y-9091340D02*
X9278347Y-9191340D01*
X9328347Y-9191340D02*
X9378347Y-9141340D01*
X9328347Y-9091340D01*
X9278347Y-9141340D01*
X9328347Y-9191340D01*
X9278347Y-9345340D02*
X9378347Y-9445340D01*
X9378347Y-9345340D02*
X9278347Y-9445340D01*
X9328347Y-9445340D02*
X9378347Y-9395340D01*
X9328347Y-9345340D01*
X9278347Y-9395340D01*
X9328347Y-9445340D01*
X9278347Y-9599340D02*
X9378347Y-9699340D01*
X9378347Y-9599340D02*
X9278347Y-9699340D01*
X9328347Y-9699340D02*
X9378347Y-9649340D01*
X9328347Y-9599340D01*
X9278347Y-9649340D01*
X9328347Y-9699340D01*
X9278347Y-9853340D02*
X9378347Y-9953340D01*
X9378347Y-9853340D02*
X9278347Y-9953340D01*
X9328347Y-9953340D02*
X9378347Y-9903340D01*
X9328347Y-9853340D01*
X9278347Y-9903340D01*
X9328347Y-9953340D01*
X9532347Y-8583340D02*
X9632347Y-8683340D01*
X9632347Y-8583340D02*
X9532347Y-8683340D01*
X9582347Y-8683340D02*
X9632347Y-8633340D01*
X9582347Y-8583340D01*
X9532347Y-8633340D01*
X9582347Y-8683340D01*
X9532347Y-8837340D02*
X9632347Y-8937340D01*
X9632347Y-8837340D02*
X9532347Y-8937340D01*
X9582347Y-8937340D02*
X9632347Y-8887340D01*
X9582347Y-8837340D01*
X9532347Y-8887340D01*
X9582347Y-8937340D01*
X9532347Y-9091340D02*
X9632347Y-9191340D01*
X9632347Y-9091340D02*
X9532347Y-9191340D01*
X9582347Y-9191340D02*
X9632347Y-9141340D01*
X9582347Y-9091340D01*
X9532347Y-9141340D01*
X9582347Y-9191340D01*
X9532347Y-9345340D02*
X9632347Y-9445340D01*
X9632347Y-9345340D02*
X9532347Y-9445340D01*
X9582347Y-9445340D02*
X9632347Y-9395340D01*
X9582347Y-9345340D01*
X9532347Y-9395340D01*
X9582347Y-9445340D01*
X9532347Y-9599340D02*
X9632347Y-9699340D01*
X9632347Y-9599340D02*
X9532347Y-9699340D01*
X9582347Y-9699340D02*
X9632347Y-9649340D01*
X9582347Y-9599340D01*
X9532347Y-9649340D01*
X9582347Y-9699340D01*
X9532347Y-9853340D02*
X9632347Y-9953340D01*
X9632347Y-9853340D02*
X9532347Y-9953340D01*
X9582347Y-9953340D02*
X9632347Y-9903340D01*
X9582347Y-9853340D01*
X9532347Y-9903340D01*
X9582347Y-9953340D01*
X10618000Y-5284000D02*
X10718000Y-5384000D01*
X10718000Y-5284000D02*
X10618000Y-5384000D01*
X10668000Y-5384000D02*
X10718000Y-5334000D01*
X10668000Y-5284000D01*
X10618000Y-5334000D01*
X10668000Y-5384000D01*
X10618000Y-5538000D02*
X10718000Y-5638000D01*
X10718000Y-5538000D02*
X10618000Y-5638000D01*
X10668000Y-5638000D02*
X10718000Y-5588000D01*
X10668000Y-5538000D01*
X10618000Y-5588000D01*
X10668000Y-5638000D01*
X10618000Y-5792000D02*
X10718000Y-5892000D01*
X10718000Y-5792000D02*
X10618000Y-5892000D01*
X10668000Y-5892000D02*
X10718000Y-5842000D01*
X10668000Y-5792000D01*
X10618000Y-5842000D01*
X10668000Y-5892000D01*
X10618000Y-6046000D02*
X10718000Y-6146000D01*
X10718000Y-6046000D02*
X10618000Y-6146000D01*
X10668000Y-6146000D02*
X10718000Y-6096000D01*
X10668000Y-6046000D01*
X10618000Y-6096000D01*
X10668000Y-6146000D01*
X10618000Y-6300000D02*
X10718000Y-6400000D01*
X10718000Y-6300000D02*
X10618000Y-6400000D01*
X10668000Y-6400000D02*
X10718000Y-6350000D01*
X10668000Y-6300000D01*
X10618000Y-6350000D01*
X10668000Y-6400000D01*
X10618000Y-6554000D02*
X10718000Y-6654000D01*
X10718000Y-6554000D02*
X10618000Y-6654000D01*
X10668000Y-6654000D02*
X10718000Y-6604000D01*
X10668000Y-6554000D01*
X10618000Y-6604000D01*
X10668000Y-6654000D01*
X10618000Y-7062000D02*
X10718000Y-7162000D01*
X10718000Y-7062000D02*
X10618000Y-7162000D01*
X10668000Y-7162000D02*
X10718000Y-7112000D01*
X10668000Y-7062000D01*
X10618000Y-7112000D01*
X10668000Y-7162000D01*
X10618000Y-7570000D02*
X10718000Y-7670000D01*
X10718000Y-7570000D02*
X10618000Y-7670000D01*
X10668000Y-7670000D02*
X10718000Y-7620000D01*
X10668000Y-7570000D01*
X10618000Y-7620000D01*
X10668000Y-7670000D01*
X10618000Y-7824000D02*
X10718000Y-7924000D01*
X10718000Y-7824000D02*
X10618000Y-7924000D01*
X10668000Y-7924000D02*
X10718000Y-7874000D01*
X10668000Y-7824000D01*
X10618000Y-7874000D01*
X10668000Y-7924000D01*
X10618000Y-8078000D02*
X10718000Y-8178000D01*
X10718000Y-8078000D02*
X10618000Y-8178000D01*
X10668000Y-8178000D02*
X10718000Y-8128000D01*
X10668000Y-8078000D01*
X10618000Y-8128000D01*
X10668000Y-8178000D01*
X10618000Y-8332000D02*
X10718000Y-8432000D01*
X10718000Y-8332000D02*
X10618000Y-8432000D01*
X10668000Y-8432000D02*
X10718000Y-8382000D01*
X10668000Y-8332000D01*
X10618000Y-8382000D01*
X10668000Y-8432000D01*
X10618000Y-8586000D02*
X10718000Y-8686000D01*
X10718000Y-8586000D02*
X10618000Y-8686000D01*
X10668000Y-8686000D02*
X10718000Y-8636000D01*
X10668000Y-8586000D01*
X10618000Y-8636000D01*
X10668000Y-8686000D01*
X10618000Y-8840000D02*
X10718000Y-8940000D01*
X10718000Y-8840000D02*
X10618000Y-8940000D01*
X10668000Y-8940000D02*
X10718000Y-8890000D01*
X10668000Y-8840000D01*
X10618000Y-8890000D01*
X10668000Y-8940000D01*
X10872000Y-5284000D02*
X10972000Y-5384000D01*
X10972000Y-5284000D02*
X10872000Y-5384000D01*
X10922000Y-5384000D02*
X10972000Y-5334000D01*
X10922000Y-5284000D01*
X10872000Y-5334000D01*
X10922000Y-5384000D01*
X10872000Y-5538000D02*
X10972000Y-5638000D01*
X10972000Y-5538000D02*
X10872000Y-5638000D01*
X10922000Y-5638000D02*
X10972000Y-5588000D01*
X10922000Y-5538000D01*
X10872000Y-5588000D01*
X10922000Y-5638000D01*
X10872000Y-5792000D02*
X10972000Y-5892000D01*
X10972000Y-5792000D02*
X10872000Y-5892000D01*
X10922000Y-5892000D02*
X10972000Y-5842000D01*
X10922000Y-5792000D01*
X10872000Y-5842000D01*
X10922000Y-5892000D01*
X10872000Y-6046000D02*
X10972000Y-6146000D01*
X10972000Y-6046000D02*
X10872000Y-6146000D01*
X10922000Y-6146000D02*
X10972000Y-6096000D01*
X10922000Y-6046000D01*
X10872000Y-6096000D01*
X10922000Y-6146000D01*
X10872000Y-6300000D02*
X10972000Y-6400000D01*
X10972000Y-6300000D02*
X10872000Y-6400000D01*
X10922000Y-6400000D02*
X10972000Y-6350000D01*
X10922000Y-6300000D01*
X10872000Y-6350000D01*
X10922000Y-6400000D01*
X10872000Y-6554000D02*
X10972000Y-6654000D01*
X10972000Y-6554000D02*
X10872000Y-6654000D01*
X10922000Y-6654000D02*
X10972000Y-6604000D01*
X10922000Y-6554000D01*
X10872000Y-6604000D01*
X10922000Y-6654000D01*
X10872000Y-7062000D02*
X10972000Y-7162000D01*
X10972000Y-7062000D02*
X10872000Y-7162000D01*
X10922000Y-7162000D02*
X10972000Y-7112000D01*
X10922000Y-7062000D01*
X10872000Y-7112000D01*
X10922000Y-7162000D01*
X10872000Y-7570000D02*
X10972000Y-7670000D01*
X10972000Y-7570000D02*
X10872000Y-7670000D01*
X10922000Y-7670000D02*
X10972000Y-7620000D01*
X10922000Y-7570000D01*
X10872000Y-7620000D01*
X10922000Y-7670000D01*
X10872000Y-7824000D02*
X10972000Y-7924000D01*
X10972000Y-7824000D02*
X10872000Y-7924000D01*
X10922000Y-7924000D02*
X10972000Y-7874000D01*
X10922000Y-7824000D01*
X10872000Y-7874000D01*
X10922000Y-7924000D01*
X10872000Y-8078000D02*
X10972000Y-8178000D01*
X10972000Y-8078000D02*
X10872000Y-8178000D01*
X10922000Y-8178000D02*
X10972000Y-8128000D01*
X10922000Y-8078000D01*
X10872000Y-8128000D01*
X10922000Y-8178000D01*
X10872000Y-8332000D02*
X10972000Y-8432000D01*
X10972000Y-8332000D02*
X10872000Y-8432000D01*
X10922000Y-8432000D02*
X10972000Y-8382000D01*
X10922000Y-8332000D01*
X10872000Y-8382000D01*
X10922000Y-8432000D01*
X10872000Y-8586000D02*
X10972000Y-8686000D01*
X10972000Y-8586000D02*
X10872000Y-8686000D01*
X10922000Y-8686000D02*
X10972000Y-8636000D01*
X10922000Y-8586000D01*
X10872000Y-8636000D01*
X10922000Y-8686000D01*
X10872000Y-8840000D02*
X10972000Y-8940000D01*
X10972000Y-8840000D02*
X10872000Y-8940000D01*
X10922000Y-8940000D02*
X10972000Y-8890000D01*
X10922000Y-8840000D01*
X10872000Y-8890000D01*
X10922000Y-8940000D01*
X11634000Y-4522000D02*
X11734000Y-4622000D01*
X11734000Y-4522000D02*
X11634000Y-4622000D01*
X11684000Y-4622000D02*
X11734000Y-4572000D01*
X11684000Y-4522000D01*
X11634000Y-4572000D01*
X11684000Y-4622000D01*
X11634000Y-4776000D02*
X11734000Y-4876000D01*
X11734000Y-4776000D02*
X11634000Y-4876000D01*
X11684000Y-4876000D02*
X11734000Y-4826000D01*
X11684000Y-4776000D01*
X11634000Y-4826000D01*
X11684000Y-4876000D01*
X11634000Y-5030000D02*
X11734000Y-5130000D01*
X11734000Y-5030000D02*
X11634000Y-5130000D01*
X11684000Y-5130000D02*
X11734000Y-5080000D01*
X11684000Y-5030000D01*
X11634000Y-5080000D01*
X11684000Y-5130000D01*
X11634000Y-5284000D02*
X11734000Y-5384000D01*
X11734000Y-5284000D02*
X11634000Y-5384000D01*
X11684000Y-5384000D02*
X11734000Y-5334000D01*
X11684000Y-5284000D01*
X11634000Y-5334000D01*
X11684000Y-5384000D01*
X11634000Y-5538000D02*
X11734000Y-5638000D01*
X11734000Y-5538000D02*
X11634000Y-5638000D01*
X11684000Y-5638000D02*
X11734000Y-5588000D01*
X11684000Y-5538000D01*
X11634000Y-5588000D01*
X11684000Y-5638000D01*
X11634000Y-5792000D02*
X11734000Y-5892000D01*
X11734000Y-5792000D02*
X11634000Y-5892000D01*
X11684000Y-5892000D02*
X11734000Y-5842000D01*
X11684000Y-5792000D01*
X11634000Y-5842000D01*
X11684000Y-5892000D01*
X11634000Y-6046000D02*
X11734000Y-6146000D01*
X11734000Y-6046000D02*
X11634000Y-6146000D01*
X11684000Y-6146000D02*
X11734000Y-6096000D01*
X11684000Y-6046000D01*
X11634000Y-6096000D01*
X11684000Y-6146000D01*
X11634000Y-6300000D02*
X11734000Y-6400000D01*
X11734000Y-6300000D02*
X11634000Y-6400000D01*
X11684000Y-6400000D02*
X11734000Y-6350000D01*
X11684000Y-6300000D01*
X11634000Y-6350000D01*
X11684000Y-6400000D01*
X11634000Y-6554000D02*
X11734000Y-6654000D01*
X11734000Y-6554000D02*
X11634000Y-6654000D01*
X11684000Y-6654000D02*
X11734000Y-6604000D01*
X11684000Y-6554000D01*
X11634000Y-6604000D01*
X11684000Y-6654000D01*
X11634000Y-6808000D02*
X11734000Y-6908000D01*
X11734000Y-6808000D02*
X11634000Y-6908000D01*
X11684000Y-6908000D02*
X11734000Y-6858000D01*
X11684000Y-6808000D01*
X11634000Y-6858000D01*
X11684000Y-6908000D01*
X11634000Y-7062000D02*
X11734000Y-7162000D01*
X11734000Y-7062000D02*
X11634000Y-7162000D01*
X11684000Y-7162000D02*
X11734000Y-7112000D01*
X11684000Y-7062000D01*
X11634000Y-7112000D01*
X11684000Y-7162000D01*
X11634000Y-7316000D02*
X11734000Y-7416000D01*
X11734000Y-7316000D02*
X11634000Y-7416000D01*
X11684000Y-7416000D02*
X11734000Y-7366000D01*
X11684000Y-7316000D01*
X11634000Y-7366000D01*
X11684000Y-7416000D01*
X11634000Y-7570000D02*
X11734000Y-7670000D01*
X11734000Y-7570000D02*
X11634000Y-7670000D01*
X11684000Y-7670000D02*
X11734000Y-7620000D01*
X11684000Y-7570000D01*
X11634000Y-7620000D01*
X11684000Y-7670000D01*
X11634000Y-7824000D02*
X11734000Y-7924000D01*
X11734000Y-7824000D02*
X11634000Y-7924000D01*
X11684000Y-7924000D02*
X11734000Y-7874000D01*
X11684000Y-7824000D01*
X11634000Y-7874000D01*
X11684000Y-7924000D01*
X11634000Y-8078000D02*
X11734000Y-8178000D01*
X11734000Y-8078000D02*
X11634000Y-8178000D01*
X11684000Y-8178000D02*
X11734000Y-8128000D01*
X11684000Y-8078000D01*
X11634000Y-8128000D01*
X11684000Y-8178000D01*
X11634000Y-8332000D02*
X11734000Y-8432000D01*
X11734000Y-8332000D02*
X11634000Y-8432000D01*
X11684000Y-8432000D02*
X11734000Y-8382000D01*
X11684000Y-8332000D01*
X11634000Y-8382000D01*
X11684000Y-8432000D01*
X11634000Y-8586000D02*
X11734000Y-8686000D01*
X11734000Y-8586000D02*
X11634000Y-8686000D01*
X11684000Y-8686000D02*
X11734000Y-8636000D01*
X11684000Y-8586000D01*
X11634000Y-8636000D01*
X11684000Y-8686000D01*
X11634000Y-8840000D02*
X11734000Y-8940000D01*
X11734000Y-8840000D02*
X11634000Y-8940000D01*
X11684000Y-8940000D02*
X11734000Y-8890000D01*
X11684000Y-8840000D01*
X11634000Y-8890000D01*
X11684000Y-8940000D01*
X11634000Y-9094000D02*
X11734000Y-9194000D01*
X11734000Y-9094000D02*
X11634000Y-9194000D01*
X11684000Y-9194000D02*
X11734000Y-9144000D01*
X11684000Y-9094000D01*
X11634000Y-9144000D01*
X11684000Y-9194000D01*
X11634000Y-9348000D02*
X11734000Y-9448000D01*
X11734000Y-9348000D02*
X11634000Y-9448000D01*
X11684000Y-9448000D02*
X11734000Y-9398000D01*
X11684000Y-9348000D01*
X11634000Y-9398000D01*
X11684000Y-9448000D01*
X11634000Y-9602000D02*
X11734000Y-9702000D01*
X11734000Y-9602000D02*
X11634000Y-9702000D01*
X11684000Y-9702000D02*
X11734000Y-9652000D01*
X11684000Y-9602000D01*
X11634000Y-9652000D01*
X11684000Y-9702000D01*
X11634000Y-9856000D02*
X11734000Y-9956000D01*
X11734000Y-9856000D02*
X11634000Y-9956000D01*
X11684000Y-9956000D02*
X11734000Y-9906000D01*
X11684000Y-9856000D01*
X11634000Y-9906000D01*
X11684000Y-9956000D01*
X11634000Y-10110000D02*
X11734000Y-10210000D01*
X11734000Y-10110000D02*
X11634000Y-10210000D01*
X11684000Y-10210000D02*
X11734000Y-10160000D01*
X11684000Y-10110000D01*
X11634000Y-10160000D01*
X11684000Y-10210000D01*
X11634000Y-10745000D02*
X11734000Y-10845000D01*
X11734000Y-10745000D02*
X11634000Y-10845000D01*
X11684000Y-10845000D02*
X11734000Y-10795000D01*
X11684000Y-10745000D01*
X11634000Y-10795000D01*
X11684000Y-10845000D01*
X11634000Y-10999000D02*
X11734000Y-11099000D01*
X11734000Y-10999000D02*
X11634000Y-11099000D01*
X11684000Y-11099000D02*
X11734000Y-11049000D01*
X11684000Y-10999000D01*
X11634000Y-11049000D01*
X11684000Y-11099000D01*
X11634000Y-11253000D02*
X11734000Y-11353000D01*
X11734000Y-11253000D02*
X11634000Y-11353000D01*
X11684000Y-11353000D02*
X11734000Y-11303000D01*
X11684000Y-11253000D01*
X11634000Y-11303000D01*
X11684000Y-11353000D01*
X11888000Y-4522000D02*
X11988000Y-4622000D01*
X11988000Y-4522000D02*
X11888000Y-4622000D01*
X11938000Y-4622000D02*
X11988000Y-4572000D01*
X11938000Y-4522000D01*
X11888000Y-4572000D01*
X11938000Y-4622000D01*
X11888000Y-4776000D02*
X11988000Y-4876000D01*
X11988000Y-4776000D02*
X11888000Y-4876000D01*
X11938000Y-4876000D02*
X11988000Y-4826000D01*
X11938000Y-4776000D01*
X11888000Y-4826000D01*
X11938000Y-4876000D01*
X11888000Y-5030000D02*
X11988000Y-5130000D01*
X11988000Y-5030000D02*
X11888000Y-5130000D01*
X11938000Y-5130000D02*
X11988000Y-5080000D01*
X11938000Y-5030000D01*
X11888000Y-5080000D01*
X11938000Y-5130000D01*
X11888000Y-5284000D02*
X11988000Y-5384000D01*
X11988000Y-5284000D02*
X11888000Y-5384000D01*
X11938000Y-5384000D02*
X11988000Y-5334000D01*
X11938000Y-5284000D01*
X11888000Y-5334000D01*
X11938000Y-5384000D01*
X11888000Y-5538000D02*
X11988000Y-5638000D01*
X11988000Y-5538000D02*
X11888000Y-5638000D01*
X11938000Y-5638000D02*
X11988000Y-5588000D01*
X11938000Y-5538000D01*
X11888000Y-5588000D01*
X11938000Y-5638000D01*
X11888000Y-5792000D02*
X11988000Y-5892000D01*
X11988000Y-5792000D02*
X11888000Y-5892000D01*
X11938000Y-5892000D02*
X11988000Y-5842000D01*
X11938000Y-5792000D01*
X11888000Y-5842000D01*
X11938000Y-5892000D01*
X11888000Y-6046000D02*
X11988000Y-6146000D01*
X11988000Y-6046000D02*
X11888000Y-6146000D01*
X11938000Y-6146000D02*
X11988000Y-6096000D01*
X11938000Y-6046000D01*
X11888000Y-6096000D01*
X11938000Y-6146000D01*
X11888000Y-6300000D02*
X11988000Y-6400000D01*
X11988000Y-6300000D02*
X11888000Y-6400000D01*
X11938000Y-6400000D02*
X11988000Y-6350000D01*
X11938000Y-6300000D01*
X11888000Y-6350000D01*
X11938000Y-6400000D01*
X11888000Y-6554000D02*
X11988000Y-6654000D01*
X11988000Y-6554000D02*
X11888000Y-6654000D01*
X11938000Y-6654000D02*
X11988000Y-6604000D01*
X11938000Y-6554000D01*
X11888000Y-6604000D01*
X11938000Y-6654000D01*
X11888000Y-6808000D02*
X11988000Y-6908000D01*
X11988000Y-6808000D02*
X11888000Y-6908000D01*
X11938000Y-6908000D02*
X11988000Y-6858000D01*
X11938000Y-6808000D01*
X11888000Y-6858000D01*
X11938000Y-6908000D01*
X11888000Y-7062000D02*
X11988000Y-7162000D01*
X11988000Y-7062000D02*
X11888000Y-7162000D01*
X11938000Y-7162000D02*
X11988000Y-7112000D01*
X11938000Y-7062000D01*
X11888000Y-7112000D01*
X11938000Y-7162000D01*
X11888000Y-7316000D02*
X11988000Y-7416000D01*
X11988000Y-7316000D02*
X11888000Y-7416000D01*
X11938000Y-7416000D02*
X11988000Y-7366000D01*
X11938000Y-7316000D01*
X11888000Y-7366000D01*
X11938000Y-7416000D01*
X11888000Y-7570000D02*
X11988000Y-7670000D01*
X11988000Y-7570000D02*
X11888000Y-7670000D01*
X11938000Y-7670000D02*
X11988000Y-7620000D01*
X11938000Y-7570000D01*
X11888000Y-7620000D01*
X11938000Y-7670000D01*
X11888000Y-7824000D02*
X11988000Y-7924000D01*
X11988000Y-7824000D02*
X11888000Y-7924000D01*
X11938000Y-7924000D02*
X11988000Y-7874000D01*
X11938000Y-7824000D01*
X11888000Y-7874000D01*
X11938000Y-7924000D01*
X11888000Y-8078000D02*
X11988000Y-8178000D01*
X11988000Y-8078000D02*
X11888000Y-8178000D01*
X11938000Y-8178000D02*
X11988000Y-8128000D01*
X11938000Y-8078000D01*
X11888000Y-8128000D01*
X11938000Y-8178000D01*
X11888000Y-8332000D02*
X11988000Y-8432000D01*
X11988000Y-8332000D02*
X11888000Y-8432000D01*
X11938000Y-8432000D02*
X11988000Y-8382000D01*
X11938000Y-8332000D01*
X11888000Y-8382000D01*
X11938000Y-8432000D01*
X11888000Y-8586000D02*
X11988000Y-8686000D01*
X11988000Y-8586000D02*
X11888000Y-8686000D01*
X11938000Y-8686000D02*
X11988000Y-8636000D01*
X11938000Y-8586000D01*
X11888000Y-8636000D01*
X11938000Y-8686000D01*
X11888000Y-8840000D02*
X11988000Y-8940000D01*
X11988000Y-8840000D02*
X11888000Y-8940000D01*
X11938000Y-8940000D02*
X11988000Y-8890000D01*
X11938000Y-8840000D01*
X11888000Y-8890000D01*
X11938000Y-8940000D01*
X11888000Y-9094000D02*
X11988000Y-9194000D01*
X11988000Y-9094000D02*
X11888000Y-9194000D01*
X11938000Y-9194000D02*
X11988000Y-9144000D01*
X11938000Y-9094000D01*
X11888000Y-9144000D01*
X11938000Y-9194000D01*
X11888000Y-9348000D02*
X11988000Y-9448000D01*
X11988000Y-9348000D02*
X11888000Y-9448000D01*
X11938000Y-9448000D02*
X11988000Y-9398000D01*
X11938000Y-9348000D01*
X11888000Y-9398000D01*
X11938000Y-9448000D01*
X11888000Y-9602000D02*
X11988000Y-9702000D01*
X11988000Y-9602000D02*
X11888000Y-9702000D01*
X11938000Y-9702000D02*
X11988000Y-9652000D01*
X11938000Y-9602000D01*
X11888000Y-9652000D01*
X11938000Y-9702000D01*
X11888000Y-9856000D02*
X11988000Y-9956000D01*
X11988000Y-9856000D02*
X11888000Y-9956000D01*
X11938000Y-9956000D02*
X11988000Y-9906000D01*
X11938000Y-9856000D01*
X11888000Y-9906000D01*
X11938000Y-9956000D01*
X11888000Y-10110000D02*
X11988000Y-10210000D01*
X11988000Y-10110000D02*
X11888000Y-10210000D01*
X11938000Y-10210000D02*
X11988000Y-10160000D01*
X11938000Y-10110000D01*
X11888000Y-10160000D01*
X11938000Y-10210000D01*
X12285500Y-8646420D02*
X12385500Y-8746420D01*
X12385500Y-8646420D02*
X12285500Y-8746420D01*
X12335500Y-8746420D02*
X12385500Y-8696420D01*
X12335500Y-8646420D01*
X12285500Y-8696420D01*
X12335500Y-8746420D01*
X12285500Y-8900420D02*
X12385500Y-9000420D01*
X12385500Y-8900420D02*
X12285500Y-9000420D01*
X12335500Y-9000420D02*
X12385500Y-8950420D01*
X12335500Y-8900420D01*
X12285500Y-8950420D01*
X12335500Y-9000420D01*
X12561100Y-6846100D02*
X12661100Y-6946100D01*
X12661100Y-6846100D02*
X12561100Y-6946100D01*
X12611100Y-6946100D02*
X12661100Y-6896100D01*
X12611100Y-6846100D01*
X12561100Y-6896100D01*
X12611100Y-6946100D01*
X12651300Y-8642920D02*
X12751300Y-8742920D01*
X12751300Y-8642920D02*
X12651300Y-8742920D01*
X12701300Y-8742920D02*
X12751300Y-8692920D01*
X12701300Y-8642920D01*
X12651300Y-8692920D01*
X12701300Y-8742920D01*
X12651300Y-8896920D02*
X12751300Y-8996920D01*
X12751300Y-8896920D02*
X12651300Y-8996920D01*
X12701300Y-8996920D02*
X12751300Y-8946920D01*
X12701300Y-8896920D01*
X12651300Y-8946920D01*
X12701300Y-8996920D01*
X12651300Y-9150920D02*
X12751300Y-9250920D01*
X12751300Y-9150920D02*
X12651300Y-9250920D01*
X12701300Y-9250920D02*
X12751300Y-9200920D01*
X12701300Y-9150920D01*
X12651300Y-9200920D01*
X12701300Y-9250920D01*
X12815100Y-6846100D02*
X12915100Y-6946100D01*
X12915100Y-6846100D02*
X12815100Y-6946100D01*
X12865100Y-6946100D02*
X12915100Y-6896100D01*
X12865100Y-6846100D01*
X12815100Y-6896100D01*
X12865100Y-6946100D01*
X13069100Y-6846100D02*
X13169100Y-6946100D01*
X13169100Y-6846100D02*
X13069100Y-6946100D01*
X13119100Y-6946100D02*
X13169100Y-6896100D01*
X13119100Y-6846100D01*
X13069100Y-6896100D01*
X13119100Y-6946100D01*
X13603967Y-6942500D02*
X13703967Y-7042500D01*
X13703967Y-6942500D02*
X13603967Y-7042500D01*
X13653967Y-7042500D02*
X13703967Y-6992500D01*
X13653967Y-6942500D01*
X13603967Y-6992500D01*
X13653967Y-7042500D01*
X13603967Y-7196500D02*
X13703967Y-7296500D01*
X13703967Y-7196500D02*
X13603967Y-7296500D01*
X13653967Y-7296500D02*
X13703967Y-7246500D01*
X13653967Y-7196500D01*
X13603967Y-7246500D01*
X13653967Y-7296500D01*
X13603967Y-7450500D02*
X13703967Y-7550500D01*
X13703967Y-7450500D02*
X13603967Y-7550500D01*
X13653967Y-7550500D02*
X13703967Y-7500500D01*
X13653967Y-7450500D01*
X13603967Y-7500500D01*
X13653967Y-7550500D01*
X13603967Y-7704500D02*
X13703967Y-7804500D01*
X13703967Y-7704500D02*
X13603967Y-7804500D01*
X13653967Y-7804500D02*
X13703967Y-7754500D01*
X13653967Y-7704500D01*
X13603967Y-7754500D01*
X13653967Y-7804500D01*
X13603967Y-7958500D02*
X13703967Y-8058500D01*
X13703967Y-7958500D02*
X13603967Y-8058500D01*
X13653967Y-8058500D02*
X13703967Y-8008500D01*
X13653967Y-7958500D01*
X13603967Y-8008500D01*
X13653967Y-8058500D01*
X13603967Y-8212500D02*
X13703967Y-8312500D01*
X13703967Y-8212500D02*
X13603967Y-8312500D01*
X13653967Y-8312500D02*
X13703967Y-8262500D01*
X13653967Y-8212500D01*
X13603967Y-8262500D01*
X13653967Y-8312500D01*
X13857967Y-6942500D02*
X13957967Y-7042500D01*
X13957967Y-6942500D02*
X13857967Y-7042500D01*
X13907967Y-7042500D02*
X13957967Y-6992500D01*
X13907967Y-6942500D01*
X13857967Y-6992500D01*
X13907967Y-7042500D01*
X13857967Y-7196500D02*
X13957967Y-7296500D01*
X13957967Y-7196500D02*
X13857967Y-7296500D01*
X13907967Y-7296500D02*
X13957967Y-7246500D01*
X13907967Y-7196500D01*
X13857967Y-7246500D01*
X13907967Y-7296500D01*
X13857967Y-7450500D02*
X13957967Y-7550500D01*
X13957967Y-7450500D02*
X13857967Y-7550500D01*
X13907967Y-7550500D02*
X13957967Y-7500500D01*
X13907967Y-7450500D01*
X13857967Y-7500500D01*
X13907967Y-7550500D01*
X13857967Y-7704500D02*
X13957967Y-7804500D01*
X13957967Y-7704500D02*
X13857967Y-7804500D01*
X13907967Y-7804500D02*
X13957967Y-7754500D01*
X13907967Y-7704500D01*
X13857967Y-7754500D01*
X13907967Y-7804500D01*
X13857967Y-7958500D02*
X13957967Y-8058500D01*
X13957967Y-7958500D02*
X13857967Y-8058500D01*
X13907967Y-8058500D02*
X13957967Y-8008500D01*
X13907967Y-7958500D01*
X13857967Y-8008500D01*
X13907967Y-8058500D01*
X13857967Y-8212500D02*
X13957967Y-8312500D01*
X13957967Y-8212500D02*
X13857967Y-8312500D01*
X13907967Y-8312500D02*
X13957967Y-8262500D01*
X13907967Y-8212500D01*
X13857967Y-8262500D01*
X13907967Y-8312500D01*
X14124500Y-12022620D02*
X14224500Y-12122620D01*
X14224500Y-12022620D02*
X14124500Y-12122620D01*
X14174500Y-12122620D02*
X14224500Y-12072620D01*
X14174500Y-12022620D01*
X14124500Y-12072620D01*
X14174500Y-12122620D01*
X14124500Y-12276620D02*
X14224500Y-12376620D01*
X14224500Y-12276620D02*
X14124500Y-12376620D01*
X14174500Y-12376620D02*
X14224500Y-12326620D01*
X14174500Y-12276620D01*
X14124500Y-12326620D01*
X14174500Y-12376620D01*
X14124500Y-12530620D02*
X14224500Y-12630620D01*
X14224500Y-12530620D02*
X14124500Y-12630620D01*
X14174500Y-12630620D02*
X14224500Y-12580620D01*
X14174500Y-12530620D01*
X14124500Y-12580620D01*
X14174500Y-12630620D01*
X14124500Y-12784620D02*
X14224500Y-12884620D01*
X14224500Y-12784620D02*
X14124500Y-12884620D01*
X14174500Y-12884620D02*
X14224500Y-12834620D01*
X14174500Y-12784620D01*
X14124500Y-12834620D01*
X14174500Y-12884620D01*
X14124500Y-13038620D02*
X14224500Y-13138620D01*
X14224500Y-13038620D02*
X14124500Y-13138620D01*
X14174500Y-13138620D02*
X14224500Y-13088620D01*
X14174500Y-13038620D01*
X14124500Y-13088620D01*
X14174500Y-13138620D01*
X14124500Y-13292620D02*
X14224500Y-13392620D01*
X14224500Y-13292620D02*
X14124500Y-13392620D01*
X14174500Y-13392620D02*
X14224500Y-13342620D01*
X14174500Y-13292620D01*
X14124500Y-13342620D01*
X14174500Y-13392620D01*
X16142500Y-6579400D02*
X16242500Y-6679400D01*
X16242500Y-6579400D02*
X16142500Y-6679400D01*
X16192500Y-6679400D02*
X16242500Y-6629400D01*
X16192500Y-6579400D01*
X16142500Y-6629400D01*
X16192500Y-6679400D01*
X16142500Y-6833400D02*
X16242500Y-6933400D01*
X16242500Y-6833400D02*
X16142500Y-6933400D01*
X16192500Y-6933400D02*
X16242500Y-6883400D01*
X16192500Y-6833400D01*
X16142500Y-6883400D01*
X16192500Y-6933400D01*
X16142500Y-7087400D02*
X16242500Y-7187400D01*
X16242500Y-7087400D02*
X16142500Y-7187400D01*
X16192500Y-7187400D02*
X16242500Y-7137400D01*
X16192500Y-7087400D01*
X16142500Y-7137400D01*
X16192500Y-7187400D01*
X16142500Y-7341400D02*
X16242500Y-7441400D01*
X16242500Y-7341400D02*
X16142500Y-7441400D01*
X16192500Y-7441400D02*
X16242500Y-7391400D01*
X16192500Y-7341400D01*
X16142500Y-7391400D01*
X16192500Y-7441400D01*
X16142500Y-7595400D02*
X16242500Y-7695400D01*
X16242500Y-7595400D02*
X16142500Y-7695400D01*
X16192500Y-7695400D02*
X16242500Y-7645400D01*
X16192500Y-7595400D01*
X16142500Y-7645400D01*
X16192500Y-7695400D01*
X16142500Y-7849400D02*
X16242500Y-7949400D01*
X16242500Y-7849400D02*
X16142500Y-7949400D01*
X16192500Y-7949400D02*
X16242500Y-7899400D01*
X16192500Y-7849400D01*
X16142500Y-7899400D01*
X16192500Y-7949400D01*
X16460000Y-4522000D02*
X16560000Y-4622000D01*
X16560000Y-4522000D02*
X16460000Y-4622000D01*
X16510000Y-4622000D02*
X16560000Y-4572000D01*
X16510000Y-4522000D01*
X16460000Y-4572000D01*
X16510000Y-4622000D01*
X16460000Y-4776000D02*
X16560000Y-4876000D01*
X16560000Y-4776000D02*
X16460000Y-4876000D01*
X16510000Y-4876000D02*
X16560000Y-4826000D01*
X16510000Y-4776000D01*
X16460000Y-4826000D01*
X16510000Y-4876000D01*
X16460000Y-5030000D02*
X16560000Y-5130000D01*
X16560000Y-5030000D02*
X16460000Y-5130000D01*
X16510000Y-5130000D02*
X16560000Y-5080000D01*
X16510000Y-5030000D01*
X16460000Y-5080000D01*
X16510000Y-5130000D01*
X16460000Y-5284000D02*
X16560000Y-5384000D01*
X16560000Y-5284000D02*
X16460000Y-5384000D01*
X16510000Y-5384000D02*
X16560000Y-5334000D01*
X16510000Y-5284000D01*
X16460000Y-5334000D01*
X16510000Y-5384000D01*
X16460000Y-5538000D02*
X16560000Y-5638000D01*
X16560000Y-5538000D02*
X16460000Y-5638000D01*
X16510000Y-5638000D02*
X16560000Y-5588000D01*
X16510000Y-5538000D01*
X16460000Y-5588000D01*
X16510000Y-5638000D01*
X16460000Y-5792000D02*
X16560000Y-5892000D01*
X16560000Y-5792000D02*
X16460000Y-5892000D01*
X16510000Y-5892000D02*
X16560000Y-5842000D01*
X16510000Y-5792000D01*
X16460000Y-5842000D01*
X16510000Y-5892000D01*
X16460000Y-6046000D02*
X16560000Y-6146000D01*
X16560000Y-6046000D02*
X16460000Y-6146000D01*
X16510000Y-6146000D02*
X16560000Y-6096000D01*
X16510000Y-6046000D01*
X16460000Y-6096000D01*
X16510000Y-6146000D01*
X16460000Y-6300000D02*
X16560000Y-6400000D01*
X16560000Y-6300000D02*
X16460000Y-6400000D01*
X16510000Y-6400000D02*
X16560000Y-6350000D01*
X16510000Y-6300000D01*
X16460000Y-6350000D01*
X16510000Y-6400000D01*
X16460000Y-6554000D02*
X16560000Y-6654000D01*
X16560000Y-6554000D02*
X16460000Y-6654000D01*
X16510000Y-6654000D02*
X16560000Y-6604000D01*
X16510000Y-6554000D01*
X16460000Y-6604000D01*
X16510000Y-6654000D01*
X16460000Y-6808000D02*
X16560000Y-6908000D01*
X16560000Y-6808000D02*
X16460000Y-6908000D01*
X16510000Y-6908000D02*
X16560000Y-6858000D01*
X16510000Y-6808000D01*
X16460000Y-6858000D01*
X16510000Y-6908000D01*
X16460000Y-7062000D02*
X16560000Y-7162000D01*
X16560000Y-7062000D02*
X16460000Y-7162000D01*
X16510000Y-7162000D02*
X16560000Y-7112000D01*
X16510000Y-7062000D01*
X16460000Y-7112000D01*
X16510000Y-7162000D01*
X16460000Y-7316000D02*
X16560000Y-7416000D01*
X16560000Y-7316000D02*
X16460000Y-7416000D01*
X16510000Y-7416000D02*
X16560000Y-7366000D01*
X16510000Y-7316000D01*
X16460000Y-7366000D01*
X16510000Y-7416000D01*
X16460000Y-7570000D02*
X16560000Y-7670000D01*
X16560000Y-7570000D02*
X16460000Y-7670000D01*
X16510000Y-7670000D02*
X16560000Y-7620000D01*
X16510000Y-7570000D01*
X16460000Y-7620000D01*
X16510000Y-7670000D01*
X16460000Y-7824000D02*
X16560000Y-7924000D01*
X16560000Y-7824000D02*
X16460000Y-7924000D01*
X16510000Y-7924000D02*
X16560000Y-7874000D01*
X16510000Y-7824000D01*
X16460000Y-7874000D01*
X16510000Y-7924000D01*
X16460000Y-8078000D02*
X16560000Y-8178000D01*
X16560000Y-8078000D02*
X16460000Y-8178000D01*
X16510000Y-8178000D02*
X16560000Y-8128000D01*
X16510000Y-8078000D01*
X16460000Y-8128000D01*
X16510000Y-8178000D01*
X16460000Y-8332000D02*
X16560000Y-8432000D01*
X16560000Y-8332000D02*
X16460000Y-8432000D01*
X16510000Y-8432000D02*
X16560000Y-8382000D01*
X16510000Y-8332000D01*
X16460000Y-8382000D01*
X16510000Y-8432000D01*
X16460000Y-8586000D02*
X16560000Y-8686000D01*
X16560000Y-8586000D02*
X16460000Y-8686000D01*
X16510000Y-8686000D02*
X16560000Y-8636000D01*
X16510000Y-8586000D01*
X16460000Y-8636000D01*
X16510000Y-8686000D01*
X16460000Y-8840000D02*
X16560000Y-8940000D01*
X16560000Y-8840000D02*
X16460000Y-8940000D01*
X16510000Y-8940000D02*
X16560000Y-8890000D01*
X16510000Y-8840000D01*
X16460000Y-8890000D01*
X16510000Y-8940000D01*
X16460000Y-9094000D02*
X16560000Y-9194000D01*
X16560000Y-9094000D02*
X16460000Y-9194000D01*
X16510000Y-9194000D02*
X16560000Y-9144000D01*
X16510000Y-9094000D01*
X16460000Y-9144000D01*
X16510000Y-9194000D01*
X16460000Y-9348000D02*
X16560000Y-9448000D01*
X16560000Y-9348000D02*
X16460000Y-9448000D01*
X16510000Y-9448000D02*
X16560000Y-9398000D01*
X16510000Y-9348000D01*
X16460000Y-9398000D01*
X16510000Y-9448000D01*
X16460000Y-9602000D02*
X16560000Y-9702000D01*
X16560000Y-9602000D02*
X16460000Y-9702000D01*
X16510000Y-9702000D02*
X16560000Y-9652000D01*
X16510000Y-9602000D01*
X16460000Y-9652000D01*
X16510000Y-9702000D01*
X16460000Y-9856000D02*
X16560000Y-9956000D01*
X16560000Y-9856000D02*
X16460000Y-9956000D01*
X16510000Y-9956000D02*
X16560000Y-9906000D01*
X16510000Y-9856000D01*
X16460000Y-9906000D01*
X16510000Y-9956000D01*
X16460000Y-10110000D02*
X16560000Y-10210000D01*
X16560000Y-10110000D02*
X16460000Y-10210000D01*
X16510000Y-10210000D02*
X16560000Y-10160000D01*
X16510000Y-10110000D01*
X16460000Y-10160000D01*
X16510000Y-10210000D01*
X16714000Y-4522000D02*
X16814000Y-4622000D01*
X16814000Y-4522000D02*
X16714000Y-4622000D01*
X16764000Y-4622000D02*
X16814000Y-4572000D01*
X16764000Y-4522000D01*
X16714000Y-4572000D01*
X16764000Y-4622000D01*
X16714000Y-4776000D02*
X16814000Y-4876000D01*
X16814000Y-4776000D02*
X16714000Y-4876000D01*
X16764000Y-4876000D02*
X16814000Y-4826000D01*
X16764000Y-4776000D01*
X16714000Y-4826000D01*
X16764000Y-4876000D01*
X16714000Y-5030000D02*
X16814000Y-5130000D01*
X16814000Y-5030000D02*
X16714000Y-5130000D01*
X16764000Y-5130000D02*
X16814000Y-5080000D01*
X16764000Y-5030000D01*
X16714000Y-5080000D01*
X16764000Y-5130000D01*
X16714000Y-5284000D02*
X16814000Y-5384000D01*
X16814000Y-5284000D02*
X16714000Y-5384000D01*
X16764000Y-5384000D02*
X16814000Y-5334000D01*
X16764000Y-5284000D01*
X16714000Y-5334000D01*
X16764000Y-5384000D01*
X16714000Y-5538000D02*
X16814000Y-5638000D01*
X16814000Y-5538000D02*
X16714000Y-5638000D01*
X16764000Y-5638000D02*
X16814000Y-5588000D01*
X16764000Y-5538000D01*
X16714000Y-5588000D01*
X16764000Y-5638000D01*
X16714000Y-5792000D02*
X16814000Y-5892000D01*
X16814000Y-5792000D02*
X16714000Y-5892000D01*
X16764000Y-5892000D02*
X16814000Y-5842000D01*
X16764000Y-5792000D01*
X16714000Y-5842000D01*
X16764000Y-5892000D01*
X16714000Y-6046000D02*
X16814000Y-6146000D01*
X16814000Y-6046000D02*
X16714000Y-6146000D01*
X16764000Y-6146000D02*
X16814000Y-6096000D01*
X16764000Y-6046000D01*
X16714000Y-6096000D01*
X16764000Y-6146000D01*
X16714000Y-6300000D02*
X16814000Y-6400000D01*
X16814000Y-6300000D02*
X16714000Y-6400000D01*
X16764000Y-6400000D02*
X16814000Y-6350000D01*
X16764000Y-6300000D01*
X16714000Y-6350000D01*
X16764000Y-6400000D01*
X16714000Y-6554000D02*
X16814000Y-6654000D01*
X16814000Y-6554000D02*
X16714000Y-6654000D01*
X16764000Y-6654000D02*
X16814000Y-6604000D01*
X16764000Y-6554000D01*
X16714000Y-6604000D01*
X16764000Y-6654000D01*
X16714000Y-6808000D02*
X16814000Y-6908000D01*
X16814000Y-6808000D02*
X16714000Y-6908000D01*
X16764000Y-6908000D02*
X16814000Y-6858000D01*
X16764000Y-6808000D01*
X16714000Y-6858000D01*
X16764000Y-6908000D01*
X16714000Y-7062000D02*
X16814000Y-7162000D01*
X16814000Y-7062000D02*
X16714000Y-7162000D01*
X16764000Y-7162000D02*
X16814000Y-7112000D01*
X16764000Y-7062000D01*
X16714000Y-7112000D01*
X16764000Y-7162000D01*
X16714000Y-7316000D02*
X16814000Y-7416000D01*
X16814000Y-7316000D02*
X16714000Y-7416000D01*
X16764000Y-7416000D02*
X16814000Y-7366000D01*
X16764000Y-7316000D01*
X16714000Y-7366000D01*
X16764000Y-7416000D01*
X16714000Y-7570000D02*
X16814000Y-7670000D01*
X16814000Y-7570000D02*
X16714000Y-7670000D01*
X16764000Y-7670000D02*
X16814000Y-7620000D01*
X16764000Y-7570000D01*
X16714000Y-7620000D01*
X16764000Y-7670000D01*
X16714000Y-7824000D02*
X16814000Y-7924000D01*
X16814000Y-7824000D02*
X16714000Y-7924000D01*
X16764000Y-7924000D02*
X16814000Y-7874000D01*
X16764000Y-7824000D01*
X16714000Y-7874000D01*
X16764000Y-7924000D01*
X16714000Y-8078000D02*
X16814000Y-8178000D01*
X16814000Y-8078000D02*
X16714000Y-8178000D01*
X16764000Y-8178000D02*
X16814000Y-8128000D01*
X16764000Y-8078000D01*
X16714000Y-8128000D01*
X16764000Y-8178000D01*
X16714000Y-8332000D02*
X16814000Y-8432000D01*
X16814000Y-8332000D02*
X16714000Y-8432000D01*
X16764000Y-8432000D02*
X16814000Y-8382000D01*
X16764000Y-8332000D01*
X16714000Y-8382000D01*
X16764000Y-8432000D01*
X16714000Y-8586000D02*
X16814000Y-8686000D01*
X16814000Y-8586000D02*
X16714000Y-8686000D01*
X16764000Y-8686000D02*
X16814000Y-8636000D01*
X16764000Y-8586000D01*
X16714000Y-8636000D01*
X16764000Y-8686000D01*
X16714000Y-8840000D02*
X16814000Y-8940000D01*
X16814000Y-8840000D02*
X16714000Y-8940000D01*
X16764000Y-8940000D02*
X16814000Y-8890000D01*
X16764000Y-8840000D01*
X16714000Y-8890000D01*
X16764000Y-8940000D01*
X16714000Y-9094000D02*
X16814000Y-9194000D01*
X16814000Y-9094000D02*
X16714000Y-9194000D01*
X16764000Y-9194000D02*
X16814000Y-9144000D01*
X16764000Y-9094000D01*
X16714000Y-9144000D01*
X16764000Y-9194000D01*
X16714000Y-9348000D02*
X16814000Y-9448000D01*
X16814000Y-9348000D02*
X16714000Y-9448000D01*
X16764000Y-9448000D02*
X16814000Y-9398000D01*
X16764000Y-9348000D01*
X16714000Y-9398000D01*
X16764000Y-9448000D01*
X16714000Y-9602000D02*
X16814000Y-9702000D01*
X16814000Y-9602000D02*
X16714000Y-9702000D01*
X16764000Y-9702000D02*
X16814000Y-9652000D01*
X16764000Y-9602000D01*
X16714000Y-9652000D01*
X16764000Y-9702000D01*
X16714000Y-9856000D02*
X16814000Y-9956000D01*
X16814000Y-9856000D02*
X16714000Y-9956000D01*
X16764000Y-9956000D02*
X16814000Y-9906000D01*
X16764000Y-9856000D01*
X16714000Y-9906000D01*
X16764000Y-9956000D01*
X16714000Y-10110000D02*
X16814000Y-10210000D01*
X16814000Y-10110000D02*
X16714000Y-10210000D01*
X16764000Y-10210000D02*
X16814000Y-10160000D01*
X16764000Y-10110000D01*
X16714000Y-10160000D01*
X16764000Y-10210000D01*
X17154319Y-9386000D02*
X17254319Y-9486000D01*
X17254319Y-9386000D02*
X17154319Y-9486000D01*
X17204319Y-9486000D02*
X17254319Y-9436000D01*
X17204319Y-9386000D01*
X17154319Y-9436000D01*
X17204319Y-9486000D01*
X17154319Y-9640000D02*
X17254319Y-9740000D01*
X17254319Y-9640000D02*
X17154319Y-9740000D01*
X17204319Y-9740000D02*
X17254319Y-9690000D01*
X17204319Y-9640000D01*
X17154319Y-9690000D01*
X17204319Y-9740000D01*
X17154319Y-9894000D02*
X17254319Y-9994000D01*
X17254319Y-9894000D02*
X17154319Y-9994000D01*
X17204319Y-9994000D02*
X17254319Y-9944000D01*
X17204319Y-9894000D01*
X17154319Y-9944000D01*
X17204319Y-9994000D01*
X17215434Y-11779500D02*
X17315434Y-11879500D01*
X17315434Y-11779500D02*
X17215434Y-11879500D01*
X17265434Y-11879500D02*
X17315434Y-11829500D01*
X17265434Y-11779500D01*
X17215434Y-11829500D01*
X17265434Y-11879500D01*
X17215434Y-12056500D02*
X17315434Y-12156500D01*
X17315434Y-12056500D02*
X17215434Y-12156500D01*
X17265434Y-12156500D02*
X17315434Y-12106500D01*
X17265434Y-12056500D01*
X17215434Y-12106500D01*
X17265434Y-12156500D01*
X17215434Y-12333500D02*
X17315434Y-12433500D01*
X17315434Y-12333500D02*
X17215434Y-12433500D01*
X17265434Y-12433500D02*
X17315434Y-12383500D01*
X17265434Y-12333500D01*
X17215434Y-12383500D01*
X17265434Y-12433500D01*
X17215434Y-12610500D02*
X17315434Y-12710500D01*
X17315434Y-12610500D02*
X17215434Y-12710500D01*
X17265434Y-12710500D02*
X17315434Y-12660500D01*
X17265434Y-12610500D01*
X17215434Y-12660500D01*
X17265434Y-12710500D01*
X17215434Y-12887500D02*
X17315434Y-12987500D01*
X17315434Y-12887500D02*
X17215434Y-12987500D01*
X17265434Y-12987500D02*
X17315434Y-12937500D01*
X17265434Y-12887500D01*
X17215434Y-12937500D01*
X17265434Y-12987500D01*
X17248700Y-4516920D02*
X17348700Y-4616920D01*
X17348700Y-4516920D02*
X17248700Y-4616920D01*
X17298700Y-4616920D02*
X17348700Y-4566920D01*
X17298700Y-4516920D01*
X17248700Y-4566920D01*
X17298700Y-4616920D01*
X17499434Y-11918000D02*
X17599434Y-12018000D01*
X17599434Y-11918000D02*
X17499434Y-12018000D01*
X17549434Y-12018000D02*
X17599434Y-11968000D01*
X17549434Y-11918000D01*
X17499434Y-11968000D01*
X17549434Y-12018000D01*
X17499434Y-12195000D02*
X17599434Y-12295000D01*
X17599434Y-12195000D02*
X17499434Y-12295000D01*
X17549434Y-12295000D02*
X17599434Y-12245000D01*
X17549434Y-12195000D01*
X17499434Y-12245000D01*
X17549434Y-12295000D01*
X17499434Y-12472000D02*
X17599434Y-12572000D01*
X17599434Y-12472000D02*
X17499434Y-12572000D01*
X17549434Y-12572000D02*
X17599434Y-12522000D01*
X17549434Y-12472000D01*
X17499434Y-12522000D01*
X17549434Y-12572000D01*
X17499434Y-12749000D02*
X17599434Y-12849000D01*
X17599434Y-12749000D02*
X17499434Y-12849000D01*
X17549434Y-12849000D02*
X17599434Y-12799000D01*
X17549434Y-12749000D01*
X17499434Y-12799000D01*
X17549434Y-12849000D01*
X17502700Y-4516920D02*
X17602700Y-4616920D01*
X17602700Y-4516920D02*
X17502700Y-4616920D01*
X17552700Y-4616920D02*
X17602700Y-4566920D01*
X17552700Y-4516920D01*
X17502700Y-4566920D01*
X17552700Y-4616920D01*
X17756700Y-4516920D02*
X17856700Y-4616920D01*
X17856700Y-4516920D02*
X17756700Y-4616920D01*
X17806700Y-4616920D02*
X17856700Y-4566920D01*
X17806700Y-4516920D01*
X17756700Y-4566920D01*
X17806700Y-4616920D01*
X17763819Y-5284000D02*
X17863819Y-5384000D01*
X17863819Y-5284000D02*
X17763819Y-5384000D01*
X17813819Y-5384000D02*
X17863819Y-5334000D01*
X17813819Y-5284000D01*
X17763819Y-5334000D01*
X17813819Y-5384000D01*
X17763819Y-5538000D02*
X17863819Y-5638000D01*
X17863819Y-5538000D02*
X17763819Y-5638000D01*
X17813819Y-5638000D02*
X17863819Y-5588000D01*
X17813819Y-5538000D01*
X17763819Y-5588000D01*
X17813819Y-5638000D01*
X17763819Y-5792000D02*
X17863819Y-5892000D01*
X17863819Y-5792000D02*
X17763819Y-5892000D01*
X17813819Y-5892000D02*
X17863819Y-5842000D01*
X17813819Y-5792000D01*
X17763819Y-5842000D01*
X17813819Y-5892000D01*
X17763819Y-6046000D02*
X17863819Y-6146000D01*
X17863819Y-6046000D02*
X17763819Y-6146000D01*
X17813819Y-6146000D02*
X17863819Y-6096000D01*
X17813819Y-6046000D01*
X17763819Y-6096000D01*
X17813819Y-6146000D01*
X17763819Y-6300000D02*
X17863819Y-6400000D01*
X17863819Y-6300000D02*
X17763819Y-6400000D01*
X17813819Y-6400000D02*
X17863819Y-6350000D01*
X17813819Y-6300000D01*
X17763819Y-6350000D01*
X17813819Y-6400000D01*
X17763819Y-6554000D02*
X17863819Y-6654000D01*
X17863819Y-6554000D02*
X17763819Y-6654000D01*
X17813819Y-6654000D02*
X17863819Y-6604000D01*
X17813819Y-6554000D01*
X17763819Y-6604000D01*
X17813819Y-6654000D01*
X17763819Y-6808000D02*
X17863819Y-6908000D01*
X17863819Y-6808000D02*
X17763819Y-6908000D01*
X17813819Y-6908000D02*
X17863819Y-6858000D01*
X17813819Y-6808000D01*
X17763819Y-6858000D01*
X17813819Y-6908000D01*
X17763819Y-7062000D02*
X17863819Y-7162000D01*
X17863819Y-7062000D02*
X17763819Y-7162000D01*
X17813819Y-7162000D02*
X17863819Y-7112000D01*
X17813819Y-7062000D01*
X17763819Y-7112000D01*
X17813819Y-7162000D01*
X17763819Y-7316000D02*
X17863819Y-7416000D01*
X17863819Y-7316000D02*
X17763819Y-7416000D01*
X17813819Y-7416000D02*
X17863819Y-7366000D01*
X17813819Y-7316000D01*
X17763819Y-7366000D01*
X17813819Y-7416000D01*
X17763819Y-7570000D02*
X17863819Y-7670000D01*
X17863819Y-7570000D02*
X17763819Y-7670000D01*
X17813819Y-7670000D02*
X17863819Y-7620000D01*
X17813819Y-7570000D01*
X17763819Y-7620000D01*
X17813819Y-7670000D01*
X17763819Y-7824000D02*
X17863819Y-7924000D01*
X17863819Y-7824000D02*
X17763819Y-7924000D01*
X17813819Y-7924000D02*
X17863819Y-7874000D01*
X17813819Y-7824000D01*
X17763819Y-7874000D01*
X17813819Y-7924000D01*
X17763819Y-8078000D02*
X17863819Y-8178000D01*
X17863819Y-8078000D02*
X17763819Y-8178000D01*
X17813819Y-8178000D02*
X17863819Y-8128000D01*
X17813819Y-8078000D01*
X17763819Y-8128000D01*
X17813819Y-8178000D01*
X17763819Y-8332000D02*
X17863819Y-8432000D01*
X17863819Y-8332000D02*
X17763819Y-8432000D01*
X17813819Y-8432000D02*
X17863819Y-8382000D01*
X17813819Y-8332000D01*
X17763819Y-8382000D01*
X17813819Y-8432000D01*
X17763819Y-8586000D02*
X17863819Y-8686000D01*
X17863819Y-8586000D02*
X17763819Y-8686000D01*
X17813819Y-8686000D02*
X17863819Y-8636000D01*
X17813819Y-8586000D01*
X17763819Y-8636000D01*
X17813819Y-8686000D01*
X17763819Y-8840000D02*
X17863819Y-8940000D01*
X17863819Y-8840000D02*
X17763819Y-8940000D01*
X17813819Y-8940000D02*
X17863819Y-8890000D01*
X17813819Y-8840000D01*
X17763819Y-8890000D01*
X17813819Y-8940000D01*
X17763819Y-9094000D02*
X17863819Y-9194000D01*
X17863819Y-9094000D02*
X17763819Y-9194000D01*
X17813819Y-9194000D02*
X17863819Y-9144000D01*
X17813819Y-9094000D01*
X17763819Y-9144000D01*
X17813819Y-9194000D01*
X17763819Y-9348000D02*
X17863819Y-9448000D01*
X17863819Y-9348000D02*
X17763819Y-9448000D01*
X17813819Y-9448000D02*
X17863819Y-9398000D01*
X17813819Y-9348000D01*
X17763819Y-9398000D01*
X17813819Y-9448000D01*
X17763819Y-9602000D02*
X17863819Y-9702000D01*
X17863819Y-9602000D02*
X17763819Y-9702000D01*
X17813819Y-9702000D02*
X17863819Y-9652000D01*
X17813819Y-9602000D01*
X17763819Y-9652000D01*
X17813819Y-9702000D01*
X17763819Y-9856000D02*
X17863819Y-9956000D01*
X17863819Y-9856000D02*
X17763819Y-9956000D01*
X17813819Y-9956000D02*
X17863819Y-9906000D01*
X17813819Y-9856000D01*
X17763819Y-9906000D01*
X17813819Y-9956000D01*
X17763819Y-10110000D02*
X17863819Y-10210000D01*
X17863819Y-10110000D02*
X17763819Y-10210000D01*
X17813819Y-10210000D02*
X17863819Y-10160000D01*
X17813819Y-10110000D01*
X17763819Y-10160000D01*
X17813819Y-10210000D01*
X18017819Y-5284000D02*
X18117819Y-5384000D01*
X18117819Y-5284000D02*
X18017819Y-5384000D01*
X18067819Y-5384000D02*
X18117819Y-5334000D01*
X18067819Y-5284000D01*
X18017819Y-5334000D01*
X18067819Y-5384000D01*
X18017819Y-5538000D02*
X18117819Y-5638000D01*
X18117819Y-5538000D02*
X18017819Y-5638000D01*
X18067819Y-5638000D02*
X18117819Y-5588000D01*
X18067819Y-5538000D01*
X18017819Y-5588000D01*
X18067819Y-5638000D01*
X18017819Y-5792000D02*
X18117819Y-5892000D01*
X18117819Y-5792000D02*
X18017819Y-5892000D01*
X18067819Y-5892000D02*
X18117819Y-5842000D01*
X18067819Y-5792000D01*
X18017819Y-5842000D01*
X18067819Y-5892000D01*
X18017819Y-6046000D02*
X18117819Y-6146000D01*
X18117819Y-6046000D02*
X18017819Y-6146000D01*
X18067819Y-6146000D02*
X18117819Y-6096000D01*
X18067819Y-6046000D01*
X18017819Y-6096000D01*
X18067819Y-6146000D01*
X18017819Y-6300000D02*
X18117819Y-6400000D01*
X18117819Y-6300000D02*
X18017819Y-6400000D01*
X18067819Y-6400000D02*
X18117819Y-6350000D01*
X18067819Y-6300000D01*
X18017819Y-6350000D01*
X18067819Y-6400000D01*
X18017819Y-6554000D02*
X18117819Y-6654000D01*
X18117819Y-6554000D02*
X18017819Y-6654000D01*
X18067819Y-6654000D02*
X18117819Y-6604000D01*
X18067819Y-6554000D01*
X18017819Y-6604000D01*
X18067819Y-6654000D01*
X18017819Y-6808000D02*
X18117819Y-6908000D01*
X18117819Y-6808000D02*
X18017819Y-6908000D01*
X18067819Y-6908000D02*
X18117819Y-6858000D01*
X18067819Y-6808000D01*
X18017819Y-6858000D01*
X18067819Y-6908000D01*
X18017819Y-7062000D02*
X18117819Y-7162000D01*
X18117819Y-7062000D02*
X18017819Y-7162000D01*
X18067819Y-7162000D02*
X18117819Y-7112000D01*
X18067819Y-7062000D01*
X18017819Y-7112000D01*
X18067819Y-7162000D01*
X18017819Y-7316000D02*
X18117819Y-7416000D01*
X18117819Y-7316000D02*
X18017819Y-7416000D01*
X18067819Y-7416000D02*
X18117819Y-7366000D01*
X18067819Y-7316000D01*
X18017819Y-7366000D01*
X18067819Y-7416000D01*
X18017819Y-7570000D02*
X18117819Y-7670000D01*
X18117819Y-7570000D02*
X18017819Y-7670000D01*
X18067819Y-7670000D02*
X18117819Y-7620000D01*
X18067819Y-7570000D01*
X18017819Y-7620000D01*
X18067819Y-7670000D01*
X18017819Y-7824000D02*
X18117819Y-7924000D01*
X18117819Y-7824000D02*
X18017819Y-7924000D01*
X18067819Y-7924000D02*
X18117819Y-7874000D01*
X18067819Y-7824000D01*
X18017819Y-7874000D01*
X18067819Y-7924000D01*
X18017819Y-8078000D02*
X18117819Y-8178000D01*
X18117819Y-8078000D02*
X18017819Y-8178000D01*
X18067819Y-8178000D02*
X18117819Y-8128000D01*
X18067819Y-8078000D01*
X18017819Y-8128000D01*
X18067819Y-8178000D01*
X18017819Y-8332000D02*
X18117819Y-8432000D01*
X18117819Y-8332000D02*
X18017819Y-8432000D01*
X18067819Y-8432000D02*
X18117819Y-8382000D01*
X18067819Y-8332000D01*
X18017819Y-8382000D01*
X18067819Y-8432000D01*
X18017819Y-8586000D02*
X18117819Y-8686000D01*
X18117819Y-8586000D02*
X18017819Y-8686000D01*
X18067819Y-8686000D02*
X18117819Y-8636000D01*
X18067819Y-8586000D01*
X18017819Y-8636000D01*
X18067819Y-8686000D01*
X18017819Y-8840000D02*
X18117819Y-8940000D01*
X18117819Y-8840000D02*
X18017819Y-8940000D01*
X18067819Y-8940000D02*
X18117819Y-8890000D01*
X18067819Y-8840000D01*
X18017819Y-8890000D01*
X18067819Y-8940000D01*
X18017819Y-9094000D02*
X18117819Y-9194000D01*
X18117819Y-9094000D02*
X18017819Y-9194000D01*
X18067819Y-9194000D02*
X18117819Y-9144000D01*
X18067819Y-9094000D01*
X18017819Y-9144000D01*
X18067819Y-9194000D01*
X18017819Y-9348000D02*
X18117819Y-9448000D01*
X18117819Y-9348000D02*
X18017819Y-9448000D01*
X18067819Y-9448000D02*
X18117819Y-9398000D01*
X18067819Y-9348000D01*
X18017819Y-9398000D01*
X18067819Y-9448000D01*
X18017819Y-9602000D02*
X18117819Y-9702000D01*
X18117819Y-9602000D02*
X18017819Y-9702000D01*
X18067819Y-9702000D02*
X18117819Y-9652000D01*
X18067819Y-9602000D01*
X18017819Y-9652000D01*
X18067819Y-9702000D01*
X18017819Y-9856000D02*
X18117819Y-9956000D01*
X18117819Y-9856000D02*
X18017819Y-9956000D01*
X18067819Y-9956000D02*
X18117819Y-9906000D01*
X18067819Y-9856000D01*
X18017819Y-9906000D01*
X18067819Y-9956000D01*
X18017819Y-10110000D02*
X18117819Y-10210000D01*
X18117819Y-10110000D02*
X18017819Y-10210000D01*
X18067819Y-10210000D02*
X18117819Y-10160000D01*
X18067819Y-10110000D01*
X18017819Y-10160000D01*
X18067819Y-10210000D01*
D21*
X12589820Y-4423410D02*
X12589820Y-4654550D01*
X12474250Y-4538980D02*
X12705390Y-4538980D01*
X12705390Y-4538980D02*
G75*
G03*
X12705390Y-4538980I-115570J0D01*
G01*
X13265460Y-4342130D02*
X13265460Y-4573270D01*
X13149890Y-4457700D02*
X13381030Y-4457700D01*
X13381030Y-4457700D02*
G75*
G03*
X13381030Y-4457700I-115570J0D01*
G01*
X13941100Y-4423410D02*
X13941100Y-4654550D01*
X13825530Y-4538980D02*
X14056670Y-4538980D01*
X14056670Y-4538980D02*
G75*
G03*
X14056670Y-4538980I-115570J0D01*
G01*
X14498320Y-4423410D02*
X14498320Y-4654550D01*
X14382750Y-4538980D02*
X14613890Y-4538980D01*
X14613890Y-4538980D02*
G75*
G03*
X14613890Y-4538980I-115570J0D01*
G01*
X15173960Y-4342130D02*
X15173960Y-4573270D01*
X15058390Y-4457700D02*
X15289530Y-4457700D01*
X15289530Y-4457700D02*
G75*
G03*
X15289530Y-4457700I-115570J0D01*
G01*
X15849600Y-4423410D02*
X15849600Y-4654550D01*
X15734030Y-4538980D02*
X15965170Y-4538980D01*
X15965170Y-4538980D02*
G75*
G03*
X15965170Y-4538980I-115570J0D01*
G01*
D22*
X8962165Y-4875498D02*
X8962165Y-4649222D01*
X8735889Y-4649222D01*
X8735889Y-4875498D01*
X8962165Y-4875498D01*
X9009027Y-4762360D02*
G75*
G03*
X9009027Y-4762360I-160000J0D01*
G01*
X8962165Y-7375498D02*
X8962165Y-7149222D01*
X8735889Y-7149222D01*
X8735889Y-7375498D01*
X8962165Y-7375498D01*
X9009027Y-7262360D02*
G75*
G03*
X9009027Y-7262360I-160000J0D01*
G01*
X17520572Y-11246638D02*
X17520572Y-11020362D01*
X17294296Y-11020362D01*
X17294296Y-11246638D01*
X17520572Y-11246638D01*
X17567434Y-11133500D02*
G75*
G03*
X17567434Y-11133500I-160000J0D01*
G01*
X17520572Y-13746638D02*
X17520572Y-13520362D01*
X17294296Y-13520362D01*
X17294296Y-13746638D01*
X17520572Y-13746638D01*
X17567434Y-13633500D02*
G75*
G03*
X17567434Y-13633500I-160000J0D01*
G01*
D11*
X8567119Y-14359176D02*
X8567119Y-14159176D01*
X8614738Y-14159176D01*
X8643310Y-14168700D01*
X8662357Y-14187748D01*
X8671881Y-14206795D01*
X8681405Y-14244890D01*
X8681405Y-14273462D01*
X8671881Y-14311557D01*
X8662357Y-14330605D01*
X8643310Y-14349652D01*
X8614738Y-14359176D01*
X8567119Y-14359176D01*
X8767119Y-14359176D02*
X8767119Y-14225843D01*
X8767119Y-14263938D02*
X8776643Y-14244890D01*
X8786167Y-14235367D01*
X8805214Y-14225843D01*
X8824262Y-14225843D01*
X8890929Y-14359176D02*
X8890929Y-14225843D01*
X8890929Y-14159176D02*
X8881405Y-14168700D01*
X8890929Y-14178224D01*
X8900452Y-14168700D01*
X8890929Y-14159176D01*
X8890929Y-14178224D01*
X9014738Y-14359176D02*
X8995690Y-14349652D01*
X8986167Y-14330605D01*
X8986167Y-14159176D01*
X9119500Y-14359176D02*
X9100452Y-14349652D01*
X9090929Y-14330605D01*
X9090929Y-14159176D01*
X9348071Y-14359176D02*
X9348071Y-14159176D01*
X9414738Y-14302033D01*
X9481405Y-14159176D01*
X9481405Y-14359176D01*
X9662357Y-14359176D02*
X9662357Y-14254414D01*
X9652833Y-14235367D01*
X9633786Y-14225843D01*
X9595690Y-14225843D01*
X9576643Y-14235367D01*
X9662357Y-14349652D02*
X9643310Y-14359176D01*
X9595690Y-14359176D01*
X9576643Y-14349652D01*
X9567119Y-14330605D01*
X9567119Y-14311557D01*
X9576643Y-14292509D01*
X9595690Y-14282986D01*
X9643310Y-14282986D01*
X9662357Y-14273462D01*
X9757595Y-14225843D02*
X9757595Y-14425843D01*
X9757595Y-14235367D02*
X9776643Y-14225843D01*
X9814738Y-14225843D01*
X9833786Y-14235367D01*
X9843310Y-14244890D01*
X9852833Y-14263938D01*
X9852833Y-14321081D01*
X9843310Y-14340128D01*
X9833786Y-14349652D01*
X9814738Y-14359176D01*
X9776643Y-14359176D01*
X9757595Y-14349652D01*
X9938548Y-14340128D02*
X9948071Y-14349652D01*
X9938548Y-14359176D01*
X9929024Y-14349652D01*
X9938548Y-14340128D01*
X9938548Y-14359176D01*
X9938548Y-14235367D02*
X9948071Y-14244890D01*
X9938548Y-14254414D01*
X9929024Y-14244890D01*
X9938548Y-14235367D01*
X9938548Y-14254414D01*
D12*
X8279500Y-14673700D02*
X8309500Y-14703700D01*
X8309500Y-14673700D02*
X8279500Y-14703700D01*
D11*
X8605214Y-14579176D02*
X8624262Y-14579176D01*
X8643310Y-14588700D01*
X8652833Y-14598224D01*
X8662357Y-14617271D01*
X8671881Y-14655367D01*
X8671881Y-14702986D01*
X8662357Y-14741081D01*
X8652833Y-14760128D01*
X8643310Y-14769652D01*
X8624262Y-14779176D01*
X8605214Y-14779176D01*
X8586167Y-14769652D01*
X8576643Y-14760128D01*
X8567119Y-14741081D01*
X8557595Y-14702986D01*
X8557595Y-14655367D01*
X8567119Y-14617271D01*
X8576643Y-14598224D01*
X8586167Y-14588700D01*
X8605214Y-14579176D01*
X8757595Y-14760128D02*
X8767119Y-14769652D01*
X8757595Y-14779176D01*
X8748071Y-14769652D01*
X8757595Y-14760128D01*
X8757595Y-14779176D01*
X8833786Y-14579176D02*
X8957595Y-14579176D01*
X8890929Y-14655367D01*
X8919500Y-14655367D01*
X8938548Y-14664890D01*
X8948071Y-14674414D01*
X8957595Y-14693462D01*
X8957595Y-14741081D01*
X8948071Y-14760128D01*
X8938548Y-14769652D01*
X8919500Y-14779176D01*
X8862357Y-14779176D01*
X8843310Y-14769652D01*
X8833786Y-14760128D01*
X9081405Y-14579176D02*
X9100452Y-14579176D01*
X9119500Y-14588700D01*
X9129024Y-14598224D01*
X9138548Y-14617271D01*
X9148071Y-14655367D01*
X9148071Y-14702986D01*
X9138548Y-14741081D01*
X9129024Y-14760128D01*
X9119500Y-14769652D01*
X9100452Y-14779176D01*
X9081405Y-14779176D01*
X9062357Y-14769652D01*
X9052833Y-14760128D01*
X9043310Y-14741081D01*
X9033786Y-14702986D01*
X9033786Y-14655367D01*
X9043310Y-14617271D01*
X9052833Y-14598224D01*
X9062357Y-14588700D01*
X9081405Y-14579176D01*
X9271881Y-14579176D02*
X9290929Y-14579176D01*
X9309976Y-14588700D01*
X9319500Y-14598224D01*
X9329024Y-14617271D01*
X9338548Y-14655367D01*
X9338548Y-14702986D01*
X9329024Y-14741081D01*
X9319500Y-14760128D01*
X9309976Y-14769652D01*
X9290929Y-14779176D01*
X9271881Y-14779176D01*
X9252833Y-14769652D01*
X9243310Y-14760128D01*
X9233786Y-14741081D01*
X9224262Y-14702986D01*
X9224262Y-14655367D01*
X9233786Y-14617271D01*
X9243310Y-14598224D01*
X9252833Y-14588700D01*
X9271881Y-14579176D01*
X9424262Y-14779176D02*
X9424262Y-14645843D01*
X9424262Y-14664890D02*
X9433786Y-14655367D01*
X9452833Y-14645843D01*
X9481405Y-14645843D01*
X9500452Y-14655367D01*
X9509976Y-14674414D01*
X9509976Y-14779176D01*
X9509976Y-14674414D02*
X9519500Y-14655367D01*
X9538548Y-14645843D01*
X9567119Y-14645843D01*
X9586167Y-14655367D01*
X9595690Y-14674414D01*
X9595690Y-14779176D01*
X9690929Y-14779176D02*
X9690929Y-14645843D01*
X9690929Y-14664890D02*
X9700452Y-14655367D01*
X9719500Y-14645843D01*
X9748071Y-14645843D01*
X9767119Y-14655367D01*
X9776643Y-14674414D01*
X9776643Y-14779176D01*
X9776643Y-14674414D02*
X9786167Y-14655367D01*
X9805214Y-14645843D01*
X9833786Y-14645843D01*
X9852833Y-14655367D01*
X9862357Y-14674414D01*
X9862357Y-14779176D01*
X10252833Y-14569652D02*
X10081405Y-14826795D01*
X10509976Y-14579176D02*
X10529024Y-14579176D01*
X10548071Y-14588700D01*
X10557595Y-14598224D01*
X10567119Y-14617271D01*
X10576643Y-14655367D01*
X10576643Y-14702986D01*
X10567119Y-14741081D01*
X10557595Y-14760128D01*
X10548071Y-14769652D01*
X10529024Y-14779176D01*
X10509976Y-14779176D01*
X10490929Y-14769652D01*
X10481405Y-14760128D01*
X10471881Y-14741081D01*
X10462357Y-14702986D01*
X10462357Y-14655367D01*
X10471881Y-14617271D01*
X10481405Y-14598224D01*
X10490929Y-14588700D01*
X10509976Y-14579176D01*
X10662357Y-14760128D02*
X10671881Y-14769652D01*
X10662357Y-14779176D01*
X10652833Y-14769652D01*
X10662357Y-14760128D01*
X10662357Y-14779176D01*
X10795690Y-14579176D02*
X10814738Y-14579176D01*
X10833786Y-14588700D01*
X10843310Y-14598224D01*
X10852833Y-14617271D01*
X10862357Y-14655367D01*
X10862357Y-14702986D01*
X10852833Y-14741081D01*
X10843310Y-14760128D01*
X10833786Y-14769652D01*
X10814738Y-14779176D01*
X10795690Y-14779176D01*
X10776643Y-14769652D01*
X10767119Y-14760128D01*
X10757595Y-14741081D01*
X10748071Y-14702986D01*
X10748071Y-14655367D01*
X10757595Y-14617271D01*
X10767119Y-14598224D01*
X10776643Y-14588700D01*
X10795690Y-14579176D01*
X11052833Y-14779176D02*
X10938548Y-14779176D01*
X10995690Y-14779176D02*
X10995690Y-14579176D01*
X10976643Y-14607748D01*
X10957595Y-14626795D01*
X10938548Y-14636319D01*
X11243309Y-14779176D02*
X11129024Y-14779176D01*
X11186167Y-14779176D02*
X11186167Y-14579176D01*
X11167119Y-14607748D01*
X11148071Y-14626795D01*
X11129024Y-14636319D01*
X11357595Y-14664890D02*
X11338548Y-14655367D01*
X11329024Y-14645843D01*
X11319500Y-14626795D01*
X11319500Y-14617271D01*
X11329024Y-14598224D01*
X11338548Y-14588700D01*
X11357595Y-14579176D01*
X11395690Y-14579176D01*
X11414738Y-14588700D01*
X11424262Y-14598224D01*
X11433786Y-14617271D01*
X11433786Y-14626795D01*
X11424262Y-14645843D01*
X11414738Y-14655367D01*
X11395690Y-14664890D01*
X11357595Y-14664890D01*
X11338548Y-14674414D01*
X11329024Y-14683938D01*
X11319500Y-14702986D01*
X11319500Y-14741081D01*
X11329024Y-14760128D01*
X11338548Y-14769652D01*
X11357595Y-14779176D01*
X11395690Y-14779176D01*
X11414738Y-14769652D01*
X11424262Y-14760128D01*
X11433786Y-14741081D01*
X11433786Y-14702986D01*
X11424262Y-14683938D01*
X11414738Y-14674414D01*
X11395690Y-14664890D01*
X11509976Y-14579176D02*
X11509976Y-14617271D01*
X11586167Y-14579176D02*
X11586167Y-14617271D01*
X11881405Y-14855367D02*
X11871881Y-14845843D01*
X11852833Y-14817271D01*
X11843309Y-14798224D01*
X11833786Y-14769652D01*
X11824262Y-14722033D01*
X11824262Y-14683938D01*
X11833786Y-14636319D01*
X11843309Y-14607748D01*
X11852833Y-14588700D01*
X11871881Y-14560128D01*
X11881405Y-14550605D01*
X11938548Y-14579176D02*
X12062357Y-14579176D01*
X11995690Y-14655367D01*
X12024262Y-14655367D01*
X12043309Y-14664890D01*
X12052833Y-14674414D01*
X12062357Y-14693462D01*
X12062357Y-14741081D01*
X12052833Y-14760128D01*
X12043309Y-14769652D01*
X12024262Y-14779176D01*
X11967119Y-14779176D01*
X11948071Y-14769652D01*
X11938548Y-14760128D01*
X12129024Y-14579176D02*
X12262357Y-14579176D01*
X12176643Y-14779176D01*
X12490928Y-14779176D02*
X12490928Y-14579176D01*
X12576643Y-14779176D02*
X12576643Y-14674414D01*
X12567119Y-14655367D01*
X12548071Y-14645843D01*
X12519500Y-14645843D01*
X12500452Y-14655367D01*
X12490928Y-14664890D01*
X12700452Y-14779176D02*
X12681405Y-14769652D01*
X12671881Y-14760128D01*
X12662357Y-14741081D01*
X12662357Y-14683938D01*
X12671881Y-14664890D01*
X12681405Y-14655367D01*
X12700452Y-14645843D01*
X12729024Y-14645843D01*
X12748071Y-14655367D01*
X12757595Y-14664890D01*
X12767119Y-14683938D01*
X12767119Y-14741081D01*
X12757595Y-14760128D01*
X12748071Y-14769652D01*
X12729024Y-14779176D01*
X12700452Y-14779176D01*
X12881405Y-14779176D02*
X12862357Y-14769652D01*
X12852833Y-14750605D01*
X12852833Y-14579176D01*
X13033786Y-14769652D02*
X13014738Y-14779176D01*
X12976643Y-14779176D01*
X12957595Y-14769652D01*
X12948071Y-14750605D01*
X12948071Y-14674414D01*
X12957595Y-14655367D01*
X12976643Y-14645843D01*
X13014738Y-14645843D01*
X13033786Y-14655367D01*
X13043309Y-14674414D01*
X13043309Y-14693462D01*
X12948071Y-14712509D01*
X13119500Y-14769652D02*
X13138548Y-14779176D01*
X13176643Y-14779176D01*
X13195690Y-14769652D01*
X13205214Y-14750605D01*
X13205214Y-14741081D01*
X13195690Y-14722033D01*
X13176643Y-14712509D01*
X13148071Y-14712509D01*
X13129024Y-14702986D01*
X13119500Y-14683938D01*
X13119500Y-14674414D01*
X13129024Y-14655367D01*
X13148071Y-14645843D01*
X13176643Y-14645843D01*
X13195690Y-14655367D01*
X13271881Y-14855367D02*
X13281405Y-14845843D01*
X13300452Y-14817271D01*
X13309976Y-14798224D01*
X13319500Y-14769652D01*
X13329024Y-14722033D01*
X13329024Y-14683938D01*
X13319500Y-14636319D01*
X13309976Y-14607748D01*
X13300452Y-14588700D01*
X13281405Y-14560128D01*
X13271881Y-14550605D01*
D13*
X8309500Y-14952700D02*
G75*
G03*
X8309500Y-14952700I-19050J0D01*
G01*
D11*
X8605214Y-14843176D02*
X8624262Y-14843176D01*
X8643310Y-14852700D01*
X8652833Y-14862224D01*
X8662357Y-14881271D01*
X8671881Y-14919367D01*
X8671881Y-14966986D01*
X8662357Y-15005081D01*
X8652833Y-15024128D01*
X8643310Y-15033652D01*
X8624262Y-15043176D01*
X8605214Y-15043176D01*
X8586167Y-15033652D01*
X8576643Y-15024128D01*
X8567119Y-15005081D01*
X8557595Y-14966986D01*
X8557595Y-14919367D01*
X8567119Y-14881271D01*
X8576643Y-14862224D01*
X8586167Y-14852700D01*
X8605214Y-14843176D01*
X8757595Y-15024128D02*
X8767119Y-15033652D01*
X8757595Y-15043176D01*
X8748071Y-15033652D01*
X8757595Y-15024128D01*
X8757595Y-15043176D01*
X8833786Y-14843176D02*
X8957595Y-14843176D01*
X8890929Y-14919367D01*
X8919500Y-14919367D01*
X8938548Y-14928890D01*
X8948071Y-14938414D01*
X8957595Y-14957462D01*
X8957595Y-15005081D01*
X8948071Y-15024128D01*
X8938548Y-15033652D01*
X8919500Y-15043176D01*
X8862357Y-15043176D01*
X8843310Y-15033652D01*
X8833786Y-15024128D01*
X9071881Y-14928890D02*
X9052833Y-14919367D01*
X9043310Y-14909843D01*
X9033786Y-14890795D01*
X9033786Y-14881271D01*
X9043310Y-14862224D01*
X9052833Y-14852700D01*
X9071881Y-14843176D01*
X9109976Y-14843176D01*
X9129024Y-14852700D01*
X9138548Y-14862224D01*
X9148071Y-14881271D01*
X9148071Y-14890795D01*
X9138548Y-14909843D01*
X9129024Y-14919367D01*
X9109976Y-14928890D01*
X9071881Y-14928890D01*
X9052833Y-14938414D01*
X9043310Y-14947938D01*
X9033786Y-14966986D01*
X9033786Y-15005081D01*
X9043310Y-15024128D01*
X9052833Y-15033652D01*
X9071881Y-15043176D01*
X9109976Y-15043176D01*
X9129024Y-15033652D01*
X9138548Y-15024128D01*
X9148071Y-15005081D01*
X9148071Y-14966986D01*
X9138548Y-14947938D01*
X9129024Y-14938414D01*
X9109976Y-14928890D01*
X9338548Y-15043176D02*
X9224262Y-15043176D01*
X9281405Y-15043176D02*
X9281405Y-14843176D01*
X9262357Y-14871748D01*
X9243310Y-14890795D01*
X9224262Y-14900319D01*
X9424262Y-15043176D02*
X9424262Y-14909843D01*
X9424262Y-14928890D02*
X9433786Y-14919367D01*
X9452833Y-14909843D01*
X9481405Y-14909843D01*
X9500452Y-14919367D01*
X9509976Y-14938414D01*
X9509976Y-15043176D01*
X9509976Y-14938414D02*
X9519500Y-14919367D01*
X9538548Y-14909843D01*
X9567119Y-14909843D01*
X9586167Y-14919367D01*
X9595690Y-14938414D01*
X9595690Y-15043176D01*
X9690929Y-15043176D02*
X9690929Y-14909843D01*
X9690929Y-14928890D02*
X9700452Y-14919367D01*
X9719500Y-14909843D01*
X9748071Y-14909843D01*
X9767119Y-14919367D01*
X9776643Y-14938414D01*
X9776643Y-15043176D01*
X9776643Y-14938414D02*
X9786167Y-14919367D01*
X9805214Y-14909843D01*
X9833786Y-14909843D01*
X9852833Y-14919367D01*
X9862357Y-14938414D01*
X9862357Y-15043176D01*
X10252833Y-14833652D02*
X10081405Y-15090795D01*
X10509976Y-14843176D02*
X10529024Y-14843176D01*
X10548071Y-14852700D01*
X10557595Y-14862224D01*
X10567119Y-14881271D01*
X10576643Y-14919367D01*
X10576643Y-14966986D01*
X10567119Y-15005081D01*
X10557595Y-15024128D01*
X10548071Y-15033652D01*
X10529024Y-15043176D01*
X10509976Y-15043176D01*
X10490929Y-15033652D01*
X10481405Y-15024128D01*
X10471881Y-15005081D01*
X10462357Y-14966986D01*
X10462357Y-14919367D01*
X10471881Y-14881271D01*
X10481405Y-14862224D01*
X10490929Y-14852700D01*
X10509976Y-14843176D01*
X10662357Y-15024128D02*
X10671881Y-15033652D01*
X10662357Y-15043176D01*
X10652833Y-15033652D01*
X10662357Y-15024128D01*
X10662357Y-15043176D01*
X10795690Y-14843176D02*
X10814738Y-14843176D01*
X10833786Y-14852700D01*
X10843310Y-14862224D01*
X10852833Y-14881271D01*
X10862357Y-14919367D01*
X10862357Y-14966986D01*
X10852833Y-15005081D01*
X10843310Y-15024128D01*
X10833786Y-15033652D01*
X10814738Y-15043176D01*
X10795690Y-15043176D01*
X10776643Y-15033652D01*
X10767119Y-15024128D01*
X10757595Y-15005081D01*
X10748071Y-14966986D01*
X10748071Y-14919367D01*
X10757595Y-14881271D01*
X10767119Y-14862224D01*
X10776643Y-14852700D01*
X10795690Y-14843176D01*
X11052833Y-15043176D02*
X10938548Y-15043176D01*
X10995690Y-15043176D02*
X10995690Y-14843176D01*
X10976643Y-14871748D01*
X10957595Y-14890795D01*
X10938548Y-14900319D01*
X11233786Y-14843176D02*
X11138548Y-14843176D01*
X11129024Y-14938414D01*
X11138548Y-14928890D01*
X11157595Y-14919367D01*
X11205214Y-14919367D01*
X11224262Y-14928890D01*
X11233786Y-14938414D01*
X11243309Y-14957462D01*
X11243309Y-15005081D01*
X11233786Y-15024128D01*
X11224262Y-15033652D01*
X11205214Y-15043176D01*
X11157595Y-15043176D01*
X11138548Y-15033652D01*
X11129024Y-15024128D01*
X11367119Y-14843176D02*
X11386167Y-14843176D01*
X11405214Y-14852700D01*
X11414738Y-14862224D01*
X11424262Y-14881271D01*
X11433786Y-14919367D01*
X11433786Y-14966986D01*
X11424262Y-15005081D01*
X11414738Y-15024128D01*
X11405214Y-15033652D01*
X11386167Y-15043176D01*
X11367119Y-15043176D01*
X11348071Y-15033652D01*
X11338548Y-15024128D01*
X11329024Y-15005081D01*
X11319500Y-14966986D01*
X11319500Y-14919367D01*
X11329024Y-14881271D01*
X11338548Y-14862224D01*
X11348071Y-14852700D01*
X11367119Y-14843176D01*
X11509976Y-14843176D02*
X11509976Y-14881271D01*
X11586167Y-14843176D02*
X11586167Y-14881271D01*
X11881405Y-15119367D02*
X11871881Y-15109843D01*
X11852833Y-15081271D01*
X11843309Y-15062224D01*
X11833786Y-15033652D01*
X11824262Y-14986033D01*
X11824262Y-14947938D01*
X11833786Y-14900319D01*
X11843309Y-14871748D01*
X11852833Y-14852700D01*
X11871881Y-14824128D01*
X11881405Y-14814605D01*
X11948071Y-14862224D02*
X11957595Y-14852700D01*
X11976643Y-14843176D01*
X12024262Y-14843176D01*
X12043309Y-14852700D01*
X12052833Y-14862224D01*
X12062357Y-14881271D01*
X12062357Y-14900319D01*
X12052833Y-14928890D01*
X11938548Y-15043176D01*
X12062357Y-15043176D01*
X12300452Y-15043176D02*
X12300452Y-14843176D01*
X12386167Y-15043176D02*
X12386167Y-14938414D01*
X12376643Y-14919367D01*
X12357595Y-14909843D01*
X12329024Y-14909843D01*
X12309976Y-14919367D01*
X12300452Y-14928890D01*
X12509976Y-15043176D02*
X12490928Y-15033652D01*
X12481405Y-15024128D01*
X12471881Y-15005081D01*
X12471881Y-14947938D01*
X12481405Y-14928890D01*
X12490928Y-14919367D01*
X12509976Y-14909843D01*
X12538548Y-14909843D01*
X12557595Y-14919367D01*
X12567119Y-14928890D01*
X12576643Y-14947938D01*
X12576643Y-15005081D01*
X12567119Y-15024128D01*
X12557595Y-15033652D01*
X12538548Y-15043176D01*
X12509976Y-15043176D01*
X12690928Y-15043176D02*
X12671881Y-15033652D01*
X12662357Y-15014605D01*
X12662357Y-14843176D01*
X12843309Y-15033652D02*
X12824262Y-15043176D01*
X12786167Y-15043176D01*
X12767119Y-15033652D01*
X12757595Y-15014605D01*
X12757595Y-14938414D01*
X12767119Y-14919367D01*
X12786167Y-14909843D01*
X12824262Y-14909843D01*
X12843309Y-14919367D01*
X12852833Y-14938414D01*
X12852833Y-14957462D01*
X12757595Y-14976509D01*
X12929024Y-15033652D02*
X12948071Y-15043176D01*
X12986167Y-15043176D01*
X13005214Y-15033652D01*
X13014738Y-15014605D01*
X13014738Y-15005081D01*
X13005214Y-14986033D01*
X12986167Y-14976509D01*
X12957595Y-14976509D01*
X12938548Y-14966986D01*
X12929024Y-14947938D01*
X12929024Y-14938414D01*
X12938548Y-14919367D01*
X12957595Y-14909843D01*
X12986167Y-14909843D01*
X13005214Y-14919367D01*
X13081405Y-15119367D02*
X13090928Y-15109843D01*
X13109976Y-15081271D01*
X13119500Y-15062224D01*
X13129024Y-15033652D01*
X13138548Y-14986033D01*
X13138548Y-14947938D01*
X13129024Y-14900319D01*
X13119500Y-14871748D01*
X13109976Y-14852700D01*
X13090928Y-14824128D01*
X13081405Y-14814605D01*
D14*
X8289500Y-15196700D02*
X8289500Y-15236700D01*
X8269500Y-15216700D02*
X8309500Y-15216700D01*
D11*
X8605214Y-15107176D02*
X8624262Y-15107176D01*
X8643310Y-15116700D01*
X8652833Y-15126224D01*
X8662357Y-15145271D01*
X8671881Y-15183367D01*
X8671881Y-15230986D01*
X8662357Y-15269081D01*
X8652833Y-15288128D01*
X8643310Y-15297652D01*
X8624262Y-15307176D01*
X8605214Y-15307176D01*
X8586167Y-15297652D01*
X8576643Y-15288128D01*
X8567119Y-15269081D01*
X8557595Y-15230986D01*
X8557595Y-15183367D01*
X8567119Y-15145271D01*
X8576643Y-15126224D01*
X8586167Y-15116700D01*
X8605214Y-15107176D01*
X8757595Y-15288128D02*
X8767119Y-15297652D01*
X8757595Y-15307176D01*
X8748071Y-15297652D01*
X8757595Y-15288128D01*
X8757595Y-15307176D01*
X8938548Y-15173843D02*
X8938548Y-15307176D01*
X8890929Y-15097652D02*
X8843310Y-15240509D01*
X8967119Y-15240509D01*
X9081405Y-15107176D02*
X9100452Y-15107176D01*
X9119500Y-15116700D01*
X9129024Y-15126224D01*
X9138548Y-15145271D01*
X9148071Y-15183367D01*
X9148071Y-15230986D01*
X9138548Y-15269081D01*
X9129024Y-15288128D01*
X9119500Y-15297652D01*
X9100452Y-15307176D01*
X9081405Y-15307176D01*
X9062357Y-15297652D01*
X9052833Y-15288128D01*
X9043310Y-15269081D01*
X9033786Y-15230986D01*
X9033786Y-15183367D01*
X9043310Y-15145271D01*
X9052833Y-15126224D01*
X9062357Y-15116700D01*
X9081405Y-15107176D01*
X9271881Y-15107176D02*
X9290929Y-15107176D01*
X9309976Y-15116700D01*
X9319500Y-15126224D01*
X9329024Y-15145271D01*
X9338548Y-15183367D01*
X9338548Y-15230986D01*
X9329024Y-15269081D01*
X9319500Y-15288128D01*
X9309976Y-15297652D01*
X9290929Y-15307176D01*
X9271881Y-15307176D01*
X9252833Y-15297652D01*
X9243310Y-15288128D01*
X9233786Y-15269081D01*
X9224262Y-15230986D01*
X9224262Y-15183367D01*
X9233786Y-15145271D01*
X9243310Y-15126224D01*
X9252833Y-15116700D01*
X9271881Y-15107176D01*
X9424262Y-15307176D02*
X9424262Y-15173843D01*
X9424262Y-15192890D02*
X9433786Y-15183367D01*
X9452833Y-15173843D01*
X9481405Y-15173843D01*
X9500452Y-15183367D01*
X9509976Y-15202414D01*
X9509976Y-15307176D01*
X9509976Y-15202414D02*
X9519500Y-15183367D01*
X9538548Y-15173843D01*
X9567119Y-15173843D01*
X9586167Y-15183367D01*
X9595690Y-15202414D01*
X9595690Y-15307176D01*
X9690929Y-15307176D02*
X9690929Y-15173843D01*
X9690929Y-15192890D02*
X9700452Y-15183367D01*
X9719500Y-15173843D01*
X9748071Y-15173843D01*
X9767119Y-15183367D01*
X9776643Y-15202414D01*
X9776643Y-15307176D01*
X9776643Y-15202414D02*
X9786167Y-15183367D01*
X9805214Y-15173843D01*
X9833786Y-15173843D01*
X9852833Y-15183367D01*
X9862357Y-15202414D01*
X9862357Y-15307176D01*
X10252833Y-15097652D02*
X10081405Y-15354795D01*
X10509976Y-15107176D02*
X10529024Y-15107176D01*
X10548071Y-15116700D01*
X10557595Y-15126224D01*
X10567119Y-15145271D01*
X10576643Y-15183367D01*
X10576643Y-15230986D01*
X10567119Y-15269081D01*
X10557595Y-15288128D01*
X10548071Y-15297652D01*
X10529024Y-15307176D01*
X10509976Y-15307176D01*
X10490929Y-15297652D01*
X10481405Y-15288128D01*
X10471881Y-15269081D01*
X10462357Y-15230986D01*
X10462357Y-15183367D01*
X10471881Y-15145271D01*
X10481405Y-15126224D01*
X10490929Y-15116700D01*
X10509976Y-15107176D01*
X10662357Y-15288128D02*
X10671881Y-15297652D01*
X10662357Y-15307176D01*
X10652833Y-15297652D01*
X10662357Y-15288128D01*
X10662357Y-15307176D01*
X10795690Y-15107176D02*
X10814738Y-15107176D01*
X10833786Y-15116700D01*
X10843310Y-15126224D01*
X10852833Y-15145271D01*
X10862357Y-15183367D01*
X10862357Y-15230986D01*
X10852833Y-15269081D01*
X10843310Y-15288128D01*
X10833786Y-15297652D01*
X10814738Y-15307176D01*
X10795690Y-15307176D01*
X10776643Y-15297652D01*
X10767119Y-15288128D01*
X10757595Y-15269081D01*
X10748071Y-15230986D01*
X10748071Y-15183367D01*
X10757595Y-15145271D01*
X10767119Y-15126224D01*
X10776643Y-15116700D01*
X10795690Y-15107176D01*
X11052833Y-15307176D02*
X10938548Y-15307176D01*
X10995690Y-15307176D02*
X10995690Y-15107176D01*
X10976643Y-15135748D01*
X10957595Y-15154795D01*
X10938548Y-15164319D01*
X11233786Y-15107176D02*
X11138548Y-15107176D01*
X11129024Y-15202414D01*
X11138548Y-15192890D01*
X11157595Y-15183367D01*
X11205214Y-15183367D01*
X11224262Y-15192890D01*
X11233786Y-15202414D01*
X11243309Y-15221462D01*
X11243309Y-15269081D01*
X11233786Y-15288128D01*
X11224262Y-15297652D01*
X11205214Y-15307176D01*
X11157595Y-15307176D01*
X11138548Y-15297652D01*
X11129024Y-15288128D01*
X11309976Y-15107176D02*
X11443309Y-15107176D01*
X11357595Y-15307176D01*
X11509976Y-15107176D02*
X11509976Y-15145271D01*
X11586167Y-15107176D02*
X11586167Y-15145271D01*
X11881405Y-15383367D02*
X11871881Y-15373843D01*
X11852833Y-15345271D01*
X11843309Y-15326224D01*
X11833786Y-15297652D01*
X11824262Y-15250033D01*
X11824262Y-15211938D01*
X11833786Y-15164319D01*
X11843309Y-15135748D01*
X11852833Y-15116700D01*
X11871881Y-15088128D01*
X11881405Y-15078605D01*
X12043309Y-15107176D02*
X12005214Y-15107176D01*
X11986167Y-15116700D01*
X11976643Y-15126224D01*
X11957595Y-15154795D01*
X11948071Y-15192890D01*
X11948071Y-15269081D01*
X11957595Y-15288128D01*
X11967119Y-15297652D01*
X11986167Y-15307176D01*
X12024262Y-15307176D01*
X12043309Y-15297652D01*
X12052833Y-15288128D01*
X12062357Y-15269081D01*
X12062357Y-15221462D01*
X12052833Y-15202414D01*
X12043309Y-15192890D01*
X12024262Y-15183367D01*
X11986167Y-15183367D01*
X11967119Y-15192890D01*
X11957595Y-15202414D01*
X11948071Y-15221462D01*
X12300452Y-15307176D02*
X12300452Y-15107176D01*
X12386167Y-15307176D02*
X12386167Y-15202414D01*
X12376643Y-15183367D01*
X12357595Y-15173843D01*
X12329024Y-15173843D01*
X12309976Y-15183367D01*
X12300452Y-15192890D01*
X12509976Y-15307176D02*
X12490928Y-15297652D01*
X12481405Y-15288128D01*
X12471881Y-15269081D01*
X12471881Y-15211938D01*
X12481405Y-15192890D01*
X12490928Y-15183367D01*
X12509976Y-15173843D01*
X12538548Y-15173843D01*
X12557595Y-15183367D01*
X12567119Y-15192890D01*
X12576643Y-15211938D01*
X12576643Y-15269081D01*
X12567119Y-15288128D01*
X12557595Y-15297652D01*
X12538548Y-15307176D01*
X12509976Y-15307176D01*
X12690928Y-15307176D02*
X12671881Y-15297652D01*
X12662357Y-15278605D01*
X12662357Y-15107176D01*
X12843309Y-15297652D02*
X12824262Y-15307176D01*
X12786167Y-15307176D01*
X12767119Y-15297652D01*
X12757595Y-15278605D01*
X12757595Y-15202414D01*
X12767119Y-15183367D01*
X12786167Y-15173843D01*
X12824262Y-15173843D01*
X12843309Y-15183367D01*
X12852833Y-15202414D01*
X12852833Y-15221462D01*
X12757595Y-15240509D01*
X12929024Y-15297652D02*
X12948071Y-15307176D01*
X12986167Y-15307176D01*
X13005214Y-15297652D01*
X13014738Y-15278605D01*
X13014738Y-15269081D01*
X13005214Y-15250033D01*
X12986167Y-15240509D01*
X12957595Y-15240509D01*
X12938548Y-15230986D01*
X12929024Y-15211938D01*
X12929024Y-15202414D01*
X12938548Y-15183367D01*
X12957595Y-15173843D01*
X12986167Y-15173843D01*
X13005214Y-15183367D01*
X13081405Y-15383367D02*
X13090928Y-15373843D01*
X13109976Y-15345271D01*
X13119500Y-15326224D01*
X13129024Y-15297652D01*
X13138548Y-15250033D01*
X13138548Y-15211938D01*
X13129024Y-15164319D01*
X13119500Y-15135748D01*
X13109976Y-15116700D01*
X13090928Y-15088128D01*
X13081405Y-15078605D01*
D15*
X8302061Y-15498661D02*
X8302061Y-15462739D01*
X8266139Y-15462739D01*
X8266139Y-15498661D01*
X8302061Y-15498661D01*
D11*
X8605214Y-15371176D02*
X8624262Y-15371176D01*
X8643310Y-15380700D01*
X8652833Y-15390224D01*
X8662357Y-15409271D01*
X8671881Y-15447367D01*
X8671881Y-15494986D01*
X8662357Y-15533081D01*
X8652833Y-15552128D01*
X8643310Y-15561652D01*
X8624262Y-15571176D01*
X8605214Y-15571176D01*
X8586167Y-15561652D01*
X8576643Y-15552128D01*
X8567119Y-15533081D01*
X8557595Y-15494986D01*
X8557595Y-15447367D01*
X8567119Y-15409271D01*
X8576643Y-15390224D01*
X8586167Y-15380700D01*
X8605214Y-15371176D01*
X8757595Y-15552128D02*
X8767119Y-15561652D01*
X8757595Y-15571176D01*
X8748071Y-15561652D01*
X8757595Y-15552128D01*
X8757595Y-15571176D01*
X8948071Y-15371176D02*
X8852833Y-15371176D01*
X8843310Y-15466414D01*
X8852833Y-15456890D01*
X8871881Y-15447367D01*
X8919500Y-15447367D01*
X8938548Y-15456890D01*
X8948071Y-15466414D01*
X8957595Y-15485462D01*
X8957595Y-15533081D01*
X8948071Y-15552128D01*
X8938548Y-15561652D01*
X8919500Y-15571176D01*
X8871881Y-15571176D01*
X8852833Y-15561652D01*
X8843310Y-15552128D01*
X9081405Y-15371176D02*
X9100452Y-15371176D01*
X9119500Y-15380700D01*
X9129024Y-15390224D01*
X9138548Y-15409271D01*
X9148071Y-15447367D01*
X9148071Y-15494986D01*
X9138548Y-15533081D01*
X9129024Y-15552128D01*
X9119500Y-15561652D01*
X9100452Y-15571176D01*
X9081405Y-15571176D01*
X9062357Y-15561652D01*
X9052833Y-15552128D01*
X9043310Y-15533081D01*
X9033786Y-15494986D01*
X9033786Y-15447367D01*
X9043310Y-15409271D01*
X9052833Y-15390224D01*
X9062357Y-15380700D01*
X9081405Y-15371176D01*
X9262357Y-15456890D02*
X9243310Y-15447367D01*
X9233786Y-15437843D01*
X9224262Y-15418795D01*
X9224262Y-15409271D01*
X9233786Y-15390224D01*
X9243310Y-15380700D01*
X9262357Y-15371176D01*
X9300452Y-15371176D01*
X9319500Y-15380700D01*
X9329024Y-15390224D01*
X9338548Y-15409271D01*
X9338548Y-15418795D01*
X9329024Y-15437843D01*
X9319500Y-15447367D01*
X9300452Y-15456890D01*
X9262357Y-15456890D01*
X9243310Y-15466414D01*
X9233786Y-15475938D01*
X9224262Y-15494986D01*
X9224262Y-15533081D01*
X9233786Y-15552128D01*
X9243310Y-15561652D01*
X9262357Y-15571176D01*
X9300452Y-15571176D01*
X9319500Y-15561652D01*
X9329024Y-15552128D01*
X9338548Y-15533081D01*
X9338548Y-15494986D01*
X9329024Y-15475938D01*
X9319500Y-15466414D01*
X9300452Y-15456890D01*
X9424262Y-15571176D02*
X9424262Y-15437843D01*
X9424262Y-15456890D02*
X9433786Y-15447367D01*
X9452833Y-15437843D01*
X9481405Y-15437843D01*
X9500452Y-15447367D01*
X9509976Y-15466414D01*
X9509976Y-15571176D01*
X9509976Y-15466414D02*
X9519500Y-15447367D01*
X9538548Y-15437843D01*
X9567119Y-15437843D01*
X9586167Y-15447367D01*
X9595690Y-15466414D01*
X9595690Y-15571176D01*
X9690929Y-15571176D02*
X9690929Y-15437843D01*
X9690929Y-15456890D02*
X9700452Y-15447367D01*
X9719500Y-15437843D01*
X9748071Y-15437843D01*
X9767119Y-15447367D01*
X9776643Y-15466414D01*
X9776643Y-15571176D01*
X9776643Y-15466414D02*
X9786167Y-15447367D01*
X9805214Y-15437843D01*
X9833786Y-15437843D01*
X9852833Y-15447367D01*
X9862357Y-15466414D01*
X9862357Y-15571176D01*
X10252833Y-15361652D02*
X10081405Y-15618795D01*
X10509976Y-15371176D02*
X10529024Y-15371176D01*
X10548071Y-15380700D01*
X10557595Y-15390224D01*
X10567119Y-15409271D01*
X10576643Y-15447367D01*
X10576643Y-15494986D01*
X10567119Y-15533081D01*
X10557595Y-15552128D01*
X10548071Y-15561652D01*
X10529024Y-15571176D01*
X10509976Y-15571176D01*
X10490929Y-15561652D01*
X10481405Y-15552128D01*
X10471881Y-15533081D01*
X10462357Y-15494986D01*
X10462357Y-15447367D01*
X10471881Y-15409271D01*
X10481405Y-15390224D01*
X10490929Y-15380700D01*
X10509976Y-15371176D01*
X10662357Y-15552128D02*
X10671881Y-15561652D01*
X10662357Y-15571176D01*
X10652833Y-15561652D01*
X10662357Y-15552128D01*
X10662357Y-15571176D01*
X10795690Y-15371176D02*
X10814738Y-15371176D01*
X10833786Y-15380700D01*
X10843310Y-15390224D01*
X10852833Y-15409271D01*
X10862357Y-15447367D01*
X10862357Y-15494986D01*
X10852833Y-15533081D01*
X10843310Y-15552128D01*
X10833786Y-15561652D01*
X10814738Y-15571176D01*
X10795690Y-15571176D01*
X10776643Y-15561652D01*
X10767119Y-15552128D01*
X10757595Y-15533081D01*
X10748071Y-15494986D01*
X10748071Y-15447367D01*
X10757595Y-15409271D01*
X10767119Y-15390224D01*
X10776643Y-15380700D01*
X10795690Y-15371176D01*
X10938548Y-15390224D02*
X10948071Y-15380700D01*
X10967119Y-15371176D01*
X11014738Y-15371176D01*
X11033786Y-15380700D01*
X11043310Y-15390224D01*
X11052833Y-15409271D01*
X11052833Y-15428319D01*
X11043310Y-15456890D01*
X10929024Y-15571176D01*
X11052833Y-15571176D01*
X11176643Y-15371176D02*
X11195690Y-15371176D01*
X11214738Y-15380700D01*
X11224262Y-15390224D01*
X11233786Y-15409271D01*
X11243309Y-15447367D01*
X11243309Y-15494986D01*
X11233786Y-15533081D01*
X11224262Y-15552128D01*
X11214738Y-15561652D01*
X11195690Y-15571176D01*
X11176643Y-15571176D01*
X11157595Y-15561652D01*
X11148071Y-15552128D01*
X11138548Y-15533081D01*
X11129024Y-15494986D01*
X11129024Y-15447367D01*
X11138548Y-15409271D01*
X11148071Y-15390224D01*
X11157595Y-15380700D01*
X11176643Y-15371176D01*
X11367119Y-15371176D02*
X11386167Y-15371176D01*
X11405214Y-15380700D01*
X11414738Y-15390224D01*
X11424262Y-15409271D01*
X11433786Y-15447367D01*
X11433786Y-15494986D01*
X11424262Y-15533081D01*
X11414738Y-15552128D01*
X11405214Y-15561652D01*
X11386167Y-15571176D01*
X11367119Y-15571176D01*
X11348071Y-15561652D01*
X11338548Y-15552128D01*
X11329024Y-15533081D01*
X11319500Y-15494986D01*
X11319500Y-15447367D01*
X11329024Y-15409271D01*
X11338548Y-15390224D01*
X11348071Y-15380700D01*
X11367119Y-15371176D01*
X11509976Y-15371176D02*
X11509976Y-15409271D01*
X11586167Y-15371176D02*
X11586167Y-15409271D01*
X11881405Y-15647367D02*
X11871881Y-15637843D01*
X11852833Y-15609271D01*
X11843309Y-15590224D01*
X11833786Y-15561652D01*
X11824262Y-15514033D01*
X11824262Y-15475938D01*
X11833786Y-15428319D01*
X11843309Y-15399748D01*
X11852833Y-15380700D01*
X11871881Y-15352128D01*
X11881405Y-15342605D01*
X12052833Y-15371176D02*
X11957595Y-15371176D01*
X11948071Y-15466414D01*
X11957595Y-15456890D01*
X11976643Y-15447367D01*
X12024262Y-15447367D01*
X12043309Y-15456890D01*
X12052833Y-15466414D01*
X12062357Y-15485462D01*
X12062357Y-15533081D01*
X12052833Y-15552128D01*
X12043309Y-15561652D01*
X12024262Y-15571176D01*
X11976643Y-15571176D01*
X11957595Y-15561652D01*
X11948071Y-15552128D01*
X12300452Y-15571176D02*
X12300452Y-15371176D01*
X12386167Y-15571176D02*
X12386167Y-15466414D01*
X12376643Y-15447367D01*
X12357595Y-15437843D01*
X12329024Y-15437843D01*
X12309976Y-15447367D01*
X12300452Y-15456890D01*
X12509976Y-15571176D02*
X12490928Y-15561652D01*
X12481405Y-15552128D01*
X12471881Y-15533081D01*
X12471881Y-15475938D01*
X12481405Y-15456890D01*
X12490928Y-15447367D01*
X12509976Y-15437843D01*
X12538548Y-15437843D01*
X12557595Y-15447367D01*
X12567119Y-15456890D01*
X12576643Y-15475938D01*
X12576643Y-15533081D01*
X12567119Y-15552128D01*
X12557595Y-15561652D01*
X12538548Y-15571176D01*
X12509976Y-15571176D01*
X12690928Y-15571176D02*
X12671881Y-15561652D01*
X12662357Y-15542605D01*
X12662357Y-15371176D01*
X12843309Y-15561652D02*
X12824262Y-15571176D01*
X12786167Y-15571176D01*
X12767119Y-15561652D01*
X12757595Y-15542605D01*
X12757595Y-15466414D01*
X12767119Y-15447367D01*
X12786167Y-15437843D01*
X12824262Y-15437843D01*
X12843309Y-15447367D01*
X12852833Y-15466414D01*
X12852833Y-15485462D01*
X12757595Y-15504509D01*
X12929024Y-15561652D02*
X12948071Y-15571176D01*
X12986167Y-15571176D01*
X13005214Y-15561652D01*
X13014738Y-15542605D01*
X13014738Y-15533081D01*
X13005214Y-15514033D01*
X12986167Y-15504509D01*
X12957595Y-15504509D01*
X12938548Y-15494986D01*
X12929024Y-15475938D01*
X12929024Y-15466414D01*
X12938548Y-15447367D01*
X12957595Y-15437843D01*
X12986167Y-15437843D01*
X13005214Y-15447367D01*
X13081405Y-15647367D02*
X13090928Y-15637843D01*
X13109976Y-15609271D01*
X13119500Y-15590224D01*
X13129024Y-15561652D01*
X13138548Y-15514033D01*
X13138548Y-15475938D01*
X13129024Y-15428319D01*
X13119500Y-15399748D01*
X13109976Y-15380700D01*
X13090928Y-15352128D01*
X13081405Y-15342605D01*
D16*
X8279500Y-15774700D02*
X8309500Y-15744700D01*
X8279500Y-15714700D01*
X8249500Y-15744700D01*
X8279500Y-15774700D01*
D11*
X8605214Y-15635176D02*
X8624262Y-15635176D01*
X8643310Y-15644700D01*
X8652833Y-15654224D01*
X8662357Y-15673271D01*
X8671881Y-15711367D01*
X8671881Y-15758986D01*
X8662357Y-15797081D01*
X8652833Y-15816128D01*
X8643310Y-15825652D01*
X8624262Y-15835176D01*
X8605214Y-15835176D01*
X8586167Y-15825652D01*
X8576643Y-15816128D01*
X8567119Y-15797081D01*
X8557595Y-15758986D01*
X8557595Y-15711367D01*
X8567119Y-15673271D01*
X8576643Y-15654224D01*
X8586167Y-15644700D01*
X8605214Y-15635176D01*
X8757595Y-15816128D02*
X8767119Y-15825652D01*
X8757595Y-15835176D01*
X8748071Y-15825652D01*
X8757595Y-15816128D01*
X8757595Y-15835176D01*
X8938548Y-15635176D02*
X8900452Y-15635176D01*
X8881405Y-15644700D01*
X8871881Y-15654224D01*
X8852833Y-15682795D01*
X8843310Y-15720890D01*
X8843310Y-15797081D01*
X8852833Y-15816128D01*
X8862357Y-15825652D01*
X8881405Y-15835176D01*
X8919500Y-15835176D01*
X8938548Y-15825652D01*
X8948071Y-15816128D01*
X8957595Y-15797081D01*
X8957595Y-15749462D01*
X8948071Y-15730414D01*
X8938548Y-15720890D01*
X8919500Y-15711367D01*
X8881405Y-15711367D01*
X8862357Y-15720890D01*
X8852833Y-15730414D01*
X8843310Y-15749462D01*
X9081405Y-15635176D02*
X9100452Y-15635176D01*
X9119500Y-15644700D01*
X9129024Y-15654224D01*
X9138548Y-15673271D01*
X9148071Y-15711367D01*
X9148071Y-15758986D01*
X9138548Y-15797081D01*
X9129024Y-15816128D01*
X9119500Y-15825652D01*
X9100452Y-15835176D01*
X9081405Y-15835176D01*
X9062357Y-15825652D01*
X9052833Y-15816128D01*
X9043310Y-15797081D01*
X9033786Y-15758986D01*
X9033786Y-15711367D01*
X9043310Y-15673271D01*
X9052833Y-15654224D01*
X9062357Y-15644700D01*
X9081405Y-15635176D01*
X9271881Y-15635176D02*
X9290929Y-15635176D01*
X9309976Y-15644700D01*
X9319500Y-15654224D01*
X9329024Y-15673271D01*
X9338548Y-15711367D01*
X9338548Y-15758986D01*
X9329024Y-15797081D01*
X9319500Y-15816128D01*
X9309976Y-15825652D01*
X9290929Y-15835176D01*
X9271881Y-15835176D01*
X9252833Y-15825652D01*
X9243310Y-15816128D01*
X9233786Y-15797081D01*
X9224262Y-15758986D01*
X9224262Y-15711367D01*
X9233786Y-15673271D01*
X9243310Y-15654224D01*
X9252833Y-15644700D01*
X9271881Y-15635176D01*
X9424262Y-15835176D02*
X9424262Y-15701843D01*
X9424262Y-15720890D02*
X9433786Y-15711367D01*
X9452833Y-15701843D01*
X9481405Y-15701843D01*
X9500452Y-15711367D01*
X9509976Y-15730414D01*
X9509976Y-15835176D01*
X9509976Y-15730414D02*
X9519500Y-15711367D01*
X9538548Y-15701843D01*
X9567119Y-15701843D01*
X9586167Y-15711367D01*
X9595690Y-15730414D01*
X9595690Y-15835176D01*
X9690929Y-15835176D02*
X9690929Y-15701843D01*
X9690929Y-15720890D02*
X9700452Y-15711367D01*
X9719500Y-15701843D01*
X9748071Y-15701843D01*
X9767119Y-15711367D01*
X9776643Y-15730414D01*
X9776643Y-15835176D01*
X9776643Y-15730414D02*
X9786167Y-15711367D01*
X9805214Y-15701843D01*
X9833786Y-15701843D01*
X9852833Y-15711367D01*
X9862357Y-15730414D01*
X9862357Y-15835176D01*
X10252833Y-15625652D02*
X10081405Y-15882795D01*
X10509976Y-15635176D02*
X10529024Y-15635176D01*
X10548071Y-15644700D01*
X10557595Y-15654224D01*
X10567119Y-15673271D01*
X10576643Y-15711367D01*
X10576643Y-15758986D01*
X10567119Y-15797081D01*
X10557595Y-15816128D01*
X10548071Y-15825652D01*
X10529024Y-15835176D01*
X10509976Y-15835176D01*
X10490929Y-15825652D01*
X10481405Y-15816128D01*
X10471881Y-15797081D01*
X10462357Y-15758986D01*
X10462357Y-15711367D01*
X10471881Y-15673271D01*
X10481405Y-15654224D01*
X10490929Y-15644700D01*
X10509976Y-15635176D01*
X10662357Y-15816128D02*
X10671881Y-15825652D01*
X10662357Y-15835176D01*
X10652833Y-15825652D01*
X10662357Y-15816128D01*
X10662357Y-15835176D01*
X10795690Y-15635176D02*
X10814738Y-15635176D01*
X10833786Y-15644700D01*
X10843310Y-15654224D01*
X10852833Y-15673271D01*
X10862357Y-15711367D01*
X10862357Y-15758986D01*
X10852833Y-15797081D01*
X10843310Y-15816128D01*
X10833786Y-15825652D01*
X10814738Y-15835176D01*
X10795690Y-15835176D01*
X10776643Y-15825652D01*
X10767119Y-15816128D01*
X10757595Y-15797081D01*
X10748071Y-15758986D01*
X10748071Y-15711367D01*
X10757595Y-15673271D01*
X10767119Y-15654224D01*
X10776643Y-15644700D01*
X10795690Y-15635176D01*
X10938548Y-15654224D02*
X10948071Y-15644700D01*
X10967119Y-15635176D01*
X11014738Y-15635176D01*
X11033786Y-15644700D01*
X11043310Y-15654224D01*
X11052833Y-15673271D01*
X11052833Y-15692319D01*
X11043310Y-15720890D01*
X10929024Y-15835176D01*
X11052833Y-15835176D01*
X11119500Y-15635176D02*
X11243309Y-15635176D01*
X11176643Y-15711367D01*
X11205214Y-15711367D01*
X11224262Y-15720890D01*
X11233786Y-15730414D01*
X11243309Y-15749462D01*
X11243309Y-15797081D01*
X11233786Y-15816128D01*
X11224262Y-15825652D01*
X11205214Y-15835176D01*
X11148071Y-15835176D01*
X11129024Y-15825652D01*
X11119500Y-15816128D01*
X11414738Y-15635176D02*
X11376643Y-15635176D01*
X11357595Y-15644700D01*
X11348071Y-15654224D01*
X11329024Y-15682795D01*
X11319500Y-15720890D01*
X11319500Y-15797081D01*
X11329024Y-15816128D01*
X11338548Y-15825652D01*
X11357595Y-15835176D01*
X11395690Y-15835176D01*
X11414738Y-15825652D01*
X11424262Y-15816128D01*
X11433786Y-15797081D01*
X11433786Y-15749462D01*
X11424262Y-15730414D01*
X11414738Y-15720890D01*
X11395690Y-15711367D01*
X11357595Y-15711367D01*
X11338548Y-15720890D01*
X11329024Y-15730414D01*
X11319500Y-15749462D01*
X11509976Y-15635176D02*
X11509976Y-15673271D01*
X11586167Y-15635176D02*
X11586167Y-15673271D01*
X11881405Y-15911367D02*
X11871881Y-15901843D01*
X11852833Y-15873271D01*
X11843309Y-15854224D01*
X11833786Y-15825652D01*
X11824262Y-15778033D01*
X11824262Y-15739938D01*
X11833786Y-15692319D01*
X11843309Y-15663748D01*
X11852833Y-15644700D01*
X11871881Y-15616128D01*
X11881405Y-15606605D01*
X11995690Y-15635176D02*
X12014738Y-15635176D01*
X12033786Y-15644700D01*
X12043309Y-15654224D01*
X12052833Y-15673271D01*
X12062357Y-15711367D01*
X12062357Y-15758986D01*
X12052833Y-15797081D01*
X12043309Y-15816128D01*
X12033786Y-15825652D01*
X12014738Y-15835176D01*
X11995690Y-15835176D01*
X11976643Y-15825652D01*
X11967119Y-15816128D01*
X11957595Y-15797081D01*
X11948071Y-15758986D01*
X11948071Y-15711367D01*
X11957595Y-15673271D01*
X11967119Y-15654224D01*
X11976643Y-15644700D01*
X11995690Y-15635176D01*
X12300452Y-15835176D02*
X12300452Y-15635176D01*
X12386167Y-15835176D02*
X12386167Y-15730414D01*
X12376643Y-15711367D01*
X12357595Y-15701843D01*
X12329024Y-15701843D01*
X12309976Y-15711367D01*
X12300452Y-15720890D01*
X12509976Y-15835176D02*
X12490928Y-15825652D01*
X12481405Y-15816128D01*
X12471881Y-15797081D01*
X12471881Y-15739938D01*
X12481405Y-15720890D01*
X12490928Y-15711367D01*
X12509976Y-15701843D01*
X12538548Y-15701843D01*
X12557595Y-15711367D01*
X12567119Y-15720890D01*
X12576643Y-15739938D01*
X12576643Y-15797081D01*
X12567119Y-15816128D01*
X12557595Y-15825652D01*
X12538548Y-15835176D01*
X12509976Y-15835176D01*
X12690928Y-15835176D02*
X12671881Y-15825652D01*
X12662357Y-15806605D01*
X12662357Y-15635176D01*
X12843309Y-15825652D02*
X12824262Y-15835176D01*
X12786167Y-15835176D01*
X12767119Y-15825652D01*
X12757595Y-15806605D01*
X12757595Y-15730414D01*
X12767119Y-15711367D01*
X12786167Y-15701843D01*
X12824262Y-15701843D01*
X12843309Y-15711367D01*
X12852833Y-15730414D01*
X12852833Y-15749462D01*
X12757595Y-15768509D01*
X12929024Y-15825652D02*
X12948071Y-15835176D01*
X12986167Y-15835176D01*
X13005214Y-15825652D01*
X13014738Y-15806605D01*
X13014738Y-15797081D01*
X13005214Y-15778033D01*
X12986167Y-15768509D01*
X12957595Y-15768509D01*
X12938548Y-15758986D01*
X12929024Y-15739938D01*
X12929024Y-15730414D01*
X12938548Y-15711367D01*
X12957595Y-15701843D01*
X12986167Y-15701843D01*
X13005214Y-15711367D01*
X13252833Y-15758986D02*
X13405214Y-15758986D01*
X13329024Y-15835176D02*
X13329024Y-15682795D01*
X13738548Y-15701843D02*
X13738548Y-15835176D01*
X13690928Y-15625652D02*
X13643309Y-15768509D01*
X13767119Y-15768509D01*
X13986167Y-15825652D02*
X14005214Y-15835176D01*
X14043309Y-15835176D01*
X14062357Y-15825652D01*
X14071881Y-15806605D01*
X14071881Y-15797081D01*
X14062357Y-15778033D01*
X14043309Y-15768509D01*
X14014738Y-15768509D01*
X13995690Y-15758986D01*
X13986167Y-15739938D01*
X13986167Y-15730414D01*
X13995690Y-15711367D01*
X14014738Y-15701843D01*
X14043309Y-15701843D01*
X14062357Y-15711367D01*
X14186167Y-15835176D02*
X14167119Y-15825652D01*
X14157595Y-15806605D01*
X14157595Y-15635176D01*
X14290928Y-15835176D02*
X14271881Y-15825652D01*
X14262357Y-15816128D01*
X14252833Y-15797081D01*
X14252833Y-15739938D01*
X14262357Y-15720890D01*
X14271881Y-15711367D01*
X14290928Y-15701843D01*
X14319500Y-15701843D01*
X14338548Y-15711367D01*
X14348071Y-15720890D01*
X14357595Y-15739938D01*
X14357595Y-15797081D01*
X14348071Y-15816128D01*
X14338548Y-15825652D01*
X14319500Y-15835176D01*
X14290928Y-15835176D01*
X14414738Y-15701843D02*
X14490928Y-15701843D01*
X14443309Y-15635176D02*
X14443309Y-15806605D01*
X14452833Y-15825652D01*
X14471881Y-15835176D01*
X14490928Y-15835176D01*
X14548071Y-15825652D02*
X14567119Y-15835176D01*
X14605214Y-15835176D01*
X14624262Y-15825652D01*
X14633786Y-15806605D01*
X14633786Y-15797081D01*
X14624262Y-15778033D01*
X14605214Y-15768509D01*
X14576643Y-15768509D01*
X14557595Y-15758986D01*
X14548071Y-15739938D01*
X14548071Y-15730414D01*
X14557595Y-15711367D01*
X14576643Y-15701843D01*
X14605214Y-15701843D01*
X14624262Y-15711367D01*
X14700452Y-15911367D02*
X14709976Y-15901843D01*
X14729024Y-15873271D01*
X14738548Y-15854224D01*
X14748071Y-15825652D01*
X14757595Y-15778033D01*
X14757595Y-15739938D01*
X14748071Y-15692319D01*
X14738548Y-15663748D01*
X14729024Y-15644700D01*
X14709976Y-15616128D01*
X14700452Y-15606605D01*
D17*
X8239500Y-15973700D02*
X8309500Y-16043700D01*
X8309500Y-15973700D02*
X8239500Y-16043700D01*
X8309500Y-16008700D02*
G75*
G03*
X8309500Y-16008700I-35000J0D01*
G01*
D11*
X8605214Y-15899176D02*
X8624262Y-15899176D01*
X8643310Y-15908700D01*
X8652833Y-15918224D01*
X8662357Y-15937271D01*
X8671881Y-15975367D01*
X8671881Y-16022986D01*
X8662357Y-16061081D01*
X8652833Y-16080128D01*
X8643310Y-16089652D01*
X8624262Y-16099176D01*
X8605214Y-16099176D01*
X8586167Y-16089652D01*
X8576643Y-16080128D01*
X8567119Y-16061081D01*
X8557595Y-16022986D01*
X8557595Y-15975367D01*
X8567119Y-15937271D01*
X8576643Y-15918224D01*
X8586167Y-15908700D01*
X8605214Y-15899176D01*
X8757595Y-16080128D02*
X8767119Y-16089652D01*
X8757595Y-16099176D01*
X8748071Y-16089652D01*
X8757595Y-16080128D01*
X8757595Y-16099176D01*
X8833786Y-15899176D02*
X8967119Y-15899176D01*
X8881405Y-16099176D01*
X9081405Y-15899176D02*
X9100452Y-15899176D01*
X9119500Y-15908700D01*
X9129024Y-15918224D01*
X9138548Y-15937271D01*
X9148071Y-15975367D01*
X9148071Y-16022986D01*
X9138548Y-16061081D01*
X9129024Y-16080128D01*
X9119500Y-16089652D01*
X9100452Y-16099176D01*
X9081405Y-16099176D01*
X9062357Y-16089652D01*
X9052833Y-16080128D01*
X9043310Y-16061081D01*
X9033786Y-16022986D01*
X9033786Y-15975367D01*
X9043310Y-15937271D01*
X9052833Y-15918224D01*
X9062357Y-15908700D01*
X9081405Y-15899176D01*
X9271881Y-15899176D02*
X9290929Y-15899176D01*
X9309976Y-15908700D01*
X9319500Y-15918224D01*
X9329024Y-15937271D01*
X9338548Y-15975367D01*
X9338548Y-16022986D01*
X9329024Y-16061081D01*
X9319500Y-16080128D01*
X9309976Y-16089652D01*
X9290929Y-16099176D01*
X9271881Y-16099176D01*
X9252833Y-16089652D01*
X9243310Y-16080128D01*
X9233786Y-16061081D01*
X9224262Y-16022986D01*
X9224262Y-15975367D01*
X9233786Y-15937271D01*
X9243310Y-15918224D01*
X9252833Y-15908700D01*
X9271881Y-15899176D01*
X9424262Y-16099176D02*
X9424262Y-15965843D01*
X9424262Y-15984890D02*
X9433786Y-15975367D01*
X9452833Y-15965843D01*
X9481405Y-15965843D01*
X9500452Y-15975367D01*
X9509976Y-15994414D01*
X9509976Y-16099176D01*
X9509976Y-15994414D02*
X9519500Y-15975367D01*
X9538548Y-15965843D01*
X9567119Y-15965843D01*
X9586167Y-15975367D01*
X9595690Y-15994414D01*
X9595690Y-16099176D01*
X9690929Y-16099176D02*
X9690929Y-15965843D01*
X9690929Y-15984890D02*
X9700452Y-15975367D01*
X9719500Y-15965843D01*
X9748071Y-15965843D01*
X9767119Y-15975367D01*
X9776643Y-15994414D01*
X9776643Y-16099176D01*
X9776643Y-15994414D02*
X9786167Y-15975367D01*
X9805214Y-15965843D01*
X9833786Y-15965843D01*
X9852833Y-15975367D01*
X9862357Y-15994414D01*
X9862357Y-16099176D01*
X10252833Y-15889652D02*
X10081405Y-16146795D01*
X10509976Y-15899176D02*
X10529024Y-15899176D01*
X10548071Y-15908700D01*
X10557595Y-15918224D01*
X10567119Y-15937271D01*
X10576643Y-15975367D01*
X10576643Y-16022986D01*
X10567119Y-16061081D01*
X10557595Y-16080128D01*
X10548071Y-16089652D01*
X10529024Y-16099176D01*
X10509976Y-16099176D01*
X10490929Y-16089652D01*
X10481405Y-16080128D01*
X10471881Y-16061081D01*
X10462357Y-16022986D01*
X10462357Y-15975367D01*
X10471881Y-15937271D01*
X10481405Y-15918224D01*
X10490929Y-15908700D01*
X10509976Y-15899176D01*
X10662357Y-16080128D02*
X10671881Y-16089652D01*
X10662357Y-16099176D01*
X10652833Y-16089652D01*
X10662357Y-16080128D01*
X10662357Y-16099176D01*
X10795690Y-15899176D02*
X10814738Y-15899176D01*
X10833786Y-15908700D01*
X10843310Y-15918224D01*
X10852833Y-15937271D01*
X10862357Y-15975367D01*
X10862357Y-16022986D01*
X10852833Y-16061081D01*
X10843310Y-16080128D01*
X10833786Y-16089652D01*
X10814738Y-16099176D01*
X10795690Y-16099176D01*
X10776643Y-16089652D01*
X10767119Y-16080128D01*
X10757595Y-16061081D01*
X10748071Y-16022986D01*
X10748071Y-15975367D01*
X10757595Y-15937271D01*
X10767119Y-15918224D01*
X10776643Y-15908700D01*
X10795690Y-15899176D01*
X10938548Y-15918224D02*
X10948071Y-15908700D01*
X10967119Y-15899176D01*
X11014738Y-15899176D01*
X11033786Y-15908700D01*
X11043310Y-15918224D01*
X11052833Y-15937271D01*
X11052833Y-15956319D01*
X11043310Y-15984890D01*
X10929024Y-16099176D01*
X11052833Y-16099176D01*
X11119500Y-15899176D02*
X11252833Y-15899176D01*
X11167119Y-16099176D01*
X11414738Y-15899176D02*
X11376643Y-15899176D01*
X11357595Y-15908700D01*
X11348071Y-15918224D01*
X11329024Y-15946795D01*
X11319500Y-15984890D01*
X11319500Y-16061081D01*
X11329024Y-16080128D01*
X11338548Y-16089652D01*
X11357595Y-16099176D01*
X11395690Y-16099176D01*
X11414738Y-16089652D01*
X11424262Y-16080128D01*
X11433786Y-16061081D01*
X11433786Y-16013462D01*
X11424262Y-15994414D01*
X11414738Y-15984890D01*
X11395690Y-15975367D01*
X11357595Y-15975367D01*
X11338548Y-15984890D01*
X11329024Y-15994414D01*
X11319500Y-16013462D01*
X11509976Y-15899176D02*
X11509976Y-15937271D01*
X11586167Y-15899176D02*
X11586167Y-15937271D01*
X11881405Y-16175367D02*
X11871881Y-16165843D01*
X11852833Y-16137271D01*
X11843309Y-16118224D01*
X11833786Y-16089652D01*
X11824262Y-16042033D01*
X11824262Y-16003938D01*
X11833786Y-15956319D01*
X11843309Y-15927748D01*
X11852833Y-15908700D01*
X11871881Y-15880128D01*
X11881405Y-15870605D01*
X11967119Y-16099176D02*
X12005214Y-16099176D01*
X12024262Y-16089652D01*
X12033786Y-16080128D01*
X12052833Y-16051557D01*
X12062357Y-16013462D01*
X12062357Y-15937271D01*
X12052833Y-15918224D01*
X12043309Y-15908700D01*
X12024262Y-15899176D01*
X11986167Y-15899176D01*
X11967119Y-15908700D01*
X11957595Y-15918224D01*
X11948071Y-15937271D01*
X11948071Y-15984890D01*
X11957595Y-16003938D01*
X11967119Y-16013462D01*
X11986167Y-16022986D01*
X12024262Y-16022986D01*
X12043309Y-16013462D01*
X12052833Y-16003938D01*
X12062357Y-15984890D01*
X12300452Y-16099176D02*
X12300452Y-15899176D01*
X12386167Y-16099176D02*
X12386167Y-15994414D01*
X12376643Y-15975367D01*
X12357595Y-15965843D01*
X12329024Y-15965843D01*
X12309976Y-15975367D01*
X12300452Y-15984890D01*
X12509976Y-16099176D02*
X12490928Y-16089652D01*
X12481405Y-16080128D01*
X12471881Y-16061081D01*
X12471881Y-16003938D01*
X12481405Y-15984890D01*
X12490928Y-15975367D01*
X12509976Y-15965843D01*
X12538548Y-15965843D01*
X12557595Y-15975367D01*
X12567119Y-15984890D01*
X12576643Y-16003938D01*
X12576643Y-16061081D01*
X12567119Y-16080128D01*
X12557595Y-16089652D01*
X12538548Y-16099176D01*
X12509976Y-16099176D01*
X12690928Y-16099176D02*
X12671881Y-16089652D01*
X12662357Y-16070605D01*
X12662357Y-15899176D01*
X12843309Y-16089652D02*
X12824262Y-16099176D01*
X12786167Y-16099176D01*
X12767119Y-16089652D01*
X12757595Y-16070605D01*
X12757595Y-15994414D01*
X12767119Y-15975367D01*
X12786167Y-15965843D01*
X12824262Y-15965843D01*
X12843309Y-15975367D01*
X12852833Y-15994414D01*
X12852833Y-16013462D01*
X12757595Y-16032509D01*
X12929024Y-16089652D02*
X12948071Y-16099176D01*
X12986167Y-16099176D01*
X13005214Y-16089652D01*
X13014738Y-16070605D01*
X13014738Y-16061081D01*
X13005214Y-16042033D01*
X12986167Y-16032509D01*
X12957595Y-16032509D01*
X12938548Y-16022986D01*
X12929024Y-16003938D01*
X12929024Y-15994414D01*
X12938548Y-15975367D01*
X12957595Y-15965843D01*
X12986167Y-15965843D01*
X13005214Y-15975367D01*
X13081405Y-16175367D02*
X13090928Y-16165843D01*
X13109976Y-16137271D01*
X13119500Y-16118224D01*
X13129024Y-16089652D01*
X13138548Y-16042033D01*
X13138548Y-16003938D01*
X13129024Y-15956319D01*
X13119500Y-15927748D01*
X13109976Y-15908700D01*
X13090928Y-15880128D01*
X13081405Y-15870605D01*
D18*
X8233300Y-16234600D02*
X8309500Y-16310800D01*
X8309500Y-16234600D02*
X8233300Y-16310800D01*
X8271400Y-16234600D02*
X8271400Y-16310800D01*
X8233300Y-16272700D02*
X8309500Y-16272700D01*
D11*
X8605214Y-16163176D02*
X8624262Y-16163176D01*
X8643310Y-16172700D01*
X8652833Y-16182224D01*
X8662357Y-16201271D01*
X8671881Y-16239367D01*
X8671881Y-16286986D01*
X8662357Y-16325081D01*
X8652833Y-16344128D01*
X8643310Y-16353652D01*
X8624262Y-16363176D01*
X8605214Y-16363176D01*
X8586167Y-16353652D01*
X8576643Y-16344128D01*
X8567119Y-16325081D01*
X8557595Y-16286986D01*
X8557595Y-16239367D01*
X8567119Y-16201271D01*
X8576643Y-16182224D01*
X8586167Y-16172700D01*
X8605214Y-16163176D01*
X8757595Y-16344128D02*
X8767119Y-16353652D01*
X8757595Y-16363176D01*
X8748071Y-16353652D01*
X8757595Y-16344128D01*
X8757595Y-16363176D01*
X8833786Y-16163176D02*
X8967119Y-16163176D01*
X8881405Y-16363176D01*
X9129024Y-16163176D02*
X9090929Y-16163176D01*
X9071881Y-16172700D01*
X9062357Y-16182224D01*
X9043310Y-16210795D01*
X9033786Y-16248890D01*
X9033786Y-16325081D01*
X9043310Y-16344128D01*
X9052833Y-16353652D01*
X9071881Y-16363176D01*
X9109976Y-16363176D01*
X9129024Y-16353652D01*
X9138548Y-16344128D01*
X9148071Y-16325081D01*
X9148071Y-16277462D01*
X9138548Y-16258414D01*
X9129024Y-16248890D01*
X9109976Y-16239367D01*
X9071881Y-16239367D01*
X9052833Y-16248890D01*
X9043310Y-16258414D01*
X9033786Y-16277462D01*
X9224262Y-16182224D02*
X9233786Y-16172700D01*
X9252833Y-16163176D01*
X9300452Y-16163176D01*
X9319500Y-16172700D01*
X9329024Y-16182224D01*
X9338548Y-16201271D01*
X9338548Y-16220319D01*
X9329024Y-16248890D01*
X9214738Y-16363176D01*
X9338548Y-16363176D01*
X9424262Y-16363176D02*
X9424262Y-16229843D01*
X9424262Y-16248890D02*
X9433786Y-16239367D01*
X9452833Y-16229843D01*
X9481405Y-16229843D01*
X9500452Y-16239367D01*
X9509976Y-16258414D01*
X9509976Y-16363176D01*
X9509976Y-16258414D02*
X9519500Y-16239367D01*
X9538548Y-16229843D01*
X9567119Y-16229843D01*
X9586167Y-16239367D01*
X9595690Y-16258414D01*
X9595690Y-16363176D01*
X9690929Y-16363176D02*
X9690929Y-16229843D01*
X9690929Y-16248890D02*
X9700452Y-16239367D01*
X9719500Y-16229843D01*
X9748071Y-16229843D01*
X9767119Y-16239367D01*
X9776643Y-16258414D01*
X9776643Y-16363176D01*
X9776643Y-16258414D02*
X9786167Y-16239367D01*
X9805214Y-16229843D01*
X9833786Y-16229843D01*
X9852833Y-16239367D01*
X9862357Y-16258414D01*
X9862357Y-16363176D01*
X10252833Y-16153652D02*
X10081405Y-16410795D01*
X10509976Y-16163176D02*
X10529024Y-16163176D01*
X10548071Y-16172700D01*
X10557595Y-16182224D01*
X10567119Y-16201271D01*
X10576643Y-16239367D01*
X10576643Y-16286986D01*
X10567119Y-16325081D01*
X10557595Y-16344128D01*
X10548071Y-16353652D01*
X10529024Y-16363176D01*
X10509976Y-16363176D01*
X10490929Y-16353652D01*
X10481405Y-16344128D01*
X10471881Y-16325081D01*
X10462357Y-16286986D01*
X10462357Y-16239367D01*
X10471881Y-16201271D01*
X10481405Y-16182224D01*
X10490929Y-16172700D01*
X10509976Y-16163176D01*
X10662357Y-16344128D02*
X10671881Y-16353652D01*
X10662357Y-16363176D01*
X10652833Y-16353652D01*
X10662357Y-16344128D01*
X10662357Y-16363176D01*
X10795690Y-16163176D02*
X10814738Y-16163176D01*
X10833786Y-16172700D01*
X10843310Y-16182224D01*
X10852833Y-16201271D01*
X10862357Y-16239367D01*
X10862357Y-16286986D01*
X10852833Y-16325081D01*
X10843310Y-16344128D01*
X10833786Y-16353652D01*
X10814738Y-16363176D01*
X10795690Y-16363176D01*
X10776643Y-16353652D01*
X10767119Y-16344128D01*
X10757595Y-16325081D01*
X10748071Y-16286986D01*
X10748071Y-16239367D01*
X10757595Y-16201271D01*
X10767119Y-16182224D01*
X10776643Y-16172700D01*
X10795690Y-16163176D01*
X10929024Y-16163176D02*
X11052833Y-16163176D01*
X10986167Y-16239367D01*
X11014738Y-16239367D01*
X11033786Y-16248890D01*
X11043310Y-16258414D01*
X11052833Y-16277462D01*
X11052833Y-16325081D01*
X11043310Y-16344128D01*
X11033786Y-16353652D01*
X11014738Y-16363176D01*
X10957595Y-16363176D01*
X10938548Y-16353652D01*
X10929024Y-16344128D01*
X11176643Y-16163176D02*
X11195690Y-16163176D01*
X11214738Y-16172700D01*
X11224262Y-16182224D01*
X11233786Y-16201271D01*
X11243309Y-16239367D01*
X11243309Y-16286986D01*
X11233786Y-16325081D01*
X11224262Y-16344128D01*
X11214738Y-16353652D01*
X11195690Y-16363176D01*
X11176643Y-16363176D01*
X11157595Y-16353652D01*
X11148071Y-16344128D01*
X11138548Y-16325081D01*
X11129024Y-16286986D01*
X11129024Y-16239367D01*
X11138548Y-16201271D01*
X11148071Y-16182224D01*
X11157595Y-16172700D01*
X11176643Y-16163176D01*
X11367119Y-16163176D02*
X11386167Y-16163176D01*
X11405214Y-16172700D01*
X11414738Y-16182224D01*
X11424262Y-16201271D01*
X11433786Y-16239367D01*
X11433786Y-16286986D01*
X11424262Y-16325081D01*
X11414738Y-16344128D01*
X11405214Y-16353652D01*
X11386167Y-16363176D01*
X11367119Y-16363176D01*
X11348071Y-16353652D01*
X11338548Y-16344128D01*
X11329024Y-16325081D01*
X11319500Y-16286986D01*
X11319500Y-16239367D01*
X11329024Y-16201271D01*
X11338548Y-16182224D01*
X11348071Y-16172700D01*
X11367119Y-16163176D01*
X11509976Y-16163176D02*
X11509976Y-16201271D01*
X11586167Y-16163176D02*
X11586167Y-16201271D01*
X11881405Y-16439367D02*
X11871881Y-16429843D01*
X11852833Y-16401271D01*
X11843309Y-16382224D01*
X11833786Y-16353652D01*
X11824262Y-16306033D01*
X11824262Y-16267938D01*
X11833786Y-16220319D01*
X11843309Y-16191748D01*
X11852833Y-16172700D01*
X11871881Y-16144128D01*
X11881405Y-16134605D01*
X12043309Y-16229843D02*
X12043309Y-16363176D01*
X11995690Y-16153652D02*
X11948071Y-16296509D01*
X12071881Y-16296509D01*
X12300452Y-16363176D02*
X12300452Y-16163176D01*
X12386167Y-16363176D02*
X12386167Y-16258414D01*
X12376643Y-16239367D01*
X12357595Y-16229843D01*
X12329024Y-16229843D01*
X12309976Y-16239367D01*
X12300452Y-16248890D01*
X12509976Y-16363176D02*
X12490928Y-16353652D01*
X12481405Y-16344128D01*
X12471881Y-16325081D01*
X12471881Y-16267938D01*
X12481405Y-16248890D01*
X12490928Y-16239367D01*
X12509976Y-16229843D01*
X12538548Y-16229843D01*
X12557595Y-16239367D01*
X12567119Y-16248890D01*
X12576643Y-16267938D01*
X12576643Y-16325081D01*
X12567119Y-16344128D01*
X12557595Y-16353652D01*
X12538548Y-16363176D01*
X12509976Y-16363176D01*
X12690928Y-16363176D02*
X12671881Y-16353652D01*
X12662357Y-16334605D01*
X12662357Y-16163176D01*
X12843309Y-16353652D02*
X12824262Y-16363176D01*
X12786167Y-16363176D01*
X12767119Y-16353652D01*
X12757595Y-16334605D01*
X12757595Y-16258414D01*
X12767119Y-16239367D01*
X12786167Y-16229843D01*
X12824262Y-16229843D01*
X12843309Y-16239367D01*
X12852833Y-16258414D01*
X12852833Y-16277462D01*
X12757595Y-16296509D01*
X12929024Y-16353652D02*
X12948071Y-16363176D01*
X12986167Y-16363176D01*
X13005214Y-16353652D01*
X13014738Y-16334605D01*
X13014738Y-16325081D01*
X13005214Y-16306033D01*
X12986167Y-16296509D01*
X12957595Y-16296509D01*
X12938548Y-16286986D01*
X12929024Y-16267938D01*
X12929024Y-16258414D01*
X12938548Y-16239367D01*
X12957595Y-16229843D01*
X12986167Y-16229843D01*
X13005214Y-16239367D01*
X13081405Y-16439367D02*
X13090928Y-16429843D01*
X13109976Y-16401271D01*
X13119500Y-16382224D01*
X13129024Y-16353652D01*
X13138548Y-16306033D01*
X13138548Y-16267938D01*
X13129024Y-16220319D01*
X13119500Y-16191748D01*
X13109976Y-16172700D01*
X13090928Y-16144128D01*
X13081405Y-16134605D01*
D19*
X8220600Y-16492250D02*
X8309500Y-16581150D01*
X8309500Y-16492250D02*
X8220600Y-16581150D01*
X8296481Y-16568131D02*
X8296481Y-16505269D01*
X8233619Y-16505269D01*
X8233619Y-16568131D01*
X8296481Y-16568131D01*
D11*
X8605214Y-16427176D02*
X8624262Y-16427176D01*
X8643310Y-16436700D01*
X8652833Y-16446224D01*
X8662357Y-16465271D01*
X8671881Y-16503367D01*
X8671881Y-16550986D01*
X8662357Y-16589081D01*
X8652833Y-16608128D01*
X8643310Y-16617652D01*
X8624262Y-16627176D01*
X8605214Y-16627176D01*
X8586167Y-16617652D01*
X8576643Y-16608128D01*
X8567119Y-16589081D01*
X8557595Y-16550986D01*
X8557595Y-16503367D01*
X8567119Y-16465271D01*
X8576643Y-16446224D01*
X8586167Y-16436700D01*
X8605214Y-16427176D01*
X8757595Y-16608128D02*
X8767119Y-16617652D01*
X8757595Y-16627176D01*
X8748071Y-16617652D01*
X8757595Y-16608128D01*
X8757595Y-16627176D01*
X8881405Y-16512890D02*
X8862357Y-16503367D01*
X8852833Y-16493843D01*
X8843310Y-16474795D01*
X8843310Y-16465271D01*
X8852833Y-16446224D01*
X8862357Y-16436700D01*
X8881405Y-16427176D01*
X8919500Y-16427176D01*
X8938548Y-16436700D01*
X8948071Y-16446224D01*
X8957595Y-16465271D01*
X8957595Y-16474795D01*
X8948071Y-16493843D01*
X8938548Y-16503367D01*
X8919500Y-16512890D01*
X8881405Y-16512890D01*
X8862357Y-16522414D01*
X8852833Y-16531938D01*
X8843310Y-16550986D01*
X8843310Y-16589081D01*
X8852833Y-16608128D01*
X8862357Y-16617652D01*
X8881405Y-16627176D01*
X8919500Y-16627176D01*
X8938548Y-16617652D01*
X8948071Y-16608128D01*
X8957595Y-16589081D01*
X8957595Y-16550986D01*
X8948071Y-16531938D01*
X8938548Y-16522414D01*
X8919500Y-16512890D01*
X9071881Y-16512890D02*
X9052833Y-16503367D01*
X9043310Y-16493843D01*
X9033786Y-16474795D01*
X9033786Y-16465271D01*
X9043310Y-16446224D01*
X9052833Y-16436700D01*
X9071881Y-16427176D01*
X9109976Y-16427176D01*
X9129024Y-16436700D01*
X9138548Y-16446224D01*
X9148071Y-16465271D01*
X9148071Y-16474795D01*
X9138548Y-16493843D01*
X9129024Y-16503367D01*
X9109976Y-16512890D01*
X9071881Y-16512890D01*
X9052833Y-16522414D01*
X9043310Y-16531938D01*
X9033786Y-16550986D01*
X9033786Y-16589081D01*
X9043310Y-16608128D01*
X9052833Y-16617652D01*
X9071881Y-16627176D01*
X9109976Y-16627176D01*
X9129024Y-16617652D01*
X9138548Y-16608128D01*
X9148071Y-16589081D01*
X9148071Y-16550986D01*
X9138548Y-16531938D01*
X9129024Y-16522414D01*
X9109976Y-16512890D01*
X9243310Y-16627176D02*
X9281405Y-16627176D01*
X9300452Y-16617652D01*
X9309976Y-16608128D01*
X9329024Y-16579557D01*
X9338548Y-16541462D01*
X9338548Y-16465271D01*
X9329024Y-16446224D01*
X9319500Y-16436700D01*
X9300452Y-16427176D01*
X9262357Y-16427176D01*
X9243310Y-16436700D01*
X9233786Y-16446224D01*
X9224262Y-16465271D01*
X9224262Y-16512890D01*
X9233786Y-16531938D01*
X9243310Y-16541462D01*
X9262357Y-16550986D01*
X9300452Y-16550986D01*
X9319500Y-16541462D01*
X9329024Y-16531938D01*
X9338548Y-16512890D01*
X9424262Y-16627176D02*
X9424262Y-16493843D01*
X9424262Y-16512890D02*
X9433786Y-16503367D01*
X9452833Y-16493843D01*
X9481405Y-16493843D01*
X9500452Y-16503367D01*
X9509976Y-16522414D01*
X9509976Y-16627176D01*
X9509976Y-16522414D02*
X9519500Y-16503367D01*
X9538548Y-16493843D01*
X9567119Y-16493843D01*
X9586167Y-16503367D01*
X9595690Y-16522414D01*
X9595690Y-16627176D01*
X9690929Y-16627176D02*
X9690929Y-16493843D01*
X9690929Y-16512890D02*
X9700452Y-16503367D01*
X9719500Y-16493843D01*
X9748071Y-16493843D01*
X9767119Y-16503367D01*
X9776643Y-16522414D01*
X9776643Y-16627176D01*
X9776643Y-16522414D02*
X9786167Y-16503367D01*
X9805214Y-16493843D01*
X9833786Y-16493843D01*
X9852833Y-16503367D01*
X9862357Y-16522414D01*
X9862357Y-16627176D01*
X10252833Y-16417652D02*
X10081405Y-16674795D01*
X10509976Y-16427176D02*
X10529024Y-16427176D01*
X10548071Y-16436700D01*
X10557595Y-16446224D01*
X10567119Y-16465271D01*
X10576643Y-16503367D01*
X10576643Y-16550986D01*
X10567119Y-16589081D01*
X10557595Y-16608128D01*
X10548071Y-16617652D01*
X10529024Y-16627176D01*
X10509976Y-16627176D01*
X10490929Y-16617652D01*
X10481405Y-16608128D01*
X10471881Y-16589081D01*
X10462357Y-16550986D01*
X10462357Y-16503367D01*
X10471881Y-16465271D01*
X10481405Y-16446224D01*
X10490929Y-16436700D01*
X10509976Y-16427176D01*
X10662357Y-16608128D02*
X10671881Y-16617652D01*
X10662357Y-16627176D01*
X10652833Y-16617652D01*
X10662357Y-16608128D01*
X10662357Y-16627176D01*
X10795690Y-16427176D02*
X10814738Y-16427176D01*
X10833786Y-16436700D01*
X10843310Y-16446224D01*
X10852833Y-16465271D01*
X10862357Y-16503367D01*
X10862357Y-16550986D01*
X10852833Y-16589081D01*
X10843310Y-16608128D01*
X10833786Y-16617652D01*
X10814738Y-16627176D01*
X10795690Y-16627176D01*
X10776643Y-16617652D01*
X10767119Y-16608128D01*
X10757595Y-16589081D01*
X10748071Y-16550986D01*
X10748071Y-16503367D01*
X10757595Y-16465271D01*
X10767119Y-16446224D01*
X10776643Y-16436700D01*
X10795690Y-16427176D01*
X10929024Y-16427176D02*
X11052833Y-16427176D01*
X10986167Y-16503367D01*
X11014738Y-16503367D01*
X11033786Y-16512890D01*
X11043310Y-16522414D01*
X11052833Y-16541462D01*
X11052833Y-16589081D01*
X11043310Y-16608128D01*
X11033786Y-16617652D01*
X11014738Y-16627176D01*
X10957595Y-16627176D01*
X10938548Y-16617652D01*
X10929024Y-16608128D01*
X11233786Y-16427176D02*
X11138548Y-16427176D01*
X11129024Y-16522414D01*
X11138548Y-16512890D01*
X11157595Y-16503367D01*
X11205214Y-16503367D01*
X11224262Y-16512890D01*
X11233786Y-16522414D01*
X11243309Y-16541462D01*
X11243309Y-16589081D01*
X11233786Y-16608128D01*
X11224262Y-16617652D01*
X11205214Y-16627176D01*
X11157595Y-16627176D01*
X11138548Y-16617652D01*
X11129024Y-16608128D01*
X11367119Y-16427176D02*
X11386167Y-16427176D01*
X11405214Y-16436700D01*
X11414738Y-16446224D01*
X11424262Y-16465271D01*
X11433786Y-16503367D01*
X11433786Y-16550986D01*
X11424262Y-16589081D01*
X11414738Y-16608128D01*
X11405214Y-16617652D01*
X11386167Y-16627176D01*
X11367119Y-16627176D01*
X11348071Y-16617652D01*
X11338548Y-16608128D01*
X11329024Y-16589081D01*
X11319500Y-16550986D01*
X11319500Y-16503367D01*
X11329024Y-16465271D01*
X11338548Y-16446224D01*
X11348071Y-16436700D01*
X11367119Y-16427176D01*
X11509976Y-16427176D02*
X11509976Y-16465271D01*
X11586167Y-16427176D02*
X11586167Y-16465271D01*
X11881405Y-16703367D02*
X11871881Y-16693843D01*
X11852833Y-16665271D01*
X11843309Y-16646224D01*
X11833786Y-16617652D01*
X11824262Y-16570033D01*
X11824262Y-16531938D01*
X11833786Y-16484319D01*
X11843309Y-16455748D01*
X11852833Y-16436700D01*
X11871881Y-16408128D01*
X11881405Y-16398605D01*
X12062357Y-16627176D02*
X11948071Y-16627176D01*
X12005214Y-16627176D02*
X12005214Y-16427176D01*
X11986167Y-16455748D01*
X11967119Y-16474795D01*
X11948071Y-16484319D01*
X12138548Y-16446224D02*
X12148071Y-16436700D01*
X12167119Y-16427176D01*
X12214738Y-16427176D01*
X12233786Y-16436700D01*
X12243309Y-16446224D01*
X12252833Y-16465271D01*
X12252833Y-16484319D01*
X12243309Y-16512890D01*
X12129024Y-16627176D01*
X12252833Y-16627176D01*
X12490928Y-16627176D02*
X12490928Y-16427176D01*
X12576643Y-16627176D02*
X12576643Y-16522414D01*
X12567119Y-16503367D01*
X12548071Y-16493843D01*
X12519500Y-16493843D01*
X12500452Y-16503367D01*
X12490928Y-16512890D01*
X12700452Y-16627176D02*
X12681405Y-16617652D01*
X12671881Y-16608128D01*
X12662357Y-16589081D01*
X12662357Y-16531938D01*
X12671881Y-16512890D01*
X12681405Y-16503367D01*
X12700452Y-16493843D01*
X12729024Y-16493843D01*
X12748071Y-16503367D01*
X12757595Y-16512890D01*
X12767119Y-16531938D01*
X12767119Y-16589081D01*
X12757595Y-16608128D01*
X12748071Y-16617652D01*
X12729024Y-16627176D01*
X12700452Y-16627176D01*
X12881405Y-16627176D02*
X12862357Y-16617652D01*
X12852833Y-16598605D01*
X12852833Y-16427176D01*
X13033786Y-16617652D02*
X13014738Y-16627176D01*
X12976643Y-16627176D01*
X12957595Y-16617652D01*
X12948071Y-16598605D01*
X12948071Y-16522414D01*
X12957595Y-16503367D01*
X12976643Y-16493843D01*
X13014738Y-16493843D01*
X13033786Y-16503367D01*
X13043309Y-16522414D01*
X13043309Y-16541462D01*
X12948071Y-16560509D01*
X13119500Y-16617652D02*
X13138548Y-16627176D01*
X13176643Y-16627176D01*
X13195690Y-16617652D01*
X13205214Y-16598605D01*
X13205214Y-16589081D01*
X13195690Y-16570033D01*
X13176643Y-16560509D01*
X13148071Y-16560509D01*
X13129024Y-16550986D01*
X13119500Y-16531938D01*
X13119500Y-16522414D01*
X13129024Y-16503367D01*
X13148071Y-16493843D01*
X13176643Y-16493843D01*
X13195690Y-16503367D01*
X13271881Y-16703367D02*
X13281405Y-16693843D01*
X13300452Y-16665271D01*
X13309976Y-16646224D01*
X13319500Y-16617652D01*
X13329024Y-16570033D01*
X13329024Y-16531938D01*
X13319500Y-16484319D01*
X13309976Y-16455748D01*
X13300452Y-16436700D01*
X13281405Y-16408128D01*
X13271881Y-16398605D01*
D20*
X8209500Y-16750700D02*
X8309500Y-16850700D01*
X8309500Y-16750700D02*
X8209500Y-16850700D01*
X8259500Y-16850700D02*
X8309500Y-16800700D01*
X8259500Y-16750700D01*
X8209500Y-16800700D01*
X8259500Y-16850700D01*
D11*
X8671881Y-16891176D02*
X8557595Y-16891176D01*
X8614738Y-16891176D02*
X8614738Y-16691176D01*
X8595690Y-16719748D01*
X8576643Y-16738795D01*
X8557595Y-16748319D01*
X8757595Y-16872129D02*
X8767119Y-16881652D01*
X8757595Y-16891176D01*
X8748071Y-16881652D01*
X8757595Y-16872129D01*
X8757595Y-16891176D01*
X8890929Y-16691176D02*
X8909976Y-16691176D01*
X8929024Y-16700700D01*
X8938548Y-16710224D01*
X8948071Y-16729271D01*
X8957595Y-16767367D01*
X8957595Y-16814986D01*
X8948071Y-16853081D01*
X8938548Y-16872129D01*
X8929024Y-16881652D01*
X8909976Y-16891176D01*
X8890929Y-16891176D01*
X8871881Y-16881652D01*
X8862357Y-16872129D01*
X8852833Y-16853081D01*
X8843310Y-16814986D01*
X8843310Y-16767367D01*
X8852833Y-16729271D01*
X8862357Y-16710224D01*
X8871881Y-16700700D01*
X8890929Y-16691176D01*
X9081405Y-16691176D02*
X9100452Y-16691176D01*
X9119500Y-16700700D01*
X9129024Y-16710224D01*
X9138548Y-16729271D01*
X9148071Y-16767367D01*
X9148071Y-16814986D01*
X9138548Y-16853081D01*
X9129024Y-16872129D01*
X9119500Y-16881652D01*
X9100452Y-16891176D01*
X9081405Y-16891176D01*
X9062357Y-16881652D01*
X9052833Y-16872129D01*
X9043310Y-16853081D01*
X9033786Y-16814986D01*
X9033786Y-16767367D01*
X9043310Y-16729271D01*
X9052833Y-16710224D01*
X9062357Y-16700700D01*
X9081405Y-16691176D01*
X9271881Y-16691176D02*
X9290929Y-16691176D01*
X9309976Y-16700700D01*
X9319500Y-16710224D01*
X9329024Y-16729271D01*
X9338548Y-16767367D01*
X9338548Y-16814986D01*
X9329024Y-16853081D01*
X9319500Y-16872129D01*
X9309976Y-16881652D01*
X9290929Y-16891176D01*
X9271881Y-16891176D01*
X9252833Y-16881652D01*
X9243310Y-16872129D01*
X9233786Y-16853081D01*
X9224262Y-16814986D01*
X9224262Y-16767367D01*
X9233786Y-16729271D01*
X9243310Y-16710224D01*
X9252833Y-16700700D01*
X9271881Y-16691176D01*
X9424262Y-16891176D02*
X9424262Y-16757843D01*
X9424262Y-16776890D02*
X9433786Y-16767367D01*
X9452833Y-16757843D01*
X9481405Y-16757843D01*
X9500452Y-16767367D01*
X9509976Y-16786414D01*
X9509976Y-16891176D01*
X9509976Y-16786414D02*
X9519500Y-16767367D01*
X9538548Y-16757843D01*
X9567119Y-16757843D01*
X9586167Y-16767367D01*
X9595690Y-16786414D01*
X9595690Y-16891176D01*
X9690929Y-16891176D02*
X9690929Y-16757843D01*
X9690929Y-16776890D02*
X9700452Y-16767367D01*
X9719500Y-16757843D01*
X9748071Y-16757843D01*
X9767119Y-16767367D01*
X9776643Y-16786414D01*
X9776643Y-16891176D01*
X9776643Y-16786414D02*
X9786167Y-16767367D01*
X9805214Y-16757843D01*
X9833786Y-16757843D01*
X9852833Y-16767367D01*
X9862357Y-16786414D01*
X9862357Y-16891176D01*
X10252833Y-16681652D02*
X10081405Y-16938795D01*
X10509976Y-16691176D02*
X10529024Y-16691176D01*
X10548071Y-16700700D01*
X10557595Y-16710224D01*
X10567119Y-16729271D01*
X10576643Y-16767367D01*
X10576643Y-16814986D01*
X10567119Y-16853081D01*
X10557595Y-16872129D01*
X10548071Y-16881652D01*
X10529024Y-16891176D01*
X10509976Y-16891176D01*
X10490929Y-16881652D01*
X10481405Y-16872129D01*
X10471881Y-16853081D01*
X10462357Y-16814986D01*
X10462357Y-16767367D01*
X10471881Y-16729271D01*
X10481405Y-16710224D01*
X10490929Y-16700700D01*
X10509976Y-16691176D01*
X10662357Y-16872129D02*
X10671881Y-16881652D01*
X10662357Y-16891176D01*
X10652833Y-16881652D01*
X10662357Y-16872129D01*
X10662357Y-16891176D01*
X10795690Y-16691176D02*
X10814738Y-16691176D01*
X10833786Y-16700700D01*
X10843310Y-16710224D01*
X10852833Y-16729271D01*
X10862357Y-16767367D01*
X10862357Y-16814986D01*
X10852833Y-16853081D01*
X10843310Y-16872129D01*
X10833786Y-16881652D01*
X10814738Y-16891176D01*
X10795690Y-16891176D01*
X10776643Y-16881652D01*
X10767119Y-16872129D01*
X10757595Y-16853081D01*
X10748071Y-16814986D01*
X10748071Y-16767367D01*
X10757595Y-16729271D01*
X10767119Y-16710224D01*
X10776643Y-16700700D01*
X10795690Y-16691176D01*
X10929024Y-16691176D02*
X11052833Y-16691176D01*
X10986167Y-16767367D01*
X11014738Y-16767367D01*
X11033786Y-16776890D01*
X11043310Y-16786414D01*
X11052833Y-16805462D01*
X11052833Y-16853081D01*
X11043310Y-16872129D01*
X11033786Y-16881652D01*
X11014738Y-16891176D01*
X10957595Y-16891176D01*
X10938548Y-16881652D01*
X10929024Y-16872129D01*
X11148071Y-16891176D02*
X11186167Y-16891176D01*
X11205214Y-16881652D01*
X11214738Y-16872129D01*
X11233786Y-16843557D01*
X11243309Y-16805462D01*
X11243309Y-16729271D01*
X11233786Y-16710224D01*
X11224262Y-16700700D01*
X11205214Y-16691176D01*
X11167119Y-16691176D01*
X11148071Y-16700700D01*
X11138548Y-16710224D01*
X11129024Y-16729271D01*
X11129024Y-16776890D01*
X11138548Y-16795938D01*
X11148071Y-16805462D01*
X11167119Y-16814986D01*
X11205214Y-16814986D01*
X11224262Y-16805462D01*
X11233786Y-16795938D01*
X11243309Y-16776890D01*
X11414738Y-16757843D02*
X11414738Y-16891176D01*
X11367119Y-16681652D02*
X11319500Y-16824510D01*
X11443309Y-16824510D01*
X11509976Y-16691176D02*
X11509976Y-16729271D01*
X11586167Y-16691176D02*
X11586167Y-16729271D01*
X11881405Y-16967367D02*
X11871881Y-16957843D01*
X11852833Y-16929271D01*
X11843309Y-16910224D01*
X11833786Y-16881652D01*
X11824262Y-16834033D01*
X11824262Y-16795938D01*
X11833786Y-16748319D01*
X11843309Y-16719748D01*
X11852833Y-16700700D01*
X11871881Y-16672128D01*
X11881405Y-16662605D01*
X11948071Y-16710224D02*
X11957595Y-16700700D01*
X11976643Y-16691176D01*
X12024262Y-16691176D01*
X12043309Y-16700700D01*
X12052833Y-16710224D01*
X12062357Y-16729271D01*
X12062357Y-16748319D01*
X12052833Y-16776890D01*
X11938548Y-16891176D01*
X12062357Y-16891176D01*
X12129024Y-16691176D02*
X12252833Y-16691176D01*
X12186167Y-16767367D01*
X12214738Y-16767367D01*
X12233786Y-16776890D01*
X12243309Y-16786414D01*
X12252833Y-16805462D01*
X12252833Y-16853081D01*
X12243309Y-16872129D01*
X12233786Y-16881652D01*
X12214738Y-16891176D01*
X12157595Y-16891176D01*
X12138548Y-16881652D01*
X12129024Y-16872129D01*
X12319500Y-16691176D02*
X12452833Y-16691176D01*
X12367119Y-16891176D01*
X12681405Y-16891176D02*
X12681405Y-16691176D01*
X12767119Y-16891176D02*
X12767119Y-16786414D01*
X12757595Y-16767367D01*
X12738548Y-16757843D01*
X12709976Y-16757843D01*
X12690928Y-16767367D01*
X12681405Y-16776890D01*
X12890928Y-16891176D02*
X12871881Y-16881652D01*
X12862357Y-16872129D01*
X12852833Y-16853081D01*
X12852833Y-16795938D01*
X12862357Y-16776890D01*
X12871881Y-16767367D01*
X12890928Y-16757843D01*
X12919500Y-16757843D01*
X12938548Y-16767367D01*
X12948071Y-16776890D01*
X12957595Y-16795938D01*
X12957595Y-16853081D01*
X12948071Y-16872129D01*
X12938548Y-16881652D01*
X12919500Y-16891176D01*
X12890928Y-16891176D01*
X13071881Y-16891176D02*
X13052833Y-16881652D01*
X13043309Y-16862605D01*
X13043309Y-16691176D01*
X13224262Y-16881652D02*
X13205214Y-16891176D01*
X13167119Y-16891176D01*
X13148071Y-16881652D01*
X13138548Y-16862605D01*
X13138548Y-16786414D01*
X13148071Y-16767367D01*
X13167119Y-16757843D01*
X13205214Y-16757843D01*
X13224262Y-16767367D01*
X13233786Y-16786414D01*
X13233786Y-16805462D01*
X13138548Y-16824510D01*
X13309976Y-16881652D02*
X13329024Y-16891176D01*
X13367119Y-16891176D01*
X13386167Y-16881652D01*
X13395690Y-16862605D01*
X13395690Y-16853081D01*
X13386167Y-16834033D01*
X13367119Y-16824510D01*
X13338548Y-16824510D01*
X13319500Y-16814986D01*
X13309976Y-16795938D01*
X13309976Y-16786414D01*
X13319500Y-16767367D01*
X13338548Y-16757843D01*
X13367119Y-16757843D01*
X13386167Y-16767367D01*
X13462357Y-16967367D02*
X13471881Y-16957843D01*
X13490928Y-16929271D01*
X13500452Y-16910224D01*
X13509976Y-16881652D01*
X13519500Y-16834033D01*
X13519500Y-16795938D01*
X13509976Y-16748319D01*
X13500452Y-16719748D01*
X13490928Y-16700700D01*
X13471881Y-16672128D01*
X13462357Y-16662605D01*
X8209500Y-16964700D02*
X8209500Y-17164700D01*
X8109500Y-17064700D02*
X8309500Y-17064700D01*
X8309500Y-17064700D02*
G75*
G03*
X8309500Y-17064700I-100000J0D01*
G01*
X8557595Y-16974224D02*
X8567119Y-16964700D01*
X8586167Y-16955176D01*
X8633786Y-16955176D01*
X8652833Y-16964700D01*
X8662357Y-16974224D01*
X8671881Y-16993271D01*
X8671881Y-17012319D01*
X8662357Y-17040890D01*
X8548071Y-17155176D01*
X8671881Y-17155176D01*
X8757595Y-17136129D02*
X8767119Y-17145652D01*
X8757595Y-17155176D01*
X8748071Y-17145652D01*
X8757595Y-17136129D01*
X8757595Y-17155176D01*
X8833786Y-16955176D02*
X8957595Y-16955176D01*
X8890929Y-17031367D01*
X8919500Y-17031367D01*
X8938548Y-17040890D01*
X8948071Y-17050414D01*
X8957595Y-17069462D01*
X8957595Y-17117081D01*
X8948071Y-17136129D01*
X8938548Y-17145652D01*
X8919500Y-17155176D01*
X8862357Y-17155176D01*
X8843310Y-17145652D01*
X8833786Y-17136129D01*
X9148071Y-17155176D02*
X9033786Y-17155176D01*
X9090929Y-17155176D02*
X9090929Y-16955176D01*
X9071881Y-16983748D01*
X9052833Y-17002795D01*
X9033786Y-17012319D01*
X9338548Y-17155176D02*
X9224262Y-17155176D01*
X9281405Y-17155176D02*
X9281405Y-16955176D01*
X9262357Y-16983748D01*
X9243310Y-17002795D01*
X9224262Y-17012319D01*
X9424262Y-17155176D02*
X9424262Y-17021843D01*
X9424262Y-17040890D02*
X9433786Y-17031367D01*
X9452833Y-17021843D01*
X9481405Y-17021843D01*
X9500452Y-17031367D01*
X9509976Y-17050414D01*
X9509976Y-17155176D01*
X9509976Y-17050414D02*
X9519500Y-17031367D01*
X9538548Y-17021843D01*
X9567119Y-17021843D01*
X9586167Y-17031367D01*
X9595690Y-17050414D01*
X9595690Y-17155176D01*
X9690929Y-17155176D02*
X9690929Y-17021843D01*
X9690929Y-17040890D02*
X9700452Y-17031367D01*
X9719500Y-17021843D01*
X9748071Y-17021843D01*
X9767119Y-17031367D01*
X9776643Y-17050414D01*
X9776643Y-17155176D01*
X9776643Y-17050414D02*
X9786167Y-17031367D01*
X9805214Y-17021843D01*
X9833786Y-17021843D01*
X9852833Y-17031367D01*
X9862357Y-17050414D01*
X9862357Y-17155176D01*
X10252833Y-16945652D02*
X10081405Y-17202795D01*
X10509976Y-16955176D02*
X10529024Y-16955176D01*
X10548071Y-16964700D01*
X10557595Y-16974224D01*
X10567119Y-16993271D01*
X10576643Y-17031367D01*
X10576643Y-17078986D01*
X10567119Y-17117081D01*
X10557595Y-17136129D01*
X10548071Y-17145652D01*
X10529024Y-17155176D01*
X10509976Y-17155176D01*
X10490929Y-17145652D01*
X10481405Y-17136129D01*
X10471881Y-17117081D01*
X10462357Y-17078986D01*
X10462357Y-17031367D01*
X10471881Y-16993271D01*
X10481405Y-16974224D01*
X10490929Y-16964700D01*
X10509976Y-16955176D01*
X10662357Y-17136129D02*
X10671881Y-17145652D01*
X10662357Y-17155176D01*
X10652833Y-17145652D01*
X10662357Y-17136129D01*
X10662357Y-17155176D01*
X10795690Y-16955176D02*
X10814738Y-16955176D01*
X10833786Y-16964700D01*
X10843310Y-16974224D01*
X10852833Y-16993271D01*
X10862357Y-17031367D01*
X10862357Y-17078986D01*
X10852833Y-17117081D01*
X10843310Y-17136129D01*
X10833786Y-17145652D01*
X10814738Y-17155176D01*
X10795690Y-17155176D01*
X10776643Y-17145652D01*
X10767119Y-17136129D01*
X10757595Y-17117081D01*
X10748071Y-17078986D01*
X10748071Y-17031367D01*
X10757595Y-16993271D01*
X10767119Y-16974224D01*
X10776643Y-16964700D01*
X10795690Y-16955176D01*
X10957595Y-17155176D02*
X10995690Y-17155176D01*
X11014738Y-17145652D01*
X11024262Y-17136129D01*
X11043310Y-17107557D01*
X11052833Y-17069462D01*
X11052833Y-16993271D01*
X11043310Y-16974224D01*
X11033786Y-16964700D01*
X11014738Y-16955176D01*
X10976643Y-16955176D01*
X10957595Y-16964700D01*
X10948071Y-16974224D01*
X10938548Y-16993271D01*
X10938548Y-17040890D01*
X10948071Y-17059938D01*
X10957595Y-17069462D01*
X10976643Y-17078986D01*
X11014738Y-17078986D01*
X11033786Y-17069462D01*
X11043310Y-17059938D01*
X11052833Y-17040890D01*
X11243309Y-17155176D02*
X11129024Y-17155176D01*
X11186167Y-17155176D02*
X11186167Y-16955176D01*
X11167119Y-16983748D01*
X11148071Y-17002795D01*
X11129024Y-17012319D01*
X11367119Y-16955176D02*
X11386167Y-16955176D01*
X11405214Y-16964700D01*
X11414738Y-16974224D01*
X11424262Y-16993271D01*
X11433786Y-17031367D01*
X11433786Y-17078986D01*
X11424262Y-17117081D01*
X11414738Y-17136129D01*
X11405214Y-17145652D01*
X11386167Y-17155176D01*
X11367119Y-17155176D01*
X11348071Y-17145652D01*
X11338548Y-17136129D01*
X11329024Y-17117081D01*
X11319500Y-17078986D01*
X11319500Y-17031367D01*
X11329024Y-16993271D01*
X11338548Y-16974224D01*
X11348071Y-16964700D01*
X11367119Y-16955176D01*
X11509976Y-16955176D02*
X11509976Y-16993271D01*
X11586167Y-16955176D02*
X11586167Y-16993271D01*
X11881405Y-17231367D02*
X11871881Y-17221843D01*
X11852833Y-17193271D01*
X11843309Y-17174224D01*
X11833786Y-17145652D01*
X11824262Y-17098033D01*
X11824262Y-17059938D01*
X11833786Y-17012319D01*
X11843309Y-16983748D01*
X11852833Y-16964700D01*
X11871881Y-16936129D01*
X11881405Y-16926605D01*
X12043309Y-16955176D02*
X12005214Y-16955176D01*
X11986167Y-16964700D01*
X11976643Y-16974224D01*
X11957595Y-17002795D01*
X11948071Y-17040890D01*
X11948071Y-17117081D01*
X11957595Y-17136129D01*
X11967119Y-17145652D01*
X11986167Y-17155176D01*
X12024262Y-17155176D01*
X12043309Y-17145652D01*
X12052833Y-17136129D01*
X12062357Y-17117081D01*
X12062357Y-17069462D01*
X12052833Y-17050414D01*
X12043309Y-17040890D01*
X12024262Y-17031367D01*
X11986167Y-17031367D01*
X11967119Y-17040890D01*
X11957595Y-17050414D01*
X11948071Y-17069462D01*
X12300452Y-17155176D02*
X12300452Y-16955176D01*
X12386167Y-17155176D02*
X12386167Y-17050414D01*
X12376643Y-17031367D01*
X12357595Y-17021843D01*
X12329024Y-17021843D01*
X12309976Y-17031367D01*
X12300452Y-17040890D01*
X12509976Y-17155176D02*
X12490928Y-17145652D01*
X12481405Y-17136129D01*
X12471881Y-17117081D01*
X12471881Y-17059938D01*
X12481405Y-17040890D01*
X12490928Y-17031367D01*
X12509976Y-17021843D01*
X12538548Y-17021843D01*
X12557595Y-17031367D01*
X12567119Y-17040890D01*
X12576643Y-17059938D01*
X12576643Y-17117081D01*
X12567119Y-17136129D01*
X12557595Y-17145652D01*
X12538548Y-17155176D01*
X12509976Y-17155176D01*
X12690928Y-17155176D02*
X12671881Y-17145652D01*
X12662357Y-17126605D01*
X12662357Y-16955176D01*
X12843309Y-17145652D02*
X12824262Y-17155176D01*
X12786167Y-17155176D01*
X12767119Y-17145652D01*
X12757595Y-17126605D01*
X12757595Y-17050414D01*
X12767119Y-17031367D01*
X12786167Y-17021843D01*
X12824262Y-17021843D01*
X12843309Y-17031367D01*
X12852833Y-17050414D01*
X12852833Y-17069462D01*
X12757595Y-17088510D01*
X12929024Y-17145652D02*
X12948071Y-17155176D01*
X12986167Y-17155176D01*
X13005214Y-17145652D01*
X13014738Y-17126605D01*
X13014738Y-17117081D01*
X13005214Y-17098033D01*
X12986167Y-17088510D01*
X12957595Y-17088510D01*
X12938548Y-17078986D01*
X12929024Y-17059938D01*
X12929024Y-17050414D01*
X12938548Y-17031367D01*
X12957595Y-17021843D01*
X12986167Y-17021843D01*
X13005214Y-17031367D01*
X13081405Y-17231367D02*
X13090928Y-17221843D01*
X13109976Y-17193271D01*
X13119500Y-17174224D01*
X13129024Y-17145652D01*
X13138548Y-17098033D01*
X13138548Y-17059938D01*
X13129024Y-17012319D01*
X13119500Y-16983748D01*
X13109976Y-16964700D01*
X13090928Y-16936129D01*
X13081405Y-16926605D01*
X8280211Y-17455411D02*
X8280211Y-17313989D01*
X8138789Y-17313989D01*
X8138789Y-17455411D01*
X8280211Y-17455411D01*
X8309500Y-17384700D02*
G75*
G03*
X8309500Y-17384700I-100000J0D01*
G01*
X8548071Y-17275176D02*
X8671881Y-17275176D01*
X8605214Y-17351367D01*
X8633786Y-17351367D01*
X8652833Y-17360890D01*
X8662357Y-17370414D01*
X8671881Y-17389462D01*
X8671881Y-17437081D01*
X8662357Y-17456129D01*
X8652833Y-17465652D01*
X8633786Y-17475176D01*
X8576643Y-17475176D01*
X8557595Y-17465652D01*
X8548071Y-17456129D01*
X8757595Y-17456129D02*
X8767119Y-17465652D01*
X8757595Y-17475176D01*
X8748071Y-17465652D01*
X8757595Y-17456129D01*
X8757595Y-17475176D01*
X8843310Y-17294224D02*
X8852833Y-17284700D01*
X8871881Y-17275176D01*
X8919500Y-17275176D01*
X8938548Y-17284700D01*
X8948071Y-17294224D01*
X8957595Y-17313271D01*
X8957595Y-17332319D01*
X8948071Y-17360890D01*
X8833786Y-17475176D01*
X8957595Y-17475176D01*
X9081405Y-17275176D02*
X9100452Y-17275176D01*
X9119500Y-17284700D01*
X9129024Y-17294224D01*
X9138548Y-17313271D01*
X9148071Y-17351367D01*
X9148071Y-17398986D01*
X9138548Y-17437081D01*
X9129024Y-17456129D01*
X9119500Y-17465652D01*
X9100452Y-17475176D01*
X9081405Y-17475176D01*
X9062357Y-17465652D01*
X9052833Y-17456129D01*
X9043310Y-17437081D01*
X9033786Y-17398986D01*
X9033786Y-17351367D01*
X9043310Y-17313271D01*
X9052833Y-17294224D01*
X9062357Y-17284700D01*
X9081405Y-17275176D01*
X9271881Y-17275176D02*
X9290929Y-17275176D01*
X9309976Y-17284700D01*
X9319500Y-17294224D01*
X9329024Y-17313271D01*
X9338548Y-17351367D01*
X9338548Y-17398986D01*
X9329024Y-17437081D01*
X9319500Y-17456129D01*
X9309976Y-17465652D01*
X9290929Y-17475176D01*
X9271881Y-17475176D01*
X9252833Y-17465652D01*
X9243310Y-17456129D01*
X9233786Y-17437081D01*
X9224262Y-17398986D01*
X9224262Y-17351367D01*
X9233786Y-17313271D01*
X9243310Y-17294224D01*
X9252833Y-17284700D01*
X9271881Y-17275176D01*
X9424262Y-17475176D02*
X9424262Y-17341843D01*
X9424262Y-17360890D02*
X9433786Y-17351367D01*
X9452833Y-17341843D01*
X9481405Y-17341843D01*
X9500452Y-17351367D01*
X9509976Y-17370414D01*
X9509976Y-17475176D01*
X9509976Y-17370414D02*
X9519500Y-17351367D01*
X9538548Y-17341843D01*
X9567119Y-17341843D01*
X9586167Y-17351367D01*
X9595690Y-17370414D01*
X9595690Y-17475176D01*
X9690929Y-17475176D02*
X9690929Y-17341843D01*
X9690929Y-17360890D02*
X9700452Y-17351367D01*
X9719500Y-17341843D01*
X9748071Y-17341843D01*
X9767119Y-17351367D01*
X9776643Y-17370414D01*
X9776643Y-17475176D01*
X9776643Y-17370414D02*
X9786167Y-17351367D01*
X9805214Y-17341843D01*
X9833786Y-17341843D01*
X9852833Y-17351367D01*
X9862357Y-17370414D01*
X9862357Y-17475176D01*
X10252833Y-17265652D02*
X10081405Y-17522795D01*
X10509976Y-17275176D02*
X10529024Y-17275176D01*
X10548071Y-17284700D01*
X10557595Y-17294224D01*
X10567119Y-17313271D01*
X10576643Y-17351367D01*
X10576643Y-17398986D01*
X10567119Y-17437081D01*
X10557595Y-17456129D01*
X10548071Y-17465652D01*
X10529024Y-17475176D01*
X10509976Y-17475176D01*
X10490929Y-17465652D01*
X10481405Y-17456129D01*
X10471881Y-17437081D01*
X10462357Y-17398986D01*
X10462357Y-17351367D01*
X10471881Y-17313271D01*
X10481405Y-17294224D01*
X10490929Y-17284700D01*
X10509976Y-17275176D01*
X10662357Y-17456129D02*
X10671881Y-17465652D01*
X10662357Y-17475176D01*
X10652833Y-17465652D01*
X10662357Y-17456129D01*
X10662357Y-17475176D01*
X10862357Y-17475176D02*
X10748071Y-17475176D01*
X10805214Y-17475176D02*
X10805214Y-17275176D01*
X10786167Y-17303748D01*
X10767119Y-17322795D01*
X10748071Y-17332319D01*
X10938548Y-17294224D02*
X10948071Y-17284700D01*
X10967119Y-17275176D01*
X11014738Y-17275176D01*
X11033786Y-17284700D01*
X11043310Y-17294224D01*
X11052833Y-17313271D01*
X11052833Y-17332319D01*
X11043310Y-17360890D01*
X10929024Y-17475176D01*
X11052833Y-17475176D01*
X11224262Y-17275176D02*
X11186167Y-17275176D01*
X11167119Y-17284700D01*
X11157595Y-17294224D01*
X11138548Y-17322795D01*
X11129024Y-17360890D01*
X11129024Y-17437081D01*
X11138548Y-17456129D01*
X11148071Y-17465652D01*
X11167119Y-17475176D01*
X11205214Y-17475176D01*
X11224262Y-17465652D01*
X11233786Y-17456129D01*
X11243309Y-17437081D01*
X11243309Y-17389462D01*
X11233786Y-17370414D01*
X11224262Y-17360890D01*
X11205214Y-17351367D01*
X11167119Y-17351367D01*
X11148071Y-17360890D01*
X11138548Y-17370414D01*
X11129024Y-17389462D01*
X11367119Y-17275176D02*
X11386167Y-17275176D01*
X11405214Y-17284700D01*
X11414738Y-17294224D01*
X11424262Y-17313271D01*
X11433786Y-17351367D01*
X11433786Y-17398986D01*
X11424262Y-17437081D01*
X11414738Y-17456129D01*
X11405214Y-17465652D01*
X11386167Y-17475176D01*
X11367119Y-17475176D01*
X11348071Y-17465652D01*
X11338548Y-17456129D01*
X11329024Y-17437081D01*
X11319500Y-17398986D01*
X11319500Y-17351367D01*
X11329024Y-17313271D01*
X11338548Y-17294224D01*
X11348071Y-17284700D01*
X11367119Y-17275176D01*
X11509976Y-17275176D02*
X11509976Y-17313271D01*
X11586167Y-17275176D02*
X11586167Y-17313271D01*
X11881405Y-17551367D02*
X11871881Y-17541843D01*
X11852833Y-17513271D01*
X11843309Y-17494224D01*
X11833786Y-17465652D01*
X11824262Y-17418033D01*
X11824262Y-17379938D01*
X11833786Y-17332319D01*
X11843309Y-17303748D01*
X11852833Y-17284700D01*
X11871881Y-17256129D01*
X11881405Y-17246605D01*
X12043309Y-17341843D02*
X12043309Y-17475176D01*
X11995690Y-17265652D02*
X11948071Y-17408510D01*
X12071881Y-17408510D01*
X12300452Y-17475176D02*
X12300452Y-17275176D01*
X12386167Y-17475176D02*
X12386167Y-17370414D01*
X12376643Y-17351367D01*
X12357595Y-17341843D01*
X12329024Y-17341843D01*
X12309976Y-17351367D01*
X12300452Y-17360890D01*
X12509976Y-17475176D02*
X12490928Y-17465652D01*
X12481405Y-17456129D01*
X12471881Y-17437081D01*
X12471881Y-17379938D01*
X12481405Y-17360890D01*
X12490928Y-17351367D01*
X12509976Y-17341843D01*
X12538548Y-17341843D01*
X12557595Y-17351367D01*
X12567119Y-17360890D01*
X12576643Y-17379938D01*
X12576643Y-17437081D01*
X12567119Y-17456129D01*
X12557595Y-17465652D01*
X12538548Y-17475176D01*
X12509976Y-17475176D01*
X12690928Y-17475176D02*
X12671881Y-17465652D01*
X12662357Y-17446605D01*
X12662357Y-17275176D01*
X12843309Y-17465652D02*
X12824262Y-17475176D01*
X12786167Y-17475176D01*
X12767119Y-17465652D01*
X12757595Y-17446605D01*
X12757595Y-17370414D01*
X12767119Y-17351367D01*
X12786167Y-17341843D01*
X12824262Y-17341843D01*
X12843309Y-17351367D01*
X12852833Y-17370414D01*
X12852833Y-17389462D01*
X12757595Y-17408510D01*
X12929024Y-17465652D02*
X12948071Y-17475176D01*
X12986167Y-17475176D01*
X13005214Y-17465652D01*
X13014738Y-17446605D01*
X13014738Y-17437081D01*
X13005214Y-17418033D01*
X12986167Y-17408510D01*
X12957595Y-17408510D01*
X12938548Y-17398986D01*
X12929024Y-17379938D01*
X12929024Y-17370414D01*
X12938548Y-17351367D01*
X12957595Y-17341843D01*
X12986167Y-17341843D01*
X13005214Y-17351367D01*
X13081405Y-17551367D02*
X13090928Y-17541843D01*
X13109976Y-17513271D01*
X13119500Y-17494224D01*
X13129024Y-17465652D01*
X13138548Y-17418033D01*
X13138548Y-17379938D01*
X13129024Y-17332319D01*
X13119500Y-17303748D01*
X13109976Y-17284700D01*
X13090928Y-17256129D01*
X13081405Y-17246605D01*
M02*
