%TF.GenerationSoftware,KiCad,Pcbnew,6.0.0-d3dd2cf0fa~116~ubuntu20.04.1*%
%TF.CreationDate,2022-03-15T23:07:46+01:00*%
%TF.ProjectId,arrow_deca_retro_cape,6172726f-775f-4646-9563-615f72657472,0.71*%
%TF.SameCoordinates,Original*%
%TF.FileFunction,Soldermask,Bot*%
%TF.FilePolarity,Negative*%
%FSLAX46Y46*%
G04 Gerber Fmt 4.6, Leading zero omitted, Abs format (unit mm)*
G04 Created by KiCad (PCBNEW 6.0.0-d3dd2cf0fa~116~ubuntu20.04.1) date 2022-03-15 23:07:46*
%MOMM*%
%LPD*%
G01*
G04 APERTURE LIST*
G04 Aperture macros list*
%AMRoundRect*
0 Rectangle with rounded corners*
0 $1 Rounding radius*
0 $2 $3 $4 $5 $6 $7 $8 $9 X,Y pos of 4 corners*
0 Add a 4 corners polygon primitive as box body*
4,1,4,$2,$3,$4,$5,$6,$7,$8,$9,$2,$3,0*
0 Add four circle primitives for the rounded corners*
1,1,$1+$1,$2,$3*
1,1,$1+$1,$4,$5*
1,1,$1+$1,$6,$7*
1,1,$1+$1,$8,$9*
0 Add four rect primitives between the rounded corners*
20,1,$1+$1,$2,$3,$4,$5,0*
20,1,$1+$1,$4,$5,$6,$7,0*
20,1,$1+$1,$6,$7,$8,$9,0*
20,1,$1+$1,$8,$9,$2,$3,0*%
G04 Aperture macros list end*
%ADD10RoundRect,0.050000X-0.850000X-0.850000X0.850000X-0.850000X0.850000X0.850000X-0.850000X0.850000X0*%
%ADD11O,1.800000X1.800000*%
%ADD12RoundRect,0.050000X0.850000X-0.850000X0.850000X0.850000X-0.850000X0.850000X-0.850000X-0.850000X0*%
%ADD13RoundRect,0.050000X0.850000X0.850000X-0.850000X0.850000X-0.850000X-0.850000X0.850000X-0.850000X0*%
%ADD14C,1.300000*%
%ADD15O,2.500000X1.300000*%
%ADD16O,2.200000X1.300000*%
%ADD17RoundRect,0.050800X-0.787400X-0.787400X0.787400X-0.787400X0.787400X0.787400X-0.787400X0.787400X0*%
%ADD18C,1.676400*%
%ADD19C,2.946400*%
%ADD20C,4.100000*%
%ADD21RoundRect,0.050000X-0.800000X0.800000X-0.800000X-0.800000X0.800000X-0.800000X0.800000X0.800000X0*%
%ADD22C,1.700000*%
%ADD23RoundRect,0.050000X0.800000X-0.800000X0.800000X0.800000X-0.800000X0.800000X-0.800000X-0.800000X0*%
%ADD24RoundRect,0.050000X-0.850000X0.850000X-0.850000X-0.850000X0.850000X-0.850000X0.850000X0.850000X0*%
G04 APERTURE END LIST*
D10*
%TO.C,J9*%
X116840000Y-45720000D03*
D11*
X119380000Y-45720000D03*
X116840000Y-48260000D03*
X119380000Y-48260000D03*
X116840000Y-50800000D03*
X119380000Y-50800000D03*
X116840000Y-53340000D03*
X119380000Y-53340000D03*
X116840000Y-55880000D03*
X119380000Y-55880000D03*
X116840000Y-58420000D03*
X119380000Y-58420000D03*
X116840000Y-60960000D03*
X119380000Y-60960000D03*
X116840000Y-63500000D03*
X119380000Y-63500000D03*
X116840000Y-66040000D03*
X119380000Y-66040000D03*
X116840000Y-68580000D03*
X119380000Y-68580000D03*
X116840000Y-71120000D03*
X119380000Y-71120000D03*
X116840000Y-73660000D03*
X119380000Y-73660000D03*
X116840000Y-76200000D03*
X119380000Y-76200000D03*
X116840000Y-78740000D03*
X119380000Y-78740000D03*
X116840000Y-81280000D03*
X119380000Y-81280000D03*
X116840000Y-83820000D03*
X119380000Y-83820000D03*
X116840000Y-86360000D03*
X119380000Y-86360000D03*
X116840000Y-88900000D03*
X119380000Y-88900000D03*
X116840000Y-91440000D03*
X119380000Y-91440000D03*
X116840000Y-93980000D03*
X119380000Y-93980000D03*
X116840000Y-96520000D03*
X119380000Y-96520000D03*
X116840000Y-99060000D03*
X119380000Y-99060000D03*
X116840000Y-101600000D03*
X119380000Y-101600000D03*
%TD*%
D10*
%TO.C,J8*%
X165100000Y-45720000D03*
D11*
X167640000Y-45720000D03*
X165100000Y-48260000D03*
X167640000Y-48260000D03*
X165100000Y-50800000D03*
X167640000Y-50800000D03*
X165100000Y-53340000D03*
X167640000Y-53340000D03*
X165100000Y-55880000D03*
X167640000Y-55880000D03*
X165100000Y-58420000D03*
X167640000Y-58420000D03*
X165100000Y-60960000D03*
X167640000Y-60960000D03*
X165100000Y-63500000D03*
X167640000Y-63500000D03*
X165100000Y-66040000D03*
X167640000Y-66040000D03*
X165100000Y-68580000D03*
X167640000Y-68580000D03*
X165100000Y-71120000D03*
X167640000Y-71120000D03*
X165100000Y-73660000D03*
X167640000Y-73660000D03*
X165100000Y-76200000D03*
X167640000Y-76200000D03*
X165100000Y-78740000D03*
X167640000Y-78740000D03*
X165100000Y-81280000D03*
X167640000Y-81280000D03*
X165100000Y-83820000D03*
X167640000Y-83820000D03*
X165100000Y-86360000D03*
X167640000Y-86360000D03*
X165100000Y-88900000D03*
X167640000Y-88900000D03*
X165100000Y-91440000D03*
X167640000Y-91440000D03*
X165100000Y-93980000D03*
X167640000Y-93980000D03*
X165100000Y-96520000D03*
X167640000Y-96520000D03*
X165100000Y-99060000D03*
X167640000Y-99060000D03*
X165100000Y-101600000D03*
X167640000Y-101600000D03*
%TD*%
D12*
%TO.C,JP2*%
X126111000Y-68961000D03*
D11*
X128651000Y-68961000D03*
X131191000Y-68961000D03*
%TD*%
D10*
%TO.C,J20*%
X95823469Y-99033400D03*
D11*
X95823469Y-96493400D03*
X95823469Y-93953400D03*
X95823469Y-91413400D03*
X95823469Y-88873400D03*
X95823469Y-86333400D03*
X93283469Y-99033400D03*
X93283469Y-96493400D03*
X93283469Y-93953400D03*
X93283469Y-91413400D03*
X93283469Y-88873400D03*
X93283469Y-86333400D03*
%TD*%
D13*
%TO.C,J16*%
X141745000Y-133426200D03*
D11*
X141745000Y-130886200D03*
X141745000Y-128346200D03*
X141745000Y-125806200D03*
X141745000Y-123266200D03*
X141745000Y-120726200D03*
%TD*%
D14*
%TO.C,J21*%
X95123000Y-111633000D03*
X95123000Y-114133000D03*
X95123000Y-116133000D03*
X95123000Y-118633000D03*
X96623000Y-119133000D03*
X96623000Y-117133000D03*
X96623000Y-115133000D03*
X96623000Y-113133000D03*
X96623000Y-111133000D03*
D15*
X95873000Y-121533000D03*
D16*
X87373000Y-121533000D03*
D15*
X95873000Y-108733000D03*
D16*
X87373000Y-108733000D03*
%TD*%
D13*
%TO.C,J10*%
X136539669Y-82625000D03*
D11*
X139079669Y-82625000D03*
X136539669Y-80085000D03*
X139079669Y-80085000D03*
X136539669Y-77545000D03*
X139079669Y-77545000D03*
X136539669Y-75005000D03*
X139079669Y-75005000D03*
X136539669Y-72465000D03*
X139079669Y-72465000D03*
X136539669Y-69925000D03*
X139079669Y-69925000D03*
%TD*%
D10*
%TO.C,J11*%
X106680000Y-53340000D03*
D11*
X106680000Y-55880000D03*
X106680000Y-58420000D03*
X106680000Y-60960000D03*
X106680000Y-63500000D03*
X106680000Y-66040000D03*
X109220000Y-53340000D03*
X109220000Y-55880000D03*
X109220000Y-58420000D03*
X109220000Y-60960000D03*
X109220000Y-63500000D03*
X109220000Y-66040000D03*
%TD*%
D17*
%TO.C,J5*%
X131359200Y-48387000D03*
D18*
X133950000Y-48387000D03*
X129301800Y-48387000D03*
X136007400Y-48387000D03*
X129301800Y-50876200D03*
X136007400Y-50876200D03*
D19*
X125898200Y-45389800D03*
X132654600Y-44577000D03*
X139411000Y-45389800D03*
%TD*%
D20*
%TO.C,J1*%
X88490269Y-72623600D03*
X88490269Y-47623600D03*
D21*
X90540269Y-64438600D03*
D22*
X90540269Y-62148600D03*
X90540269Y-59858600D03*
X90540269Y-57568600D03*
X90540269Y-55278600D03*
X88000269Y-65583600D03*
X88000269Y-63293600D03*
X88000269Y-61003600D03*
X88000269Y-58713600D03*
X88000269Y-56423600D03*
X85460269Y-64438600D03*
X85460269Y-62148600D03*
X85460269Y-59858600D03*
X85460269Y-57568600D03*
X85460269Y-55278600D03*
%TD*%
D10*
%TO.C,J14*%
X123355000Y-86964200D03*
D11*
X123355000Y-89504200D03*
%TD*%
D17*
%TO.C,J19*%
X150444200Y-48387000D03*
D18*
X153035000Y-48387000D03*
X148386800Y-48387000D03*
X155092400Y-48387000D03*
X148386800Y-50876200D03*
X155092400Y-50876200D03*
D19*
X144983200Y-45389800D03*
X151739600Y-44577000D03*
X158496000Y-45389800D03*
%TD*%
D12*
%TO.C,J15*%
X172987000Y-45669200D03*
D11*
X175527000Y-45669200D03*
X178067000Y-45669200D03*
%TD*%
D20*
%TO.C,J4*%
X174074338Y-136335000D03*
X174074338Y-111335000D03*
D23*
X172654338Y-129375000D03*
D22*
X172654338Y-126605000D03*
X172654338Y-123835000D03*
X172654338Y-121065000D03*
X172654338Y-118295000D03*
X175494338Y-127990000D03*
X175494338Y-125220000D03*
X175494338Y-122450000D03*
X175494338Y-119680000D03*
%TD*%
D13*
%TO.C,J18*%
X127013000Y-92009200D03*
D11*
X127013000Y-89469200D03*
X127013000Y-86929200D03*
%TD*%
D12*
%TO.C,J17*%
X106680000Y-71120000D03*
D11*
X109220000Y-71120000D03*
%TD*%
D10*
%TO.C,J22*%
X116840000Y-107950000D03*
D11*
X116840000Y-110490000D03*
X116840000Y-113030000D03*
%TD*%
D10*
%TO.C,J12*%
X106680000Y-76200000D03*
D11*
X106680000Y-78740000D03*
X106680000Y-81280000D03*
X106680000Y-83820000D03*
X106680000Y-86360000D03*
X106680000Y-88900000D03*
X109220000Y-76200000D03*
X109220000Y-78740000D03*
X109220000Y-81280000D03*
X109220000Y-83820000D03*
X109220000Y-86360000D03*
X109220000Y-88900000D03*
%TD*%
D24*
%TO.C,JP1*%
X91459669Y-82625000D03*
D11*
X88919669Y-82625000D03*
%TD*%
D13*
%TO.C,J3*%
X161925000Y-78994000D03*
D11*
X161925000Y-76454000D03*
X161925000Y-73914000D03*
X161925000Y-71374000D03*
X161925000Y-68834000D03*
X161925000Y-66294000D03*
%TD*%
D10*
%TO.C,J7*%
X172043185Y-94360000D03*
D11*
X172043185Y-96900000D03*
X172043185Y-99440000D03*
%TD*%
D10*
%TO.C,J6*%
X178138185Y-53340000D03*
D11*
X180678185Y-53340000D03*
X178138185Y-55880000D03*
X180678185Y-55880000D03*
X178138185Y-58420000D03*
X180678185Y-58420000D03*
X178138185Y-60960000D03*
X180678185Y-60960000D03*
X178138185Y-63500000D03*
X180678185Y-63500000D03*
X178138185Y-66040000D03*
X180678185Y-66040000D03*
X178138185Y-68580000D03*
X180678185Y-68580000D03*
X178138185Y-71120000D03*
X180678185Y-71120000D03*
X178138185Y-73660000D03*
X180678185Y-73660000D03*
X178138185Y-76200000D03*
X180678185Y-76200000D03*
X178138185Y-78740000D03*
X180678185Y-78740000D03*
X178138185Y-81280000D03*
X180678185Y-81280000D03*
X178138185Y-83820000D03*
X180678185Y-83820000D03*
X178138185Y-86360000D03*
X180678185Y-86360000D03*
X178138185Y-88900000D03*
X180678185Y-88900000D03*
X178138185Y-91440000D03*
X180678185Y-91440000D03*
X178138185Y-93980000D03*
X180678185Y-93980000D03*
X178138185Y-96520000D03*
X180678185Y-96520000D03*
X178138185Y-99060000D03*
X180678185Y-99060000D03*
X178138185Y-101600000D03*
X180678185Y-101600000D03*
%TD*%
M02*
