%TF.GenerationSoftware,KiCad,Pcbnew,6.0.9-8da3e8f707~117~ubuntu20.04.1*%
%TF.CreationDate,2022-12-25T14:44:32+01:00*%
%TF.ProjectId,arrow_deca_retro_cape,6172726f-775f-4646-9563-615f72657472,0.90*%
%TF.SameCoordinates,Original*%
%TF.FileFunction,Drillmap*%
%TF.FilePolarity,Positive*%
%FSLAX45Y45*%
G04 Gerber Fmt 4.5, Leading zero omitted, Abs format (unit mm)*
G04 Created by KiCad (PCBNEW 6.0.9-8da3e8f707~117~ubuntu20.04.1) date 2022-12-25 14:44:32*
%MOMM*%
%LPD*%
G01*
G04 APERTURE LIST*
%ADD10C,0.050000*%
%ADD11C,0.200000*%
%ADD12C,0.030000*%
%ADD13C,0.038100*%
%ADD14C,0.040000*%
%ADD15C,0.050800*%
%ADD16C,0.070000*%
%ADD17C,0.076200*%
%ADD18C,0.088900*%
%ADD19C,0.100000*%
%ADD20C,0.230000*%
%ADD21C,0.231140*%
%ADD22C,0.320000*%
G04 APERTURE END LIST*
D10*
X16135717Y-11190197D02*
X14868315Y-11190197D01*
X12067599Y-10414000D02*
X12067599Y-11460000D01*
X14438394Y-7453996D02*
G75*
G03*
X14565393Y-7580996I127006J6D01*
G01*
X13462001Y-11587000D02*
X12194599Y-11587000D01*
X14565393Y-6655583D02*
G75*
G03*
X14438393Y-6782590I-3J-126997D01*
G01*
X15658200Y-6782590D02*
G75*
G03*
X15531196Y-6655590I-127000J0D01*
G01*
X14868315Y-11190205D02*
G75*
G03*
X14741315Y-11317197I-5J-126995D01*
G01*
X15531196Y-7580996D02*
G75*
G03*
X15658196Y-7453996I4J126996D01*
G01*
X12067600Y-11460000D02*
G75*
G03*
X12194599Y-11587000I127000J0D01*
G01*
X18234119Y-14046198D02*
G75*
G03*
X18310319Y-13970000I2J76199D01*
G01*
X8387000Y-12279500D02*
X13512800Y-12279900D01*
X14741315Y-11317197D02*
X14741315Y-13463197D01*
X14565393Y-7580996D02*
X15531196Y-7580996D01*
X13589001Y-10414000D02*
X13589001Y-11460000D01*
X14565393Y-6655590D02*
X15531196Y-6655590D01*
X16135717Y-13590197D02*
G75*
G03*
X16262717Y-13463197I3J126997D01*
G01*
X15658196Y-6782590D02*
X15658196Y-7453996D01*
X8397000Y-4049900D02*
X18234119Y-4049900D01*
X18310320Y-4126100D02*
G75*
G03*
X18234119Y-4049900I-76200J0D01*
G01*
X13589000Y-10414000D02*
G75*
G03*
X13462001Y-10287000I-127000J0D01*
G01*
X16262723Y-11317197D02*
G75*
G03*
X16135717Y-11190197I-127003J-3D01*
G01*
X16262717Y-11317197D02*
X16262717Y-13463197D01*
X16135717Y-13590197D02*
X14868315Y-13590197D01*
X13589000Y-12365519D02*
X13589000Y-13970000D01*
X13589002Y-12365519D02*
G75*
G03*
X13512800Y-12279900I-86202J-1D01*
G01*
X8397000Y-4049903D02*
G75*
G03*
X8312000Y-4124900I0J-85667D01*
G01*
X13462001Y-10287000D02*
X12194599Y-10287000D01*
X14438393Y-6782590D02*
X14438393Y-7453996D01*
X14741313Y-13463197D02*
G75*
G03*
X14868315Y-13590197I126997J-3D01*
G01*
X18234119Y-14046200D02*
X13665200Y-14046200D01*
X18310319Y-4126100D02*
X18310319Y-13970000D01*
X13589000Y-13970000D02*
G75*
G03*
X13665200Y-14046200I76200J0D01*
G01*
X13462001Y-11587001D02*
G75*
G03*
X13589001Y-11460000I-1J127001D01*
G01*
X8312000Y-12194500D02*
G75*
G03*
X8387000Y-12279500I80000J-5000D01*
G01*
X12194599Y-10286999D02*
G75*
G03*
X12067599Y-10414000I1J-127001D01*
G01*
X8312000Y-4124900D02*
X8312000Y-12194500D01*
D11*
D12*
X10019467Y-5517000D02*
X10049467Y-5547000D01*
X10049467Y-5517000D02*
X10019467Y-5547000D01*
X10019467Y-6025000D02*
X10049467Y-6055000D01*
X10049467Y-6025000D02*
X10019467Y-6055000D01*
X10019467Y-6723500D02*
X10049467Y-6753500D01*
X10049467Y-6723500D02*
X10019467Y-6753500D01*
X10019467Y-7231500D02*
X10049467Y-7261500D01*
X10049467Y-7231500D02*
X10019467Y-7261500D01*
X10019467Y-7422000D02*
X10049467Y-7452000D01*
X10049467Y-7422000D02*
X10019467Y-7452000D01*
X10019467Y-7803000D02*
X10049467Y-7833000D01*
X10049467Y-7803000D02*
X10019467Y-7833000D01*
X11186400Y-7368780D02*
X11216400Y-7398780D01*
X11216400Y-7368780D02*
X11186400Y-7398780D01*
X11270220Y-7371320D02*
X11300220Y-7401320D01*
X11300220Y-7371320D02*
X11270220Y-7401320D01*
X11420080Y-8240000D02*
X11450080Y-8270000D01*
X11450080Y-8240000D02*
X11420080Y-8270000D01*
X12114967Y-5517000D02*
X12144967Y-5547000D01*
X12144967Y-5517000D02*
X12114967Y-5547000D01*
X12114967Y-5644000D02*
X12144967Y-5674000D01*
X12144967Y-5644000D02*
X12114967Y-5674000D01*
X12114967Y-5771000D02*
X12144967Y-5801000D01*
X12144967Y-5771000D02*
X12114967Y-5801000D01*
X12114967Y-5898000D02*
X12144967Y-5928000D01*
X12144967Y-5898000D02*
X12114967Y-5928000D01*
X12216567Y-7676000D02*
X12246567Y-7706000D01*
X12246567Y-7676000D02*
X12216567Y-7706000D01*
X12267367Y-7752200D02*
X12297367Y-7782200D01*
X12297367Y-7752200D02*
X12267367Y-7782200D01*
X12559467Y-5707500D02*
X12589467Y-5737500D01*
X12589467Y-5707500D02*
X12559467Y-5737500D01*
X12761200Y-10068800D02*
X12791200Y-10098800D01*
X12791200Y-10068800D02*
X12761200Y-10098800D01*
X13447000Y-10209240D02*
X13477000Y-10239240D01*
X13477000Y-10209240D02*
X13447000Y-10239240D01*
X13528280Y-11613120D02*
X13558280Y-11643120D01*
X13558280Y-11613120D02*
X13528280Y-11643120D01*
X13599400Y-10170400D02*
X13629400Y-10200400D01*
X13629400Y-10170400D02*
X13599400Y-10200400D01*
X13664367Y-10444600D02*
X13694367Y-10474600D01*
X13694367Y-10444600D02*
X13664367Y-10474600D01*
X13685616Y-10268450D02*
X13715616Y-10298450D01*
X13715616Y-10268450D02*
X13685616Y-10298450D01*
X13701000Y-9967200D02*
X13731000Y-9997200D01*
X13731000Y-9967200D02*
X13701000Y-9997200D01*
X13701000Y-10653000D02*
X13731000Y-10683000D01*
X13731000Y-10653000D02*
X13701000Y-10683000D01*
X13715167Y-10508100D02*
X13745167Y-10538100D01*
X13745167Y-10508100D02*
X13715167Y-10538100D01*
X13722787Y-12118460D02*
X13752787Y-12148460D01*
X13752787Y-12118460D02*
X13722787Y-12148460D01*
X13732807Y-12033135D02*
X13762807Y-12063135D01*
X13762807Y-12033135D02*
X13732807Y-12063135D01*
X13802600Y-10170400D02*
X13832600Y-10200400D01*
X13832600Y-10170400D02*
X13802600Y-10200400D01*
X13833080Y-12126200D02*
X13863080Y-12156200D01*
X13863080Y-12126200D02*
X13833080Y-12156200D01*
X13929600Y-10183900D02*
X13959600Y-10213900D01*
X13959600Y-10183900D02*
X13929600Y-10213900D01*
X13929600Y-10272000D02*
X13959600Y-10302000D01*
X13959600Y-10272000D02*
X13929600Y-10302000D01*
X13956467Y-5707500D02*
X13986467Y-5737500D01*
X13986467Y-5707500D02*
X13956467Y-5737500D01*
X14285200Y-10322800D02*
X14315200Y-10352800D01*
X14315200Y-10322800D02*
X14285200Y-10352800D01*
X14464467Y-5644000D02*
X14494467Y-5674000D01*
X14494467Y-5644000D02*
X14464467Y-5674000D01*
X15555200Y-9383000D02*
X15585200Y-9413000D01*
X15585200Y-9383000D02*
X15555200Y-9413000D01*
X15555200Y-10297400D02*
X15585200Y-10327400D01*
X15585200Y-10297400D02*
X15555200Y-10327400D01*
X15555200Y-10500600D02*
X15585200Y-10530600D01*
X15585200Y-10500600D02*
X15555200Y-10530600D01*
X15580600Y-9611600D02*
X15610600Y-9641600D01*
X15610600Y-9611600D02*
X15580600Y-9641600D01*
X15580600Y-9814800D02*
X15610600Y-9844800D01*
X15610600Y-9814800D02*
X15580600Y-9844800D01*
X15580600Y-10068800D02*
X15610600Y-10098800D01*
X15610600Y-10068800D02*
X15580600Y-10098800D01*
X15607467Y-5580500D02*
X15637467Y-5610500D01*
X15637467Y-5580500D02*
X15607467Y-5610500D01*
X15620509Y-10743709D02*
X15650509Y-10773709D01*
X15650509Y-10743709D02*
X15620509Y-10773709D01*
D13*
X11501317Y-7487800D02*
G75*
G03*
X11501317Y-7487800I-19050J0D01*
G01*
X12276017Y-11932800D02*
G75*
G03*
X12276017Y-11932800I-19050J0D01*
G01*
D14*
X12138660Y-8235000D02*
X12138660Y-8275000D01*
X12118660Y-8255000D02*
X12158660Y-8255000D01*
X12352020Y-7467920D02*
X12352020Y-7507920D01*
X12332020Y-7487920D02*
X12372020Y-7487920D01*
X12636500Y-10030780D02*
X12636500Y-10070780D01*
X12616500Y-10050780D02*
X12656500Y-10050780D01*
X12776200Y-6698300D02*
X12776200Y-6738300D01*
X12756200Y-6718300D02*
X12796200Y-6718300D01*
X17145000Y-8870000D02*
X17145000Y-8910000D01*
X17125000Y-8890000D02*
X17165000Y-8890000D01*
D15*
X13100428Y-9258361D02*
X13100428Y-9222439D01*
X13064506Y-9222439D01*
X13064506Y-9258361D01*
X13100428Y-9258361D01*
X13347881Y-8486321D02*
X13347881Y-8450399D01*
X13311959Y-8450399D01*
X13311959Y-8486321D01*
X13347881Y-8486321D01*
X14306928Y-9702861D02*
X14306928Y-9666939D01*
X14271006Y-9666939D01*
X14271006Y-9702861D01*
X14306928Y-9702861D01*
X15867561Y-9669961D02*
X15867561Y-9634039D01*
X15831639Y-9634039D01*
X15831639Y-9669961D01*
X15867561Y-9669961D01*
X16883561Y-11808641D02*
X16883561Y-11772719D01*
X16847639Y-11772719D01*
X16847639Y-11808641D01*
X16883561Y-11808641D01*
D16*
X9696534Y-11117099D02*
X9731534Y-11082099D01*
X9696534Y-11047099D01*
X9661534Y-11082099D01*
X9696534Y-11117099D01*
X9696534Y-11367099D02*
X9731534Y-11332099D01*
X9696534Y-11297099D01*
X9661534Y-11332099D01*
X9696534Y-11367099D01*
X9696534Y-11567099D02*
X9731534Y-11532099D01*
X9696534Y-11497099D01*
X9661534Y-11532099D01*
X9696534Y-11567099D01*
X9696534Y-11817099D02*
X9731534Y-11782099D01*
X9696534Y-11747099D01*
X9661534Y-11782099D01*
X9696534Y-11817099D01*
X9846534Y-11067099D02*
X9881534Y-11032099D01*
X9846534Y-10997099D01*
X9811534Y-11032099D01*
X9846534Y-11067099D01*
X9846534Y-11267099D02*
X9881534Y-11232099D01*
X9846534Y-11197099D01*
X9811534Y-11232099D01*
X9846534Y-11267099D01*
X9846534Y-11467099D02*
X9881534Y-11432099D01*
X9846534Y-11397099D01*
X9811534Y-11432099D01*
X9846534Y-11467099D01*
X9846534Y-11667099D02*
X9881534Y-11632099D01*
X9846534Y-11597099D01*
X9811534Y-11632099D01*
X9846534Y-11667099D01*
X9846534Y-11867099D02*
X9881534Y-11832099D01*
X9846534Y-11797099D01*
X9811534Y-11832099D01*
X9846534Y-11867099D01*
D17*
X13045440Y-8427720D02*
X13121640Y-8503920D01*
X13121640Y-8427720D02*
X13045440Y-8503920D01*
X13121640Y-8465820D02*
G75*
G03*
X13121640Y-8465820I-38100J0D01*
G01*
X13618407Y-9540120D02*
X13694607Y-9616320D01*
X13694607Y-9540120D02*
X13618407Y-9616320D01*
X13694607Y-9578220D02*
G75*
G03*
X13694607Y-9578220I-38100J0D01*
G01*
X14187367Y-4858900D02*
X14263567Y-4935100D01*
X14263567Y-4858900D02*
X14187367Y-4935100D01*
X14263567Y-4897000D02*
G75*
G03*
X14263567Y-4897000I-38100J0D01*
G01*
X17171867Y-6573400D02*
X17248067Y-6649600D01*
X17248067Y-6573400D02*
X17171867Y-6649600D01*
X17248067Y-6611500D02*
G75*
G03*
X17248067Y-6611500I-38100J0D01*
G01*
D18*
X12885730Y-4794250D02*
X12974630Y-4883150D01*
X12974630Y-4794250D02*
X12885730Y-4883150D01*
X12930180Y-4794250D02*
X12930180Y-4883150D01*
X12885730Y-4838700D02*
X12974630Y-4838700D01*
X12885730Y-5043170D02*
X12974630Y-5132070D01*
X12974630Y-5043170D02*
X12885730Y-5132070D01*
X12930180Y-5043170D02*
X12930180Y-5132070D01*
X12885730Y-5087620D02*
X12974630Y-5087620D01*
X13091470Y-4794250D02*
X13180370Y-4883150D01*
X13180370Y-4794250D02*
X13091470Y-4883150D01*
X13135920Y-4794250D02*
X13135920Y-4883150D01*
X13091470Y-4838700D02*
X13180370Y-4838700D01*
X13350550Y-4794250D02*
X13439450Y-4883150D01*
X13439450Y-4794250D02*
X13350550Y-4883150D01*
X13395000Y-4794250D02*
X13395000Y-4883150D01*
X13350550Y-4838700D02*
X13439450Y-4838700D01*
X13556290Y-4794250D02*
X13645190Y-4883150D01*
X13645190Y-4794250D02*
X13556290Y-4883150D01*
X13600740Y-4794250D02*
X13600740Y-4883150D01*
X13556290Y-4838700D02*
X13645190Y-4838700D01*
X13556290Y-5043170D02*
X13645190Y-5132070D01*
X13645190Y-5043170D02*
X13556290Y-5132070D01*
X13600740Y-5043170D02*
X13600740Y-5132070D01*
X13556290Y-5087620D02*
X13645190Y-5087620D01*
X14794230Y-4794250D02*
X14883130Y-4883150D01*
X14883130Y-4794250D02*
X14794230Y-4883150D01*
X14838680Y-4794250D02*
X14838680Y-4883150D01*
X14794230Y-4838700D02*
X14883130Y-4838700D01*
X14794230Y-5043170D02*
X14883130Y-5132070D01*
X14883130Y-5043170D02*
X14794230Y-5132070D01*
X14838680Y-5043170D02*
X14838680Y-5132070D01*
X14794230Y-5087620D02*
X14883130Y-5087620D01*
X14999970Y-4794250D02*
X15088870Y-4883150D01*
X15088870Y-4794250D02*
X14999970Y-4883150D01*
X15044420Y-4794250D02*
X15044420Y-4883150D01*
X14999970Y-4838700D02*
X15088870Y-4838700D01*
X15259050Y-4794250D02*
X15347950Y-4883150D01*
X15347950Y-4794250D02*
X15259050Y-4883150D01*
X15303500Y-4794250D02*
X15303500Y-4883150D01*
X15259050Y-4838700D02*
X15347950Y-4838700D01*
X15464790Y-4794250D02*
X15553690Y-4883150D01*
X15553690Y-4794250D02*
X15464790Y-4883150D01*
X15509240Y-4794250D02*
X15509240Y-4883150D01*
X15464790Y-4838700D02*
X15553690Y-4838700D01*
X15464790Y-5043170D02*
X15553690Y-5132070D01*
X15553690Y-5043170D02*
X15464790Y-5132070D01*
X15509240Y-5043170D02*
X15509240Y-5132070D01*
X15464790Y-5087620D02*
X15553690Y-5087620D01*
D19*
X8608027Y-5477860D02*
X8708027Y-5577860D01*
X8708027Y-5477860D02*
X8608027Y-5577860D01*
X8693383Y-5563216D02*
X8693383Y-5492504D01*
X8622671Y-5492504D01*
X8622671Y-5563216D01*
X8693383Y-5563216D01*
X8608027Y-5706860D02*
X8708027Y-5806860D01*
X8708027Y-5706860D02*
X8608027Y-5806860D01*
X8693383Y-5792216D02*
X8693383Y-5721504D01*
X8622671Y-5721504D01*
X8622671Y-5792216D01*
X8693383Y-5792216D01*
X8608027Y-5935860D02*
X8708027Y-6035860D01*
X8708027Y-5935860D02*
X8608027Y-6035860D01*
X8693383Y-6021216D02*
X8693383Y-5950504D01*
X8622671Y-5950504D01*
X8622671Y-6021216D01*
X8693383Y-6021216D01*
X8608027Y-6164860D02*
X8708027Y-6264860D01*
X8708027Y-6164860D02*
X8608027Y-6264860D01*
X8693383Y-6250216D02*
X8693383Y-6179504D01*
X8622671Y-6179504D01*
X8622671Y-6250216D01*
X8693383Y-6250216D01*
X8608027Y-6393860D02*
X8708027Y-6493860D01*
X8708027Y-6393860D02*
X8608027Y-6493860D01*
X8693383Y-6479216D02*
X8693383Y-6408504D01*
X8622671Y-6408504D01*
X8622671Y-6479216D01*
X8693383Y-6479216D01*
X8806027Y-5592360D02*
X8906027Y-5692360D01*
X8906027Y-5592360D02*
X8806027Y-5692360D01*
X8891383Y-5677716D02*
X8891383Y-5607004D01*
X8820671Y-5607004D01*
X8820671Y-5677716D01*
X8891383Y-5677716D01*
X8806027Y-5821360D02*
X8906027Y-5921360D01*
X8906027Y-5821360D02*
X8806027Y-5921360D01*
X8891383Y-5906716D02*
X8891383Y-5836004D01*
X8820671Y-5836004D01*
X8820671Y-5906716D01*
X8891383Y-5906716D01*
X8806027Y-6050360D02*
X8906027Y-6150360D01*
X8906027Y-6050360D02*
X8806027Y-6150360D01*
X8891383Y-6135716D02*
X8891383Y-6065004D01*
X8820671Y-6065004D01*
X8820671Y-6135716D01*
X8891383Y-6135716D01*
X8806027Y-6279360D02*
X8906027Y-6379360D01*
X8906027Y-6279360D02*
X8806027Y-6379360D01*
X8891383Y-6364716D02*
X8891383Y-6294004D01*
X8820671Y-6294004D01*
X8820671Y-6364716D01*
X8891383Y-6364716D01*
X8806027Y-6508360D02*
X8906027Y-6608360D01*
X8906027Y-6508360D02*
X8806027Y-6608360D01*
X8891383Y-6593716D02*
X8891383Y-6523004D01*
X8820671Y-6523004D01*
X8820671Y-6593716D01*
X8891383Y-6593716D01*
X8841967Y-8212500D02*
X8941967Y-8312500D01*
X8941967Y-8212500D02*
X8841967Y-8312500D01*
X8927323Y-8297856D02*
X8927323Y-8227144D01*
X8856611Y-8227144D01*
X8856611Y-8297856D01*
X8927323Y-8297856D01*
X9004027Y-5477860D02*
X9104027Y-5577860D01*
X9104027Y-5477860D02*
X9004027Y-5577860D01*
X9089383Y-5563216D02*
X9089383Y-5492504D01*
X9018671Y-5492504D01*
X9018671Y-5563216D01*
X9089383Y-5563216D01*
X9004027Y-5706860D02*
X9104027Y-5806860D01*
X9104027Y-5706860D02*
X9004027Y-5806860D01*
X9089383Y-5792216D02*
X9089383Y-5721504D01*
X9018671Y-5721504D01*
X9018671Y-5792216D01*
X9089383Y-5792216D01*
X9004027Y-5935860D02*
X9104027Y-6035860D01*
X9104027Y-5935860D02*
X9004027Y-6035860D01*
X9089383Y-6021216D02*
X9089383Y-5950504D01*
X9018671Y-5950504D01*
X9018671Y-6021216D01*
X9089383Y-6021216D01*
X9004027Y-6164860D02*
X9104027Y-6264860D01*
X9104027Y-6164860D02*
X9004027Y-6264860D01*
X9089383Y-6250216D02*
X9089383Y-6179504D01*
X9018671Y-6179504D01*
X9018671Y-6250216D01*
X9089383Y-6250216D01*
X9004027Y-6393860D02*
X9104027Y-6493860D01*
X9104027Y-6393860D02*
X9004027Y-6493860D01*
X9089383Y-6479216D02*
X9089383Y-6408504D01*
X9018671Y-6408504D01*
X9018671Y-6479216D01*
X9089383Y-6479216D01*
X9095967Y-8212500D02*
X9195967Y-8312500D01*
X9195967Y-8212500D02*
X9095967Y-8312500D01*
X9181323Y-8297856D02*
X9181323Y-8227144D01*
X9110611Y-8227144D01*
X9110611Y-8297856D01*
X9181323Y-8297856D01*
X9278347Y-8583340D02*
X9378347Y-8683340D01*
X9378347Y-8583340D02*
X9278347Y-8683340D01*
X9363703Y-8668696D02*
X9363703Y-8597984D01*
X9292991Y-8597984D01*
X9292991Y-8668696D01*
X9363703Y-8668696D01*
X9278347Y-8837340D02*
X9378347Y-8937340D01*
X9378347Y-8837340D02*
X9278347Y-8937340D01*
X9363703Y-8922696D02*
X9363703Y-8851984D01*
X9292991Y-8851984D01*
X9292991Y-8922696D01*
X9363703Y-8922696D01*
X9278347Y-9091340D02*
X9378347Y-9191340D01*
X9378347Y-9091340D02*
X9278347Y-9191340D01*
X9363703Y-9176696D02*
X9363703Y-9105984D01*
X9292991Y-9105984D01*
X9292991Y-9176696D01*
X9363703Y-9176696D01*
X9278347Y-9345340D02*
X9378347Y-9445340D01*
X9378347Y-9345340D02*
X9278347Y-9445340D01*
X9363703Y-9430696D02*
X9363703Y-9359984D01*
X9292991Y-9359984D01*
X9292991Y-9430696D01*
X9363703Y-9430696D01*
X9278347Y-9599340D02*
X9378347Y-9699340D01*
X9378347Y-9599340D02*
X9278347Y-9699340D01*
X9363703Y-9684696D02*
X9363703Y-9613984D01*
X9292991Y-9613984D01*
X9292991Y-9684696D01*
X9363703Y-9684696D01*
X9278347Y-9853340D02*
X9378347Y-9953340D01*
X9378347Y-9853340D02*
X9278347Y-9953340D01*
X9363703Y-9938696D02*
X9363703Y-9867984D01*
X9292991Y-9867984D01*
X9292991Y-9938696D01*
X9363703Y-9938696D01*
X9532347Y-8583340D02*
X9632347Y-8683340D01*
X9632347Y-8583340D02*
X9532347Y-8683340D01*
X9617703Y-8668696D02*
X9617703Y-8597984D01*
X9546991Y-8597984D01*
X9546991Y-8668696D01*
X9617703Y-8668696D01*
X9532347Y-8837340D02*
X9632347Y-8937340D01*
X9632347Y-8837340D02*
X9532347Y-8937340D01*
X9617703Y-8922696D02*
X9617703Y-8851984D01*
X9546991Y-8851984D01*
X9546991Y-8922696D01*
X9617703Y-8922696D01*
X9532347Y-9091340D02*
X9632347Y-9191340D01*
X9632347Y-9091340D02*
X9532347Y-9191340D01*
X9617703Y-9176696D02*
X9617703Y-9105984D01*
X9546991Y-9105984D01*
X9546991Y-9176696D01*
X9617703Y-9176696D01*
X9532347Y-9345340D02*
X9632347Y-9445340D01*
X9632347Y-9345340D02*
X9532347Y-9445340D01*
X9617703Y-9430696D02*
X9617703Y-9359984D01*
X9546991Y-9359984D01*
X9546991Y-9430696D01*
X9617703Y-9430696D01*
X9532347Y-9599340D02*
X9632347Y-9699340D01*
X9632347Y-9599340D02*
X9532347Y-9699340D01*
X9617703Y-9684696D02*
X9617703Y-9613984D01*
X9546991Y-9613984D01*
X9546991Y-9684696D01*
X9617703Y-9684696D01*
X9532347Y-9853340D02*
X9632347Y-9953340D01*
X9632347Y-9853340D02*
X9532347Y-9953340D01*
X9617703Y-9938696D02*
X9617703Y-9867984D01*
X9546991Y-9867984D01*
X9546991Y-9938696D01*
X9617703Y-9938696D01*
X10618000Y-5284000D02*
X10718000Y-5384000D01*
X10718000Y-5284000D02*
X10618000Y-5384000D01*
X10703356Y-5369356D02*
X10703356Y-5298644D01*
X10632644Y-5298644D01*
X10632644Y-5369356D01*
X10703356Y-5369356D01*
X10618000Y-5538000D02*
X10718000Y-5638000D01*
X10718000Y-5538000D02*
X10618000Y-5638000D01*
X10703356Y-5623356D02*
X10703356Y-5552644D01*
X10632644Y-5552644D01*
X10632644Y-5623356D01*
X10703356Y-5623356D01*
X10618000Y-5792000D02*
X10718000Y-5892000D01*
X10718000Y-5792000D02*
X10618000Y-5892000D01*
X10703356Y-5877356D02*
X10703356Y-5806644D01*
X10632644Y-5806644D01*
X10632644Y-5877356D01*
X10703356Y-5877356D01*
X10618000Y-6046000D02*
X10718000Y-6146000D01*
X10718000Y-6046000D02*
X10618000Y-6146000D01*
X10703356Y-6131356D02*
X10703356Y-6060644D01*
X10632644Y-6060644D01*
X10632644Y-6131356D01*
X10703356Y-6131356D01*
X10618000Y-6300000D02*
X10718000Y-6400000D01*
X10718000Y-6300000D02*
X10618000Y-6400000D01*
X10703356Y-6385356D02*
X10703356Y-6314644D01*
X10632644Y-6314644D01*
X10632644Y-6385356D01*
X10703356Y-6385356D01*
X10618000Y-6554000D02*
X10718000Y-6654000D01*
X10718000Y-6554000D02*
X10618000Y-6654000D01*
X10703356Y-6639356D02*
X10703356Y-6568644D01*
X10632644Y-6568644D01*
X10632644Y-6639356D01*
X10703356Y-6639356D01*
X10618000Y-6808000D02*
X10718000Y-6908000D01*
X10718000Y-6808000D02*
X10618000Y-6908000D01*
X10703356Y-6893356D02*
X10703356Y-6822644D01*
X10632644Y-6822644D01*
X10632644Y-6893356D01*
X10703356Y-6893356D01*
X10618000Y-7062000D02*
X10718000Y-7162000D01*
X10718000Y-7062000D02*
X10618000Y-7162000D01*
X10703356Y-7147356D02*
X10703356Y-7076644D01*
X10632644Y-7076644D01*
X10632644Y-7147356D01*
X10703356Y-7147356D01*
X10618000Y-7316000D02*
X10718000Y-7416000D01*
X10718000Y-7316000D02*
X10618000Y-7416000D01*
X10703356Y-7401356D02*
X10703356Y-7330644D01*
X10632644Y-7330644D01*
X10632644Y-7401356D01*
X10703356Y-7401356D01*
X10618000Y-7570000D02*
X10718000Y-7670000D01*
X10718000Y-7570000D02*
X10618000Y-7670000D01*
X10703356Y-7655356D02*
X10703356Y-7584644D01*
X10632644Y-7584644D01*
X10632644Y-7655356D01*
X10703356Y-7655356D01*
X10618000Y-7824000D02*
X10718000Y-7924000D01*
X10718000Y-7824000D02*
X10618000Y-7924000D01*
X10703356Y-7909356D02*
X10703356Y-7838644D01*
X10632644Y-7838644D01*
X10632644Y-7909356D01*
X10703356Y-7909356D01*
X10618000Y-8078000D02*
X10718000Y-8178000D01*
X10718000Y-8078000D02*
X10618000Y-8178000D01*
X10703356Y-8163356D02*
X10703356Y-8092644D01*
X10632644Y-8092644D01*
X10632644Y-8163356D01*
X10703356Y-8163356D01*
X10618000Y-8332000D02*
X10718000Y-8432000D01*
X10718000Y-8332000D02*
X10618000Y-8432000D01*
X10703356Y-8417356D02*
X10703356Y-8346644D01*
X10632644Y-8346644D01*
X10632644Y-8417356D01*
X10703356Y-8417356D01*
X10618000Y-8586000D02*
X10718000Y-8686000D01*
X10718000Y-8586000D02*
X10618000Y-8686000D01*
X10703356Y-8671356D02*
X10703356Y-8600644D01*
X10632644Y-8600644D01*
X10632644Y-8671356D01*
X10703356Y-8671356D01*
X10618000Y-8840000D02*
X10718000Y-8940000D01*
X10718000Y-8840000D02*
X10618000Y-8940000D01*
X10703356Y-8925356D02*
X10703356Y-8854644D01*
X10632644Y-8854644D01*
X10632644Y-8925356D01*
X10703356Y-8925356D01*
X10872000Y-5284000D02*
X10972000Y-5384000D01*
X10972000Y-5284000D02*
X10872000Y-5384000D01*
X10957356Y-5369356D02*
X10957356Y-5298644D01*
X10886644Y-5298644D01*
X10886644Y-5369356D01*
X10957356Y-5369356D01*
X10872000Y-5538000D02*
X10972000Y-5638000D01*
X10972000Y-5538000D02*
X10872000Y-5638000D01*
X10957356Y-5623356D02*
X10957356Y-5552644D01*
X10886644Y-5552644D01*
X10886644Y-5623356D01*
X10957356Y-5623356D01*
X10872000Y-5792000D02*
X10972000Y-5892000D01*
X10972000Y-5792000D02*
X10872000Y-5892000D01*
X10957356Y-5877356D02*
X10957356Y-5806644D01*
X10886644Y-5806644D01*
X10886644Y-5877356D01*
X10957356Y-5877356D01*
X10872000Y-6046000D02*
X10972000Y-6146000D01*
X10972000Y-6046000D02*
X10872000Y-6146000D01*
X10957356Y-6131356D02*
X10957356Y-6060644D01*
X10886644Y-6060644D01*
X10886644Y-6131356D01*
X10957356Y-6131356D01*
X10872000Y-6300000D02*
X10972000Y-6400000D01*
X10972000Y-6300000D02*
X10872000Y-6400000D01*
X10957356Y-6385356D02*
X10957356Y-6314644D01*
X10886644Y-6314644D01*
X10886644Y-6385356D01*
X10957356Y-6385356D01*
X10872000Y-6554000D02*
X10972000Y-6654000D01*
X10972000Y-6554000D02*
X10872000Y-6654000D01*
X10957356Y-6639356D02*
X10957356Y-6568644D01*
X10886644Y-6568644D01*
X10886644Y-6639356D01*
X10957356Y-6639356D01*
X10872000Y-6808000D02*
X10972000Y-6908000D01*
X10972000Y-6808000D02*
X10872000Y-6908000D01*
X10957356Y-6893356D02*
X10957356Y-6822644D01*
X10886644Y-6822644D01*
X10886644Y-6893356D01*
X10957356Y-6893356D01*
X10872000Y-7062000D02*
X10972000Y-7162000D01*
X10972000Y-7062000D02*
X10872000Y-7162000D01*
X10957356Y-7147356D02*
X10957356Y-7076644D01*
X10886644Y-7076644D01*
X10886644Y-7147356D01*
X10957356Y-7147356D01*
X10872000Y-7316000D02*
X10972000Y-7416000D01*
X10972000Y-7316000D02*
X10872000Y-7416000D01*
X10957356Y-7401356D02*
X10957356Y-7330644D01*
X10886644Y-7330644D01*
X10886644Y-7401356D01*
X10957356Y-7401356D01*
X10872000Y-7570000D02*
X10972000Y-7670000D01*
X10972000Y-7570000D02*
X10872000Y-7670000D01*
X10957356Y-7655356D02*
X10957356Y-7584644D01*
X10886644Y-7584644D01*
X10886644Y-7655356D01*
X10957356Y-7655356D01*
X10872000Y-7824000D02*
X10972000Y-7924000D01*
X10972000Y-7824000D02*
X10872000Y-7924000D01*
X10957356Y-7909356D02*
X10957356Y-7838644D01*
X10886644Y-7838644D01*
X10886644Y-7909356D01*
X10957356Y-7909356D01*
X10872000Y-8078000D02*
X10972000Y-8178000D01*
X10972000Y-8078000D02*
X10872000Y-8178000D01*
X10957356Y-8163356D02*
X10957356Y-8092644D01*
X10886644Y-8092644D01*
X10886644Y-8163356D01*
X10957356Y-8163356D01*
X10872000Y-8332000D02*
X10972000Y-8432000D01*
X10972000Y-8332000D02*
X10872000Y-8432000D01*
X10957356Y-8417356D02*
X10957356Y-8346644D01*
X10886644Y-8346644D01*
X10886644Y-8417356D01*
X10957356Y-8417356D01*
X10872000Y-8586000D02*
X10972000Y-8686000D01*
X10972000Y-8586000D02*
X10872000Y-8686000D01*
X10957356Y-8671356D02*
X10957356Y-8600644D01*
X10886644Y-8600644D01*
X10886644Y-8671356D01*
X10957356Y-8671356D01*
X10872000Y-8840000D02*
X10972000Y-8940000D01*
X10972000Y-8840000D02*
X10872000Y-8940000D01*
X10957356Y-8925356D02*
X10957356Y-8854644D01*
X10886644Y-8854644D01*
X10886644Y-8925356D01*
X10957356Y-8925356D01*
X11253000Y-4775500D02*
X11353000Y-4875500D01*
X11353000Y-4775500D02*
X11253000Y-4875500D01*
X11338356Y-4860856D02*
X11338356Y-4790144D01*
X11267644Y-4790144D01*
X11267644Y-4860856D01*
X11338356Y-4860856D01*
X11253000Y-5029500D02*
X11353000Y-5129500D01*
X11353000Y-5029500D02*
X11253000Y-5129500D01*
X11338356Y-5114856D02*
X11338356Y-5044144D01*
X11267644Y-5044144D01*
X11267644Y-5114856D01*
X11338356Y-5114856D01*
X11634000Y-4522000D02*
X11734000Y-4622000D01*
X11734000Y-4522000D02*
X11634000Y-4622000D01*
X11719356Y-4607356D02*
X11719356Y-4536644D01*
X11648644Y-4536644D01*
X11648644Y-4607356D01*
X11719356Y-4607356D01*
X11634000Y-4776000D02*
X11734000Y-4876000D01*
X11734000Y-4776000D02*
X11634000Y-4876000D01*
X11719356Y-4861356D02*
X11719356Y-4790644D01*
X11648644Y-4790644D01*
X11648644Y-4861356D01*
X11719356Y-4861356D01*
X11634000Y-5030000D02*
X11734000Y-5130000D01*
X11734000Y-5030000D02*
X11634000Y-5130000D01*
X11719356Y-5115356D02*
X11719356Y-5044644D01*
X11648644Y-5044644D01*
X11648644Y-5115356D01*
X11719356Y-5115356D01*
X11634000Y-5284000D02*
X11734000Y-5384000D01*
X11734000Y-5284000D02*
X11634000Y-5384000D01*
X11719356Y-5369356D02*
X11719356Y-5298644D01*
X11648644Y-5298644D01*
X11648644Y-5369356D01*
X11719356Y-5369356D01*
X11634000Y-5538000D02*
X11734000Y-5638000D01*
X11734000Y-5538000D02*
X11634000Y-5638000D01*
X11719356Y-5623356D02*
X11719356Y-5552644D01*
X11648644Y-5552644D01*
X11648644Y-5623356D01*
X11719356Y-5623356D01*
X11634000Y-5792000D02*
X11734000Y-5892000D01*
X11734000Y-5792000D02*
X11634000Y-5892000D01*
X11719356Y-5877356D02*
X11719356Y-5806644D01*
X11648644Y-5806644D01*
X11648644Y-5877356D01*
X11719356Y-5877356D01*
X11634000Y-6046000D02*
X11734000Y-6146000D01*
X11734000Y-6046000D02*
X11634000Y-6146000D01*
X11719356Y-6131356D02*
X11719356Y-6060644D01*
X11648644Y-6060644D01*
X11648644Y-6131356D01*
X11719356Y-6131356D01*
X11634000Y-6300000D02*
X11734000Y-6400000D01*
X11734000Y-6300000D02*
X11634000Y-6400000D01*
X11719356Y-6385356D02*
X11719356Y-6314644D01*
X11648644Y-6314644D01*
X11648644Y-6385356D01*
X11719356Y-6385356D01*
X11634000Y-6554000D02*
X11734000Y-6654000D01*
X11734000Y-6554000D02*
X11634000Y-6654000D01*
X11719356Y-6639356D02*
X11719356Y-6568644D01*
X11648644Y-6568644D01*
X11648644Y-6639356D01*
X11719356Y-6639356D01*
X11634000Y-6808000D02*
X11734000Y-6908000D01*
X11734000Y-6808000D02*
X11634000Y-6908000D01*
X11719356Y-6893356D02*
X11719356Y-6822644D01*
X11648644Y-6822644D01*
X11648644Y-6893356D01*
X11719356Y-6893356D01*
X11634000Y-7062000D02*
X11734000Y-7162000D01*
X11734000Y-7062000D02*
X11634000Y-7162000D01*
X11719356Y-7147356D02*
X11719356Y-7076644D01*
X11648644Y-7076644D01*
X11648644Y-7147356D01*
X11719356Y-7147356D01*
X11634000Y-7316000D02*
X11734000Y-7416000D01*
X11734000Y-7316000D02*
X11634000Y-7416000D01*
X11719356Y-7401356D02*
X11719356Y-7330644D01*
X11648644Y-7330644D01*
X11648644Y-7401356D01*
X11719356Y-7401356D01*
X11634000Y-7570000D02*
X11734000Y-7670000D01*
X11734000Y-7570000D02*
X11634000Y-7670000D01*
X11719356Y-7655356D02*
X11719356Y-7584644D01*
X11648644Y-7584644D01*
X11648644Y-7655356D01*
X11719356Y-7655356D01*
X11634000Y-7824000D02*
X11734000Y-7924000D01*
X11734000Y-7824000D02*
X11634000Y-7924000D01*
X11719356Y-7909356D02*
X11719356Y-7838644D01*
X11648644Y-7838644D01*
X11648644Y-7909356D01*
X11719356Y-7909356D01*
X11634000Y-8078000D02*
X11734000Y-8178000D01*
X11734000Y-8078000D02*
X11634000Y-8178000D01*
X11719356Y-8163356D02*
X11719356Y-8092644D01*
X11648644Y-8092644D01*
X11648644Y-8163356D01*
X11719356Y-8163356D01*
X11634000Y-8332000D02*
X11734000Y-8432000D01*
X11734000Y-8332000D02*
X11634000Y-8432000D01*
X11719356Y-8417356D02*
X11719356Y-8346644D01*
X11648644Y-8346644D01*
X11648644Y-8417356D01*
X11719356Y-8417356D01*
X11634000Y-8586000D02*
X11734000Y-8686000D01*
X11734000Y-8586000D02*
X11634000Y-8686000D01*
X11719356Y-8671356D02*
X11719356Y-8600644D01*
X11648644Y-8600644D01*
X11648644Y-8671356D01*
X11719356Y-8671356D01*
X11634000Y-8840000D02*
X11734000Y-8940000D01*
X11734000Y-8840000D02*
X11634000Y-8940000D01*
X11719356Y-8925356D02*
X11719356Y-8854644D01*
X11648644Y-8854644D01*
X11648644Y-8925356D01*
X11719356Y-8925356D01*
X11634000Y-9094000D02*
X11734000Y-9194000D01*
X11734000Y-9094000D02*
X11634000Y-9194000D01*
X11719356Y-9179356D02*
X11719356Y-9108644D01*
X11648644Y-9108644D01*
X11648644Y-9179356D01*
X11719356Y-9179356D01*
X11634000Y-9348000D02*
X11734000Y-9448000D01*
X11734000Y-9348000D02*
X11634000Y-9448000D01*
X11719356Y-9433356D02*
X11719356Y-9362644D01*
X11648644Y-9362644D01*
X11648644Y-9433356D01*
X11719356Y-9433356D01*
X11634000Y-9602000D02*
X11734000Y-9702000D01*
X11734000Y-9602000D02*
X11634000Y-9702000D01*
X11719356Y-9687356D02*
X11719356Y-9616644D01*
X11648644Y-9616644D01*
X11648644Y-9687356D01*
X11719356Y-9687356D01*
X11634000Y-9856000D02*
X11734000Y-9956000D01*
X11734000Y-9856000D02*
X11634000Y-9956000D01*
X11719356Y-9941356D02*
X11719356Y-9870644D01*
X11648644Y-9870644D01*
X11648644Y-9941356D01*
X11719356Y-9941356D01*
X11634000Y-10110000D02*
X11734000Y-10210000D01*
X11734000Y-10110000D02*
X11634000Y-10210000D01*
X11719356Y-10195356D02*
X11719356Y-10124644D01*
X11648644Y-10124644D01*
X11648644Y-10195356D01*
X11719356Y-10195356D01*
X11634000Y-10745000D02*
X11734000Y-10845000D01*
X11734000Y-10745000D02*
X11634000Y-10845000D01*
X11719356Y-10830356D02*
X11719356Y-10759644D01*
X11648644Y-10759644D01*
X11648644Y-10830356D01*
X11719356Y-10830356D01*
X11634000Y-10999000D02*
X11734000Y-11099000D01*
X11734000Y-10999000D02*
X11634000Y-11099000D01*
X11719356Y-11084356D02*
X11719356Y-11013644D01*
X11648644Y-11013644D01*
X11648644Y-11084356D01*
X11719356Y-11084356D01*
X11634000Y-11253000D02*
X11734000Y-11353000D01*
X11734000Y-11253000D02*
X11634000Y-11353000D01*
X11719356Y-11338356D02*
X11719356Y-11267644D01*
X11648644Y-11267644D01*
X11648644Y-11338356D01*
X11719356Y-11338356D01*
X11888000Y-4522000D02*
X11988000Y-4622000D01*
X11988000Y-4522000D02*
X11888000Y-4622000D01*
X11973356Y-4607356D02*
X11973356Y-4536644D01*
X11902644Y-4536644D01*
X11902644Y-4607356D01*
X11973356Y-4607356D01*
X11888000Y-4776000D02*
X11988000Y-4876000D01*
X11988000Y-4776000D02*
X11888000Y-4876000D01*
X11973356Y-4861356D02*
X11973356Y-4790644D01*
X11902644Y-4790644D01*
X11902644Y-4861356D01*
X11973356Y-4861356D01*
X11888000Y-5030000D02*
X11988000Y-5130000D01*
X11988000Y-5030000D02*
X11888000Y-5130000D01*
X11973356Y-5115356D02*
X11973356Y-5044644D01*
X11902644Y-5044644D01*
X11902644Y-5115356D01*
X11973356Y-5115356D01*
X11888000Y-5284000D02*
X11988000Y-5384000D01*
X11988000Y-5284000D02*
X11888000Y-5384000D01*
X11973356Y-5369356D02*
X11973356Y-5298644D01*
X11902644Y-5298644D01*
X11902644Y-5369356D01*
X11973356Y-5369356D01*
X11888000Y-5538000D02*
X11988000Y-5638000D01*
X11988000Y-5538000D02*
X11888000Y-5638000D01*
X11973356Y-5623356D02*
X11973356Y-5552644D01*
X11902644Y-5552644D01*
X11902644Y-5623356D01*
X11973356Y-5623356D01*
X11888000Y-5792000D02*
X11988000Y-5892000D01*
X11988000Y-5792000D02*
X11888000Y-5892000D01*
X11973356Y-5877356D02*
X11973356Y-5806644D01*
X11902644Y-5806644D01*
X11902644Y-5877356D01*
X11973356Y-5877356D01*
X11888000Y-6046000D02*
X11988000Y-6146000D01*
X11988000Y-6046000D02*
X11888000Y-6146000D01*
X11973356Y-6131356D02*
X11973356Y-6060644D01*
X11902644Y-6060644D01*
X11902644Y-6131356D01*
X11973356Y-6131356D01*
X11888000Y-6300000D02*
X11988000Y-6400000D01*
X11988000Y-6300000D02*
X11888000Y-6400000D01*
X11973356Y-6385356D02*
X11973356Y-6314644D01*
X11902644Y-6314644D01*
X11902644Y-6385356D01*
X11973356Y-6385356D01*
X11888000Y-6554000D02*
X11988000Y-6654000D01*
X11988000Y-6554000D02*
X11888000Y-6654000D01*
X11973356Y-6639356D02*
X11973356Y-6568644D01*
X11902644Y-6568644D01*
X11902644Y-6639356D01*
X11973356Y-6639356D01*
X11888000Y-6808000D02*
X11988000Y-6908000D01*
X11988000Y-6808000D02*
X11888000Y-6908000D01*
X11973356Y-6893356D02*
X11973356Y-6822644D01*
X11902644Y-6822644D01*
X11902644Y-6893356D01*
X11973356Y-6893356D01*
X11888000Y-7062000D02*
X11988000Y-7162000D01*
X11988000Y-7062000D02*
X11888000Y-7162000D01*
X11973356Y-7147356D02*
X11973356Y-7076644D01*
X11902644Y-7076644D01*
X11902644Y-7147356D01*
X11973356Y-7147356D01*
X11888000Y-7316000D02*
X11988000Y-7416000D01*
X11988000Y-7316000D02*
X11888000Y-7416000D01*
X11973356Y-7401356D02*
X11973356Y-7330644D01*
X11902644Y-7330644D01*
X11902644Y-7401356D01*
X11973356Y-7401356D01*
X11888000Y-7570000D02*
X11988000Y-7670000D01*
X11988000Y-7570000D02*
X11888000Y-7670000D01*
X11973356Y-7655356D02*
X11973356Y-7584644D01*
X11902644Y-7584644D01*
X11902644Y-7655356D01*
X11973356Y-7655356D01*
X11888000Y-7824000D02*
X11988000Y-7924000D01*
X11988000Y-7824000D02*
X11888000Y-7924000D01*
X11973356Y-7909356D02*
X11973356Y-7838644D01*
X11902644Y-7838644D01*
X11902644Y-7909356D01*
X11973356Y-7909356D01*
X11888000Y-8078000D02*
X11988000Y-8178000D01*
X11988000Y-8078000D02*
X11888000Y-8178000D01*
X11973356Y-8163356D02*
X11973356Y-8092644D01*
X11902644Y-8092644D01*
X11902644Y-8163356D01*
X11973356Y-8163356D01*
X11888000Y-8332000D02*
X11988000Y-8432000D01*
X11988000Y-8332000D02*
X11888000Y-8432000D01*
X11973356Y-8417356D02*
X11973356Y-8346644D01*
X11902644Y-8346644D01*
X11902644Y-8417356D01*
X11973356Y-8417356D01*
X11888000Y-8586000D02*
X11988000Y-8686000D01*
X11988000Y-8586000D02*
X11888000Y-8686000D01*
X11973356Y-8671356D02*
X11973356Y-8600644D01*
X11902644Y-8600644D01*
X11902644Y-8671356D01*
X11973356Y-8671356D01*
X11888000Y-8840000D02*
X11988000Y-8940000D01*
X11988000Y-8840000D02*
X11888000Y-8940000D01*
X11973356Y-8925356D02*
X11973356Y-8854644D01*
X11902644Y-8854644D01*
X11902644Y-8925356D01*
X11973356Y-8925356D01*
X11888000Y-9094000D02*
X11988000Y-9194000D01*
X11988000Y-9094000D02*
X11888000Y-9194000D01*
X11973356Y-9179356D02*
X11973356Y-9108644D01*
X11902644Y-9108644D01*
X11902644Y-9179356D01*
X11973356Y-9179356D01*
X11888000Y-9348000D02*
X11988000Y-9448000D01*
X11988000Y-9348000D02*
X11888000Y-9448000D01*
X11973356Y-9433356D02*
X11973356Y-9362644D01*
X11902644Y-9362644D01*
X11902644Y-9433356D01*
X11973356Y-9433356D01*
X11888000Y-9602000D02*
X11988000Y-9702000D01*
X11988000Y-9602000D02*
X11888000Y-9702000D01*
X11973356Y-9687356D02*
X11973356Y-9616644D01*
X11902644Y-9616644D01*
X11902644Y-9687356D01*
X11973356Y-9687356D01*
X11888000Y-9856000D02*
X11988000Y-9956000D01*
X11988000Y-9856000D02*
X11888000Y-9956000D01*
X11973356Y-9941356D02*
X11973356Y-9870644D01*
X11902644Y-9870644D01*
X11902644Y-9941356D01*
X11973356Y-9941356D01*
X11888000Y-10110000D02*
X11988000Y-10210000D01*
X11988000Y-10110000D02*
X11888000Y-10210000D01*
X11973356Y-10195356D02*
X11973356Y-10124644D01*
X11902644Y-10124644D01*
X11902644Y-10195356D01*
X11973356Y-10195356D01*
X12285500Y-8646420D02*
X12385500Y-8746420D01*
X12385500Y-8646420D02*
X12285500Y-8746420D01*
X12370856Y-8731776D02*
X12370856Y-8661064D01*
X12300144Y-8661064D01*
X12300144Y-8731776D01*
X12370856Y-8731776D01*
X12285500Y-8900420D02*
X12385500Y-9000420D01*
X12385500Y-8900420D02*
X12285500Y-9000420D01*
X12370856Y-8985776D02*
X12370856Y-8915064D01*
X12300144Y-8915064D01*
X12300144Y-8985776D01*
X12370856Y-8985776D01*
X12651300Y-8642920D02*
X12751300Y-8742920D01*
X12751300Y-8642920D02*
X12651300Y-8742920D01*
X12736656Y-8728276D02*
X12736656Y-8657564D01*
X12665944Y-8657564D01*
X12665944Y-8728276D01*
X12736656Y-8728276D01*
X12651300Y-8896920D02*
X12751300Y-8996920D01*
X12751300Y-8896920D02*
X12651300Y-8996920D01*
X12736656Y-8982276D02*
X12736656Y-8911564D01*
X12665944Y-8911564D01*
X12665944Y-8982276D01*
X12736656Y-8982276D01*
X12651300Y-9150920D02*
X12751300Y-9250920D01*
X12751300Y-9150920D02*
X12651300Y-9250920D01*
X12736656Y-9236276D02*
X12736656Y-9165564D01*
X12665944Y-9165564D01*
X12665944Y-9236276D01*
X12736656Y-9236276D01*
X13603967Y-6942500D02*
X13703967Y-7042500D01*
X13703967Y-6942500D02*
X13603967Y-7042500D01*
X13689323Y-7027856D02*
X13689323Y-6957144D01*
X13618611Y-6957144D01*
X13618611Y-7027856D01*
X13689323Y-7027856D01*
X13603967Y-7196500D02*
X13703967Y-7296500D01*
X13703967Y-7196500D02*
X13603967Y-7296500D01*
X13689323Y-7281856D02*
X13689323Y-7211144D01*
X13618611Y-7211144D01*
X13618611Y-7281856D01*
X13689323Y-7281856D01*
X13603967Y-7450500D02*
X13703967Y-7550500D01*
X13703967Y-7450500D02*
X13603967Y-7550500D01*
X13689323Y-7535856D02*
X13689323Y-7465144D01*
X13618611Y-7465144D01*
X13618611Y-7535856D01*
X13689323Y-7535856D01*
X13603967Y-7704500D02*
X13703967Y-7804500D01*
X13703967Y-7704500D02*
X13603967Y-7804500D01*
X13689323Y-7789856D02*
X13689323Y-7719144D01*
X13618611Y-7719144D01*
X13618611Y-7789856D01*
X13689323Y-7789856D01*
X13603967Y-7958500D02*
X13703967Y-8058500D01*
X13703967Y-7958500D02*
X13603967Y-8058500D01*
X13689323Y-8043856D02*
X13689323Y-7973144D01*
X13618611Y-7973144D01*
X13618611Y-8043856D01*
X13689323Y-8043856D01*
X13603967Y-8212500D02*
X13703967Y-8312500D01*
X13703967Y-8212500D02*
X13603967Y-8312500D01*
X13689323Y-8297856D02*
X13689323Y-8227144D01*
X13618611Y-8227144D01*
X13618611Y-8297856D01*
X13689323Y-8297856D01*
X14124500Y-12022620D02*
X14224500Y-12122620D01*
X14224500Y-12022620D02*
X14124500Y-12122620D01*
X14209856Y-12107976D02*
X14209856Y-12037264D01*
X14139144Y-12037264D01*
X14139144Y-12107976D01*
X14209856Y-12107976D01*
X14124500Y-12276620D02*
X14224500Y-12376620D01*
X14224500Y-12276620D02*
X14124500Y-12376620D01*
X14209856Y-12361976D02*
X14209856Y-12291264D01*
X14139144Y-12291264D01*
X14139144Y-12361976D01*
X14209856Y-12361976D01*
X14124500Y-12530620D02*
X14224500Y-12630620D01*
X14224500Y-12530620D02*
X14124500Y-12630620D01*
X14209856Y-12615976D02*
X14209856Y-12545264D01*
X14139144Y-12545264D01*
X14139144Y-12615976D01*
X14209856Y-12615976D01*
X14124500Y-12784620D02*
X14224500Y-12884620D01*
X14224500Y-12784620D02*
X14124500Y-12884620D01*
X14209856Y-12869976D02*
X14209856Y-12799264D01*
X14139144Y-12799264D01*
X14139144Y-12869976D01*
X14209856Y-12869976D01*
X14124500Y-13038620D02*
X14224500Y-13138620D01*
X14224500Y-13038620D02*
X14124500Y-13138620D01*
X14209856Y-13123976D02*
X14209856Y-13053264D01*
X14139144Y-13053264D01*
X14139144Y-13123976D01*
X14209856Y-13123976D01*
X14124500Y-13292620D02*
X14224500Y-13392620D01*
X14224500Y-13292620D02*
X14124500Y-13392620D01*
X14209856Y-13377976D02*
X14209856Y-13307264D01*
X14139144Y-13307264D01*
X14139144Y-13377976D01*
X14209856Y-13377976D01*
X14748040Y-8758720D02*
X14848040Y-8858720D01*
X14848040Y-8758720D02*
X14748040Y-8858720D01*
X14833396Y-8844076D02*
X14833396Y-8773364D01*
X14762684Y-8773364D01*
X14762684Y-8844076D01*
X14833396Y-8844076D01*
X15002040Y-8758720D02*
X15102040Y-8858720D01*
X15102040Y-8758720D02*
X15002040Y-8858720D01*
X15087396Y-8844076D02*
X15087396Y-8773364D01*
X15016684Y-8773364D01*
X15016684Y-8844076D01*
X15087396Y-8844076D01*
X15256040Y-8758720D02*
X15356040Y-8858720D01*
X15356040Y-8758720D02*
X15256040Y-8858720D01*
X15341396Y-8844076D02*
X15341396Y-8773364D01*
X15270684Y-8773364D01*
X15270684Y-8844076D01*
X15341396Y-8844076D01*
X16066300Y-6147100D02*
X16166300Y-6247100D01*
X16166300Y-6147100D02*
X16066300Y-6247100D01*
X16151656Y-6232456D02*
X16151656Y-6161744D01*
X16080944Y-6161744D01*
X16080944Y-6232456D01*
X16151656Y-6232456D01*
X16066300Y-6401100D02*
X16166300Y-6501100D01*
X16166300Y-6401100D02*
X16066300Y-6501100D01*
X16151656Y-6486456D02*
X16151656Y-6415744D01*
X16080944Y-6415744D01*
X16080944Y-6486456D01*
X16151656Y-6486456D01*
X16066300Y-8459000D02*
X16166300Y-8559000D01*
X16166300Y-8459000D02*
X16066300Y-8559000D01*
X16151656Y-8544356D02*
X16151656Y-8473644D01*
X16080944Y-8473644D01*
X16080944Y-8544356D01*
X16151656Y-8544356D01*
X16066300Y-8713000D02*
X16166300Y-8813000D01*
X16166300Y-8713000D02*
X16066300Y-8813000D01*
X16151656Y-8798356D02*
X16151656Y-8727644D01*
X16080944Y-8727644D01*
X16080944Y-8798356D01*
X16151656Y-8798356D01*
X16460000Y-4522000D02*
X16560000Y-4622000D01*
X16560000Y-4522000D02*
X16460000Y-4622000D01*
X16545356Y-4607356D02*
X16545356Y-4536644D01*
X16474644Y-4536644D01*
X16474644Y-4607356D01*
X16545356Y-4607356D01*
X16460000Y-4776000D02*
X16560000Y-4876000D01*
X16560000Y-4776000D02*
X16460000Y-4876000D01*
X16545356Y-4861356D02*
X16545356Y-4790644D01*
X16474644Y-4790644D01*
X16474644Y-4861356D01*
X16545356Y-4861356D01*
X16460000Y-5030000D02*
X16560000Y-5130000D01*
X16560000Y-5030000D02*
X16460000Y-5130000D01*
X16545356Y-5115356D02*
X16545356Y-5044644D01*
X16474644Y-5044644D01*
X16474644Y-5115356D01*
X16545356Y-5115356D01*
X16460000Y-5284000D02*
X16560000Y-5384000D01*
X16560000Y-5284000D02*
X16460000Y-5384000D01*
X16545356Y-5369356D02*
X16545356Y-5298644D01*
X16474644Y-5298644D01*
X16474644Y-5369356D01*
X16545356Y-5369356D01*
X16460000Y-5538000D02*
X16560000Y-5638000D01*
X16560000Y-5538000D02*
X16460000Y-5638000D01*
X16545356Y-5623356D02*
X16545356Y-5552644D01*
X16474644Y-5552644D01*
X16474644Y-5623356D01*
X16545356Y-5623356D01*
X16460000Y-5792000D02*
X16560000Y-5892000D01*
X16560000Y-5792000D02*
X16460000Y-5892000D01*
X16545356Y-5877356D02*
X16545356Y-5806644D01*
X16474644Y-5806644D01*
X16474644Y-5877356D01*
X16545356Y-5877356D01*
X16460000Y-6046000D02*
X16560000Y-6146000D01*
X16560000Y-6046000D02*
X16460000Y-6146000D01*
X16545356Y-6131356D02*
X16545356Y-6060644D01*
X16474644Y-6060644D01*
X16474644Y-6131356D01*
X16545356Y-6131356D01*
X16460000Y-6300000D02*
X16560000Y-6400000D01*
X16560000Y-6300000D02*
X16460000Y-6400000D01*
X16545356Y-6385356D02*
X16545356Y-6314644D01*
X16474644Y-6314644D01*
X16474644Y-6385356D01*
X16545356Y-6385356D01*
X16460000Y-6554000D02*
X16560000Y-6654000D01*
X16560000Y-6554000D02*
X16460000Y-6654000D01*
X16545356Y-6639356D02*
X16545356Y-6568644D01*
X16474644Y-6568644D01*
X16474644Y-6639356D01*
X16545356Y-6639356D01*
X16460000Y-6808000D02*
X16560000Y-6908000D01*
X16560000Y-6808000D02*
X16460000Y-6908000D01*
X16545356Y-6893356D02*
X16545356Y-6822644D01*
X16474644Y-6822644D01*
X16474644Y-6893356D01*
X16545356Y-6893356D01*
X16460000Y-7062000D02*
X16560000Y-7162000D01*
X16560000Y-7062000D02*
X16460000Y-7162000D01*
X16545356Y-7147356D02*
X16545356Y-7076644D01*
X16474644Y-7076644D01*
X16474644Y-7147356D01*
X16545356Y-7147356D01*
X16460000Y-7316000D02*
X16560000Y-7416000D01*
X16560000Y-7316000D02*
X16460000Y-7416000D01*
X16545356Y-7401356D02*
X16545356Y-7330644D01*
X16474644Y-7330644D01*
X16474644Y-7401356D01*
X16545356Y-7401356D01*
X16460000Y-7570000D02*
X16560000Y-7670000D01*
X16560000Y-7570000D02*
X16460000Y-7670000D01*
X16545356Y-7655356D02*
X16545356Y-7584644D01*
X16474644Y-7584644D01*
X16474644Y-7655356D01*
X16545356Y-7655356D01*
X16460000Y-7824000D02*
X16560000Y-7924000D01*
X16560000Y-7824000D02*
X16460000Y-7924000D01*
X16545356Y-7909356D02*
X16545356Y-7838644D01*
X16474644Y-7838644D01*
X16474644Y-7909356D01*
X16545356Y-7909356D01*
X16460000Y-8078000D02*
X16560000Y-8178000D01*
X16560000Y-8078000D02*
X16460000Y-8178000D01*
X16545356Y-8163356D02*
X16545356Y-8092644D01*
X16474644Y-8092644D01*
X16474644Y-8163356D01*
X16545356Y-8163356D01*
X16460000Y-8332000D02*
X16560000Y-8432000D01*
X16560000Y-8332000D02*
X16460000Y-8432000D01*
X16545356Y-8417356D02*
X16545356Y-8346644D01*
X16474644Y-8346644D01*
X16474644Y-8417356D01*
X16545356Y-8417356D01*
X16460000Y-8586000D02*
X16560000Y-8686000D01*
X16560000Y-8586000D02*
X16460000Y-8686000D01*
X16545356Y-8671356D02*
X16545356Y-8600644D01*
X16474644Y-8600644D01*
X16474644Y-8671356D01*
X16545356Y-8671356D01*
X16460000Y-8840000D02*
X16560000Y-8940000D01*
X16560000Y-8840000D02*
X16460000Y-8940000D01*
X16545356Y-8925356D02*
X16545356Y-8854644D01*
X16474644Y-8854644D01*
X16474644Y-8925356D01*
X16545356Y-8925356D01*
X16460000Y-9094000D02*
X16560000Y-9194000D01*
X16560000Y-9094000D02*
X16460000Y-9194000D01*
X16545356Y-9179356D02*
X16545356Y-9108644D01*
X16474644Y-9108644D01*
X16474644Y-9179356D01*
X16545356Y-9179356D01*
X16460000Y-9348000D02*
X16560000Y-9448000D01*
X16560000Y-9348000D02*
X16460000Y-9448000D01*
X16545356Y-9433356D02*
X16545356Y-9362644D01*
X16474644Y-9362644D01*
X16474644Y-9433356D01*
X16545356Y-9433356D01*
X16460000Y-9602000D02*
X16560000Y-9702000D01*
X16560000Y-9602000D02*
X16460000Y-9702000D01*
X16545356Y-9687356D02*
X16545356Y-9616644D01*
X16474644Y-9616644D01*
X16474644Y-9687356D01*
X16545356Y-9687356D01*
X16460000Y-9856000D02*
X16560000Y-9956000D01*
X16560000Y-9856000D02*
X16460000Y-9956000D01*
X16545356Y-9941356D02*
X16545356Y-9870644D01*
X16474644Y-9870644D01*
X16474644Y-9941356D01*
X16545356Y-9941356D01*
X16460000Y-10110000D02*
X16560000Y-10210000D01*
X16560000Y-10110000D02*
X16460000Y-10210000D01*
X16545356Y-10195356D02*
X16545356Y-10124644D01*
X16474644Y-10124644D01*
X16474644Y-10195356D01*
X16545356Y-10195356D01*
X16714000Y-4522000D02*
X16814000Y-4622000D01*
X16814000Y-4522000D02*
X16714000Y-4622000D01*
X16799356Y-4607356D02*
X16799356Y-4536644D01*
X16728644Y-4536644D01*
X16728644Y-4607356D01*
X16799356Y-4607356D01*
X16714000Y-4776000D02*
X16814000Y-4876000D01*
X16814000Y-4776000D02*
X16714000Y-4876000D01*
X16799356Y-4861356D02*
X16799356Y-4790644D01*
X16728644Y-4790644D01*
X16728644Y-4861356D01*
X16799356Y-4861356D01*
X16714000Y-5030000D02*
X16814000Y-5130000D01*
X16814000Y-5030000D02*
X16714000Y-5130000D01*
X16799356Y-5115356D02*
X16799356Y-5044644D01*
X16728644Y-5044644D01*
X16728644Y-5115356D01*
X16799356Y-5115356D01*
X16714000Y-5284000D02*
X16814000Y-5384000D01*
X16814000Y-5284000D02*
X16714000Y-5384000D01*
X16799356Y-5369356D02*
X16799356Y-5298644D01*
X16728644Y-5298644D01*
X16728644Y-5369356D01*
X16799356Y-5369356D01*
X16714000Y-5538000D02*
X16814000Y-5638000D01*
X16814000Y-5538000D02*
X16714000Y-5638000D01*
X16799356Y-5623356D02*
X16799356Y-5552644D01*
X16728644Y-5552644D01*
X16728644Y-5623356D01*
X16799356Y-5623356D01*
X16714000Y-5792000D02*
X16814000Y-5892000D01*
X16814000Y-5792000D02*
X16714000Y-5892000D01*
X16799356Y-5877356D02*
X16799356Y-5806644D01*
X16728644Y-5806644D01*
X16728644Y-5877356D01*
X16799356Y-5877356D01*
X16714000Y-6046000D02*
X16814000Y-6146000D01*
X16814000Y-6046000D02*
X16714000Y-6146000D01*
X16799356Y-6131356D02*
X16799356Y-6060644D01*
X16728644Y-6060644D01*
X16728644Y-6131356D01*
X16799356Y-6131356D01*
X16714000Y-6300000D02*
X16814000Y-6400000D01*
X16814000Y-6300000D02*
X16714000Y-6400000D01*
X16799356Y-6385356D02*
X16799356Y-6314644D01*
X16728644Y-6314644D01*
X16728644Y-6385356D01*
X16799356Y-6385356D01*
X16714000Y-6554000D02*
X16814000Y-6654000D01*
X16814000Y-6554000D02*
X16714000Y-6654000D01*
X16799356Y-6639356D02*
X16799356Y-6568644D01*
X16728644Y-6568644D01*
X16728644Y-6639356D01*
X16799356Y-6639356D01*
X16714000Y-6808000D02*
X16814000Y-6908000D01*
X16814000Y-6808000D02*
X16714000Y-6908000D01*
X16799356Y-6893356D02*
X16799356Y-6822644D01*
X16728644Y-6822644D01*
X16728644Y-6893356D01*
X16799356Y-6893356D01*
X16714000Y-7062000D02*
X16814000Y-7162000D01*
X16814000Y-7062000D02*
X16714000Y-7162000D01*
X16799356Y-7147356D02*
X16799356Y-7076644D01*
X16728644Y-7076644D01*
X16728644Y-7147356D01*
X16799356Y-7147356D01*
X16714000Y-7316000D02*
X16814000Y-7416000D01*
X16814000Y-7316000D02*
X16714000Y-7416000D01*
X16799356Y-7401356D02*
X16799356Y-7330644D01*
X16728644Y-7330644D01*
X16728644Y-7401356D01*
X16799356Y-7401356D01*
X16714000Y-7570000D02*
X16814000Y-7670000D01*
X16814000Y-7570000D02*
X16714000Y-7670000D01*
X16799356Y-7655356D02*
X16799356Y-7584644D01*
X16728644Y-7584644D01*
X16728644Y-7655356D01*
X16799356Y-7655356D01*
X16714000Y-7824000D02*
X16814000Y-7924000D01*
X16814000Y-7824000D02*
X16714000Y-7924000D01*
X16799356Y-7909356D02*
X16799356Y-7838644D01*
X16728644Y-7838644D01*
X16728644Y-7909356D01*
X16799356Y-7909356D01*
X16714000Y-8078000D02*
X16814000Y-8178000D01*
X16814000Y-8078000D02*
X16714000Y-8178000D01*
X16799356Y-8163356D02*
X16799356Y-8092644D01*
X16728644Y-8092644D01*
X16728644Y-8163356D01*
X16799356Y-8163356D01*
X16714000Y-8332000D02*
X16814000Y-8432000D01*
X16814000Y-8332000D02*
X16714000Y-8432000D01*
X16799356Y-8417356D02*
X16799356Y-8346644D01*
X16728644Y-8346644D01*
X16728644Y-8417356D01*
X16799356Y-8417356D01*
X16714000Y-8586000D02*
X16814000Y-8686000D01*
X16814000Y-8586000D02*
X16714000Y-8686000D01*
X16799356Y-8671356D02*
X16799356Y-8600644D01*
X16728644Y-8600644D01*
X16728644Y-8671356D01*
X16799356Y-8671356D01*
X16714000Y-8840000D02*
X16814000Y-8940000D01*
X16814000Y-8840000D02*
X16714000Y-8940000D01*
X16799356Y-8925356D02*
X16799356Y-8854644D01*
X16728644Y-8854644D01*
X16728644Y-8925356D01*
X16799356Y-8925356D01*
X16714000Y-9094000D02*
X16814000Y-9194000D01*
X16814000Y-9094000D02*
X16714000Y-9194000D01*
X16799356Y-9179356D02*
X16799356Y-9108644D01*
X16728644Y-9108644D01*
X16728644Y-9179356D01*
X16799356Y-9179356D01*
X16714000Y-9348000D02*
X16814000Y-9448000D01*
X16814000Y-9348000D02*
X16714000Y-9448000D01*
X16799356Y-9433356D02*
X16799356Y-9362644D01*
X16728644Y-9362644D01*
X16728644Y-9433356D01*
X16799356Y-9433356D01*
X16714000Y-9602000D02*
X16814000Y-9702000D01*
X16814000Y-9602000D02*
X16714000Y-9702000D01*
X16799356Y-9687356D02*
X16799356Y-9616644D01*
X16728644Y-9616644D01*
X16728644Y-9687356D01*
X16799356Y-9687356D01*
X16714000Y-9856000D02*
X16814000Y-9956000D01*
X16814000Y-9856000D02*
X16714000Y-9956000D01*
X16799356Y-9941356D02*
X16799356Y-9870644D01*
X16728644Y-9870644D01*
X16728644Y-9941356D01*
X16799356Y-9941356D01*
X16714000Y-10110000D02*
X16814000Y-10210000D01*
X16814000Y-10110000D02*
X16714000Y-10210000D01*
X16799356Y-10195356D02*
X16799356Y-10124644D01*
X16728644Y-10124644D01*
X16728644Y-10195356D01*
X16799356Y-10195356D01*
X17154319Y-9386000D02*
X17254319Y-9486000D01*
X17254319Y-9386000D02*
X17154319Y-9486000D01*
X17239674Y-9471356D02*
X17239674Y-9400644D01*
X17168963Y-9400644D01*
X17168963Y-9471356D01*
X17239674Y-9471356D01*
X17154319Y-9640000D02*
X17254319Y-9740000D01*
X17254319Y-9640000D02*
X17154319Y-9740000D01*
X17239674Y-9725356D02*
X17239674Y-9654644D01*
X17168963Y-9654644D01*
X17168963Y-9725356D01*
X17239674Y-9725356D01*
X17154319Y-9894000D02*
X17254319Y-9994000D01*
X17254319Y-9894000D02*
X17154319Y-9994000D01*
X17239674Y-9979356D02*
X17239674Y-9908644D01*
X17168963Y-9908644D01*
X17168963Y-9979356D01*
X17239674Y-9979356D01*
X17215434Y-11779500D02*
X17315434Y-11879500D01*
X17315434Y-11779500D02*
X17215434Y-11879500D01*
X17300790Y-11864856D02*
X17300790Y-11794144D01*
X17230078Y-11794144D01*
X17230078Y-11864856D01*
X17300790Y-11864856D01*
X17215434Y-12056500D02*
X17315434Y-12156500D01*
X17315434Y-12056500D02*
X17215434Y-12156500D01*
X17300790Y-12141856D02*
X17300790Y-12071144D01*
X17230078Y-12071144D01*
X17230078Y-12141856D01*
X17300790Y-12141856D01*
X17215434Y-12333500D02*
X17315434Y-12433500D01*
X17315434Y-12333500D02*
X17215434Y-12433500D01*
X17300790Y-12418856D02*
X17300790Y-12348144D01*
X17230078Y-12348144D01*
X17230078Y-12418856D01*
X17300790Y-12418856D01*
X17215434Y-12610500D02*
X17315434Y-12710500D01*
X17315434Y-12610500D02*
X17215434Y-12710500D01*
X17300790Y-12695856D02*
X17300790Y-12625144D01*
X17230078Y-12625144D01*
X17230078Y-12695856D01*
X17300790Y-12695856D01*
X17215434Y-12887500D02*
X17315434Y-12987500D01*
X17315434Y-12887500D02*
X17215434Y-12987500D01*
X17300790Y-12972856D02*
X17300790Y-12902144D01*
X17230078Y-12902144D01*
X17230078Y-12972856D01*
X17300790Y-12972856D01*
X17248700Y-4516920D02*
X17348700Y-4616920D01*
X17348700Y-4516920D02*
X17248700Y-4616920D01*
X17334056Y-4602276D02*
X17334056Y-4531564D01*
X17263344Y-4531564D01*
X17263344Y-4602276D01*
X17334056Y-4602276D01*
X17499434Y-11918000D02*
X17599434Y-12018000D01*
X17599434Y-11918000D02*
X17499434Y-12018000D01*
X17584790Y-12003356D02*
X17584790Y-11932644D01*
X17514078Y-11932644D01*
X17514078Y-12003356D01*
X17584790Y-12003356D01*
X17499434Y-12195000D02*
X17599434Y-12295000D01*
X17599434Y-12195000D02*
X17499434Y-12295000D01*
X17584790Y-12280356D02*
X17584790Y-12209644D01*
X17514078Y-12209644D01*
X17514078Y-12280356D01*
X17584790Y-12280356D01*
X17499434Y-12472000D02*
X17599434Y-12572000D01*
X17599434Y-12472000D02*
X17499434Y-12572000D01*
X17584790Y-12557356D02*
X17584790Y-12486644D01*
X17514078Y-12486644D01*
X17514078Y-12557356D01*
X17584790Y-12557356D01*
X17499434Y-12749000D02*
X17599434Y-12849000D01*
X17599434Y-12749000D02*
X17499434Y-12849000D01*
X17584790Y-12834356D02*
X17584790Y-12763644D01*
X17514078Y-12763644D01*
X17514078Y-12834356D01*
X17584790Y-12834356D01*
X17502700Y-4516920D02*
X17602700Y-4616920D01*
X17602700Y-4516920D02*
X17502700Y-4616920D01*
X17588056Y-4602276D02*
X17588056Y-4531564D01*
X17517344Y-4531564D01*
X17517344Y-4602276D01*
X17588056Y-4602276D01*
X17756700Y-4516920D02*
X17856700Y-4616920D01*
X17856700Y-4516920D02*
X17756700Y-4616920D01*
X17842056Y-4602276D02*
X17842056Y-4531564D01*
X17771344Y-4531564D01*
X17771344Y-4602276D01*
X17842056Y-4602276D01*
X17763819Y-5284000D02*
X17863819Y-5384000D01*
X17863819Y-5284000D02*
X17763819Y-5384000D01*
X17849174Y-5369356D02*
X17849174Y-5298644D01*
X17778463Y-5298644D01*
X17778463Y-5369356D01*
X17849174Y-5369356D01*
X17763819Y-5538000D02*
X17863819Y-5638000D01*
X17863819Y-5538000D02*
X17763819Y-5638000D01*
X17849174Y-5623356D02*
X17849174Y-5552644D01*
X17778463Y-5552644D01*
X17778463Y-5623356D01*
X17849174Y-5623356D01*
X17763819Y-5792000D02*
X17863819Y-5892000D01*
X17863819Y-5792000D02*
X17763819Y-5892000D01*
X17849174Y-5877356D02*
X17849174Y-5806644D01*
X17778463Y-5806644D01*
X17778463Y-5877356D01*
X17849174Y-5877356D01*
X17763819Y-6046000D02*
X17863819Y-6146000D01*
X17863819Y-6046000D02*
X17763819Y-6146000D01*
X17849174Y-6131356D02*
X17849174Y-6060644D01*
X17778463Y-6060644D01*
X17778463Y-6131356D01*
X17849174Y-6131356D01*
X17763819Y-6300000D02*
X17863819Y-6400000D01*
X17863819Y-6300000D02*
X17763819Y-6400000D01*
X17849174Y-6385356D02*
X17849174Y-6314644D01*
X17778463Y-6314644D01*
X17778463Y-6385356D01*
X17849174Y-6385356D01*
X17763819Y-6554000D02*
X17863819Y-6654000D01*
X17863819Y-6554000D02*
X17763819Y-6654000D01*
X17849174Y-6639356D02*
X17849174Y-6568644D01*
X17778463Y-6568644D01*
X17778463Y-6639356D01*
X17849174Y-6639356D01*
X17763819Y-6808000D02*
X17863819Y-6908000D01*
X17863819Y-6808000D02*
X17763819Y-6908000D01*
X17849174Y-6893356D02*
X17849174Y-6822644D01*
X17778463Y-6822644D01*
X17778463Y-6893356D01*
X17849174Y-6893356D01*
X17763819Y-7062000D02*
X17863819Y-7162000D01*
X17863819Y-7062000D02*
X17763819Y-7162000D01*
X17849174Y-7147356D02*
X17849174Y-7076644D01*
X17778463Y-7076644D01*
X17778463Y-7147356D01*
X17849174Y-7147356D01*
X17763819Y-7316000D02*
X17863819Y-7416000D01*
X17863819Y-7316000D02*
X17763819Y-7416000D01*
X17849174Y-7401356D02*
X17849174Y-7330644D01*
X17778463Y-7330644D01*
X17778463Y-7401356D01*
X17849174Y-7401356D01*
X17763819Y-7570000D02*
X17863819Y-7670000D01*
X17863819Y-7570000D02*
X17763819Y-7670000D01*
X17849174Y-7655356D02*
X17849174Y-7584644D01*
X17778463Y-7584644D01*
X17778463Y-7655356D01*
X17849174Y-7655356D01*
X17763819Y-7824000D02*
X17863819Y-7924000D01*
X17863819Y-7824000D02*
X17763819Y-7924000D01*
X17849174Y-7909356D02*
X17849174Y-7838644D01*
X17778463Y-7838644D01*
X17778463Y-7909356D01*
X17849174Y-7909356D01*
X17763819Y-8078000D02*
X17863819Y-8178000D01*
X17863819Y-8078000D02*
X17763819Y-8178000D01*
X17849174Y-8163356D02*
X17849174Y-8092644D01*
X17778463Y-8092644D01*
X17778463Y-8163356D01*
X17849174Y-8163356D01*
X17763819Y-8332000D02*
X17863819Y-8432000D01*
X17863819Y-8332000D02*
X17763819Y-8432000D01*
X17849174Y-8417356D02*
X17849174Y-8346644D01*
X17778463Y-8346644D01*
X17778463Y-8417356D01*
X17849174Y-8417356D01*
X17763819Y-8586000D02*
X17863819Y-8686000D01*
X17863819Y-8586000D02*
X17763819Y-8686000D01*
X17849174Y-8671356D02*
X17849174Y-8600644D01*
X17778463Y-8600644D01*
X17778463Y-8671356D01*
X17849174Y-8671356D01*
X17763819Y-8840000D02*
X17863819Y-8940000D01*
X17863819Y-8840000D02*
X17763819Y-8940000D01*
X17849174Y-8925356D02*
X17849174Y-8854644D01*
X17778463Y-8854644D01*
X17778463Y-8925356D01*
X17849174Y-8925356D01*
X17763819Y-9094000D02*
X17863819Y-9194000D01*
X17863819Y-9094000D02*
X17763819Y-9194000D01*
X17849174Y-9179356D02*
X17849174Y-9108644D01*
X17778463Y-9108644D01*
X17778463Y-9179356D01*
X17849174Y-9179356D01*
X17763819Y-9348000D02*
X17863819Y-9448000D01*
X17863819Y-9348000D02*
X17763819Y-9448000D01*
X17849174Y-9433356D02*
X17849174Y-9362644D01*
X17778463Y-9362644D01*
X17778463Y-9433356D01*
X17849174Y-9433356D01*
X17763819Y-9602000D02*
X17863819Y-9702000D01*
X17863819Y-9602000D02*
X17763819Y-9702000D01*
X17849174Y-9687356D02*
X17849174Y-9616644D01*
X17778463Y-9616644D01*
X17778463Y-9687356D01*
X17849174Y-9687356D01*
X17763819Y-9856000D02*
X17863819Y-9956000D01*
X17863819Y-9856000D02*
X17763819Y-9956000D01*
X17849174Y-9941356D02*
X17849174Y-9870644D01*
X17778463Y-9870644D01*
X17778463Y-9941356D01*
X17849174Y-9941356D01*
X17763819Y-10110000D02*
X17863819Y-10210000D01*
X17863819Y-10110000D02*
X17763819Y-10210000D01*
X17849174Y-10195356D02*
X17849174Y-10124644D01*
X17778463Y-10124644D01*
X17778463Y-10195356D01*
X17849174Y-10195356D01*
X18017819Y-5284000D02*
X18117819Y-5384000D01*
X18117819Y-5284000D02*
X18017819Y-5384000D01*
X18103174Y-5369356D02*
X18103174Y-5298644D01*
X18032463Y-5298644D01*
X18032463Y-5369356D01*
X18103174Y-5369356D01*
X18017819Y-5538000D02*
X18117819Y-5638000D01*
X18117819Y-5538000D02*
X18017819Y-5638000D01*
X18103174Y-5623356D02*
X18103174Y-5552644D01*
X18032463Y-5552644D01*
X18032463Y-5623356D01*
X18103174Y-5623356D01*
X18017819Y-5792000D02*
X18117819Y-5892000D01*
X18117819Y-5792000D02*
X18017819Y-5892000D01*
X18103174Y-5877356D02*
X18103174Y-5806644D01*
X18032463Y-5806644D01*
X18032463Y-5877356D01*
X18103174Y-5877356D01*
X18017819Y-6046000D02*
X18117819Y-6146000D01*
X18117819Y-6046000D02*
X18017819Y-6146000D01*
X18103174Y-6131356D02*
X18103174Y-6060644D01*
X18032463Y-6060644D01*
X18032463Y-6131356D01*
X18103174Y-6131356D01*
X18017819Y-6300000D02*
X18117819Y-6400000D01*
X18117819Y-6300000D02*
X18017819Y-6400000D01*
X18103174Y-6385356D02*
X18103174Y-6314644D01*
X18032463Y-6314644D01*
X18032463Y-6385356D01*
X18103174Y-6385356D01*
X18017819Y-6554000D02*
X18117819Y-6654000D01*
X18117819Y-6554000D02*
X18017819Y-6654000D01*
X18103174Y-6639356D02*
X18103174Y-6568644D01*
X18032463Y-6568644D01*
X18032463Y-6639356D01*
X18103174Y-6639356D01*
X18017819Y-6808000D02*
X18117819Y-6908000D01*
X18117819Y-6808000D02*
X18017819Y-6908000D01*
X18103174Y-6893356D02*
X18103174Y-6822644D01*
X18032463Y-6822644D01*
X18032463Y-6893356D01*
X18103174Y-6893356D01*
X18017819Y-7062000D02*
X18117819Y-7162000D01*
X18117819Y-7062000D02*
X18017819Y-7162000D01*
X18103174Y-7147356D02*
X18103174Y-7076644D01*
X18032463Y-7076644D01*
X18032463Y-7147356D01*
X18103174Y-7147356D01*
X18017819Y-7316000D02*
X18117819Y-7416000D01*
X18117819Y-7316000D02*
X18017819Y-7416000D01*
X18103174Y-7401356D02*
X18103174Y-7330644D01*
X18032463Y-7330644D01*
X18032463Y-7401356D01*
X18103174Y-7401356D01*
X18017819Y-7570000D02*
X18117819Y-7670000D01*
X18117819Y-7570000D02*
X18017819Y-7670000D01*
X18103174Y-7655356D02*
X18103174Y-7584644D01*
X18032463Y-7584644D01*
X18032463Y-7655356D01*
X18103174Y-7655356D01*
X18017819Y-7824000D02*
X18117819Y-7924000D01*
X18117819Y-7824000D02*
X18017819Y-7924000D01*
X18103174Y-7909356D02*
X18103174Y-7838644D01*
X18032463Y-7838644D01*
X18032463Y-7909356D01*
X18103174Y-7909356D01*
X18017819Y-8078000D02*
X18117819Y-8178000D01*
X18117819Y-8078000D02*
X18017819Y-8178000D01*
X18103174Y-8163356D02*
X18103174Y-8092644D01*
X18032463Y-8092644D01*
X18032463Y-8163356D01*
X18103174Y-8163356D01*
X18017819Y-8332000D02*
X18117819Y-8432000D01*
X18117819Y-8332000D02*
X18017819Y-8432000D01*
X18103174Y-8417356D02*
X18103174Y-8346644D01*
X18032463Y-8346644D01*
X18032463Y-8417356D01*
X18103174Y-8417356D01*
X18017819Y-8586000D02*
X18117819Y-8686000D01*
X18117819Y-8586000D02*
X18017819Y-8686000D01*
X18103174Y-8671356D02*
X18103174Y-8600644D01*
X18032463Y-8600644D01*
X18032463Y-8671356D01*
X18103174Y-8671356D01*
X18017819Y-8840000D02*
X18117819Y-8940000D01*
X18117819Y-8840000D02*
X18017819Y-8940000D01*
X18103174Y-8925356D02*
X18103174Y-8854644D01*
X18032463Y-8854644D01*
X18032463Y-8925356D01*
X18103174Y-8925356D01*
X18017819Y-9094000D02*
X18117819Y-9194000D01*
X18117819Y-9094000D02*
X18017819Y-9194000D01*
X18103174Y-9179356D02*
X18103174Y-9108644D01*
X18032463Y-9108644D01*
X18032463Y-9179356D01*
X18103174Y-9179356D01*
X18017819Y-9348000D02*
X18117819Y-9448000D01*
X18117819Y-9348000D02*
X18017819Y-9448000D01*
X18103174Y-9433356D02*
X18103174Y-9362644D01*
X18032463Y-9362644D01*
X18032463Y-9433356D01*
X18103174Y-9433356D01*
X18017819Y-9602000D02*
X18117819Y-9702000D01*
X18117819Y-9602000D02*
X18017819Y-9702000D01*
X18103174Y-9687356D02*
X18103174Y-9616644D01*
X18032463Y-9616644D01*
X18032463Y-9687356D01*
X18103174Y-9687356D01*
X18017819Y-9856000D02*
X18117819Y-9956000D01*
X18117819Y-9856000D02*
X18017819Y-9956000D01*
X18103174Y-9941356D02*
X18103174Y-9870644D01*
X18032463Y-9870644D01*
X18032463Y-9941356D01*
X18103174Y-9941356D01*
X18017819Y-10110000D02*
X18117819Y-10210000D01*
X18117819Y-10110000D02*
X18017819Y-10210000D01*
X18103174Y-10195356D02*
X18103174Y-10124644D01*
X18032463Y-10124644D01*
X18032463Y-10195356D01*
X18103174Y-10195356D01*
D20*
X9381534Y-10660099D02*
X9611534Y-10890099D01*
X9611534Y-10660099D02*
X9381534Y-10890099D01*
X9496534Y-10890099D02*
X9611534Y-10775099D01*
X9496534Y-10660099D01*
X9381534Y-10775099D01*
X9496534Y-10890099D01*
X9381534Y-11974099D02*
X9611534Y-12204099D01*
X9611534Y-11974099D02*
X9381534Y-12204099D01*
X9496534Y-12204099D02*
X9611534Y-12089099D01*
X9496534Y-11974099D01*
X9381534Y-12089099D01*
X9496534Y-12204099D01*
D21*
X12589820Y-4423410D02*
X12589820Y-4654550D01*
X12474250Y-4538980D02*
X12705390Y-4538980D01*
X12705390Y-4538980D02*
G75*
G03*
X12705390Y-4538980I-115570J0D01*
G01*
X13265460Y-4342130D02*
X13265460Y-4573270D01*
X13149890Y-4457700D02*
X13381030Y-4457700D01*
X13381030Y-4457700D02*
G75*
G03*
X13381030Y-4457700I-115570J0D01*
G01*
X13941100Y-4423410D02*
X13941100Y-4654550D01*
X13825530Y-4538980D02*
X14056670Y-4538980D01*
X14056670Y-4538980D02*
G75*
G03*
X14056670Y-4538980I-115570J0D01*
G01*
X14498320Y-4423410D02*
X14498320Y-4654550D01*
X14382750Y-4538980D02*
X14613890Y-4538980D01*
X14613890Y-4538980D02*
G75*
G03*
X14613890Y-4538980I-115570J0D01*
G01*
X15173960Y-4342130D02*
X15173960Y-4573270D01*
X15058390Y-4457700D02*
X15289530Y-4457700D01*
X15289530Y-4457700D02*
G75*
G03*
X15289530Y-4457700I-115570J0D01*
G01*
X15849600Y-4423410D02*
X15849600Y-4654550D01*
X15734030Y-4538980D02*
X15965170Y-4538980D01*
X15965170Y-4538980D02*
G75*
G03*
X15965170Y-4538980I-115570J0D01*
G01*
D22*
X8962165Y-4875498D02*
X8962165Y-4649222D01*
X8735889Y-4649222D01*
X8735889Y-4875498D01*
X8962165Y-4875498D01*
X9009027Y-4762360D02*
G75*
G03*
X9009027Y-4762360I-160000J0D01*
G01*
X8962165Y-7375498D02*
X8962165Y-7149222D01*
X8735889Y-7149222D01*
X8735889Y-7375498D01*
X8962165Y-7375498D01*
X9009027Y-7262360D02*
G75*
G03*
X9009027Y-7262360I-160000J0D01*
G01*
X17520572Y-11246638D02*
X17520572Y-11020362D01*
X17294296Y-11020362D01*
X17294296Y-11246638D01*
X17520572Y-11246638D01*
X17567434Y-11133500D02*
G75*
G03*
X17567434Y-11133500I-160000J0D01*
G01*
X17520572Y-13746638D02*
X17520572Y-13520362D01*
X17294296Y-13520362D01*
X17294296Y-13746638D01*
X17520572Y-13746638D01*
X17567434Y-13633500D02*
G75*
G03*
X17567434Y-13633500I-160000J0D01*
G01*
D11*
X8566963Y-14359176D02*
X8566963Y-14159176D01*
X8614582Y-14159176D01*
X8643153Y-14168700D01*
X8662201Y-14187748D01*
X8671725Y-14206795D01*
X8681249Y-14244890D01*
X8681249Y-14273462D01*
X8671725Y-14311557D01*
X8662201Y-14330605D01*
X8643153Y-14349652D01*
X8614582Y-14359176D01*
X8566963Y-14359176D01*
X8766963Y-14359176D02*
X8766963Y-14225843D01*
X8766963Y-14263938D02*
X8776487Y-14244890D01*
X8786011Y-14235367D01*
X8805058Y-14225843D01*
X8824106Y-14225843D01*
X8890772Y-14359176D02*
X8890772Y-14225843D01*
X8890772Y-14159176D02*
X8881249Y-14168700D01*
X8890772Y-14178224D01*
X8900296Y-14168700D01*
X8890772Y-14159176D01*
X8890772Y-14178224D01*
X9014582Y-14359176D02*
X8995534Y-14349652D01*
X8986011Y-14330605D01*
X8986011Y-14159176D01*
X9119344Y-14359176D02*
X9100296Y-14349652D01*
X9090772Y-14330605D01*
X9090772Y-14159176D01*
X9347915Y-14359176D02*
X9347915Y-14159176D01*
X9414582Y-14302033D01*
X9481249Y-14159176D01*
X9481249Y-14359176D01*
X9662201Y-14359176D02*
X9662201Y-14254414D01*
X9652677Y-14235367D01*
X9633630Y-14225843D01*
X9595534Y-14225843D01*
X9576487Y-14235367D01*
X9662201Y-14349652D02*
X9643153Y-14359176D01*
X9595534Y-14359176D01*
X9576487Y-14349652D01*
X9566963Y-14330605D01*
X9566963Y-14311557D01*
X9576487Y-14292509D01*
X9595534Y-14282986D01*
X9643153Y-14282986D01*
X9662201Y-14273462D01*
X9757439Y-14225843D02*
X9757439Y-14425843D01*
X9757439Y-14235367D02*
X9776487Y-14225843D01*
X9814582Y-14225843D01*
X9833630Y-14235367D01*
X9843153Y-14244890D01*
X9852677Y-14263938D01*
X9852677Y-14321081D01*
X9843153Y-14340128D01*
X9833630Y-14349652D01*
X9814582Y-14359176D01*
X9776487Y-14359176D01*
X9757439Y-14349652D01*
X9938392Y-14340128D02*
X9947915Y-14349652D01*
X9938392Y-14359176D01*
X9928868Y-14349652D01*
X9938392Y-14340128D01*
X9938392Y-14359176D01*
X9938392Y-14235367D02*
X9947915Y-14244890D01*
X9938392Y-14254414D01*
X9928868Y-14244890D01*
X9938392Y-14235367D01*
X9938392Y-14254414D01*
D12*
X8279344Y-14673700D02*
X8309344Y-14703700D01*
X8309344Y-14673700D02*
X8279344Y-14703700D01*
D11*
X8605058Y-14579176D02*
X8624106Y-14579176D01*
X8643153Y-14588700D01*
X8652677Y-14598224D01*
X8662201Y-14617271D01*
X8671725Y-14655367D01*
X8671725Y-14702986D01*
X8662201Y-14741081D01*
X8652677Y-14760128D01*
X8643153Y-14769652D01*
X8624106Y-14779176D01*
X8605058Y-14779176D01*
X8586011Y-14769652D01*
X8576487Y-14760128D01*
X8566963Y-14741081D01*
X8557439Y-14702986D01*
X8557439Y-14655367D01*
X8566963Y-14617271D01*
X8576487Y-14598224D01*
X8586011Y-14588700D01*
X8605058Y-14579176D01*
X8757439Y-14760128D02*
X8766963Y-14769652D01*
X8757439Y-14779176D01*
X8747915Y-14769652D01*
X8757439Y-14760128D01*
X8757439Y-14779176D01*
X8833630Y-14579176D02*
X8957439Y-14579176D01*
X8890772Y-14655367D01*
X8919344Y-14655367D01*
X8938392Y-14664890D01*
X8947915Y-14674414D01*
X8957439Y-14693462D01*
X8957439Y-14741081D01*
X8947915Y-14760128D01*
X8938392Y-14769652D01*
X8919344Y-14779176D01*
X8862201Y-14779176D01*
X8843153Y-14769652D01*
X8833630Y-14760128D01*
X9081249Y-14579176D02*
X9100296Y-14579176D01*
X9119344Y-14588700D01*
X9128868Y-14598224D01*
X9138392Y-14617271D01*
X9147915Y-14655367D01*
X9147915Y-14702986D01*
X9138392Y-14741081D01*
X9128868Y-14760128D01*
X9119344Y-14769652D01*
X9100296Y-14779176D01*
X9081249Y-14779176D01*
X9062201Y-14769652D01*
X9052677Y-14760128D01*
X9043153Y-14741081D01*
X9033630Y-14702986D01*
X9033630Y-14655367D01*
X9043153Y-14617271D01*
X9052677Y-14598224D01*
X9062201Y-14588700D01*
X9081249Y-14579176D01*
X9271725Y-14579176D02*
X9290772Y-14579176D01*
X9309820Y-14588700D01*
X9319344Y-14598224D01*
X9328868Y-14617271D01*
X9338392Y-14655367D01*
X9338392Y-14702986D01*
X9328868Y-14741081D01*
X9319344Y-14760128D01*
X9309820Y-14769652D01*
X9290772Y-14779176D01*
X9271725Y-14779176D01*
X9252677Y-14769652D01*
X9243153Y-14760128D01*
X9233630Y-14741081D01*
X9224106Y-14702986D01*
X9224106Y-14655367D01*
X9233630Y-14617271D01*
X9243153Y-14598224D01*
X9252677Y-14588700D01*
X9271725Y-14579176D01*
X9424106Y-14779176D02*
X9424106Y-14645843D01*
X9424106Y-14664890D02*
X9433630Y-14655367D01*
X9452677Y-14645843D01*
X9481249Y-14645843D01*
X9500296Y-14655367D01*
X9509820Y-14674414D01*
X9509820Y-14779176D01*
X9509820Y-14674414D02*
X9519344Y-14655367D01*
X9538392Y-14645843D01*
X9566963Y-14645843D01*
X9586011Y-14655367D01*
X9595534Y-14674414D01*
X9595534Y-14779176D01*
X9690772Y-14779176D02*
X9690772Y-14645843D01*
X9690772Y-14664890D02*
X9700296Y-14655367D01*
X9719344Y-14645843D01*
X9747915Y-14645843D01*
X9766963Y-14655367D01*
X9776487Y-14674414D01*
X9776487Y-14779176D01*
X9776487Y-14674414D02*
X9786011Y-14655367D01*
X9805058Y-14645843D01*
X9833630Y-14645843D01*
X9852677Y-14655367D01*
X9862201Y-14674414D01*
X9862201Y-14779176D01*
X10252677Y-14569652D02*
X10081249Y-14826795D01*
X10509820Y-14579176D02*
X10528868Y-14579176D01*
X10547915Y-14588700D01*
X10557439Y-14598224D01*
X10566963Y-14617271D01*
X10576487Y-14655367D01*
X10576487Y-14702986D01*
X10566963Y-14741081D01*
X10557439Y-14760128D01*
X10547915Y-14769652D01*
X10528868Y-14779176D01*
X10509820Y-14779176D01*
X10490772Y-14769652D01*
X10481249Y-14760128D01*
X10471725Y-14741081D01*
X10462201Y-14702986D01*
X10462201Y-14655367D01*
X10471725Y-14617271D01*
X10481249Y-14598224D01*
X10490772Y-14588700D01*
X10509820Y-14579176D01*
X10662201Y-14760128D02*
X10671725Y-14769652D01*
X10662201Y-14779176D01*
X10652677Y-14769652D01*
X10662201Y-14760128D01*
X10662201Y-14779176D01*
X10795534Y-14579176D02*
X10814582Y-14579176D01*
X10833630Y-14588700D01*
X10843153Y-14598224D01*
X10852677Y-14617271D01*
X10862201Y-14655367D01*
X10862201Y-14702986D01*
X10852677Y-14741081D01*
X10843153Y-14760128D01*
X10833630Y-14769652D01*
X10814582Y-14779176D01*
X10795534Y-14779176D01*
X10776487Y-14769652D01*
X10766963Y-14760128D01*
X10757439Y-14741081D01*
X10747915Y-14702986D01*
X10747915Y-14655367D01*
X10757439Y-14617271D01*
X10766963Y-14598224D01*
X10776487Y-14588700D01*
X10795534Y-14579176D01*
X11052677Y-14779176D02*
X10938392Y-14779176D01*
X10995534Y-14779176D02*
X10995534Y-14579176D01*
X10976487Y-14607748D01*
X10957439Y-14626795D01*
X10938392Y-14636319D01*
X11243153Y-14779176D02*
X11128868Y-14779176D01*
X11186010Y-14779176D02*
X11186010Y-14579176D01*
X11166963Y-14607748D01*
X11147915Y-14626795D01*
X11128868Y-14636319D01*
X11357439Y-14664890D02*
X11338391Y-14655367D01*
X11328868Y-14645843D01*
X11319344Y-14626795D01*
X11319344Y-14617271D01*
X11328868Y-14598224D01*
X11338391Y-14588700D01*
X11357439Y-14579176D01*
X11395534Y-14579176D01*
X11414582Y-14588700D01*
X11424106Y-14598224D01*
X11433630Y-14617271D01*
X11433630Y-14626795D01*
X11424106Y-14645843D01*
X11414582Y-14655367D01*
X11395534Y-14664890D01*
X11357439Y-14664890D01*
X11338391Y-14674414D01*
X11328868Y-14683938D01*
X11319344Y-14702986D01*
X11319344Y-14741081D01*
X11328868Y-14760128D01*
X11338391Y-14769652D01*
X11357439Y-14779176D01*
X11395534Y-14779176D01*
X11414582Y-14769652D01*
X11424106Y-14760128D01*
X11433630Y-14741081D01*
X11433630Y-14702986D01*
X11424106Y-14683938D01*
X11414582Y-14674414D01*
X11395534Y-14664890D01*
X11509820Y-14579176D02*
X11509820Y-14617271D01*
X11586010Y-14579176D02*
X11586010Y-14617271D01*
X11881249Y-14855367D02*
X11871725Y-14845843D01*
X11852677Y-14817271D01*
X11843153Y-14798224D01*
X11833630Y-14769652D01*
X11824106Y-14722033D01*
X11824106Y-14683938D01*
X11833630Y-14636319D01*
X11843153Y-14607748D01*
X11852677Y-14588700D01*
X11871725Y-14560128D01*
X11881249Y-14550605D01*
X12043153Y-14645843D02*
X12043153Y-14779176D01*
X11995534Y-14569652D02*
X11947915Y-14712509D01*
X12071725Y-14712509D01*
X12138391Y-14598224D02*
X12147915Y-14588700D01*
X12166963Y-14579176D01*
X12214582Y-14579176D01*
X12233630Y-14588700D01*
X12243153Y-14598224D01*
X12252677Y-14617271D01*
X12252677Y-14636319D01*
X12243153Y-14664890D01*
X12128868Y-14779176D01*
X12252677Y-14779176D01*
X12490772Y-14779176D02*
X12490772Y-14579176D01*
X12576487Y-14779176D02*
X12576487Y-14674414D01*
X12566963Y-14655367D01*
X12547915Y-14645843D01*
X12519344Y-14645843D01*
X12500296Y-14655367D01*
X12490772Y-14664890D01*
X12700296Y-14779176D02*
X12681249Y-14769652D01*
X12671725Y-14760128D01*
X12662201Y-14741081D01*
X12662201Y-14683938D01*
X12671725Y-14664890D01*
X12681249Y-14655367D01*
X12700296Y-14645843D01*
X12728868Y-14645843D01*
X12747915Y-14655367D01*
X12757439Y-14664890D01*
X12766963Y-14683938D01*
X12766963Y-14741081D01*
X12757439Y-14760128D01*
X12747915Y-14769652D01*
X12728868Y-14779176D01*
X12700296Y-14779176D01*
X12881249Y-14779176D02*
X12862201Y-14769652D01*
X12852677Y-14750605D01*
X12852677Y-14579176D01*
X13033630Y-14769652D02*
X13014582Y-14779176D01*
X12976487Y-14779176D01*
X12957439Y-14769652D01*
X12947915Y-14750605D01*
X12947915Y-14674414D01*
X12957439Y-14655367D01*
X12976487Y-14645843D01*
X13014582Y-14645843D01*
X13033630Y-14655367D01*
X13043153Y-14674414D01*
X13043153Y-14693462D01*
X12947915Y-14712509D01*
X13119344Y-14769652D02*
X13138391Y-14779176D01*
X13176487Y-14779176D01*
X13195534Y-14769652D01*
X13205058Y-14750605D01*
X13205058Y-14741081D01*
X13195534Y-14722033D01*
X13176487Y-14712509D01*
X13147915Y-14712509D01*
X13128868Y-14702986D01*
X13119344Y-14683938D01*
X13119344Y-14674414D01*
X13128868Y-14655367D01*
X13147915Y-14645843D01*
X13176487Y-14645843D01*
X13195534Y-14655367D01*
X13271725Y-14855367D02*
X13281249Y-14845843D01*
X13300296Y-14817271D01*
X13309820Y-14798224D01*
X13319344Y-14769652D01*
X13328868Y-14722033D01*
X13328868Y-14683938D01*
X13319344Y-14636319D01*
X13309820Y-14607748D01*
X13300296Y-14588700D01*
X13281249Y-14560128D01*
X13271725Y-14550605D01*
D13*
X8309344Y-14952700D02*
G75*
G03*
X8309344Y-14952700I-19050J0D01*
G01*
D11*
X8605058Y-14843176D02*
X8624106Y-14843176D01*
X8643153Y-14852700D01*
X8652677Y-14862224D01*
X8662201Y-14881271D01*
X8671725Y-14919367D01*
X8671725Y-14966986D01*
X8662201Y-15005081D01*
X8652677Y-15024128D01*
X8643153Y-15033652D01*
X8624106Y-15043176D01*
X8605058Y-15043176D01*
X8586011Y-15033652D01*
X8576487Y-15024128D01*
X8566963Y-15005081D01*
X8557439Y-14966986D01*
X8557439Y-14919367D01*
X8566963Y-14881271D01*
X8576487Y-14862224D01*
X8586011Y-14852700D01*
X8605058Y-14843176D01*
X8757439Y-15024128D02*
X8766963Y-15033652D01*
X8757439Y-15043176D01*
X8747915Y-15033652D01*
X8757439Y-15024128D01*
X8757439Y-15043176D01*
X8833630Y-14843176D02*
X8957439Y-14843176D01*
X8890772Y-14919367D01*
X8919344Y-14919367D01*
X8938392Y-14928890D01*
X8947915Y-14938414D01*
X8957439Y-14957462D01*
X8957439Y-15005081D01*
X8947915Y-15024128D01*
X8938392Y-15033652D01*
X8919344Y-15043176D01*
X8862201Y-15043176D01*
X8843153Y-15033652D01*
X8833630Y-15024128D01*
X9071725Y-14928890D02*
X9052677Y-14919367D01*
X9043153Y-14909843D01*
X9033630Y-14890795D01*
X9033630Y-14881271D01*
X9043153Y-14862224D01*
X9052677Y-14852700D01*
X9071725Y-14843176D01*
X9109820Y-14843176D01*
X9128868Y-14852700D01*
X9138392Y-14862224D01*
X9147915Y-14881271D01*
X9147915Y-14890795D01*
X9138392Y-14909843D01*
X9128868Y-14919367D01*
X9109820Y-14928890D01*
X9071725Y-14928890D01*
X9052677Y-14938414D01*
X9043153Y-14947938D01*
X9033630Y-14966986D01*
X9033630Y-15005081D01*
X9043153Y-15024128D01*
X9052677Y-15033652D01*
X9071725Y-15043176D01*
X9109820Y-15043176D01*
X9128868Y-15033652D01*
X9138392Y-15024128D01*
X9147915Y-15005081D01*
X9147915Y-14966986D01*
X9138392Y-14947938D01*
X9128868Y-14938414D01*
X9109820Y-14928890D01*
X9338392Y-15043176D02*
X9224106Y-15043176D01*
X9281249Y-15043176D02*
X9281249Y-14843176D01*
X9262201Y-14871748D01*
X9243153Y-14890795D01*
X9224106Y-14900319D01*
X9424106Y-15043176D02*
X9424106Y-14909843D01*
X9424106Y-14928890D02*
X9433630Y-14919367D01*
X9452677Y-14909843D01*
X9481249Y-14909843D01*
X9500296Y-14919367D01*
X9509820Y-14938414D01*
X9509820Y-15043176D01*
X9509820Y-14938414D02*
X9519344Y-14919367D01*
X9538392Y-14909843D01*
X9566963Y-14909843D01*
X9586011Y-14919367D01*
X9595534Y-14938414D01*
X9595534Y-15043176D01*
X9690772Y-15043176D02*
X9690772Y-14909843D01*
X9690772Y-14928890D02*
X9700296Y-14919367D01*
X9719344Y-14909843D01*
X9747915Y-14909843D01*
X9766963Y-14919367D01*
X9776487Y-14938414D01*
X9776487Y-15043176D01*
X9776487Y-14938414D02*
X9786011Y-14919367D01*
X9805058Y-14909843D01*
X9833630Y-14909843D01*
X9852677Y-14919367D01*
X9862201Y-14938414D01*
X9862201Y-15043176D01*
X10252677Y-14833652D02*
X10081249Y-15090795D01*
X10509820Y-14843176D02*
X10528868Y-14843176D01*
X10547915Y-14852700D01*
X10557439Y-14862224D01*
X10566963Y-14881271D01*
X10576487Y-14919367D01*
X10576487Y-14966986D01*
X10566963Y-15005081D01*
X10557439Y-15024128D01*
X10547915Y-15033652D01*
X10528868Y-15043176D01*
X10509820Y-15043176D01*
X10490772Y-15033652D01*
X10481249Y-15024128D01*
X10471725Y-15005081D01*
X10462201Y-14966986D01*
X10462201Y-14919367D01*
X10471725Y-14881271D01*
X10481249Y-14862224D01*
X10490772Y-14852700D01*
X10509820Y-14843176D01*
X10662201Y-15024128D02*
X10671725Y-15033652D01*
X10662201Y-15043176D01*
X10652677Y-15033652D01*
X10662201Y-15024128D01*
X10662201Y-15043176D01*
X10795534Y-14843176D02*
X10814582Y-14843176D01*
X10833630Y-14852700D01*
X10843153Y-14862224D01*
X10852677Y-14881271D01*
X10862201Y-14919367D01*
X10862201Y-14966986D01*
X10852677Y-15005081D01*
X10843153Y-15024128D01*
X10833630Y-15033652D01*
X10814582Y-15043176D01*
X10795534Y-15043176D01*
X10776487Y-15033652D01*
X10766963Y-15024128D01*
X10757439Y-15005081D01*
X10747915Y-14966986D01*
X10747915Y-14919367D01*
X10757439Y-14881271D01*
X10766963Y-14862224D01*
X10776487Y-14852700D01*
X10795534Y-14843176D01*
X11052677Y-15043176D02*
X10938392Y-15043176D01*
X10995534Y-15043176D02*
X10995534Y-14843176D01*
X10976487Y-14871748D01*
X10957439Y-14890795D01*
X10938392Y-14900319D01*
X11233630Y-14843176D02*
X11138392Y-14843176D01*
X11128868Y-14938414D01*
X11138392Y-14928890D01*
X11157439Y-14919367D01*
X11205058Y-14919367D01*
X11224106Y-14928890D01*
X11233630Y-14938414D01*
X11243153Y-14957462D01*
X11243153Y-15005081D01*
X11233630Y-15024128D01*
X11224106Y-15033652D01*
X11205058Y-15043176D01*
X11157439Y-15043176D01*
X11138392Y-15033652D01*
X11128868Y-15024128D01*
X11366963Y-14843176D02*
X11386010Y-14843176D01*
X11405058Y-14852700D01*
X11414582Y-14862224D01*
X11424106Y-14881271D01*
X11433630Y-14919367D01*
X11433630Y-14966986D01*
X11424106Y-15005081D01*
X11414582Y-15024128D01*
X11405058Y-15033652D01*
X11386010Y-15043176D01*
X11366963Y-15043176D01*
X11347915Y-15033652D01*
X11338391Y-15024128D01*
X11328868Y-15005081D01*
X11319344Y-14966986D01*
X11319344Y-14919367D01*
X11328868Y-14881271D01*
X11338391Y-14862224D01*
X11347915Y-14852700D01*
X11366963Y-14843176D01*
X11509820Y-14843176D02*
X11509820Y-14881271D01*
X11586010Y-14843176D02*
X11586010Y-14881271D01*
X11881249Y-15119367D02*
X11871725Y-15109843D01*
X11852677Y-15081271D01*
X11843153Y-15062224D01*
X11833630Y-15033652D01*
X11824106Y-14986033D01*
X11824106Y-14947938D01*
X11833630Y-14900319D01*
X11843153Y-14871748D01*
X11852677Y-14852700D01*
X11871725Y-14824128D01*
X11881249Y-14814605D01*
X11947915Y-14862224D02*
X11957439Y-14852700D01*
X11976487Y-14843176D01*
X12024106Y-14843176D01*
X12043153Y-14852700D01*
X12052677Y-14862224D01*
X12062201Y-14881271D01*
X12062201Y-14900319D01*
X12052677Y-14928890D01*
X11938391Y-15043176D01*
X12062201Y-15043176D01*
X12300296Y-15043176D02*
X12300296Y-14843176D01*
X12386010Y-15043176D02*
X12386010Y-14938414D01*
X12376487Y-14919367D01*
X12357439Y-14909843D01*
X12328868Y-14909843D01*
X12309820Y-14919367D01*
X12300296Y-14928890D01*
X12509820Y-15043176D02*
X12490772Y-15033652D01*
X12481249Y-15024128D01*
X12471725Y-15005081D01*
X12471725Y-14947938D01*
X12481249Y-14928890D01*
X12490772Y-14919367D01*
X12509820Y-14909843D01*
X12538391Y-14909843D01*
X12557439Y-14919367D01*
X12566963Y-14928890D01*
X12576487Y-14947938D01*
X12576487Y-15005081D01*
X12566963Y-15024128D01*
X12557439Y-15033652D01*
X12538391Y-15043176D01*
X12509820Y-15043176D01*
X12690772Y-15043176D02*
X12671725Y-15033652D01*
X12662201Y-15014605D01*
X12662201Y-14843176D01*
X12843153Y-15033652D02*
X12824106Y-15043176D01*
X12786010Y-15043176D01*
X12766963Y-15033652D01*
X12757439Y-15014605D01*
X12757439Y-14938414D01*
X12766963Y-14919367D01*
X12786010Y-14909843D01*
X12824106Y-14909843D01*
X12843153Y-14919367D01*
X12852677Y-14938414D01*
X12852677Y-14957462D01*
X12757439Y-14976509D01*
X12928868Y-15033652D02*
X12947915Y-15043176D01*
X12986010Y-15043176D01*
X13005058Y-15033652D01*
X13014582Y-15014605D01*
X13014582Y-15005081D01*
X13005058Y-14986033D01*
X12986010Y-14976509D01*
X12957439Y-14976509D01*
X12938391Y-14966986D01*
X12928868Y-14947938D01*
X12928868Y-14938414D01*
X12938391Y-14919367D01*
X12957439Y-14909843D01*
X12986010Y-14909843D01*
X13005058Y-14919367D01*
X13081249Y-15119367D02*
X13090772Y-15109843D01*
X13109820Y-15081271D01*
X13119344Y-15062224D01*
X13128868Y-15033652D01*
X13138391Y-14986033D01*
X13138391Y-14947938D01*
X13128868Y-14900319D01*
X13119344Y-14871748D01*
X13109820Y-14852700D01*
X13090772Y-14824128D01*
X13081249Y-14814605D01*
D14*
X8289344Y-15196700D02*
X8289344Y-15236700D01*
X8269344Y-15216700D02*
X8309344Y-15216700D01*
D11*
X8605058Y-15107176D02*
X8624106Y-15107176D01*
X8643153Y-15116700D01*
X8652677Y-15126224D01*
X8662201Y-15145271D01*
X8671725Y-15183367D01*
X8671725Y-15230986D01*
X8662201Y-15269081D01*
X8652677Y-15288128D01*
X8643153Y-15297652D01*
X8624106Y-15307176D01*
X8605058Y-15307176D01*
X8586011Y-15297652D01*
X8576487Y-15288128D01*
X8566963Y-15269081D01*
X8557439Y-15230986D01*
X8557439Y-15183367D01*
X8566963Y-15145271D01*
X8576487Y-15126224D01*
X8586011Y-15116700D01*
X8605058Y-15107176D01*
X8757439Y-15288128D02*
X8766963Y-15297652D01*
X8757439Y-15307176D01*
X8747915Y-15297652D01*
X8757439Y-15288128D01*
X8757439Y-15307176D01*
X8938392Y-15173843D02*
X8938392Y-15307176D01*
X8890772Y-15097652D02*
X8843153Y-15240509D01*
X8966963Y-15240509D01*
X9081249Y-15107176D02*
X9100296Y-15107176D01*
X9119344Y-15116700D01*
X9128868Y-15126224D01*
X9138392Y-15145271D01*
X9147915Y-15183367D01*
X9147915Y-15230986D01*
X9138392Y-15269081D01*
X9128868Y-15288128D01*
X9119344Y-15297652D01*
X9100296Y-15307176D01*
X9081249Y-15307176D01*
X9062201Y-15297652D01*
X9052677Y-15288128D01*
X9043153Y-15269081D01*
X9033630Y-15230986D01*
X9033630Y-15183367D01*
X9043153Y-15145271D01*
X9052677Y-15126224D01*
X9062201Y-15116700D01*
X9081249Y-15107176D01*
X9271725Y-15107176D02*
X9290772Y-15107176D01*
X9309820Y-15116700D01*
X9319344Y-15126224D01*
X9328868Y-15145271D01*
X9338392Y-15183367D01*
X9338392Y-15230986D01*
X9328868Y-15269081D01*
X9319344Y-15288128D01*
X9309820Y-15297652D01*
X9290772Y-15307176D01*
X9271725Y-15307176D01*
X9252677Y-15297652D01*
X9243153Y-15288128D01*
X9233630Y-15269081D01*
X9224106Y-15230986D01*
X9224106Y-15183367D01*
X9233630Y-15145271D01*
X9243153Y-15126224D01*
X9252677Y-15116700D01*
X9271725Y-15107176D01*
X9424106Y-15307176D02*
X9424106Y-15173843D01*
X9424106Y-15192890D02*
X9433630Y-15183367D01*
X9452677Y-15173843D01*
X9481249Y-15173843D01*
X9500296Y-15183367D01*
X9509820Y-15202414D01*
X9509820Y-15307176D01*
X9509820Y-15202414D02*
X9519344Y-15183367D01*
X9538392Y-15173843D01*
X9566963Y-15173843D01*
X9586011Y-15183367D01*
X9595534Y-15202414D01*
X9595534Y-15307176D01*
X9690772Y-15307176D02*
X9690772Y-15173843D01*
X9690772Y-15192890D02*
X9700296Y-15183367D01*
X9719344Y-15173843D01*
X9747915Y-15173843D01*
X9766963Y-15183367D01*
X9776487Y-15202414D01*
X9776487Y-15307176D01*
X9776487Y-15202414D02*
X9786011Y-15183367D01*
X9805058Y-15173843D01*
X9833630Y-15173843D01*
X9852677Y-15183367D01*
X9862201Y-15202414D01*
X9862201Y-15307176D01*
X10252677Y-15097652D02*
X10081249Y-15354795D01*
X10509820Y-15107176D02*
X10528868Y-15107176D01*
X10547915Y-15116700D01*
X10557439Y-15126224D01*
X10566963Y-15145271D01*
X10576487Y-15183367D01*
X10576487Y-15230986D01*
X10566963Y-15269081D01*
X10557439Y-15288128D01*
X10547915Y-15297652D01*
X10528868Y-15307176D01*
X10509820Y-15307176D01*
X10490772Y-15297652D01*
X10481249Y-15288128D01*
X10471725Y-15269081D01*
X10462201Y-15230986D01*
X10462201Y-15183367D01*
X10471725Y-15145271D01*
X10481249Y-15126224D01*
X10490772Y-15116700D01*
X10509820Y-15107176D01*
X10662201Y-15288128D02*
X10671725Y-15297652D01*
X10662201Y-15307176D01*
X10652677Y-15297652D01*
X10662201Y-15288128D01*
X10662201Y-15307176D01*
X10795534Y-15107176D02*
X10814582Y-15107176D01*
X10833630Y-15116700D01*
X10843153Y-15126224D01*
X10852677Y-15145271D01*
X10862201Y-15183367D01*
X10862201Y-15230986D01*
X10852677Y-15269081D01*
X10843153Y-15288128D01*
X10833630Y-15297652D01*
X10814582Y-15307176D01*
X10795534Y-15307176D01*
X10776487Y-15297652D01*
X10766963Y-15288128D01*
X10757439Y-15269081D01*
X10747915Y-15230986D01*
X10747915Y-15183367D01*
X10757439Y-15145271D01*
X10766963Y-15126224D01*
X10776487Y-15116700D01*
X10795534Y-15107176D01*
X11052677Y-15307176D02*
X10938392Y-15307176D01*
X10995534Y-15307176D02*
X10995534Y-15107176D01*
X10976487Y-15135748D01*
X10957439Y-15154795D01*
X10938392Y-15164319D01*
X11233630Y-15107176D02*
X11138392Y-15107176D01*
X11128868Y-15202414D01*
X11138392Y-15192890D01*
X11157439Y-15183367D01*
X11205058Y-15183367D01*
X11224106Y-15192890D01*
X11233630Y-15202414D01*
X11243153Y-15221462D01*
X11243153Y-15269081D01*
X11233630Y-15288128D01*
X11224106Y-15297652D01*
X11205058Y-15307176D01*
X11157439Y-15307176D01*
X11138392Y-15297652D01*
X11128868Y-15288128D01*
X11309820Y-15107176D02*
X11443153Y-15107176D01*
X11357439Y-15307176D01*
X11509820Y-15107176D02*
X11509820Y-15145271D01*
X11586010Y-15107176D02*
X11586010Y-15145271D01*
X11881249Y-15383367D02*
X11871725Y-15373843D01*
X11852677Y-15345271D01*
X11843153Y-15326224D01*
X11833630Y-15297652D01*
X11824106Y-15250033D01*
X11824106Y-15211938D01*
X11833630Y-15164319D01*
X11843153Y-15135748D01*
X11852677Y-15116700D01*
X11871725Y-15088128D01*
X11881249Y-15078605D01*
X12052677Y-15107176D02*
X11957439Y-15107176D01*
X11947915Y-15202414D01*
X11957439Y-15192890D01*
X11976487Y-15183367D01*
X12024106Y-15183367D01*
X12043153Y-15192890D01*
X12052677Y-15202414D01*
X12062201Y-15221462D01*
X12062201Y-15269081D01*
X12052677Y-15288128D01*
X12043153Y-15297652D01*
X12024106Y-15307176D01*
X11976487Y-15307176D01*
X11957439Y-15297652D01*
X11947915Y-15288128D01*
X12300296Y-15307176D02*
X12300296Y-15107176D01*
X12386010Y-15307176D02*
X12386010Y-15202414D01*
X12376487Y-15183367D01*
X12357439Y-15173843D01*
X12328868Y-15173843D01*
X12309820Y-15183367D01*
X12300296Y-15192890D01*
X12509820Y-15307176D02*
X12490772Y-15297652D01*
X12481249Y-15288128D01*
X12471725Y-15269081D01*
X12471725Y-15211938D01*
X12481249Y-15192890D01*
X12490772Y-15183367D01*
X12509820Y-15173843D01*
X12538391Y-15173843D01*
X12557439Y-15183367D01*
X12566963Y-15192890D01*
X12576487Y-15211938D01*
X12576487Y-15269081D01*
X12566963Y-15288128D01*
X12557439Y-15297652D01*
X12538391Y-15307176D01*
X12509820Y-15307176D01*
X12690772Y-15307176D02*
X12671725Y-15297652D01*
X12662201Y-15278605D01*
X12662201Y-15107176D01*
X12843153Y-15297652D02*
X12824106Y-15307176D01*
X12786010Y-15307176D01*
X12766963Y-15297652D01*
X12757439Y-15278605D01*
X12757439Y-15202414D01*
X12766963Y-15183367D01*
X12786010Y-15173843D01*
X12824106Y-15173843D01*
X12843153Y-15183367D01*
X12852677Y-15202414D01*
X12852677Y-15221462D01*
X12757439Y-15240509D01*
X12928868Y-15297652D02*
X12947915Y-15307176D01*
X12986010Y-15307176D01*
X13005058Y-15297652D01*
X13014582Y-15278605D01*
X13014582Y-15269081D01*
X13005058Y-15250033D01*
X12986010Y-15240509D01*
X12957439Y-15240509D01*
X12938391Y-15230986D01*
X12928868Y-15211938D01*
X12928868Y-15202414D01*
X12938391Y-15183367D01*
X12957439Y-15173843D01*
X12986010Y-15173843D01*
X13005058Y-15183367D01*
X13081249Y-15383367D02*
X13090772Y-15373843D01*
X13109820Y-15345271D01*
X13119344Y-15326224D01*
X13128868Y-15297652D01*
X13138391Y-15250033D01*
X13138391Y-15211938D01*
X13128868Y-15164319D01*
X13119344Y-15135748D01*
X13109820Y-15116700D01*
X13090772Y-15088128D01*
X13081249Y-15078605D01*
D15*
X8301905Y-15498661D02*
X8301905Y-15462739D01*
X8265983Y-15462739D01*
X8265983Y-15498661D01*
X8301905Y-15498661D01*
D11*
X8605058Y-15371176D02*
X8624106Y-15371176D01*
X8643153Y-15380700D01*
X8652677Y-15390224D01*
X8662201Y-15409271D01*
X8671725Y-15447367D01*
X8671725Y-15494986D01*
X8662201Y-15533081D01*
X8652677Y-15552128D01*
X8643153Y-15561652D01*
X8624106Y-15571176D01*
X8605058Y-15571176D01*
X8586011Y-15561652D01*
X8576487Y-15552128D01*
X8566963Y-15533081D01*
X8557439Y-15494986D01*
X8557439Y-15447367D01*
X8566963Y-15409271D01*
X8576487Y-15390224D01*
X8586011Y-15380700D01*
X8605058Y-15371176D01*
X8757439Y-15552128D02*
X8766963Y-15561652D01*
X8757439Y-15571176D01*
X8747915Y-15561652D01*
X8757439Y-15552128D01*
X8757439Y-15571176D01*
X8947915Y-15371176D02*
X8852677Y-15371176D01*
X8843153Y-15466414D01*
X8852677Y-15456890D01*
X8871725Y-15447367D01*
X8919344Y-15447367D01*
X8938392Y-15456890D01*
X8947915Y-15466414D01*
X8957439Y-15485462D01*
X8957439Y-15533081D01*
X8947915Y-15552128D01*
X8938392Y-15561652D01*
X8919344Y-15571176D01*
X8871725Y-15571176D01*
X8852677Y-15561652D01*
X8843153Y-15552128D01*
X9081249Y-15371176D02*
X9100296Y-15371176D01*
X9119344Y-15380700D01*
X9128868Y-15390224D01*
X9138392Y-15409271D01*
X9147915Y-15447367D01*
X9147915Y-15494986D01*
X9138392Y-15533081D01*
X9128868Y-15552128D01*
X9119344Y-15561652D01*
X9100296Y-15571176D01*
X9081249Y-15571176D01*
X9062201Y-15561652D01*
X9052677Y-15552128D01*
X9043153Y-15533081D01*
X9033630Y-15494986D01*
X9033630Y-15447367D01*
X9043153Y-15409271D01*
X9052677Y-15390224D01*
X9062201Y-15380700D01*
X9081249Y-15371176D01*
X9262201Y-15456890D02*
X9243153Y-15447367D01*
X9233630Y-15437843D01*
X9224106Y-15418795D01*
X9224106Y-15409271D01*
X9233630Y-15390224D01*
X9243153Y-15380700D01*
X9262201Y-15371176D01*
X9300296Y-15371176D01*
X9319344Y-15380700D01*
X9328868Y-15390224D01*
X9338392Y-15409271D01*
X9338392Y-15418795D01*
X9328868Y-15437843D01*
X9319344Y-15447367D01*
X9300296Y-15456890D01*
X9262201Y-15456890D01*
X9243153Y-15466414D01*
X9233630Y-15475938D01*
X9224106Y-15494986D01*
X9224106Y-15533081D01*
X9233630Y-15552128D01*
X9243153Y-15561652D01*
X9262201Y-15571176D01*
X9300296Y-15571176D01*
X9319344Y-15561652D01*
X9328868Y-15552128D01*
X9338392Y-15533081D01*
X9338392Y-15494986D01*
X9328868Y-15475938D01*
X9319344Y-15466414D01*
X9300296Y-15456890D01*
X9424106Y-15571176D02*
X9424106Y-15437843D01*
X9424106Y-15456890D02*
X9433630Y-15447367D01*
X9452677Y-15437843D01*
X9481249Y-15437843D01*
X9500296Y-15447367D01*
X9509820Y-15466414D01*
X9509820Y-15571176D01*
X9509820Y-15466414D02*
X9519344Y-15447367D01*
X9538392Y-15437843D01*
X9566963Y-15437843D01*
X9586011Y-15447367D01*
X9595534Y-15466414D01*
X9595534Y-15571176D01*
X9690772Y-15571176D02*
X9690772Y-15437843D01*
X9690772Y-15456890D02*
X9700296Y-15447367D01*
X9719344Y-15437843D01*
X9747915Y-15437843D01*
X9766963Y-15447367D01*
X9776487Y-15466414D01*
X9776487Y-15571176D01*
X9776487Y-15466414D02*
X9786011Y-15447367D01*
X9805058Y-15437843D01*
X9833630Y-15437843D01*
X9852677Y-15447367D01*
X9862201Y-15466414D01*
X9862201Y-15571176D01*
X10252677Y-15361652D02*
X10081249Y-15618795D01*
X10509820Y-15371176D02*
X10528868Y-15371176D01*
X10547915Y-15380700D01*
X10557439Y-15390224D01*
X10566963Y-15409271D01*
X10576487Y-15447367D01*
X10576487Y-15494986D01*
X10566963Y-15533081D01*
X10557439Y-15552128D01*
X10547915Y-15561652D01*
X10528868Y-15571176D01*
X10509820Y-15571176D01*
X10490772Y-15561652D01*
X10481249Y-15552128D01*
X10471725Y-15533081D01*
X10462201Y-15494986D01*
X10462201Y-15447367D01*
X10471725Y-15409271D01*
X10481249Y-15390224D01*
X10490772Y-15380700D01*
X10509820Y-15371176D01*
X10662201Y-15552128D02*
X10671725Y-15561652D01*
X10662201Y-15571176D01*
X10652677Y-15561652D01*
X10662201Y-15552128D01*
X10662201Y-15571176D01*
X10795534Y-15371176D02*
X10814582Y-15371176D01*
X10833630Y-15380700D01*
X10843153Y-15390224D01*
X10852677Y-15409271D01*
X10862201Y-15447367D01*
X10862201Y-15494986D01*
X10852677Y-15533081D01*
X10843153Y-15552128D01*
X10833630Y-15561652D01*
X10814582Y-15571176D01*
X10795534Y-15571176D01*
X10776487Y-15561652D01*
X10766963Y-15552128D01*
X10757439Y-15533081D01*
X10747915Y-15494986D01*
X10747915Y-15447367D01*
X10757439Y-15409271D01*
X10766963Y-15390224D01*
X10776487Y-15380700D01*
X10795534Y-15371176D01*
X10938392Y-15390224D02*
X10947915Y-15380700D01*
X10966963Y-15371176D01*
X11014582Y-15371176D01*
X11033630Y-15380700D01*
X11043153Y-15390224D01*
X11052677Y-15409271D01*
X11052677Y-15428319D01*
X11043153Y-15456890D01*
X10928868Y-15571176D01*
X11052677Y-15571176D01*
X11176487Y-15371176D02*
X11195534Y-15371176D01*
X11214582Y-15380700D01*
X11224106Y-15390224D01*
X11233630Y-15409271D01*
X11243153Y-15447367D01*
X11243153Y-15494986D01*
X11233630Y-15533081D01*
X11224106Y-15552128D01*
X11214582Y-15561652D01*
X11195534Y-15571176D01*
X11176487Y-15571176D01*
X11157439Y-15561652D01*
X11147915Y-15552128D01*
X11138392Y-15533081D01*
X11128868Y-15494986D01*
X11128868Y-15447367D01*
X11138392Y-15409271D01*
X11147915Y-15390224D01*
X11157439Y-15380700D01*
X11176487Y-15371176D01*
X11366963Y-15371176D02*
X11386010Y-15371176D01*
X11405058Y-15380700D01*
X11414582Y-15390224D01*
X11424106Y-15409271D01*
X11433630Y-15447367D01*
X11433630Y-15494986D01*
X11424106Y-15533081D01*
X11414582Y-15552128D01*
X11405058Y-15561652D01*
X11386010Y-15571176D01*
X11366963Y-15571176D01*
X11347915Y-15561652D01*
X11338391Y-15552128D01*
X11328868Y-15533081D01*
X11319344Y-15494986D01*
X11319344Y-15447367D01*
X11328868Y-15409271D01*
X11338391Y-15390224D01*
X11347915Y-15380700D01*
X11366963Y-15371176D01*
X11509820Y-15371176D02*
X11509820Y-15409271D01*
X11586010Y-15371176D02*
X11586010Y-15409271D01*
X11881249Y-15647367D02*
X11871725Y-15637843D01*
X11852677Y-15609271D01*
X11843153Y-15590224D01*
X11833630Y-15561652D01*
X11824106Y-15514033D01*
X11824106Y-15475938D01*
X11833630Y-15428319D01*
X11843153Y-15399748D01*
X11852677Y-15380700D01*
X11871725Y-15352128D01*
X11881249Y-15342605D01*
X12052677Y-15371176D02*
X11957439Y-15371176D01*
X11947915Y-15466414D01*
X11957439Y-15456890D01*
X11976487Y-15447367D01*
X12024106Y-15447367D01*
X12043153Y-15456890D01*
X12052677Y-15466414D01*
X12062201Y-15485462D01*
X12062201Y-15533081D01*
X12052677Y-15552128D01*
X12043153Y-15561652D01*
X12024106Y-15571176D01*
X11976487Y-15571176D01*
X11957439Y-15561652D01*
X11947915Y-15552128D01*
X12300296Y-15571176D02*
X12300296Y-15371176D01*
X12386010Y-15571176D02*
X12386010Y-15466414D01*
X12376487Y-15447367D01*
X12357439Y-15437843D01*
X12328868Y-15437843D01*
X12309820Y-15447367D01*
X12300296Y-15456890D01*
X12509820Y-15571176D02*
X12490772Y-15561652D01*
X12481249Y-15552128D01*
X12471725Y-15533081D01*
X12471725Y-15475938D01*
X12481249Y-15456890D01*
X12490772Y-15447367D01*
X12509820Y-15437843D01*
X12538391Y-15437843D01*
X12557439Y-15447367D01*
X12566963Y-15456890D01*
X12576487Y-15475938D01*
X12576487Y-15533081D01*
X12566963Y-15552128D01*
X12557439Y-15561652D01*
X12538391Y-15571176D01*
X12509820Y-15571176D01*
X12690772Y-15571176D02*
X12671725Y-15561652D01*
X12662201Y-15542605D01*
X12662201Y-15371176D01*
X12843153Y-15561652D02*
X12824106Y-15571176D01*
X12786010Y-15571176D01*
X12766963Y-15561652D01*
X12757439Y-15542605D01*
X12757439Y-15466414D01*
X12766963Y-15447367D01*
X12786010Y-15437843D01*
X12824106Y-15437843D01*
X12843153Y-15447367D01*
X12852677Y-15466414D01*
X12852677Y-15485462D01*
X12757439Y-15504509D01*
X12928868Y-15561652D02*
X12947915Y-15571176D01*
X12986010Y-15571176D01*
X13005058Y-15561652D01*
X13014582Y-15542605D01*
X13014582Y-15533081D01*
X13005058Y-15514033D01*
X12986010Y-15504509D01*
X12957439Y-15504509D01*
X12938391Y-15494986D01*
X12928868Y-15475938D01*
X12928868Y-15466414D01*
X12938391Y-15447367D01*
X12957439Y-15437843D01*
X12986010Y-15437843D01*
X13005058Y-15447367D01*
X13081249Y-15647367D02*
X13090772Y-15637843D01*
X13109820Y-15609271D01*
X13119344Y-15590224D01*
X13128868Y-15561652D01*
X13138391Y-15514033D01*
X13138391Y-15475938D01*
X13128868Y-15428319D01*
X13119344Y-15399748D01*
X13109820Y-15380700D01*
X13090772Y-15352128D01*
X13081249Y-15342605D01*
D16*
X8274344Y-15779700D02*
X8309344Y-15744700D01*
X8274344Y-15709700D01*
X8239344Y-15744700D01*
X8274344Y-15779700D01*
D11*
X8605058Y-15635176D02*
X8624106Y-15635176D01*
X8643153Y-15644700D01*
X8652677Y-15654224D01*
X8662201Y-15673271D01*
X8671725Y-15711367D01*
X8671725Y-15758986D01*
X8662201Y-15797081D01*
X8652677Y-15816128D01*
X8643153Y-15825652D01*
X8624106Y-15835176D01*
X8605058Y-15835176D01*
X8586011Y-15825652D01*
X8576487Y-15816128D01*
X8566963Y-15797081D01*
X8557439Y-15758986D01*
X8557439Y-15711367D01*
X8566963Y-15673271D01*
X8576487Y-15654224D01*
X8586011Y-15644700D01*
X8605058Y-15635176D01*
X8757439Y-15816128D02*
X8766963Y-15825652D01*
X8757439Y-15835176D01*
X8747915Y-15825652D01*
X8757439Y-15816128D01*
X8757439Y-15835176D01*
X8833630Y-15635176D02*
X8966963Y-15635176D01*
X8881249Y-15835176D01*
X9081249Y-15635176D02*
X9100296Y-15635176D01*
X9119344Y-15644700D01*
X9128868Y-15654224D01*
X9138392Y-15673271D01*
X9147915Y-15711367D01*
X9147915Y-15758986D01*
X9138392Y-15797081D01*
X9128868Y-15816128D01*
X9119344Y-15825652D01*
X9100296Y-15835176D01*
X9081249Y-15835176D01*
X9062201Y-15825652D01*
X9052677Y-15816128D01*
X9043153Y-15797081D01*
X9033630Y-15758986D01*
X9033630Y-15711367D01*
X9043153Y-15673271D01*
X9052677Y-15654224D01*
X9062201Y-15644700D01*
X9081249Y-15635176D01*
X9271725Y-15635176D02*
X9290772Y-15635176D01*
X9309820Y-15644700D01*
X9319344Y-15654224D01*
X9328868Y-15673271D01*
X9338392Y-15711367D01*
X9338392Y-15758986D01*
X9328868Y-15797081D01*
X9319344Y-15816128D01*
X9309820Y-15825652D01*
X9290772Y-15835176D01*
X9271725Y-15835176D01*
X9252677Y-15825652D01*
X9243153Y-15816128D01*
X9233630Y-15797081D01*
X9224106Y-15758986D01*
X9224106Y-15711367D01*
X9233630Y-15673271D01*
X9243153Y-15654224D01*
X9252677Y-15644700D01*
X9271725Y-15635176D01*
X9424106Y-15835176D02*
X9424106Y-15701843D01*
X9424106Y-15720890D02*
X9433630Y-15711367D01*
X9452677Y-15701843D01*
X9481249Y-15701843D01*
X9500296Y-15711367D01*
X9509820Y-15730414D01*
X9509820Y-15835176D01*
X9509820Y-15730414D02*
X9519344Y-15711367D01*
X9538392Y-15701843D01*
X9566963Y-15701843D01*
X9586011Y-15711367D01*
X9595534Y-15730414D01*
X9595534Y-15835176D01*
X9690772Y-15835176D02*
X9690772Y-15701843D01*
X9690772Y-15720890D02*
X9700296Y-15711367D01*
X9719344Y-15701843D01*
X9747915Y-15701843D01*
X9766963Y-15711367D01*
X9776487Y-15730414D01*
X9776487Y-15835176D01*
X9776487Y-15730414D02*
X9786011Y-15711367D01*
X9805058Y-15701843D01*
X9833630Y-15701843D01*
X9852677Y-15711367D01*
X9862201Y-15730414D01*
X9862201Y-15835176D01*
X10252677Y-15625652D02*
X10081249Y-15882795D01*
X10509820Y-15635176D02*
X10528868Y-15635176D01*
X10547915Y-15644700D01*
X10557439Y-15654224D01*
X10566963Y-15673271D01*
X10576487Y-15711367D01*
X10576487Y-15758986D01*
X10566963Y-15797081D01*
X10557439Y-15816128D01*
X10547915Y-15825652D01*
X10528868Y-15835176D01*
X10509820Y-15835176D01*
X10490772Y-15825652D01*
X10481249Y-15816128D01*
X10471725Y-15797081D01*
X10462201Y-15758986D01*
X10462201Y-15711367D01*
X10471725Y-15673271D01*
X10481249Y-15654224D01*
X10490772Y-15644700D01*
X10509820Y-15635176D01*
X10662201Y-15816128D02*
X10671725Y-15825652D01*
X10662201Y-15835176D01*
X10652677Y-15825652D01*
X10662201Y-15816128D01*
X10662201Y-15835176D01*
X10795534Y-15635176D02*
X10814582Y-15635176D01*
X10833630Y-15644700D01*
X10843153Y-15654224D01*
X10852677Y-15673271D01*
X10862201Y-15711367D01*
X10862201Y-15758986D01*
X10852677Y-15797081D01*
X10843153Y-15816128D01*
X10833630Y-15825652D01*
X10814582Y-15835176D01*
X10795534Y-15835176D01*
X10776487Y-15825652D01*
X10766963Y-15816128D01*
X10757439Y-15797081D01*
X10747915Y-15758986D01*
X10747915Y-15711367D01*
X10757439Y-15673271D01*
X10766963Y-15654224D01*
X10776487Y-15644700D01*
X10795534Y-15635176D01*
X10938392Y-15654224D02*
X10947915Y-15644700D01*
X10966963Y-15635176D01*
X11014582Y-15635176D01*
X11033630Y-15644700D01*
X11043153Y-15654224D01*
X11052677Y-15673271D01*
X11052677Y-15692319D01*
X11043153Y-15720890D01*
X10928868Y-15835176D01*
X11052677Y-15835176D01*
X11119344Y-15635176D02*
X11252677Y-15635176D01*
X11166963Y-15835176D01*
X11414582Y-15635176D02*
X11376487Y-15635176D01*
X11357439Y-15644700D01*
X11347915Y-15654224D01*
X11328868Y-15682795D01*
X11319344Y-15720890D01*
X11319344Y-15797081D01*
X11328868Y-15816128D01*
X11338391Y-15825652D01*
X11357439Y-15835176D01*
X11395534Y-15835176D01*
X11414582Y-15825652D01*
X11424106Y-15816128D01*
X11433630Y-15797081D01*
X11433630Y-15749462D01*
X11424106Y-15730414D01*
X11414582Y-15720890D01*
X11395534Y-15711367D01*
X11357439Y-15711367D01*
X11338391Y-15720890D01*
X11328868Y-15730414D01*
X11319344Y-15749462D01*
X11509820Y-15635176D02*
X11509820Y-15673271D01*
X11586010Y-15635176D02*
X11586010Y-15673271D01*
X11881249Y-15911367D02*
X11871725Y-15901843D01*
X11852677Y-15873271D01*
X11843153Y-15854224D01*
X11833630Y-15825652D01*
X11824106Y-15778033D01*
X11824106Y-15739938D01*
X11833630Y-15692319D01*
X11843153Y-15663748D01*
X11852677Y-15644700D01*
X11871725Y-15616128D01*
X11881249Y-15606605D01*
X11966963Y-15835176D02*
X12005058Y-15835176D01*
X12024106Y-15825652D01*
X12033630Y-15816128D01*
X12052677Y-15787557D01*
X12062201Y-15749462D01*
X12062201Y-15673271D01*
X12052677Y-15654224D01*
X12043153Y-15644700D01*
X12024106Y-15635176D01*
X11986010Y-15635176D01*
X11966963Y-15644700D01*
X11957439Y-15654224D01*
X11947915Y-15673271D01*
X11947915Y-15720890D01*
X11957439Y-15739938D01*
X11966963Y-15749462D01*
X11986010Y-15758986D01*
X12024106Y-15758986D01*
X12043153Y-15749462D01*
X12052677Y-15739938D01*
X12062201Y-15720890D01*
X12300296Y-15835176D02*
X12300296Y-15635176D01*
X12386010Y-15835176D02*
X12386010Y-15730414D01*
X12376487Y-15711367D01*
X12357439Y-15701843D01*
X12328868Y-15701843D01*
X12309820Y-15711367D01*
X12300296Y-15720890D01*
X12509820Y-15835176D02*
X12490772Y-15825652D01*
X12481249Y-15816128D01*
X12471725Y-15797081D01*
X12471725Y-15739938D01*
X12481249Y-15720890D01*
X12490772Y-15711367D01*
X12509820Y-15701843D01*
X12538391Y-15701843D01*
X12557439Y-15711367D01*
X12566963Y-15720890D01*
X12576487Y-15739938D01*
X12576487Y-15797081D01*
X12566963Y-15816128D01*
X12557439Y-15825652D01*
X12538391Y-15835176D01*
X12509820Y-15835176D01*
X12690772Y-15835176D02*
X12671725Y-15825652D01*
X12662201Y-15806605D01*
X12662201Y-15635176D01*
X12843153Y-15825652D02*
X12824106Y-15835176D01*
X12786010Y-15835176D01*
X12766963Y-15825652D01*
X12757439Y-15806605D01*
X12757439Y-15730414D01*
X12766963Y-15711367D01*
X12786010Y-15701843D01*
X12824106Y-15701843D01*
X12843153Y-15711367D01*
X12852677Y-15730414D01*
X12852677Y-15749462D01*
X12757439Y-15768509D01*
X12928868Y-15825652D02*
X12947915Y-15835176D01*
X12986010Y-15835176D01*
X13005058Y-15825652D01*
X13014582Y-15806605D01*
X13014582Y-15797081D01*
X13005058Y-15778033D01*
X12986010Y-15768509D01*
X12957439Y-15768509D01*
X12938391Y-15758986D01*
X12928868Y-15739938D01*
X12928868Y-15730414D01*
X12938391Y-15711367D01*
X12957439Y-15701843D01*
X12986010Y-15701843D01*
X13005058Y-15711367D01*
X13081249Y-15911367D02*
X13090772Y-15901843D01*
X13109820Y-15873271D01*
X13119344Y-15854224D01*
X13128868Y-15825652D01*
X13138391Y-15778033D01*
X13138391Y-15739938D01*
X13128868Y-15692319D01*
X13119344Y-15663748D01*
X13109820Y-15644700D01*
X13090772Y-15616128D01*
X13081249Y-15606605D01*
D17*
X8233144Y-15970600D02*
X8309344Y-16046800D01*
X8309344Y-15970600D02*
X8233144Y-16046800D01*
X8309344Y-16008700D02*
G75*
G03*
X8309344Y-16008700I-38100J0D01*
G01*
D11*
X8605058Y-15899176D02*
X8624106Y-15899176D01*
X8643153Y-15908700D01*
X8652677Y-15918224D01*
X8662201Y-15937271D01*
X8671725Y-15975367D01*
X8671725Y-16022986D01*
X8662201Y-16061081D01*
X8652677Y-16080128D01*
X8643153Y-16089652D01*
X8624106Y-16099176D01*
X8605058Y-16099176D01*
X8586011Y-16089652D01*
X8576487Y-16080128D01*
X8566963Y-16061081D01*
X8557439Y-16022986D01*
X8557439Y-15975367D01*
X8566963Y-15937271D01*
X8576487Y-15918224D01*
X8586011Y-15908700D01*
X8605058Y-15899176D01*
X8757439Y-16080128D02*
X8766963Y-16089652D01*
X8757439Y-16099176D01*
X8747915Y-16089652D01*
X8757439Y-16080128D01*
X8757439Y-16099176D01*
X8833630Y-15899176D02*
X8966963Y-15899176D01*
X8881249Y-16099176D01*
X9128868Y-15899176D02*
X9090772Y-15899176D01*
X9071725Y-15908700D01*
X9062201Y-15918224D01*
X9043153Y-15946795D01*
X9033630Y-15984890D01*
X9033630Y-16061081D01*
X9043153Y-16080128D01*
X9052677Y-16089652D01*
X9071725Y-16099176D01*
X9109820Y-16099176D01*
X9128868Y-16089652D01*
X9138392Y-16080128D01*
X9147915Y-16061081D01*
X9147915Y-16013462D01*
X9138392Y-15994414D01*
X9128868Y-15984890D01*
X9109820Y-15975367D01*
X9071725Y-15975367D01*
X9052677Y-15984890D01*
X9043153Y-15994414D01*
X9033630Y-16013462D01*
X9224106Y-15918224D02*
X9233630Y-15908700D01*
X9252677Y-15899176D01*
X9300296Y-15899176D01*
X9319344Y-15908700D01*
X9328868Y-15918224D01*
X9338392Y-15937271D01*
X9338392Y-15956319D01*
X9328868Y-15984890D01*
X9214582Y-16099176D01*
X9338392Y-16099176D01*
X9424106Y-16099176D02*
X9424106Y-15965843D01*
X9424106Y-15984890D02*
X9433630Y-15975367D01*
X9452677Y-15965843D01*
X9481249Y-15965843D01*
X9500296Y-15975367D01*
X9509820Y-15994414D01*
X9509820Y-16099176D01*
X9509820Y-15994414D02*
X9519344Y-15975367D01*
X9538392Y-15965843D01*
X9566963Y-15965843D01*
X9586011Y-15975367D01*
X9595534Y-15994414D01*
X9595534Y-16099176D01*
X9690772Y-16099176D02*
X9690772Y-15965843D01*
X9690772Y-15984890D02*
X9700296Y-15975367D01*
X9719344Y-15965843D01*
X9747915Y-15965843D01*
X9766963Y-15975367D01*
X9776487Y-15994414D01*
X9776487Y-16099176D01*
X9776487Y-15994414D02*
X9786011Y-15975367D01*
X9805058Y-15965843D01*
X9833630Y-15965843D01*
X9852677Y-15975367D01*
X9862201Y-15994414D01*
X9862201Y-16099176D01*
X10252677Y-15889652D02*
X10081249Y-16146795D01*
X10509820Y-15899176D02*
X10528868Y-15899176D01*
X10547915Y-15908700D01*
X10557439Y-15918224D01*
X10566963Y-15937271D01*
X10576487Y-15975367D01*
X10576487Y-16022986D01*
X10566963Y-16061081D01*
X10557439Y-16080128D01*
X10547915Y-16089652D01*
X10528868Y-16099176D01*
X10509820Y-16099176D01*
X10490772Y-16089652D01*
X10481249Y-16080128D01*
X10471725Y-16061081D01*
X10462201Y-16022986D01*
X10462201Y-15975367D01*
X10471725Y-15937271D01*
X10481249Y-15918224D01*
X10490772Y-15908700D01*
X10509820Y-15899176D01*
X10662201Y-16080128D02*
X10671725Y-16089652D01*
X10662201Y-16099176D01*
X10652677Y-16089652D01*
X10662201Y-16080128D01*
X10662201Y-16099176D01*
X10795534Y-15899176D02*
X10814582Y-15899176D01*
X10833630Y-15908700D01*
X10843153Y-15918224D01*
X10852677Y-15937271D01*
X10862201Y-15975367D01*
X10862201Y-16022986D01*
X10852677Y-16061081D01*
X10843153Y-16080128D01*
X10833630Y-16089652D01*
X10814582Y-16099176D01*
X10795534Y-16099176D01*
X10776487Y-16089652D01*
X10766963Y-16080128D01*
X10757439Y-16061081D01*
X10747915Y-16022986D01*
X10747915Y-15975367D01*
X10757439Y-15937271D01*
X10766963Y-15918224D01*
X10776487Y-15908700D01*
X10795534Y-15899176D01*
X10928868Y-15899176D02*
X11052677Y-15899176D01*
X10986011Y-15975367D01*
X11014582Y-15975367D01*
X11033630Y-15984890D01*
X11043153Y-15994414D01*
X11052677Y-16013462D01*
X11052677Y-16061081D01*
X11043153Y-16080128D01*
X11033630Y-16089652D01*
X11014582Y-16099176D01*
X10957439Y-16099176D01*
X10938392Y-16089652D01*
X10928868Y-16080128D01*
X11176487Y-15899176D02*
X11195534Y-15899176D01*
X11214582Y-15908700D01*
X11224106Y-15918224D01*
X11233630Y-15937271D01*
X11243153Y-15975367D01*
X11243153Y-16022986D01*
X11233630Y-16061081D01*
X11224106Y-16080128D01*
X11214582Y-16089652D01*
X11195534Y-16099176D01*
X11176487Y-16099176D01*
X11157439Y-16089652D01*
X11147915Y-16080128D01*
X11138392Y-16061081D01*
X11128868Y-16022986D01*
X11128868Y-15975367D01*
X11138392Y-15937271D01*
X11147915Y-15918224D01*
X11157439Y-15908700D01*
X11176487Y-15899176D01*
X11366963Y-15899176D02*
X11386010Y-15899176D01*
X11405058Y-15908700D01*
X11414582Y-15918224D01*
X11424106Y-15937271D01*
X11433630Y-15975367D01*
X11433630Y-16022986D01*
X11424106Y-16061081D01*
X11414582Y-16080128D01*
X11405058Y-16089652D01*
X11386010Y-16099176D01*
X11366963Y-16099176D01*
X11347915Y-16089652D01*
X11338391Y-16080128D01*
X11328868Y-16061081D01*
X11319344Y-16022986D01*
X11319344Y-15975367D01*
X11328868Y-15937271D01*
X11338391Y-15918224D01*
X11347915Y-15908700D01*
X11366963Y-15899176D01*
X11509820Y-15899176D02*
X11509820Y-15937271D01*
X11586010Y-15899176D02*
X11586010Y-15937271D01*
X11881249Y-16175367D02*
X11871725Y-16165843D01*
X11852677Y-16137271D01*
X11843153Y-16118224D01*
X11833630Y-16089652D01*
X11824106Y-16042033D01*
X11824106Y-16003938D01*
X11833630Y-15956319D01*
X11843153Y-15927748D01*
X11852677Y-15908700D01*
X11871725Y-15880128D01*
X11881249Y-15870605D01*
X12043153Y-15965843D02*
X12043153Y-16099176D01*
X11995534Y-15889652D02*
X11947915Y-16032509D01*
X12071725Y-16032509D01*
X12300296Y-16099176D02*
X12300296Y-15899176D01*
X12386010Y-16099176D02*
X12386010Y-15994414D01*
X12376487Y-15975367D01*
X12357439Y-15965843D01*
X12328868Y-15965843D01*
X12309820Y-15975367D01*
X12300296Y-15984890D01*
X12509820Y-16099176D02*
X12490772Y-16089652D01*
X12481249Y-16080128D01*
X12471725Y-16061081D01*
X12471725Y-16003938D01*
X12481249Y-15984890D01*
X12490772Y-15975367D01*
X12509820Y-15965843D01*
X12538391Y-15965843D01*
X12557439Y-15975367D01*
X12566963Y-15984890D01*
X12576487Y-16003938D01*
X12576487Y-16061081D01*
X12566963Y-16080128D01*
X12557439Y-16089652D01*
X12538391Y-16099176D01*
X12509820Y-16099176D01*
X12690772Y-16099176D02*
X12671725Y-16089652D01*
X12662201Y-16070605D01*
X12662201Y-15899176D01*
X12843153Y-16089652D02*
X12824106Y-16099176D01*
X12786010Y-16099176D01*
X12766963Y-16089652D01*
X12757439Y-16070605D01*
X12757439Y-15994414D01*
X12766963Y-15975367D01*
X12786010Y-15965843D01*
X12824106Y-15965843D01*
X12843153Y-15975367D01*
X12852677Y-15994414D01*
X12852677Y-16013462D01*
X12757439Y-16032509D01*
X12928868Y-16089652D02*
X12947915Y-16099176D01*
X12986010Y-16099176D01*
X13005058Y-16089652D01*
X13014582Y-16070605D01*
X13014582Y-16061081D01*
X13005058Y-16042033D01*
X12986010Y-16032509D01*
X12957439Y-16032509D01*
X12938391Y-16022986D01*
X12928868Y-16003938D01*
X12928868Y-15994414D01*
X12938391Y-15975367D01*
X12957439Y-15965843D01*
X12986010Y-15965843D01*
X13005058Y-15975367D01*
X13081249Y-16175367D02*
X13090772Y-16165843D01*
X13109820Y-16137271D01*
X13119344Y-16118224D01*
X13128868Y-16089652D01*
X13138391Y-16042033D01*
X13138391Y-16003938D01*
X13128868Y-15956319D01*
X13119344Y-15927748D01*
X13109820Y-15908700D01*
X13090772Y-15880128D01*
X13081249Y-15870605D01*
D18*
X8220444Y-16228250D02*
X8309344Y-16317150D01*
X8309344Y-16228250D02*
X8220444Y-16317150D01*
X8264894Y-16228250D02*
X8264894Y-16317150D01*
X8220444Y-16272700D02*
X8309344Y-16272700D01*
D11*
X8605058Y-16163176D02*
X8624106Y-16163176D01*
X8643153Y-16172700D01*
X8652677Y-16182224D01*
X8662201Y-16201271D01*
X8671725Y-16239367D01*
X8671725Y-16286986D01*
X8662201Y-16325081D01*
X8652677Y-16344128D01*
X8643153Y-16353652D01*
X8624106Y-16363176D01*
X8605058Y-16363176D01*
X8586011Y-16353652D01*
X8576487Y-16344128D01*
X8566963Y-16325081D01*
X8557439Y-16286986D01*
X8557439Y-16239367D01*
X8566963Y-16201271D01*
X8576487Y-16182224D01*
X8586011Y-16172700D01*
X8605058Y-16163176D01*
X8757439Y-16344128D02*
X8766963Y-16353652D01*
X8757439Y-16363176D01*
X8747915Y-16353652D01*
X8757439Y-16344128D01*
X8757439Y-16363176D01*
X8881249Y-16248890D02*
X8862201Y-16239367D01*
X8852677Y-16229843D01*
X8843153Y-16210795D01*
X8843153Y-16201271D01*
X8852677Y-16182224D01*
X8862201Y-16172700D01*
X8881249Y-16163176D01*
X8919344Y-16163176D01*
X8938392Y-16172700D01*
X8947915Y-16182224D01*
X8957439Y-16201271D01*
X8957439Y-16210795D01*
X8947915Y-16229843D01*
X8938392Y-16239367D01*
X8919344Y-16248890D01*
X8881249Y-16248890D01*
X8862201Y-16258414D01*
X8852677Y-16267938D01*
X8843153Y-16286986D01*
X8843153Y-16325081D01*
X8852677Y-16344128D01*
X8862201Y-16353652D01*
X8881249Y-16363176D01*
X8919344Y-16363176D01*
X8938392Y-16353652D01*
X8947915Y-16344128D01*
X8957439Y-16325081D01*
X8957439Y-16286986D01*
X8947915Y-16267938D01*
X8938392Y-16258414D01*
X8919344Y-16248890D01*
X9071725Y-16248890D02*
X9052677Y-16239367D01*
X9043153Y-16229843D01*
X9033630Y-16210795D01*
X9033630Y-16201271D01*
X9043153Y-16182224D01*
X9052677Y-16172700D01*
X9071725Y-16163176D01*
X9109820Y-16163176D01*
X9128868Y-16172700D01*
X9138392Y-16182224D01*
X9147915Y-16201271D01*
X9147915Y-16210795D01*
X9138392Y-16229843D01*
X9128868Y-16239367D01*
X9109820Y-16248890D01*
X9071725Y-16248890D01*
X9052677Y-16258414D01*
X9043153Y-16267938D01*
X9033630Y-16286986D01*
X9033630Y-16325081D01*
X9043153Y-16344128D01*
X9052677Y-16353652D01*
X9071725Y-16363176D01*
X9109820Y-16363176D01*
X9128868Y-16353652D01*
X9138392Y-16344128D01*
X9147915Y-16325081D01*
X9147915Y-16286986D01*
X9138392Y-16267938D01*
X9128868Y-16258414D01*
X9109820Y-16248890D01*
X9243153Y-16363176D02*
X9281249Y-16363176D01*
X9300296Y-16353652D01*
X9309820Y-16344128D01*
X9328868Y-16315557D01*
X9338392Y-16277462D01*
X9338392Y-16201271D01*
X9328868Y-16182224D01*
X9319344Y-16172700D01*
X9300296Y-16163176D01*
X9262201Y-16163176D01*
X9243153Y-16172700D01*
X9233630Y-16182224D01*
X9224106Y-16201271D01*
X9224106Y-16248890D01*
X9233630Y-16267938D01*
X9243153Y-16277462D01*
X9262201Y-16286986D01*
X9300296Y-16286986D01*
X9319344Y-16277462D01*
X9328868Y-16267938D01*
X9338392Y-16248890D01*
X9424106Y-16363176D02*
X9424106Y-16229843D01*
X9424106Y-16248890D02*
X9433630Y-16239367D01*
X9452677Y-16229843D01*
X9481249Y-16229843D01*
X9500296Y-16239367D01*
X9509820Y-16258414D01*
X9509820Y-16363176D01*
X9509820Y-16258414D02*
X9519344Y-16239367D01*
X9538392Y-16229843D01*
X9566963Y-16229843D01*
X9586011Y-16239367D01*
X9595534Y-16258414D01*
X9595534Y-16363176D01*
X9690772Y-16363176D02*
X9690772Y-16229843D01*
X9690772Y-16248890D02*
X9700296Y-16239367D01*
X9719344Y-16229843D01*
X9747915Y-16229843D01*
X9766963Y-16239367D01*
X9776487Y-16258414D01*
X9776487Y-16363176D01*
X9776487Y-16258414D02*
X9786011Y-16239367D01*
X9805058Y-16229843D01*
X9833630Y-16229843D01*
X9852677Y-16239367D01*
X9862201Y-16258414D01*
X9862201Y-16363176D01*
X10252677Y-16153652D02*
X10081249Y-16410795D01*
X10509820Y-16163176D02*
X10528868Y-16163176D01*
X10547915Y-16172700D01*
X10557439Y-16182224D01*
X10566963Y-16201271D01*
X10576487Y-16239367D01*
X10576487Y-16286986D01*
X10566963Y-16325081D01*
X10557439Y-16344128D01*
X10547915Y-16353652D01*
X10528868Y-16363176D01*
X10509820Y-16363176D01*
X10490772Y-16353652D01*
X10481249Y-16344128D01*
X10471725Y-16325081D01*
X10462201Y-16286986D01*
X10462201Y-16239367D01*
X10471725Y-16201271D01*
X10481249Y-16182224D01*
X10490772Y-16172700D01*
X10509820Y-16163176D01*
X10662201Y-16344128D02*
X10671725Y-16353652D01*
X10662201Y-16363176D01*
X10652677Y-16353652D01*
X10662201Y-16344128D01*
X10662201Y-16363176D01*
X10795534Y-16163176D02*
X10814582Y-16163176D01*
X10833630Y-16172700D01*
X10843153Y-16182224D01*
X10852677Y-16201271D01*
X10862201Y-16239367D01*
X10862201Y-16286986D01*
X10852677Y-16325081D01*
X10843153Y-16344128D01*
X10833630Y-16353652D01*
X10814582Y-16363176D01*
X10795534Y-16363176D01*
X10776487Y-16353652D01*
X10766963Y-16344128D01*
X10757439Y-16325081D01*
X10747915Y-16286986D01*
X10747915Y-16239367D01*
X10757439Y-16201271D01*
X10766963Y-16182224D01*
X10776487Y-16172700D01*
X10795534Y-16163176D01*
X10928868Y-16163176D02*
X11052677Y-16163176D01*
X10986011Y-16239367D01*
X11014582Y-16239367D01*
X11033630Y-16248890D01*
X11043153Y-16258414D01*
X11052677Y-16277462D01*
X11052677Y-16325081D01*
X11043153Y-16344128D01*
X11033630Y-16353652D01*
X11014582Y-16363176D01*
X10957439Y-16363176D01*
X10938392Y-16353652D01*
X10928868Y-16344128D01*
X11233630Y-16163176D02*
X11138392Y-16163176D01*
X11128868Y-16258414D01*
X11138392Y-16248890D01*
X11157439Y-16239367D01*
X11205058Y-16239367D01*
X11224106Y-16248890D01*
X11233630Y-16258414D01*
X11243153Y-16277462D01*
X11243153Y-16325081D01*
X11233630Y-16344128D01*
X11224106Y-16353652D01*
X11205058Y-16363176D01*
X11157439Y-16363176D01*
X11138392Y-16353652D01*
X11128868Y-16344128D01*
X11366963Y-16163176D02*
X11386010Y-16163176D01*
X11405058Y-16172700D01*
X11414582Y-16182224D01*
X11424106Y-16201271D01*
X11433630Y-16239367D01*
X11433630Y-16286986D01*
X11424106Y-16325081D01*
X11414582Y-16344128D01*
X11405058Y-16353652D01*
X11386010Y-16363176D01*
X11366963Y-16363176D01*
X11347915Y-16353652D01*
X11338391Y-16344128D01*
X11328868Y-16325081D01*
X11319344Y-16286986D01*
X11319344Y-16239367D01*
X11328868Y-16201271D01*
X11338391Y-16182224D01*
X11347915Y-16172700D01*
X11366963Y-16163176D01*
X11509820Y-16163176D02*
X11509820Y-16201271D01*
X11586010Y-16163176D02*
X11586010Y-16201271D01*
X11881249Y-16439367D02*
X11871725Y-16429843D01*
X11852677Y-16401271D01*
X11843153Y-16382224D01*
X11833630Y-16353652D01*
X11824106Y-16306033D01*
X11824106Y-16267938D01*
X11833630Y-16220319D01*
X11843153Y-16191748D01*
X11852677Y-16172700D01*
X11871725Y-16144128D01*
X11881249Y-16134605D01*
X12062201Y-16363176D02*
X11947915Y-16363176D01*
X12005058Y-16363176D02*
X12005058Y-16163176D01*
X11986010Y-16191748D01*
X11966963Y-16210795D01*
X11947915Y-16220319D01*
X12138391Y-16182224D02*
X12147915Y-16172700D01*
X12166963Y-16163176D01*
X12214582Y-16163176D01*
X12233630Y-16172700D01*
X12243153Y-16182224D01*
X12252677Y-16201271D01*
X12252677Y-16220319D01*
X12243153Y-16248890D01*
X12128868Y-16363176D01*
X12252677Y-16363176D01*
X12490772Y-16363176D02*
X12490772Y-16163176D01*
X12576487Y-16363176D02*
X12576487Y-16258414D01*
X12566963Y-16239367D01*
X12547915Y-16229843D01*
X12519344Y-16229843D01*
X12500296Y-16239367D01*
X12490772Y-16248890D01*
X12700296Y-16363176D02*
X12681249Y-16353652D01*
X12671725Y-16344128D01*
X12662201Y-16325081D01*
X12662201Y-16267938D01*
X12671725Y-16248890D01*
X12681249Y-16239367D01*
X12700296Y-16229843D01*
X12728868Y-16229843D01*
X12747915Y-16239367D01*
X12757439Y-16248890D01*
X12766963Y-16267938D01*
X12766963Y-16325081D01*
X12757439Y-16344128D01*
X12747915Y-16353652D01*
X12728868Y-16363176D01*
X12700296Y-16363176D01*
X12881249Y-16363176D02*
X12862201Y-16353652D01*
X12852677Y-16334605D01*
X12852677Y-16163176D01*
X13033630Y-16353652D02*
X13014582Y-16363176D01*
X12976487Y-16363176D01*
X12957439Y-16353652D01*
X12947915Y-16334605D01*
X12947915Y-16258414D01*
X12957439Y-16239367D01*
X12976487Y-16229843D01*
X13014582Y-16229843D01*
X13033630Y-16239367D01*
X13043153Y-16258414D01*
X13043153Y-16277462D01*
X12947915Y-16296509D01*
X13119344Y-16353652D02*
X13138391Y-16363176D01*
X13176487Y-16363176D01*
X13195534Y-16353652D01*
X13205058Y-16334605D01*
X13205058Y-16325081D01*
X13195534Y-16306033D01*
X13176487Y-16296509D01*
X13147915Y-16296509D01*
X13128868Y-16286986D01*
X13119344Y-16267938D01*
X13119344Y-16258414D01*
X13128868Y-16239367D01*
X13147915Y-16229843D01*
X13176487Y-16229843D01*
X13195534Y-16239367D01*
X13271725Y-16439367D02*
X13281249Y-16429843D01*
X13300296Y-16401271D01*
X13309820Y-16382224D01*
X13319344Y-16353652D01*
X13328868Y-16306033D01*
X13328868Y-16267938D01*
X13319344Y-16220319D01*
X13309820Y-16191748D01*
X13300296Y-16172700D01*
X13281249Y-16144128D01*
X13271725Y-16134605D01*
D19*
X8209344Y-16486700D02*
X8309344Y-16586700D01*
X8309344Y-16486700D02*
X8209344Y-16586700D01*
X8294700Y-16572056D02*
X8294700Y-16501344D01*
X8223988Y-16501344D01*
X8223988Y-16572056D01*
X8294700Y-16572056D01*
D11*
X8671725Y-16627176D02*
X8557439Y-16627176D01*
X8614582Y-16627176D02*
X8614582Y-16427176D01*
X8595534Y-16455748D01*
X8576487Y-16474795D01*
X8557439Y-16484319D01*
X8757439Y-16608128D02*
X8766963Y-16617652D01*
X8757439Y-16627176D01*
X8747915Y-16617652D01*
X8757439Y-16608128D01*
X8757439Y-16627176D01*
X8890772Y-16427176D02*
X8909820Y-16427176D01*
X8928868Y-16436700D01*
X8938392Y-16446224D01*
X8947915Y-16465271D01*
X8957439Y-16503367D01*
X8957439Y-16550986D01*
X8947915Y-16589081D01*
X8938392Y-16608128D01*
X8928868Y-16617652D01*
X8909820Y-16627176D01*
X8890772Y-16627176D01*
X8871725Y-16617652D01*
X8862201Y-16608128D01*
X8852677Y-16589081D01*
X8843153Y-16550986D01*
X8843153Y-16503367D01*
X8852677Y-16465271D01*
X8862201Y-16446224D01*
X8871725Y-16436700D01*
X8890772Y-16427176D01*
X9081249Y-16427176D02*
X9100296Y-16427176D01*
X9119344Y-16436700D01*
X9128868Y-16446224D01*
X9138392Y-16465271D01*
X9147915Y-16503367D01*
X9147915Y-16550986D01*
X9138392Y-16589081D01*
X9128868Y-16608128D01*
X9119344Y-16617652D01*
X9100296Y-16627176D01*
X9081249Y-16627176D01*
X9062201Y-16617652D01*
X9052677Y-16608128D01*
X9043153Y-16589081D01*
X9033630Y-16550986D01*
X9033630Y-16503367D01*
X9043153Y-16465271D01*
X9052677Y-16446224D01*
X9062201Y-16436700D01*
X9081249Y-16427176D01*
X9271725Y-16427176D02*
X9290772Y-16427176D01*
X9309820Y-16436700D01*
X9319344Y-16446224D01*
X9328868Y-16465271D01*
X9338392Y-16503367D01*
X9338392Y-16550986D01*
X9328868Y-16589081D01*
X9319344Y-16608128D01*
X9309820Y-16617652D01*
X9290772Y-16627176D01*
X9271725Y-16627176D01*
X9252677Y-16617652D01*
X9243153Y-16608128D01*
X9233630Y-16589081D01*
X9224106Y-16550986D01*
X9224106Y-16503367D01*
X9233630Y-16465271D01*
X9243153Y-16446224D01*
X9252677Y-16436700D01*
X9271725Y-16427176D01*
X9424106Y-16627176D02*
X9424106Y-16493843D01*
X9424106Y-16512890D02*
X9433630Y-16503367D01*
X9452677Y-16493843D01*
X9481249Y-16493843D01*
X9500296Y-16503367D01*
X9509820Y-16522414D01*
X9509820Y-16627176D01*
X9509820Y-16522414D02*
X9519344Y-16503367D01*
X9538392Y-16493843D01*
X9566963Y-16493843D01*
X9586011Y-16503367D01*
X9595534Y-16522414D01*
X9595534Y-16627176D01*
X9690772Y-16627176D02*
X9690772Y-16493843D01*
X9690772Y-16512890D02*
X9700296Y-16503367D01*
X9719344Y-16493843D01*
X9747915Y-16493843D01*
X9766963Y-16503367D01*
X9776487Y-16522414D01*
X9776487Y-16627176D01*
X9776487Y-16522414D02*
X9786011Y-16503367D01*
X9805058Y-16493843D01*
X9833630Y-16493843D01*
X9852677Y-16503367D01*
X9862201Y-16522414D01*
X9862201Y-16627176D01*
X10252677Y-16417652D02*
X10081249Y-16674795D01*
X10509820Y-16427176D02*
X10528868Y-16427176D01*
X10547915Y-16436700D01*
X10557439Y-16446224D01*
X10566963Y-16465271D01*
X10576487Y-16503367D01*
X10576487Y-16550986D01*
X10566963Y-16589081D01*
X10557439Y-16608128D01*
X10547915Y-16617652D01*
X10528868Y-16627176D01*
X10509820Y-16627176D01*
X10490772Y-16617652D01*
X10481249Y-16608128D01*
X10471725Y-16589081D01*
X10462201Y-16550986D01*
X10462201Y-16503367D01*
X10471725Y-16465271D01*
X10481249Y-16446224D01*
X10490772Y-16436700D01*
X10509820Y-16427176D01*
X10662201Y-16608128D02*
X10671725Y-16617652D01*
X10662201Y-16627176D01*
X10652677Y-16617652D01*
X10662201Y-16608128D01*
X10662201Y-16627176D01*
X10795534Y-16427176D02*
X10814582Y-16427176D01*
X10833630Y-16436700D01*
X10843153Y-16446224D01*
X10852677Y-16465271D01*
X10862201Y-16503367D01*
X10862201Y-16550986D01*
X10852677Y-16589081D01*
X10843153Y-16608128D01*
X10833630Y-16617652D01*
X10814582Y-16627176D01*
X10795534Y-16627176D01*
X10776487Y-16617652D01*
X10766963Y-16608128D01*
X10757439Y-16589081D01*
X10747915Y-16550986D01*
X10747915Y-16503367D01*
X10757439Y-16465271D01*
X10766963Y-16446224D01*
X10776487Y-16436700D01*
X10795534Y-16427176D01*
X10928868Y-16427176D02*
X11052677Y-16427176D01*
X10986011Y-16503367D01*
X11014582Y-16503367D01*
X11033630Y-16512890D01*
X11043153Y-16522414D01*
X11052677Y-16541462D01*
X11052677Y-16589081D01*
X11043153Y-16608128D01*
X11033630Y-16617652D01*
X11014582Y-16627176D01*
X10957439Y-16627176D01*
X10938392Y-16617652D01*
X10928868Y-16608128D01*
X11147915Y-16627176D02*
X11186010Y-16627176D01*
X11205058Y-16617652D01*
X11214582Y-16608128D01*
X11233630Y-16579557D01*
X11243153Y-16541462D01*
X11243153Y-16465271D01*
X11233630Y-16446224D01*
X11224106Y-16436700D01*
X11205058Y-16427176D01*
X11166963Y-16427176D01*
X11147915Y-16436700D01*
X11138392Y-16446224D01*
X11128868Y-16465271D01*
X11128868Y-16512890D01*
X11138392Y-16531938D01*
X11147915Y-16541462D01*
X11166963Y-16550986D01*
X11205058Y-16550986D01*
X11224106Y-16541462D01*
X11233630Y-16531938D01*
X11243153Y-16512890D01*
X11414582Y-16493843D02*
X11414582Y-16627176D01*
X11366963Y-16417652D02*
X11319344Y-16560509D01*
X11443153Y-16560509D01*
X11509820Y-16427176D02*
X11509820Y-16465271D01*
X11586010Y-16427176D02*
X11586010Y-16465271D01*
X11881249Y-16703367D02*
X11871725Y-16693843D01*
X11852677Y-16665271D01*
X11843153Y-16646224D01*
X11833630Y-16617652D01*
X11824106Y-16570033D01*
X11824106Y-16531938D01*
X11833630Y-16484319D01*
X11843153Y-16455748D01*
X11852677Y-16436700D01*
X11871725Y-16408128D01*
X11881249Y-16398605D01*
X11947915Y-16446224D02*
X11957439Y-16436700D01*
X11976487Y-16427176D01*
X12024106Y-16427176D01*
X12043153Y-16436700D01*
X12052677Y-16446224D01*
X12062201Y-16465271D01*
X12062201Y-16484319D01*
X12052677Y-16512890D01*
X11938391Y-16627176D01*
X12062201Y-16627176D01*
X12128868Y-16427176D02*
X12252677Y-16427176D01*
X12186010Y-16503367D01*
X12214582Y-16503367D01*
X12233630Y-16512890D01*
X12243153Y-16522414D01*
X12252677Y-16541462D01*
X12252677Y-16589081D01*
X12243153Y-16608128D01*
X12233630Y-16617652D01*
X12214582Y-16627176D01*
X12157439Y-16627176D01*
X12138391Y-16617652D01*
X12128868Y-16608128D01*
X12433630Y-16427176D02*
X12338391Y-16427176D01*
X12328868Y-16522414D01*
X12338391Y-16512890D01*
X12357439Y-16503367D01*
X12405058Y-16503367D01*
X12424106Y-16512890D01*
X12433630Y-16522414D01*
X12443153Y-16541462D01*
X12443153Y-16589081D01*
X12433630Y-16608128D01*
X12424106Y-16617652D01*
X12405058Y-16627176D01*
X12357439Y-16627176D01*
X12338391Y-16617652D01*
X12328868Y-16608128D01*
X12681249Y-16627176D02*
X12681249Y-16427176D01*
X12766963Y-16627176D02*
X12766963Y-16522414D01*
X12757439Y-16503367D01*
X12738391Y-16493843D01*
X12709820Y-16493843D01*
X12690772Y-16503367D01*
X12681249Y-16512890D01*
X12890772Y-16627176D02*
X12871725Y-16617652D01*
X12862201Y-16608128D01*
X12852677Y-16589081D01*
X12852677Y-16531938D01*
X12862201Y-16512890D01*
X12871725Y-16503367D01*
X12890772Y-16493843D01*
X12919344Y-16493843D01*
X12938391Y-16503367D01*
X12947915Y-16512890D01*
X12957439Y-16531938D01*
X12957439Y-16589081D01*
X12947915Y-16608128D01*
X12938391Y-16617652D01*
X12919344Y-16627176D01*
X12890772Y-16627176D01*
X13071725Y-16627176D02*
X13052677Y-16617652D01*
X13043153Y-16598605D01*
X13043153Y-16427176D01*
X13224106Y-16617652D02*
X13205058Y-16627176D01*
X13166963Y-16627176D01*
X13147915Y-16617652D01*
X13138391Y-16598605D01*
X13138391Y-16522414D01*
X13147915Y-16503367D01*
X13166963Y-16493843D01*
X13205058Y-16493843D01*
X13224106Y-16503367D01*
X13233630Y-16522414D01*
X13233630Y-16541462D01*
X13138391Y-16560509D01*
X13309820Y-16617652D02*
X13328868Y-16627176D01*
X13366963Y-16627176D01*
X13386010Y-16617652D01*
X13395534Y-16598605D01*
X13395534Y-16589081D01*
X13386010Y-16570033D01*
X13366963Y-16560509D01*
X13338391Y-16560509D01*
X13319344Y-16550986D01*
X13309820Y-16531938D01*
X13309820Y-16522414D01*
X13319344Y-16503367D01*
X13338391Y-16493843D01*
X13366963Y-16493843D01*
X13386010Y-16503367D01*
X13462201Y-16703367D02*
X13471725Y-16693843D01*
X13490772Y-16665271D01*
X13500296Y-16646224D01*
X13509820Y-16617652D01*
X13519344Y-16570033D01*
X13519344Y-16531938D01*
X13509820Y-16484319D01*
X13500296Y-16455748D01*
X13490772Y-16436700D01*
X13471725Y-16408128D01*
X13462201Y-16398605D01*
X8109344Y-16700700D02*
X8309344Y-16900700D01*
X8309344Y-16700700D02*
X8109344Y-16900700D01*
X8209344Y-16900700D02*
X8309344Y-16800700D01*
X8209344Y-16700700D01*
X8109344Y-16800700D01*
X8209344Y-16900700D01*
X8557439Y-16710224D02*
X8566963Y-16700700D01*
X8586011Y-16691176D01*
X8633630Y-16691176D01*
X8652677Y-16700700D01*
X8662201Y-16710224D01*
X8671725Y-16729271D01*
X8671725Y-16748319D01*
X8662201Y-16776890D01*
X8547915Y-16891176D01*
X8671725Y-16891176D01*
X8757439Y-16872129D02*
X8766963Y-16881652D01*
X8757439Y-16891176D01*
X8747915Y-16881652D01*
X8757439Y-16872129D01*
X8757439Y-16891176D01*
X8833630Y-16691176D02*
X8957439Y-16691176D01*
X8890772Y-16767367D01*
X8919344Y-16767367D01*
X8938392Y-16776890D01*
X8947915Y-16786414D01*
X8957439Y-16805462D01*
X8957439Y-16853081D01*
X8947915Y-16872129D01*
X8938392Y-16881652D01*
X8919344Y-16891176D01*
X8862201Y-16891176D01*
X8843153Y-16881652D01*
X8833630Y-16872129D01*
X9081249Y-16691176D02*
X9100296Y-16691176D01*
X9119344Y-16700700D01*
X9128868Y-16710224D01*
X9138392Y-16729271D01*
X9147915Y-16767367D01*
X9147915Y-16814986D01*
X9138392Y-16853081D01*
X9128868Y-16872129D01*
X9119344Y-16881652D01*
X9100296Y-16891176D01*
X9081249Y-16891176D01*
X9062201Y-16881652D01*
X9052677Y-16872129D01*
X9043153Y-16853081D01*
X9033630Y-16814986D01*
X9033630Y-16767367D01*
X9043153Y-16729271D01*
X9052677Y-16710224D01*
X9062201Y-16700700D01*
X9081249Y-16691176D01*
X9271725Y-16691176D02*
X9290772Y-16691176D01*
X9309820Y-16700700D01*
X9319344Y-16710224D01*
X9328868Y-16729271D01*
X9338392Y-16767367D01*
X9338392Y-16814986D01*
X9328868Y-16853081D01*
X9319344Y-16872129D01*
X9309820Y-16881652D01*
X9290772Y-16891176D01*
X9271725Y-16891176D01*
X9252677Y-16881652D01*
X9243153Y-16872129D01*
X9233630Y-16853081D01*
X9224106Y-16814986D01*
X9224106Y-16767367D01*
X9233630Y-16729271D01*
X9243153Y-16710224D01*
X9252677Y-16700700D01*
X9271725Y-16691176D01*
X9424106Y-16891176D02*
X9424106Y-16757843D01*
X9424106Y-16776890D02*
X9433630Y-16767367D01*
X9452677Y-16757843D01*
X9481249Y-16757843D01*
X9500296Y-16767367D01*
X9509820Y-16786414D01*
X9509820Y-16891176D01*
X9509820Y-16786414D02*
X9519344Y-16767367D01*
X9538392Y-16757843D01*
X9566963Y-16757843D01*
X9586011Y-16767367D01*
X9595534Y-16786414D01*
X9595534Y-16891176D01*
X9690772Y-16891176D02*
X9690772Y-16757843D01*
X9690772Y-16776890D02*
X9700296Y-16767367D01*
X9719344Y-16757843D01*
X9747915Y-16757843D01*
X9766963Y-16767367D01*
X9776487Y-16786414D01*
X9776487Y-16891176D01*
X9776487Y-16786414D02*
X9786011Y-16767367D01*
X9805058Y-16757843D01*
X9833630Y-16757843D01*
X9852677Y-16767367D01*
X9862201Y-16786414D01*
X9862201Y-16891176D01*
X10252677Y-16681652D02*
X10081249Y-16938795D01*
X10509820Y-16691176D02*
X10528868Y-16691176D01*
X10547915Y-16700700D01*
X10557439Y-16710224D01*
X10566963Y-16729271D01*
X10576487Y-16767367D01*
X10576487Y-16814986D01*
X10566963Y-16853081D01*
X10557439Y-16872129D01*
X10547915Y-16881652D01*
X10528868Y-16891176D01*
X10509820Y-16891176D01*
X10490772Y-16881652D01*
X10481249Y-16872129D01*
X10471725Y-16853081D01*
X10462201Y-16814986D01*
X10462201Y-16767367D01*
X10471725Y-16729271D01*
X10481249Y-16710224D01*
X10490772Y-16700700D01*
X10509820Y-16691176D01*
X10662201Y-16872129D02*
X10671725Y-16881652D01*
X10662201Y-16891176D01*
X10652677Y-16881652D01*
X10662201Y-16872129D01*
X10662201Y-16891176D01*
X10795534Y-16691176D02*
X10814582Y-16691176D01*
X10833630Y-16700700D01*
X10843153Y-16710224D01*
X10852677Y-16729271D01*
X10862201Y-16767367D01*
X10862201Y-16814986D01*
X10852677Y-16853081D01*
X10843153Y-16872129D01*
X10833630Y-16881652D01*
X10814582Y-16891176D01*
X10795534Y-16891176D01*
X10776487Y-16881652D01*
X10766963Y-16872129D01*
X10757439Y-16853081D01*
X10747915Y-16814986D01*
X10747915Y-16767367D01*
X10757439Y-16729271D01*
X10766963Y-16710224D01*
X10776487Y-16700700D01*
X10795534Y-16691176D01*
X10957439Y-16891176D02*
X10995534Y-16891176D01*
X11014582Y-16881652D01*
X11024106Y-16872129D01*
X11043153Y-16843557D01*
X11052677Y-16805462D01*
X11052677Y-16729271D01*
X11043153Y-16710224D01*
X11033630Y-16700700D01*
X11014582Y-16691176D01*
X10976487Y-16691176D01*
X10957439Y-16700700D01*
X10947915Y-16710224D01*
X10938392Y-16729271D01*
X10938392Y-16776890D01*
X10947915Y-16795938D01*
X10957439Y-16805462D01*
X10976487Y-16814986D01*
X11014582Y-16814986D01*
X11033630Y-16805462D01*
X11043153Y-16795938D01*
X11052677Y-16776890D01*
X11176487Y-16691176D02*
X11195534Y-16691176D01*
X11214582Y-16700700D01*
X11224106Y-16710224D01*
X11233630Y-16729271D01*
X11243153Y-16767367D01*
X11243153Y-16814986D01*
X11233630Y-16853081D01*
X11224106Y-16872129D01*
X11214582Y-16881652D01*
X11195534Y-16891176D01*
X11176487Y-16891176D01*
X11157439Y-16881652D01*
X11147915Y-16872129D01*
X11138392Y-16853081D01*
X11128868Y-16814986D01*
X11128868Y-16767367D01*
X11138392Y-16729271D01*
X11147915Y-16710224D01*
X11157439Y-16700700D01*
X11176487Y-16691176D01*
X11414582Y-16691176D02*
X11376487Y-16691176D01*
X11357439Y-16700700D01*
X11347915Y-16710224D01*
X11328868Y-16738795D01*
X11319344Y-16776890D01*
X11319344Y-16853081D01*
X11328868Y-16872129D01*
X11338391Y-16881652D01*
X11357439Y-16891176D01*
X11395534Y-16891176D01*
X11414582Y-16881652D01*
X11424106Y-16872129D01*
X11433630Y-16853081D01*
X11433630Y-16805462D01*
X11424106Y-16786414D01*
X11414582Y-16776890D01*
X11395534Y-16767367D01*
X11357439Y-16767367D01*
X11338391Y-16776890D01*
X11328868Y-16786414D01*
X11319344Y-16805462D01*
X11509820Y-16691176D02*
X11509820Y-16729271D01*
X11586010Y-16691176D02*
X11586010Y-16729271D01*
X11881249Y-16967367D02*
X11871725Y-16957843D01*
X11852677Y-16929271D01*
X11843153Y-16910224D01*
X11833630Y-16881652D01*
X11824106Y-16834033D01*
X11824106Y-16795938D01*
X11833630Y-16748319D01*
X11843153Y-16719748D01*
X11852677Y-16700700D01*
X11871725Y-16672128D01*
X11881249Y-16662605D01*
X11947915Y-16710224D02*
X11957439Y-16700700D01*
X11976487Y-16691176D01*
X12024106Y-16691176D01*
X12043153Y-16700700D01*
X12052677Y-16710224D01*
X12062201Y-16729271D01*
X12062201Y-16748319D01*
X12052677Y-16776890D01*
X11938391Y-16891176D01*
X12062201Y-16891176D01*
X12300296Y-16891176D02*
X12300296Y-16691176D01*
X12386010Y-16891176D02*
X12386010Y-16786414D01*
X12376487Y-16767367D01*
X12357439Y-16757843D01*
X12328868Y-16757843D01*
X12309820Y-16767367D01*
X12300296Y-16776890D01*
X12509820Y-16891176D02*
X12490772Y-16881652D01*
X12481249Y-16872129D01*
X12471725Y-16853081D01*
X12471725Y-16795938D01*
X12481249Y-16776890D01*
X12490772Y-16767367D01*
X12509820Y-16757843D01*
X12538391Y-16757843D01*
X12557439Y-16767367D01*
X12566963Y-16776890D01*
X12576487Y-16795938D01*
X12576487Y-16853081D01*
X12566963Y-16872129D01*
X12557439Y-16881652D01*
X12538391Y-16891176D01*
X12509820Y-16891176D01*
X12690772Y-16891176D02*
X12671725Y-16881652D01*
X12662201Y-16862605D01*
X12662201Y-16691176D01*
X12843153Y-16881652D02*
X12824106Y-16891176D01*
X12786010Y-16891176D01*
X12766963Y-16881652D01*
X12757439Y-16862605D01*
X12757439Y-16786414D01*
X12766963Y-16767367D01*
X12786010Y-16757843D01*
X12824106Y-16757843D01*
X12843153Y-16767367D01*
X12852677Y-16786414D01*
X12852677Y-16805462D01*
X12757439Y-16824510D01*
X12928868Y-16881652D02*
X12947915Y-16891176D01*
X12986010Y-16891176D01*
X13005058Y-16881652D01*
X13014582Y-16862605D01*
X13014582Y-16853081D01*
X13005058Y-16834033D01*
X12986010Y-16824510D01*
X12957439Y-16824510D01*
X12938391Y-16814986D01*
X12928868Y-16795938D01*
X12928868Y-16786414D01*
X12938391Y-16767367D01*
X12957439Y-16757843D01*
X12986010Y-16757843D01*
X13005058Y-16767367D01*
X13081249Y-16967367D02*
X13090772Y-16957843D01*
X13109820Y-16929271D01*
X13119344Y-16910224D01*
X13128868Y-16881652D01*
X13138391Y-16834033D01*
X13138391Y-16795938D01*
X13128868Y-16748319D01*
X13119344Y-16719748D01*
X13109820Y-16700700D01*
X13090772Y-16672128D01*
X13081249Y-16662605D01*
X8209344Y-17020700D02*
X8209344Y-17220700D01*
X8109344Y-17120700D02*
X8309344Y-17120700D01*
X8309344Y-17120700D02*
G75*
G03*
X8309344Y-17120700I-100000J0D01*
G01*
X8557439Y-17030224D02*
X8566963Y-17020700D01*
X8586011Y-17011176D01*
X8633630Y-17011176D01*
X8652677Y-17020700D01*
X8662201Y-17030224D01*
X8671725Y-17049271D01*
X8671725Y-17068319D01*
X8662201Y-17096890D01*
X8547915Y-17211176D01*
X8671725Y-17211176D01*
X8757439Y-17192129D02*
X8766963Y-17201652D01*
X8757439Y-17211176D01*
X8747915Y-17201652D01*
X8757439Y-17192129D01*
X8757439Y-17211176D01*
X8833630Y-17011176D02*
X8957439Y-17011176D01*
X8890772Y-17087367D01*
X8919344Y-17087367D01*
X8938392Y-17096890D01*
X8947915Y-17106414D01*
X8957439Y-17125462D01*
X8957439Y-17173081D01*
X8947915Y-17192129D01*
X8938392Y-17201652D01*
X8919344Y-17211176D01*
X8862201Y-17211176D01*
X8843153Y-17201652D01*
X8833630Y-17192129D01*
X9147915Y-17211176D02*
X9033630Y-17211176D01*
X9090772Y-17211176D02*
X9090772Y-17011176D01*
X9071725Y-17039748D01*
X9052677Y-17058795D01*
X9033630Y-17068319D01*
X9338392Y-17211176D02*
X9224106Y-17211176D01*
X9281249Y-17211176D02*
X9281249Y-17011176D01*
X9262201Y-17039748D01*
X9243153Y-17058795D01*
X9224106Y-17068319D01*
X9424106Y-17211176D02*
X9424106Y-17077843D01*
X9424106Y-17096890D02*
X9433630Y-17087367D01*
X9452677Y-17077843D01*
X9481249Y-17077843D01*
X9500296Y-17087367D01*
X9509820Y-17106414D01*
X9509820Y-17211176D01*
X9509820Y-17106414D02*
X9519344Y-17087367D01*
X9538392Y-17077843D01*
X9566963Y-17077843D01*
X9586011Y-17087367D01*
X9595534Y-17106414D01*
X9595534Y-17211176D01*
X9690772Y-17211176D02*
X9690772Y-17077843D01*
X9690772Y-17096890D02*
X9700296Y-17087367D01*
X9719344Y-17077843D01*
X9747915Y-17077843D01*
X9766963Y-17087367D01*
X9776487Y-17106414D01*
X9776487Y-17211176D01*
X9776487Y-17106414D02*
X9786011Y-17087367D01*
X9805058Y-17077843D01*
X9833630Y-17077843D01*
X9852677Y-17087367D01*
X9862201Y-17106414D01*
X9862201Y-17211176D01*
X10252677Y-17001652D02*
X10081249Y-17258795D01*
X10509820Y-17011176D02*
X10528868Y-17011176D01*
X10547915Y-17020700D01*
X10557439Y-17030224D01*
X10566963Y-17049271D01*
X10576487Y-17087367D01*
X10576487Y-17134986D01*
X10566963Y-17173081D01*
X10557439Y-17192129D01*
X10547915Y-17201652D01*
X10528868Y-17211176D01*
X10509820Y-17211176D01*
X10490772Y-17201652D01*
X10481249Y-17192129D01*
X10471725Y-17173081D01*
X10462201Y-17134986D01*
X10462201Y-17087367D01*
X10471725Y-17049271D01*
X10481249Y-17030224D01*
X10490772Y-17020700D01*
X10509820Y-17011176D01*
X10662201Y-17192129D02*
X10671725Y-17201652D01*
X10662201Y-17211176D01*
X10652677Y-17201652D01*
X10662201Y-17192129D01*
X10662201Y-17211176D01*
X10795534Y-17011176D02*
X10814582Y-17011176D01*
X10833630Y-17020700D01*
X10843153Y-17030224D01*
X10852677Y-17049271D01*
X10862201Y-17087367D01*
X10862201Y-17134986D01*
X10852677Y-17173081D01*
X10843153Y-17192129D01*
X10833630Y-17201652D01*
X10814582Y-17211176D01*
X10795534Y-17211176D01*
X10776487Y-17201652D01*
X10766963Y-17192129D01*
X10757439Y-17173081D01*
X10747915Y-17134986D01*
X10747915Y-17087367D01*
X10757439Y-17049271D01*
X10766963Y-17030224D01*
X10776487Y-17020700D01*
X10795534Y-17011176D01*
X10957439Y-17211176D02*
X10995534Y-17211176D01*
X11014582Y-17201652D01*
X11024106Y-17192129D01*
X11043153Y-17163557D01*
X11052677Y-17125462D01*
X11052677Y-17049271D01*
X11043153Y-17030224D01*
X11033630Y-17020700D01*
X11014582Y-17011176D01*
X10976487Y-17011176D01*
X10957439Y-17020700D01*
X10947915Y-17030224D01*
X10938392Y-17049271D01*
X10938392Y-17096890D01*
X10947915Y-17115938D01*
X10957439Y-17125462D01*
X10976487Y-17134986D01*
X11014582Y-17134986D01*
X11033630Y-17125462D01*
X11043153Y-17115938D01*
X11052677Y-17096890D01*
X11243153Y-17211176D02*
X11128868Y-17211176D01*
X11186010Y-17211176D02*
X11186010Y-17011176D01*
X11166963Y-17039748D01*
X11147915Y-17058795D01*
X11128868Y-17068319D01*
X11366963Y-17011176D02*
X11386010Y-17011176D01*
X11405058Y-17020700D01*
X11414582Y-17030224D01*
X11424106Y-17049271D01*
X11433630Y-17087367D01*
X11433630Y-17134986D01*
X11424106Y-17173081D01*
X11414582Y-17192129D01*
X11405058Y-17201652D01*
X11386010Y-17211176D01*
X11366963Y-17211176D01*
X11347915Y-17201652D01*
X11338391Y-17192129D01*
X11328868Y-17173081D01*
X11319344Y-17134986D01*
X11319344Y-17087367D01*
X11328868Y-17049271D01*
X11338391Y-17030224D01*
X11347915Y-17020700D01*
X11366963Y-17011176D01*
X11509820Y-17011176D02*
X11509820Y-17049271D01*
X11586010Y-17011176D02*
X11586010Y-17049271D01*
X11881249Y-17287367D02*
X11871725Y-17277843D01*
X11852677Y-17249271D01*
X11843153Y-17230224D01*
X11833630Y-17201652D01*
X11824106Y-17154033D01*
X11824106Y-17115938D01*
X11833630Y-17068319D01*
X11843153Y-17039748D01*
X11852677Y-17020700D01*
X11871725Y-16992129D01*
X11881249Y-16982605D01*
X12043153Y-17011176D02*
X12005058Y-17011176D01*
X11986010Y-17020700D01*
X11976487Y-17030224D01*
X11957439Y-17058795D01*
X11947915Y-17096890D01*
X11947915Y-17173081D01*
X11957439Y-17192129D01*
X11966963Y-17201652D01*
X11986010Y-17211176D01*
X12024106Y-17211176D01*
X12043153Y-17201652D01*
X12052677Y-17192129D01*
X12062201Y-17173081D01*
X12062201Y-17125462D01*
X12052677Y-17106414D01*
X12043153Y-17096890D01*
X12024106Y-17087367D01*
X11986010Y-17087367D01*
X11966963Y-17096890D01*
X11957439Y-17106414D01*
X11947915Y-17125462D01*
X12300296Y-17211176D02*
X12300296Y-17011176D01*
X12386010Y-17211176D02*
X12386010Y-17106414D01*
X12376487Y-17087367D01*
X12357439Y-17077843D01*
X12328868Y-17077843D01*
X12309820Y-17087367D01*
X12300296Y-17096890D01*
X12509820Y-17211176D02*
X12490772Y-17201652D01*
X12481249Y-17192129D01*
X12471725Y-17173081D01*
X12471725Y-17115938D01*
X12481249Y-17096890D01*
X12490772Y-17087367D01*
X12509820Y-17077843D01*
X12538391Y-17077843D01*
X12557439Y-17087367D01*
X12566963Y-17096890D01*
X12576487Y-17115938D01*
X12576487Y-17173081D01*
X12566963Y-17192129D01*
X12557439Y-17201652D01*
X12538391Y-17211176D01*
X12509820Y-17211176D01*
X12690772Y-17211176D02*
X12671725Y-17201652D01*
X12662201Y-17182605D01*
X12662201Y-17011176D01*
X12843153Y-17201652D02*
X12824106Y-17211176D01*
X12786010Y-17211176D01*
X12766963Y-17201652D01*
X12757439Y-17182605D01*
X12757439Y-17106414D01*
X12766963Y-17087367D01*
X12786010Y-17077843D01*
X12824106Y-17077843D01*
X12843153Y-17087367D01*
X12852677Y-17106414D01*
X12852677Y-17125462D01*
X12757439Y-17144510D01*
X12928868Y-17201652D02*
X12947915Y-17211176D01*
X12986010Y-17211176D01*
X13005058Y-17201652D01*
X13014582Y-17182605D01*
X13014582Y-17173081D01*
X13005058Y-17154033D01*
X12986010Y-17144510D01*
X12957439Y-17144510D01*
X12938391Y-17134986D01*
X12928868Y-17115938D01*
X12928868Y-17106414D01*
X12938391Y-17087367D01*
X12957439Y-17077843D01*
X12986010Y-17077843D01*
X13005058Y-17087367D01*
X13081249Y-17287367D02*
X13090772Y-17277843D01*
X13109820Y-17249271D01*
X13119344Y-17230224D01*
X13128868Y-17201652D01*
X13138391Y-17154033D01*
X13138391Y-17115938D01*
X13128868Y-17068319D01*
X13119344Y-17039748D01*
X13109820Y-17020700D01*
X13090772Y-16992129D01*
X13081249Y-16982605D01*
X8280055Y-17511411D02*
X8280055Y-17369989D01*
X8138632Y-17369989D01*
X8138632Y-17511411D01*
X8280055Y-17511411D01*
X8309344Y-17440700D02*
G75*
G03*
X8309344Y-17440700I-100000J0D01*
G01*
X8547915Y-17331176D02*
X8671725Y-17331176D01*
X8605058Y-17407367D01*
X8633630Y-17407367D01*
X8652677Y-17416890D01*
X8662201Y-17426414D01*
X8671725Y-17445462D01*
X8671725Y-17493081D01*
X8662201Y-17512129D01*
X8652677Y-17521652D01*
X8633630Y-17531176D01*
X8576487Y-17531176D01*
X8557439Y-17521652D01*
X8547915Y-17512129D01*
X8757439Y-17512129D02*
X8766963Y-17521652D01*
X8757439Y-17531176D01*
X8747915Y-17521652D01*
X8757439Y-17512129D01*
X8757439Y-17531176D01*
X8843153Y-17350224D02*
X8852677Y-17340700D01*
X8871725Y-17331176D01*
X8919344Y-17331176D01*
X8938392Y-17340700D01*
X8947915Y-17350224D01*
X8957439Y-17369271D01*
X8957439Y-17388319D01*
X8947915Y-17416890D01*
X8833630Y-17531176D01*
X8957439Y-17531176D01*
X9081249Y-17331176D02*
X9100296Y-17331176D01*
X9119344Y-17340700D01*
X9128868Y-17350224D01*
X9138392Y-17369271D01*
X9147915Y-17407367D01*
X9147915Y-17454986D01*
X9138392Y-17493081D01*
X9128868Y-17512129D01*
X9119344Y-17521652D01*
X9100296Y-17531176D01*
X9081249Y-17531176D01*
X9062201Y-17521652D01*
X9052677Y-17512129D01*
X9043153Y-17493081D01*
X9033630Y-17454986D01*
X9033630Y-17407367D01*
X9043153Y-17369271D01*
X9052677Y-17350224D01*
X9062201Y-17340700D01*
X9081249Y-17331176D01*
X9271725Y-17331176D02*
X9290772Y-17331176D01*
X9309820Y-17340700D01*
X9319344Y-17350224D01*
X9328868Y-17369271D01*
X9338392Y-17407367D01*
X9338392Y-17454986D01*
X9328868Y-17493081D01*
X9319344Y-17512129D01*
X9309820Y-17521652D01*
X9290772Y-17531176D01*
X9271725Y-17531176D01*
X9252677Y-17521652D01*
X9243153Y-17512129D01*
X9233630Y-17493081D01*
X9224106Y-17454986D01*
X9224106Y-17407367D01*
X9233630Y-17369271D01*
X9243153Y-17350224D01*
X9252677Y-17340700D01*
X9271725Y-17331176D01*
X9424106Y-17531176D02*
X9424106Y-17397843D01*
X9424106Y-17416890D02*
X9433630Y-17407367D01*
X9452677Y-17397843D01*
X9481249Y-17397843D01*
X9500296Y-17407367D01*
X9509820Y-17426414D01*
X9509820Y-17531176D01*
X9509820Y-17426414D02*
X9519344Y-17407367D01*
X9538392Y-17397843D01*
X9566963Y-17397843D01*
X9586011Y-17407367D01*
X9595534Y-17426414D01*
X9595534Y-17531176D01*
X9690772Y-17531176D02*
X9690772Y-17397843D01*
X9690772Y-17416890D02*
X9700296Y-17407367D01*
X9719344Y-17397843D01*
X9747915Y-17397843D01*
X9766963Y-17407367D01*
X9776487Y-17426414D01*
X9776487Y-17531176D01*
X9776487Y-17426414D02*
X9786011Y-17407367D01*
X9805058Y-17397843D01*
X9833630Y-17397843D01*
X9852677Y-17407367D01*
X9862201Y-17426414D01*
X9862201Y-17531176D01*
X10252677Y-17321652D02*
X10081249Y-17578795D01*
X10509820Y-17331176D02*
X10528868Y-17331176D01*
X10547915Y-17340700D01*
X10557439Y-17350224D01*
X10566963Y-17369271D01*
X10576487Y-17407367D01*
X10576487Y-17454986D01*
X10566963Y-17493081D01*
X10557439Y-17512129D01*
X10547915Y-17521652D01*
X10528868Y-17531176D01*
X10509820Y-17531176D01*
X10490772Y-17521652D01*
X10481249Y-17512129D01*
X10471725Y-17493081D01*
X10462201Y-17454986D01*
X10462201Y-17407367D01*
X10471725Y-17369271D01*
X10481249Y-17350224D01*
X10490772Y-17340700D01*
X10509820Y-17331176D01*
X10662201Y-17512129D02*
X10671725Y-17521652D01*
X10662201Y-17531176D01*
X10652677Y-17521652D01*
X10662201Y-17512129D01*
X10662201Y-17531176D01*
X10862201Y-17531176D02*
X10747915Y-17531176D01*
X10805058Y-17531176D02*
X10805058Y-17331176D01*
X10786011Y-17359748D01*
X10766963Y-17378795D01*
X10747915Y-17388319D01*
X10938392Y-17350224D02*
X10947915Y-17340700D01*
X10966963Y-17331176D01*
X11014582Y-17331176D01*
X11033630Y-17340700D01*
X11043153Y-17350224D01*
X11052677Y-17369271D01*
X11052677Y-17388319D01*
X11043153Y-17416890D01*
X10928868Y-17531176D01*
X11052677Y-17531176D01*
X11224106Y-17331176D02*
X11186010Y-17331176D01*
X11166963Y-17340700D01*
X11157439Y-17350224D01*
X11138392Y-17378795D01*
X11128868Y-17416890D01*
X11128868Y-17493081D01*
X11138392Y-17512129D01*
X11147915Y-17521652D01*
X11166963Y-17531176D01*
X11205058Y-17531176D01*
X11224106Y-17521652D01*
X11233630Y-17512129D01*
X11243153Y-17493081D01*
X11243153Y-17445462D01*
X11233630Y-17426414D01*
X11224106Y-17416890D01*
X11205058Y-17407367D01*
X11166963Y-17407367D01*
X11147915Y-17416890D01*
X11138392Y-17426414D01*
X11128868Y-17445462D01*
X11366963Y-17331176D02*
X11386010Y-17331176D01*
X11405058Y-17340700D01*
X11414582Y-17350224D01*
X11424106Y-17369271D01*
X11433630Y-17407367D01*
X11433630Y-17454986D01*
X11424106Y-17493081D01*
X11414582Y-17512129D01*
X11405058Y-17521652D01*
X11386010Y-17531176D01*
X11366963Y-17531176D01*
X11347915Y-17521652D01*
X11338391Y-17512129D01*
X11328868Y-17493081D01*
X11319344Y-17454986D01*
X11319344Y-17407367D01*
X11328868Y-17369271D01*
X11338391Y-17350224D01*
X11347915Y-17340700D01*
X11366963Y-17331176D01*
X11509820Y-17331176D02*
X11509820Y-17369271D01*
X11586010Y-17331176D02*
X11586010Y-17369271D01*
X11881249Y-17607367D02*
X11871725Y-17597843D01*
X11852677Y-17569271D01*
X11843153Y-17550224D01*
X11833630Y-17521652D01*
X11824106Y-17474033D01*
X11824106Y-17435938D01*
X11833630Y-17388319D01*
X11843153Y-17359748D01*
X11852677Y-17340700D01*
X11871725Y-17312129D01*
X11881249Y-17302605D01*
X12043153Y-17397843D02*
X12043153Y-17531176D01*
X11995534Y-17321652D02*
X11947915Y-17464510D01*
X12071725Y-17464510D01*
X12300296Y-17531176D02*
X12300296Y-17331176D01*
X12386010Y-17531176D02*
X12386010Y-17426414D01*
X12376487Y-17407367D01*
X12357439Y-17397843D01*
X12328868Y-17397843D01*
X12309820Y-17407367D01*
X12300296Y-17416890D01*
X12509820Y-17531176D02*
X12490772Y-17521652D01*
X12481249Y-17512129D01*
X12471725Y-17493081D01*
X12471725Y-17435938D01*
X12481249Y-17416890D01*
X12490772Y-17407367D01*
X12509820Y-17397843D01*
X12538391Y-17397843D01*
X12557439Y-17407367D01*
X12566963Y-17416890D01*
X12576487Y-17435938D01*
X12576487Y-17493081D01*
X12566963Y-17512129D01*
X12557439Y-17521652D01*
X12538391Y-17531176D01*
X12509820Y-17531176D01*
X12690772Y-17531176D02*
X12671725Y-17521652D01*
X12662201Y-17502605D01*
X12662201Y-17331176D01*
X12843153Y-17521652D02*
X12824106Y-17531176D01*
X12786010Y-17531176D01*
X12766963Y-17521652D01*
X12757439Y-17502605D01*
X12757439Y-17426414D01*
X12766963Y-17407367D01*
X12786010Y-17397843D01*
X12824106Y-17397843D01*
X12843153Y-17407367D01*
X12852677Y-17426414D01*
X12852677Y-17445462D01*
X12757439Y-17464510D01*
X12928868Y-17521652D02*
X12947915Y-17531176D01*
X12986010Y-17531176D01*
X13005058Y-17521652D01*
X13014582Y-17502605D01*
X13014582Y-17493081D01*
X13005058Y-17474033D01*
X12986010Y-17464510D01*
X12957439Y-17464510D01*
X12938391Y-17454986D01*
X12928868Y-17435938D01*
X12928868Y-17426414D01*
X12938391Y-17407367D01*
X12957439Y-17397843D01*
X12986010Y-17397843D01*
X13005058Y-17407367D01*
X13081249Y-17607367D02*
X13090772Y-17597843D01*
X13109820Y-17569271D01*
X13119344Y-17550224D01*
X13128868Y-17521652D01*
X13138391Y-17474033D01*
X13138391Y-17435938D01*
X13128868Y-17388319D01*
X13119344Y-17359748D01*
X13109820Y-17340700D01*
X13090772Y-17312129D01*
X13081249Y-17302605D01*
M02*
