<svg xmlns="http://www.w3.org/2000/svg" xmlns:xlink="http://www.w3.org/1999/xlink" width="21.133mm" height="23.139mm" viewBox="4008.4 3021.9 83.2 91.1"><title></title><style type="text/css">
*[layerid="1"] {stroke:#000000;fill:#000000;}
*[layerid="2"] {stroke:#000000;fill:#000000;}
*[layerid="3"] {stroke:#000000;fill:#000000;}
*[layerid="4"] {stroke:#000000;fill:#000000;}
*[layerid="5"] {stroke:#000000;fill:#000000;}
*[layerid="6"] {stroke:#000000;fill:#000000;}
*[layerid="7"] {stroke:#000000;fill:#000000;}
*[layerid="8"] {stroke:#000000;fill:#000000;}
*[layerid="9"] {stroke:#000000;fill:#000000;}
*[layerid="10"] {stroke:#000000;fill:#000000;}
*[layerid="11"] {stroke:#000000;fill:#000000;}
*[layerid="12"] {stroke:#000000;fill:#000000;}
*[layerid="13"] {stroke:#000000;fill:#000000;}
*[layerid="14"] {stroke:#000000;fill:#000000;}
*[layerid="15"] {stroke:#000000;fill:#000000;}
*[layerid="19"] {stroke:#000000;fill:#000000;}
*[layerid="21"] {stroke:#000000;fill:#000000;}
*[layerid="22"] {stroke:#000000;fill:#000000;}
*[layerid="23"] {stroke:#000000;fill:#000000;}
*[layerid="24"] {stroke:#000000;fill:#000000;}
*[layerid="25"] {stroke:#000000;fill:#000000;}
*[layerid="26"] {stroke:#000000;fill:#000000;}
*[layerid="27"] {stroke:#000000;fill:#000000;}
*[layerid="28"] {stroke:#000000;fill:#000000;}
*[layerid="29"] {stroke:#000000;fill:#000000;}
*[layerid="30"] {stroke:#000000;fill:#000000;}
*[layerid="31"] {stroke:#000000;fill:#000000;}
*[layerid="32"] {stroke:#000000;fill:#000000;}
*[layerid="33"] {stroke:#000000;fill:#000000;}
*[layerid="34"] {stroke:#000000;fill:#000000;}
*[layerid="35"] {stroke:#000000;fill:#000000;}
*[layerid="36"] {stroke:#000000;fill:#000000;}
*[layerid="37"] {stroke:#000000;fill:#000000;}
*[layerid="38"] {stroke:#000000;fill:#000000;}
*[layerid="39"] {stroke:#000000;fill:#000000;}
*[layerid="40"] {stroke:#000000;fill:#000000;}
*[layerid="41"] {stroke:#000000;fill:#000000;}
*[layerid="42"] {stroke:#000000;fill:#000000;}
*[layerid="43"] {stroke:#000000;fill:#000000;}
*[layerid="44"] {stroke:#000000;fill:#000000;}
*[layerid="45"] {stroke:#000000;fill:#000000;}
*[layerid="46"] {stroke:#000000;fill:#000000;}
*[layerid="47"] {stroke:#000000;fill:#000000;}
*[layerid="48"] {stroke:#000000;fill:#000000;}
*[layerid="49"] {stroke:#000000;fill:#000000;}
*[layerid="50"] {stroke:#000000;fill:#000000;}
*[layerid="51"] {stroke:#000000;fill:#000000;}
*[layerid="52"] {stroke:#000000;fill:#000000;}
*[layerid="99"] {stroke:#000000;fill:#000000;}
*[layerid="100"] {stroke:#000000;fill:#000000;}
*[layerid="101"] {stroke:#000000;fill:#000000;}
*[layerid="Hole"] {stroke:#000000;fill:#000000;}
*[layerid="DRCError"] {stroke:#000000;fill:#000000;}
*[fill="none"] {fill: none;}
*[stroke="none"] {stroke: none;}
path, polyline, polygon, line {stroke-linecap:round;}
g[c_partid="part_pad"][layerid="1"] ellipse:not([c_etype="pad_outer"]) {fill:#000000;}
g[c_partid="part_pad"][layerid="1"] polygon:not([c_etype="pad_outer"]) {fill:#000000;}
g[c_partid="part_pad"][layerid="1"] polyline:not([c_etype="pad_outer"]) {stroke:#000000;}
g[c_partid="part_pad"][layerid="2"] ellipse:not([c_etype="pad_outer"]) {fill:#000000;}
g[c_partid="part_pad"][layerid="2"] polygon:not([c_etype="pad_outer"]) {fill:#000000;}
g[c_partid="part_pad"][layerid="2"] polyline:not([c_etype="pad_outer"]) {stroke:#000000;}
g[c_partid="part_pad"][layerid="11"] ellipse:not([c_etype="pad_outer"]) {fill:#000000;}
g[c_partid="part_pad"][layerid="11"] polygon:not([c_etype="pad_outer"]) {fill:#000000;}
g[c_partid="part_pad"][layerid="11"] polyline:not([c_etype="pad_outer"]) {stroke:#000000;}
g[c_partid="part_pad"][layerid="11"] circle {fill:#FFFFFF;}
g[c_partid="part_pad"][layerid="11"] > polyline:nth-of-type(2) {stroke:#FFFFFF;}
g[c_partid="part_pad"][layerid="11"][c_shape="ELLIPSE"]  polyline:nth-last-of-type(1) {stroke:#FFFFFF;}
g[c_partid="part_pad"][layerid="11"][c_shape="RECT"]  polyline:nth-last-of-type(1) {stroke:#FFFFFF;}
g[c_partid="part_pad"][layerid="11"][c_shape="POLYGON"]  polyline:nth-last-of-type(1) {stroke:#FFFFFF;}
g[c_partid="part_via"] > * + circle, #gCurParts g[c_partid="part_via"] > * + circle {fill:#FFFFFF;}
g[c_partid="part_pad"] > polygon[c_etype="pad_outer"], #gCurParts g[c_partid="part_pad"] > polygon[c_etype="pad_outer"] {stroke-linejoin: round;stroke-miterlimit: 100;}
g[c_partid="part_hole"] > circle {fill: #FFFFFF;}path, polyline, polygon {stroke-linejoin:round;}
rect, circle, ellipse, polyline, line, polygon, path {shape-rendering:crispEdges;}
</style>
<rect x="4008.4" y="3021.9" width="83.2" height="91.1" fill="#FFFFFF" stroke="none"/><g c_partid="part_pad" c_etype="pinpart" c_origin="4075.8665,3056.8895" layerid="11" number="11" net="" plated ="Y"  id="gge133" locked="0" c_rotation="0" c_width="11.0236" c_height="11.0236" title="" c_shape="ELLIPSE" pasteexpansion="0" solderexpansion="0.2"><ellipse c_etype="pad_shell" cx="4075.8665" cy="3056.8895" rx="5.5118" ry="5.5118" layerid="11" stroke-width="0"/><circle c_etype="pad_hole" cx="4075.8665" cy="3056.8895" r="4.5276" layerid="11" stroke-width="0"/></g><g c_partid="part_pad" c_etype="pinpart" c_origin="4024.1335,3056.8895" layerid="11" number="10" net="" plated ="Y"  id="gge148" locked="0" c_rotation="0" c_width="11.0236" c_height="11.0236" title="" c_shape="ELLIPSE" pasteexpansion="0" solderexpansion="0.2"><ellipse c_etype="pad_shell" cx="4024.1335" cy="3056.8895" rx="5.5118" ry="5.5118" layerid="11" stroke-width="0"/><circle c_etype="pad_hole" cx="4024.1335" cy="3056.8895" r="4.5276" layerid="11" stroke-width="0"/></g><g c_partid="part_pad" c_etype="pinpart" c_origin="4034.2525,3043.1105" layerid="11" number="9" net="" plated ="Y"  id="gge163" locked="0" c_rotation="0" c_width="5.1181" c_height="5.1181" title="" c_shape="ELLIPSE" pasteexpansion="0" solderexpansion="0.2"><ellipse c_etype="pad_shell" cx="4034.2525" cy="3043.1105" rx="2.55905" ry="2.55905" layerid="11" stroke-width="0"/><circle c_etype="pad_hole" cx="4034.2525" cy="3043.1105" r="1.378" layerid="11" stroke-width="0"/></g><g c_partid="part_pad" c_etype="pinpart" c_origin="4042.1265,3043.1105" layerid="11" number="8" net="" plated ="Y"  id="gge178" locked="0" c_rotation="0" c_width="5.1181" c_height="5.1181" title="" c_shape="ELLIPSE" pasteexpansion="0" solderexpansion="0.2"><ellipse c_etype="pad_shell" cx="4042.1265" cy="3043.1105" rx="2.55905" ry="2.55905" layerid="11" stroke-width="0"/><circle c_etype="pad_hole" cx="4042.1265" cy="3043.1105" r="1.378" layerid="11" stroke-width="0"/></g><g c_partid="part_pad" c_etype="pinpart" c_origin="4050.0005,3043.1105" layerid="11" number="7" net="" plated ="Y"  id="gge193" locked="0" c_rotation="0" c_width="5.1181" c_height="5.1181" title="" c_shape="ELLIPSE" pasteexpansion="0" solderexpansion="0.2"><ellipse c_etype="pad_shell" cx="4050.0005" cy="3043.1105" rx="2.55905" ry="2.55905" layerid="11" stroke-width="0"/><circle c_etype="pad_hole" cx="4050.0005" cy="3043.1105" r="1.378" layerid="11" stroke-width="0"/></g><g c_partid="part_pad" c_etype="pinpart" c_origin="4057.8745,3043.1105" layerid="11" number="6" net="" plated ="Y"  id="gge208" locked="0" c_rotation="0" c_width="5.1181" c_height="5.1181" title="" c_shape="ELLIPSE" pasteexpansion="0" solderexpansion="0.2"><ellipse c_etype="pad_shell" cx="4057.8745" cy="3043.1105" rx="2.55905" ry="2.55905" layerid="11" stroke-width="0"/><circle c_etype="pad_hole" cx="4057.8745" cy="3043.1105" r="1.378" layerid="11" stroke-width="0"/></g><g c_partid="part_pad" c_etype="pinpart" c_origin="4065.7485,3043.1105" layerid="11" number="5" net="" plated ="Y"  id="gge223" locked="0" c_rotation="0" c_width="5.1181" c_height="5.1181" title="" c_shape="ELLIPSE" pasteexpansion="0" solderexpansion="0.2"><ellipse c_etype="pad_shell" cx="4065.7485" cy="3043.1105" rx="2.55905" ry="2.55905" layerid="11" stroke-width="0"/><circle c_etype="pad_hole" cx="4065.7485" cy="3043.1105" r="1.378" layerid="11" stroke-width="0"/></g><g c_partid="part_pad" c_etype="pinpart" c_origin="4063.7795,3049.0155" layerid="11" number="4" net="" plated ="Y"  id="gge238" locked="0" c_rotation="0" c_width="5.1181" c_height="5.1181" title="" c_shape="ELLIPSE" pasteexpansion="0" solderexpansion="0.2"><ellipse c_etype="pad_shell" cx="4063.7795" cy="3049.0155" rx="2.55905" ry="2.55905" layerid="11" stroke-width="0"/><circle c_etype="pad_hole" cx="4063.7795" cy="3049.0155" r="1.378" layerid="11" stroke-width="0"/></g><g c_partid="part_pad" c_etype="pinpart" c_origin="4053.9375,3049.0155" layerid="11" number="3" net="" plated ="Y"  id="gge253" locked="0" c_rotation="0" c_width="5.1181" c_height="5.1181" title="" c_shape="ELLIPSE" pasteexpansion="0" solderexpansion="0.2"><ellipse c_etype="pad_shell" cx="4053.9375" cy="3049.0155" rx="2.55905" ry="2.55905" layerid="11" stroke-width="0"/><circle c_etype="pad_hole" cx="4053.9375" cy="3049.0155" r="1.378" layerid="11" stroke-width="0"/></g><g c_partid="part_pad" c_etype="pinpart" c_origin="4046.0635,3049.0155" layerid="11" number="2" net="" plated ="Y"  id="gge268" locked="0" c_rotation="0" c_width="5.1181" c_height="5.1181" title="" c_shape="ELLIPSE" pasteexpansion="0" solderexpansion="0.2"><ellipse c_etype="pad_shell" cx="4046.0635" cy="3049.0155" rx="2.55905" ry="2.55905" layerid="11" stroke-width="0"/><circle c_etype="pad_hole" cx="4046.0635" cy="3049.0155" r="1.378" layerid="11" stroke-width="0"/></g><g c_partid="part_pad" c_etype="pinpart" c_origin="4036.2205,3049.0155" layerid="11" number="1" net="" plated ="Y"  id="gge283" locked="0" c_rotation="0" c_width="5.1181" c_height="5.1181" title="" c_shape="ELLIPSE" pasteexpansion="0" solderexpansion="0.2"><ellipse c_etype="pad_shell" cx="4036.2205" cy="3049.0155" rx="2.55905" ry="2.55905" layerid="11" stroke-width="0"/><circle c_etype="pad_hole" cx="4036.2205" cy="3049.0155" r="1.378" layerid="11" stroke-width="0"/></g><polyline points="4027.9965 3102.9995 4071.9965 3102.9995 4071.9965 3099.4995 4074.4965 3099.4995 4074.4965 3101.4995 4075.4965 3102.4995 4075.9965 3102.9995 4078.4965 3102.9995 4078.4965 3101.9995 4076.9965 3101.9995 4076.9965 3101.4995" stroke-width="1"  stroke-linecap="round" fill="none" layerid="3" net="" id="gge85" locked="0" /><polyline points="4022.9965 3063.2095 4022.9965 3101.9995 4021.4965 3101.9995 4021.4965 3102.9995 4023.9965 3102.9995 4025 3101.5 4025.4965 3099.4995 4027.9965 3099.4995 4027.9965 3102.4995 4027.9965 3102.9995" stroke-width="1"  stroke-linecap="round" fill="none" layerid="3" net="" id="gge88" locked="0" /><polyline points="4077 3050.5687 4077 3038 4023 3038" stroke-width="1"  stroke-linecap="round" fill="none" layerid="3" net="" id="gge91" locked="0" /><polyline points="4077 3101.5 4077 3063.2103" stroke-width="1"  stroke-linecap="round" fill="none" layerid="3" net="" id="gge94" locked="0" /><polyline points="4023 3038 4023 3050.5687" stroke-width="1"  stroke-linecap="round" fill="none" layerid="3" net="" id="gge97" locked="0" /><polyline points="4047.1451 3079.2655 4045.9451 3079.0655 4042.845 3097.1654 4039.1451 3097.1654 4036.565 3079.1954 4035.2552 3079.2955 4037.5452 3099.1654 4044.845 3099.1654 4047.1451 3079.2655" stroke-width="1"  stroke-linecap="round" fill="none" layerid="3" net="" id="gge100" locked="0" /><polyline points="4036.9451 3082.8656 4045.1451 3082.8656" stroke-width="1"  stroke-linecap="round" fill="none" layerid="3" net="" id="gge103" locked="0" /><polyline points="4038.2452 3089.7655 4043.9451 3089.7655" stroke-width="1"  stroke-linecap="round" fill="none" layerid="3" net="" id="gge106" locked="0" /><polyline points="4055.845 3089.5655 4061.5452 3089.5655" stroke-width="1"  stroke-linecap="round" fill="none" layerid="3" net="" id="gge109" locked="0" /><polyline points="4054.5452 3082.6654 4062.7452 3082.6654" stroke-width="1"  stroke-linecap="round" fill="none" layerid="3" net="" id="gge112" locked="0" /><polyline points="4064.7452 3079.0655 4062.4451 3098.9655 4055.1451 3098.9655 4052.855 3079.0956 4054.1651 3078.9955 4056.7452 3096.9655 4060.4451 3096.9655 4063.5452 3078.8656 4064.7452 3079.0655" stroke-width="1"  stroke-linecap="round" fill="none" layerid="3" net="" id="gge115" locked="0" /><g c_partid="part_pcbtext" c_etype="" c_origin="4049.8665,3029.3895" c_rotation="0" c_mirror="" id="gge16" locked="0" layerid="3" c_shapetype="group" display="none"><path c_fontsize="4.5" c_fontfamily="" c_text="USB-3.0-TH_C69073" d="M 4049.8665 3024.8495 L 4049.8665 3027.9195 L 4050.0665 3028.5295 L 4050.4765 3028.9395 L 4051.0965 3029.1395 L 4051.5065 3029.1395 L 4052.1165 3028.9395 L 4052.5265 3028.5295 L 4052.7265 3027.9195 L 4052.7265 3024.8495 M 4056.9465 3025.4595 L 4056.5365 3025.0495 L 4055.9165 3024.8495 L 4055.1065 3024.8495 L 4054.4865 3025.0495 L 4054.0765 3025.4595 L 4054.0765 3025.8695 L 4054.2865 3026.2795 L 4054.4865 3026.4895 L 4054.8965 3026.6895 L 4056.1265 3027.0995 L 4056.5365 3027.2995 L 4056.7365 3027.5095 L 4056.9465 3027.9195 L 4056.9465 3028.5295 L 4056.5365 3028.9395 L 4055.9165 3029.1395 L 4055.1065 3029.1395 L 4054.4865 3028.9395 L 4054.0765 3028.5295 M 4058.2965 3024.8495 L 4058.2965 3029.1395 M 4058.2965 3024.8495 L 4060.1365 3024.8495 L 4060.7465 3025.0495 L 4060.9565 3025.2595 L 4061.1565 3025.6695 L 4061.1565 3026.0795 L 4060.9565 3026.4895 L 4060.7465 3026.6895 L 4060.1365 3026.8895 M 4058.2965 3026.8895 L 4060.1365 3026.8895 L 4060.7465 3027.0995 L 4060.9565 3027.2995 L 4061.1565 3027.7095 L 4061.1565 3028.3295 L 4060.9565 3028.7395 L 4060.7465 3028.9395 L 4060.1365 3029.1395 L 4058.2965 3029.1395 M 4062.5065 3027.2995 L 4066.1865 3027.2995 M 4067.9465 3024.8495 L 4070.1965 3024.8495 L 4068.9665 3026.4895 L 4069.5865 3026.4895 L 4069.9965 3026.6895 L 4070.1965 3026.8895 L 4070.4065 3027.5095 L 4070.4065 3027.9195 L 4070.1965 3028.5295 L 4069.7865 3028.9395 L 4069.1765 3029.1395 L 4068.5665 3029.1395 L 4067.9465 3028.9395 L 4067.7465 3028.7395 L 4067.5365 3028.3295 M 4071.9565 3028.1195 L 4071.7565 3028.3295 L 4071.9565 3028.5295 L 4072.1665 3028.3295 L 4071.9565 3028.1195 M 4074.7365 3024.8495 L 4074.1265 3025.0495 L 4073.7165 3025.6695 L 4073.5165 3026.6895 L 4073.5165 3027.2995 L 4073.7165 3028.3295 L 4074.1265 3028.9395 L 4074.7365 3029.1395 L 4075.1465 3029.1395 L 4075.7665 3028.9395 L 4076.1665 3028.3295 L 4076.3765 3027.2995 L 4076.3765 3026.6895 L 4076.1665 3025.6695 L 4075.7665 3025.0495 L 4075.1465 3024.8495 L 4074.7365 3024.8495 M 4077.7265 3027.2995 L 4081.4065 3027.2995 M 4084.1865 3024.8495 L 4084.1865 3029.1395 M 4082.7565 3024.8495 L 4085.6165 3024.8495 M 4086.9665 3024.8495 L 4086.9665 3029.1395 M 4089.8365 3024.8495 L 4089.8365 3029.1395 M 4086.9665 3026.8895 L 4089.8365 3026.8895 M 4091.1865 3030.5795 L 4094.8665 3030.5795 M 4099.2865 3025.8695 L 4099.0765 3025.4595 L 4098.6665 3025.0495 L 4098.2665 3024.8495 L 4097.4465 3024.8495 L 4097.0365 3025.0495 L 4096.6265 3025.4595 L 4096.4165 3025.8695 L 4096.2165 3026.4895 L 4096.2165 3027.5095 L 4096.4165 3028.1195 L 4096.6265 3028.5295 L 4097.0365 3028.9395 L 4097.4465 3029.1395 L 4098.2665 3029.1395 L 4098.6665 3028.9395 L 4099.0765 3028.5295 L 4099.2865 3028.1195 M 4103.0865 3025.4595 L 4102.8865 3025.0495 L 4102.2665 3024.8495 L 4101.8665 3024.8495 L 4101.2465 3025.0495 L 4100.8365 3025.6695 L 4100.6365 3026.6895 L 4100.6365 3027.7095 L 4100.8365 3028.5295 L 4101.2465 3028.9395 L 4101.8665 3029.1395 L 4102.0665 3029.1395 L 4102.6765 3028.9395 L 4103.0865 3028.5295 L 4103.2965 3027.9195 L 4103.2965 3027.7095 L 4103.0865 3027.0995 L 4102.6765 3026.6895 L 4102.0665 3026.4895 L 4101.8665 3026.4895 L 4101.2465 3026.6895 L 4100.8365 3027.0995 L 4100.6365 3027.7095 M 4107.3065 3026.2795 L 4107.0965 3026.8895 L 4106.6865 3027.2995 L 4106.0765 3027.5095 L 4105.8665 3027.5095 L 4105.2565 3027.2995 L 4104.8465 3026.8895 L 4104.6465 3026.2795 L 4104.6465 3026.0795 L 4104.8465 3025.4595 L 4105.2565 3025.0495 L 4105.8665 3024.8495 L 4106.0765 3024.8495 L 4106.6865 3025.0495 L 4107.0965 3025.4595 L 4107.3065 3026.2795 L 4107.3065 3027.2995 L 4107.0965 3028.3295 L 4106.6865 3028.9395 L 4106.0765 3029.1395 L 4105.6665 3029.1395 L 4105.0565 3028.9395 L 4104.8465 3028.5295 M 4109.8765 3024.8495 L 4109.2665 3025.0495 L 4108.8565 3025.6695 L 4108.6565 3026.6895 L 4108.6565 3027.2995 L 4108.8565 3028.3295 L 4109.2665 3028.9395 L 4109.8765 3029.1395 L 4110.2865 3029.1395 L 4110.9065 3028.9395 L 4111.3165 3028.3295 L 4111.5165 3027.2995 L 4111.5165 3026.6895 L 4111.3165 3025.6695 L 4110.9065 3025.0495 L 4110.2865 3024.8495 L 4109.8765 3024.8495 M 4115.7265 3024.8495 L 4113.6865 3029.1395 M 4112.8665 3024.8495 L 4115.7265 3024.8495 M 4117.4865 3024.8495 L 4119.7365 3024.8495 L 4118.5165 3026.4895 L 4119.1265 3026.4895 L 4119.5365 3026.6895 L 4119.7365 3026.8895 L 4119.9465 3027.5095 L 4119.9465 3027.9195 L 4119.7365 3028.5295 L 4119.3265 3028.9395 L 4118.7165 3029.1395 L 4118.1065 3029.1395 L 4117.4865 3028.9395 L 4117.2865 3028.7395 L 4117.0765 3028.3295" fill="none"  stroke-width="0.6" c_note="note_name" /></g><g c_partid="part_pcbtext" c_etype="" c_origin="4049.8665,3036.3895" c_rotation="0" c_mirror="" id="gge22" locked="0" layerid="3" c_shapetype="group" ><path c_fontsize="4.5" c_fontfamily="" c_text="U1" d="M 4049.87 3031.85L4049.87 3034.92 L4050.07 3035.53 L4050.48 3035.94 L4051.09 3036.14 L4051.5 3036.14 L4052.12 3035.94 L4052.53 3035.53 L4052.73 3034.92 L4052.73 3031.85 M 4054.08 3032.67L4054.49 3032.46 L4055.1 3031.85 L4055.1 3036.14 " fill="none"  stroke-width="0.6" c_note="note_pre" /></g></svg>