%TF.GenerationSoftware,KiCad,Pcbnew,6.0.0-d3dd2cf0fa~116~ubuntu20.04.1*%
%TF.CreationDate,2022-03-13T21:12:50+01:00*%
%TF.ProjectId,arrow_deca_retro_cape,6172726f-775f-4646-9563-615f72657472,0.71*%
%TF.SameCoordinates,Original*%
%TF.FileFunction,Profile,NP*%
%FSLAX46Y46*%
G04 Gerber Fmt 4.6, Leading zero omitted, Abs format (unit mm)*
G04 Created by KiCad (PCBNEW 6.0.0-d3dd2cf0fa~116~ubuntu20.04.1) date 2022-03-13 21:12:50*
%MOMM*%
%LPD*%
G01*
G04 APERTURE LIST*
%TA.AperFunction,Profile*%
%ADD10C,0.050000*%
%TD*%
G04 APERTURE END LIST*
D10*
X161342505Y-111826974D02*
X148668479Y-111826974D01*
X120661318Y-104065000D02*
X120661318Y-114525000D01*
X134605344Y-115795000D02*
X121931318Y-115795000D01*
X148668479Y-111826974D02*
G75*
G03*
X147398479Y-113096974I-1J-1269999D01*
G01*
X120661318Y-114525000D02*
G75*
G03*
X121931318Y-115795000I1269999J-1D01*
G01*
X182326516Y-140387000D02*
G75*
G03*
X183088516Y-139625000I-1J762001D01*
G01*
X83855331Y-122720000D02*
X135113331Y-122724000D01*
X147398479Y-113096974D02*
X147398479Y-134556974D01*
X135875344Y-104065000D02*
X135875344Y-114525000D01*
X161342505Y-135826974D02*
G75*
G03*
X162612505Y-134556974I1J1269999D01*
G01*
X83955331Y-40424000D02*
X182326516Y-40424000D01*
X183088516Y-41186000D02*
G75*
G03*
X182326516Y-40424000I-762001J-1D01*
G01*
X135875344Y-104065000D02*
G75*
G03*
X134605344Y-102795000I-1269999J1D01*
G01*
X162612505Y-113096974D02*
G75*
G03*
X161342505Y-111826974I-1269999J1D01*
G01*
X162612505Y-113096974D02*
X162612505Y-134556974D01*
X161342505Y-135826974D02*
X148668479Y-135826974D01*
X135875331Y-123580188D02*
X135875331Y-139625000D01*
X135875330Y-123580188D02*
G75*
G03*
X135113331Y-122724000I-862019J-9D01*
G01*
X83955331Y-40424000D02*
G75*
G03*
X83105331Y-41174000I5J-856672D01*
G01*
X134605344Y-102795000D02*
X121931318Y-102795000D01*
X147398479Y-134556974D02*
G75*
G03*
X148668479Y-135826974I1269999J-1D01*
G01*
X182326516Y-140387000D02*
X136637331Y-140387000D01*
X183088516Y-41186000D02*
X183088516Y-139625000D01*
X135875331Y-139625000D02*
G75*
G03*
X136637331Y-140387000I762001J1D01*
G01*
X134605344Y-115795000D02*
G75*
G03*
X135875344Y-114525000I1J1269999D01*
G01*
X83105331Y-121870000D02*
G75*
G03*
X83855331Y-122720000I856672J5D01*
G01*
X121931318Y-102795000D02*
G75*
G03*
X120661318Y-104065000I-1J-1269999D01*
G01*
X83105331Y-41174000D02*
X83105331Y-121870000D01*
M02*
