%TF.GenerationSoftware,KiCad,Pcbnew,6.0.0-d3dd2cf0fa~116~ubuntu20.04.1*%
%TF.CreationDate,2022-03-13T21:12:49+01:00*%
%TF.ProjectId,arrow_deca_retro_cape,6172726f-775f-4646-9563-615f72657472,0.71*%
%TF.SameCoordinates,Original*%
%TF.FileFunction,Paste,Top*%
%TF.FilePolarity,Positive*%
%FSLAX46Y46*%
G04 Gerber Fmt 4.6, Leading zero omitted, Abs format (unit mm)*
G04 Created by KiCad (PCBNEW 6.0.0-d3dd2cf0fa~116~ubuntu20.04.1) date 2022-03-13 21:12:49*
%MOMM*%
%LPD*%
G01*
G04 APERTURE LIST*
G04 Aperture macros list*
%AMRoundRect*
0 Rectangle with rounded corners*
0 $1 Rounding radius*
0 $2 $3 $4 $5 $6 $7 $8 $9 X,Y pos of 4 corners*
0 Add a 4 corners polygon primitive as box body*
4,1,4,$2,$3,$4,$5,$6,$7,$8,$9,$2,$3,0*
0 Add four circle primitives for the rounded corners*
1,1,$1+$1,$2,$3*
1,1,$1+$1,$4,$5*
1,1,$1+$1,$6,$7*
1,1,$1+$1,$8,$9*
0 Add four rect primitives between the rounded corners*
20,1,$1+$1,$2,$3,$4,$5,0*
20,1,$1+$1,$4,$5,$6,$7,0*
20,1,$1+$1,$6,$7,$8,$9,0*
20,1,$1+$1,$8,$9,$2,$3,0*%
G04 Aperture macros list end*
%ADD10R,1.500000X2.000000*%
%ADD11R,3.800000X2.000000*%
%ADD12RoundRect,0.250000X0.325000X0.450000X-0.325000X0.450000X-0.325000X-0.450000X0.325000X-0.450000X0*%
%ADD13RoundRect,0.250000X0.350000X0.450000X-0.350000X0.450000X-0.350000X-0.450000X0.350000X-0.450000X0*%
%ADD14RoundRect,0.250000X-0.450000X0.350000X-0.450000X-0.350000X0.450000X-0.350000X0.450000X0.350000X0*%
%ADD15RoundRect,0.150000X-0.150000X0.587500X-0.150000X-0.587500X0.150000X-0.587500X0.150000X0.587500X0*%
%ADD16RoundRect,0.150000X-0.587500X-0.150000X0.587500X-0.150000X0.587500X0.150000X-0.587500X0.150000X0*%
%ADD17RoundRect,0.250000X-0.350000X-0.450000X0.350000X-0.450000X0.350000X0.450000X-0.350000X0.450000X0*%
%ADD18RoundRect,0.250000X-0.337500X-0.475000X0.337500X-0.475000X0.337500X0.475000X-0.337500X0.475000X0*%
G04 APERTURE END LIST*
D10*
%TO.C,U4*%
X126082331Y-80520000D03*
D11*
X128382331Y-74220000D03*
D10*
X128382331Y-80520000D03*
X130682331Y-80520000D03*
%TD*%
D12*
%TO.C,C18*%
X130818331Y-82729000D03*
X128768331Y-82729000D03*
%TD*%
%TO.C,C19*%
X128636331Y-71807000D03*
X126586331Y-71807000D03*
%TD*%
D13*
%TO.C,R29*%
X98790000Y-76200000D03*
X96790000Y-76200000D03*
%TD*%
%TO.C,R31*%
X98790000Y-56515000D03*
X96790000Y-56515000D03*
%TD*%
D14*
%TO.C,R13*%
X139573000Y-101632000D03*
X139573000Y-103632000D03*
%TD*%
D13*
%TO.C,R19*%
X98790000Y-44450000D03*
X96790000Y-44450000D03*
%TD*%
D14*
%TO.C,R5*%
X146670331Y-57345000D03*
X146670331Y-59345000D03*
%TD*%
D15*
%TO.C,D5*%
X155128000Y-101678500D03*
X153228000Y-101678500D03*
X154178000Y-103553500D03*
%TD*%
%TO.C,D11*%
X160970000Y-101678500D03*
X159070000Y-101678500D03*
X160020000Y-103553500D03*
%TD*%
D13*
%TO.C,R3*%
X136128000Y-61520000D03*
X134128000Y-61520000D03*
%TD*%
D15*
%TO.C,D8*%
X149286000Y-101678500D03*
X147386000Y-101678500D03*
X148336000Y-103553500D03*
%TD*%
D16*
%TO.C,D4*%
X148946231Y-57340400D03*
X148946231Y-59240400D03*
X150821231Y-58290400D03*
%TD*%
D13*
%TO.C,R35*%
X98790000Y-64135000D03*
X96790000Y-64135000D03*
%TD*%
D15*
%TO.C,D10*%
X160970000Y-107329000D03*
X159070000Y-107329000D03*
X160020000Y-109204000D03*
%TD*%
D14*
%TO.C,R12*%
X157099000Y-101615000D03*
X157099000Y-103615000D03*
%TD*%
%TO.C,R15*%
X157099000Y-107188000D03*
X157099000Y-109188000D03*
%TD*%
D13*
%TO.C,R30*%
X98790000Y-78105000D03*
X96790000Y-78105000D03*
%TD*%
D16*
%TO.C,D3*%
X153346231Y-57340400D03*
X153346231Y-59240400D03*
X155221231Y-58290400D03*
%TD*%
D14*
%TO.C,R16*%
X139573000Y-107204000D03*
X139573000Y-109204000D03*
%TD*%
D13*
%TO.C,R18*%
X104505000Y-47625000D03*
X102505000Y-47625000D03*
%TD*%
%TO.C,R32*%
X98790000Y-58420000D03*
X96790000Y-58420000D03*
%TD*%
D10*
%TO.C,U5*%
X135267331Y-89434200D03*
D11*
X132967331Y-95734200D03*
D10*
X132967331Y-89434200D03*
X130667331Y-89434200D03*
%TD*%
D13*
%TO.C,R27*%
X98790000Y-72390000D03*
X96790000Y-72390000D03*
%TD*%
%TO.C,R23*%
X98790000Y-52070000D03*
X96790000Y-52070000D03*
%TD*%
D17*
%TO.C,R4*%
X129125331Y-61520000D03*
X131125331Y-61520000D03*
%TD*%
D14*
%TO.C,R10*%
X145415000Y-107188000D03*
X145415000Y-109188000D03*
%TD*%
%TO.C,R14*%
X145415000Y-101617000D03*
X145415000Y-103617000D03*
%TD*%
D15*
%TO.C,D7*%
X149286000Y-107250500D03*
X147386000Y-107250500D03*
X148336000Y-109125500D03*
%TD*%
D14*
%TO.C,R9*%
X151257000Y-101616000D03*
X151257000Y-103616000D03*
%TD*%
D13*
%TO.C,R26*%
X98790000Y-70485000D03*
X96790000Y-70485000D03*
%TD*%
%TO.C,R33*%
X98790000Y-60325000D03*
X96790000Y-60325000D03*
%TD*%
%TO.C,R22*%
X98790000Y-50165000D03*
X96790000Y-50165000D03*
%TD*%
D17*
%TO.C,R8*%
X148210331Y-61520000D03*
X150210331Y-61520000D03*
%TD*%
D16*
%TO.C,D2*%
X129861231Y-57340400D03*
X129861231Y-59240400D03*
X131736231Y-58290400D03*
%TD*%
D13*
%TO.C,R20*%
X98790000Y-46355000D03*
X96790000Y-46355000D03*
%TD*%
D15*
%TO.C,D12*%
X143444000Y-107250500D03*
X141544000Y-107250500D03*
X142494000Y-109125500D03*
%TD*%
D13*
%TO.C,R7*%
X155178000Y-61520000D03*
X153178000Y-61520000D03*
%TD*%
%TO.C,R24*%
X98790000Y-53975000D03*
X96790000Y-53975000D03*
%TD*%
D14*
%TO.C,R2*%
X138380331Y-57345000D03*
X138380331Y-59345000D03*
%TD*%
D18*
%TO.C,C21*%
X138281500Y-93853000D03*
X140356500Y-93853000D03*
%TD*%
D13*
%TO.C,R21*%
X98790000Y-48260000D03*
X96790000Y-48260000D03*
%TD*%
%TO.C,R28*%
X98790000Y-74295000D03*
X96790000Y-74295000D03*
%TD*%
D14*
%TO.C,R1*%
X127585331Y-57345000D03*
X127585331Y-59345000D03*
%TD*%
D15*
%TO.C,D9*%
X155128000Y-107250500D03*
X153228000Y-107250500D03*
X154178000Y-109125500D03*
%TD*%
D16*
%TO.C,D1*%
X134261231Y-57340400D03*
X134261231Y-59240400D03*
X136136231Y-58290400D03*
%TD*%
D13*
%TO.C,R17*%
X104505000Y-44450000D03*
X102505000Y-44450000D03*
%TD*%
D18*
%TO.C,C20*%
X131040831Y-86869200D03*
X133115831Y-86869200D03*
%TD*%
D14*
%TO.C,R6*%
X157465331Y-57345000D03*
X157465331Y-59345000D03*
%TD*%
D13*
%TO.C,R25*%
X98790000Y-68580000D03*
X96790000Y-68580000D03*
%TD*%
D15*
%TO.C,D6*%
X143444000Y-101678500D03*
X141544000Y-101678500D03*
X142494000Y-103553500D03*
%TD*%
D14*
%TO.C,R11*%
X151257000Y-107172000D03*
X151257000Y-109172000D03*
%TD*%
D13*
%TO.C,R36*%
X98790000Y-66040000D03*
X96790000Y-66040000D03*
%TD*%
%TO.C,R34*%
X98790000Y-62230000D03*
X96790000Y-62230000D03*
%TD*%
M02*
