M48
; DRILL file {KiCad 6.0.0-d3dd2cf0fa~116~ubuntu20.04.1} date Sun 13 Mar 2022 21:35:54 CET
; FORMAT={-:-/ absolute / metric / decimal}
; #@! TF.CreationDate,2022-03-13T21:35:54+01:00
; #@! TF.GenerationSoftware,Kicad,Pcbnew,6.0.0-d3dd2cf0fa~116~ubuntu20.04.1
; #@! TF.FileFunction,Plated,1,2,PTH
FMAT,2
METRIC
; #@! TA.AperFunction,Plated,PTH,ViaDrill
T1C0.254
; #@! TA.AperFunction,Plated,PTH,ViaDrill
T2C0.381
; #@! TA.AperFunction,Plated,PTH,ViaDrill
T3C0.508
; #@! TA.AperFunction,Plated,PTH,ComponentDrill
T4C0.600
; #@! TA.AperFunction,Plated,PTH,ComponentDrill
T5C0.700
; #@! TA.AperFunction,Plated,PTH,ViaDrill
T6C0.762
; #@! TA.AperFunction,Plated,PTH,ComponentDrill
T7C0.889
; #@! TA.AperFunction,Plated,PTH,ComponentDrill
T8C1.000
; #@! TA.AperFunction,Plated,PTH,ComponentDrill
T9C2.311
; #@! TA.AperFunction,Plated,PTH,ComponentDrill
T10C3.200
%
G90
G05
T1
X100.33Y-55.245
X100.33Y-60.325
X100.33Y-67.31
X100.33Y-72.39
X100.33Y-74.295
X100.33Y-78.105
X121.285Y-55.245
X121.285Y-56.515
X121.285Y-57.785
X121.285Y-59.055
X122.301Y-76.835
X122.809Y-77.597
X125.73Y-57.15
X136.779Y-104.521
X137.033Y-102.616
X137.287Y-105.156
X137.363Y-121.26
X137.897Y-120.625
X138.379Y-121.158
X138.938Y-108.204
X139.7Y-57.15
X139.954Y-104.648
X141.097Y-137.541
X141.478Y-102.743
X142.367Y-106.299
X144.272Y-104.458
X144.78Y-56.515
X147.32Y-102.743
X147.32Y-106.045
X149.987Y-103.378
X149.987Y-109.474
X153.289Y-102.743
X153.289Y-106.045
X155.702Y-104.013
X155.956Y-109.601
X156.21Y-55.88
X159.004Y-102.743
X159.004Y-105.664
T2
X114.808Y-74.803
X122.555Y-119.253
X123.444Y-74.803
X126.068Y-99.992
X139.065Y-92.075
X142.621Y-107.188
X160.909Y-105.664
T3
X130.81Y-92.329
X136.523Y-95.759
X142.875Y-96.774
X154.94Y-96.774
X162.369Y-95.631
T5
X95.108Y-111.558
X95.108Y-114.058
X95.108Y-116.058
X95.108Y-118.558
X96.608Y-111.058
X96.608Y-113.058
X96.608Y-115.058
X96.608Y-117.058
X96.608Y-119.058
T6
X130.795Y-84.126
X142.24Y-48.895
X172.085Y-66.04
T7
X129.287Y-48.312
X129.287Y-50.801
X131.345Y-48.312
X133.935Y-48.312
X135.993Y-48.312
X135.993Y-50.801
X148.372Y-48.312
X148.372Y-50.801
X150.43Y-48.312
X153.02Y-48.312
X155.078Y-48.312
X155.078Y-50.801
T8
X85.446Y-55.204
X85.446Y-57.494
X85.446Y-59.784
X85.446Y-62.074
X85.446Y-64.364
X87.986Y-56.349
X87.986Y-58.639
X87.986Y-60.929
X87.986Y-63.219
X87.986Y-65.509
X88.905Y-82.55
X90.526Y-55.204
X90.526Y-57.494
X90.526Y-59.784
X90.526Y-62.074
X90.526Y-64.364
X91.445Y-82.55
X93.269Y-86.258
X93.269Y-88.798
X93.269Y-91.338
X93.269Y-93.878
X93.269Y-96.418
X93.269Y-98.958
X95.809Y-86.258
X95.809Y-88.798
X95.809Y-91.338
X95.809Y-93.878
X95.809Y-96.418
X95.809Y-98.958
X106.665Y-53.265
X106.665Y-55.805
X106.665Y-58.345
X106.665Y-60.885
X106.665Y-63.425
X106.665Y-65.965
X106.665Y-71.045
X106.665Y-76.125
X106.665Y-78.665
X106.665Y-81.205
X106.665Y-83.745
X106.665Y-86.285
X106.665Y-88.825
X109.205Y-53.265
X109.205Y-55.805
X109.205Y-58.345
X109.205Y-60.885
X109.205Y-63.425
X109.205Y-65.965
X109.205Y-71.045
X109.205Y-76.125
X109.205Y-78.665
X109.205Y-81.205
X109.205Y-83.745
X109.205Y-86.285
X109.205Y-88.825
X116.825Y-45.645
X116.825Y-48.185
X116.825Y-50.725
X116.825Y-53.265
X116.825Y-55.805
X116.825Y-58.345
X116.825Y-60.885
X116.825Y-63.425
X116.825Y-65.965
X116.825Y-68.505
X116.825Y-71.045
X116.825Y-73.585
X116.825Y-76.125
X116.825Y-78.665
X116.825Y-81.205
X116.825Y-83.745
X116.825Y-86.285
X116.825Y-88.825
X116.825Y-91.365
X116.825Y-93.905
X116.825Y-96.445
X116.825Y-98.985
X116.825Y-101.525
X116.825Y-107.875
X116.825Y-110.415
X116.825Y-112.955
X119.365Y-45.645
X119.365Y-48.185
X119.365Y-50.725
X119.365Y-53.265
X119.365Y-55.805
X119.365Y-58.345
X119.365Y-60.885
X119.365Y-63.425
X119.365Y-65.965
X119.365Y-68.505
X119.365Y-71.045
X119.365Y-73.585
X119.365Y-76.125
X119.365Y-78.665
X119.365Y-81.205
X119.365Y-83.745
X119.365Y-86.285
X119.365Y-88.825
X119.365Y-91.365
X119.365Y-93.905
X119.365Y-96.445
X119.365Y-98.985
X119.365Y-101.525
X123.34Y-86.889
X123.34Y-89.429
X126.096Y-68.886
X126.998Y-86.854
X126.998Y-89.394
X126.998Y-91.934
X128.636Y-68.886
X131.176Y-68.886
X136.525Y-69.85
X136.525Y-72.39
X136.525Y-74.93
X136.525Y-77.47
X136.525Y-80.01
X136.525Y-82.55
X139.065Y-69.85
X139.065Y-72.39
X139.065Y-74.93
X139.065Y-77.47
X139.065Y-80.01
X139.065Y-82.55
X141.73Y-120.651
X141.73Y-123.191
X141.73Y-125.731
X141.73Y-128.271
X141.73Y-130.811
X141.73Y-133.351
X161.91Y-66.219
X161.91Y-68.759
X161.91Y-71.299
X161.91Y-73.839
X161.91Y-76.379
X161.91Y-78.919
X165.085Y-45.645
X165.085Y-48.185
X165.085Y-50.725
X165.085Y-53.265
X165.085Y-55.805
X165.085Y-58.345
X165.085Y-60.885
X165.085Y-63.425
X165.085Y-65.965
X165.085Y-68.505
X165.085Y-71.045
X165.085Y-73.585
X165.085Y-76.125
X165.085Y-78.665
X165.085Y-81.205
X165.085Y-83.745
X165.085Y-86.285
X165.085Y-88.825
X165.085Y-91.365
X165.085Y-93.905
X165.085Y-96.445
X165.085Y-98.985
X165.085Y-101.525
X167.625Y-45.645
X167.625Y-48.185
X167.625Y-50.725
X167.625Y-53.265
X167.625Y-55.805
X167.625Y-58.345
X167.625Y-60.885
X167.625Y-63.425
X167.625Y-65.965
X167.625Y-68.505
X167.625Y-71.045
X167.625Y-73.585
X167.625Y-76.125
X167.625Y-78.665
X167.625Y-81.205
X167.625Y-83.745
X167.625Y-86.285
X167.625Y-88.825
X167.625Y-91.365
X167.625Y-93.905
X167.625Y-96.445
X167.625Y-98.985
X167.625Y-101.525
X170.64Y-118.22
X170.64Y-120.99
X170.64Y-123.76
X170.64Y-126.53
X170.64Y-129.3
X172.029Y-94.285
X172.029Y-96.825
X172.029Y-99.365
X172.972Y-45.594
X173.48Y-119.605
X173.48Y-122.375
X173.48Y-125.145
X173.48Y-127.915
X175.512Y-45.594
X178.052Y-45.594
X178.124Y-53.265
X178.124Y-55.805
X178.124Y-58.345
X178.124Y-60.885
X178.124Y-63.425
X178.124Y-65.965
X178.124Y-68.505
X178.124Y-71.045
X178.124Y-73.585
X178.124Y-76.125
X178.124Y-78.665
X178.124Y-81.205
X178.124Y-83.745
X178.124Y-86.285
X178.124Y-88.825
X178.124Y-91.365
X178.124Y-93.905
X178.124Y-96.445
X178.124Y-98.985
X178.124Y-101.525
X180.664Y-53.265
X180.664Y-55.805
X180.664Y-58.345
X180.664Y-60.885
X180.664Y-63.425
X180.664Y-65.965
X180.664Y-68.505
X180.664Y-71.045
X180.664Y-73.585
X180.664Y-76.125
X180.664Y-78.665
X180.664Y-81.205
X180.664Y-83.745
X180.664Y-86.285
X180.664Y-88.825
X180.664Y-91.365
X180.664Y-93.905
X180.664Y-96.445
X180.664Y-98.985
X180.664Y-101.525
T9
X125.884Y-45.315
X132.64Y-44.502
X139.396Y-45.315
X144.969Y-45.315
X151.725Y-44.502
X158.481Y-45.315
T10
X88.476Y-47.549
X88.476Y-72.549
X172.06Y-111.26
X172.06Y-136.26
T4
X87.758Y-108.658G85X86.958Y-108.658
G05
X87.758Y-121.458G85X86.958Y-121.458
G05
X96.408Y-108.658G85X95.308Y-108.658
G05
X96.408Y-121.458G85X95.308Y-121.458
G05
T0
M30
