%TF.GenerationSoftware,KiCad,Pcbnew,6.0.0-d3dd2cf0fa~116~ubuntu20.04.1*%
%TF.CreationDate,2022-03-13T21:12:50+01:00*%
%TF.ProjectId,arrow_deca_retro_cape,6172726f-775f-4646-9563-615f72657472,0.71*%
%TF.SameCoordinates,Original*%
%TF.FileFunction,Soldermask,Top*%
%TF.FilePolarity,Negative*%
%FSLAX46Y46*%
G04 Gerber Fmt 4.6, Leading zero omitted, Abs format (unit mm)*
G04 Created by KiCad (PCBNEW 6.0.0-d3dd2cf0fa~116~ubuntu20.04.1) date 2022-03-13 21:12:50*
%MOMM*%
%LPD*%
G01*
G04 APERTURE LIST*
G04 Aperture macros list*
%AMRoundRect*
0 Rectangle with rounded corners*
0 $1 Rounding radius*
0 $2 $3 $4 $5 $6 $7 $8 $9 X,Y pos of 4 corners*
0 Add a 4 corners polygon primitive as box body*
4,1,4,$2,$3,$4,$5,$6,$7,$8,$9,$2,$3,0*
0 Add four circle primitives for the rounded corners*
1,1,$1+$1,$2,$3*
1,1,$1+$1,$4,$5*
1,1,$1+$1,$6,$7*
1,1,$1+$1,$8,$9*
0 Add four rect primitives between the rounded corners*
20,1,$1+$1,$2,$3,$4,$5,0*
20,1,$1+$1,$4,$5,$6,$7,0*
20,1,$1+$1,$6,$7,$8,$9,0*
20,1,$1+$1,$8,$9,$2,$3,0*%
G04 Aperture macros list end*
%ADD10RoundRect,0.050000X-0.850000X-0.850000X0.850000X-0.850000X0.850000X0.850000X-0.850000X0.850000X0*%
%ADD11O,1.800000X1.800000*%
%ADD12RoundRect,0.050000X0.750000X-1.000000X0.750000X1.000000X-0.750000X1.000000X-0.750000X-1.000000X0*%
%ADD13RoundRect,0.050000X1.900000X-1.000000X1.900000X1.000000X-1.900000X1.000000X-1.900000X-1.000000X0*%
%ADD14RoundRect,0.300000X0.325000X0.450000X-0.325000X0.450000X-0.325000X-0.450000X0.325000X-0.450000X0*%
%ADD15RoundRect,0.050000X0.850000X-0.850000X0.850000X0.850000X-0.850000X0.850000X-0.850000X-0.850000X0*%
%ADD16RoundRect,0.300000X0.350000X0.450000X-0.350000X0.450000X-0.350000X-0.450000X0.350000X-0.450000X0*%
%ADD17RoundRect,0.300000X-0.450000X0.350000X-0.450000X-0.350000X0.450000X-0.350000X0.450000X0.350000X0*%
%ADD18C,4.100000*%
%ADD19RoundRect,0.050000X-0.800000X0.800000X-0.800000X-0.800000X0.800000X-0.800000X0.800000X0.800000X0*%
%ADD20C,1.700000*%
%ADD21RoundRect,0.050000X0.850000X0.850000X-0.850000X0.850000X-0.850000X-0.850000X0.850000X-0.850000X0*%
%ADD22RoundRect,0.200000X-0.150000X0.587500X-0.150000X-0.587500X0.150000X-0.587500X0.150000X0.587500X0*%
%ADD23C,1.300000*%
%ADD24O,2.500000X1.300000*%
%ADD25O,2.200000X1.300000*%
%ADD26RoundRect,0.200000X-0.587500X-0.150000X0.587500X-0.150000X0.587500X0.150000X-0.587500X0.150000X0*%
%ADD27RoundRect,0.050800X-0.787400X-0.787400X0.787400X-0.787400X0.787400X0.787400X-0.787400X0.787400X0*%
%ADD28C,1.676400*%
%ADD29C,2.946400*%
%ADD30RoundRect,0.050000X-0.750000X1.000000X-0.750000X-1.000000X0.750000X-1.000000X0.750000X1.000000X0*%
%ADD31RoundRect,0.050000X-1.900000X1.000000X-1.900000X-1.000000X1.900000X-1.000000X1.900000X1.000000X0*%
%ADD32RoundRect,0.300000X-0.350000X-0.450000X0.350000X-0.450000X0.350000X0.450000X-0.350000X0.450000X0*%
%ADD33RoundRect,0.050000X0.800000X-0.800000X0.800000X0.800000X-0.800000X0.800000X-0.800000X-0.800000X0*%
%ADD34RoundRect,0.300000X-0.337500X-0.475000X0.337500X-0.475000X0.337500X0.475000X-0.337500X0.475000X0*%
%ADD35RoundRect,0.050000X-0.850000X0.850000X-0.850000X-0.850000X0.850000X-0.850000X0.850000X0.850000X0*%
G04 APERTURE END LIST*
D10*
%TO.C,J9*%
X116825331Y-45645000D03*
D11*
X119365331Y-45645000D03*
X116825331Y-48185000D03*
X119365331Y-48185000D03*
X116825331Y-50725000D03*
X119365331Y-50725000D03*
X116825331Y-53265000D03*
X119365331Y-53265000D03*
X116825331Y-55805000D03*
X119365331Y-55805000D03*
X116825331Y-58345000D03*
X119365331Y-58345000D03*
X116825331Y-60885000D03*
X119365331Y-60885000D03*
X116825331Y-63425000D03*
X119365331Y-63425000D03*
X116825331Y-65965000D03*
X119365331Y-65965000D03*
X116825331Y-68505000D03*
X119365331Y-68505000D03*
X116825331Y-71045000D03*
X119365331Y-71045000D03*
X116825331Y-73585000D03*
X119365331Y-73585000D03*
X116825331Y-76125000D03*
X119365331Y-76125000D03*
X116825331Y-78665000D03*
X119365331Y-78665000D03*
X116825331Y-81205000D03*
X119365331Y-81205000D03*
X116825331Y-83745000D03*
X119365331Y-83745000D03*
X116825331Y-86285000D03*
X119365331Y-86285000D03*
X116825331Y-88825000D03*
X119365331Y-88825000D03*
X116825331Y-91365000D03*
X119365331Y-91365000D03*
X116825331Y-93905000D03*
X119365331Y-93905000D03*
X116825331Y-96445000D03*
X119365331Y-96445000D03*
X116825331Y-98985000D03*
X119365331Y-98985000D03*
X116825331Y-101525000D03*
X119365331Y-101525000D03*
%TD*%
D10*
%TO.C,J8*%
X165085331Y-45645000D03*
D11*
X167625331Y-45645000D03*
X165085331Y-48185000D03*
X167625331Y-48185000D03*
X165085331Y-50725000D03*
X167625331Y-50725000D03*
X165085331Y-53265000D03*
X167625331Y-53265000D03*
X165085331Y-55805000D03*
X167625331Y-55805000D03*
X165085331Y-58345000D03*
X167625331Y-58345000D03*
X165085331Y-60885000D03*
X167625331Y-60885000D03*
X165085331Y-63425000D03*
X167625331Y-63425000D03*
X165085331Y-65965000D03*
X167625331Y-65965000D03*
X165085331Y-68505000D03*
X167625331Y-68505000D03*
X165085331Y-71045000D03*
X167625331Y-71045000D03*
X165085331Y-73585000D03*
X167625331Y-73585000D03*
X165085331Y-76125000D03*
X167625331Y-76125000D03*
X165085331Y-78665000D03*
X167625331Y-78665000D03*
X165085331Y-81205000D03*
X167625331Y-81205000D03*
X165085331Y-83745000D03*
X167625331Y-83745000D03*
X165085331Y-86285000D03*
X167625331Y-86285000D03*
X165085331Y-88825000D03*
X167625331Y-88825000D03*
X165085331Y-91365000D03*
X167625331Y-91365000D03*
X165085331Y-93905000D03*
X167625331Y-93905000D03*
X165085331Y-96445000D03*
X167625331Y-96445000D03*
X165085331Y-98985000D03*
X167625331Y-98985000D03*
X165085331Y-101525000D03*
X167625331Y-101525000D03*
%TD*%
D12*
%TO.C,U4*%
X126082331Y-80520000D03*
D13*
X128382331Y-74220000D03*
D12*
X128382331Y-80520000D03*
X130682331Y-80520000D03*
%TD*%
D14*
%TO.C,C18*%
X130818331Y-82729000D03*
X128768331Y-82729000D03*
%TD*%
D15*
%TO.C,JP2*%
X126096331Y-68886000D03*
D11*
X128636331Y-68886000D03*
X131176331Y-68886000D03*
%TD*%
D14*
%TO.C,C19*%
X128636331Y-71807000D03*
X126586331Y-71807000D03*
%TD*%
D16*
%TO.C,R29*%
X98790000Y-76200000D03*
X96790000Y-76200000D03*
%TD*%
%TO.C,R31*%
X98790000Y-56515000D03*
X96790000Y-56515000D03*
%TD*%
D10*
%TO.C,J20*%
X95808800Y-98958400D03*
D11*
X95808800Y-96418400D03*
X95808800Y-93878400D03*
X95808800Y-91338400D03*
X95808800Y-88798400D03*
X95808800Y-86258400D03*
X93268800Y-98958400D03*
X93268800Y-96418400D03*
X93268800Y-93878400D03*
X93268800Y-91338400D03*
X93268800Y-88798400D03*
X93268800Y-86258400D03*
%TD*%
D17*
%TO.C,R13*%
X139573000Y-101632000D03*
X139573000Y-103632000D03*
%TD*%
D16*
%TO.C,R19*%
X98790000Y-44450000D03*
X96790000Y-44450000D03*
%TD*%
D18*
%TO.C,J1*%
X88475600Y-47548600D03*
X88475600Y-72548600D03*
D19*
X90525600Y-64363600D03*
D20*
X90525600Y-62073600D03*
X90525600Y-59783600D03*
X90525600Y-57493600D03*
X90525600Y-55203600D03*
X87985600Y-65508600D03*
X87985600Y-63218600D03*
X87985600Y-60928600D03*
X87985600Y-58638600D03*
X87985600Y-56348600D03*
X85445600Y-64363600D03*
X85445600Y-62073600D03*
X85445600Y-59783600D03*
X85445600Y-57493600D03*
X85445600Y-55203600D03*
%TD*%
D21*
%TO.C,J16*%
X141730331Y-133351200D03*
D11*
X141730331Y-130811200D03*
X141730331Y-128271200D03*
X141730331Y-125731200D03*
X141730331Y-123191200D03*
X141730331Y-120651200D03*
%TD*%
D17*
%TO.C,R5*%
X146670331Y-57345000D03*
X146670331Y-59345000D03*
%TD*%
D22*
%TO.C,D5*%
X155128000Y-101678500D03*
X153228000Y-101678500D03*
X154178000Y-103553500D03*
%TD*%
%TO.C,D11*%
X160970000Y-101678500D03*
X159070000Y-101678500D03*
X160020000Y-103553500D03*
%TD*%
D23*
%TO.C,J21*%
X95108331Y-111558000D03*
X95108331Y-114058000D03*
X95108331Y-116058000D03*
X95108331Y-118558000D03*
X96608331Y-119058000D03*
X96608331Y-117058000D03*
X96608331Y-115058000D03*
X96608331Y-113058000D03*
X96608331Y-111058000D03*
D24*
X95858331Y-121458000D03*
D25*
X87358331Y-121458000D03*
D24*
X95858331Y-108658000D03*
D25*
X87358331Y-108658000D03*
%TD*%
D16*
%TO.C,R3*%
X136128000Y-61520000D03*
X134128000Y-61520000D03*
%TD*%
D22*
%TO.C,D8*%
X149286000Y-101678500D03*
X147386000Y-101678500D03*
X148336000Y-103553500D03*
%TD*%
D26*
%TO.C,D4*%
X148946231Y-57340400D03*
X148946231Y-59240400D03*
X150821231Y-58290400D03*
%TD*%
D21*
%TO.C,J10*%
X136525000Y-82550000D03*
D11*
X139065000Y-82550000D03*
X136525000Y-80010000D03*
X139065000Y-80010000D03*
X136525000Y-77470000D03*
X139065000Y-77470000D03*
X136525000Y-74930000D03*
X139065000Y-74930000D03*
X136525000Y-72390000D03*
X139065000Y-72390000D03*
X136525000Y-69850000D03*
X139065000Y-69850000D03*
%TD*%
D16*
%TO.C,R35*%
X98790000Y-64135000D03*
X96790000Y-64135000D03*
%TD*%
D10*
%TO.C,J11*%
X106665331Y-53265000D03*
D11*
X106665331Y-55805000D03*
X106665331Y-58345000D03*
X106665331Y-60885000D03*
X106665331Y-63425000D03*
X106665331Y-65965000D03*
X109205331Y-53265000D03*
X109205331Y-55805000D03*
X109205331Y-58345000D03*
X109205331Y-60885000D03*
X109205331Y-63425000D03*
X109205331Y-65965000D03*
%TD*%
D22*
%TO.C,D10*%
X160970000Y-107329000D03*
X159070000Y-107329000D03*
X160020000Y-109204000D03*
%TD*%
D17*
%TO.C,R12*%
X157099000Y-101615000D03*
X157099000Y-103615000D03*
%TD*%
%TO.C,R15*%
X157099000Y-107188000D03*
X157099000Y-109188000D03*
%TD*%
D16*
%TO.C,R30*%
X98790000Y-78105000D03*
X96790000Y-78105000D03*
%TD*%
D26*
%TO.C,D3*%
X153346231Y-57340400D03*
X153346231Y-59240400D03*
X155221231Y-58290400D03*
%TD*%
D17*
%TO.C,R16*%
X139573000Y-107204000D03*
X139573000Y-109204000D03*
%TD*%
D16*
%TO.C,R18*%
X104505000Y-47625000D03*
X102505000Y-47625000D03*
%TD*%
%TO.C,R32*%
X98790000Y-58420000D03*
X96790000Y-58420000D03*
%TD*%
D27*
%TO.C,J5*%
X131344531Y-48312000D03*
D28*
X133935331Y-48312000D03*
X129287131Y-48312000D03*
X135992731Y-48312000D03*
X129287131Y-50801200D03*
X135992731Y-50801200D03*
D29*
X125883531Y-45314800D03*
X132639931Y-44502000D03*
X139396331Y-45314800D03*
%TD*%
D30*
%TO.C,U5*%
X135267331Y-89434200D03*
D31*
X132967331Y-95734200D03*
D30*
X132967331Y-89434200D03*
X130667331Y-89434200D03*
%TD*%
D16*
%TO.C,R27*%
X98790000Y-72390000D03*
X96790000Y-72390000D03*
%TD*%
%TO.C,R23*%
X98790000Y-52070000D03*
X96790000Y-52070000D03*
%TD*%
D32*
%TO.C,R4*%
X129125331Y-61520000D03*
X131125331Y-61520000D03*
%TD*%
D17*
%TO.C,R10*%
X145415000Y-107188000D03*
X145415000Y-109188000D03*
%TD*%
%TO.C,R14*%
X145415000Y-101617000D03*
X145415000Y-103617000D03*
%TD*%
D22*
%TO.C,D7*%
X149286000Y-107250500D03*
X147386000Y-107250500D03*
X148336000Y-109125500D03*
%TD*%
D17*
%TO.C,R9*%
X151257000Y-101616000D03*
X151257000Y-103616000D03*
%TD*%
D16*
%TO.C,R26*%
X98790000Y-70485000D03*
X96790000Y-70485000D03*
%TD*%
%TO.C,R33*%
X98790000Y-60325000D03*
X96790000Y-60325000D03*
%TD*%
%TO.C,R22*%
X98790000Y-50165000D03*
X96790000Y-50165000D03*
%TD*%
D10*
%TO.C,J14*%
X123340331Y-86889200D03*
D11*
X123340331Y-89429200D03*
%TD*%
D32*
%TO.C,R8*%
X148210331Y-61520000D03*
X150210331Y-61520000D03*
%TD*%
D27*
%TO.C,J19*%
X150429531Y-48312000D03*
D28*
X153020331Y-48312000D03*
X148372131Y-48312000D03*
X155077731Y-48312000D03*
X148372131Y-50801200D03*
X155077731Y-50801200D03*
D29*
X144968531Y-45314800D03*
X151724931Y-44502000D03*
X158481331Y-45314800D03*
%TD*%
D26*
%TO.C,D2*%
X129861231Y-57340400D03*
X129861231Y-59240400D03*
X131736231Y-58290400D03*
%TD*%
D15*
%TO.C,J15*%
X172972331Y-45594200D03*
D11*
X175512331Y-45594200D03*
X178052331Y-45594200D03*
%TD*%
D18*
%TO.C,J4*%
X172059669Y-136260000D03*
X172059669Y-111260000D03*
D33*
X170639669Y-129300000D03*
D20*
X170639669Y-126530000D03*
X170639669Y-123760000D03*
X170639669Y-120990000D03*
X170639669Y-118220000D03*
X173479669Y-127915000D03*
X173479669Y-125145000D03*
X173479669Y-122375000D03*
X173479669Y-119605000D03*
%TD*%
D16*
%TO.C,R20*%
X98790000Y-46355000D03*
X96790000Y-46355000D03*
%TD*%
D22*
%TO.C,D12*%
X143444000Y-107250500D03*
X141544000Y-107250500D03*
X142494000Y-109125500D03*
%TD*%
D16*
%TO.C,R7*%
X155178000Y-61520000D03*
X153178000Y-61520000D03*
%TD*%
%TO.C,R24*%
X98790000Y-53975000D03*
X96790000Y-53975000D03*
%TD*%
D17*
%TO.C,R2*%
X138380331Y-57345000D03*
X138380331Y-59345000D03*
%TD*%
D21*
%TO.C,J18*%
X126998331Y-91934200D03*
D11*
X126998331Y-89394200D03*
X126998331Y-86854200D03*
%TD*%
D15*
%TO.C,J17*%
X106665331Y-71045000D03*
D11*
X109205331Y-71045000D03*
%TD*%
D10*
%TO.C,J22*%
X116825331Y-107875000D03*
D11*
X116825331Y-110415000D03*
X116825331Y-112955000D03*
%TD*%
D34*
%TO.C,C21*%
X138281500Y-93853000D03*
X140356500Y-93853000D03*
%TD*%
D10*
%TO.C,J12*%
X106665331Y-76125000D03*
D11*
X106665331Y-78665000D03*
X106665331Y-81205000D03*
X106665331Y-83745000D03*
X106665331Y-86285000D03*
X106665331Y-88825000D03*
X109205331Y-76125000D03*
X109205331Y-78665000D03*
X109205331Y-81205000D03*
X109205331Y-83745000D03*
X109205331Y-86285000D03*
X109205331Y-88825000D03*
%TD*%
D16*
%TO.C,R21*%
X98790000Y-48260000D03*
X96790000Y-48260000D03*
%TD*%
D35*
%TO.C,JP1*%
X91445000Y-82550000D03*
D11*
X88905000Y-82550000D03*
%TD*%
D16*
%TO.C,R28*%
X98790000Y-74295000D03*
X96790000Y-74295000D03*
%TD*%
D17*
%TO.C,R1*%
X127585331Y-57345000D03*
X127585331Y-59345000D03*
%TD*%
D22*
%TO.C,D9*%
X155128000Y-107250500D03*
X153228000Y-107250500D03*
X154178000Y-109125500D03*
%TD*%
D26*
%TO.C,D1*%
X134261231Y-57340400D03*
X134261231Y-59240400D03*
X136136231Y-58290400D03*
%TD*%
D21*
%TO.C,J3*%
X161910331Y-78919000D03*
D11*
X161910331Y-76379000D03*
X161910331Y-73839000D03*
X161910331Y-71299000D03*
X161910331Y-68759000D03*
X161910331Y-66219000D03*
%TD*%
D16*
%TO.C,R17*%
X104505000Y-44450000D03*
X102505000Y-44450000D03*
%TD*%
D34*
%TO.C,C20*%
X131040831Y-86869200D03*
X133115831Y-86869200D03*
%TD*%
D17*
%TO.C,R6*%
X157465331Y-57345000D03*
X157465331Y-59345000D03*
%TD*%
D16*
%TO.C,R25*%
X98790000Y-68580000D03*
X96790000Y-68580000D03*
%TD*%
D22*
%TO.C,D6*%
X143444000Y-101678500D03*
X141544000Y-101678500D03*
X142494000Y-103553500D03*
%TD*%
D17*
%TO.C,R11*%
X151257000Y-107172000D03*
X151257000Y-109172000D03*
%TD*%
D16*
%TO.C,R36*%
X98790000Y-66040000D03*
X96790000Y-66040000D03*
%TD*%
D10*
%TO.C,J7*%
X172028516Y-94285000D03*
D11*
X172028516Y-96825000D03*
X172028516Y-99365000D03*
%TD*%
D10*
%TO.C,J6*%
X178123516Y-53265000D03*
D11*
X180663516Y-53265000D03*
X178123516Y-55805000D03*
X180663516Y-55805000D03*
X178123516Y-58345000D03*
X180663516Y-58345000D03*
X178123516Y-60885000D03*
X180663516Y-60885000D03*
X178123516Y-63425000D03*
X180663516Y-63425000D03*
X178123516Y-65965000D03*
X180663516Y-65965000D03*
X178123516Y-68505000D03*
X180663516Y-68505000D03*
X178123516Y-71045000D03*
X180663516Y-71045000D03*
X178123516Y-73585000D03*
X180663516Y-73585000D03*
X178123516Y-76125000D03*
X180663516Y-76125000D03*
X178123516Y-78665000D03*
X180663516Y-78665000D03*
X178123516Y-81205000D03*
X180663516Y-81205000D03*
X178123516Y-83745000D03*
X180663516Y-83745000D03*
X178123516Y-86285000D03*
X180663516Y-86285000D03*
X178123516Y-88825000D03*
X180663516Y-88825000D03*
X178123516Y-91365000D03*
X180663516Y-91365000D03*
X178123516Y-93905000D03*
X180663516Y-93905000D03*
X178123516Y-96445000D03*
X180663516Y-96445000D03*
X178123516Y-98985000D03*
X180663516Y-98985000D03*
X178123516Y-101525000D03*
X180663516Y-101525000D03*
%TD*%
D16*
%TO.C,R34*%
X98790000Y-62230000D03*
X96790000Y-62230000D03*
%TD*%
M02*
