%TF.GenerationSoftware,KiCad,Pcbnew,6.0.9-8da3e8f707~117~ubuntu20.04.1*%
%TF.CreationDate,2022-12-25T13:31:21+01:00*%
%TF.ProjectId,arrow_deca_retro_cape,6172726f-775f-4646-9563-615f72657472,0.90*%
%TF.SameCoordinates,Original*%
%TF.FileFunction,Soldermask,Top*%
%TF.FilePolarity,Negative*%
%FSLAX46Y46*%
G04 Gerber Fmt 4.6, Leading zero omitted, Abs format (unit mm)*
G04 Created by KiCad (PCBNEW 6.0.9-8da3e8f707~117~ubuntu20.04.1) date 2022-12-25 13:31:21*
%MOMM*%
%LPD*%
G01*
G04 APERTURE LIST*
G04 Aperture macros list*
%AMRoundRect*
0 Rectangle with rounded corners*
0 $1 Rounding radius*
0 $2 $3 $4 $5 $6 $7 $8 $9 X,Y pos of 4 corners*
0 Add a 4 corners polygon primitive as box body*
4,1,4,$2,$3,$4,$5,$6,$7,$8,$9,$2,$3,0*
0 Add four circle primitives for the rounded corners*
1,1,$1+$1,$2,$3*
1,1,$1+$1,$4,$5*
1,1,$1+$1,$6,$7*
1,1,$1+$1,$8,$9*
0 Add four rect primitives between the rounded corners*
20,1,$1+$1,$2,$3,$4,$5,0*
20,1,$1+$1,$4,$5,$6,$7,0*
20,1,$1+$1,$6,$7,$8,$9,0*
20,1,$1+$1,$8,$9,$2,$3,0*%
%AMFreePoly0*
4,1,16,0.535355,0.785355,0.541603,0.777735,1.041603,0.027735,1.049029,-0.009806,1.041603,-0.027735,0.541603,-0.777735,0.509806,-0.799029,0.500000,-0.800000,-0.500000,-0.800000,-0.535355,-0.785355,-0.550000,-0.750000,-0.550000,0.750000,-0.535355,0.785355,-0.500000,0.800000,0.500000,0.800000,0.535355,0.785355,0.535355,0.785355,$1*%
%AMFreePoly1*
4,1,37,0.535355,0.785355,0.550000,0.750000,0.550000,-0.750000,0.535355,-0.785355,0.500000,-0.800000,0.000000,-0.800000,-0.012524,-0.794812,-0.080857,-0.793560,-0.094851,-0.791293,-0.230166,-0.749018,-0.242962,-0.742915,-0.360972,-0.664360,-0.371540,-0.654911,-0.462760,-0.546392,-0.470252,-0.534356,-0.527347,-0.404597,-0.531159,-0.390943,-0.548742,-0.256483,-0.547388,-0.256306,-0.550000,-0.250000,
-0.550000,0.250000,-0.549522,0.251153,-0.549368,0.263802,-0.527557,0.403879,-0.523412,0.417435,-0.463164,0.545760,-0.455381,0.557609,-0.361537,0.663867,-0.350741,0.673055,-0.230846,0.748703,-0.217905,0.754492,-0.081598,0.793449,-0.067552,0.795373,-0.011991,0.795033,0.000000,0.800000,0.500000,0.800000,0.535355,0.785355,0.535355,0.785355,$1*%
%AMFreePoly2*
4,1,37,0.012350,0.794884,0.074210,0.794507,0.088231,0.792412,0.224052,0.751793,0.236921,0.745846,0.355883,0.668739,0.366566,0.659420,0.459104,0.552023,0.466742,0.540080,0.525419,0.411028,0.529398,0.397421,0.549495,0.257088,0.550000,0.250000,0.550000,-0.250000,0.549996,-0.250610,0.549847,-0.262826,0.549158,-0.270511,0.525638,-0.410312,0.521328,-0.423818,0.459516,-0.551397,
0.451589,-0.563150,0.356454,-0.668254,0.345546,-0.677309,0.224736,-0.751486,0.211726,-0.757116,0.074953,-0.794405,0.060885,-0.796158,0.011462,-0.795252,0.000000,-0.800000,-0.500000,-0.800000,-0.535355,-0.785355,-0.550000,-0.750000,-0.550000,0.750000,-0.535355,0.785355,-0.500000,0.800000,0.000000,0.800000,0.012350,0.794884,0.012350,0.794884,$1*%
G04 Aperture macros list end*
%ADD10RoundRect,0.050000X-0.850000X-0.850000X0.850000X-0.850000X0.850000X0.850000X-0.850000X0.850000X0*%
%ADD11O,1.800000X1.800000*%
%ADD12RoundRect,0.050000X0.750000X-1.000000X0.750000X1.000000X-0.750000X1.000000X-0.750000X-1.000000X0*%
%ADD13RoundRect,0.050000X1.900000X-1.000000X1.900000X1.000000X-1.900000X1.000000X-1.900000X-1.000000X0*%
%ADD14RoundRect,0.300000X0.337500X0.475000X-0.337500X0.475000X-0.337500X-0.475000X0.337500X-0.475000X0*%
%ADD15RoundRect,0.300000X0.350000X0.450000X-0.350000X0.450000X-0.350000X-0.450000X0.350000X-0.450000X0*%
%ADD16RoundRect,0.300000X-0.350000X-0.450000X0.350000X-0.450000X0.350000X0.450000X-0.350000X0.450000X0*%
%ADD17C,1.800000*%
%ADD18RoundRect,0.050000X0.850000X0.850000X-0.850000X0.850000X-0.850000X-0.850000X0.850000X-0.850000X0*%
%ADD19RoundRect,0.300000X-0.450000X0.350000X-0.450000X-0.350000X0.450000X-0.350000X0.450000X0.350000X0*%
%ADD20C,1.400000*%
%ADD21C,2.900000*%
%ADD22R,1.500000X1.500000*%
%ADD23FreePoly0,0.000000*%
%ADD24FreePoly0,180.000000*%
%ADD25RoundRect,0.050000X0.850000X-0.850000X0.850000X0.850000X-0.850000X0.850000X-0.850000X-0.850000X0*%
%ADD26RoundRect,0.050000X-0.600000X0.450000X-0.600000X-0.450000X0.600000X-0.450000X0.600000X0.450000X0*%
%ADD27RoundRect,0.300000X0.450000X-0.350000X0.450000X0.350000X-0.450000X0.350000X-0.450000X-0.350000X0*%
%ADD28RoundRect,0.050800X-0.787400X-0.787400X0.787400X-0.787400X0.787400X0.787400X-0.787400X0.787400X0*%
%ADD29C,1.676400*%
%ADD30C,2.946400*%
%ADD31FreePoly1,90.000000*%
%ADD32FreePoly2,90.000000*%
%ADD33C,4.100000*%
%ADD34RoundRect,0.050000X-0.800000X0.800000X-0.800000X-0.800000X0.800000X-0.800000X0.800000X0.800000X0*%
%ADD35C,1.700000*%
%ADD36RoundRect,0.050000X-0.750000X1.000000X-0.750000X-1.000000X0.750000X-1.000000X0.750000X1.000000X0*%
%ADD37RoundRect,0.050000X-1.900000X1.000000X-1.900000X-1.000000X1.900000X-1.000000X1.900000X1.000000X0*%
%ADD38RoundRect,0.050000X0.800000X-0.800000X0.800000X0.800000X-0.800000X0.800000X-0.800000X-0.800000X0*%
%ADD39RoundRect,0.150000X-0.637500X-0.100000X0.637500X-0.100000X0.637500X0.100000X-0.637500X0.100000X0*%
%ADD40RoundRect,0.050000X-0.850000X0.850000X-0.850000X-0.850000X0.850000X-0.850000X0.850000X0.850000X0*%
%ADD41RoundRect,0.300000X-0.337500X-0.475000X0.337500X-0.475000X0.337500X0.475000X-0.337500X0.475000X0*%
G04 APERTURE END LIST*
D10*
%TO.C,J9*%
X116840000Y-45720000D03*
D11*
X119380000Y-45720000D03*
X116840000Y-48260000D03*
X119380000Y-48260000D03*
X116840000Y-50800000D03*
X119380000Y-50800000D03*
X116840000Y-53340000D03*
X119380000Y-53340000D03*
X116840000Y-55880000D03*
X119380000Y-55880000D03*
X116840000Y-58420000D03*
X119380000Y-58420000D03*
X116840000Y-60960000D03*
X119380000Y-60960000D03*
X116840000Y-63500000D03*
X119380000Y-63500000D03*
X116840000Y-66040000D03*
X119380000Y-66040000D03*
X116840000Y-68580000D03*
X119380000Y-68580000D03*
X116840000Y-71120000D03*
X119380000Y-71120000D03*
X116840000Y-73660000D03*
X119380000Y-73660000D03*
X116840000Y-76200000D03*
X119380000Y-76200000D03*
X116840000Y-78740000D03*
X119380000Y-78740000D03*
X116840000Y-81280000D03*
X119380000Y-81280000D03*
X116840000Y-83820000D03*
X119380000Y-83820000D03*
X116840000Y-86360000D03*
X119380000Y-86360000D03*
X116840000Y-88900000D03*
X119380000Y-88900000D03*
X116840000Y-91440000D03*
X119380000Y-91440000D03*
X116840000Y-93980000D03*
X119380000Y-93980000D03*
X116840000Y-96520000D03*
X119380000Y-96520000D03*
X116840000Y-99060000D03*
X119380000Y-99060000D03*
X116840000Y-101600000D03*
X119380000Y-101600000D03*
%TD*%
D10*
%TO.C,J8*%
X165100000Y-45720000D03*
D11*
X167640000Y-45720000D03*
X165100000Y-48260000D03*
X167640000Y-48260000D03*
X165100000Y-50800000D03*
X167640000Y-50800000D03*
X165100000Y-53340000D03*
X167640000Y-53340000D03*
X165100000Y-55880000D03*
X167640000Y-55880000D03*
X165100000Y-58420000D03*
X167640000Y-58420000D03*
X165100000Y-60960000D03*
X167640000Y-60960000D03*
X165100000Y-63500000D03*
X167640000Y-63500000D03*
X165100000Y-66040000D03*
X167640000Y-66040000D03*
X165100000Y-68580000D03*
X167640000Y-68580000D03*
X165100000Y-71120000D03*
X167640000Y-71120000D03*
X165100000Y-73660000D03*
X167640000Y-73660000D03*
X165100000Y-76200000D03*
X167640000Y-76200000D03*
X165100000Y-78740000D03*
X167640000Y-78740000D03*
X165100000Y-81280000D03*
X167640000Y-81280000D03*
X165100000Y-83820000D03*
X167640000Y-83820000D03*
X165100000Y-86360000D03*
X167640000Y-86360000D03*
X165100000Y-88900000D03*
X167640000Y-88900000D03*
X165100000Y-91440000D03*
X167640000Y-91440000D03*
X165100000Y-93980000D03*
X167640000Y-93980000D03*
X165100000Y-96520000D03*
X167640000Y-96520000D03*
X165100000Y-99060000D03*
X167640000Y-99060000D03*
X165100000Y-101600000D03*
X167640000Y-101600000D03*
%TD*%
D12*
%TO.C,U3*%
X126097000Y-80595000D03*
D13*
X128397000Y-74295000D03*
D12*
X128397000Y-80595000D03*
X130697000Y-80595000D03*
%TD*%
D14*
%TO.C,C18*%
X130845500Y-82956400D03*
X128770500Y-82956400D03*
%TD*%
%TO.C,C19*%
X128663500Y-71882000D03*
X126588500Y-71882000D03*
%TD*%
D15*
%TO.C,R29*%
X98804669Y-76275000D03*
X96804669Y-76275000D03*
%TD*%
%TO.C,R31*%
X98804669Y-56590000D03*
X96804669Y-56590000D03*
%TD*%
D10*
%TO.C,J20*%
X95823469Y-99033400D03*
D11*
X95823469Y-96493400D03*
X95823469Y-93953400D03*
X95823469Y-91413400D03*
X95823469Y-88873400D03*
X95823469Y-86333400D03*
X93283469Y-99033400D03*
X93283469Y-96493400D03*
X93283469Y-93953400D03*
X93283469Y-91413400D03*
X93283469Y-88873400D03*
X93283469Y-86333400D03*
%TD*%
D10*
%TO.C,JP5*%
X161163000Y-61971000D03*
D11*
X161163000Y-64511000D03*
%TD*%
D16*
%TO.C,R13*%
X152416000Y-104140000D03*
X154416000Y-104140000D03*
%TD*%
D15*
%TO.C,R19*%
X98804669Y-44525000D03*
X96804669Y-44525000D03*
%TD*%
D17*
%TO.C,J2*%
X106680000Y-68580000D03*
D11*
X109220000Y-68580000D03*
%TD*%
D18*
%TO.C,J16*%
X141745000Y-133426200D03*
D11*
X141745000Y-130886200D03*
X141745000Y-128346200D03*
X141745000Y-125806200D03*
X141745000Y-123266200D03*
X141745000Y-120726200D03*
%TD*%
D19*
%TO.C,R5*%
X146685000Y-57420000D03*
X146685000Y-59420000D03*
%TD*%
D20*
%TO.C,J21*%
X96965342Y-110820989D03*
X96965342Y-113320989D03*
X96965342Y-115320989D03*
X96965342Y-117820989D03*
X98465342Y-118320989D03*
X98465342Y-116320989D03*
X98465342Y-114320989D03*
X98465342Y-112320989D03*
X98465342Y-110320989D03*
D21*
X94965342Y-107750989D03*
X94965342Y-120890989D03*
%TD*%
D22*
%TO.C,JP2*%
X129851000Y-68961000D03*
X127451000Y-68961000D03*
D23*
X126651000Y-68961000D03*
D24*
X130651000Y-68961000D03*
%TD*%
D25*
%TO.C,JP8*%
X147980400Y-88087200D03*
D11*
X150520400Y-88087200D03*
X153060400Y-88087200D03*
%TD*%
D15*
%TO.C,R3*%
X136142669Y-61595000D03*
X134142669Y-61595000D03*
%TD*%
D26*
%TO.C,D3*%
X150368000Y-55754000D03*
X150368000Y-59054000D03*
%TD*%
D18*
%TO.C,J10*%
X136539669Y-82625000D03*
D11*
X136539669Y-80085000D03*
X136539669Y-77545000D03*
X136539669Y-75005000D03*
X136539669Y-72465000D03*
X136539669Y-69925000D03*
%TD*%
D15*
%TO.C,R35*%
X98804669Y-64210000D03*
X96804669Y-64210000D03*
%TD*%
D10*
%TO.C,J11*%
X106680000Y-53340000D03*
D11*
X106680000Y-55880000D03*
X106680000Y-58420000D03*
X106680000Y-60960000D03*
X106680000Y-63500000D03*
X106680000Y-66040000D03*
X109220000Y-53340000D03*
X109220000Y-55880000D03*
X109220000Y-58420000D03*
X109220000Y-60960000D03*
X109220000Y-63500000D03*
X109220000Y-66040000D03*
%TD*%
D16*
%TO.C,R12*%
X152416000Y-101854000D03*
X154416000Y-101854000D03*
%TD*%
D10*
%TO.C,JP4*%
X113030000Y-48255000D03*
D11*
X113030000Y-50795000D03*
%TD*%
D16*
%TO.C,R15*%
X152416000Y-108458000D03*
X154416000Y-108458000D03*
%TD*%
D15*
%TO.C,R30*%
X98804669Y-78180000D03*
X96804669Y-78180000D03*
%TD*%
D27*
%TO.C,R16*%
X165354000Y-137398000D03*
X165354000Y-135398000D03*
%TD*%
D15*
%TO.C,R18*%
X104519669Y-47700000D03*
X102519669Y-47700000D03*
%TD*%
%TO.C,R32*%
X98804669Y-58495000D03*
X96804669Y-58495000D03*
%TD*%
D28*
%TO.C,J5*%
X131359200Y-48387000D03*
D29*
X133950000Y-48387000D03*
X129301800Y-48387000D03*
X136007400Y-48387000D03*
X129301800Y-50876200D03*
X136007400Y-50876200D03*
D30*
X125898200Y-45389800D03*
X132654600Y-44577000D03*
X139411000Y-45389800D03*
%TD*%
D31*
%TO.C,JP3*%
X165354000Y-131318000D03*
D32*
X165354000Y-130018000D03*
%TD*%
D33*
%TO.C,J1*%
X88490269Y-47623600D03*
X88490269Y-72623600D03*
D34*
X90540269Y-64438600D03*
D35*
X90540269Y-62148600D03*
X90540269Y-59858600D03*
X90540269Y-57568600D03*
X90540269Y-55278600D03*
X88560269Y-65583600D03*
X88560269Y-63293600D03*
X88560269Y-61003600D03*
X88560269Y-58713600D03*
X88560269Y-56423600D03*
X86580269Y-64438600D03*
X86580269Y-62148600D03*
X86580269Y-59858600D03*
X86580269Y-57568600D03*
X86580269Y-55278600D03*
%TD*%
D36*
%TO.C,U2*%
X135282000Y-89509200D03*
X132982000Y-89509200D03*
D37*
X132982000Y-95809200D03*
D36*
X130682000Y-89509200D03*
%TD*%
D15*
%TO.C,R27*%
X98804669Y-72465000D03*
X96804669Y-72465000D03*
%TD*%
%TO.C,R23*%
X98804669Y-52145000D03*
X96804669Y-52145000D03*
%TD*%
D16*
%TO.C,R4*%
X129140000Y-61595000D03*
X131140000Y-61595000D03*
%TD*%
D22*
%TO.C,JP7*%
X142424000Y-88138000D03*
X140024000Y-88138000D03*
D23*
X139224000Y-88138000D03*
D24*
X143224000Y-88138000D03*
%TD*%
D17*
%TO.C,J3*%
X106680000Y-73660000D03*
D11*
X109220000Y-73660000D03*
%TD*%
D16*
%TO.C,R10*%
X152432000Y-97282000D03*
X154432000Y-97282000D03*
%TD*%
%TO.C,R14*%
X152432000Y-106293000D03*
X154432000Y-106293000D03*
%TD*%
%TO.C,R9*%
X152416000Y-94996000D03*
X154416000Y-94996000D03*
%TD*%
D15*
%TO.C,R26*%
X98804669Y-70560000D03*
X96804669Y-70560000D03*
%TD*%
%TO.C,R33*%
X98804669Y-60400000D03*
X96804669Y-60400000D03*
%TD*%
%TO.C,R22*%
X98804669Y-50240000D03*
X96804669Y-50240000D03*
%TD*%
D10*
%TO.C,J14*%
X123355000Y-86964200D03*
D11*
X123355000Y-89504200D03*
%TD*%
D28*
%TO.C,J19*%
X150444200Y-48387000D03*
D29*
X153035000Y-48387000D03*
X148386800Y-48387000D03*
X155092400Y-48387000D03*
X148386800Y-50876200D03*
X155092400Y-50876200D03*
D30*
X144983200Y-45389800D03*
X151739600Y-44577000D03*
X158496000Y-45389800D03*
%TD*%
D25*
%TO.C,J15*%
X172987000Y-45669200D03*
D11*
X175527000Y-45669200D03*
X178067000Y-45669200D03*
%TD*%
D33*
%TO.C,J4*%
X174074338Y-136335000D03*
X174074338Y-111335000D03*
D38*
X172654338Y-129375000D03*
D35*
X172654338Y-126605000D03*
X172654338Y-123835000D03*
X172654338Y-121065000D03*
X172654338Y-118295000D03*
X175494338Y-127990000D03*
X175494338Y-125220000D03*
X175494338Y-122450000D03*
X175494338Y-119680000D03*
%TD*%
D15*
%TO.C,R20*%
X98804669Y-46430000D03*
X96804669Y-46430000D03*
%TD*%
D26*
%TO.C,D1*%
X131064000Y-55754000D03*
X131064000Y-59054000D03*
%TD*%
D15*
%TO.C,R24*%
X98804669Y-54050000D03*
X96804669Y-54050000D03*
%TD*%
D19*
%TO.C,R2*%
X138395000Y-57420000D03*
X138395000Y-59420000D03*
%TD*%
D18*
%TO.C,J18*%
X127013000Y-92009200D03*
D11*
X127013000Y-89469200D03*
X127013000Y-86929200D03*
%TD*%
D10*
%TO.C,JP6*%
X161163000Y-85090000D03*
D11*
X161163000Y-87630000D03*
%TD*%
D25*
%TO.C,J17*%
X106680000Y-71120000D03*
D11*
X109220000Y-71120000D03*
%TD*%
D10*
%TO.C,JP9*%
X116840000Y-107950000D03*
D11*
X116840000Y-110490000D03*
X116840000Y-113030000D03*
%TD*%
D14*
%TO.C,C21*%
X131796700Y-98500000D03*
X129721700Y-98500000D03*
%TD*%
D39*
%TO.C,U1*%
X141409500Y-100199000D03*
X141409500Y-100849000D03*
X141409500Y-101499000D03*
X141409500Y-102149000D03*
X141409500Y-102799000D03*
X141409500Y-103449000D03*
X141409500Y-104099000D03*
X141409500Y-104749000D03*
X141409500Y-105399000D03*
X141409500Y-106049000D03*
X147134500Y-106049000D03*
X147134500Y-105399000D03*
X147134500Y-104749000D03*
X147134500Y-104099000D03*
X147134500Y-103449000D03*
X147134500Y-102799000D03*
X147134500Y-102149000D03*
X147134500Y-101499000D03*
X147134500Y-100849000D03*
X147134500Y-100199000D03*
%TD*%
D10*
%TO.C,J12*%
X106680000Y-76200000D03*
D11*
X106680000Y-78740000D03*
X106680000Y-81280000D03*
X106680000Y-83820000D03*
X106680000Y-86360000D03*
X106680000Y-88900000D03*
X109220000Y-76200000D03*
X109220000Y-78740000D03*
X109220000Y-81280000D03*
X109220000Y-83820000D03*
X109220000Y-86360000D03*
X109220000Y-88900000D03*
%TD*%
D15*
%TO.C,R21*%
X98804669Y-48335000D03*
X96804669Y-48335000D03*
%TD*%
D40*
%TO.C,JP1*%
X91459669Y-82625000D03*
D11*
X88919669Y-82625000D03*
%TD*%
D15*
%TO.C,R28*%
X98804669Y-74370000D03*
X96804669Y-74370000D03*
%TD*%
D19*
%TO.C,R1*%
X127600000Y-57420000D03*
X127600000Y-59420000D03*
%TD*%
D26*
%TO.C,D4*%
X154051000Y-55755000D03*
X154051000Y-59055000D03*
%TD*%
D15*
%TO.C,R17*%
X104519669Y-44525000D03*
X102519669Y-44525000D03*
%TD*%
D41*
%TO.C,C20*%
X131055500Y-86944200D03*
X133130500Y-86944200D03*
%TD*%
D26*
%TO.C,D2*%
X134569200Y-55754000D03*
X134569200Y-59054000D03*
%TD*%
D15*
%TO.C,R7*%
X135569200Y-98501200D03*
X133569200Y-98501200D03*
%TD*%
D19*
%TO.C,R6*%
X157480000Y-57420000D03*
X157480000Y-59420000D03*
%TD*%
D15*
%TO.C,R25*%
X98804669Y-68655000D03*
X96804669Y-68655000D03*
%TD*%
D16*
%TO.C,R11*%
X152432000Y-99568000D03*
X154432000Y-99568000D03*
%TD*%
D15*
%TO.C,R36*%
X98804669Y-66115000D03*
X96804669Y-66115000D03*
%TD*%
D10*
%TO.C,J7*%
X172043185Y-94360000D03*
D11*
X172043185Y-96900000D03*
X172043185Y-99440000D03*
%TD*%
D10*
%TO.C,J6*%
X178138185Y-53340000D03*
D11*
X180678185Y-53340000D03*
X178138185Y-55880000D03*
X180678185Y-55880000D03*
X178138185Y-58420000D03*
X180678185Y-58420000D03*
X178138185Y-60960000D03*
X180678185Y-60960000D03*
X178138185Y-63500000D03*
X180678185Y-63500000D03*
X178138185Y-66040000D03*
X180678185Y-66040000D03*
X178138185Y-68580000D03*
X180678185Y-68580000D03*
X178138185Y-71120000D03*
X180678185Y-71120000D03*
X178138185Y-73660000D03*
X180678185Y-73660000D03*
X178138185Y-76200000D03*
X180678185Y-76200000D03*
X178138185Y-78740000D03*
X180678185Y-78740000D03*
X178138185Y-81280000D03*
X180678185Y-81280000D03*
X178138185Y-83820000D03*
X180678185Y-83820000D03*
X178138185Y-86360000D03*
X180678185Y-86360000D03*
X178138185Y-88900000D03*
X180678185Y-88900000D03*
X178138185Y-91440000D03*
X180678185Y-91440000D03*
X178138185Y-93980000D03*
X180678185Y-93980000D03*
X178138185Y-96520000D03*
X180678185Y-96520000D03*
X178138185Y-99060000D03*
X180678185Y-99060000D03*
X178138185Y-101600000D03*
X180678185Y-101600000D03*
%TD*%
D15*
%TO.C,R34*%
X98804669Y-62305000D03*
X96804669Y-62305000D03*
%TD*%
M02*
