M48
; DRILL file {KiCad 6.0.9-8da3e8f707~117~ubuntu20.04.1} date Sun 25 Dec 2022 13:31:21 CET
; FORMAT={-:-/ absolute / inch / decimal}
; #@! TF.CreationDate,2022-12-25T13:31:21+01:00
; #@! TF.GenerationSoftware,Kicad,Pcbnew,6.0.9-8da3e8f707~117~ubuntu20.04.1
; #@! TF.FileFunction,Plated,1,2,PTH
FMAT,2
INCH
; #@! TA.AperFunction,Plated,PTH,ViaDrill
T1C0.0118
; #@! TA.AperFunction,Plated,PTH,ViaDrill
T2C0.0150
; #@! TA.AperFunction,Plated,PTH,ViaDrill
T3C0.0157
; #@! TA.AperFunction,Plated,PTH,ViaDrill
T4C0.0200
; #@! TA.AperFunction,Plated,PTH,ComponentDrill
T5C0.0276
; #@! TA.AperFunction,Plated,PTH,ViaDrill
T6C0.0300
; #@! TA.AperFunction,Plated,PTH,ComponentDrill
T7C0.0350
; #@! TA.AperFunction,Plated,PTH,ComponentDrill
T8C0.0394
; #@! TA.AperFunction,Plated,PTH,ComponentDrill
T9C0.0906
; #@! TA.AperFunction,Plated,PTH,ComponentDrill
T10C0.0910
; #@! TA.AperFunction,Plated,PTH,ComponentDrill
T11C0.1260
%
G90
G05
T1
X3.9506Y-2.178
X3.9506Y-2.378
X3.9506Y-2.653
X3.9506Y-2.853
X3.9506Y-2.928
X3.9506Y-3.078
X4.41Y-2.907
X4.443Y-2.908
X4.502Y-3.25
X4.7756Y-2.178
X4.7756Y-2.228
X4.7756Y-2.278
X4.7756Y-2.328
X4.8156Y-3.028
X4.8356Y-3.058
X4.9506Y-2.253
X5.03Y-3.97
X5.3Y-4.0253
X5.332Y-4.578
X5.36Y-4.01
X5.3856Y-4.118
X5.3939Y-4.0486
X5.4Y-3.93
X5.4Y-4.2
X5.4056Y-4.143
X5.4086Y-4.777
X5.4125Y-4.7434
X5.44Y-4.01
X5.452Y-4.78
X5.49Y-4.0153
X5.49Y-4.05
X5.5006Y-2.253
X5.63Y-4.07
X5.7006Y-2.228
X6.13Y-3.7
X6.13Y-4.06
X6.13Y-4.14
X6.14Y-3.79
X6.14Y-3.87
X6.14Y-3.97
X6.1506Y-2.203
X6.1557Y-4.2357
T2
X4.5206Y-2.948
X4.8256Y-4.698
T3
X4.779Y-3.25
X4.863Y-2.948
X4.975Y-3.957
X5.03Y-2.645
X6.75Y-3.5
T4
X5.1506Y-3.638
X5.248Y-3.334
X5.6256Y-3.813
X6.24Y-3.8
X6.64Y-4.642
T5
X3.8175Y-4.363
X3.8175Y-4.4615
X3.8175Y-4.5402
X3.8175Y-4.6386
X3.8766Y-4.3433
X3.8766Y-4.4221
X3.8766Y-4.5008
X3.8766Y-4.5796
X3.8766Y-4.6583
T6
X5.151Y-3.333
X5.3766Y-3.771
X5.6006Y-1.928
X6.7756Y-2.603
T7
X5.0906Y-1.905
X5.0906Y-2.003
X5.1716Y-1.905
X5.2736Y-1.905
X5.3546Y-1.905
X5.3546Y-2.003
X5.842Y-1.905
X5.842Y-2.003
X5.923Y-1.905
X6.025Y-1.905
X6.106Y-1.905
X6.106Y-2.003
T8
X3.4087Y-2.1763
X3.4087Y-2.2665
X3.4087Y-2.3566
X3.4087Y-2.4468
X3.4087Y-2.537
X3.4866Y-2.2214
X3.4866Y-2.3116
X3.4866Y-2.4017
X3.4866Y-2.4919
X3.4866Y-2.582
X3.5008Y-3.253
X3.5646Y-2.1763
X3.5646Y-2.2665
X3.5646Y-2.3566
X3.5646Y-2.4468
X3.5646Y-2.537
X3.6008Y-3.253
X3.6726Y-3.399
X3.6726Y-3.499
X3.6726Y-3.599
X3.6726Y-3.699
X3.6726Y-3.799
X3.6726Y-3.899
X3.7726Y-3.399
X3.7726Y-3.499
X3.7726Y-3.599
X3.7726Y-3.699
X3.7726Y-3.799
X3.7726Y-3.899
X4.2Y-2.1
X4.2Y-2.2
X4.2Y-2.3
X4.2Y-2.4
X4.2Y-2.5
X4.2Y-2.6
X4.2Y-2.7
X4.2Y-2.8
X4.2Y-2.9
X4.2Y-3.0
X4.2Y-3.1
X4.2Y-3.2
X4.2Y-3.3
X4.2Y-3.4
X4.2Y-3.5
X4.3Y-2.1
X4.3Y-2.2
X4.3Y-2.3
X4.3Y-2.4
X4.3Y-2.5
X4.3Y-2.6
X4.3Y-2.7
X4.3Y-2.8
X4.3Y-2.9
X4.3Y-3.0
X4.3Y-3.1
X4.3Y-3.2
X4.3Y-3.3
X4.3Y-3.4
X4.3Y-3.5
X4.45Y-1.8998
X4.45Y-1.9998
X4.6Y-1.8
X4.6Y-1.9
X4.6Y-2.0
X4.6Y-2.1
X4.6Y-2.2
X4.6Y-2.3
X4.6Y-2.4
X4.6Y-2.5
X4.6Y-2.6
X4.6Y-2.7
X4.6Y-2.8
X4.6Y-2.9
X4.6Y-3.0
X4.6Y-3.1
X4.6Y-3.2
X4.6Y-3.3
X4.6Y-3.4
X4.6Y-3.5
X4.6Y-3.6
X4.6Y-3.7
X4.6Y-3.8
X4.6Y-3.9
X4.6Y-4.0
X4.6Y-4.25
X4.6Y-4.35
X4.6Y-4.45
X4.7Y-1.8
X4.7Y-1.9
X4.7Y-2.0
X4.7Y-2.1
X4.7Y-2.2
X4.7Y-2.3
X4.7Y-2.4
X4.7Y-2.5
X4.7Y-2.6
X4.7Y-2.7
X4.7Y-2.8
X4.7Y-2.9
X4.7Y-3.0
X4.7Y-3.1
X4.7Y-3.2
X4.7Y-3.3
X4.7Y-3.4
X4.7Y-3.5
X4.7Y-3.6
X4.7Y-3.7
X4.7Y-3.8
X4.7Y-3.9
X4.7Y-4.0
X4.8565Y-3.4238
X4.8565Y-3.5238
X5.0005Y-3.4224
X5.0005Y-3.5224
X5.0005Y-3.6224
X5.3756Y-2.753
X5.3756Y-2.853
X5.3756Y-2.953
X5.3756Y-3.053
X5.3756Y-3.153
X5.3756Y-3.253
X5.5805Y-4.753
X5.5805Y-4.853
X5.5805Y-4.953
X5.5805Y-5.053
X5.5805Y-5.153
X5.5805Y-5.253
X5.826Y-3.468
X5.926Y-3.468
X6.026Y-3.468
X6.345Y-2.4398
X6.345Y-2.5398
X6.345Y-3.35
X6.345Y-3.45
X6.5Y-1.8
X6.5Y-1.9
X6.5Y-2.0
X6.5Y-2.1
X6.5Y-2.2
X6.5Y-2.3
X6.5Y-2.4
X6.5Y-2.5
X6.5Y-2.6
X6.5Y-2.7
X6.5Y-2.8
X6.5Y-2.9
X6.5Y-3.0
X6.5Y-3.1
X6.5Y-3.2
X6.5Y-3.3
X6.5Y-3.4
X6.5Y-3.5
X6.5Y-3.6
X6.5Y-3.7
X6.5Y-3.8
X6.5Y-3.9
X6.5Y-4.0
X6.6Y-1.8
X6.6Y-1.9
X6.6Y-2.0
X6.6Y-2.1
X6.6Y-2.2
X6.6Y-2.3
X6.6Y-2.4
X6.6Y-2.5
X6.6Y-2.6
X6.6Y-2.7
X6.6Y-2.8
X6.6Y-2.9
X6.6Y-3.0
X6.6Y-3.1
X6.6Y-3.2
X6.6Y-3.3
X6.6Y-3.4
X6.6Y-3.5
X6.6Y-3.6
X6.6Y-3.7
X6.6Y-3.8
X6.6Y-3.9
X6.6Y-4.0
X6.7734Y-3.715
X6.7734Y-3.815
X6.7734Y-3.915
X6.7974Y-4.6573
X6.7974Y-4.7663
X6.7974Y-4.8754
X6.7974Y-4.9844
X6.7974Y-5.0935
X6.8105Y-1.798
X6.9092Y-4.7118
X6.9092Y-4.8209
X6.9092Y-4.9299
X6.9092Y-5.039
X6.9105Y-1.798
X7.0105Y-1.798
X7.0133Y-2.1
X7.0133Y-2.2
X7.0133Y-2.3
X7.0133Y-2.4
X7.0133Y-2.5
X7.0133Y-2.6
X7.0133Y-2.7
X7.0133Y-2.8
X7.0133Y-2.9
X7.0133Y-3.0
X7.0133Y-3.1
X7.0133Y-3.2
X7.0133Y-3.3
X7.0133Y-3.4
X7.0133Y-3.5
X7.0133Y-3.6
X7.0133Y-3.7
X7.0133Y-3.8
X7.0133Y-3.9
X7.0133Y-4.0
X7.1133Y-2.1
X7.1133Y-2.2
X7.1133Y-2.3
X7.1133Y-2.4
X7.1133Y-2.5
X7.1133Y-2.6
X7.1133Y-2.7
X7.1133Y-2.8
X7.1133Y-2.9
X7.1133Y-3.0
X7.1133Y-3.1
X7.1133Y-3.2
X7.1133Y-3.3
X7.1133Y-3.4
X7.1133Y-3.5
X7.1133Y-3.6
X7.1133Y-3.7
X7.1133Y-3.8
X7.1133Y-3.9
X7.1133Y-4.0
T9
X3.7388Y-4.2422
X3.7388Y-4.7595
T10
X4.9566Y-1.787
X5.2226Y-1.755
X5.4886Y-1.787
X5.708Y-1.787
X5.974Y-1.755
X6.24Y-1.787
T11
X3.4839Y-1.8749
X3.4839Y-2.8592
X6.8533Y-4.3833
X6.8533Y-5.3675
T0
M30
