%TF.GenerationSoftware,KiCad,Pcbnew,6.0.9-8da3e8f707~117~ubuntu20.04.1*%
%TF.CreationDate,2022-12-25T13:31:21+01:00*%
%TF.ProjectId,arrow_deca_retro_cape,6172726f-775f-4646-9563-615f72657472,0.90*%
%TF.SameCoordinates,Original*%
%TF.FileFunction,Profile,NP*%
%FSLAX46Y46*%
G04 Gerber Fmt 4.6, Leading zero omitted, Abs format (unit mm)*
G04 Created by KiCad (PCBNEW 6.0.9-8da3e8f707~117~ubuntu20.04.1) date 2022-12-25 13:31:21*
%MOMM*%
%LPD*%
G01*
G04 APERTURE LIST*
%TA.AperFunction,Profile*%
%ADD10C,0.050000*%
%TD*%
G04 APERTURE END LIST*
D10*
X161357174Y-111901974D02*
X148683148Y-111901974D01*
X120675987Y-104140000D02*
X120675987Y-114600000D01*
X144383944Y-74539956D02*
G75*
G03*
X145653930Y-75809956I1270056J56D01*
G01*
X134620013Y-115870000D02*
X121945987Y-115870000D01*
X145653930Y-66555830D02*
G75*
G03*
X144383930Y-67825904I-30J-1269970D01*
G01*
X156581996Y-67825904D02*
G75*
G03*
X155311956Y-66555904I-1269996J4D01*
G01*
X148683148Y-111902048D02*
G75*
G03*
X147413148Y-113171974I-48J-1269952D01*
G01*
X155311956Y-75809956D02*
G75*
G03*
X156581956Y-74539956I44J1269956D01*
G01*
X120676000Y-114600000D02*
G75*
G03*
X121945987Y-115870000I1270000J0D01*
G01*
X182341185Y-140461985D02*
G75*
G03*
X183103185Y-139700000I15J761985D01*
G01*
X83870000Y-122795000D02*
X135128000Y-122799000D01*
X147413148Y-113171974D02*
X147413148Y-134631974D01*
X145653930Y-75809956D02*
X155311956Y-75809956D01*
X135890013Y-104140000D02*
X135890013Y-114600000D01*
X145653930Y-66555904D02*
X155311956Y-66555904D01*
X161357174Y-135901974D02*
G75*
G03*
X162627174Y-134631974I26J1269974D01*
G01*
X156581956Y-67825904D02*
X156581956Y-74539956D01*
X83970000Y-40499000D02*
X182341185Y-40499000D01*
X183103200Y-41261000D02*
G75*
G03*
X182341185Y-40499000I-762000J0D01*
G01*
X135890000Y-104140000D02*
G75*
G03*
X134620013Y-102870000I-1270000J0D01*
G01*
X162627226Y-113171974D02*
G75*
G03*
X161357174Y-111901974I-1270026J-26D01*
G01*
X162627174Y-113171974D02*
X162627174Y-134631974D01*
X161357174Y-135901974D02*
X148683148Y-135901974D01*
X135890000Y-123655188D02*
X135890000Y-139700000D01*
X135890020Y-123655188D02*
G75*
G03*
X135128000Y-122799000I-862020J-12D01*
G01*
X83970000Y-40499029D02*
G75*
G03*
X83120000Y-41249000I0J-856671D01*
G01*
X134620013Y-102870000D02*
X121945987Y-102870000D01*
X144383930Y-67825904D02*
X144383930Y-74539956D01*
X147413126Y-134631974D02*
G75*
G03*
X148683148Y-135901974I1269974J-26D01*
G01*
X182341185Y-140462000D02*
X136652000Y-140462000D01*
X183103185Y-41261000D02*
X183103185Y-139700000D01*
X135890000Y-139700000D02*
G75*
G03*
X136652000Y-140462000I762000J0D01*
G01*
X134620013Y-115870013D02*
G75*
G03*
X135890013Y-114600000I-13J1270013D01*
G01*
X83120000Y-121945000D02*
G75*
G03*
X83870000Y-122795000I800000J-50000D01*
G01*
X121945987Y-102869987D02*
G75*
G03*
X120675987Y-104140000I13J-1270013D01*
G01*
X83120000Y-41249000D02*
X83120000Y-121945000D01*
M02*
