%TF.GenerationSoftware,KiCad,Pcbnew,6.0.9-8da3e8f707~117~ubuntu20.04.1*%
%TF.CreationDate,2022-12-25T13:31:21+01:00*%
%TF.ProjectId,arrow_deca_retro_cape,6172726f-775f-4646-9563-615f72657472,0.90*%
%TF.SameCoordinates,Original*%
%TF.FileFunction,Legend,Bot*%
%TF.FilePolarity,Positive*%
%FSLAX46Y46*%
G04 Gerber Fmt 4.6, Leading zero omitted, Abs format (unit mm)*
G04 Created by KiCad (PCBNEW 6.0.9-8da3e8f707~117~ubuntu20.04.1) date 2022-12-25 13:31:21*
%MOMM*%
%LPD*%
G01*
G04 APERTURE LIST*
G04 Aperture macros list*
%AMRoundRect*
0 Rectangle with rounded corners*
0 $1 Rounding radius*
0 $2 $3 $4 $5 $6 $7 $8 $9 X,Y pos of 4 corners*
0 Add a 4 corners polygon primitive as box body*
4,1,4,$2,$3,$4,$5,$6,$7,$8,$9,$2,$3,0*
0 Add four circle primitives for the rounded corners*
1,1,$1+$1,$2,$3*
1,1,$1+$1,$4,$5*
1,1,$1+$1,$6,$7*
1,1,$1+$1,$8,$9*
0 Add four rect primitives between the rounded corners*
20,1,$1+$1,$2,$3,$4,$5,0*
20,1,$1+$1,$4,$5,$6,$7,0*
20,1,$1+$1,$6,$7,$8,$9,0*
20,1,$1+$1,$8,$9,$2,$3,0*%
G04 Aperture macros list end*
%ADD10C,0.150000*%
%ADD11C,0.010000*%
%ADD12RoundRect,0.050000X-0.850000X-0.850000X0.850000X-0.850000X0.850000X0.850000X-0.850000X0.850000X0*%
%ADD13O,1.800000X1.800000*%
%ADD14C,1.800000*%
%ADD15RoundRect,0.050000X0.850000X0.850000X-0.850000X0.850000X-0.850000X-0.850000X0.850000X-0.850000X0*%
%ADD16C,1.400000*%
%ADD17C,2.900000*%
%ADD18RoundRect,0.050000X0.850000X-0.850000X0.850000X0.850000X-0.850000X0.850000X-0.850000X-0.850000X0*%
%ADD19RoundRect,0.050800X-0.787400X-0.787400X0.787400X-0.787400X0.787400X0.787400X-0.787400X0.787400X0*%
%ADD20C,1.676400*%
%ADD21C,2.946400*%
%ADD22C,4.100000*%
%ADD23RoundRect,0.050000X-0.800000X0.800000X-0.800000X-0.800000X0.800000X-0.800000X0.800000X0.800000X0*%
%ADD24C,1.700000*%
%ADD25RoundRect,0.050000X0.800000X-0.800000X0.800000X0.800000X-0.800000X0.800000X-0.800000X-0.800000X0*%
%ADD26RoundRect,0.050000X-0.850000X0.850000X-0.850000X-0.850000X0.850000X-0.850000X0.850000X0.850000X0*%
G04 APERTURE END LIST*
D10*
X157587695Y-98996371D02*
X157444838Y-99043990D01*
X157397219Y-99091609D01*
X157349600Y-99186847D01*
X157349600Y-99329704D01*
X157397219Y-99424942D01*
X157444838Y-99472561D01*
X157540076Y-99520180D01*
X157921028Y-99520180D01*
X157921028Y-98520180D01*
X157587695Y-98520180D01*
X157492457Y-98567800D01*
X157444838Y-98615419D01*
X157397219Y-98710657D01*
X157397219Y-98805895D01*
X157444838Y-98901133D01*
X157492457Y-98948752D01*
X157587695Y-98996371D01*
X157921028Y-98996371D01*
X156921028Y-98996371D02*
X156587695Y-98996371D01*
X156444838Y-99520180D02*
X156921028Y-99520180D01*
X156921028Y-98520180D01*
X156444838Y-98520180D01*
X155682933Y-98996371D02*
X156016266Y-98996371D01*
X156016266Y-99520180D02*
X156016266Y-98520180D01*
X155540076Y-98520180D01*
X154968647Y-98520180D02*
X154778171Y-98520180D01*
X154682933Y-98567800D01*
X154587695Y-98663038D01*
X154540076Y-98853514D01*
X154540076Y-99186847D01*
X154587695Y-99377323D01*
X154682933Y-99472561D01*
X154778171Y-99520180D01*
X154968647Y-99520180D01*
X155063885Y-99472561D01*
X155159123Y-99377323D01*
X155206742Y-99186847D01*
X155206742Y-98853514D01*
X155159123Y-98663038D01*
X155063885Y-98567800D01*
X154968647Y-98520180D01*
X153540076Y-99520180D02*
X153873409Y-99043990D01*
X154111504Y-99520180D02*
X154111504Y-98520180D01*
X153730552Y-98520180D01*
X153635314Y-98567800D01*
X153587695Y-98615419D01*
X153540076Y-98710657D01*
X153540076Y-98853514D01*
X153587695Y-98948752D01*
X153635314Y-98996371D01*
X153730552Y-99043990D01*
X154111504Y-99043990D01*
X153111504Y-98996371D02*
X152778171Y-98996371D01*
X152635314Y-99520180D02*
X153111504Y-99520180D01*
X153111504Y-98520180D01*
X152635314Y-98520180D01*
X151444838Y-98520180D02*
X151444838Y-99329704D01*
X151397219Y-99424942D01*
X151349600Y-99472561D01*
X151254361Y-99520180D01*
X151063885Y-99520180D01*
X150968647Y-99472561D01*
X150921028Y-99424942D01*
X150873409Y-99329704D01*
X150873409Y-98520180D01*
X150444838Y-99472561D02*
X150301980Y-99520180D01*
X150063885Y-99520180D01*
X149968647Y-99472561D01*
X149921028Y-99424942D01*
X149873409Y-99329704D01*
X149873409Y-99234466D01*
X149921028Y-99139228D01*
X149968647Y-99091609D01*
X150063885Y-99043990D01*
X150254361Y-98996371D01*
X150349600Y-98948752D01*
X150397219Y-98901133D01*
X150444838Y-98805895D01*
X150444838Y-98710657D01*
X150397219Y-98615419D01*
X150349600Y-98567800D01*
X150254361Y-98520180D01*
X150016266Y-98520180D01*
X149873409Y-98567800D01*
X149444838Y-98996371D02*
X149111504Y-98996371D01*
X148968647Y-99520180D02*
X149444838Y-99520180D01*
X149444838Y-98520180D01*
X148968647Y-98520180D01*
X147206742Y-99520180D02*
X147540076Y-99043990D01*
X147778171Y-99520180D02*
X147778171Y-98520180D01*
X147397219Y-98520180D01*
X147301980Y-98567800D01*
X147254361Y-98615419D01*
X147206742Y-98710657D01*
X147206742Y-98853514D01*
X147254361Y-98948752D01*
X147301980Y-98996371D01*
X147397219Y-99043990D01*
X147778171Y-99043990D01*
X146778171Y-98996371D02*
X146444838Y-98996371D01*
X146301980Y-99520180D02*
X146778171Y-99520180D01*
X146778171Y-98520180D01*
X146301980Y-98520180D01*
X145921028Y-99234466D02*
X145444838Y-99234466D01*
X146016266Y-99520180D02*
X145682933Y-98520180D01*
X145349600Y-99520180D01*
X145016266Y-99520180D02*
X145016266Y-98520180D01*
X144778171Y-98520180D01*
X144635314Y-98567800D01*
X144540076Y-98663038D01*
X144492457Y-98758276D01*
X144444838Y-98948752D01*
X144444838Y-99091609D01*
X144492457Y-99282085D01*
X144540076Y-99377323D01*
X144635314Y-99472561D01*
X144778171Y-99520180D01*
X145016266Y-99520180D01*
X143397219Y-98520180D02*
X142825790Y-98520180D01*
X143111504Y-99520180D02*
X143111504Y-98520180D01*
X142492457Y-99520180D02*
X142492457Y-98520180D01*
X142492457Y-98996371D02*
X141921028Y-98996371D01*
X141921028Y-99520180D02*
X141921028Y-98520180D01*
X141444838Y-98996371D02*
X141111504Y-98996371D01*
X140968647Y-99520180D02*
X141444838Y-99520180D01*
X141444838Y-98520180D01*
X140968647Y-98520180D01*
X139444838Y-98996371D02*
X139778171Y-98996371D01*
X139778171Y-99520180D02*
X139778171Y-98520180D01*
X139301980Y-98520180D01*
X138921028Y-98520180D02*
X138921028Y-99329704D01*
X138873409Y-99424942D01*
X138825790Y-99472561D01*
X138730552Y-99520180D01*
X138540076Y-99520180D01*
X138444838Y-99472561D01*
X138397219Y-99424942D01*
X138349600Y-99329704D01*
X138349600Y-98520180D01*
X137397219Y-99520180D02*
X137873409Y-99520180D01*
X137873409Y-98520180D01*
X136587695Y-99520180D02*
X137063885Y-99520180D01*
X137063885Y-98520180D01*
X134921028Y-99520180D02*
X135254361Y-99043990D01*
X135492457Y-99520180D02*
X135492457Y-98520180D01*
X135111504Y-98520180D01*
X135016266Y-98567800D01*
X134968647Y-98615419D01*
X134921028Y-98710657D01*
X134921028Y-98853514D01*
X134968647Y-98948752D01*
X135016266Y-98996371D01*
X135111504Y-99043990D01*
X135492457Y-99043990D01*
X134492457Y-98996371D02*
X134159123Y-98996371D01*
X134016266Y-99520180D02*
X134492457Y-99520180D01*
X134492457Y-98520180D01*
X134016266Y-98520180D01*
X133635314Y-99234466D02*
X133159123Y-99234466D01*
X133730552Y-99520180D02*
X133397219Y-98520180D01*
X133063885Y-99520180D01*
X132730552Y-99520180D02*
X132730552Y-98520180D01*
X132492457Y-98520180D01*
X132349600Y-98567800D01*
X132254361Y-98663038D01*
X132206742Y-98758276D01*
X132159123Y-98948752D01*
X132159123Y-99091609D01*
X132206742Y-99282085D01*
X132254361Y-99377323D01*
X132349600Y-99472561D01*
X132492457Y-99520180D01*
X132730552Y-99520180D01*
X131730552Y-99520180D02*
X131730552Y-98520180D01*
X131397219Y-99234466D01*
X131063885Y-98520180D01*
X131063885Y-99520180D01*
X130587695Y-98996371D02*
X130254361Y-98996371D01*
X130111504Y-99520180D02*
X130587695Y-99520180D01*
X130587695Y-98520180D01*
X130111504Y-98520180D01*
X128968647Y-99234466D02*
X128492457Y-99234466D01*
X129063885Y-99520180D02*
X128730552Y-98520180D01*
X128397219Y-99520180D01*
X128206742Y-98520180D02*
X127635314Y-98520180D01*
X127921028Y-99520180D02*
X127921028Y-98520180D01*
X160206742Y-101130180D02*
X160206742Y-100130180D01*
X159778171Y-101130180D02*
X159778171Y-100606371D01*
X159825790Y-100511133D01*
X159921028Y-100463514D01*
X160063885Y-100463514D01*
X160159123Y-100511133D01*
X160206742Y-100558752D01*
X159444838Y-100463514D02*
X159063885Y-100463514D01*
X159301980Y-100130180D02*
X159301980Y-100987323D01*
X159254361Y-101082561D01*
X159159123Y-101130180D01*
X159063885Y-101130180D01*
X158873409Y-100463514D02*
X158492457Y-100463514D01*
X158730552Y-100130180D02*
X158730552Y-100987323D01*
X158682933Y-101082561D01*
X158587695Y-101130180D01*
X158492457Y-101130180D01*
X158159123Y-100463514D02*
X158159123Y-101463514D01*
X158159123Y-100511133D02*
X158063885Y-100463514D01*
X157873409Y-100463514D01*
X157778171Y-100511133D01*
X157730552Y-100558752D01*
X157682933Y-100653990D01*
X157682933Y-100939704D01*
X157730552Y-101034942D01*
X157778171Y-101082561D01*
X157873409Y-101130180D01*
X158063885Y-101130180D01*
X158159123Y-101082561D01*
X157301980Y-101082561D02*
X157206742Y-101130180D01*
X157016266Y-101130180D01*
X156921028Y-101082561D01*
X156873409Y-100987323D01*
X156873409Y-100939704D01*
X156921028Y-100844466D01*
X157016266Y-100796847D01*
X157159123Y-100796847D01*
X157254361Y-100749228D01*
X157301980Y-100653990D01*
X157301980Y-100606371D01*
X157254361Y-100511133D01*
X157159123Y-100463514D01*
X157016266Y-100463514D01*
X156921028Y-100511133D01*
X156444838Y-101034942D02*
X156397219Y-101082561D01*
X156444838Y-101130180D01*
X156492457Y-101082561D01*
X156444838Y-101034942D01*
X156444838Y-101130180D01*
X156444838Y-100511133D02*
X156397219Y-100558752D01*
X156444838Y-100606371D01*
X156492457Y-100558752D01*
X156444838Y-100511133D01*
X156444838Y-100606371D01*
X155254361Y-100082561D02*
X156111504Y-101368276D01*
X154206742Y-100082561D02*
X155063885Y-101368276D01*
X153444838Y-100463514D02*
X153444838Y-101273038D01*
X153492457Y-101368276D01*
X153540076Y-101415895D01*
X153635314Y-101463514D01*
X153778171Y-101463514D01*
X153873409Y-101415895D01*
X153444838Y-101082561D02*
X153540076Y-101130180D01*
X153730552Y-101130180D01*
X153825790Y-101082561D01*
X153873409Y-101034942D01*
X153921028Y-100939704D01*
X153921028Y-100653990D01*
X153873409Y-100558752D01*
X153825790Y-100511133D01*
X153730552Y-100463514D01*
X153540076Y-100463514D01*
X153444838Y-100511133D01*
X152968647Y-101130180D02*
X152968647Y-100463514D01*
X152968647Y-100130180D02*
X153016266Y-100177800D01*
X152968647Y-100225419D01*
X152921028Y-100177800D01*
X152968647Y-100130180D01*
X152968647Y-100225419D01*
X152635314Y-100463514D02*
X152254361Y-100463514D01*
X152492457Y-100130180D02*
X152492457Y-100987323D01*
X152444838Y-101082561D01*
X152349600Y-101130180D01*
X152254361Y-101130180D01*
X151921028Y-101130180D02*
X151921028Y-100130180D01*
X151492457Y-101130180D02*
X151492457Y-100606371D01*
X151540076Y-100511133D01*
X151635314Y-100463514D01*
X151778171Y-100463514D01*
X151873409Y-100511133D01*
X151921028Y-100558752D01*
X150587695Y-100463514D02*
X150587695Y-101130180D01*
X151016266Y-100463514D02*
X151016266Y-100987323D01*
X150968647Y-101082561D01*
X150873409Y-101130180D01*
X150730552Y-101130180D01*
X150635314Y-101082561D01*
X150587695Y-101034942D01*
X150111504Y-101130180D02*
X150111504Y-100130180D01*
X150111504Y-100511133D02*
X150016266Y-100463514D01*
X149825790Y-100463514D01*
X149730552Y-100511133D01*
X149682933Y-100558752D01*
X149635314Y-100653990D01*
X149635314Y-100939704D01*
X149682933Y-101034942D01*
X149730552Y-101082561D01*
X149825790Y-101130180D01*
X150016266Y-101130180D01*
X150111504Y-101082561D01*
X149206742Y-101034942D02*
X149159123Y-101082561D01*
X149206742Y-101130180D01*
X149254361Y-101082561D01*
X149206742Y-101034942D01*
X149206742Y-101130180D01*
X148301980Y-101082561D02*
X148397219Y-101130180D01*
X148587695Y-101130180D01*
X148682933Y-101082561D01*
X148730552Y-101034942D01*
X148778171Y-100939704D01*
X148778171Y-100653990D01*
X148730552Y-100558752D01*
X148682933Y-100511133D01*
X148587695Y-100463514D01*
X148397219Y-100463514D01*
X148301980Y-100511133D01*
X147730552Y-101130180D02*
X147825790Y-101082561D01*
X147873409Y-101034942D01*
X147921028Y-100939704D01*
X147921028Y-100653990D01*
X147873409Y-100558752D01*
X147825790Y-100511133D01*
X147730552Y-100463514D01*
X147587695Y-100463514D01*
X147492457Y-100511133D01*
X147444838Y-100558752D01*
X147397219Y-100653990D01*
X147397219Y-100939704D01*
X147444838Y-101034942D01*
X147492457Y-101082561D01*
X147587695Y-101130180D01*
X147730552Y-101130180D01*
X146968647Y-101130180D02*
X146968647Y-100463514D01*
X146968647Y-100558752D02*
X146921028Y-100511133D01*
X146825790Y-100463514D01*
X146682933Y-100463514D01*
X146587695Y-100511133D01*
X146540076Y-100606371D01*
X146540076Y-101130180D01*
X146540076Y-100606371D02*
X146492457Y-100511133D01*
X146397219Y-100463514D01*
X146254361Y-100463514D01*
X146159123Y-100511133D01*
X146111504Y-100606371D01*
X146111504Y-101130180D01*
X144921028Y-100082561D02*
X145778171Y-101368276D01*
X144635314Y-101082561D02*
X144540076Y-101130180D01*
X144349600Y-101130180D01*
X144254361Y-101082561D01*
X144206742Y-100987323D01*
X144206742Y-100939704D01*
X144254361Y-100844466D01*
X144349600Y-100796847D01*
X144492457Y-100796847D01*
X144587695Y-100749228D01*
X144635314Y-100653990D01*
X144635314Y-100606371D01*
X144587695Y-100511133D01*
X144492457Y-100463514D01*
X144349600Y-100463514D01*
X144254361Y-100511133D01*
X143635314Y-101130180D02*
X143730552Y-101082561D01*
X143778171Y-101034942D01*
X143825790Y-100939704D01*
X143825790Y-100653990D01*
X143778171Y-100558752D01*
X143730552Y-100511133D01*
X143635314Y-100463514D01*
X143492457Y-100463514D01*
X143397219Y-100511133D01*
X143349600Y-100558752D01*
X143301980Y-100653990D01*
X143301980Y-100939704D01*
X143349600Y-101034942D01*
X143397219Y-101082561D01*
X143492457Y-101130180D01*
X143635314Y-101130180D01*
X142873409Y-101130180D02*
X142873409Y-100463514D01*
X142873409Y-100558752D02*
X142825790Y-100511133D01*
X142730552Y-100463514D01*
X142587695Y-100463514D01*
X142492457Y-100511133D01*
X142444838Y-100606371D01*
X142444838Y-101130180D01*
X142444838Y-100606371D02*
X142397219Y-100511133D01*
X142301980Y-100463514D01*
X142159123Y-100463514D01*
X142063885Y-100511133D01*
X142016266Y-100606371D01*
X142016266Y-101130180D01*
X141540076Y-101130180D02*
X141540076Y-100130180D01*
X141111504Y-101130180D02*
X141111504Y-100606371D01*
X141159123Y-100511133D01*
X141254361Y-100463514D01*
X141397219Y-100463514D01*
X141492457Y-100511133D01*
X141540076Y-100558752D01*
X140635314Y-101130180D02*
X140635314Y-100463514D01*
X140635314Y-100130180D02*
X140682933Y-100177800D01*
X140635314Y-100225419D01*
X140587695Y-100177800D01*
X140635314Y-100130180D01*
X140635314Y-100225419D01*
X139444838Y-100082561D02*
X140301980Y-101368276D01*
X139111504Y-101130180D02*
X139111504Y-100130180D01*
X138873409Y-100130180D01*
X138730552Y-100177800D01*
X138635314Y-100273038D01*
X138587695Y-100368276D01*
X138540076Y-100558752D01*
X138540076Y-100701609D01*
X138587695Y-100892085D01*
X138635314Y-100987323D01*
X138730552Y-101082561D01*
X138873409Y-101130180D01*
X139111504Y-101130180D01*
X138111504Y-100606371D02*
X137778171Y-100606371D01*
X137635314Y-101130180D02*
X138111504Y-101130180D01*
X138111504Y-100130180D01*
X137635314Y-100130180D01*
X136635314Y-101034942D02*
X136682933Y-101082561D01*
X136825790Y-101130180D01*
X136921028Y-101130180D01*
X137063885Y-101082561D01*
X137159123Y-100987323D01*
X137206742Y-100892085D01*
X137254361Y-100701609D01*
X137254361Y-100558752D01*
X137206742Y-100368276D01*
X137159123Y-100273038D01*
X137063885Y-100177800D01*
X136921028Y-100130180D01*
X136825790Y-100130180D01*
X136682933Y-100177800D01*
X136635314Y-100225419D01*
X136254361Y-100844466D02*
X135778171Y-100844466D01*
X136349600Y-101130180D02*
X136016266Y-100130180D01*
X135682933Y-101130180D01*
X135587695Y-101225419D02*
X134825790Y-101225419D01*
X134587695Y-101130180D02*
X134587695Y-100463514D01*
X134587695Y-100653990D02*
X134540076Y-100558752D01*
X134492457Y-100511133D01*
X134397219Y-100463514D01*
X134301980Y-100463514D01*
X133587695Y-101082561D02*
X133682933Y-101130180D01*
X133873409Y-101130180D01*
X133968647Y-101082561D01*
X134016266Y-100987323D01*
X134016266Y-100606371D01*
X133968647Y-100511133D01*
X133873409Y-100463514D01*
X133682933Y-100463514D01*
X133587695Y-100511133D01*
X133540076Y-100606371D01*
X133540076Y-100701609D01*
X134016266Y-100796847D01*
X133254361Y-100463514D02*
X132873409Y-100463514D01*
X133111504Y-100130180D02*
X133111504Y-100987323D01*
X133063885Y-101082561D01*
X132968647Y-101130180D01*
X132873409Y-101130180D01*
X132540076Y-101130180D02*
X132540076Y-100463514D01*
X132540076Y-100653990D02*
X132492457Y-100558752D01*
X132444838Y-100511133D01*
X132349600Y-100463514D01*
X132254361Y-100463514D01*
X131778171Y-101130180D02*
X131873409Y-101082561D01*
X131921028Y-101034942D01*
X131968647Y-100939704D01*
X131968647Y-100653990D01*
X131921028Y-100558752D01*
X131873409Y-100511133D01*
X131778171Y-100463514D01*
X131635314Y-100463514D01*
X131540076Y-100511133D01*
X131492457Y-100558752D01*
X131444838Y-100653990D01*
X131444838Y-100939704D01*
X131492457Y-101034942D01*
X131540076Y-101082561D01*
X131635314Y-101130180D01*
X131778171Y-101130180D01*
X131254361Y-101225419D02*
X130492457Y-101225419D01*
X129825790Y-101082561D02*
X129921028Y-101130180D01*
X130111504Y-101130180D01*
X130206742Y-101082561D01*
X130254361Y-101034942D01*
X130301980Y-100939704D01*
X130301980Y-100653990D01*
X130254361Y-100558752D01*
X130206742Y-100511133D01*
X130111504Y-100463514D01*
X129921028Y-100463514D01*
X129825790Y-100511133D01*
X128968647Y-101130180D02*
X128968647Y-100606371D01*
X129016266Y-100511133D01*
X129111504Y-100463514D01*
X129301980Y-100463514D01*
X129397219Y-100511133D01*
X128968647Y-101082561D02*
X129063885Y-101130180D01*
X129301980Y-101130180D01*
X129397219Y-101082561D01*
X129444838Y-100987323D01*
X129444838Y-100892085D01*
X129397219Y-100796847D01*
X129301980Y-100749228D01*
X129063885Y-100749228D01*
X128968647Y-100701609D01*
X128492457Y-100463514D02*
X128492457Y-101463514D01*
X128492457Y-100511133D02*
X128397219Y-100463514D01*
X128206742Y-100463514D01*
X128111504Y-100511133D01*
X128063885Y-100558752D01*
X128016266Y-100653990D01*
X128016266Y-100939704D01*
X128063885Y-101034942D01*
X128111504Y-101082561D01*
X128206742Y-101130180D01*
X128397219Y-101130180D01*
X128492457Y-101082561D01*
X127206742Y-101082561D02*
X127301980Y-101130180D01*
X127492457Y-101130180D01*
X127587695Y-101082561D01*
X127635314Y-100987323D01*
X127635314Y-100606371D01*
X127587695Y-100511133D01*
X127492457Y-100463514D01*
X127301980Y-100463514D01*
X127206742Y-100511133D01*
X127159123Y-100606371D01*
X127159123Y-100701609D01*
X127635314Y-100796847D01*
X126968647Y-101225419D02*
X126206742Y-101225419D01*
X126016266Y-100225419D02*
X125968647Y-100177800D01*
X125873409Y-100130180D01*
X125635314Y-100130180D01*
X125540076Y-100177800D01*
X125492457Y-100225419D01*
X125444838Y-100320657D01*
X125444838Y-100415895D01*
X125492457Y-100558752D01*
X126063885Y-101130180D01*
X125444838Y-101130180D01*
X153609142Y-92943071D02*
X153609142Y-91443071D01*
X153252000Y-91443071D01*
X153037714Y-91514500D01*
X152894857Y-91657357D01*
X152823428Y-91800214D01*
X152752000Y-92085928D01*
X152752000Y-92300214D01*
X152823428Y-92585928D01*
X152894857Y-92728785D01*
X153037714Y-92871642D01*
X153252000Y-92943071D01*
X153609142Y-92943071D01*
X152109142Y-92157357D02*
X151609142Y-92157357D01*
X151394857Y-92943071D02*
X152109142Y-92943071D01*
X152109142Y-91443071D01*
X151394857Y-91443071D01*
X149894857Y-92800214D02*
X149966285Y-92871642D01*
X150180571Y-92943071D01*
X150323428Y-92943071D01*
X150537714Y-92871642D01*
X150680571Y-92728785D01*
X150752000Y-92585928D01*
X150823428Y-92300214D01*
X150823428Y-92085928D01*
X150752000Y-91800214D01*
X150680571Y-91657357D01*
X150537714Y-91514500D01*
X150323428Y-91443071D01*
X150180571Y-91443071D01*
X149966285Y-91514500D01*
X149894857Y-91585928D01*
X149323428Y-92514500D02*
X148609142Y-92514500D01*
X149466285Y-92943071D02*
X148966285Y-91443071D01*
X148466285Y-92943071D01*
X145966285Y-92943071D02*
X146466285Y-92228785D01*
X146823428Y-92943071D02*
X146823428Y-91443071D01*
X146252000Y-91443071D01*
X146109142Y-91514500D01*
X146037714Y-91585928D01*
X145966285Y-91728785D01*
X145966285Y-91943071D01*
X146037714Y-92085928D01*
X146109142Y-92157357D01*
X146252000Y-92228785D01*
X146823428Y-92228785D01*
X144752000Y-92871642D02*
X144894857Y-92943071D01*
X145180571Y-92943071D01*
X145323428Y-92871642D01*
X145394857Y-92728785D01*
X145394857Y-92157357D01*
X145323428Y-92014500D01*
X145180571Y-91943071D01*
X144894857Y-91943071D01*
X144752000Y-92014500D01*
X144680571Y-92157357D01*
X144680571Y-92300214D01*
X145394857Y-92443071D01*
X144252000Y-91943071D02*
X143680571Y-91943071D01*
X144037714Y-91443071D02*
X144037714Y-92728785D01*
X143966285Y-92871642D01*
X143823428Y-92943071D01*
X143680571Y-92943071D01*
X143180571Y-92943071D02*
X143180571Y-91943071D01*
X143180571Y-92228785D02*
X143109142Y-92085928D01*
X143037714Y-92014500D01*
X142894857Y-91943071D01*
X142752000Y-91943071D01*
X142037714Y-92943071D02*
X142180571Y-92871642D01*
X142252000Y-92800214D01*
X142323428Y-92657357D01*
X142323428Y-92228785D01*
X142252000Y-92085928D01*
X142180571Y-92014500D01*
X142037714Y-91943071D01*
X141823428Y-91943071D01*
X141680571Y-92014500D01*
X141609142Y-92085928D01*
X141537714Y-92228785D01*
X141537714Y-92657357D01*
X141609142Y-92800214D01*
X141680571Y-92871642D01*
X141823428Y-92943071D01*
X142037714Y-92943071D01*
X138894857Y-92800214D02*
X138966285Y-92871642D01*
X139180571Y-92943071D01*
X139323428Y-92943071D01*
X139537714Y-92871642D01*
X139680571Y-92728785D01*
X139752000Y-92585928D01*
X139823428Y-92300214D01*
X139823428Y-92085928D01*
X139752000Y-91800214D01*
X139680571Y-91657357D01*
X139537714Y-91514500D01*
X139323428Y-91443071D01*
X139180571Y-91443071D01*
X138966285Y-91514500D01*
X138894857Y-91585928D01*
X137609142Y-92943071D02*
X137609142Y-92157357D01*
X137680571Y-92014500D01*
X137823428Y-91943071D01*
X138109142Y-91943071D01*
X138252000Y-92014500D01*
X137609142Y-92871642D02*
X137752000Y-92943071D01*
X138109142Y-92943071D01*
X138252000Y-92871642D01*
X138323428Y-92728785D01*
X138323428Y-92585928D01*
X138252000Y-92443071D01*
X138109142Y-92371642D01*
X137752000Y-92371642D01*
X137609142Y-92300214D01*
X136894857Y-91943071D02*
X136894857Y-93443071D01*
X136894857Y-92014500D02*
X136752000Y-91943071D01*
X136466285Y-91943071D01*
X136323428Y-92014500D01*
X136252000Y-92085928D01*
X136180571Y-92228785D01*
X136180571Y-92657357D01*
X136252000Y-92800214D01*
X136323428Y-92871642D01*
X136466285Y-92943071D01*
X136752000Y-92943071D01*
X136894857Y-92871642D01*
X134966285Y-92871642D02*
X135109142Y-92943071D01*
X135394857Y-92943071D01*
X135537714Y-92871642D01*
X135609142Y-92728785D01*
X135609142Y-92157357D01*
X135537714Y-92014500D01*
X135394857Y-91943071D01*
X135109142Y-91943071D01*
X134966285Y-92014500D01*
X134894857Y-92157357D01*
X134894857Y-92300214D01*
X135609142Y-92443071D01*
X133180571Y-91585928D02*
X133109142Y-91514500D01*
X132966285Y-91443071D01*
X132609142Y-91443071D01*
X132466285Y-91514500D01*
X132394857Y-91585928D01*
X132323428Y-91728785D01*
X132323428Y-91871642D01*
X132394857Y-92085928D01*
X133252000Y-92943071D01*
X132323428Y-92943071D01*
X145859142Y-94358071D02*
X145502000Y-95358071D01*
X145144857Y-94358071D01*
X144287714Y-93858071D02*
X144144857Y-93858071D01*
X144002000Y-93929500D01*
X143930571Y-94000928D01*
X143859142Y-94143785D01*
X143787714Y-94429500D01*
X143787714Y-94786642D01*
X143859142Y-95072357D01*
X143930571Y-95215214D01*
X144002000Y-95286642D01*
X144144857Y-95358071D01*
X144287714Y-95358071D01*
X144430571Y-95286642D01*
X144502000Y-95215214D01*
X144573428Y-95072357D01*
X144644857Y-94786642D01*
X144644857Y-94429500D01*
X144573428Y-94143785D01*
X144502000Y-94000928D01*
X144430571Y-93929500D01*
X144287714Y-93858071D01*
X143144857Y-95215214D02*
X143073428Y-95286642D01*
X143144857Y-95358071D01*
X143216285Y-95286642D01*
X143144857Y-95215214D01*
X143144857Y-95358071D01*
X142359142Y-95358071D02*
X142073428Y-95358071D01*
X141930571Y-95286642D01*
X141859142Y-95215214D01*
X141716285Y-95000928D01*
X141644857Y-94715214D01*
X141644857Y-94143785D01*
X141716285Y-94000928D01*
X141787714Y-93929500D01*
X141930571Y-93858071D01*
X142216285Y-93858071D01*
X142359142Y-93929500D01*
X142430571Y-94000928D01*
X142502000Y-94143785D01*
X142502000Y-94500928D01*
X142430571Y-94643785D01*
X142359142Y-94715214D01*
X142216285Y-94786642D01*
X141930571Y-94786642D01*
X141787714Y-94715214D01*
X141716285Y-94643785D01*
X141644857Y-94500928D01*
X140716285Y-93858071D02*
X140573428Y-93858071D01*
X140430571Y-93929500D01*
X140359142Y-94000928D01*
X140287714Y-94143785D01*
X140216285Y-94429500D01*
X140216285Y-94786642D01*
X140287714Y-95072357D01*
X140359142Y-95215214D01*
X140430571Y-95286642D01*
X140573428Y-95358071D01*
X140716285Y-95358071D01*
X140859142Y-95286642D01*
X140930571Y-95215214D01*
X141002000Y-95072357D01*
X141073428Y-94786642D01*
X141073428Y-94429500D01*
X141002000Y-94143785D01*
X140930571Y-94000928D01*
X140859142Y-93929500D01*
X140716285Y-93858071D01*
%TO.C,LO1*%
G36*
X139392906Y-65652188D02*
G01*
X139387022Y-65698235D01*
X139378832Y-65729979D01*
X139367955Y-65752925D01*
X139354012Y-65772574D01*
X139307009Y-65832329D01*
X138974146Y-65831136D01*
X138904244Y-65830537D01*
X138706398Y-65823645D01*
X138543752Y-65808212D01*
X138408964Y-65782985D01*
X138294689Y-65746714D01*
X138193586Y-65698148D01*
X138186839Y-65694297D01*
X138070699Y-65620533D01*
X137985613Y-65546271D01*
X137919687Y-65458912D01*
X137861027Y-65345855D01*
X137852425Y-65326539D01*
X137807068Y-65199603D01*
X137795548Y-65108086D01*
X138095371Y-65108086D01*
X138106646Y-65157764D01*
X138118150Y-65189661D01*
X138184303Y-65310013D01*
X138279403Y-65401928D01*
X138407503Y-65468494D01*
X138572655Y-65512800D01*
X138578268Y-65513809D01*
X138671252Y-65525787D01*
X138784548Y-65534280D01*
X138894913Y-65537508D01*
X139083516Y-65537508D01*
X139083516Y-64653043D01*
X138907757Y-64653943D01*
X138773320Y-64658918D01*
X138587699Y-64681521D01*
X138428361Y-64720774D01*
X138303858Y-64774963D01*
X138241702Y-64816605D01*
X138185211Y-64876403D01*
X138138324Y-64961638D01*
X138124006Y-64993713D01*
X138100253Y-65059006D01*
X138095371Y-65108086D01*
X137795548Y-65108086D01*
X137793064Y-65088352D01*
X137810344Y-64977808D01*
X137858843Y-64852989D01*
X137860442Y-64849588D01*
X137941706Y-64710125D01*
X138043527Y-64596422D01*
X138169538Y-64506889D01*
X138323374Y-64439934D01*
X138508667Y-64393969D01*
X138729052Y-64367401D01*
X138988163Y-64358640D01*
X138995338Y-64358630D01*
X139115915Y-64358911D01*
X139200150Y-64360993D01*
X139256629Y-64366204D01*
X139293932Y-64375872D01*
X139320645Y-64391324D01*
X139345350Y-64413887D01*
X139401016Y-64469553D01*
X139401016Y-65091186D01*
X139400965Y-65214947D01*
X139400512Y-65373221D01*
X139399271Y-65495184D01*
X139398152Y-65537508D01*
X139396862Y-65586339D01*
X139392906Y-65652188D01*
G37*
D11*
X139392906Y-65652188D02*
X139387022Y-65698235D01*
X139378832Y-65729979D01*
X139367955Y-65752925D01*
X139354012Y-65772574D01*
X139307009Y-65832329D01*
X138974146Y-65831136D01*
X138904244Y-65830537D01*
X138706398Y-65823645D01*
X138543752Y-65808212D01*
X138408964Y-65782985D01*
X138294689Y-65746714D01*
X138193586Y-65698148D01*
X138186839Y-65694297D01*
X138070699Y-65620533D01*
X137985613Y-65546271D01*
X137919687Y-65458912D01*
X137861027Y-65345855D01*
X137852425Y-65326539D01*
X137807068Y-65199603D01*
X137795548Y-65108086D01*
X138095371Y-65108086D01*
X138106646Y-65157764D01*
X138118150Y-65189661D01*
X138184303Y-65310013D01*
X138279403Y-65401928D01*
X138407503Y-65468494D01*
X138572655Y-65512800D01*
X138578268Y-65513809D01*
X138671252Y-65525787D01*
X138784548Y-65534280D01*
X138894913Y-65537508D01*
X139083516Y-65537508D01*
X139083516Y-64653043D01*
X138907757Y-64653943D01*
X138773320Y-64658918D01*
X138587699Y-64681521D01*
X138428361Y-64720774D01*
X138303858Y-64774963D01*
X138241702Y-64816605D01*
X138185211Y-64876403D01*
X138138324Y-64961638D01*
X138124006Y-64993713D01*
X138100253Y-65059006D01*
X138095371Y-65108086D01*
X137795548Y-65108086D01*
X137793064Y-65088352D01*
X137810344Y-64977808D01*
X137858843Y-64852989D01*
X137860442Y-64849588D01*
X137941706Y-64710125D01*
X138043527Y-64596422D01*
X138169538Y-64506889D01*
X138323374Y-64439934D01*
X138508667Y-64393969D01*
X138729052Y-64367401D01*
X138988163Y-64358640D01*
X138995338Y-64358630D01*
X139115915Y-64358911D01*
X139200150Y-64360993D01*
X139256629Y-64366204D01*
X139293932Y-64375872D01*
X139320645Y-64391324D01*
X139345350Y-64413887D01*
X139401016Y-64469553D01*
X139401016Y-65091186D01*
X139400965Y-65214947D01*
X139400512Y-65373221D01*
X139399271Y-65495184D01*
X139398152Y-65537508D01*
X139396862Y-65586339D01*
X139392906Y-65652188D01*
G36*
X133580149Y-64377129D02*
G01*
X133616230Y-64414316D01*
X133657615Y-64476757D01*
X133707501Y-64568535D01*
X133769085Y-64693736D01*
X133845564Y-64856445D01*
X133874962Y-64919492D01*
X133934725Y-65046422D01*
X133987148Y-65156122D01*
X134029324Y-65242599D01*
X134058347Y-65299860D01*
X134071310Y-65321912D01*
X134074040Y-65320745D01*
X134094113Y-65292726D01*
X134128849Y-65233386D01*
X134174245Y-65149781D01*
X134226293Y-65048964D01*
X134258381Y-64985706D01*
X134316539Y-64874504D01*
X134361717Y-64796122D01*
X134398311Y-64744940D01*
X134430717Y-64715338D01*
X134463331Y-64701698D01*
X134500549Y-64698400D01*
X134521648Y-64699355D01*
X134554024Y-64707807D01*
X134584789Y-64729631D01*
X134618133Y-64770358D01*
X134658249Y-64835517D01*
X134709328Y-64930641D01*
X134775562Y-65061258D01*
X134795114Y-65099940D01*
X134844248Y-65193694D01*
X134884900Y-65266342D01*
X134913291Y-65311319D01*
X134925644Y-65322061D01*
X134928391Y-65315490D01*
X134947223Y-65273484D01*
X134981096Y-65199277D01*
X135027133Y-65099129D01*
X135082461Y-64979301D01*
X135144206Y-64846052D01*
X135197874Y-64731100D01*
X135257385Y-64606569D01*
X135303733Y-64514681D01*
X135339851Y-64450313D01*
X135368673Y-64408340D01*
X135393134Y-64383636D01*
X135416169Y-64371078D01*
X135435072Y-64365267D01*
X135485507Y-64364969D01*
X135540034Y-64395791D01*
X135542647Y-64397769D01*
X135587012Y-64443243D01*
X135609208Y-64487891D01*
X135609301Y-64489176D01*
X135600178Y-64524658D01*
X135574335Y-64594098D01*
X135534641Y-64691220D01*
X135483967Y-64809746D01*
X135425183Y-64943399D01*
X135361159Y-65085903D01*
X135294766Y-65230981D01*
X135228874Y-65372355D01*
X135166353Y-65503749D01*
X135110074Y-65618885D01*
X135062907Y-65711487D01*
X135027722Y-65775278D01*
X135007389Y-65803981D01*
X134938267Y-65830838D01*
X134854500Y-65818058D01*
X134843723Y-65808622D01*
X134811924Y-65764122D01*
X134767322Y-65690273D01*
X134714252Y-65594412D01*
X134657050Y-65483878D01*
X134496791Y-65163969D01*
X134349763Y-65458462D01*
X134330285Y-65497215D01*
X134276087Y-65602378D01*
X134227815Y-65692357D01*
X134190119Y-65758621D01*
X134167647Y-65792641D01*
X134165345Y-65795139D01*
X134108853Y-65825849D01*
X134038415Y-65829231D01*
X133976056Y-65803981D01*
X133971182Y-65798257D01*
X133946552Y-65756822D01*
X133906902Y-65681385D01*
X133854861Y-65577266D01*
X133793062Y-65449786D01*
X133724134Y-65304264D01*
X133650709Y-65146022D01*
X133610047Y-65057381D01*
X133536173Y-64895205D01*
X133479006Y-64767280D01*
X133436769Y-64668974D01*
X133407685Y-64595657D01*
X133389978Y-64542697D01*
X133381871Y-64505466D01*
X133381586Y-64479330D01*
X133387348Y-64459661D01*
X133416793Y-64417710D01*
X133470235Y-64376926D01*
X133471754Y-64376238D01*
X133511108Y-64362174D01*
X133546174Y-64361110D01*
X133580149Y-64377129D01*
G37*
X133580149Y-64377129D02*
X133616230Y-64414316D01*
X133657615Y-64476757D01*
X133707501Y-64568535D01*
X133769085Y-64693736D01*
X133845564Y-64856445D01*
X133874962Y-64919492D01*
X133934725Y-65046422D01*
X133987148Y-65156122D01*
X134029324Y-65242599D01*
X134058347Y-65299860D01*
X134071310Y-65321912D01*
X134074040Y-65320745D01*
X134094113Y-65292726D01*
X134128849Y-65233386D01*
X134174245Y-65149781D01*
X134226293Y-65048964D01*
X134258381Y-64985706D01*
X134316539Y-64874504D01*
X134361717Y-64796122D01*
X134398311Y-64744940D01*
X134430717Y-64715338D01*
X134463331Y-64701698D01*
X134500549Y-64698400D01*
X134521648Y-64699355D01*
X134554024Y-64707807D01*
X134584789Y-64729631D01*
X134618133Y-64770358D01*
X134658249Y-64835517D01*
X134709328Y-64930641D01*
X134775562Y-65061258D01*
X134795114Y-65099940D01*
X134844248Y-65193694D01*
X134884900Y-65266342D01*
X134913291Y-65311319D01*
X134925644Y-65322061D01*
X134928391Y-65315490D01*
X134947223Y-65273484D01*
X134981096Y-65199277D01*
X135027133Y-65099129D01*
X135082461Y-64979301D01*
X135144206Y-64846052D01*
X135197874Y-64731100D01*
X135257385Y-64606569D01*
X135303733Y-64514681D01*
X135339851Y-64450313D01*
X135368673Y-64408340D01*
X135393134Y-64383636D01*
X135416169Y-64371078D01*
X135435072Y-64365267D01*
X135485507Y-64364969D01*
X135540034Y-64395791D01*
X135542647Y-64397769D01*
X135587012Y-64443243D01*
X135609208Y-64487891D01*
X135609301Y-64489176D01*
X135600178Y-64524658D01*
X135574335Y-64594098D01*
X135534641Y-64691220D01*
X135483967Y-64809746D01*
X135425183Y-64943399D01*
X135361159Y-65085903D01*
X135294766Y-65230981D01*
X135228874Y-65372355D01*
X135166353Y-65503749D01*
X135110074Y-65618885D01*
X135062907Y-65711487D01*
X135027722Y-65775278D01*
X135007389Y-65803981D01*
X134938267Y-65830838D01*
X134854500Y-65818058D01*
X134843723Y-65808622D01*
X134811924Y-65764122D01*
X134767322Y-65690273D01*
X134714252Y-65594412D01*
X134657050Y-65483878D01*
X134496791Y-65163969D01*
X134349763Y-65458462D01*
X134330285Y-65497215D01*
X134276087Y-65602378D01*
X134227815Y-65692357D01*
X134190119Y-65758621D01*
X134167647Y-65792641D01*
X134165345Y-65795139D01*
X134108853Y-65825849D01*
X134038415Y-65829231D01*
X133976056Y-65803981D01*
X133971182Y-65798257D01*
X133946552Y-65756822D01*
X133906902Y-65681385D01*
X133854861Y-65577266D01*
X133793062Y-65449786D01*
X133724134Y-65304264D01*
X133650709Y-65146022D01*
X133610047Y-65057381D01*
X133536173Y-64895205D01*
X133479006Y-64767280D01*
X133436769Y-64668974D01*
X133407685Y-64595657D01*
X133389978Y-64542697D01*
X133381871Y-64505466D01*
X133381586Y-64479330D01*
X133387348Y-64459661D01*
X133416793Y-64417710D01*
X133470235Y-64376926D01*
X133471754Y-64376238D01*
X133511108Y-64362174D01*
X133546174Y-64361110D01*
X133580149Y-64377129D01*
G36*
X140898428Y-53777066D02*
G01*
X141265445Y-53810759D01*
X141606404Y-53878709D01*
X141933989Y-53983776D01*
X142260880Y-54128820D01*
X142584467Y-54314010D01*
X142931739Y-54566472D01*
X143253778Y-54858366D01*
X143543491Y-55182466D01*
X143793787Y-55531546D01*
X143997576Y-55898381D01*
X144016074Y-55937624D01*
X144170990Y-56316410D01*
X144288704Y-56710011D01*
X144370737Y-57125948D01*
X144418610Y-57571740D01*
X144433844Y-58054905D01*
X144415321Y-58554373D01*
X144356529Y-59046252D01*
X144256555Y-59506706D01*
X144114504Y-59939001D01*
X143929482Y-60346404D01*
X143700594Y-60732181D01*
X143485593Y-61026911D01*
X143188721Y-61358530D01*
X142865145Y-61642572D01*
X142515005Y-61878945D01*
X142138444Y-62067555D01*
X141735602Y-62208311D01*
X141306623Y-62301118D01*
X141301727Y-62301841D01*
X141219116Y-62309090D01*
X141094450Y-62314466D01*
X140939260Y-62317720D01*
X140765070Y-62318600D01*
X140583410Y-62316855D01*
X140456092Y-62314298D01*
X140267190Y-62308376D01*
X140115820Y-62299897D01*
X139991061Y-62287957D01*
X139881998Y-62271652D01*
X139777711Y-62250075D01*
X139660380Y-62222192D01*
X139537967Y-62190439D01*
X139427257Y-62157129D01*
X139318202Y-62118359D01*
X139200754Y-62070228D01*
X139064866Y-62008835D01*
X138900489Y-61930278D01*
X138697576Y-61830655D01*
X138136367Y-61553307D01*
X138585860Y-60815002D01*
X138644707Y-60718371D01*
X138750431Y-60544906D01*
X138845060Y-60389827D01*
X138925136Y-60258791D01*
X138987201Y-60157454D01*
X139027796Y-60091473D01*
X139043463Y-60066504D01*
X139047821Y-60067250D01*
X139082923Y-60091685D01*
X139144592Y-60142397D01*
X139223084Y-60211518D01*
X139362873Y-60330943D01*
X139612427Y-60507542D01*
X139854553Y-60630653D01*
X140029520Y-60692132D01*
X140325464Y-60754963D01*
X140616237Y-60766100D01*
X140897623Y-60726301D01*
X141165405Y-60636326D01*
X141415368Y-60496934D01*
X141643293Y-60308881D01*
X141770119Y-60170374D01*
X141948790Y-59914184D01*
X142095398Y-59616889D01*
X142210642Y-59276966D01*
X142295226Y-58892892D01*
X142299063Y-58869049D01*
X142316792Y-58714508D01*
X142329990Y-58522495D01*
X142338550Y-58306128D01*
X142342366Y-58078528D01*
X142341330Y-57852815D01*
X142335337Y-57642110D01*
X142324279Y-57459532D01*
X142308048Y-57318203D01*
X142245839Y-56998061D01*
X142141164Y-56624093D01*
X142009518Y-56296690D01*
X141851077Y-56016105D01*
X141666017Y-55782591D01*
X141454515Y-55596402D01*
X141216746Y-55457791D01*
X140952886Y-55367011D01*
X140894345Y-55355744D01*
X140747637Y-55341032D01*
X140576186Y-55336230D01*
X140399200Y-55341073D01*
X140235886Y-55355299D01*
X140105453Y-55378643D01*
X139888167Y-55452974D01*
X139636011Y-55588674D01*
X139411487Y-55767253D01*
X139371859Y-55804871D01*
X139300054Y-55871426D01*
X139249305Y-55916223D01*
X139228688Y-55931124D01*
X139223612Y-55923997D01*
X139192368Y-55878996D01*
X139135924Y-55797284D01*
X139058010Y-55684274D01*
X138962354Y-55545376D01*
X138852687Y-55386001D01*
X138732738Y-55211559D01*
X138242119Y-54497820D01*
X138351720Y-54464982D01*
X138363157Y-54461261D01*
X138437606Y-54431705D01*
X138544942Y-54384045D01*
X138672569Y-54324016D01*
X138807892Y-54257349D01*
X138866859Y-54227873D01*
X139194297Y-54075699D01*
X139496093Y-53958023D01*
X139783854Y-53871835D01*
X140069187Y-53814125D01*
X140363700Y-53781883D01*
X140679001Y-53772098D01*
X140898428Y-53777066D01*
G37*
X140898428Y-53777066D02*
X141265445Y-53810759D01*
X141606404Y-53878709D01*
X141933989Y-53983776D01*
X142260880Y-54128820D01*
X142584467Y-54314010D01*
X142931739Y-54566472D01*
X143253778Y-54858366D01*
X143543491Y-55182466D01*
X143793787Y-55531546D01*
X143997576Y-55898381D01*
X144016074Y-55937624D01*
X144170990Y-56316410D01*
X144288704Y-56710011D01*
X144370737Y-57125948D01*
X144418610Y-57571740D01*
X144433844Y-58054905D01*
X144415321Y-58554373D01*
X144356529Y-59046252D01*
X144256555Y-59506706D01*
X144114504Y-59939001D01*
X143929482Y-60346404D01*
X143700594Y-60732181D01*
X143485593Y-61026911D01*
X143188721Y-61358530D01*
X142865145Y-61642572D01*
X142515005Y-61878945D01*
X142138444Y-62067555D01*
X141735602Y-62208311D01*
X141306623Y-62301118D01*
X141301727Y-62301841D01*
X141219116Y-62309090D01*
X141094450Y-62314466D01*
X140939260Y-62317720D01*
X140765070Y-62318600D01*
X140583410Y-62316855D01*
X140456092Y-62314298D01*
X140267190Y-62308376D01*
X140115820Y-62299897D01*
X139991061Y-62287957D01*
X139881998Y-62271652D01*
X139777711Y-62250075D01*
X139660380Y-62222192D01*
X139537967Y-62190439D01*
X139427257Y-62157129D01*
X139318202Y-62118359D01*
X139200754Y-62070228D01*
X139064866Y-62008835D01*
X138900489Y-61930278D01*
X138697576Y-61830655D01*
X138136367Y-61553307D01*
X138585860Y-60815002D01*
X138644707Y-60718371D01*
X138750431Y-60544906D01*
X138845060Y-60389827D01*
X138925136Y-60258791D01*
X138987201Y-60157454D01*
X139027796Y-60091473D01*
X139043463Y-60066504D01*
X139047821Y-60067250D01*
X139082923Y-60091685D01*
X139144592Y-60142397D01*
X139223084Y-60211518D01*
X139362873Y-60330943D01*
X139612427Y-60507542D01*
X139854553Y-60630653D01*
X140029520Y-60692132D01*
X140325464Y-60754963D01*
X140616237Y-60766100D01*
X140897623Y-60726301D01*
X141165405Y-60636326D01*
X141415368Y-60496934D01*
X141643293Y-60308881D01*
X141770119Y-60170374D01*
X141948790Y-59914184D01*
X142095398Y-59616889D01*
X142210642Y-59276966D01*
X142295226Y-58892892D01*
X142299063Y-58869049D01*
X142316792Y-58714508D01*
X142329990Y-58522495D01*
X142338550Y-58306128D01*
X142342366Y-58078528D01*
X142341330Y-57852815D01*
X142335337Y-57642110D01*
X142324279Y-57459532D01*
X142308048Y-57318203D01*
X142245839Y-56998061D01*
X142141164Y-56624093D01*
X142009518Y-56296690D01*
X141851077Y-56016105D01*
X141666017Y-55782591D01*
X141454515Y-55596402D01*
X141216746Y-55457791D01*
X140952886Y-55367011D01*
X140894345Y-55355744D01*
X140747637Y-55341032D01*
X140576186Y-55336230D01*
X140399200Y-55341073D01*
X140235886Y-55355299D01*
X140105453Y-55378643D01*
X139888167Y-55452974D01*
X139636011Y-55588674D01*
X139411487Y-55767253D01*
X139371859Y-55804871D01*
X139300054Y-55871426D01*
X139249305Y-55916223D01*
X139228688Y-55931124D01*
X139223612Y-55923997D01*
X139192368Y-55878996D01*
X139135924Y-55797284D01*
X139058010Y-55684274D01*
X138962354Y-55545376D01*
X138852687Y-55386001D01*
X138732738Y-55211559D01*
X138242119Y-54497820D01*
X138351720Y-54464982D01*
X138363157Y-54461261D01*
X138437606Y-54431705D01*
X138544942Y-54384045D01*
X138672569Y-54324016D01*
X138807892Y-54257349D01*
X138866859Y-54227873D01*
X139194297Y-54075699D01*
X139496093Y-53958023D01*
X139783854Y-53871835D01*
X140069187Y-53814125D01*
X140363700Y-53781883D01*
X140679001Y-53772098D01*
X140898428Y-53777066D01*
G36*
X132707678Y-64370039D02*
G01*
X132759351Y-64401575D01*
X132812891Y-64444929D01*
X132812891Y-65745622D01*
X132759351Y-65788976D01*
X132696350Y-65824081D01*
X132624430Y-65825760D01*
X132561272Y-65784591D01*
X132553485Y-65775219D01*
X132542504Y-65756199D01*
X132534052Y-65728714D01*
X132527801Y-65687492D01*
X132523422Y-65627265D01*
X132520588Y-65542761D01*
X132518970Y-65428710D01*
X132518240Y-65279844D01*
X132518069Y-65090891D01*
X132518069Y-64444929D01*
X132571608Y-64401575D01*
X132619246Y-64371903D01*
X132665480Y-64358222D01*
X132707678Y-64370039D01*
G37*
X132707678Y-64370039D02*
X132759351Y-64401575D01*
X132812891Y-64444929D01*
X132812891Y-65745622D01*
X132759351Y-65788976D01*
X132696350Y-65824081D01*
X132624430Y-65825760D01*
X132561272Y-65784591D01*
X132553485Y-65775219D01*
X132542504Y-65756199D01*
X132534052Y-65728714D01*
X132527801Y-65687492D01*
X132523422Y-65627265D01*
X132520588Y-65542761D01*
X132518970Y-65428710D01*
X132518240Y-65279844D01*
X132518069Y-65090891D01*
X132518069Y-64444929D01*
X132571608Y-64401575D01*
X132619246Y-64371903D01*
X132665480Y-64358222D01*
X132707678Y-64370039D01*
G36*
X153643658Y-64892546D02*
G01*
X153643158Y-65095275D01*
X153643079Y-65247273D01*
X153642567Y-65403788D01*
X153641273Y-65524343D01*
X153638854Y-65614198D01*
X153634964Y-65678609D01*
X153629258Y-65722834D01*
X153621393Y-65752131D01*
X153611022Y-65771758D01*
X153597801Y-65786972D01*
X153583805Y-65799495D01*
X153557693Y-65814161D01*
X153519226Y-65823710D01*
X153460155Y-65829210D01*
X153372233Y-65831727D01*
X153247210Y-65832329D01*
X153148880Y-65831575D01*
X152934207Y-65822678D01*
X152754955Y-65802413D01*
X152604691Y-65769089D01*
X152476981Y-65721015D01*
X152365392Y-65656500D01*
X152263490Y-65573856D01*
X152251460Y-65562098D01*
X152177397Y-65464648D01*
X152114920Y-65342488D01*
X152071763Y-65213428D01*
X152061154Y-65135595D01*
X152356903Y-65135595D01*
X152393630Y-65237920D01*
X152453236Y-65330164D01*
X152547047Y-65415362D01*
X152670373Y-65475233D01*
X152829373Y-65513675D01*
X152832366Y-65514154D01*
X152930745Y-65525789D01*
X153048657Y-65534107D01*
X153161239Y-65537336D01*
X153348337Y-65537508D01*
X153348337Y-64653043D01*
X153195257Y-64653014D01*
X153189174Y-64653033D01*
X153086478Y-64656979D01*
X152965736Y-64666472D01*
X152851812Y-64679587D01*
X152751450Y-64698262D01*
X152601279Y-64751033D01*
X152485747Y-64829982D01*
X152402375Y-64936525D01*
X152359751Y-65039515D01*
X152356903Y-65135595D01*
X152061154Y-65135595D01*
X152055658Y-65095275D01*
X152058228Y-65052653D01*
X152082962Y-64937309D01*
X152128221Y-64816952D01*
X152186942Y-64708371D01*
X152252064Y-64628354D01*
X152291322Y-64594156D01*
X152401234Y-64515431D01*
X152522379Y-64454903D01*
X152661389Y-64410786D01*
X152824899Y-64381291D01*
X153019542Y-64364634D01*
X153251953Y-64359026D01*
X153331270Y-64358220D01*
X153423100Y-64357390D01*
X153495021Y-64361015D01*
X153549444Y-64373635D01*
X153588783Y-64399792D01*
X153615451Y-64444026D01*
X153631859Y-64510877D01*
X153640422Y-64604888D01*
X153641621Y-64653043D01*
X153643550Y-64730597D01*
X153643658Y-64892546D01*
G37*
X153643658Y-64892546D02*
X153643158Y-65095275D01*
X153643079Y-65247273D01*
X153642567Y-65403788D01*
X153641273Y-65524343D01*
X153638854Y-65614198D01*
X153634964Y-65678609D01*
X153629258Y-65722834D01*
X153621393Y-65752131D01*
X153611022Y-65771758D01*
X153597801Y-65786972D01*
X153583805Y-65799495D01*
X153557693Y-65814161D01*
X153519226Y-65823710D01*
X153460155Y-65829210D01*
X153372233Y-65831727D01*
X153247210Y-65832329D01*
X153148880Y-65831575D01*
X152934207Y-65822678D01*
X152754955Y-65802413D01*
X152604691Y-65769089D01*
X152476981Y-65721015D01*
X152365392Y-65656500D01*
X152263490Y-65573856D01*
X152251460Y-65562098D01*
X152177397Y-65464648D01*
X152114920Y-65342488D01*
X152071763Y-65213428D01*
X152061154Y-65135595D01*
X152356903Y-65135595D01*
X152393630Y-65237920D01*
X152453236Y-65330164D01*
X152547047Y-65415362D01*
X152670373Y-65475233D01*
X152829373Y-65513675D01*
X152832366Y-65514154D01*
X152930745Y-65525789D01*
X153048657Y-65534107D01*
X153161239Y-65537336D01*
X153348337Y-65537508D01*
X153348337Y-64653043D01*
X153195257Y-64653014D01*
X153189174Y-64653033D01*
X153086478Y-64656979D01*
X152965736Y-64666472D01*
X152851812Y-64679587D01*
X152751450Y-64698262D01*
X152601279Y-64751033D01*
X152485747Y-64829982D01*
X152402375Y-64936525D01*
X152359751Y-65039515D01*
X152356903Y-65135595D01*
X152061154Y-65135595D01*
X152055658Y-65095275D01*
X152058228Y-65052653D01*
X152082962Y-64937309D01*
X152128221Y-64816952D01*
X152186942Y-64708371D01*
X152252064Y-64628354D01*
X152291322Y-64594156D01*
X152401234Y-64515431D01*
X152522379Y-64454903D01*
X152661389Y-64410786D01*
X152824899Y-64381291D01*
X153019542Y-64364634D01*
X153251953Y-64359026D01*
X153331270Y-64358220D01*
X153423100Y-64357390D01*
X153495021Y-64361015D01*
X153549444Y-64373635D01*
X153588783Y-64399792D01*
X153615451Y-64444026D01*
X153631859Y-64510877D01*
X153640422Y-64604888D01*
X153641621Y-64653043D01*
X153643550Y-64730597D01*
X153643658Y-64892546D01*
G36*
X147032807Y-64367054D02*
G01*
X147101421Y-64413887D01*
X147157087Y-64469553D01*
X147157087Y-65098452D01*
X147157005Y-65267263D01*
X147156485Y-65416369D01*
X147155138Y-65530380D01*
X147152571Y-65614697D01*
X147148395Y-65674718D01*
X147142218Y-65715844D01*
X147133650Y-65743473D01*
X147122300Y-65763006D01*
X147107777Y-65779840D01*
X147044569Y-65822960D01*
X146973924Y-65826509D01*
X146907623Y-65786972D01*
X146896962Y-65775182D01*
X146886014Y-65756933D01*
X146877645Y-65730131D01*
X146871509Y-65689519D01*
X146867262Y-65629838D01*
X146864559Y-65545830D01*
X146863055Y-65432239D01*
X146862406Y-65283807D01*
X146862266Y-65095275D01*
X146862345Y-64943277D01*
X146862857Y-64786763D01*
X146864151Y-64666207D01*
X146866570Y-64576353D01*
X146870460Y-64511942D01*
X146876166Y-64467717D01*
X146884032Y-64438420D01*
X146894402Y-64418793D01*
X146907623Y-64403579D01*
X146966250Y-64365367D01*
X147032807Y-64367054D01*
G37*
X147032807Y-64367054D02*
X147101421Y-64413887D01*
X147157087Y-64469553D01*
X147157087Y-65098452D01*
X147157005Y-65267263D01*
X147156485Y-65416369D01*
X147155138Y-65530380D01*
X147152571Y-65614697D01*
X147148395Y-65674718D01*
X147142218Y-65715844D01*
X147133650Y-65743473D01*
X147122300Y-65763006D01*
X147107777Y-65779840D01*
X147044569Y-65822960D01*
X146973924Y-65826509D01*
X146907623Y-65786972D01*
X146896962Y-65775182D01*
X146886014Y-65756933D01*
X146877645Y-65730131D01*
X146871509Y-65689519D01*
X146867262Y-65629838D01*
X146864559Y-65545830D01*
X146863055Y-65432239D01*
X146862406Y-65283807D01*
X146862266Y-65095275D01*
X146862345Y-64943277D01*
X146862857Y-64786763D01*
X146864151Y-64666207D01*
X146866570Y-64576353D01*
X146870460Y-64511942D01*
X146876166Y-64467717D01*
X146884032Y-64438420D01*
X146894402Y-64418793D01*
X146907623Y-64403579D01*
X146966250Y-64365367D01*
X147032807Y-64367054D01*
G36*
X148749872Y-64359968D02*
G01*
X148882956Y-64370876D01*
X148994051Y-64390158D01*
X149096271Y-64420013D01*
X149239532Y-64486574D01*
X149342302Y-64572320D01*
X149404224Y-64676914D01*
X149424944Y-64800018D01*
X149423062Y-64862794D01*
X149411425Y-64912610D01*
X149381679Y-64956143D01*
X149325484Y-65011088D01*
X149309456Y-65025811D01*
X149261826Y-65067804D01*
X149216838Y-65101897D01*
X149168556Y-65129928D01*
X149111044Y-65153736D01*
X149038368Y-65175159D01*
X148944590Y-65196035D01*
X148823777Y-65218202D01*
X148669991Y-65243499D01*
X148477297Y-65273765D01*
X148440405Y-65279860D01*
X148315189Y-65307223D01*
X148224350Y-65338830D01*
X148171548Y-65373125D01*
X148160441Y-65408551D01*
X148165706Y-65417130D01*
X148201730Y-65447394D01*
X148258233Y-65480811D01*
X148283946Y-65492846D01*
X148326733Y-65507295D01*
X148379741Y-65516892D01*
X148451749Y-65522555D01*
X148551539Y-65525202D01*
X148687891Y-65525752D01*
X148723619Y-65525605D01*
X148859465Y-65523373D01*
X148989922Y-65518903D01*
X149101670Y-65512743D01*
X149181385Y-65505442D01*
X149252725Y-65497269D01*
X149311491Y-65495696D01*
X149349461Y-65504936D01*
X149379823Y-65526382D01*
X149387168Y-65533600D01*
X149419998Y-65597431D01*
X149417347Y-65669058D01*
X149379263Y-65730568D01*
X149338340Y-65753884D01*
X149266052Y-65779387D01*
X149180826Y-65799576D01*
X149173893Y-65800779D01*
X149088174Y-65811259D01*
X148972888Y-65820045D01*
X148842274Y-65826248D01*
X148710569Y-65828978D01*
X148677959Y-65829062D01*
X148480457Y-65824085D01*
X148319638Y-65808001D01*
X148188697Y-65778808D01*
X148080825Y-65734503D01*
X147989217Y-65673083D01*
X147907066Y-65592545D01*
X147866644Y-65539859D01*
X147843288Y-65480500D01*
X147837444Y-65400712D01*
X147837727Y-65376668D01*
X147845508Y-65311013D01*
X147870387Y-65257724D01*
X147920942Y-65195752D01*
X147963555Y-65151274D01*
X148016583Y-65105981D01*
X148076283Y-65069082D01*
X148149064Y-65038434D01*
X148241339Y-65011892D01*
X148359518Y-64987313D01*
X148510011Y-64962552D01*
X148699230Y-64935465D01*
X148790258Y-64921383D01*
X148926774Y-64892135D01*
X149025484Y-64858989D01*
X149084883Y-64823033D01*
X149103466Y-64785356D01*
X149079728Y-64747046D01*
X149012164Y-64709191D01*
X149006045Y-64706752D01*
X148912913Y-64682488D01*
X148787053Y-64666014D01*
X148639529Y-64657656D01*
X148481407Y-64657742D01*
X148323750Y-64666598D01*
X148177623Y-64684550D01*
X148169734Y-64685853D01*
X148071665Y-64701336D01*
X148006874Y-64708592D01*
X147964692Y-64707391D01*
X147934450Y-64697505D01*
X147905480Y-64678704D01*
X147903130Y-64676956D01*
X147853877Y-64615937D01*
X147844248Y-64544617D01*
X147876002Y-64475146D01*
X147885134Y-64466193D01*
X147944627Y-64435779D01*
X148039010Y-64409416D01*
X148160156Y-64387720D01*
X148299941Y-64371309D01*
X148450239Y-64360802D01*
X148602925Y-64356816D01*
X148749872Y-64359968D01*
G37*
X148749872Y-64359968D02*
X148882956Y-64370876D01*
X148994051Y-64390158D01*
X149096271Y-64420013D01*
X149239532Y-64486574D01*
X149342302Y-64572320D01*
X149404224Y-64676914D01*
X149424944Y-64800018D01*
X149423062Y-64862794D01*
X149411425Y-64912610D01*
X149381679Y-64956143D01*
X149325484Y-65011088D01*
X149309456Y-65025811D01*
X149261826Y-65067804D01*
X149216838Y-65101897D01*
X149168556Y-65129928D01*
X149111044Y-65153736D01*
X149038368Y-65175159D01*
X148944590Y-65196035D01*
X148823777Y-65218202D01*
X148669991Y-65243499D01*
X148477297Y-65273765D01*
X148440405Y-65279860D01*
X148315189Y-65307223D01*
X148224350Y-65338830D01*
X148171548Y-65373125D01*
X148160441Y-65408551D01*
X148165706Y-65417130D01*
X148201730Y-65447394D01*
X148258233Y-65480811D01*
X148283946Y-65492846D01*
X148326733Y-65507295D01*
X148379741Y-65516892D01*
X148451749Y-65522555D01*
X148551539Y-65525202D01*
X148687891Y-65525752D01*
X148723619Y-65525605D01*
X148859465Y-65523373D01*
X148989922Y-65518903D01*
X149101670Y-65512743D01*
X149181385Y-65505442D01*
X149252725Y-65497269D01*
X149311491Y-65495696D01*
X149349461Y-65504936D01*
X149379823Y-65526382D01*
X149387168Y-65533600D01*
X149419998Y-65597431D01*
X149417347Y-65669058D01*
X149379263Y-65730568D01*
X149338340Y-65753884D01*
X149266052Y-65779387D01*
X149180826Y-65799576D01*
X149173893Y-65800779D01*
X149088174Y-65811259D01*
X148972888Y-65820045D01*
X148842274Y-65826248D01*
X148710569Y-65828978D01*
X148677959Y-65829062D01*
X148480457Y-65824085D01*
X148319638Y-65808001D01*
X148188697Y-65778808D01*
X148080825Y-65734503D01*
X147989217Y-65673083D01*
X147907066Y-65592545D01*
X147866644Y-65539859D01*
X147843288Y-65480500D01*
X147837444Y-65400712D01*
X147837727Y-65376668D01*
X147845508Y-65311013D01*
X147870387Y-65257724D01*
X147920942Y-65195752D01*
X147963555Y-65151274D01*
X148016583Y-65105981D01*
X148076283Y-65069082D01*
X148149064Y-65038434D01*
X148241339Y-65011892D01*
X148359518Y-64987313D01*
X148510011Y-64962552D01*
X148699230Y-64935465D01*
X148790258Y-64921383D01*
X148926774Y-64892135D01*
X149025484Y-64858989D01*
X149084883Y-64823033D01*
X149103466Y-64785356D01*
X149079728Y-64747046D01*
X149012164Y-64709191D01*
X149006045Y-64706752D01*
X148912913Y-64682488D01*
X148787053Y-64666014D01*
X148639529Y-64657656D01*
X148481407Y-64657742D01*
X148323750Y-64666598D01*
X148177623Y-64684550D01*
X148169734Y-64685853D01*
X148071665Y-64701336D01*
X148006874Y-64708592D01*
X147964692Y-64707391D01*
X147934450Y-64697505D01*
X147905480Y-64678704D01*
X147903130Y-64676956D01*
X147853877Y-64615937D01*
X147844248Y-64544617D01*
X147876002Y-64475146D01*
X147885134Y-64466193D01*
X147944627Y-64435779D01*
X148039010Y-64409416D01*
X148160156Y-64387720D01*
X148299941Y-64371309D01*
X148450239Y-64360802D01*
X148602925Y-64356816D01*
X148749872Y-64359968D01*
G36*
X143709551Y-64355861D02*
G01*
X143732468Y-64368191D01*
X143753659Y-64389609D01*
X143776334Y-64417977D01*
X143785279Y-64429952D01*
X143797330Y-64451036D01*
X143806530Y-64478810D01*
X143813262Y-64518797D01*
X143817912Y-64576522D01*
X143820860Y-64657509D01*
X143822492Y-64767281D01*
X143823190Y-64911362D01*
X143823337Y-65095275D01*
X143823291Y-65212858D01*
X143822852Y-65371740D01*
X143821629Y-65494168D01*
X143819237Y-65585669D01*
X143815293Y-65651764D01*
X143809414Y-65697978D01*
X143801217Y-65729835D01*
X143790318Y-65752859D01*
X143776334Y-65772574D01*
X143715205Y-65821578D01*
X143645007Y-65827363D01*
X143570716Y-65789012D01*
X143562310Y-65782030D01*
X143545885Y-65764899D01*
X143533710Y-65741694D01*
X143524906Y-65705870D01*
X143518594Y-65650881D01*
X143513898Y-65570183D01*
X143509938Y-65457230D01*
X143505837Y-65305476D01*
X143494498Y-64865258D01*
X142961551Y-65348688D01*
X142813224Y-65482837D01*
X142682283Y-65599588D01*
X142577428Y-65689905D01*
X142494913Y-65756043D01*
X142430991Y-65800255D01*
X142381916Y-65824794D01*
X142343943Y-65831917D01*
X142313326Y-65823875D01*
X142286317Y-65802924D01*
X142259173Y-65771317D01*
X142246626Y-65754274D01*
X142235313Y-65733025D01*
X142226853Y-65704582D01*
X142220923Y-65663495D01*
X142217196Y-65604311D01*
X142215350Y-65521580D01*
X142215058Y-65409850D01*
X142215996Y-65263670D01*
X142217839Y-65077588D01*
X142224498Y-64444871D01*
X142278037Y-64401546D01*
X142330400Y-64369019D01*
X142396410Y-64363452D01*
X142465780Y-64401527D01*
X142474442Y-64408728D01*
X142490779Y-64425864D01*
X142502891Y-64449151D01*
X142511652Y-64485122D01*
X142517935Y-64540309D01*
X142522615Y-64621246D01*
X142526564Y-64734463D01*
X142530658Y-64886494D01*
X142541998Y-65328156D01*
X142904855Y-64999105D01*
X143079105Y-64841136D01*
X143231325Y-64703739D01*
X143356153Y-64592546D01*
X143456796Y-64505418D01*
X143536465Y-64440214D01*
X143598366Y-64394796D01*
X143645708Y-64367024D01*
X143681701Y-64354759D01*
X143709551Y-64355861D01*
G37*
X143709551Y-64355861D02*
X143732468Y-64368191D01*
X143753659Y-64389609D01*
X143776334Y-64417977D01*
X143785279Y-64429952D01*
X143797330Y-64451036D01*
X143806530Y-64478810D01*
X143813262Y-64518797D01*
X143817912Y-64576522D01*
X143820860Y-64657509D01*
X143822492Y-64767281D01*
X143823190Y-64911362D01*
X143823337Y-65095275D01*
X143823291Y-65212858D01*
X143822852Y-65371740D01*
X143821629Y-65494168D01*
X143819237Y-65585669D01*
X143815293Y-65651764D01*
X143809414Y-65697978D01*
X143801217Y-65729835D01*
X143790318Y-65752859D01*
X143776334Y-65772574D01*
X143715205Y-65821578D01*
X143645007Y-65827363D01*
X143570716Y-65789012D01*
X143562310Y-65782030D01*
X143545885Y-65764899D01*
X143533710Y-65741694D01*
X143524906Y-65705870D01*
X143518594Y-65650881D01*
X143513898Y-65570183D01*
X143509938Y-65457230D01*
X143505837Y-65305476D01*
X143494498Y-64865258D01*
X142961551Y-65348688D01*
X142813224Y-65482837D01*
X142682283Y-65599588D01*
X142577428Y-65689905D01*
X142494913Y-65756043D01*
X142430991Y-65800255D01*
X142381916Y-65824794D01*
X142343943Y-65831917D01*
X142313326Y-65823875D01*
X142286317Y-65802924D01*
X142259173Y-65771317D01*
X142246626Y-65754274D01*
X142235313Y-65733025D01*
X142226853Y-65704582D01*
X142220923Y-65663495D01*
X142217196Y-65604311D01*
X142215350Y-65521580D01*
X142215058Y-65409850D01*
X142215996Y-65263670D01*
X142217839Y-65077588D01*
X142224498Y-64444871D01*
X142278037Y-64401546D01*
X142330400Y-64369019D01*
X142396410Y-64363452D01*
X142465780Y-64401527D01*
X142474442Y-64408728D01*
X142490779Y-64425864D01*
X142502891Y-64449151D01*
X142511652Y-64485122D01*
X142517935Y-64540309D01*
X142522615Y-64621246D01*
X142526564Y-64734463D01*
X142530658Y-64886494D01*
X142541998Y-65328156D01*
X142904855Y-64999105D01*
X143079105Y-64841136D01*
X143231325Y-64703739D01*
X143356153Y-64592546D01*
X143456796Y-64505418D01*
X143536465Y-64440214D01*
X143598366Y-64394796D01*
X143645708Y-64367024D01*
X143681701Y-64354759D01*
X143709551Y-64355861D01*
G36*
X129944051Y-64403579D02*
G01*
X129955366Y-64416015D01*
X129965593Y-64432499D01*
X129973802Y-64456158D01*
X129980186Y-64491232D01*
X129984940Y-64541965D01*
X129988256Y-64612599D01*
X129990328Y-64707377D01*
X129991349Y-64830541D01*
X129991512Y-64986334D01*
X129991011Y-65178998D01*
X129990039Y-65412775D01*
X129989902Y-65441252D01*
X129988724Y-65565328D01*
X129986068Y-65653084D01*
X129980954Y-65712107D01*
X129972405Y-65749983D01*
X129959445Y-65774299D01*
X129941094Y-65792641D01*
X129873881Y-65827631D01*
X129803672Y-65821802D01*
X129741590Y-65772574D01*
X129723491Y-65746050D01*
X129708522Y-65708814D01*
X129699747Y-65656524D01*
X129695619Y-65579088D01*
X129694587Y-65466413D01*
X129694587Y-65220008D01*
X128696730Y-65220008D01*
X128696730Y-65490864D01*
X128696583Y-65562766D01*
X128695051Y-65655839D01*
X128690679Y-65717181D01*
X128682047Y-65755411D01*
X128667736Y-65779152D01*
X128646327Y-65797025D01*
X128581536Y-65827299D01*
X128510648Y-65821941D01*
X128448912Y-65772574D01*
X128439559Y-65760009D01*
X128427635Y-65738866D01*
X128418532Y-65710883D01*
X128411871Y-65670555D01*
X128407273Y-65612382D01*
X128404356Y-65530861D01*
X128402743Y-65420489D01*
X128402054Y-65275765D01*
X128401908Y-65091186D01*
X128401908Y-64469553D01*
X128457574Y-64413887D01*
X128520611Y-64369203D01*
X128587366Y-64363800D01*
X128651373Y-64403579D01*
X128668018Y-64423207D01*
X128682908Y-64455133D01*
X128691622Y-64503282D01*
X128695712Y-64577357D01*
X128696730Y-64687061D01*
X128696730Y-64925186D01*
X129694587Y-64925186D01*
X129694587Y-64697370D01*
X129694588Y-64693128D01*
X129695467Y-64589272D01*
X129699412Y-64519914D01*
X129708484Y-64474561D01*
X129724744Y-64442716D01*
X129750253Y-64413887D01*
X129813290Y-64369203D01*
X129880044Y-64363800D01*
X129944051Y-64403579D01*
G37*
X129944051Y-64403579D02*
X129955366Y-64416015D01*
X129965593Y-64432499D01*
X129973802Y-64456158D01*
X129980186Y-64491232D01*
X129984940Y-64541965D01*
X129988256Y-64612599D01*
X129990328Y-64707377D01*
X129991349Y-64830541D01*
X129991512Y-64986334D01*
X129991011Y-65178998D01*
X129990039Y-65412775D01*
X129989902Y-65441252D01*
X129988724Y-65565328D01*
X129986068Y-65653084D01*
X129980954Y-65712107D01*
X129972405Y-65749983D01*
X129959445Y-65774299D01*
X129941094Y-65792641D01*
X129873881Y-65827631D01*
X129803672Y-65821802D01*
X129741590Y-65772574D01*
X129723491Y-65746050D01*
X129708522Y-65708814D01*
X129699747Y-65656524D01*
X129695619Y-65579088D01*
X129694587Y-65466413D01*
X129694587Y-65220008D01*
X128696730Y-65220008D01*
X128696730Y-65490864D01*
X128696583Y-65562766D01*
X128695051Y-65655839D01*
X128690679Y-65717181D01*
X128682047Y-65755411D01*
X128667736Y-65779152D01*
X128646327Y-65797025D01*
X128581536Y-65827299D01*
X128510648Y-65821941D01*
X128448912Y-65772574D01*
X128439559Y-65760009D01*
X128427635Y-65738866D01*
X128418532Y-65710883D01*
X128411871Y-65670555D01*
X128407273Y-65612382D01*
X128404356Y-65530861D01*
X128402743Y-65420489D01*
X128402054Y-65275765D01*
X128401908Y-65091186D01*
X128401908Y-64469553D01*
X128457574Y-64413887D01*
X128520611Y-64369203D01*
X128587366Y-64363800D01*
X128651373Y-64403579D01*
X128668018Y-64423207D01*
X128682908Y-64455133D01*
X128691622Y-64503282D01*
X128695712Y-64577357D01*
X128696730Y-64687061D01*
X128696730Y-64925186D01*
X129694587Y-64925186D01*
X129694587Y-64697370D01*
X129694588Y-64693128D01*
X129695467Y-64589272D01*
X129699412Y-64519914D01*
X129708484Y-64474561D01*
X129724744Y-64442716D01*
X129750253Y-64413887D01*
X129813290Y-64369203D01*
X129880044Y-64363800D01*
X129944051Y-64403579D01*
G36*
X145311183Y-64368492D02*
G01*
X145524142Y-64401268D01*
X145712605Y-64457621D01*
X145870899Y-64535781D01*
X145993352Y-64633981D01*
X146045725Y-64699998D01*
X146105004Y-64798835D01*
X146155773Y-64907032D01*
X146191229Y-65009823D01*
X146204569Y-65092440D01*
X146201436Y-65132046D01*
X146175437Y-65235169D01*
X146128904Y-65348727D01*
X146068854Y-65457042D01*
X146002301Y-65544438D01*
X145981817Y-65565227D01*
X145847047Y-65669239D01*
X145686081Y-65749380D01*
X145512891Y-65798401D01*
X145402471Y-65814698D01*
X145214731Y-65827966D01*
X145034369Y-65823773D01*
X144868653Y-65803191D01*
X144724848Y-65767291D01*
X144610223Y-65717145D01*
X144532042Y-65653822D01*
X144529279Y-65649853D01*
X144515040Y-65599176D01*
X144506525Y-65504252D01*
X144503694Y-65364704D01*
X144505422Y-65239683D01*
X144514903Y-65144495D01*
X144538387Y-65080002D01*
X144582120Y-65040722D01*
X144652350Y-65021175D01*
X144755324Y-65015877D01*
X144897288Y-65019349D01*
X144994963Y-65025400D01*
X145095803Y-65041858D01*
X145161081Y-65070090D01*
X145196154Y-65112751D01*
X145206383Y-65172496D01*
X145206169Y-65181619D01*
X145188687Y-65251518D01*
X145140454Y-65298561D01*
X145057555Y-65325079D01*
X144936078Y-65333400D01*
X144798516Y-65333400D01*
X144798516Y-65410447D01*
X144798617Y-65428799D01*
X144803078Y-65463455D01*
X144821695Y-65484135D01*
X144864647Y-65498072D01*
X144942114Y-65512501D01*
X144953111Y-65514377D01*
X145147878Y-65534272D01*
X145328664Y-65528408D01*
X145491202Y-65498816D01*
X145631222Y-65447527D01*
X145744455Y-65376571D01*
X145826632Y-65287979D01*
X145873484Y-65183782D01*
X145880741Y-65066011D01*
X145869654Y-65007963D01*
X145816049Y-64895685D01*
X145723259Y-64803958D01*
X145592716Y-64733975D01*
X145425851Y-64686929D01*
X145376282Y-64677992D01*
X145196827Y-64656899D01*
X145036499Y-64659369D01*
X144879617Y-64685355D01*
X144809016Y-64698994D01*
X144717735Y-64701039D01*
X144654826Y-64675864D01*
X144614339Y-64622051D01*
X144601514Y-64565304D01*
X144620572Y-64502577D01*
X144639313Y-64475607D01*
X144708087Y-64428334D01*
X144813801Y-64392431D01*
X144951446Y-64369335D01*
X145116016Y-64360483D01*
X145311183Y-64368492D01*
G37*
X145311183Y-64368492D02*
X145524142Y-64401268D01*
X145712605Y-64457621D01*
X145870899Y-64535781D01*
X145993352Y-64633981D01*
X146045725Y-64699998D01*
X146105004Y-64798835D01*
X146155773Y-64907032D01*
X146191229Y-65009823D01*
X146204569Y-65092440D01*
X146201436Y-65132046D01*
X146175437Y-65235169D01*
X146128904Y-65348727D01*
X146068854Y-65457042D01*
X146002301Y-65544438D01*
X145981817Y-65565227D01*
X145847047Y-65669239D01*
X145686081Y-65749380D01*
X145512891Y-65798401D01*
X145402471Y-65814698D01*
X145214731Y-65827966D01*
X145034369Y-65823773D01*
X144868653Y-65803191D01*
X144724848Y-65767291D01*
X144610223Y-65717145D01*
X144532042Y-65653822D01*
X144529279Y-65649853D01*
X144515040Y-65599176D01*
X144506525Y-65504252D01*
X144503694Y-65364704D01*
X144505422Y-65239683D01*
X144514903Y-65144495D01*
X144538387Y-65080002D01*
X144582120Y-65040722D01*
X144652350Y-65021175D01*
X144755324Y-65015877D01*
X144897288Y-65019349D01*
X144994963Y-65025400D01*
X145095803Y-65041858D01*
X145161081Y-65070090D01*
X145196154Y-65112751D01*
X145206383Y-65172496D01*
X145206169Y-65181619D01*
X145188687Y-65251518D01*
X145140454Y-65298561D01*
X145057555Y-65325079D01*
X144936078Y-65333400D01*
X144798516Y-65333400D01*
X144798516Y-65410447D01*
X144798617Y-65428799D01*
X144803078Y-65463455D01*
X144821695Y-65484135D01*
X144864647Y-65498072D01*
X144942114Y-65512501D01*
X144953111Y-65514377D01*
X145147878Y-65534272D01*
X145328664Y-65528408D01*
X145491202Y-65498816D01*
X145631222Y-65447527D01*
X145744455Y-65376571D01*
X145826632Y-65287979D01*
X145873484Y-65183782D01*
X145880741Y-65066011D01*
X145869654Y-65007963D01*
X145816049Y-64895685D01*
X145723259Y-64803958D01*
X145592716Y-64733975D01*
X145425851Y-64686929D01*
X145376282Y-64677992D01*
X145196827Y-64656899D01*
X145036499Y-64659369D01*
X144879617Y-64685355D01*
X144809016Y-64698994D01*
X144717735Y-64701039D01*
X144654826Y-64675864D01*
X144614339Y-64622051D01*
X144601514Y-64565304D01*
X144620572Y-64502577D01*
X144639313Y-64475607D01*
X144708087Y-64428334D01*
X144813801Y-64392431D01*
X144951446Y-64369335D01*
X145116016Y-64360483D01*
X145311183Y-64368492D01*
G36*
X150790704Y-64358254D02*
G01*
X150945586Y-64358640D01*
X151064005Y-64359815D01*
X151151568Y-64362208D01*
X151213882Y-64366251D01*
X151256557Y-64372374D01*
X151285198Y-64381009D01*
X151305414Y-64392584D01*
X151322813Y-64407532D01*
X151326398Y-64410909D01*
X151340951Y-64426054D01*
X151352285Y-64444170D01*
X151360804Y-64470556D01*
X151366909Y-64510509D01*
X151371002Y-64569328D01*
X151373486Y-64652311D01*
X151374763Y-64764757D01*
X151375234Y-64911963D01*
X151375301Y-65099229D01*
X151375228Y-65245457D01*
X151374729Y-65402507D01*
X151373450Y-65523473D01*
X151371045Y-65613632D01*
X151367166Y-65678259D01*
X151361464Y-65722630D01*
X151353592Y-65752022D01*
X151343201Y-65771711D01*
X151329944Y-65786972D01*
X151323246Y-65793354D01*
X151306126Y-65805630D01*
X151282015Y-65815021D01*
X151245432Y-65821912D01*
X151190895Y-65826688D01*
X151112925Y-65829733D01*
X151006041Y-65831431D01*
X150864761Y-65832169D01*
X150683605Y-65832329D01*
X150599011Y-65832305D01*
X150435993Y-65831940D01*
X150310451Y-65830829D01*
X150216903Y-65828588D01*
X150149870Y-65824832D01*
X150103871Y-65819177D01*
X150073424Y-65811239D01*
X150053049Y-65800632D01*
X150037266Y-65786972D01*
X150007682Y-65743580D01*
X149991908Y-65684918D01*
X150002955Y-65636892D01*
X150037266Y-65582865D01*
X150047268Y-65573608D01*
X150066906Y-65560977D01*
X150095263Y-65551686D01*
X150138445Y-65545224D01*
X150202559Y-65541085D01*
X150293710Y-65538758D01*
X150418006Y-65537735D01*
X150581551Y-65537508D01*
X151080480Y-65537508D01*
X151080480Y-65220008D01*
X150756687Y-65220008D01*
X150684731Y-65219716D01*
X150552897Y-65216255D01*
X150457993Y-65207345D01*
X150394240Y-65191064D01*
X150355857Y-65165489D01*
X150337066Y-65128697D01*
X150332087Y-65078766D01*
X150333689Y-65038073D01*
X150344240Y-64994227D01*
X150369942Y-64963387D01*
X150416830Y-64943307D01*
X150490937Y-64931743D01*
X150598299Y-64926451D01*
X150744948Y-64925186D01*
X151082743Y-64925186D01*
X151075942Y-64794784D01*
X151069141Y-64664383D01*
X150571496Y-64658258D01*
X150445755Y-64656493D01*
X150308222Y-64653591D01*
X150205959Y-64649712D01*
X150133129Y-64644388D01*
X150083896Y-64637149D01*
X150052425Y-64627527D01*
X150032880Y-64615056D01*
X150020796Y-64602193D01*
X149994662Y-64538547D01*
X150001815Y-64466856D01*
X150041542Y-64404462D01*
X150048074Y-64398590D01*
X150066114Y-64385830D01*
X150090430Y-64376082D01*
X150126603Y-64368942D01*
X150180217Y-64364006D01*
X150256856Y-64360869D01*
X150362103Y-64359129D01*
X150501539Y-64358381D01*
X150680750Y-64358222D01*
X150790704Y-64358254D01*
G37*
X150790704Y-64358254D02*
X150945586Y-64358640D01*
X151064005Y-64359815D01*
X151151568Y-64362208D01*
X151213882Y-64366251D01*
X151256557Y-64372374D01*
X151285198Y-64381009D01*
X151305414Y-64392584D01*
X151322813Y-64407532D01*
X151326398Y-64410909D01*
X151340951Y-64426054D01*
X151352285Y-64444170D01*
X151360804Y-64470556D01*
X151366909Y-64510509D01*
X151371002Y-64569328D01*
X151373486Y-64652311D01*
X151374763Y-64764757D01*
X151375234Y-64911963D01*
X151375301Y-65099229D01*
X151375228Y-65245457D01*
X151374729Y-65402507D01*
X151373450Y-65523473D01*
X151371045Y-65613632D01*
X151367166Y-65678259D01*
X151361464Y-65722630D01*
X151353592Y-65752022D01*
X151343201Y-65771711D01*
X151329944Y-65786972D01*
X151323246Y-65793354D01*
X151306126Y-65805630D01*
X151282015Y-65815021D01*
X151245432Y-65821912D01*
X151190895Y-65826688D01*
X151112925Y-65829733D01*
X151006041Y-65831431D01*
X150864761Y-65832169D01*
X150683605Y-65832329D01*
X150599011Y-65832305D01*
X150435993Y-65831940D01*
X150310451Y-65830829D01*
X150216903Y-65828588D01*
X150149870Y-65824832D01*
X150103871Y-65819177D01*
X150073424Y-65811239D01*
X150053049Y-65800632D01*
X150037266Y-65786972D01*
X150007682Y-65743580D01*
X149991908Y-65684918D01*
X150002955Y-65636892D01*
X150037266Y-65582865D01*
X150047268Y-65573608D01*
X150066906Y-65560977D01*
X150095263Y-65551686D01*
X150138445Y-65545224D01*
X150202559Y-65541085D01*
X150293710Y-65538758D01*
X150418006Y-65537735D01*
X150581551Y-65537508D01*
X151080480Y-65537508D01*
X151080480Y-65220008D01*
X150756687Y-65220008D01*
X150684731Y-65219716D01*
X150552897Y-65216255D01*
X150457993Y-65207345D01*
X150394240Y-65191064D01*
X150355857Y-65165489D01*
X150337066Y-65128697D01*
X150332087Y-65078766D01*
X150333689Y-65038073D01*
X150344240Y-64994227D01*
X150369942Y-64963387D01*
X150416830Y-64943307D01*
X150490937Y-64931743D01*
X150598299Y-64926451D01*
X150744948Y-64925186D01*
X151082743Y-64925186D01*
X151075942Y-64794784D01*
X151069141Y-64664383D01*
X150571496Y-64658258D01*
X150445755Y-64656493D01*
X150308222Y-64653591D01*
X150205959Y-64649712D01*
X150133129Y-64644388D01*
X150083896Y-64637149D01*
X150052425Y-64627527D01*
X150032880Y-64615056D01*
X150020796Y-64602193D01*
X149994662Y-64538547D01*
X150001815Y-64466856D01*
X150041542Y-64404462D01*
X150048074Y-64398590D01*
X150066114Y-64385830D01*
X150090430Y-64376082D01*
X150126603Y-64368942D01*
X150180217Y-64364006D01*
X150256856Y-64360869D01*
X150362103Y-64359129D01*
X150501539Y-64358381D01*
X150680750Y-64358222D01*
X150790704Y-64358254D01*
G36*
X147089293Y-51526240D02*
G01*
X147299206Y-51577672D01*
X147498180Y-51669982D01*
X147679945Y-51803186D01*
X147838231Y-51977296D01*
X147966766Y-52192329D01*
X148001226Y-52268080D01*
X148029143Y-52344859D01*
X148044807Y-52421615D01*
X148051673Y-52516554D01*
X148053195Y-52647880D01*
X148052275Y-52757186D01*
X148046732Y-52857641D01*
X148033142Y-52936016D01*
X148008110Y-53010311D01*
X147968245Y-53098525D01*
X147956713Y-53122033D01*
X147820408Y-53337289D01*
X147648974Y-53514396D01*
X147447278Y-53649197D01*
X147220184Y-53737536D01*
X147103660Y-53762188D01*
X146867268Y-53773723D01*
X146638307Y-53736398D01*
X146423491Y-53654039D01*
X146229535Y-53530473D01*
X146063151Y-53369528D01*
X145931055Y-53175030D01*
X145839960Y-52950805D01*
X145806631Y-52767311D01*
X145803628Y-52564817D01*
X145830735Y-52367849D01*
X145886661Y-52197235D01*
X145951280Y-52075257D01*
X146095136Y-51881731D01*
X146265678Y-51728995D01*
X146456635Y-51617063D01*
X146661737Y-51545950D01*
X146874714Y-51515671D01*
X147089293Y-51526240D01*
G37*
X147089293Y-51526240D02*
X147299206Y-51577672D01*
X147498180Y-51669982D01*
X147679945Y-51803186D01*
X147838231Y-51977296D01*
X147966766Y-52192329D01*
X148001226Y-52268080D01*
X148029143Y-52344859D01*
X148044807Y-52421615D01*
X148051673Y-52516554D01*
X148053195Y-52647880D01*
X148052275Y-52757186D01*
X148046732Y-52857641D01*
X148033142Y-52936016D01*
X148008110Y-53010311D01*
X147968245Y-53098525D01*
X147956713Y-53122033D01*
X147820408Y-53337289D01*
X147648974Y-53514396D01*
X147447278Y-53649197D01*
X147220184Y-53737536D01*
X147103660Y-53762188D01*
X146867268Y-53773723D01*
X146638307Y-53736398D01*
X146423491Y-53654039D01*
X146229535Y-53530473D01*
X146063151Y-53369528D01*
X145931055Y-53175030D01*
X145839960Y-52950805D01*
X145806631Y-52767311D01*
X145803628Y-52564817D01*
X145830735Y-52367849D01*
X145886661Y-52197235D01*
X145951280Y-52075257D01*
X146095136Y-51881731D01*
X146265678Y-51728995D01*
X146456635Y-51617063D01*
X146661737Y-51545950D01*
X146874714Y-51515671D01*
X147089293Y-51526240D01*
G36*
X141395084Y-64417977D02*
G01*
X141405026Y-64431404D01*
X141416767Y-64452641D01*
X141425729Y-64480940D01*
X141432286Y-64521772D01*
X141436812Y-64580607D01*
X141439681Y-64662917D01*
X141441267Y-64774171D01*
X141441944Y-64919841D01*
X141442087Y-65105397D01*
X141442029Y-65237819D01*
X141441563Y-65395153D01*
X141440316Y-65516226D01*
X141437920Y-65606423D01*
X141434009Y-65671127D01*
X141428213Y-65715722D01*
X141420165Y-65745593D01*
X141409499Y-65766123D01*
X141395846Y-65782695D01*
X141386776Y-65792052D01*
X141370243Y-65805083D01*
X141347422Y-65814950D01*
X141312732Y-65822092D01*
X141260590Y-65826950D01*
X141185417Y-65829963D01*
X141081631Y-65831571D01*
X140943649Y-65832213D01*
X140765893Y-65832329D01*
X140726368Y-65832316D01*
X140551540Y-65831781D01*
X140415632Y-65830242D01*
X140313268Y-65827401D01*
X140239075Y-65822958D01*
X140187678Y-65816614D01*
X140153703Y-65808069D01*
X140131776Y-65797025D01*
X140110698Y-65776964D01*
X140084057Y-65714453D01*
X140086433Y-65642355D01*
X140118906Y-65578981D01*
X140123304Y-65574408D01*
X140140757Y-65561816D01*
X140167560Y-65552443D01*
X140209713Y-65545821D01*
X140273218Y-65541483D01*
X140364076Y-65538963D01*
X140488287Y-65537794D01*
X140651852Y-65537508D01*
X141147266Y-65537508D01*
X141147266Y-65220008D01*
X140820939Y-65220008D01*
X140749283Y-65219846D01*
X140637245Y-65218244D01*
X140558620Y-65214217D01*
X140505476Y-65206902D01*
X140469883Y-65195434D01*
X140443908Y-65178950D01*
X140436589Y-65172554D01*
X140399610Y-65110327D01*
X140398336Y-65037330D01*
X140433571Y-64969792D01*
X140433695Y-64969654D01*
X140453123Y-64952324D01*
X140479829Y-64940159D01*
X140521428Y-64932261D01*
X140585536Y-64927732D01*
X140679766Y-64925673D01*
X140811734Y-64925186D01*
X141149529Y-64925186D01*
X141142728Y-64794784D01*
X141135926Y-64664383D01*
X140649610Y-64658249D01*
X140599354Y-64657590D01*
X140435386Y-64654618D01*
X140310191Y-64649828D01*
X140218557Y-64641802D01*
X140155271Y-64629118D01*
X140115122Y-64610357D01*
X140092898Y-64584098D01*
X140083385Y-64548920D01*
X140081373Y-64503404D01*
X140081385Y-64498652D01*
X140083703Y-64458411D01*
X140093341Y-64426685D01*
X140115053Y-64402464D01*
X140153593Y-64384739D01*
X140213717Y-64372501D01*
X140300178Y-64364740D01*
X140417731Y-64360446D01*
X140571130Y-64358609D01*
X140765130Y-64358222D01*
X141348081Y-64358222D01*
X141395084Y-64417977D01*
G37*
X141395084Y-64417977D02*
X141405026Y-64431404D01*
X141416767Y-64452641D01*
X141425729Y-64480940D01*
X141432286Y-64521772D01*
X141436812Y-64580607D01*
X141439681Y-64662917D01*
X141441267Y-64774171D01*
X141441944Y-64919841D01*
X141442087Y-65105397D01*
X141442029Y-65237819D01*
X141441563Y-65395153D01*
X141440316Y-65516226D01*
X141437920Y-65606423D01*
X141434009Y-65671127D01*
X141428213Y-65715722D01*
X141420165Y-65745593D01*
X141409499Y-65766123D01*
X141395846Y-65782695D01*
X141386776Y-65792052D01*
X141370243Y-65805083D01*
X141347422Y-65814950D01*
X141312732Y-65822092D01*
X141260590Y-65826950D01*
X141185417Y-65829963D01*
X141081631Y-65831571D01*
X140943649Y-65832213D01*
X140765893Y-65832329D01*
X140726368Y-65832316D01*
X140551540Y-65831781D01*
X140415632Y-65830242D01*
X140313268Y-65827401D01*
X140239075Y-65822958D01*
X140187678Y-65816614D01*
X140153703Y-65808069D01*
X140131776Y-65797025D01*
X140110698Y-65776964D01*
X140084057Y-65714453D01*
X140086433Y-65642355D01*
X140118906Y-65578981D01*
X140123304Y-65574408D01*
X140140757Y-65561816D01*
X140167560Y-65552443D01*
X140209713Y-65545821D01*
X140273218Y-65541483D01*
X140364076Y-65538963D01*
X140488287Y-65537794D01*
X140651852Y-65537508D01*
X141147266Y-65537508D01*
X141147266Y-65220008D01*
X140820939Y-65220008D01*
X140749283Y-65219846D01*
X140637245Y-65218244D01*
X140558620Y-65214217D01*
X140505476Y-65206902D01*
X140469883Y-65195434D01*
X140443908Y-65178950D01*
X140436589Y-65172554D01*
X140399610Y-65110327D01*
X140398336Y-65037330D01*
X140433571Y-64969792D01*
X140433695Y-64969654D01*
X140453123Y-64952324D01*
X140479829Y-64940159D01*
X140521428Y-64932261D01*
X140585536Y-64927732D01*
X140679766Y-64925673D01*
X140811734Y-64925186D01*
X141149529Y-64925186D01*
X141142728Y-64794784D01*
X141135926Y-64664383D01*
X140649610Y-64658249D01*
X140599354Y-64657590D01*
X140435386Y-64654618D01*
X140310191Y-64649828D01*
X140218557Y-64641802D01*
X140155271Y-64629118D01*
X140115122Y-64610357D01*
X140092898Y-64584098D01*
X140083385Y-64548920D01*
X140081373Y-64503404D01*
X140081385Y-64498652D01*
X140083703Y-64458411D01*
X140093341Y-64426685D01*
X140115053Y-64402464D01*
X140153593Y-64384739D01*
X140213717Y-64372501D01*
X140300178Y-64364740D01*
X140417731Y-64360446D01*
X140571130Y-64358609D01*
X140765130Y-64358222D01*
X141348081Y-64358222D01*
X141395084Y-64417977D01*
G36*
X131302155Y-64358225D02*
G01*
X131491241Y-64358405D01*
X131640935Y-64359088D01*
X131756261Y-64360578D01*
X131842243Y-64363180D01*
X131903903Y-64367201D01*
X131946265Y-64372946D01*
X131974353Y-64380721D01*
X131993191Y-64390830D01*
X132007801Y-64403579D01*
X132045581Y-64469306D01*
X132048487Y-64544796D01*
X132015626Y-64611570D01*
X132012893Y-64614490D01*
X131990387Y-64631285D01*
X131956030Y-64642445D01*
X131901448Y-64649062D01*
X131818271Y-64652230D01*
X131698126Y-64653043D01*
X131418158Y-64653043D01*
X131418158Y-65182931D01*
X131418007Y-65335264D01*
X131417187Y-65469192D01*
X131415214Y-65569204D01*
X131411606Y-65641359D01*
X131405879Y-65691715D01*
X131397550Y-65726331D01*
X131386136Y-65751264D01*
X131371155Y-65772574D01*
X131366553Y-65778211D01*
X131303919Y-65823698D01*
X131234854Y-65826840D01*
X131168694Y-65786972D01*
X131154675Y-65770748D01*
X131143682Y-65749457D01*
X131135606Y-65717629D01*
X131129999Y-65669462D01*
X131126415Y-65599151D01*
X131124407Y-65500895D01*
X131123530Y-65368888D01*
X131123337Y-65197329D01*
X131123337Y-64653043D01*
X130830162Y-64653043D01*
X130807863Y-64653041D01*
X130694323Y-64652589D01*
X130616287Y-64650301D01*
X130565276Y-64644676D01*
X130532808Y-64634216D01*
X130510405Y-64617418D01*
X130489586Y-64592783D01*
X130457750Y-64531134D01*
X130463982Y-64463271D01*
X130515499Y-64397909D01*
X130525425Y-64390441D01*
X130545936Y-64380726D01*
X130576925Y-64373166D01*
X130623374Y-64367496D01*
X130690267Y-64363451D01*
X130782585Y-64360766D01*
X130905312Y-64359176D01*
X131063430Y-64358416D01*
X131261921Y-64358222D01*
X131302155Y-64358225D01*
G37*
X131302155Y-64358225D02*
X131491241Y-64358405D01*
X131640935Y-64359088D01*
X131756261Y-64360578D01*
X131842243Y-64363180D01*
X131903903Y-64367201D01*
X131946265Y-64372946D01*
X131974353Y-64380721D01*
X131993191Y-64390830D01*
X132007801Y-64403579D01*
X132045581Y-64469306D01*
X132048487Y-64544796D01*
X132015626Y-64611570D01*
X132012893Y-64614490D01*
X131990387Y-64631285D01*
X131956030Y-64642445D01*
X131901448Y-64649062D01*
X131818271Y-64652230D01*
X131698126Y-64653043D01*
X131418158Y-64653043D01*
X131418158Y-65182931D01*
X131418007Y-65335264D01*
X131417187Y-65469192D01*
X131415214Y-65569204D01*
X131411606Y-65641359D01*
X131405879Y-65691715D01*
X131397550Y-65726331D01*
X131386136Y-65751264D01*
X131371155Y-65772574D01*
X131366553Y-65778211D01*
X131303919Y-65823698D01*
X131234854Y-65826840D01*
X131168694Y-65786972D01*
X131154675Y-65770748D01*
X131143682Y-65749457D01*
X131135606Y-65717629D01*
X131129999Y-65669462D01*
X131126415Y-65599151D01*
X131124407Y-65500895D01*
X131123530Y-65368888D01*
X131123337Y-65197329D01*
X131123337Y-64653043D01*
X130830162Y-64653043D01*
X130807863Y-64653041D01*
X130694323Y-64652589D01*
X130616287Y-64650301D01*
X130565276Y-64644676D01*
X130532808Y-64634216D01*
X130510405Y-64617418D01*
X130489586Y-64592783D01*
X130457750Y-64531134D01*
X130463982Y-64463271D01*
X130515499Y-64397909D01*
X130525425Y-64390441D01*
X130545936Y-64380726D01*
X130576925Y-64373166D01*
X130623374Y-64367496D01*
X130690267Y-64363451D01*
X130782585Y-64360766D01*
X130905312Y-64359176D01*
X131063430Y-64358416D01*
X131261921Y-64358222D01*
X131302155Y-64358225D01*
G36*
X138137580Y-60547784D02*
G01*
X138111070Y-60752682D01*
X138071068Y-60923364D01*
X138007240Y-61098970D01*
X137859287Y-61388367D01*
X137670172Y-61642982D01*
X137441854Y-61861080D01*
X137176290Y-62040925D01*
X136875439Y-62180782D01*
X136541259Y-62278917D01*
X136404989Y-62301051D01*
X136210261Y-62316433D01*
X135998189Y-62319893D01*
X135786496Y-62311708D01*
X135592902Y-62292157D01*
X135435130Y-62261520D01*
X135355850Y-62237399D01*
X135175793Y-62166812D01*
X134992760Y-62077195D01*
X134825636Y-61978266D01*
X134693304Y-61879744D01*
X134691678Y-61878322D01*
X134619162Y-61816837D01*
X134563370Y-61773056D01*
X134536261Y-61756375D01*
X134533297Y-61760357D01*
X134526591Y-61803377D01*
X134521930Y-61883613D01*
X134520184Y-61988525D01*
X134520184Y-62220676D01*
X133495990Y-62220676D01*
X133468726Y-62220671D01*
X133240061Y-62220271D01*
X133030193Y-62219276D01*
X132845093Y-62217759D01*
X132690732Y-62215795D01*
X132573082Y-62213457D01*
X132498113Y-62210821D01*
X132471797Y-62207960D01*
X132472410Y-62205460D01*
X132489627Y-62168554D01*
X132525718Y-62099217D01*
X132574216Y-62009949D01*
X132676635Y-61824654D01*
X132691653Y-59995261D01*
X134629431Y-59995261D01*
X134630193Y-60139798D01*
X134633884Y-60291666D01*
X134641115Y-60401439D01*
X134652412Y-60476263D01*
X134668302Y-60523287D01*
X134688742Y-60556866D01*
X134765718Y-60648401D01*
X134868856Y-60743695D01*
X134981898Y-60828602D01*
X135088587Y-60888975D01*
X135147781Y-60911127D01*
X135284079Y-60940620D01*
X135462095Y-60955699D01*
X135649780Y-60953415D01*
X135828008Y-60922400D01*
X135976773Y-60858327D01*
X136105482Y-60758309D01*
X136141689Y-60721314D01*
X136235958Y-60595148D01*
X136286963Y-60459159D01*
X136302281Y-60295526D01*
X136298131Y-60209078D01*
X136257092Y-60031116D01*
X136170879Y-59878368D01*
X136037920Y-59749116D01*
X135856647Y-59641641D01*
X135625491Y-59554224D01*
X135532302Y-59531283D01*
X135419486Y-59515575D01*
X135277507Y-59506852D01*
X135093732Y-59503919D01*
X135063879Y-59503921D01*
X134926393Y-59505599D01*
X134808293Y-59509656D01*
X134721323Y-59515559D01*
X134677227Y-59522776D01*
X134672153Y-59525119D01*
X134655747Y-59539832D01*
X134644128Y-59569398D01*
X134636491Y-59621772D01*
X134632033Y-59704905D01*
X134629947Y-59826750D01*
X134629431Y-59995261D01*
X132691653Y-59995261D01*
X132692442Y-59899170D01*
X132694791Y-59618724D01*
X132698078Y-59261053D01*
X132701528Y-58950543D01*
X132705420Y-58682804D01*
X132710032Y-58453442D01*
X132715645Y-58258068D01*
X132722535Y-58092289D01*
X132730982Y-57951715D01*
X132741266Y-57831953D01*
X132753663Y-57728614D01*
X132768454Y-57637305D01*
X132785916Y-57553635D01*
X132806329Y-57473213D01*
X132829972Y-57391647D01*
X132857122Y-57304547D01*
X132964082Y-57031490D01*
X133110559Y-56779128D01*
X133292977Y-56563068D01*
X133513005Y-56382178D01*
X133772313Y-56235328D01*
X134072572Y-56121389D01*
X134415451Y-56039228D01*
X134802621Y-55987717D01*
X134937942Y-55977474D01*
X135165844Y-55969984D01*
X135391731Y-55976729D01*
X135626178Y-55998844D01*
X135879761Y-56037468D01*
X136163055Y-56093737D01*
X136486635Y-56168789D01*
X136561430Y-56186948D01*
X136749260Y-56231634D01*
X136927285Y-56272779D01*
X137084710Y-56307953D01*
X137210739Y-56334725D01*
X137294574Y-56350665D01*
X137487996Y-56382434D01*
X137216069Y-57041501D01*
X137148051Y-57206055D01*
X137081136Y-57367296D01*
X137023723Y-57504961D01*
X136978631Y-57612316D01*
X136948678Y-57682624D01*
X136936682Y-57709149D01*
X136934796Y-57709529D01*
X136900035Y-57697686D01*
X136831682Y-57667337D01*
X136742069Y-57623884D01*
X136555811Y-57539261D01*
X136299508Y-57446735D01*
X136037183Y-57375878D01*
X135779093Y-57328469D01*
X135535499Y-57306289D01*
X135316658Y-57311116D01*
X135132829Y-57344730D01*
X135004529Y-57398066D01*
X134858820Y-57507368D01*
X134746652Y-57655649D01*
X134671236Y-57838349D01*
X134635784Y-58050904D01*
X134623299Y-58246805D01*
X135275021Y-58248589D01*
X135494806Y-58250432D01*
X135737904Y-58256977D01*
X135945576Y-58269330D01*
X136128564Y-58288691D01*
X136297611Y-58316261D01*
X136463459Y-58353242D01*
X136636850Y-58400833D01*
X136896286Y-58491420D01*
X137201436Y-58640598D01*
X137469245Y-58823327D01*
X137697070Y-59037038D01*
X137882270Y-59279160D01*
X138022203Y-59547123D01*
X138114229Y-59838358D01*
X138128641Y-59916795D01*
X138147117Y-60110940D01*
X138149443Y-60295526D01*
X138149846Y-60327570D01*
X138137580Y-60547784D01*
G37*
X138137580Y-60547784D02*
X138111070Y-60752682D01*
X138071068Y-60923364D01*
X138007240Y-61098970D01*
X137859287Y-61388367D01*
X137670172Y-61642982D01*
X137441854Y-61861080D01*
X137176290Y-62040925D01*
X136875439Y-62180782D01*
X136541259Y-62278917D01*
X136404989Y-62301051D01*
X136210261Y-62316433D01*
X135998189Y-62319893D01*
X135786496Y-62311708D01*
X135592902Y-62292157D01*
X135435130Y-62261520D01*
X135355850Y-62237399D01*
X135175793Y-62166812D01*
X134992760Y-62077195D01*
X134825636Y-61978266D01*
X134693304Y-61879744D01*
X134691678Y-61878322D01*
X134619162Y-61816837D01*
X134563370Y-61773056D01*
X134536261Y-61756375D01*
X134533297Y-61760357D01*
X134526591Y-61803377D01*
X134521930Y-61883613D01*
X134520184Y-61988525D01*
X134520184Y-62220676D01*
X133495990Y-62220676D01*
X133468726Y-62220671D01*
X133240061Y-62220271D01*
X133030193Y-62219276D01*
X132845093Y-62217759D01*
X132690732Y-62215795D01*
X132573082Y-62213457D01*
X132498113Y-62210821D01*
X132471797Y-62207960D01*
X132472410Y-62205460D01*
X132489627Y-62168554D01*
X132525718Y-62099217D01*
X132574216Y-62009949D01*
X132676635Y-61824654D01*
X132691653Y-59995261D01*
X134629431Y-59995261D01*
X134630193Y-60139798D01*
X134633884Y-60291666D01*
X134641115Y-60401439D01*
X134652412Y-60476263D01*
X134668302Y-60523287D01*
X134688742Y-60556866D01*
X134765718Y-60648401D01*
X134868856Y-60743695D01*
X134981898Y-60828602D01*
X135088587Y-60888975D01*
X135147781Y-60911127D01*
X135284079Y-60940620D01*
X135462095Y-60955699D01*
X135649780Y-60953415D01*
X135828008Y-60922400D01*
X135976773Y-60858327D01*
X136105482Y-60758309D01*
X136141689Y-60721314D01*
X136235958Y-60595148D01*
X136286963Y-60459159D01*
X136302281Y-60295526D01*
X136298131Y-60209078D01*
X136257092Y-60031116D01*
X136170879Y-59878368D01*
X136037920Y-59749116D01*
X135856647Y-59641641D01*
X135625491Y-59554224D01*
X135532302Y-59531283D01*
X135419486Y-59515575D01*
X135277507Y-59506852D01*
X135093732Y-59503919D01*
X135063879Y-59503921D01*
X134926393Y-59505599D01*
X134808293Y-59509656D01*
X134721323Y-59515559D01*
X134677227Y-59522776D01*
X134672153Y-59525119D01*
X134655747Y-59539832D01*
X134644128Y-59569398D01*
X134636491Y-59621772D01*
X134632033Y-59704905D01*
X134629947Y-59826750D01*
X134629431Y-59995261D01*
X132691653Y-59995261D01*
X132692442Y-59899170D01*
X132694791Y-59618724D01*
X132698078Y-59261053D01*
X132701528Y-58950543D01*
X132705420Y-58682804D01*
X132710032Y-58453442D01*
X132715645Y-58258068D01*
X132722535Y-58092289D01*
X132730982Y-57951715D01*
X132741266Y-57831953D01*
X132753663Y-57728614D01*
X132768454Y-57637305D01*
X132785916Y-57553635D01*
X132806329Y-57473213D01*
X132829972Y-57391647D01*
X132857122Y-57304547D01*
X132964082Y-57031490D01*
X133110559Y-56779128D01*
X133292977Y-56563068D01*
X133513005Y-56382178D01*
X133772313Y-56235328D01*
X134072572Y-56121389D01*
X134415451Y-56039228D01*
X134802621Y-55987717D01*
X134937942Y-55977474D01*
X135165844Y-55969984D01*
X135391731Y-55976729D01*
X135626178Y-55998844D01*
X135879761Y-56037468D01*
X136163055Y-56093737D01*
X136486635Y-56168789D01*
X136561430Y-56186948D01*
X136749260Y-56231634D01*
X136927285Y-56272779D01*
X137084710Y-56307953D01*
X137210739Y-56334725D01*
X137294574Y-56350665D01*
X137487996Y-56382434D01*
X137216069Y-57041501D01*
X137148051Y-57206055D01*
X137081136Y-57367296D01*
X137023723Y-57504961D01*
X136978631Y-57612316D01*
X136948678Y-57682624D01*
X136936682Y-57709149D01*
X136934796Y-57709529D01*
X136900035Y-57697686D01*
X136831682Y-57667337D01*
X136742069Y-57623884D01*
X136555811Y-57539261D01*
X136299508Y-57446735D01*
X136037183Y-57375878D01*
X135779093Y-57328469D01*
X135535499Y-57306289D01*
X135316658Y-57311116D01*
X135132829Y-57344730D01*
X135004529Y-57398066D01*
X134858820Y-57507368D01*
X134746652Y-57655649D01*
X134671236Y-57838349D01*
X134635784Y-58050904D01*
X134623299Y-58246805D01*
X135275021Y-58248589D01*
X135494806Y-58250432D01*
X135737904Y-58256977D01*
X135945576Y-58269330D01*
X136128564Y-58288691D01*
X136297611Y-58316261D01*
X136463459Y-58353242D01*
X136636850Y-58400833D01*
X136896286Y-58491420D01*
X137201436Y-58640598D01*
X137469245Y-58823327D01*
X137697070Y-59037038D01*
X137882270Y-59279160D01*
X138022203Y-59547123D01*
X138114229Y-59838358D01*
X138128641Y-59916795D01*
X138147117Y-60110940D01*
X138149443Y-60295526D01*
X138149846Y-60327570D01*
X138137580Y-60547784D01*
G36*
X131970675Y-59720897D02*
G01*
X131954104Y-59943796D01*
X131925475Y-60148973D01*
X131883504Y-60348551D01*
X131826909Y-60554654D01*
X131741087Y-60801010D01*
X131583463Y-61133578D01*
X131390115Y-61431457D01*
X131164001Y-61691832D01*
X130908079Y-61911886D01*
X130625306Y-62088806D01*
X130318640Y-62219775D01*
X129991040Y-62301979D01*
X129987098Y-62302638D01*
X129747682Y-62325675D01*
X129484627Y-62322600D01*
X129216686Y-62295310D01*
X128962619Y-62245701D01*
X128741180Y-62175667D01*
X128646662Y-62133049D01*
X128523562Y-62068273D01*
X128397068Y-61994186D01*
X128280380Y-61918943D01*
X128186696Y-61850697D01*
X128129216Y-61797604D01*
X128116021Y-61783028D01*
X128100290Y-61777933D01*
X128089776Y-61803228D01*
X128082028Y-61866979D01*
X128074592Y-61977248D01*
X128060937Y-62207020D01*
X127014917Y-62214174D01*
X125968897Y-62221327D01*
X126041274Y-62097826D01*
X126045588Y-62090524D01*
X126066635Y-62056247D01*
X126085728Y-62025710D01*
X126102970Y-61996262D01*
X126118465Y-61965249D01*
X126132314Y-61930018D01*
X126144621Y-61887917D01*
X126155488Y-61836293D01*
X126165018Y-61772492D01*
X126173313Y-61693862D01*
X126180477Y-61597750D01*
X126186613Y-61481504D01*
X126191822Y-61342469D01*
X126196208Y-61177993D01*
X126199873Y-60985424D01*
X126202921Y-60762108D01*
X126205379Y-60512911D01*
X128197496Y-60512911D01*
X128334055Y-60602482D01*
X128386570Y-60634749D01*
X128506818Y-60699208D01*
X128620829Y-60750539D01*
X128670759Y-60767919D01*
X128829632Y-60802616D01*
X129030506Y-60820334D01*
X129132651Y-60824021D01*
X129227466Y-60823183D01*
X129298046Y-60813713D01*
X129361353Y-60793015D01*
X129434347Y-60758491D01*
X129574627Y-60666012D01*
X129696155Y-60535192D01*
X129793435Y-60366608D01*
X129867390Y-60157616D01*
X129918947Y-59905573D01*
X129949031Y-59607838D01*
X129958568Y-59261768D01*
X129958104Y-59183090D01*
X129944393Y-58818547D01*
X129911100Y-58501345D01*
X129857416Y-58228137D01*
X129782529Y-57995577D01*
X129685631Y-57800317D01*
X129565912Y-57639012D01*
X129516244Y-57589782D01*
X129362316Y-57487219D01*
X129181620Y-57424807D01*
X128981984Y-57402902D01*
X128771235Y-57421857D01*
X128557201Y-57482029D01*
X128347711Y-57583771D01*
X128197496Y-57673812D01*
X128197496Y-60512911D01*
X126205379Y-60512911D01*
X126205453Y-60505392D01*
X126207573Y-60212625D01*
X126209384Y-59881151D01*
X126210987Y-59508320D01*
X126212487Y-59091477D01*
X126213985Y-58627970D01*
X126215585Y-58115147D01*
X126217388Y-57550353D01*
X126231044Y-53385299D01*
X127316689Y-53378158D01*
X127395639Y-53377677D01*
X127627926Y-53376724D01*
X127840387Y-53376530D01*
X128027224Y-53377057D01*
X128182636Y-53378264D01*
X128300824Y-53380112D01*
X128375990Y-53382561D01*
X128402334Y-53385572D01*
X128398964Y-53395114D01*
X128373822Y-53440351D01*
X128332180Y-53506137D01*
X128328026Y-53512427D01*
X128295739Y-53563221D01*
X128268668Y-53612642D01*
X128246354Y-53665780D01*
X128228338Y-53727726D01*
X128214160Y-53803571D01*
X128203362Y-53898405D01*
X128195484Y-54017318D01*
X128190068Y-54165402D01*
X128186655Y-54347747D01*
X128184785Y-54569443D01*
X128183999Y-54835582D01*
X128183840Y-55151253D01*
X128184126Y-55397713D01*
X128185002Y-55639680D01*
X128186405Y-55859079D01*
X128188272Y-56050568D01*
X128190538Y-56208804D01*
X128193140Y-56328445D01*
X128196014Y-56404147D01*
X128199097Y-56430568D01*
X128209040Y-56426467D01*
X128252749Y-56397590D01*
X128315172Y-56350164D01*
X128405669Y-56286386D01*
X128575698Y-56192413D01*
X128770036Y-56108588D01*
X128970541Y-56043401D01*
X129139001Y-56010161D01*
X129348809Y-55988972D01*
X129575879Y-55981631D01*
X129802688Y-55988147D01*
X130011715Y-56008528D01*
X130185434Y-56042784D01*
X130362319Y-56100488D01*
X130657406Y-56240374D01*
X130930634Y-56426343D01*
X131176963Y-56654113D01*
X131391353Y-56919402D01*
X131568762Y-57217928D01*
X131612806Y-57309469D01*
X131736232Y-57618243D01*
X131832729Y-57953363D01*
X131903515Y-58320734D01*
X131949811Y-58726264D01*
X131972835Y-59175862D01*
X131973904Y-59261768D01*
X131976470Y-59468151D01*
X131970675Y-59720897D01*
G37*
X131970675Y-59720897D02*
X131954104Y-59943796D01*
X131925475Y-60148973D01*
X131883504Y-60348551D01*
X131826909Y-60554654D01*
X131741087Y-60801010D01*
X131583463Y-61133578D01*
X131390115Y-61431457D01*
X131164001Y-61691832D01*
X130908079Y-61911886D01*
X130625306Y-62088806D01*
X130318640Y-62219775D01*
X129991040Y-62301979D01*
X129987098Y-62302638D01*
X129747682Y-62325675D01*
X129484627Y-62322600D01*
X129216686Y-62295310D01*
X128962619Y-62245701D01*
X128741180Y-62175667D01*
X128646662Y-62133049D01*
X128523562Y-62068273D01*
X128397068Y-61994186D01*
X128280380Y-61918943D01*
X128186696Y-61850697D01*
X128129216Y-61797604D01*
X128116021Y-61783028D01*
X128100290Y-61777933D01*
X128089776Y-61803228D01*
X128082028Y-61866979D01*
X128074592Y-61977248D01*
X128060937Y-62207020D01*
X127014917Y-62214174D01*
X125968897Y-62221327D01*
X126041274Y-62097826D01*
X126045588Y-62090524D01*
X126066635Y-62056247D01*
X126085728Y-62025710D01*
X126102970Y-61996262D01*
X126118465Y-61965249D01*
X126132314Y-61930018D01*
X126144621Y-61887917D01*
X126155488Y-61836293D01*
X126165018Y-61772492D01*
X126173313Y-61693862D01*
X126180477Y-61597750D01*
X126186613Y-61481504D01*
X126191822Y-61342469D01*
X126196208Y-61177993D01*
X126199873Y-60985424D01*
X126202921Y-60762108D01*
X126205379Y-60512911D01*
X128197496Y-60512911D01*
X128334055Y-60602482D01*
X128386570Y-60634749D01*
X128506818Y-60699208D01*
X128620829Y-60750539D01*
X128670759Y-60767919D01*
X128829632Y-60802616D01*
X129030506Y-60820334D01*
X129132651Y-60824021D01*
X129227466Y-60823183D01*
X129298046Y-60813713D01*
X129361353Y-60793015D01*
X129434347Y-60758491D01*
X129574627Y-60666012D01*
X129696155Y-60535192D01*
X129793435Y-60366608D01*
X129867390Y-60157616D01*
X129918947Y-59905573D01*
X129949031Y-59607838D01*
X129958568Y-59261768D01*
X129958104Y-59183090D01*
X129944393Y-58818547D01*
X129911100Y-58501345D01*
X129857416Y-58228137D01*
X129782529Y-57995577D01*
X129685631Y-57800317D01*
X129565912Y-57639012D01*
X129516244Y-57589782D01*
X129362316Y-57487219D01*
X129181620Y-57424807D01*
X128981984Y-57402902D01*
X128771235Y-57421857D01*
X128557201Y-57482029D01*
X128347711Y-57583771D01*
X128197496Y-57673812D01*
X128197496Y-60512911D01*
X126205379Y-60512911D01*
X126205453Y-60505392D01*
X126207573Y-60212625D01*
X126209384Y-59881151D01*
X126210987Y-59508320D01*
X126212487Y-59091477D01*
X126213985Y-58627970D01*
X126215585Y-58115147D01*
X126217388Y-57550353D01*
X126231044Y-53385299D01*
X127316689Y-53378158D01*
X127395639Y-53377677D01*
X127627926Y-53376724D01*
X127840387Y-53376530D01*
X128027224Y-53377057D01*
X128182636Y-53378264D01*
X128300824Y-53380112D01*
X128375990Y-53382561D01*
X128402334Y-53385572D01*
X128398964Y-53395114D01*
X128373822Y-53440351D01*
X128332180Y-53506137D01*
X128328026Y-53512427D01*
X128295739Y-53563221D01*
X128268668Y-53612642D01*
X128246354Y-53665780D01*
X128228338Y-53727726D01*
X128214160Y-53803571D01*
X128203362Y-53898405D01*
X128195484Y-54017318D01*
X128190068Y-54165402D01*
X128186655Y-54347747D01*
X128184785Y-54569443D01*
X128183999Y-54835582D01*
X128183840Y-55151253D01*
X128184126Y-55397713D01*
X128185002Y-55639680D01*
X128186405Y-55859079D01*
X128188272Y-56050568D01*
X128190538Y-56208804D01*
X128193140Y-56328445D01*
X128196014Y-56404147D01*
X128199097Y-56430568D01*
X128209040Y-56426467D01*
X128252749Y-56397590D01*
X128315172Y-56350164D01*
X128405669Y-56286386D01*
X128575698Y-56192413D01*
X128770036Y-56108588D01*
X128970541Y-56043401D01*
X129139001Y-56010161D01*
X129348809Y-55988972D01*
X129575879Y-55981631D01*
X129802688Y-55988147D01*
X130011715Y-56008528D01*
X130185434Y-56042784D01*
X130362319Y-56100488D01*
X130657406Y-56240374D01*
X130930634Y-56426343D01*
X131176963Y-56654113D01*
X131391353Y-56919402D01*
X131568762Y-57217928D01*
X131612806Y-57309469D01*
X131736232Y-57618243D01*
X131832729Y-57953363D01*
X131903515Y-58320734D01*
X131949811Y-58726264D01*
X131972835Y-59175862D01*
X131973904Y-59261768D01*
X131976470Y-59468151D01*
X131970675Y-59720897D01*
G36*
X156469628Y-62486454D02*
G01*
X156466138Y-62668895D01*
X156461898Y-62824241D01*
X156456838Y-62954750D01*
X156450887Y-63062680D01*
X156443973Y-63150291D01*
X156436026Y-63219839D01*
X156426973Y-63273585D01*
X156416745Y-63313785D01*
X156405270Y-63342700D01*
X156392477Y-63362586D01*
X156378295Y-63375703D01*
X156362653Y-63384309D01*
X156345480Y-63390663D01*
X156326705Y-63397022D01*
X156306256Y-63405646D01*
X156294750Y-63409968D01*
X156273645Y-63414687D01*
X156242284Y-63419011D01*
X156198451Y-63422957D01*
X156139927Y-63426542D01*
X156064493Y-63429784D01*
X155969930Y-63432700D01*
X155854020Y-63435307D01*
X155714545Y-63437622D01*
X155549287Y-63439663D01*
X155356026Y-63441447D01*
X155132545Y-63442992D01*
X154876625Y-63444315D01*
X154586047Y-63445433D01*
X154258593Y-63446364D01*
X153892044Y-63447124D01*
X153484183Y-63447732D01*
X153032790Y-63448204D01*
X152535648Y-63448559D01*
X151990537Y-63448812D01*
X151395240Y-63448982D01*
X150747537Y-63449086D01*
X150542282Y-63449106D01*
X149908636Y-63449119D01*
X149326749Y-63449040D01*
X148794428Y-63448851D01*
X148309481Y-63448538D01*
X147869715Y-63448085D01*
X147472940Y-63447475D01*
X147116961Y-63446693D01*
X146799587Y-63445723D01*
X146518627Y-63444549D01*
X146271886Y-63443155D01*
X146057174Y-63441525D01*
X145872299Y-63439643D01*
X145715067Y-63437493D01*
X145583287Y-63435060D01*
X145474766Y-63432327D01*
X145387313Y-63429279D01*
X145318735Y-63425899D01*
X145266839Y-63422172D01*
X145229434Y-63418082D01*
X145204327Y-63413612D01*
X145189327Y-63408748D01*
X145184554Y-63406583D01*
X145165016Y-63399472D01*
X145147099Y-63394279D01*
X145130730Y-63388742D01*
X145115836Y-63380599D01*
X145102346Y-63367590D01*
X145090186Y-63347452D01*
X145079283Y-63317924D01*
X145069566Y-63276744D01*
X145060961Y-63221650D01*
X145053395Y-63150381D01*
X145046797Y-63060675D01*
X145041093Y-62950270D01*
X145036211Y-62816906D01*
X145032078Y-62658319D01*
X145028622Y-62472249D01*
X145025769Y-62256434D01*
X145024833Y-62156497D01*
X145745046Y-62156497D01*
X145745836Y-62166067D01*
X145760323Y-62173823D01*
X145793055Y-62179955D01*
X145848578Y-62184652D01*
X145931441Y-62188106D01*
X146046191Y-62190506D01*
X146197375Y-62192041D01*
X146389540Y-62192903D01*
X146627234Y-62193280D01*
X146915004Y-62193364D01*
X148120441Y-62193364D01*
X147916635Y-61824654D01*
X147916635Y-56471536D01*
X148120441Y-56102826D01*
X145965764Y-56102826D01*
X145957974Y-58936428D01*
X145950184Y-61770031D01*
X145873801Y-61933161D01*
X145833530Y-62014016D01*
X145787929Y-62095013D01*
X145753492Y-62144827D01*
X145753406Y-62144923D01*
X145745046Y-62156497D01*
X145024833Y-62156497D01*
X145023448Y-62008612D01*
X145021586Y-61726521D01*
X145020109Y-61407901D01*
X145018946Y-61050488D01*
X145018024Y-60652023D01*
X145017269Y-60210242D01*
X145016610Y-59722884D01*
X145015974Y-59187688D01*
X145015288Y-58602393D01*
X145014480Y-57964735D01*
X145014375Y-57887539D01*
X145013474Y-57253923D01*
X145012612Y-56672404D01*
X145011853Y-56140720D01*
X145011261Y-55656608D01*
X145010900Y-55217806D01*
X145010833Y-54822052D01*
X145011125Y-54467081D01*
X145011840Y-54150633D01*
X145013040Y-53870443D01*
X145014790Y-53624250D01*
X145017153Y-53409790D01*
X145020195Y-53224802D01*
X145023977Y-53067022D01*
X145028564Y-52934188D01*
X145034020Y-52824036D01*
X145040409Y-52734305D01*
X145047794Y-52662732D01*
X145056239Y-52607053D01*
X145065808Y-52565007D01*
X145076565Y-52534331D01*
X145088574Y-52512761D01*
X145101898Y-52498036D01*
X145116601Y-52487893D01*
X145132748Y-52480068D01*
X145150401Y-52472300D01*
X145169624Y-52462325D01*
X145175249Y-52459146D01*
X145260363Y-52428379D01*
X145353538Y-52415734D01*
X145458571Y-52415738D01*
X145460321Y-52654712D01*
X145460765Y-52682212D01*
X145494149Y-52961749D01*
X145579177Y-53224767D01*
X145714666Y-53468482D01*
X145899436Y-53690107D01*
X145998589Y-53780499D01*
X146219362Y-53930323D01*
X146460246Y-54034803D01*
X146714226Y-54093882D01*
X146974286Y-54107505D01*
X147233410Y-54075616D01*
X147484583Y-53998158D01*
X147691059Y-53890568D01*
X148604891Y-53890568D01*
X148725064Y-53977027D01*
X148826698Y-54058286D01*
X148969909Y-54190826D01*
X149132345Y-54356936D01*
X149307856Y-54550286D01*
X149490291Y-54764547D01*
X149537272Y-54821844D01*
X149617259Y-54920116D01*
X149721814Y-55049045D01*
X149847472Y-55204327D01*
X149990770Y-55381660D01*
X150148243Y-55576739D01*
X150316429Y-55785263D01*
X150491862Y-56002927D01*
X150572328Y-56102826D01*
X150671080Y-56225429D01*
X150850619Y-56448465D01*
X151027014Y-56667733D01*
X151196802Y-56878928D01*
X151356519Y-57077749D01*
X151502701Y-57259890D01*
X151631885Y-57421051D01*
X151740606Y-57556926D01*
X151825401Y-57663214D01*
X151882806Y-57735610D01*
X151909357Y-57769812D01*
X151911548Y-57782665D01*
X151904259Y-57807110D01*
X151885370Y-57845569D01*
X151852996Y-57900768D01*
X151805250Y-57975437D01*
X151740248Y-58072302D01*
X151656105Y-58194092D01*
X151550934Y-58343536D01*
X151422850Y-58523360D01*
X151269968Y-58736293D01*
X151090401Y-58985063D01*
X150882265Y-59272398D01*
X150643675Y-59601026D01*
X150453568Y-59862610D01*
X150221633Y-60181503D01*
X150017615Y-60461552D01*
X149839144Y-60705866D01*
X149683845Y-60917552D01*
X149549347Y-61099720D01*
X149433276Y-61255476D01*
X149333260Y-61387929D01*
X149246927Y-61500187D01*
X149171904Y-61595357D01*
X149105818Y-61676549D01*
X149046297Y-61746870D01*
X148990969Y-61809428D01*
X148937459Y-61867331D01*
X148883397Y-61923688D01*
X148826409Y-61981606D01*
X148616398Y-62193364D01*
X150028129Y-62193421D01*
X151439861Y-62193478D01*
X151430990Y-62022380D01*
X151430560Y-62013783D01*
X151428876Y-61945383D01*
X151432068Y-61879848D01*
X151442271Y-61813586D01*
X151461621Y-61743009D01*
X151492252Y-61664526D01*
X151536300Y-61574547D01*
X151595900Y-61469484D01*
X151673188Y-61345746D01*
X151770298Y-61199743D01*
X151889366Y-61027886D01*
X152032528Y-60826584D01*
X152201918Y-60592249D01*
X152399672Y-60321289D01*
X152627926Y-60010116D01*
X153433625Y-58913229D01*
X153440723Y-60185038D01*
X153441352Y-60303672D01*
X153442462Y-60623218D01*
X153441957Y-60895013D01*
X153439245Y-61124201D01*
X153433730Y-61315926D01*
X153424819Y-61475331D01*
X153411918Y-61607559D01*
X153394433Y-61717754D01*
X153371770Y-61811059D01*
X153343334Y-61892618D01*
X153308533Y-61967575D01*
X153266771Y-62041074D01*
X153217454Y-62118256D01*
X153167880Y-62193364D01*
X155744254Y-62193364D01*
X155677704Y-62104600D01*
X155667282Y-62090558D01*
X155583957Y-61961856D01*
X155526517Y-61831753D01*
X155488798Y-61682674D01*
X155464638Y-61497047D01*
X155463975Y-61488955D01*
X155460469Y-61412389D01*
X155457303Y-61284641D01*
X155454492Y-61108633D01*
X155452049Y-60887283D01*
X155449987Y-60623510D01*
X155448322Y-60320233D01*
X155447065Y-59980371D01*
X155446231Y-59606844D01*
X155445834Y-59202570D01*
X155445887Y-58770468D01*
X155446405Y-58313459D01*
X155447401Y-57834460D01*
X155448455Y-57404797D01*
X155449583Y-56937100D01*
X155450694Y-56518649D01*
X155451926Y-56146515D01*
X155453420Y-55817764D01*
X155455315Y-55529465D01*
X155457750Y-55278687D01*
X155460864Y-55062499D01*
X155464797Y-54877967D01*
X155469689Y-54722161D01*
X155475679Y-54592149D01*
X155482906Y-54485000D01*
X155491509Y-54397781D01*
X155501629Y-54327561D01*
X155513404Y-54271409D01*
X155526974Y-54226392D01*
X155542479Y-54189580D01*
X155560057Y-54158039D01*
X155579848Y-54128840D01*
X155601992Y-54099050D01*
X155626628Y-54065737D01*
X155650457Y-54032354D01*
X155696513Y-53966349D01*
X155724101Y-53924708D01*
X155724767Y-53922964D01*
X155715134Y-53915089D01*
X155681141Y-53908519D01*
X155619004Y-53903151D01*
X155524941Y-53898886D01*
X155395169Y-53895623D01*
X155225907Y-53893260D01*
X155013370Y-53891697D01*
X154753778Y-53890834D01*
X154443346Y-53890568D01*
X153141995Y-53890568D01*
X153210580Y-53972078D01*
X153250330Y-54028060D01*
X153316495Y-54160056D01*
X153374477Y-54324223D01*
X153418731Y-54506326D01*
X153421552Y-54523614D01*
X153429944Y-54614750D01*
X153436300Y-54755599D01*
X153440635Y-54947136D01*
X153442967Y-55190336D01*
X153443313Y-55486175D01*
X153441689Y-55835628D01*
X153433625Y-57002301D01*
X152600614Y-55948889D01*
X152576755Y-55918715D01*
X152365511Y-55651291D01*
X152185166Y-55422266D01*
X152032848Y-55227748D01*
X151905689Y-55063841D01*
X151800816Y-54926653D01*
X151715362Y-54812287D01*
X151646454Y-54716852D01*
X151591224Y-54636451D01*
X151546802Y-54567192D01*
X151510316Y-54505180D01*
X151478897Y-54446522D01*
X151449675Y-54387322D01*
X151404721Y-54282532D01*
X151375681Y-54171989D01*
X151367957Y-54052752D01*
X151368733Y-53890568D01*
X148604891Y-53890568D01*
X147691059Y-53890568D01*
X147720788Y-53875077D01*
X147935011Y-53706316D01*
X147994563Y-53646820D01*
X148170579Y-53426530D01*
X148295477Y-53187465D01*
X148369925Y-52928082D01*
X148394592Y-52646840D01*
X148394592Y-52415729D01*
X152315196Y-52415729D01*
X152560137Y-52415719D01*
X153086339Y-52415647D01*
X153561687Y-52415596D01*
X153988811Y-52415667D01*
X154370338Y-52415966D01*
X154708897Y-52416597D01*
X155007117Y-52417662D01*
X155267626Y-52419267D01*
X155493054Y-52421515D01*
X155686028Y-52424510D01*
X155849177Y-52428356D01*
X155985131Y-52433156D01*
X156096517Y-52439016D01*
X156185964Y-52446038D01*
X156256101Y-52454327D01*
X156309556Y-52463986D01*
X156348958Y-52475120D01*
X156376936Y-52487832D01*
X156396119Y-52502227D01*
X156409134Y-52518407D01*
X156418611Y-52536478D01*
X156427178Y-52556543D01*
X156437463Y-52578706D01*
X156437648Y-52579068D01*
X156442642Y-52593576D01*
X156447223Y-52617870D01*
X156451408Y-52654190D01*
X156455214Y-52704780D01*
X156458660Y-52771881D01*
X156461762Y-52857735D01*
X156464538Y-52964584D01*
X156467006Y-53094670D01*
X156469181Y-53250234D01*
X156471083Y-53433519D01*
X156472729Y-53646767D01*
X156474135Y-53892219D01*
X156475319Y-54172118D01*
X156476299Y-54488705D01*
X156477091Y-54844222D01*
X156477715Y-55240911D01*
X156478185Y-55681015D01*
X156478521Y-56166774D01*
X156478740Y-56700431D01*
X156478858Y-57284228D01*
X156478893Y-57920407D01*
X156478895Y-58045385D01*
X156478955Y-58674934D01*
X156479049Y-59252544D01*
X156479104Y-59780474D01*
X156479049Y-60260983D01*
X156478815Y-60696329D01*
X156478328Y-61088770D01*
X156477518Y-61440565D01*
X156476314Y-61753973D01*
X156474645Y-62031251D01*
X156473176Y-62193364D01*
X156472440Y-62274659D01*
X156469628Y-62486454D01*
G37*
X156469628Y-62486454D02*
X156466138Y-62668895D01*
X156461898Y-62824241D01*
X156456838Y-62954750D01*
X156450887Y-63062680D01*
X156443973Y-63150291D01*
X156436026Y-63219839D01*
X156426973Y-63273585D01*
X156416745Y-63313785D01*
X156405270Y-63342700D01*
X156392477Y-63362586D01*
X156378295Y-63375703D01*
X156362653Y-63384309D01*
X156345480Y-63390663D01*
X156326705Y-63397022D01*
X156306256Y-63405646D01*
X156294750Y-63409968D01*
X156273645Y-63414687D01*
X156242284Y-63419011D01*
X156198451Y-63422957D01*
X156139927Y-63426542D01*
X156064493Y-63429784D01*
X155969930Y-63432700D01*
X155854020Y-63435307D01*
X155714545Y-63437622D01*
X155549287Y-63439663D01*
X155356026Y-63441447D01*
X155132545Y-63442992D01*
X154876625Y-63444315D01*
X154586047Y-63445433D01*
X154258593Y-63446364D01*
X153892044Y-63447124D01*
X153484183Y-63447732D01*
X153032790Y-63448204D01*
X152535648Y-63448559D01*
X151990537Y-63448812D01*
X151395240Y-63448982D01*
X150747537Y-63449086D01*
X150542282Y-63449106D01*
X149908636Y-63449119D01*
X149326749Y-63449040D01*
X148794428Y-63448851D01*
X148309481Y-63448538D01*
X147869715Y-63448085D01*
X147472940Y-63447475D01*
X147116961Y-63446693D01*
X146799587Y-63445723D01*
X146518627Y-63444549D01*
X146271886Y-63443155D01*
X146057174Y-63441525D01*
X145872299Y-63439643D01*
X145715067Y-63437493D01*
X145583287Y-63435060D01*
X145474766Y-63432327D01*
X145387313Y-63429279D01*
X145318735Y-63425899D01*
X145266839Y-63422172D01*
X145229434Y-63418082D01*
X145204327Y-63413612D01*
X145189327Y-63408748D01*
X145184554Y-63406583D01*
X145165016Y-63399472D01*
X145147099Y-63394279D01*
X145130730Y-63388742D01*
X145115836Y-63380599D01*
X145102346Y-63367590D01*
X145090186Y-63347452D01*
X145079283Y-63317924D01*
X145069566Y-63276744D01*
X145060961Y-63221650D01*
X145053395Y-63150381D01*
X145046797Y-63060675D01*
X145041093Y-62950270D01*
X145036211Y-62816906D01*
X145032078Y-62658319D01*
X145028622Y-62472249D01*
X145025769Y-62256434D01*
X145024833Y-62156497D01*
X145745046Y-62156497D01*
X145745836Y-62166067D01*
X145760323Y-62173823D01*
X145793055Y-62179955D01*
X145848578Y-62184652D01*
X145931441Y-62188106D01*
X146046191Y-62190506D01*
X146197375Y-62192041D01*
X146389540Y-62192903D01*
X146627234Y-62193280D01*
X146915004Y-62193364D01*
X148120441Y-62193364D01*
X147916635Y-61824654D01*
X147916635Y-56471536D01*
X148120441Y-56102826D01*
X145965764Y-56102826D01*
X145957974Y-58936428D01*
X145950184Y-61770031D01*
X145873801Y-61933161D01*
X145833530Y-62014016D01*
X145787929Y-62095013D01*
X145753492Y-62144827D01*
X145753406Y-62144923D01*
X145745046Y-62156497D01*
X145024833Y-62156497D01*
X145023448Y-62008612D01*
X145021586Y-61726521D01*
X145020109Y-61407901D01*
X145018946Y-61050488D01*
X145018024Y-60652023D01*
X145017269Y-60210242D01*
X145016610Y-59722884D01*
X145015974Y-59187688D01*
X145015288Y-58602393D01*
X145014480Y-57964735D01*
X145014375Y-57887539D01*
X145013474Y-57253923D01*
X145012612Y-56672404D01*
X145011853Y-56140720D01*
X145011261Y-55656608D01*
X145010900Y-55217806D01*
X145010833Y-54822052D01*
X145011125Y-54467081D01*
X145011840Y-54150633D01*
X145013040Y-53870443D01*
X145014790Y-53624250D01*
X145017153Y-53409790D01*
X145020195Y-53224802D01*
X145023977Y-53067022D01*
X145028564Y-52934188D01*
X145034020Y-52824036D01*
X145040409Y-52734305D01*
X145047794Y-52662732D01*
X145056239Y-52607053D01*
X145065808Y-52565007D01*
X145076565Y-52534331D01*
X145088574Y-52512761D01*
X145101898Y-52498036D01*
X145116601Y-52487893D01*
X145132748Y-52480068D01*
X145150401Y-52472300D01*
X145169624Y-52462325D01*
X145175249Y-52459146D01*
X145260363Y-52428379D01*
X145353538Y-52415734D01*
X145458571Y-52415738D01*
X145460321Y-52654712D01*
X145460765Y-52682212D01*
X145494149Y-52961749D01*
X145579177Y-53224767D01*
X145714666Y-53468482D01*
X145899436Y-53690107D01*
X145998589Y-53780499D01*
X146219362Y-53930323D01*
X146460246Y-54034803D01*
X146714226Y-54093882D01*
X146974286Y-54107505D01*
X147233410Y-54075616D01*
X147484583Y-53998158D01*
X147691059Y-53890568D01*
X148604891Y-53890568D01*
X148725064Y-53977027D01*
X148826698Y-54058286D01*
X148969909Y-54190826D01*
X149132345Y-54356936D01*
X149307856Y-54550286D01*
X149490291Y-54764547D01*
X149537272Y-54821844D01*
X149617259Y-54920116D01*
X149721814Y-55049045D01*
X149847472Y-55204327D01*
X149990770Y-55381660D01*
X150148243Y-55576739D01*
X150316429Y-55785263D01*
X150491862Y-56002927D01*
X150572328Y-56102826D01*
X150671080Y-56225429D01*
X150850619Y-56448465D01*
X151027014Y-56667733D01*
X151196802Y-56878928D01*
X151356519Y-57077749D01*
X151502701Y-57259890D01*
X151631885Y-57421051D01*
X151740606Y-57556926D01*
X151825401Y-57663214D01*
X151882806Y-57735610D01*
X151909357Y-57769812D01*
X151911548Y-57782665D01*
X151904259Y-57807110D01*
X151885370Y-57845569D01*
X151852996Y-57900768D01*
X151805250Y-57975437D01*
X151740248Y-58072302D01*
X151656105Y-58194092D01*
X151550934Y-58343536D01*
X151422850Y-58523360D01*
X151269968Y-58736293D01*
X151090401Y-58985063D01*
X150882265Y-59272398D01*
X150643675Y-59601026D01*
X150453568Y-59862610D01*
X150221633Y-60181503D01*
X150017615Y-60461552D01*
X149839144Y-60705866D01*
X149683845Y-60917552D01*
X149549347Y-61099720D01*
X149433276Y-61255476D01*
X149333260Y-61387929D01*
X149246927Y-61500187D01*
X149171904Y-61595357D01*
X149105818Y-61676549D01*
X149046297Y-61746870D01*
X148990969Y-61809428D01*
X148937459Y-61867331D01*
X148883397Y-61923688D01*
X148826409Y-61981606D01*
X148616398Y-62193364D01*
X150028129Y-62193421D01*
X151439861Y-62193478D01*
X151430990Y-62022380D01*
X151430560Y-62013783D01*
X151428876Y-61945383D01*
X151432068Y-61879848D01*
X151442271Y-61813586D01*
X151461621Y-61743009D01*
X151492252Y-61664526D01*
X151536300Y-61574547D01*
X151595900Y-61469484D01*
X151673188Y-61345746D01*
X151770298Y-61199743D01*
X151889366Y-61027886D01*
X152032528Y-60826584D01*
X152201918Y-60592249D01*
X152399672Y-60321289D01*
X152627926Y-60010116D01*
X153433625Y-58913229D01*
X153440723Y-60185038D01*
X153441352Y-60303672D01*
X153442462Y-60623218D01*
X153441957Y-60895013D01*
X153439245Y-61124201D01*
X153433730Y-61315926D01*
X153424819Y-61475331D01*
X153411918Y-61607559D01*
X153394433Y-61717754D01*
X153371770Y-61811059D01*
X153343334Y-61892618D01*
X153308533Y-61967575D01*
X153266771Y-62041074D01*
X153217454Y-62118256D01*
X153167880Y-62193364D01*
X155744254Y-62193364D01*
X155677704Y-62104600D01*
X155667282Y-62090558D01*
X155583957Y-61961856D01*
X155526517Y-61831753D01*
X155488798Y-61682674D01*
X155464638Y-61497047D01*
X155463975Y-61488955D01*
X155460469Y-61412389D01*
X155457303Y-61284641D01*
X155454492Y-61108633D01*
X155452049Y-60887283D01*
X155449987Y-60623510D01*
X155448322Y-60320233D01*
X155447065Y-59980371D01*
X155446231Y-59606844D01*
X155445834Y-59202570D01*
X155445887Y-58770468D01*
X155446405Y-58313459D01*
X155447401Y-57834460D01*
X155448455Y-57404797D01*
X155449583Y-56937100D01*
X155450694Y-56518649D01*
X155451926Y-56146515D01*
X155453420Y-55817764D01*
X155455315Y-55529465D01*
X155457750Y-55278687D01*
X155460864Y-55062499D01*
X155464797Y-54877967D01*
X155469689Y-54722161D01*
X155475679Y-54592149D01*
X155482906Y-54485000D01*
X155491509Y-54397781D01*
X155501629Y-54327561D01*
X155513404Y-54271409D01*
X155526974Y-54226392D01*
X155542479Y-54189580D01*
X155560057Y-54158039D01*
X155579848Y-54128840D01*
X155601992Y-54099050D01*
X155626628Y-54065737D01*
X155650457Y-54032354D01*
X155696513Y-53966349D01*
X155724101Y-53924708D01*
X155724767Y-53922964D01*
X155715134Y-53915089D01*
X155681141Y-53908519D01*
X155619004Y-53903151D01*
X155524941Y-53898886D01*
X155395169Y-53895623D01*
X155225907Y-53893260D01*
X155013370Y-53891697D01*
X154753778Y-53890834D01*
X154443346Y-53890568D01*
X153141995Y-53890568D01*
X153210580Y-53972078D01*
X153250330Y-54028060D01*
X153316495Y-54160056D01*
X153374477Y-54324223D01*
X153418731Y-54506326D01*
X153421552Y-54523614D01*
X153429944Y-54614750D01*
X153436300Y-54755599D01*
X153440635Y-54947136D01*
X153442967Y-55190336D01*
X153443313Y-55486175D01*
X153441689Y-55835628D01*
X153433625Y-57002301D01*
X152600614Y-55948889D01*
X152576755Y-55918715D01*
X152365511Y-55651291D01*
X152185166Y-55422266D01*
X152032848Y-55227748D01*
X151905689Y-55063841D01*
X151800816Y-54926653D01*
X151715362Y-54812287D01*
X151646454Y-54716852D01*
X151591224Y-54636451D01*
X151546802Y-54567192D01*
X151510316Y-54505180D01*
X151478897Y-54446522D01*
X151449675Y-54387322D01*
X151404721Y-54282532D01*
X151375681Y-54171989D01*
X151367957Y-54052752D01*
X151368733Y-53890568D01*
X148604891Y-53890568D01*
X147691059Y-53890568D01*
X147720788Y-53875077D01*
X147935011Y-53706316D01*
X147994563Y-53646820D01*
X148170579Y-53426530D01*
X148295477Y-53187465D01*
X148369925Y-52928082D01*
X148394592Y-52646840D01*
X148394592Y-52415729D01*
X152315196Y-52415729D01*
X152560137Y-52415719D01*
X153086339Y-52415647D01*
X153561687Y-52415596D01*
X153988811Y-52415667D01*
X154370338Y-52415966D01*
X154708897Y-52416597D01*
X155007117Y-52417662D01*
X155267626Y-52419267D01*
X155493054Y-52421515D01*
X155686028Y-52424510D01*
X155849177Y-52428356D01*
X155985131Y-52433156D01*
X156096517Y-52439016D01*
X156185964Y-52446038D01*
X156256101Y-52454327D01*
X156309556Y-52463986D01*
X156348958Y-52475120D01*
X156376936Y-52487832D01*
X156396119Y-52502227D01*
X156409134Y-52518407D01*
X156418611Y-52536478D01*
X156427178Y-52556543D01*
X156437463Y-52578706D01*
X156437648Y-52579068D01*
X156442642Y-52593576D01*
X156447223Y-52617870D01*
X156451408Y-52654190D01*
X156455214Y-52704780D01*
X156458660Y-52771881D01*
X156461762Y-52857735D01*
X156464538Y-52964584D01*
X156467006Y-53094670D01*
X156469181Y-53250234D01*
X156471083Y-53433519D01*
X156472729Y-53646767D01*
X156474135Y-53892219D01*
X156475319Y-54172118D01*
X156476299Y-54488705D01*
X156477091Y-54844222D01*
X156477715Y-55240911D01*
X156478185Y-55681015D01*
X156478521Y-56166774D01*
X156478740Y-56700431D01*
X156478858Y-57284228D01*
X156478893Y-57920407D01*
X156478895Y-58045385D01*
X156478955Y-58674934D01*
X156479049Y-59252544D01*
X156479104Y-59780474D01*
X156479049Y-60260983D01*
X156478815Y-60696329D01*
X156478328Y-61088770D01*
X156477518Y-61440565D01*
X156476314Y-61753973D01*
X156474645Y-62031251D01*
X156473176Y-62193364D01*
X156472440Y-62274659D01*
X156469628Y-62486454D01*
%TO.C,LO4*%
G36*
X89380560Y-111373175D02*
G01*
X89392093Y-111390511D01*
X89417500Y-111432162D01*
X89455507Y-111495911D01*
X89504837Y-111579545D01*
X89564213Y-111680849D01*
X89632359Y-111797609D01*
X89708000Y-111927608D01*
X89789859Y-112068633D01*
X89876660Y-112218468D01*
X89967126Y-112374900D01*
X90059982Y-112535713D01*
X90153951Y-112698693D01*
X90247757Y-112861624D01*
X90340124Y-113022292D01*
X90429776Y-113178482D01*
X90515436Y-113327980D01*
X90595828Y-113468571D01*
X90669677Y-113598040D01*
X90735705Y-113714172D01*
X90792637Y-113814752D01*
X90839197Y-113897567D01*
X90874108Y-113960400D01*
X90896094Y-114001037D01*
X90903879Y-114017264D01*
X90903887Y-114017388D01*
X90891333Y-114034416D01*
X90855258Y-114063279D01*
X90799417Y-114101247D01*
X90727561Y-114145587D01*
X90679373Y-114173952D01*
X90610032Y-114213396D01*
X90561734Y-114238254D01*
X90531242Y-114249924D01*
X90515320Y-114249806D01*
X90510732Y-114239297D01*
X90510382Y-114237583D01*
X90497268Y-114216682D01*
X90469000Y-114181139D01*
X90430786Y-114137583D01*
X90413155Y-114118875D01*
X90358482Y-114068512D01*
X90298022Y-114025465D01*
X90228182Y-113988473D01*
X90145370Y-113956273D01*
X90045992Y-113927602D01*
X89926455Y-113901198D01*
X89783166Y-113875800D01*
X89612531Y-113850145D01*
X89416134Y-113821227D01*
X89226274Y-113790173D01*
X89060260Y-113759044D01*
X88914382Y-113726942D01*
X88784927Y-113692969D01*
X88668183Y-113656226D01*
X88560440Y-113615817D01*
X88457985Y-113570843D01*
X88382688Y-113533754D01*
X88310765Y-113494725D01*
X88253886Y-113459882D01*
X88216499Y-113431965D01*
X88203049Y-113413714D01*
X88203446Y-113412370D01*
X88214280Y-113390862D01*
X88238845Y-113345822D01*
X88275685Y-113279772D01*
X88323347Y-113195233D01*
X88380376Y-113094727D01*
X88445318Y-112980776D01*
X88516719Y-112855901D01*
X88593124Y-112722624D01*
X88673079Y-112583467D01*
X88755130Y-112440951D01*
X88837822Y-112297598D01*
X88919701Y-112155930D01*
X88999313Y-112018468D01*
X89075204Y-111887734D01*
X89145919Y-111766250D01*
X89210004Y-111656538D01*
X89266004Y-111561118D01*
X89312466Y-111482514D01*
X89347935Y-111423245D01*
X89370957Y-111385835D01*
X89380077Y-111372805D01*
X89380560Y-111373175D01*
G37*
X89380560Y-111373175D02*
X89392093Y-111390511D01*
X89417500Y-111432162D01*
X89455507Y-111495911D01*
X89504837Y-111579545D01*
X89564213Y-111680849D01*
X89632359Y-111797609D01*
X89708000Y-111927608D01*
X89789859Y-112068633D01*
X89876660Y-112218468D01*
X89967126Y-112374900D01*
X90059982Y-112535713D01*
X90153951Y-112698693D01*
X90247757Y-112861624D01*
X90340124Y-113022292D01*
X90429776Y-113178482D01*
X90515436Y-113327980D01*
X90595828Y-113468571D01*
X90669677Y-113598040D01*
X90735705Y-113714172D01*
X90792637Y-113814752D01*
X90839197Y-113897567D01*
X90874108Y-113960400D01*
X90896094Y-114001037D01*
X90903879Y-114017264D01*
X90903887Y-114017388D01*
X90891333Y-114034416D01*
X90855258Y-114063279D01*
X90799417Y-114101247D01*
X90727561Y-114145587D01*
X90679373Y-114173952D01*
X90610032Y-114213396D01*
X90561734Y-114238254D01*
X90531242Y-114249924D01*
X90515320Y-114249806D01*
X90510732Y-114239297D01*
X90510382Y-114237583D01*
X90497268Y-114216682D01*
X90469000Y-114181139D01*
X90430786Y-114137583D01*
X90413155Y-114118875D01*
X90358482Y-114068512D01*
X90298022Y-114025465D01*
X90228182Y-113988473D01*
X90145370Y-113956273D01*
X90045992Y-113927602D01*
X89926455Y-113901198D01*
X89783166Y-113875800D01*
X89612531Y-113850145D01*
X89416134Y-113821227D01*
X89226274Y-113790173D01*
X89060260Y-113759044D01*
X88914382Y-113726942D01*
X88784927Y-113692969D01*
X88668183Y-113656226D01*
X88560440Y-113615817D01*
X88457985Y-113570843D01*
X88382688Y-113533754D01*
X88310765Y-113494725D01*
X88253886Y-113459882D01*
X88216499Y-113431965D01*
X88203049Y-113413714D01*
X88203446Y-113412370D01*
X88214280Y-113390862D01*
X88238845Y-113345822D01*
X88275685Y-113279772D01*
X88323347Y-113195233D01*
X88380376Y-113094727D01*
X88445318Y-112980776D01*
X88516719Y-112855901D01*
X88593124Y-112722624D01*
X88673079Y-112583467D01*
X88755130Y-112440951D01*
X88837822Y-112297598D01*
X88919701Y-112155930D01*
X88999313Y-112018468D01*
X89075204Y-111887734D01*
X89145919Y-111766250D01*
X89210004Y-111656538D01*
X89266004Y-111561118D01*
X89312466Y-111482514D01*
X89347935Y-111423245D01*
X89370957Y-111385835D01*
X89380077Y-111372805D01*
X89380560Y-111373175D01*
G36*
X91245047Y-114596040D02*
G01*
X91250802Y-114604625D01*
X91271365Y-114638346D01*
X91305179Y-114695200D01*
X91350950Y-114772968D01*
X91407383Y-114869432D01*
X91473184Y-114982371D01*
X91547058Y-115109568D01*
X91627711Y-115248803D01*
X91713848Y-115397857D01*
X91804175Y-115554512D01*
X91828947Y-115597521D01*
X91926900Y-115767575D01*
X92025509Y-115938754D01*
X92122760Y-116107562D01*
X92216638Y-116270503D01*
X92305131Y-116424082D01*
X92386222Y-116564801D01*
X92457898Y-116689166D01*
X92518144Y-116793680D01*
X92564947Y-116874847D01*
X92786030Y-117258171D01*
X89686076Y-117258171D01*
X89557921Y-117258159D01*
X89252500Y-117258042D01*
X88956432Y-117257802D01*
X88671159Y-117257444D01*
X88398123Y-117256976D01*
X88138765Y-117256403D01*
X87894527Y-117255732D01*
X87666849Y-117254968D01*
X87457174Y-117254119D01*
X87266943Y-117253189D01*
X87097597Y-117252186D01*
X86950578Y-117251115D01*
X86827327Y-117249983D01*
X86729286Y-117248796D01*
X86657896Y-117247559D01*
X86614598Y-117246280D01*
X86600835Y-117244963D01*
X86611054Y-117238304D01*
X86646311Y-117217083D01*
X86704221Y-117182920D01*
X86782430Y-117137171D01*
X86878583Y-117081190D01*
X86990323Y-117016333D01*
X87115296Y-116943954D01*
X87251146Y-116865409D01*
X87395518Y-116782054D01*
X87546056Y-116695243D01*
X87700405Y-116606332D01*
X87856210Y-116516676D01*
X88011116Y-116427629D01*
X88162766Y-116340548D01*
X88308806Y-116256788D01*
X88446881Y-116177703D01*
X88574634Y-116104649D01*
X88689711Y-116038981D01*
X88789756Y-115982054D01*
X88872414Y-115935224D01*
X88935329Y-115899846D01*
X88976147Y-115877274D01*
X88992511Y-115868864D01*
X89003189Y-115870949D01*
X89035358Y-115889908D01*
X89081221Y-115925032D01*
X89135740Y-115972669D01*
X89184845Y-116020356D01*
X89247389Y-116085316D01*
X89317368Y-116161155D01*
X89391196Y-116243698D01*
X89465285Y-116328768D01*
X89536048Y-116412190D01*
X89599898Y-116489789D01*
X89653247Y-116557389D01*
X89692509Y-116610814D01*
X89714095Y-116645889D01*
X89728506Y-116671505D01*
X89767643Y-116724516D01*
X89817958Y-116780912D01*
X89872276Y-116833462D01*
X89923424Y-116874930D01*
X89964227Y-116898086D01*
X90009292Y-116903438D01*
X90069426Y-116888645D01*
X90126579Y-116854726D01*
X90170933Y-116806053D01*
X90178613Y-116793425D01*
X90188392Y-116772743D01*
X90194765Y-116747854D01*
X90198142Y-116713409D01*
X90198931Y-116664062D01*
X90197541Y-116594464D01*
X90194381Y-116499268D01*
X90192116Y-116444202D01*
X90187304Y-116357117D01*
X90181625Y-116280899D01*
X90175608Y-116222249D01*
X90169783Y-116187866D01*
X90155679Y-116148588D01*
X90113866Y-116071240D01*
X90048895Y-115979591D01*
X89959970Y-115872567D01*
X89846300Y-115749090D01*
X89796972Y-115697066D01*
X89739938Y-115635696D01*
X89692864Y-115583665D01*
X89659624Y-115545266D01*
X89644089Y-115524796D01*
X89642492Y-115521546D01*
X89640577Y-115507553D01*
X89650145Y-115492039D01*
X89675115Y-115471659D01*
X89719406Y-115443071D01*
X89786938Y-115402932D01*
X89844347Y-115369422D01*
X89949992Y-115308123D01*
X90033171Y-115260509D01*
X90096678Y-115225033D01*
X90143306Y-115200149D01*
X90175850Y-115184313D01*
X90197104Y-115175977D01*
X90219097Y-115166728D01*
X90231951Y-115154307D01*
X90233154Y-115151378D01*
X90251961Y-115135084D01*
X90286335Y-115114098D01*
X90340719Y-115084810D01*
X90380874Y-115122192D01*
X90395057Y-115137336D01*
X90428055Y-115178493D01*
X90468346Y-115233445D01*
X90510182Y-115294531D01*
X90599336Y-115429489D01*
X90595837Y-115779362D01*
X90592339Y-116129235D01*
X90541393Y-116178733D01*
X90524274Y-116196379D01*
X90469376Y-116275660D01*
X90437330Y-116369935D01*
X90426412Y-116483780D01*
X90429123Y-116544779D01*
X90448261Y-116652378D01*
X90483141Y-116750583D01*
X90530742Y-116829382D01*
X90563795Y-116858114D01*
X90622549Y-116879937D01*
X90689061Y-116882454D01*
X90754816Y-116866828D01*
X90811301Y-116834220D01*
X90850003Y-116785793D01*
X90851270Y-116783168D01*
X90874663Y-116735225D01*
X90899439Y-116685122D01*
X90920472Y-116638087D01*
X90950644Y-116558810D01*
X90983932Y-116461072D01*
X91019179Y-116349228D01*
X91055229Y-116227634D01*
X91090925Y-116100645D01*
X91125110Y-115972616D01*
X91156627Y-115847902D01*
X91184320Y-115730859D01*
X91207032Y-115625843D01*
X91223606Y-115537209D01*
X91232885Y-115469312D01*
X91233714Y-115426507D01*
X91231847Y-115416782D01*
X91213658Y-115367556D01*
X91179907Y-115301699D01*
X91133555Y-115225165D01*
X91115764Y-115197585D01*
X91044282Y-115085122D01*
X90983520Y-114986772D01*
X90934817Y-114904832D01*
X90899514Y-114841605D01*
X90878952Y-114799390D01*
X90874469Y-114780487D01*
X90874988Y-114779820D01*
X90893545Y-114766205D01*
X90933202Y-114741319D01*
X90988526Y-114708476D01*
X91054084Y-114670988D01*
X91059626Y-114667876D01*
X91130807Y-114628712D01*
X91180381Y-114603736D01*
X91212906Y-114591158D01*
X91232942Y-114589189D01*
X91245047Y-114596040D01*
G37*
X91245047Y-114596040D02*
X91250802Y-114604625D01*
X91271365Y-114638346D01*
X91305179Y-114695200D01*
X91350950Y-114772968D01*
X91407383Y-114869432D01*
X91473184Y-114982371D01*
X91547058Y-115109568D01*
X91627711Y-115248803D01*
X91713848Y-115397857D01*
X91804175Y-115554512D01*
X91828947Y-115597521D01*
X91926900Y-115767575D01*
X92025509Y-115938754D01*
X92122760Y-116107562D01*
X92216638Y-116270503D01*
X92305131Y-116424082D01*
X92386222Y-116564801D01*
X92457898Y-116689166D01*
X92518144Y-116793680D01*
X92564947Y-116874847D01*
X92786030Y-117258171D01*
X89686076Y-117258171D01*
X89557921Y-117258159D01*
X89252500Y-117258042D01*
X88956432Y-117257802D01*
X88671159Y-117257444D01*
X88398123Y-117256976D01*
X88138765Y-117256403D01*
X87894527Y-117255732D01*
X87666849Y-117254968D01*
X87457174Y-117254119D01*
X87266943Y-117253189D01*
X87097597Y-117252186D01*
X86950578Y-117251115D01*
X86827327Y-117249983D01*
X86729286Y-117248796D01*
X86657896Y-117247559D01*
X86614598Y-117246280D01*
X86600835Y-117244963D01*
X86611054Y-117238304D01*
X86646311Y-117217083D01*
X86704221Y-117182920D01*
X86782430Y-117137171D01*
X86878583Y-117081190D01*
X86990323Y-117016333D01*
X87115296Y-116943954D01*
X87251146Y-116865409D01*
X87395518Y-116782054D01*
X87546056Y-116695243D01*
X87700405Y-116606332D01*
X87856210Y-116516676D01*
X88011116Y-116427629D01*
X88162766Y-116340548D01*
X88308806Y-116256788D01*
X88446881Y-116177703D01*
X88574634Y-116104649D01*
X88689711Y-116038981D01*
X88789756Y-115982054D01*
X88872414Y-115935224D01*
X88935329Y-115899846D01*
X88976147Y-115877274D01*
X88992511Y-115868864D01*
X89003189Y-115870949D01*
X89035358Y-115889908D01*
X89081221Y-115925032D01*
X89135740Y-115972669D01*
X89184845Y-116020356D01*
X89247389Y-116085316D01*
X89317368Y-116161155D01*
X89391196Y-116243698D01*
X89465285Y-116328768D01*
X89536048Y-116412190D01*
X89599898Y-116489789D01*
X89653247Y-116557389D01*
X89692509Y-116610814D01*
X89714095Y-116645889D01*
X89728506Y-116671505D01*
X89767643Y-116724516D01*
X89817958Y-116780912D01*
X89872276Y-116833462D01*
X89923424Y-116874930D01*
X89964227Y-116898086D01*
X90009292Y-116903438D01*
X90069426Y-116888645D01*
X90126579Y-116854726D01*
X90170933Y-116806053D01*
X90178613Y-116793425D01*
X90188392Y-116772743D01*
X90194765Y-116747854D01*
X90198142Y-116713409D01*
X90198931Y-116664062D01*
X90197541Y-116594464D01*
X90194381Y-116499268D01*
X90192116Y-116444202D01*
X90187304Y-116357117D01*
X90181625Y-116280899D01*
X90175608Y-116222249D01*
X90169783Y-116187866D01*
X90155679Y-116148588D01*
X90113866Y-116071240D01*
X90048895Y-115979591D01*
X89959970Y-115872567D01*
X89846300Y-115749090D01*
X89796972Y-115697066D01*
X89739938Y-115635696D01*
X89692864Y-115583665D01*
X89659624Y-115545266D01*
X89644089Y-115524796D01*
X89642492Y-115521546D01*
X89640577Y-115507553D01*
X89650145Y-115492039D01*
X89675115Y-115471659D01*
X89719406Y-115443071D01*
X89786938Y-115402932D01*
X89844347Y-115369422D01*
X89949992Y-115308123D01*
X90033171Y-115260509D01*
X90096678Y-115225033D01*
X90143306Y-115200149D01*
X90175850Y-115184313D01*
X90197104Y-115175977D01*
X90219097Y-115166728D01*
X90231951Y-115154307D01*
X90233154Y-115151378D01*
X90251961Y-115135084D01*
X90286335Y-115114098D01*
X90340719Y-115084810D01*
X90380874Y-115122192D01*
X90395057Y-115137336D01*
X90428055Y-115178493D01*
X90468346Y-115233445D01*
X90510182Y-115294531D01*
X90599336Y-115429489D01*
X90595837Y-115779362D01*
X90592339Y-116129235D01*
X90541393Y-116178733D01*
X90524274Y-116196379D01*
X90469376Y-116275660D01*
X90437330Y-116369935D01*
X90426412Y-116483780D01*
X90429123Y-116544779D01*
X90448261Y-116652378D01*
X90483141Y-116750583D01*
X90530742Y-116829382D01*
X90563795Y-116858114D01*
X90622549Y-116879937D01*
X90689061Y-116882454D01*
X90754816Y-116866828D01*
X90811301Y-116834220D01*
X90850003Y-116785793D01*
X90851270Y-116783168D01*
X90874663Y-116735225D01*
X90899439Y-116685122D01*
X90920472Y-116638087D01*
X90950644Y-116558810D01*
X90983932Y-116461072D01*
X91019179Y-116349228D01*
X91055229Y-116227634D01*
X91090925Y-116100645D01*
X91125110Y-115972616D01*
X91156627Y-115847902D01*
X91184320Y-115730859D01*
X91207032Y-115625843D01*
X91223606Y-115537209D01*
X91232885Y-115469312D01*
X91233714Y-115426507D01*
X91231847Y-115416782D01*
X91213658Y-115367556D01*
X91179907Y-115301699D01*
X91133555Y-115225165D01*
X91115764Y-115197585D01*
X91044282Y-115085122D01*
X90983520Y-114986772D01*
X90934817Y-114904832D01*
X90899514Y-114841605D01*
X90878952Y-114799390D01*
X90874469Y-114780487D01*
X90874988Y-114779820D01*
X90893545Y-114766205D01*
X90933202Y-114741319D01*
X90988526Y-114708476D01*
X91054084Y-114670988D01*
X91059626Y-114667876D01*
X91130807Y-114628712D01*
X91180381Y-114603736D01*
X91212906Y-114591158D01*
X91232942Y-114589189D01*
X91245047Y-114596040D01*
G36*
X87617836Y-114542363D02*
G01*
X87632023Y-114556032D01*
X87673392Y-114597719D01*
X87728107Y-114654472D01*
X87793510Y-114723397D01*
X87866943Y-114801599D01*
X87945746Y-114886182D01*
X88027260Y-114974253D01*
X88108827Y-115062916D01*
X88187788Y-115149276D01*
X88261483Y-115230439D01*
X88327254Y-115303510D01*
X88382441Y-115365594D01*
X88424386Y-115413795D01*
X88450431Y-115445220D01*
X88457915Y-115456974D01*
X88455346Y-115458272D01*
X88430785Y-115471978D01*
X88382204Y-115499613D01*
X88311652Y-115539998D01*
X88221173Y-115591955D01*
X88112815Y-115654305D01*
X87988624Y-115725871D01*
X87850645Y-115805475D01*
X87700926Y-115891938D01*
X87541513Y-115984083D01*
X87374451Y-116080732D01*
X87312008Y-116116867D01*
X87147883Y-116211806D01*
X86992358Y-116301714D01*
X86847454Y-116385424D01*
X86715195Y-116461771D01*
X86597604Y-116529589D01*
X86496702Y-116587711D01*
X86414513Y-116634971D01*
X86353059Y-116670203D01*
X86314364Y-116692242D01*
X86300449Y-116699920D01*
X86301075Y-116695831D01*
X86312493Y-116672330D01*
X86333493Y-116634786D01*
X86346376Y-116612564D01*
X86373772Y-116565173D01*
X86414087Y-116495377D01*
X86466009Y-116405444D01*
X86528231Y-116297642D01*
X86599443Y-116174240D01*
X86678335Y-116037506D01*
X86763598Y-115889709D01*
X86853924Y-115733117D01*
X86948002Y-115570000D01*
X87040121Y-115410323D01*
X87129680Y-115255187D01*
X87213893Y-115109412D01*
X87291497Y-114975183D01*
X87361225Y-114854685D01*
X87421814Y-114750102D01*
X87471998Y-114663619D01*
X87510512Y-114597421D01*
X87536092Y-114553693D01*
X87547472Y-114534619D01*
X87570820Y-114498201D01*
X87617836Y-114542363D01*
G37*
X87617836Y-114542363D02*
X87632023Y-114556032D01*
X87673392Y-114597719D01*
X87728107Y-114654472D01*
X87793510Y-114723397D01*
X87866943Y-114801599D01*
X87945746Y-114886182D01*
X88027260Y-114974253D01*
X88108827Y-115062916D01*
X88187788Y-115149276D01*
X88261483Y-115230439D01*
X88327254Y-115303510D01*
X88382441Y-115365594D01*
X88424386Y-115413795D01*
X88450431Y-115445220D01*
X88457915Y-115456974D01*
X88455346Y-115458272D01*
X88430785Y-115471978D01*
X88382204Y-115499613D01*
X88311652Y-115539998D01*
X88221173Y-115591955D01*
X88112815Y-115654305D01*
X87988624Y-115725871D01*
X87850645Y-115805475D01*
X87700926Y-115891938D01*
X87541513Y-115984083D01*
X87374451Y-116080732D01*
X87312008Y-116116867D01*
X87147883Y-116211806D01*
X86992358Y-116301714D01*
X86847454Y-116385424D01*
X86715195Y-116461771D01*
X86597604Y-116529589D01*
X86496702Y-116587711D01*
X86414513Y-116634971D01*
X86353059Y-116670203D01*
X86314364Y-116692242D01*
X86300449Y-116699920D01*
X86301075Y-116695831D01*
X86312493Y-116672330D01*
X86333493Y-116634786D01*
X86346376Y-116612564D01*
X86373772Y-116565173D01*
X86414087Y-116495377D01*
X86466009Y-116405444D01*
X86528231Y-116297642D01*
X86599443Y-116174240D01*
X86678335Y-116037506D01*
X86763598Y-115889709D01*
X86853924Y-115733117D01*
X86948002Y-115570000D01*
X87040121Y-115410323D01*
X87129680Y-115255187D01*
X87213893Y-115109412D01*
X87291497Y-114975183D01*
X87361225Y-114854685D01*
X87421814Y-114750102D01*
X87471998Y-114663619D01*
X87510512Y-114597421D01*
X87536092Y-114553693D01*
X87547472Y-114534619D01*
X87570820Y-114498201D01*
X87617836Y-114542363D01*
%TO.C,LO3*%
G36*
X103972410Y-112505970D02*
G01*
X104036442Y-112531066D01*
X104110805Y-112564947D01*
X104110805Y-113543727D01*
X104018415Y-113636117D01*
X103997310Y-113656835D01*
X103938847Y-113702885D01*
X103879886Y-113717801D01*
X103792150Y-113710934D01*
X103756429Y-113706494D01*
X103664301Y-113697102D01*
X103599885Y-113693361D01*
X103580778Y-113693933D01*
X103502390Y-113700126D01*
X103407620Y-113710934D01*
X103377298Y-113714647D01*
X103300911Y-113716107D01*
X103245022Y-113693047D01*
X103181355Y-113636117D01*
X103088965Y-113543727D01*
X103088965Y-113020455D01*
X103089685Y-112865821D01*
X103091929Y-112718391D01*
X103095421Y-112601653D01*
X103099876Y-112524840D01*
X103105013Y-112497184D01*
X103106090Y-112497258D01*
X103143407Y-112511019D01*
X103206457Y-112541344D01*
X103291854Y-112585505D01*
X103299893Y-113044965D01*
X103307931Y-113504425D01*
X103483103Y-113504425D01*
X103491092Y-113000805D01*
X103493624Y-112863904D01*
X103497249Y-112717579D01*
X103501177Y-112601411D01*
X103505080Y-112524809D01*
X103508632Y-112497184D01*
X103509653Y-112497281D01*
X103545051Y-112507443D01*
X103610126Y-112529235D01*
X103702069Y-112561287D01*
X103702516Y-113003661D01*
X103702964Y-113080507D01*
X103706069Y-113229834D01*
X103711622Y-113354544D01*
X103719033Y-113443379D01*
X103727714Y-113485083D01*
X103758771Y-113507389D01*
X103822152Y-113514278D01*
X103891839Y-113504425D01*
X103899827Y-113000805D01*
X103902686Y-112872828D01*
X103908614Y-112721348D01*
X103916365Y-112602530D01*
X103925343Y-112524950D01*
X103934948Y-112497184D01*
X103972410Y-112505970D01*
G37*
X103972410Y-112505970D02*
X104036442Y-112531066D01*
X104110805Y-112564947D01*
X104110805Y-113543727D01*
X104018415Y-113636117D01*
X103997310Y-113656835D01*
X103938847Y-113702885D01*
X103879886Y-113717801D01*
X103792150Y-113710934D01*
X103756429Y-113706494D01*
X103664301Y-113697102D01*
X103599885Y-113693361D01*
X103580778Y-113693933D01*
X103502390Y-113700126D01*
X103407620Y-113710934D01*
X103377298Y-113714647D01*
X103300911Y-113716107D01*
X103245022Y-113693047D01*
X103181355Y-113636117D01*
X103088965Y-113543727D01*
X103088965Y-113020455D01*
X103089685Y-112865821D01*
X103091929Y-112718391D01*
X103095421Y-112601653D01*
X103099876Y-112524840D01*
X103105013Y-112497184D01*
X103106090Y-112497258D01*
X103143407Y-112511019D01*
X103206457Y-112541344D01*
X103291854Y-112585505D01*
X103299893Y-113044965D01*
X103307931Y-113504425D01*
X103483103Y-113504425D01*
X103491092Y-113000805D01*
X103493624Y-112863904D01*
X103497249Y-112717579D01*
X103501177Y-112601411D01*
X103505080Y-112524809D01*
X103508632Y-112497184D01*
X103509653Y-112497281D01*
X103545051Y-112507443D01*
X103610126Y-112529235D01*
X103702069Y-112561287D01*
X103702516Y-113003661D01*
X103702964Y-113080507D01*
X103706069Y-113229834D01*
X103711622Y-113354544D01*
X103719033Y-113443379D01*
X103727714Y-113485083D01*
X103758771Y-113507389D01*
X103822152Y-113514278D01*
X103891839Y-113504425D01*
X103899827Y-113000805D01*
X103902686Y-112872828D01*
X103908614Y-112721348D01*
X103916365Y-112602530D01*
X103925343Y-112524950D01*
X103934948Y-112497184D01*
X103972410Y-112505970D01*
G36*
X113248938Y-113112744D02*
G01*
X113247355Y-113253918D01*
X113241916Y-113352285D01*
X113230643Y-113420990D01*
X113211561Y-113473181D01*
X113182694Y-113522004D01*
X113175592Y-113532135D01*
X113100444Y-113612012D01*
X113014820Y-113672253D01*
X112970852Y-113691802D01*
X112812861Y-113724408D01*
X112656613Y-113703317D01*
X112512618Y-113631249D01*
X112391385Y-113510922D01*
X112381150Y-113494803D01*
X112347847Y-113401205D01*
X112325405Y-113270879D01*
X112314516Y-113120371D01*
X112315740Y-112981147D01*
X112610384Y-112981147D01*
X112612706Y-113174020D01*
X112613639Y-113186433D01*
X112627242Y-113292857D01*
X112651465Y-113360346D01*
X112692365Y-113406584D01*
X112760941Y-113449895D01*
X112828764Y-113452172D01*
X112898621Y-113402241D01*
X112910771Y-113389102D01*
X112934575Y-113349785D01*
X112948628Y-113292674D01*
X112955313Y-113204256D01*
X112957011Y-113071019D01*
X112954101Y-112946222D01*
X112939582Y-112827326D01*
X112909610Y-112752184D01*
X112860589Y-112712893D01*
X112788924Y-112701552D01*
X112761632Y-112703807D01*
X112685176Y-112745160D01*
X112634650Y-112837900D01*
X112610384Y-112981147D01*
X112315740Y-112981147D01*
X112315871Y-112966227D01*
X112330161Y-112824992D01*
X112358075Y-112713213D01*
X112393949Y-112638766D01*
X112494939Y-112522968D01*
X112631779Y-112451015D01*
X112799283Y-112426281D01*
X112844019Y-112427619D01*
X112975758Y-112455008D01*
X113083968Y-112524007D01*
X113183276Y-112642864D01*
X113189184Y-112651681D01*
X113215921Y-112699108D01*
X113233312Y-112752714D01*
X113243312Y-112825549D01*
X113247878Y-112930659D01*
X113248893Y-113071019D01*
X113248965Y-113081092D01*
X113248938Y-113112744D01*
G37*
X113248938Y-113112744D02*
X113247355Y-113253918D01*
X113241916Y-113352285D01*
X113230643Y-113420990D01*
X113211561Y-113473181D01*
X113182694Y-113522004D01*
X113175592Y-113532135D01*
X113100444Y-113612012D01*
X113014820Y-113672253D01*
X112970852Y-113691802D01*
X112812861Y-113724408D01*
X112656613Y-113703317D01*
X112512618Y-113631249D01*
X112391385Y-113510922D01*
X112381150Y-113494803D01*
X112347847Y-113401205D01*
X112325405Y-113270879D01*
X112314516Y-113120371D01*
X112315740Y-112981147D01*
X112610384Y-112981147D01*
X112612706Y-113174020D01*
X112613639Y-113186433D01*
X112627242Y-113292857D01*
X112651465Y-113360346D01*
X112692365Y-113406584D01*
X112760941Y-113449895D01*
X112828764Y-113452172D01*
X112898621Y-113402241D01*
X112910771Y-113389102D01*
X112934575Y-113349785D01*
X112948628Y-113292674D01*
X112955313Y-113204256D01*
X112957011Y-113071019D01*
X112954101Y-112946222D01*
X112939582Y-112827326D01*
X112909610Y-112752184D01*
X112860589Y-112712893D01*
X112788924Y-112701552D01*
X112761632Y-112703807D01*
X112685176Y-112745160D01*
X112634650Y-112837900D01*
X112610384Y-112981147D01*
X112315740Y-112981147D01*
X112315871Y-112966227D01*
X112330161Y-112824992D01*
X112358075Y-112713213D01*
X112393949Y-112638766D01*
X112494939Y-112522968D01*
X112631779Y-112451015D01*
X112799283Y-112426281D01*
X112844019Y-112427619D01*
X112975758Y-112455008D01*
X113083968Y-112524007D01*
X113183276Y-112642864D01*
X113189184Y-112651681D01*
X113215921Y-112699108D01*
X113233312Y-112752714D01*
X113243312Y-112825549D01*
X113247878Y-112930659D01*
X113248893Y-113071019D01*
X113248965Y-113081092D01*
X113248938Y-113112744D01*
G36*
X108044885Y-112103997D02*
G01*
X108139770Y-112144020D01*
X108139770Y-112933706D01*
X108139769Y-112942920D01*
X108139377Y-113150083D01*
X108138329Y-113336432D01*
X108136722Y-113494453D01*
X108134655Y-113616630D01*
X108132225Y-113695448D01*
X108129529Y-113723391D01*
X108128475Y-113723297D01*
X108092647Y-113713144D01*
X108027345Y-113691339D01*
X107935402Y-113659288D01*
X107935402Y-113247991D01*
X107934818Y-113086385D01*
X107932104Y-112969177D01*
X107925858Y-112889415D01*
X107914680Y-112836531D01*
X107897168Y-112799957D01*
X107871922Y-112769123D01*
X107854710Y-112752725D01*
X107761636Y-112707307D01*
X107659051Y-112711328D01*
X107565043Y-112765032D01*
X107551358Y-112778359D01*
X107529439Y-112806032D01*
X107514440Y-112842614D01*
X107505053Y-112898000D01*
X107499968Y-112982088D01*
X107497877Y-113104773D01*
X107497471Y-113275951D01*
X107497276Y-113362769D01*
X107496010Y-113505565D01*
X107493761Y-113619923D01*
X107490758Y-113695860D01*
X107487230Y-113723391D01*
X107486176Y-113723297D01*
X107450348Y-113713144D01*
X107385046Y-113691339D01*
X107293103Y-113659288D01*
X107293149Y-113246109D01*
X107293218Y-113209326D01*
X107297081Y-113017580D01*
X107308950Y-112872586D01*
X107331725Y-112764510D01*
X107368307Y-112683519D01*
X107421595Y-112619778D01*
X107494490Y-112563455D01*
X107565586Y-112528199D01*
X107679255Y-112500946D01*
X107791060Y-112499398D01*
X107877011Y-112525910D01*
X107883473Y-112529571D01*
X107903401Y-112529179D01*
X107917019Y-112498506D01*
X107926846Y-112428188D01*
X107935402Y-112308857D01*
X107950000Y-112063973D01*
X108044885Y-112103997D01*
G37*
X108044885Y-112103997D02*
X108139770Y-112144020D01*
X108139770Y-112933706D01*
X108139769Y-112942920D01*
X108139377Y-113150083D01*
X108138329Y-113336432D01*
X108136722Y-113494453D01*
X108134655Y-113616630D01*
X108132225Y-113695448D01*
X108129529Y-113723391D01*
X108128475Y-113723297D01*
X108092647Y-113713144D01*
X108027345Y-113691339D01*
X107935402Y-113659288D01*
X107935402Y-113247991D01*
X107934818Y-113086385D01*
X107932104Y-112969177D01*
X107925858Y-112889415D01*
X107914680Y-112836531D01*
X107897168Y-112799957D01*
X107871922Y-112769123D01*
X107854710Y-112752725D01*
X107761636Y-112707307D01*
X107659051Y-112711328D01*
X107565043Y-112765032D01*
X107551358Y-112778359D01*
X107529439Y-112806032D01*
X107514440Y-112842614D01*
X107505053Y-112898000D01*
X107499968Y-112982088D01*
X107497877Y-113104773D01*
X107497471Y-113275951D01*
X107497276Y-113362769D01*
X107496010Y-113505565D01*
X107493761Y-113619923D01*
X107490758Y-113695860D01*
X107487230Y-113723391D01*
X107486176Y-113723297D01*
X107450348Y-113713144D01*
X107385046Y-113691339D01*
X107293103Y-113659288D01*
X107293149Y-113246109D01*
X107293218Y-113209326D01*
X107297081Y-113017580D01*
X107308950Y-112872586D01*
X107331725Y-112764510D01*
X107368307Y-112683519D01*
X107421595Y-112619778D01*
X107494490Y-112563455D01*
X107565586Y-112528199D01*
X107679255Y-112500946D01*
X107791060Y-112499398D01*
X107877011Y-112525910D01*
X107883473Y-112529571D01*
X107903401Y-112529179D01*
X107917019Y-112498506D01*
X107926846Y-112428188D01*
X107935402Y-112308857D01*
X107950000Y-112063973D01*
X108044885Y-112103997D01*
G36*
X106859995Y-112528674D02*
G01*
X106960355Y-112587191D01*
X107004505Y-112632784D01*
X107089347Y-112769072D01*
X107117931Y-112917658D01*
X107117931Y-113019882D01*
X107023963Y-112980372D01*
X106958977Y-112940504D01*
X106907763Y-112857734D01*
X106902504Y-112840669D01*
X106845903Y-112753724D01*
X106760594Y-112706758D01*
X106662641Y-112704741D01*
X106568106Y-112752644D01*
X106553993Y-112764998D01*
X106506797Y-112818683D01*
X106499003Y-112865488D01*
X106534706Y-112911446D01*
X106618003Y-112962588D01*
X106752988Y-113024948D01*
X106762118Y-113028897D01*
X106911969Y-113098772D01*
X107014316Y-113160672D01*
X107077320Y-113222476D01*
X107109138Y-113292062D01*
X107117931Y-113377308D01*
X107106409Y-113471816D01*
X107048228Y-113592785D01*
X106945875Y-113679688D01*
X106871843Y-113705778D01*
X106767367Y-113720055D01*
X106665917Y-113717006D01*
X106593472Y-113695467D01*
X106585777Y-113690104D01*
X106565341Y-113652632D01*
X106579522Y-113586591D01*
X106604161Y-113534753D01*
X106643670Y-113513172D01*
X106718602Y-113514246D01*
X106822630Y-113508055D01*
X106890605Y-113465311D01*
X106913563Y-113386189D01*
X106913542Y-113383916D01*
X106899629Y-113337986D01*
X106852303Y-113295845D01*
X106760287Y-113247272D01*
X106635151Y-113188790D01*
X106552268Y-113156975D01*
X106504420Y-113159025D01*
X106482063Y-113201051D01*
X106475649Y-113289162D01*
X106475632Y-113429469D01*
X106474917Y-113516081D01*
X106471635Y-113623041D01*
X106466300Y-113696250D01*
X106459585Y-113723391D01*
X106457790Y-113723206D01*
X106418982Y-113708498D01*
X106354709Y-113677456D01*
X106265880Y-113631521D01*
X106276436Y-113217628D01*
X106277171Y-113190179D01*
X106285555Y-112997517D01*
X106300366Y-112852309D01*
X106324629Y-112744887D01*
X106361364Y-112665584D01*
X106413597Y-112604730D01*
X106484348Y-112552658D01*
X106485657Y-112551842D01*
X106600056Y-112509360D01*
X106732365Y-112502184D01*
X106859995Y-112528674D01*
G37*
X106859995Y-112528674D02*
X106960355Y-112587191D01*
X107004505Y-112632784D01*
X107089347Y-112769072D01*
X107117931Y-112917658D01*
X107117931Y-113019882D01*
X107023963Y-112980372D01*
X106958977Y-112940504D01*
X106907763Y-112857734D01*
X106902504Y-112840669D01*
X106845903Y-112753724D01*
X106760594Y-112706758D01*
X106662641Y-112704741D01*
X106568106Y-112752644D01*
X106553993Y-112764998D01*
X106506797Y-112818683D01*
X106499003Y-112865488D01*
X106534706Y-112911446D01*
X106618003Y-112962588D01*
X106752988Y-113024948D01*
X106762118Y-113028897D01*
X106911969Y-113098772D01*
X107014316Y-113160672D01*
X107077320Y-113222476D01*
X107109138Y-113292062D01*
X107117931Y-113377308D01*
X107106409Y-113471816D01*
X107048228Y-113592785D01*
X106945875Y-113679688D01*
X106871843Y-113705778D01*
X106767367Y-113720055D01*
X106665917Y-113717006D01*
X106593472Y-113695467D01*
X106585777Y-113690104D01*
X106565341Y-113652632D01*
X106579522Y-113586591D01*
X106604161Y-113534753D01*
X106643670Y-113513172D01*
X106718602Y-113514246D01*
X106822630Y-113508055D01*
X106890605Y-113465311D01*
X106913563Y-113386189D01*
X106913542Y-113383916D01*
X106899629Y-113337986D01*
X106852303Y-113295845D01*
X106760287Y-113247272D01*
X106635151Y-113188790D01*
X106552268Y-113156975D01*
X106504420Y-113159025D01*
X106482063Y-113201051D01*
X106475649Y-113289162D01*
X106475632Y-113429469D01*
X106474917Y-113516081D01*
X106471635Y-113623041D01*
X106466300Y-113696250D01*
X106459585Y-113723391D01*
X106457790Y-113723206D01*
X106418982Y-113708498D01*
X106354709Y-113677456D01*
X106265880Y-113631521D01*
X106276436Y-113217628D01*
X106277171Y-113190179D01*
X106285555Y-112997517D01*
X106300366Y-112852309D01*
X106324629Y-112744887D01*
X106361364Y-112665584D01*
X106413597Y-112604730D01*
X106484348Y-112552658D01*
X106485657Y-112551842D01*
X106600056Y-112509360D01*
X106732365Y-112502184D01*
X106859995Y-112528674D01*
G36*
X105130219Y-113224135D02*
G01*
X105113739Y-113379320D01*
X105077883Y-113495612D01*
X105018455Y-113584411D01*
X104931257Y-113657119D01*
X104848195Y-113699150D01*
X104708709Y-113722538D01*
X104569412Y-113696965D01*
X104443510Y-113625694D01*
X104344210Y-113511991D01*
X104332219Y-113491024D01*
X104316384Y-113454291D01*
X104304638Y-113407415D01*
X104296378Y-113342355D01*
X104290998Y-113251070D01*
X104287892Y-113125519D01*
X104287797Y-113114379D01*
X104490345Y-113114379D01*
X104491035Y-113220644D01*
X104495400Y-113316762D01*
X104506192Y-113378811D01*
X104526126Y-113420502D01*
X104557916Y-113455543D01*
X104565364Y-113462279D01*
X104661060Y-113511992D01*
X104762312Y-113506905D01*
X104856614Y-113447362D01*
X104884694Y-113416514D01*
X104908196Y-113375618D01*
X104921322Y-113319080D01*
X104927030Y-113232657D01*
X104928276Y-113102106D01*
X104927661Y-113002487D01*
X104923407Y-112905251D01*
X104912682Y-112842502D01*
X104892707Y-112800382D01*
X104860704Y-112765032D01*
X104841905Y-112749114D01*
X104744492Y-112706235D01*
X104642437Y-112712985D01*
X104553825Y-112769123D01*
X104534749Y-112791382D01*
X104511486Y-112833293D01*
X104498036Y-112891822D01*
X104491841Y-112980880D01*
X104490345Y-113114379D01*
X104287797Y-113114379D01*
X104286457Y-112957661D01*
X104286086Y-112739455D01*
X104285977Y-112062072D01*
X104380862Y-112101819D01*
X104405949Y-112112699D01*
X104445881Y-112137268D01*
X104468739Y-112174475D01*
X104481301Y-112239541D01*
X104490345Y-112347687D01*
X104498605Y-112444788D01*
X104509523Y-112508535D01*
X104525165Y-112532323D01*
X104548736Y-112525943D01*
X104608801Y-112503525D01*
X104716145Y-112497967D01*
X104831624Y-112518728D01*
X104931257Y-112563455D01*
X104986072Y-112604856D01*
X105056452Y-112685632D01*
X105101528Y-112789195D01*
X105125496Y-112926947D01*
X105132239Y-113102106D01*
X105132553Y-113110287D01*
X105130219Y-113224135D01*
G37*
X105130219Y-113224135D02*
X105113739Y-113379320D01*
X105077883Y-113495612D01*
X105018455Y-113584411D01*
X104931257Y-113657119D01*
X104848195Y-113699150D01*
X104708709Y-113722538D01*
X104569412Y-113696965D01*
X104443510Y-113625694D01*
X104344210Y-113511991D01*
X104332219Y-113491024D01*
X104316384Y-113454291D01*
X104304638Y-113407415D01*
X104296378Y-113342355D01*
X104290998Y-113251070D01*
X104287892Y-113125519D01*
X104287797Y-113114379D01*
X104490345Y-113114379D01*
X104491035Y-113220644D01*
X104495400Y-113316762D01*
X104506192Y-113378811D01*
X104526126Y-113420502D01*
X104557916Y-113455543D01*
X104565364Y-113462279D01*
X104661060Y-113511992D01*
X104762312Y-113506905D01*
X104856614Y-113447362D01*
X104884694Y-113416514D01*
X104908196Y-113375618D01*
X104921322Y-113319080D01*
X104927030Y-113232657D01*
X104928276Y-113102106D01*
X104927661Y-113002487D01*
X104923407Y-112905251D01*
X104912682Y-112842502D01*
X104892707Y-112800382D01*
X104860704Y-112765032D01*
X104841905Y-112749114D01*
X104744492Y-112706235D01*
X104642437Y-112712985D01*
X104553825Y-112769123D01*
X104534749Y-112791382D01*
X104511486Y-112833293D01*
X104498036Y-112891822D01*
X104491841Y-112980880D01*
X104490345Y-113114379D01*
X104287797Y-113114379D01*
X104286457Y-112957661D01*
X104286086Y-112739455D01*
X104285977Y-112062072D01*
X104380862Y-112101819D01*
X104405949Y-112112699D01*
X104445881Y-112137268D01*
X104468739Y-112174475D01*
X104481301Y-112239541D01*
X104490345Y-112347687D01*
X104498605Y-112444788D01*
X104509523Y-112508535D01*
X104525165Y-112532323D01*
X104548736Y-112525943D01*
X104608801Y-112503525D01*
X104716145Y-112497967D01*
X104831624Y-112518728D01*
X104931257Y-112563455D01*
X104986072Y-112604856D01*
X105056452Y-112685632D01*
X105101528Y-112789195D01*
X105125496Y-112926947D01*
X105132239Y-113102106D01*
X105132553Y-113110287D01*
X105130219Y-113224135D01*
G36*
X100927744Y-113193946D02*
G01*
X100920612Y-113347254D01*
X100901948Y-113459441D01*
X100867537Y-113542554D01*
X100813162Y-113608641D01*
X100734610Y-113669747D01*
X100684630Y-113697535D01*
X100604513Y-113716251D01*
X100491970Y-113714774D01*
X100429050Y-113708845D01*
X100353153Y-113690742D01*
X100292487Y-113651391D01*
X100221912Y-113578066D01*
X100212482Y-113567356D01*
X100149034Y-113484938D01*
X100118762Y-113413156D01*
X100111034Y-113328034D01*
X100111034Y-113202946D01*
X100198447Y-113235940D01*
X100262175Y-113274509D01*
X100317567Y-113365008D01*
X100329131Y-113393983D01*
X100393788Y-113476041D01*
X100481804Y-113517347D01*
X100577637Y-113513633D01*
X100665747Y-113460632D01*
X100696028Y-113427582D01*
X100723489Y-113377720D01*
X100714899Y-113332416D01*
X100665463Y-113285790D01*
X100570389Y-113231958D01*
X100424885Y-113165039D01*
X100125632Y-113034056D01*
X100117691Y-112904298D01*
X100120676Y-112821649D01*
X100315652Y-112821649D01*
X100330453Y-112872815D01*
X100397797Y-112927442D01*
X100520027Y-112989597D01*
X100540253Y-112998601D01*
X100636970Y-113040493D01*
X100709334Y-113069958D01*
X100742961Y-113081092D01*
X100748056Y-113072896D01*
X100750101Y-113022853D01*
X100742812Y-112942414D01*
X100724452Y-112863753D01*
X100667188Y-112764651D01*
X100584524Y-112708808D01*
X100485784Y-112701250D01*
X100380289Y-112747000D01*
X100351053Y-112769876D01*
X100315652Y-112821649D01*
X100120676Y-112821649D01*
X100121196Y-112807255D01*
X100165336Y-112684617D01*
X100221050Y-112617034D01*
X100336561Y-112541540D01*
X100473588Y-112503403D01*
X100615237Y-112506422D01*
X100744617Y-112554393D01*
X100773099Y-112572813D01*
X100838428Y-112629811D01*
X100883106Y-112701916D01*
X100910641Y-112799853D01*
X100924541Y-112934351D01*
X100926378Y-113022853D01*
X100928313Y-113116136D01*
X100927744Y-113193946D01*
G37*
X100927744Y-113193946D02*
X100920612Y-113347254D01*
X100901948Y-113459441D01*
X100867537Y-113542554D01*
X100813162Y-113608641D01*
X100734610Y-113669747D01*
X100684630Y-113697535D01*
X100604513Y-113716251D01*
X100491970Y-113714774D01*
X100429050Y-113708845D01*
X100353153Y-113690742D01*
X100292487Y-113651391D01*
X100221912Y-113578066D01*
X100212482Y-113567356D01*
X100149034Y-113484938D01*
X100118762Y-113413156D01*
X100111034Y-113328034D01*
X100111034Y-113202946D01*
X100198447Y-113235940D01*
X100262175Y-113274509D01*
X100317567Y-113365008D01*
X100329131Y-113393983D01*
X100393788Y-113476041D01*
X100481804Y-113517347D01*
X100577637Y-113513633D01*
X100665747Y-113460632D01*
X100696028Y-113427582D01*
X100723489Y-113377720D01*
X100714899Y-113332416D01*
X100665463Y-113285790D01*
X100570389Y-113231958D01*
X100424885Y-113165039D01*
X100125632Y-113034056D01*
X100117691Y-112904298D01*
X100120676Y-112821649D01*
X100315652Y-112821649D01*
X100330453Y-112872815D01*
X100397797Y-112927442D01*
X100520027Y-112989597D01*
X100540253Y-112998601D01*
X100636970Y-113040493D01*
X100709334Y-113069958D01*
X100742961Y-113081092D01*
X100748056Y-113072896D01*
X100750101Y-113022853D01*
X100742812Y-112942414D01*
X100724452Y-112863753D01*
X100667188Y-112764651D01*
X100584524Y-112708808D01*
X100485784Y-112701250D01*
X100380289Y-112747000D01*
X100351053Y-112769876D01*
X100315652Y-112821649D01*
X100120676Y-112821649D01*
X100121196Y-112807255D01*
X100165336Y-112684617D01*
X100221050Y-112617034D01*
X100336561Y-112541540D01*
X100473588Y-112503403D01*
X100615237Y-112506422D01*
X100744617Y-112554393D01*
X100773099Y-112572813D01*
X100838428Y-112629811D01*
X100883106Y-112701916D01*
X100910641Y-112799853D01*
X100924541Y-112934351D01*
X100926378Y-113022853D01*
X100928313Y-113116136D01*
X100927744Y-113193946D01*
G36*
X106909175Y-103038045D02*
G01*
X107061895Y-103039039D01*
X107171792Y-103041593D01*
X107246235Y-103046445D01*
X107292594Y-103054331D01*
X107318239Y-103065988D01*
X107330539Y-103082153D01*
X107336865Y-103103563D01*
X107337047Y-103104332D01*
X107347441Y-103154663D01*
X107366339Y-103251888D01*
X107391802Y-103385810D01*
X107421890Y-103546235D01*
X107454664Y-103722967D01*
X107457337Y-103737428D01*
X107490010Y-103908959D01*
X107520413Y-104059625D01*
X107546568Y-104180267D01*
X107566496Y-104261729D01*
X107578220Y-104294852D01*
X107578282Y-104294905D01*
X107615229Y-104313229D01*
X107691057Y-104343677D01*
X107789425Y-104379685D01*
X107794965Y-104381640D01*
X107920724Y-104429170D01*
X108067011Y-104488783D01*
X108203293Y-104548056D01*
X108427390Y-104649765D01*
X108923618Y-104310897D01*
X108958570Y-104287063D01*
X109108280Y-104185755D01*
X109241867Y-104096575D01*
X109351343Y-104024773D01*
X109428718Y-103975603D01*
X109466004Y-103954317D01*
X109491552Y-103959196D01*
X109549555Y-103997002D01*
X109639195Y-104071870D01*
X109762957Y-104185903D01*
X109923328Y-104341205D01*
X109937679Y-104355341D01*
X110064933Y-104481999D01*
X110177969Y-104596745D01*
X110269867Y-104692391D01*
X110333707Y-104761746D01*
X110362570Y-104797620D01*
X110362664Y-104797794D01*
X110366331Y-104825106D01*
X110352808Y-104869408D01*
X110318684Y-104936761D01*
X110260548Y-105033226D01*
X110174988Y-105164863D01*
X110058594Y-105337734D01*
X110038759Y-105366912D01*
X109938445Y-105514726D01*
X109849923Y-105645577D01*
X109778465Y-105751643D01*
X109729343Y-105825102D01*
X109707831Y-105858130D01*
X109706208Y-105865126D01*
X109716387Y-105917326D01*
X109746879Y-106002561D01*
X109792712Y-106106291D01*
X109855000Y-106241951D01*
X109924548Y-106402921D01*
X109983609Y-106548621D01*
X109998252Y-106586333D01*
X110036600Y-106682622D01*
X110064770Y-106749704D01*
X110077497Y-106774885D01*
X110091545Y-106776767D01*
X110154681Y-106787651D01*
X110258019Y-106806449D01*
X110390809Y-106831115D01*
X110542297Y-106859604D01*
X110701732Y-106889873D01*
X110858361Y-106919875D01*
X111001433Y-106947566D01*
X111120195Y-106970900D01*
X111203896Y-106987833D01*
X111241782Y-106996320D01*
X111248063Y-106998713D01*
X111263373Y-107011619D01*
X111274763Y-107039096D01*
X111282803Y-107088446D01*
X111288064Y-107166973D01*
X111291116Y-107281980D01*
X111292529Y-107440770D01*
X111292873Y-107650645D01*
X111292873Y-108288906D01*
X111139598Y-108319160D01*
X111121057Y-108322785D01*
X111022596Y-108341569D01*
X110886448Y-108367093D01*
X110728087Y-108396468D01*
X110562988Y-108426806D01*
X110497973Y-108439009D01*
X110352697Y-108468697D01*
X110231626Y-108496770D01*
X110145886Y-108520536D01*
X110106601Y-108537301D01*
X110088799Y-108564694D01*
X110056389Y-108637174D01*
X110023234Y-108730977D01*
X110011564Y-108766103D01*
X109968604Y-108881409D01*
X109913192Y-109017876D01*
X109854353Y-109152954D01*
X109822884Y-109223509D01*
X109778051Y-109328895D01*
X109747240Y-109407818D01*
X109735785Y-109447053D01*
X109736422Y-109450014D01*
X109758150Y-109491639D01*
X109807146Y-109571969D01*
X109878438Y-109683220D01*
X109967054Y-109817605D01*
X110068023Y-109967340D01*
X110400261Y-110454931D01*
X109963771Y-110892149D01*
X109921555Y-110934221D01*
X109792470Y-111060153D01*
X109677107Y-111168754D01*
X109582224Y-111253903D01*
X109514582Y-111309482D01*
X109480938Y-111329368D01*
X109444402Y-111314238D01*
X109367890Y-111270801D01*
X109260196Y-111204270D01*
X109129767Y-111119867D01*
X108985052Y-111022816D01*
X108842910Y-110926964D01*
X108714678Y-110842557D01*
X108610054Y-110775850D01*
X108537171Y-110732024D01*
X108504158Y-110716264D01*
X108502223Y-110716408D01*
X108458369Y-110731945D01*
X108380598Y-110768121D01*
X108284392Y-110817785D01*
X108283381Y-110818329D01*
X108155605Y-110882326D01*
X108068051Y-110913591D01*
X108013726Y-110913677D01*
X107985641Y-110884138D01*
X107973752Y-110855061D01*
X107941668Y-110777188D01*
X107892247Y-110657475D01*
X107828118Y-110502286D01*
X107751911Y-110317984D01*
X107666255Y-110110933D01*
X107573781Y-109887496D01*
X107489962Y-109684226D01*
X107404678Y-109475649D01*
X107329222Y-109289263D01*
X107266126Y-109131407D01*
X107217923Y-109008419D01*
X107187144Y-108926639D01*
X107176322Y-108892406D01*
X107196991Y-108861015D01*
X107254409Y-108808602D01*
X107335688Y-108747704D01*
X107530820Y-108588387D01*
X107705445Y-108384807D01*
X107833235Y-108160808D01*
X107913402Y-107923003D01*
X107945160Y-107678007D01*
X107927722Y-107432433D01*
X107860301Y-107192895D01*
X107742111Y-106966007D01*
X107572364Y-106758383D01*
X107483856Y-106677527D01*
X107271804Y-106534559D01*
X107044905Y-106441352D01*
X106809791Y-106395687D01*
X106573094Y-106395344D01*
X106341446Y-106438105D01*
X106121478Y-106521750D01*
X105919822Y-106644061D01*
X105743111Y-106802817D01*
X105597977Y-106995801D01*
X105491050Y-107220793D01*
X105428964Y-107475575D01*
X105417569Y-107598377D01*
X105433246Y-107864434D01*
X105503846Y-108116856D01*
X105627282Y-108351182D01*
X105801466Y-108562952D01*
X106024311Y-108747704D01*
X106102561Y-108806123D01*
X106161244Y-108859110D01*
X106183678Y-108892356D01*
X106174732Y-108921339D01*
X106145703Y-108998996D01*
X106099026Y-109118451D01*
X106037231Y-109273362D01*
X105962850Y-109457392D01*
X105878412Y-109664200D01*
X105786449Y-109887446D01*
X105702771Y-110089742D01*
X105616366Y-110298686D01*
X105539138Y-110485498D01*
X105473716Y-110643814D01*
X105422731Y-110767269D01*
X105388812Y-110849498D01*
X105374590Y-110884138D01*
X105374425Y-110884548D01*
X105345972Y-110913798D01*
X105291382Y-110913463D01*
X105203609Y-110881980D01*
X105075608Y-110817785D01*
X105065532Y-110812380D01*
X104970481Y-110763750D01*
X104895424Y-110729328D01*
X104855842Y-110716264D01*
X104823400Y-110731702D01*
X104750895Y-110775258D01*
X104646565Y-110841751D01*
X104518539Y-110925998D01*
X104374948Y-111022816D01*
X104233468Y-111117734D01*
X104102611Y-111202490D01*
X103994292Y-111269496D01*
X103916960Y-111313529D01*
X103879062Y-111329368D01*
X103872607Y-111327357D01*
X103827609Y-111295658D01*
X103750727Y-111230181D01*
X103648721Y-111137048D01*
X103528351Y-111022381D01*
X103396379Y-110892300D01*
X102960039Y-110455232D01*
X103639733Y-109455440D01*
X103536402Y-109231886D01*
X103536096Y-109231225D01*
X103474046Y-109088714D01*
X103410640Y-108930018D01*
X103359558Y-108789368D01*
X103351827Y-108766683D01*
X103312852Y-108661370D01*
X103277707Y-108579534D01*
X103253195Y-108537301D01*
X103243212Y-108531337D01*
X103183286Y-108511329D01*
X103081532Y-108485442D01*
X102949068Y-108456370D01*
X102797011Y-108426806D01*
X102751466Y-108418467D01*
X102586685Y-108388107D01*
X102432930Y-108359509D01*
X102305678Y-108335564D01*
X102220402Y-108319160D01*
X102067126Y-108288906D01*
X102067126Y-107650645D01*
X102067160Y-107572165D01*
X102067808Y-107380703D01*
X102069720Y-107237812D01*
X102073469Y-107136189D01*
X102079622Y-107068531D01*
X102088751Y-107027536D01*
X102101427Y-107005900D01*
X102118218Y-106996320D01*
X102134474Y-106992439D01*
X102200748Y-106978710D01*
X102306479Y-106957745D01*
X102440915Y-106931588D01*
X102593302Y-106902283D01*
X102752890Y-106871877D01*
X102908925Y-106842413D01*
X103050657Y-106815937D01*
X103167331Y-106794494D01*
X103248197Y-106780128D01*
X103282503Y-106774885D01*
X103284822Y-106771720D01*
X103303474Y-106730642D01*
X103335753Y-106652044D01*
X103376391Y-106548621D01*
X103432788Y-106409273D01*
X103502214Y-106248226D01*
X103567288Y-106106291D01*
X103582202Y-106074432D01*
X103624047Y-105974669D01*
X103649118Y-105897721D01*
X103652426Y-105858130D01*
X103650720Y-105855325D01*
X103623631Y-105814005D01*
X103569927Y-105733740D01*
X103494877Y-105622350D01*
X103403746Y-105487655D01*
X103301800Y-105337476D01*
X103186930Y-105166851D01*
X103100761Y-105034311D01*
X103042131Y-104937112D01*
X103007650Y-104869234D01*
X102993926Y-104824656D01*
X102997568Y-104797361D01*
X102998794Y-104795313D01*
X103031747Y-104755536D01*
X103098927Y-104683052D01*
X103193419Y-104585046D01*
X103308306Y-104468702D01*
X103436672Y-104341205D01*
X103569831Y-104211821D01*
X103700269Y-104090209D01*
X103796119Y-104008156D01*
X103859866Y-103963560D01*
X103893996Y-103954317D01*
X103898456Y-103956393D01*
X103945421Y-103984385D01*
X104030685Y-104039084D01*
X104146259Y-104115237D01*
X104284154Y-104207592D01*
X104436381Y-104310897D01*
X104932610Y-104649765D01*
X105156707Y-104548056D01*
X105163219Y-104545109D01*
X105300804Y-104485504D01*
X105446767Y-104426222D01*
X105570575Y-104379685D01*
X105571122Y-104379493D01*
X105669414Y-104343497D01*
X105745081Y-104313095D01*
X105781780Y-104294852D01*
X105782374Y-104294190D01*
X105794833Y-104256831D01*
X105815336Y-104171871D01*
X105841907Y-104048469D01*
X105872567Y-103895782D01*
X105905336Y-103722967D01*
X105906478Y-103716774D01*
X105939193Y-103540431D01*
X105969155Y-103380743D01*
X105994425Y-103247905D01*
X106013065Y-103152113D01*
X106023135Y-103103563D01*
X106023779Y-103100873D01*
X106030408Y-103080088D01*
X106043841Y-103064466D01*
X106071446Y-103053270D01*
X106120593Y-103045762D01*
X106198653Y-103041205D01*
X106312994Y-103038863D01*
X106470986Y-103037998D01*
X106680000Y-103037874D01*
X106706262Y-103037874D01*
X106909175Y-103038045D01*
G37*
X106909175Y-103038045D02*
X107061895Y-103039039D01*
X107171792Y-103041593D01*
X107246235Y-103046445D01*
X107292594Y-103054331D01*
X107318239Y-103065988D01*
X107330539Y-103082153D01*
X107336865Y-103103563D01*
X107337047Y-103104332D01*
X107347441Y-103154663D01*
X107366339Y-103251888D01*
X107391802Y-103385810D01*
X107421890Y-103546235D01*
X107454664Y-103722967D01*
X107457337Y-103737428D01*
X107490010Y-103908959D01*
X107520413Y-104059625D01*
X107546568Y-104180267D01*
X107566496Y-104261729D01*
X107578220Y-104294852D01*
X107578282Y-104294905D01*
X107615229Y-104313229D01*
X107691057Y-104343677D01*
X107789425Y-104379685D01*
X107794965Y-104381640D01*
X107920724Y-104429170D01*
X108067011Y-104488783D01*
X108203293Y-104548056D01*
X108427390Y-104649765D01*
X108923618Y-104310897D01*
X108958570Y-104287063D01*
X109108280Y-104185755D01*
X109241867Y-104096575D01*
X109351343Y-104024773D01*
X109428718Y-103975603D01*
X109466004Y-103954317D01*
X109491552Y-103959196D01*
X109549555Y-103997002D01*
X109639195Y-104071870D01*
X109762957Y-104185903D01*
X109923328Y-104341205D01*
X109937679Y-104355341D01*
X110064933Y-104481999D01*
X110177969Y-104596745D01*
X110269867Y-104692391D01*
X110333707Y-104761746D01*
X110362570Y-104797620D01*
X110362664Y-104797794D01*
X110366331Y-104825106D01*
X110352808Y-104869408D01*
X110318684Y-104936761D01*
X110260548Y-105033226D01*
X110174988Y-105164863D01*
X110058594Y-105337734D01*
X110038759Y-105366912D01*
X109938445Y-105514726D01*
X109849923Y-105645577D01*
X109778465Y-105751643D01*
X109729343Y-105825102D01*
X109707831Y-105858130D01*
X109706208Y-105865126D01*
X109716387Y-105917326D01*
X109746879Y-106002561D01*
X109792712Y-106106291D01*
X109855000Y-106241951D01*
X109924548Y-106402921D01*
X109983609Y-106548621D01*
X109998252Y-106586333D01*
X110036600Y-106682622D01*
X110064770Y-106749704D01*
X110077497Y-106774885D01*
X110091545Y-106776767D01*
X110154681Y-106787651D01*
X110258019Y-106806449D01*
X110390809Y-106831115D01*
X110542297Y-106859604D01*
X110701732Y-106889873D01*
X110858361Y-106919875D01*
X111001433Y-106947566D01*
X111120195Y-106970900D01*
X111203896Y-106987833D01*
X111241782Y-106996320D01*
X111248063Y-106998713D01*
X111263373Y-107011619D01*
X111274763Y-107039096D01*
X111282803Y-107088446D01*
X111288064Y-107166973D01*
X111291116Y-107281980D01*
X111292529Y-107440770D01*
X111292873Y-107650645D01*
X111292873Y-108288906D01*
X111139598Y-108319160D01*
X111121057Y-108322785D01*
X111022596Y-108341569D01*
X110886448Y-108367093D01*
X110728087Y-108396468D01*
X110562988Y-108426806D01*
X110497973Y-108439009D01*
X110352697Y-108468697D01*
X110231626Y-108496770D01*
X110145886Y-108520536D01*
X110106601Y-108537301D01*
X110088799Y-108564694D01*
X110056389Y-108637174D01*
X110023234Y-108730977D01*
X110011564Y-108766103D01*
X109968604Y-108881409D01*
X109913192Y-109017876D01*
X109854353Y-109152954D01*
X109822884Y-109223509D01*
X109778051Y-109328895D01*
X109747240Y-109407818D01*
X109735785Y-109447053D01*
X109736422Y-109450014D01*
X109758150Y-109491639D01*
X109807146Y-109571969D01*
X109878438Y-109683220D01*
X109967054Y-109817605D01*
X110068023Y-109967340D01*
X110400261Y-110454931D01*
X109963771Y-110892149D01*
X109921555Y-110934221D01*
X109792470Y-111060153D01*
X109677107Y-111168754D01*
X109582224Y-111253903D01*
X109514582Y-111309482D01*
X109480938Y-111329368D01*
X109444402Y-111314238D01*
X109367890Y-111270801D01*
X109260196Y-111204270D01*
X109129767Y-111119867D01*
X108985052Y-111022816D01*
X108842910Y-110926964D01*
X108714678Y-110842557D01*
X108610054Y-110775850D01*
X108537171Y-110732024D01*
X108504158Y-110716264D01*
X108502223Y-110716408D01*
X108458369Y-110731945D01*
X108380598Y-110768121D01*
X108284392Y-110817785D01*
X108283381Y-110818329D01*
X108155605Y-110882326D01*
X108068051Y-110913591D01*
X108013726Y-110913677D01*
X107985641Y-110884138D01*
X107973752Y-110855061D01*
X107941668Y-110777188D01*
X107892247Y-110657475D01*
X107828118Y-110502286D01*
X107751911Y-110317984D01*
X107666255Y-110110933D01*
X107573781Y-109887496D01*
X107489962Y-109684226D01*
X107404678Y-109475649D01*
X107329222Y-109289263D01*
X107266126Y-109131407D01*
X107217923Y-109008419D01*
X107187144Y-108926639D01*
X107176322Y-108892406D01*
X107196991Y-108861015D01*
X107254409Y-108808602D01*
X107335688Y-108747704D01*
X107530820Y-108588387D01*
X107705445Y-108384807D01*
X107833235Y-108160808D01*
X107913402Y-107923003D01*
X107945160Y-107678007D01*
X107927722Y-107432433D01*
X107860301Y-107192895D01*
X107742111Y-106966007D01*
X107572364Y-106758383D01*
X107483856Y-106677527D01*
X107271804Y-106534559D01*
X107044905Y-106441352D01*
X106809791Y-106395687D01*
X106573094Y-106395344D01*
X106341446Y-106438105D01*
X106121478Y-106521750D01*
X105919822Y-106644061D01*
X105743111Y-106802817D01*
X105597977Y-106995801D01*
X105491050Y-107220793D01*
X105428964Y-107475575D01*
X105417569Y-107598377D01*
X105433246Y-107864434D01*
X105503846Y-108116856D01*
X105627282Y-108351182D01*
X105801466Y-108562952D01*
X106024311Y-108747704D01*
X106102561Y-108806123D01*
X106161244Y-108859110D01*
X106183678Y-108892356D01*
X106174732Y-108921339D01*
X106145703Y-108998996D01*
X106099026Y-109118451D01*
X106037231Y-109273362D01*
X105962850Y-109457392D01*
X105878412Y-109664200D01*
X105786449Y-109887446D01*
X105702771Y-110089742D01*
X105616366Y-110298686D01*
X105539138Y-110485498D01*
X105473716Y-110643814D01*
X105422731Y-110767269D01*
X105388812Y-110849498D01*
X105374590Y-110884138D01*
X105374425Y-110884548D01*
X105345972Y-110913798D01*
X105291382Y-110913463D01*
X105203609Y-110881980D01*
X105075608Y-110817785D01*
X105065532Y-110812380D01*
X104970481Y-110763750D01*
X104895424Y-110729328D01*
X104855842Y-110716264D01*
X104823400Y-110731702D01*
X104750895Y-110775258D01*
X104646565Y-110841751D01*
X104518539Y-110925998D01*
X104374948Y-111022816D01*
X104233468Y-111117734D01*
X104102611Y-111202490D01*
X103994292Y-111269496D01*
X103916960Y-111313529D01*
X103879062Y-111329368D01*
X103872607Y-111327357D01*
X103827609Y-111295658D01*
X103750727Y-111230181D01*
X103648721Y-111137048D01*
X103528351Y-111022381D01*
X103396379Y-110892300D01*
X102960039Y-110455232D01*
X103639733Y-109455440D01*
X103536402Y-109231886D01*
X103536096Y-109231225D01*
X103474046Y-109088714D01*
X103410640Y-108930018D01*
X103359558Y-108789368D01*
X103351827Y-108766683D01*
X103312852Y-108661370D01*
X103277707Y-108579534D01*
X103253195Y-108537301D01*
X103243212Y-108531337D01*
X103183286Y-108511329D01*
X103081532Y-108485442D01*
X102949068Y-108456370D01*
X102797011Y-108426806D01*
X102751466Y-108418467D01*
X102586685Y-108388107D01*
X102432930Y-108359509D01*
X102305678Y-108335564D01*
X102220402Y-108319160D01*
X102067126Y-108288906D01*
X102067126Y-107650645D01*
X102067160Y-107572165D01*
X102067808Y-107380703D01*
X102069720Y-107237812D01*
X102073469Y-107136189D01*
X102079622Y-107068531D01*
X102088751Y-107027536D01*
X102101427Y-107005900D01*
X102118218Y-106996320D01*
X102134474Y-106992439D01*
X102200748Y-106978710D01*
X102306479Y-106957745D01*
X102440915Y-106931588D01*
X102593302Y-106902283D01*
X102752890Y-106871877D01*
X102908925Y-106842413D01*
X103050657Y-106815937D01*
X103167331Y-106794494D01*
X103248197Y-106780128D01*
X103282503Y-106774885D01*
X103284822Y-106771720D01*
X103303474Y-106730642D01*
X103335753Y-106652044D01*
X103376391Y-106548621D01*
X103432788Y-106409273D01*
X103502214Y-106248226D01*
X103567288Y-106106291D01*
X103582202Y-106074432D01*
X103624047Y-105974669D01*
X103649118Y-105897721D01*
X103652426Y-105858130D01*
X103650720Y-105855325D01*
X103623631Y-105814005D01*
X103569927Y-105733740D01*
X103494877Y-105622350D01*
X103403746Y-105487655D01*
X103301800Y-105337476D01*
X103186930Y-105166851D01*
X103100761Y-105034311D01*
X103042131Y-104937112D01*
X103007650Y-104869234D01*
X102993926Y-104824656D01*
X102997568Y-104797361D01*
X102998794Y-104795313D01*
X103031747Y-104755536D01*
X103098927Y-104683052D01*
X103193419Y-104585046D01*
X103308306Y-104468702D01*
X103436672Y-104341205D01*
X103569831Y-104211821D01*
X103700269Y-104090209D01*
X103796119Y-104008156D01*
X103859866Y-103963560D01*
X103893996Y-103954317D01*
X103898456Y-103956393D01*
X103945421Y-103984385D01*
X104030685Y-104039084D01*
X104146259Y-104115237D01*
X104284154Y-104207592D01*
X104436381Y-104310897D01*
X104932610Y-104649765D01*
X105156707Y-104548056D01*
X105163219Y-104545109D01*
X105300804Y-104485504D01*
X105446767Y-104426222D01*
X105570575Y-104379685D01*
X105571122Y-104379493D01*
X105669414Y-104343497D01*
X105745081Y-104313095D01*
X105781780Y-104294852D01*
X105782374Y-104294190D01*
X105794833Y-104256831D01*
X105815336Y-104171871D01*
X105841907Y-104048469D01*
X105872567Y-103895782D01*
X105905336Y-103722967D01*
X105906478Y-103716774D01*
X105939193Y-103540431D01*
X105969155Y-103380743D01*
X105994425Y-103247905D01*
X106013065Y-103152113D01*
X106023135Y-103103563D01*
X106023779Y-103100873D01*
X106030408Y-103080088D01*
X106043841Y-103064466D01*
X106071446Y-103053270D01*
X106120593Y-103045762D01*
X106198653Y-103041205D01*
X106312994Y-103038863D01*
X106470986Y-103037998D01*
X106680000Y-103037874D01*
X106706262Y-103037874D01*
X106909175Y-103038045D01*
G36*
X105890872Y-112540536D02*
G01*
X105900090Y-112545638D01*
X105975381Y-112604080D01*
X106042698Y-112679215D01*
X106054439Y-112696196D01*
X106076883Y-112735825D01*
X106092918Y-112782858D01*
X106103945Y-112847492D01*
X106111365Y-112939923D01*
X106116579Y-113070349D01*
X106120989Y-113248965D01*
X106121614Y-113279162D01*
X106123620Y-113474941D01*
X106120792Y-113613603D01*
X106113088Y-113696103D01*
X106100466Y-113723391D01*
X106062267Y-113715220D01*
X105997374Y-113690463D01*
X105982094Y-113683223D01*
X105958227Y-113666835D01*
X105941769Y-113639893D01*
X105931005Y-113592833D01*
X105924219Y-113516088D01*
X105919693Y-113400095D01*
X105915713Y-113235287D01*
X105914622Y-113187112D01*
X105910407Y-113034960D01*
X105904936Y-112928476D01*
X105896554Y-112857565D01*
X105883606Y-112812129D01*
X105864439Y-112782072D01*
X105837398Y-112757296D01*
X105757337Y-112713861D01*
X105658846Y-112705498D01*
X105570719Y-112738734D01*
X105507314Y-112807548D01*
X105482988Y-112905920D01*
X105482311Y-112932658D01*
X105469024Y-112981065D01*
X105429796Y-112988450D01*
X105352983Y-112959624D01*
X105335192Y-112950378D01*
X105287109Y-112896006D01*
X105286157Y-112815161D01*
X105331968Y-112703352D01*
X105373990Y-112642419D01*
X105481435Y-112555859D01*
X105614057Y-112506920D01*
X105755867Y-112500260D01*
X105890872Y-112540536D01*
G37*
X105890872Y-112540536D02*
X105900090Y-112545638D01*
X105975381Y-112604080D01*
X106042698Y-112679215D01*
X106054439Y-112696196D01*
X106076883Y-112735825D01*
X106092918Y-112782858D01*
X106103945Y-112847492D01*
X106111365Y-112939923D01*
X106116579Y-113070349D01*
X106120989Y-113248965D01*
X106121614Y-113279162D01*
X106123620Y-113474941D01*
X106120792Y-113613603D01*
X106113088Y-113696103D01*
X106100466Y-113723391D01*
X106062267Y-113715220D01*
X105997374Y-113690463D01*
X105982094Y-113683223D01*
X105958227Y-113666835D01*
X105941769Y-113639893D01*
X105931005Y-113592833D01*
X105924219Y-113516088D01*
X105919693Y-113400095D01*
X105915713Y-113235287D01*
X105914622Y-113187112D01*
X105910407Y-113034960D01*
X105904936Y-112928476D01*
X105896554Y-112857565D01*
X105883606Y-112812129D01*
X105864439Y-112782072D01*
X105837398Y-112757296D01*
X105757337Y-112713861D01*
X105658846Y-112705498D01*
X105570719Y-112738734D01*
X105507314Y-112807548D01*
X105482988Y-112905920D01*
X105482311Y-112932658D01*
X105469024Y-112981065D01*
X105429796Y-112988450D01*
X105352983Y-112959624D01*
X105335192Y-112950378D01*
X105287109Y-112896006D01*
X105286157Y-112815161D01*
X105331968Y-112703352D01*
X105373990Y-112642419D01*
X105481435Y-112555859D01*
X105614057Y-112506920D01*
X105755867Y-112500260D01*
X105890872Y-112540536D01*
G36*
X112133668Y-113438736D02*
G01*
X112134471Y-113503785D01*
X112137040Y-113721260D01*
X112137556Y-113887672D01*
X112134437Y-114008846D01*
X112126100Y-114090607D01*
X112110962Y-114138781D01*
X112087441Y-114159194D01*
X112053956Y-114157672D01*
X112008923Y-114140039D01*
X111950761Y-114112121D01*
X111938332Y-114106164D01*
X111886578Y-114077006D01*
X111859550Y-114042314D01*
X111849207Y-113984470D01*
X111847509Y-113885857D01*
X111847433Y-113708793D01*
X111665038Y-113708793D01*
X111552840Y-113703880D01*
X111464620Y-113683953D01*
X111391358Y-113643678D01*
X111385896Y-113639741D01*
X111311558Y-113573243D01*
X111259823Y-113492908D01*
X111227196Y-113387758D01*
X111210182Y-113246815D01*
X111206030Y-113087588D01*
X111497241Y-113087588D01*
X111497291Y-113114276D01*
X111500064Y-113234738D01*
X111508967Y-113313484D01*
X111526617Y-113364618D01*
X111555632Y-113402241D01*
X111557440Y-113404038D01*
X111628753Y-113452720D01*
X111697865Y-113447921D01*
X111775925Y-113388971D01*
X111795019Y-113368823D01*
X111823142Y-113327515D01*
X111839000Y-113273787D01*
X111846009Y-113192326D01*
X111847586Y-113067821D01*
X111846220Y-112992445D01*
X111831402Y-112855362D01*
X111797579Y-112765548D01*
X111741389Y-112716460D01*
X111659472Y-112701552D01*
X111624956Y-112704729D01*
X111565235Y-112736254D01*
X111525752Y-112806505D01*
X111503942Y-112921583D01*
X111497241Y-113087588D01*
X111206030Y-113087588D01*
X111205287Y-113059101D01*
X111206371Y-112922122D01*
X111211307Y-112818364D01*
X111222272Y-112746412D01*
X111241438Y-112692500D01*
X111270977Y-112642864D01*
X111298092Y-112604931D01*
X111396550Y-112502522D01*
X111508100Y-112446903D01*
X111648246Y-112429297D01*
X111808635Y-112446847D01*
X111947288Y-112509797D01*
X112056951Y-112620824D01*
X112065218Y-112632578D01*
X112084499Y-112663813D01*
X112099269Y-112699507D01*
X112110254Y-112747364D01*
X112118174Y-112815087D01*
X112123753Y-112910382D01*
X112127713Y-113040952D01*
X112128188Y-113067821D01*
X112130778Y-113214502D01*
X112133668Y-113438736D01*
G37*
X112133668Y-113438736D02*
X112134471Y-113503785D01*
X112137040Y-113721260D01*
X112137556Y-113887672D01*
X112134437Y-114008846D01*
X112126100Y-114090607D01*
X112110962Y-114138781D01*
X112087441Y-114159194D01*
X112053956Y-114157672D01*
X112008923Y-114140039D01*
X111950761Y-114112121D01*
X111938332Y-114106164D01*
X111886578Y-114077006D01*
X111859550Y-114042314D01*
X111849207Y-113984470D01*
X111847509Y-113885857D01*
X111847433Y-113708793D01*
X111665038Y-113708793D01*
X111552840Y-113703880D01*
X111464620Y-113683953D01*
X111391358Y-113643678D01*
X111385896Y-113639741D01*
X111311558Y-113573243D01*
X111259823Y-113492908D01*
X111227196Y-113387758D01*
X111210182Y-113246815D01*
X111206030Y-113087588D01*
X111497241Y-113087588D01*
X111497291Y-113114276D01*
X111500064Y-113234738D01*
X111508967Y-113313484D01*
X111526617Y-113364618D01*
X111555632Y-113402241D01*
X111557440Y-113404038D01*
X111628753Y-113452720D01*
X111697865Y-113447921D01*
X111775925Y-113388971D01*
X111795019Y-113368823D01*
X111823142Y-113327515D01*
X111839000Y-113273787D01*
X111846009Y-113192326D01*
X111847586Y-113067821D01*
X111846220Y-112992445D01*
X111831402Y-112855362D01*
X111797579Y-112765548D01*
X111741389Y-112716460D01*
X111659472Y-112701552D01*
X111624956Y-112704729D01*
X111565235Y-112736254D01*
X111525752Y-112806505D01*
X111503942Y-112921583D01*
X111497241Y-113087588D01*
X111206030Y-113087588D01*
X111205287Y-113059101D01*
X111206371Y-112922122D01*
X111211307Y-112818364D01*
X111222272Y-112746412D01*
X111241438Y-112692500D01*
X111270977Y-112642864D01*
X111298092Y-112604931D01*
X111396550Y-112502522D01*
X111508100Y-112446903D01*
X111648246Y-112429297D01*
X111808635Y-112446847D01*
X111947288Y-112509797D01*
X112056951Y-112620824D01*
X112065218Y-112632578D01*
X112084499Y-112663813D01*
X112099269Y-112699507D01*
X112110254Y-112747364D01*
X112118174Y-112815087D01*
X112123753Y-112910382D01*
X112127713Y-113040952D01*
X112128188Y-113067821D01*
X112130778Y-113214502D01*
X112133668Y-113438736D01*
G36*
X111020168Y-113219639D02*
G01*
X111014926Y-113266526D01*
X110975868Y-113433409D01*
X110905290Y-113560326D01*
X110797955Y-113657602D01*
X110791888Y-113661616D01*
X110655440Y-113718706D01*
X110512973Y-113723786D01*
X110375696Y-113680311D01*
X110254819Y-113591734D01*
X110161552Y-113461509D01*
X110159986Y-113458369D01*
X110128993Y-113377501D01*
X110106292Y-113285593D01*
X110094250Y-113199311D01*
X110095237Y-113135321D01*
X110111623Y-113110287D01*
X110126179Y-113111809D01*
X110195792Y-113139496D01*
X110274697Y-113190409D01*
X110341820Y-113249343D01*
X110376087Y-113301094D01*
X110411707Y-113371291D01*
X110484711Y-113435138D01*
X110569485Y-113460632D01*
X110600558Y-113453261D01*
X110661891Y-113416154D01*
X110715315Y-113364644D01*
X110738161Y-113317913D01*
X110738154Y-113317740D01*
X110712233Y-113296280D01*
X110643127Y-113257565D01*
X110541249Y-113207037D01*
X110417011Y-113150134D01*
X110416328Y-113149833D01*
X110281355Y-113089738D01*
X110190884Y-113046440D01*
X110136039Y-113013179D01*
X110107944Y-112983194D01*
X110097724Y-112949726D01*
X110096503Y-112906015D01*
X110104996Y-112823244D01*
X110393219Y-112823244D01*
X110422970Y-112849265D01*
X110497101Y-112888256D01*
X110499274Y-112889359D01*
X110586733Y-112931009D01*
X110664974Y-112964235D01*
X110714611Y-112978291D01*
X110734521Y-112959503D01*
X110738161Y-112895124D01*
X110723035Y-112815001D01*
X110670597Y-112742189D01*
X110594677Y-112704439D01*
X110510040Y-112708251D01*
X110431447Y-112760121D01*
X110400555Y-112795965D01*
X110393219Y-112823244D01*
X110104996Y-112823244D01*
X110107251Y-112801265D01*
X110160389Y-112658949D01*
X110249342Y-112547111D01*
X110364448Y-112469676D01*
X110496045Y-112430568D01*
X110634472Y-112433711D01*
X110770065Y-112483030D01*
X110893164Y-112582447D01*
X110961366Y-112680829D01*
X111010356Y-112821261D01*
X111018322Y-112895124D01*
X111029452Y-112998329D01*
X111020168Y-113219639D01*
G37*
X111020168Y-113219639D02*
X111014926Y-113266526D01*
X110975868Y-113433409D01*
X110905290Y-113560326D01*
X110797955Y-113657602D01*
X110791888Y-113661616D01*
X110655440Y-113718706D01*
X110512973Y-113723786D01*
X110375696Y-113680311D01*
X110254819Y-113591734D01*
X110161552Y-113461509D01*
X110159986Y-113458369D01*
X110128993Y-113377501D01*
X110106292Y-113285593D01*
X110094250Y-113199311D01*
X110095237Y-113135321D01*
X110111623Y-113110287D01*
X110126179Y-113111809D01*
X110195792Y-113139496D01*
X110274697Y-113190409D01*
X110341820Y-113249343D01*
X110376087Y-113301094D01*
X110411707Y-113371291D01*
X110484711Y-113435138D01*
X110569485Y-113460632D01*
X110600558Y-113453261D01*
X110661891Y-113416154D01*
X110715315Y-113364644D01*
X110738161Y-113317913D01*
X110738154Y-113317740D01*
X110712233Y-113296280D01*
X110643127Y-113257565D01*
X110541249Y-113207037D01*
X110417011Y-113150134D01*
X110416328Y-113149833D01*
X110281355Y-113089738D01*
X110190884Y-113046440D01*
X110136039Y-113013179D01*
X110107944Y-112983194D01*
X110097724Y-112949726D01*
X110096503Y-112906015D01*
X110104996Y-112823244D01*
X110393219Y-112823244D01*
X110422970Y-112849265D01*
X110497101Y-112888256D01*
X110499274Y-112889359D01*
X110586733Y-112931009D01*
X110664974Y-112964235D01*
X110714611Y-112978291D01*
X110734521Y-112959503D01*
X110738161Y-112895124D01*
X110723035Y-112815001D01*
X110670597Y-112742189D01*
X110594677Y-112704439D01*
X110510040Y-112708251D01*
X110431447Y-112760121D01*
X110400555Y-112795965D01*
X110393219Y-112823244D01*
X110104996Y-112823244D01*
X110107251Y-112801265D01*
X110160389Y-112658949D01*
X110249342Y-112547111D01*
X110364448Y-112469676D01*
X110496045Y-112430568D01*
X110634472Y-112433711D01*
X110770065Y-112483030D01*
X110893164Y-112582447D01*
X110961366Y-112680829D01*
X111010356Y-112821261D01*
X111018322Y-112895124D01*
X111029452Y-112998329D01*
X111020168Y-113219639D01*
G36*
X102591628Y-112499810D02*
G01*
X102654194Y-112515702D01*
X102712446Y-112555322D01*
X102787418Y-112629076D01*
X102835633Y-112681163D01*
X102885858Y-112748786D01*
X102908510Y-112812168D01*
X102913793Y-112892584D01*
X102913793Y-113024201D01*
X102824035Y-112977785D01*
X102752904Y-112921225D01*
X102704183Y-112845040D01*
X102695814Y-112824326D01*
X102632056Y-112744041D01*
X102543470Y-112703784D01*
X102446873Y-112707702D01*
X102359080Y-112759943D01*
X102321936Y-112802370D01*
X102300300Y-112856647D01*
X102323461Y-112904954D01*
X102395479Y-112953545D01*
X102520410Y-113008677D01*
X102539368Y-113016292D01*
X102653105Y-113066125D01*
X102750706Y-113115265D01*
X102812803Y-113154080D01*
X102874999Y-113223411D01*
X102916346Y-113334051D01*
X102911957Y-113452782D01*
X102863037Y-113565148D01*
X102770797Y-113656690D01*
X102696110Y-113695658D01*
X102551832Y-113722944D01*
X102471656Y-113719263D01*
X102397435Y-113699360D01*
X102368960Y-113657598D01*
X102379608Y-113588820D01*
X102382705Y-113579726D01*
X102407268Y-113531498D01*
X102448165Y-113513245D01*
X102526079Y-113514466D01*
X102581091Y-113516126D01*
X102645459Y-113501881D01*
X102689561Y-113459292D01*
X102714680Y-113406857D01*
X102717481Y-113351929D01*
X102717352Y-113351608D01*
X102684785Y-113321928D01*
X102615083Y-113278735D01*
X102524898Y-113230461D01*
X102430883Y-113185539D01*
X102349689Y-113152402D01*
X102297968Y-113139483D01*
X102290274Y-113152134D01*
X102280588Y-113211668D01*
X102273954Y-113308887D01*
X102271494Y-113431437D01*
X102270922Y-113516263D01*
X102268225Y-113623094D01*
X102263821Y-113696257D01*
X102258270Y-113723391D01*
X102229254Y-113714272D01*
X102170684Y-113689509D01*
X102096322Y-113655627D01*
X102096322Y-113220933D01*
X102096797Y-113109508D01*
X102101293Y-112940301D01*
X102112747Y-112814769D01*
X102133828Y-112723363D01*
X102167206Y-112656532D01*
X102215550Y-112604726D01*
X102281531Y-112558393D01*
X102365594Y-112520156D01*
X102520807Y-112497184D01*
X102591628Y-112499810D01*
G37*
X102591628Y-112499810D02*
X102654194Y-112515702D01*
X102712446Y-112555322D01*
X102787418Y-112629076D01*
X102835633Y-112681163D01*
X102885858Y-112748786D01*
X102908510Y-112812168D01*
X102913793Y-112892584D01*
X102913793Y-113024201D01*
X102824035Y-112977785D01*
X102752904Y-112921225D01*
X102704183Y-112845040D01*
X102695814Y-112824326D01*
X102632056Y-112744041D01*
X102543470Y-112703784D01*
X102446873Y-112707702D01*
X102359080Y-112759943D01*
X102321936Y-112802370D01*
X102300300Y-112856647D01*
X102323461Y-112904954D01*
X102395479Y-112953545D01*
X102520410Y-113008677D01*
X102539368Y-113016292D01*
X102653105Y-113066125D01*
X102750706Y-113115265D01*
X102812803Y-113154080D01*
X102874999Y-113223411D01*
X102916346Y-113334051D01*
X102911957Y-113452782D01*
X102863037Y-113565148D01*
X102770797Y-113656690D01*
X102696110Y-113695658D01*
X102551832Y-113722944D01*
X102471656Y-113719263D01*
X102397435Y-113699360D01*
X102368960Y-113657598D01*
X102379608Y-113588820D01*
X102382705Y-113579726D01*
X102407268Y-113531498D01*
X102448165Y-113513245D01*
X102526079Y-113514466D01*
X102581091Y-113516126D01*
X102645459Y-113501881D01*
X102689561Y-113459292D01*
X102714680Y-113406857D01*
X102717481Y-113351929D01*
X102717352Y-113351608D01*
X102684785Y-113321928D01*
X102615083Y-113278735D01*
X102524898Y-113230461D01*
X102430883Y-113185539D01*
X102349689Y-113152402D01*
X102297968Y-113139483D01*
X102290274Y-113152134D01*
X102280588Y-113211668D01*
X102273954Y-113308887D01*
X102271494Y-113431437D01*
X102270922Y-113516263D01*
X102268225Y-113623094D01*
X102263821Y-113696257D01*
X102258270Y-113723391D01*
X102229254Y-113714272D01*
X102170684Y-113689509D01*
X102096322Y-113655627D01*
X102096322Y-113220933D01*
X102096797Y-113109508D01*
X102101293Y-112940301D01*
X102112747Y-112814769D01*
X102133828Y-112723363D01*
X102167206Y-112656532D01*
X102215550Y-112604726D01*
X102281531Y-112558393D01*
X102365594Y-112520156D01*
X102520807Y-112497184D01*
X102591628Y-112499810D01*
G36*
X109558487Y-112442689D02*
G01*
X109694848Y-112506770D01*
X109806598Y-112617584D01*
X109829761Y-112652273D01*
X109848973Y-112691590D01*
X109862598Y-112741145D01*
X109871877Y-112810568D01*
X109878050Y-112909490D01*
X109882357Y-113047539D01*
X109886038Y-113234346D01*
X109895180Y-113752542D01*
X109818383Y-113723344D01*
X109748068Y-113696520D01*
X109695424Y-113670706D01*
X109661060Y-113637431D01*
X109641093Y-113586510D01*
X109631639Y-113507761D01*
X109628814Y-113390999D01*
X109628736Y-113226042D01*
X109628336Y-113094558D01*
X109625951Y-112968394D01*
X109620259Y-112882223D01*
X109609961Y-112825672D01*
X109593755Y-112788370D01*
X109570345Y-112759943D01*
X109512793Y-112719827D01*
X109416112Y-112704706D01*
X109320465Y-112742917D01*
X109314152Y-112747810D01*
X109294477Y-112770413D01*
X109279963Y-112806664D01*
X109269394Y-112865511D01*
X109261555Y-112955901D01*
X109255227Y-113086779D01*
X109249195Y-113267095D01*
X109234598Y-113749907D01*
X109110517Y-113694283D01*
X108986437Y-113638659D01*
X108986437Y-113197851D01*
X108986951Y-113078098D01*
X108991380Y-112911506D01*
X109002594Y-112787468D01*
X109023272Y-112695987D01*
X109056093Y-112627066D01*
X109103736Y-112570707D01*
X109168877Y-112516914D01*
X109262571Y-112462719D01*
X109410175Y-112427339D01*
X109558487Y-112442689D01*
G37*
X109558487Y-112442689D02*
X109694848Y-112506770D01*
X109806598Y-112617584D01*
X109829761Y-112652273D01*
X109848973Y-112691590D01*
X109862598Y-112741145D01*
X109871877Y-112810568D01*
X109878050Y-112909490D01*
X109882357Y-113047539D01*
X109886038Y-113234346D01*
X109895180Y-113752542D01*
X109818383Y-113723344D01*
X109748068Y-113696520D01*
X109695424Y-113670706D01*
X109661060Y-113637431D01*
X109641093Y-113586510D01*
X109631639Y-113507761D01*
X109628814Y-113390999D01*
X109628736Y-113226042D01*
X109628336Y-113094558D01*
X109625951Y-112968394D01*
X109620259Y-112882223D01*
X109609961Y-112825672D01*
X109593755Y-112788370D01*
X109570345Y-112759943D01*
X109512793Y-112719827D01*
X109416112Y-112704706D01*
X109320465Y-112742917D01*
X109314152Y-112747810D01*
X109294477Y-112770413D01*
X109279963Y-112806664D01*
X109269394Y-112865511D01*
X109261555Y-112955901D01*
X109255227Y-113086779D01*
X109249195Y-113267095D01*
X109234598Y-113749907D01*
X109110517Y-113694283D01*
X108986437Y-113638659D01*
X108986437Y-113197851D01*
X108986951Y-113078098D01*
X108991380Y-112911506D01*
X109002594Y-112787468D01*
X109023272Y-112695987D01*
X109056093Y-112627066D01*
X109103736Y-112570707D01*
X109168877Y-112516914D01*
X109262571Y-112462719D01*
X109410175Y-112427339D01*
X109558487Y-112442689D01*
G36*
X101616725Y-112509619D02*
G01*
X101737261Y-112554393D01*
X101787388Y-112588034D01*
X101838152Y-112636236D01*
X101874362Y-112697551D01*
X101898393Y-112781024D01*
X101912618Y-112895697D01*
X101919412Y-113050613D01*
X101921149Y-113254814D01*
X101920809Y-113360341D01*
X101919101Y-113504541D01*
X101916201Y-113619620D01*
X101912384Y-113695822D01*
X101907925Y-113723391D01*
X101878909Y-113714272D01*
X101820339Y-113689509D01*
X101818581Y-113688707D01*
X101788167Y-113672785D01*
X101767712Y-113650938D01*
X101755240Y-113612672D01*
X101748777Y-113547495D01*
X101746348Y-113444913D01*
X101745977Y-113294433D01*
X101745229Y-113198974D01*
X101737256Y-113019571D01*
X101718998Y-112888163D01*
X101688526Y-112797859D01*
X101643912Y-112741767D01*
X101583226Y-112712994D01*
X101574807Y-112710989D01*
X101461139Y-112709423D01*
X101372492Y-112760348D01*
X101311265Y-112862445D01*
X101300346Y-112891961D01*
X101275458Y-112957283D01*
X101262854Y-112987300D01*
X101236969Y-112983164D01*
X101180439Y-112960717D01*
X101127715Y-112923647D01*
X101103678Y-112853587D01*
X101110847Y-112803406D01*
X101154897Y-112701618D01*
X101226123Y-112606235D01*
X101309415Y-112540269D01*
X101344310Y-112525018D01*
X101476443Y-112499521D01*
X101616725Y-112509619D01*
G37*
X101616725Y-112509619D02*
X101737261Y-112554393D01*
X101787388Y-112588034D01*
X101838152Y-112636236D01*
X101874362Y-112697551D01*
X101898393Y-112781024D01*
X101912618Y-112895697D01*
X101919412Y-113050613D01*
X101921149Y-113254814D01*
X101920809Y-113360341D01*
X101919101Y-113504541D01*
X101916201Y-113619620D01*
X101912384Y-113695822D01*
X101907925Y-113723391D01*
X101878909Y-113714272D01*
X101820339Y-113689509D01*
X101818581Y-113688707D01*
X101788167Y-113672785D01*
X101767712Y-113650938D01*
X101755240Y-113612672D01*
X101748777Y-113547495D01*
X101746348Y-113444913D01*
X101745977Y-113294433D01*
X101745229Y-113198974D01*
X101737256Y-113019571D01*
X101718998Y-112888163D01*
X101688526Y-112797859D01*
X101643912Y-112741767D01*
X101583226Y-112712994D01*
X101574807Y-112710989D01*
X101461139Y-112709423D01*
X101372492Y-112760348D01*
X101311265Y-112862445D01*
X101300346Y-112891961D01*
X101275458Y-112957283D01*
X101262854Y-112987300D01*
X101236969Y-112983164D01*
X101180439Y-112960717D01*
X101127715Y-112923647D01*
X101103678Y-112853587D01*
X101110847Y-112803406D01*
X101154897Y-112701618D01*
X101226123Y-112606235D01*
X101309415Y-112540269D01*
X101344310Y-112525018D01*
X101476443Y-112499521D01*
X101616725Y-112509619D01*
%TD*%
%LPC*%
D12*
%TO.C,J9*%
X116840000Y-45720000D03*
D13*
X119380000Y-45720000D03*
X116840000Y-48260000D03*
X119380000Y-48260000D03*
X116840000Y-50800000D03*
X119380000Y-50800000D03*
X116840000Y-53340000D03*
X119380000Y-53340000D03*
X116840000Y-55880000D03*
X119380000Y-55880000D03*
X116840000Y-58420000D03*
X119380000Y-58420000D03*
X116840000Y-60960000D03*
X119380000Y-60960000D03*
X116840000Y-63500000D03*
X119380000Y-63500000D03*
X116840000Y-66040000D03*
X119380000Y-66040000D03*
X116840000Y-68580000D03*
X119380000Y-68580000D03*
X116840000Y-71120000D03*
X119380000Y-71120000D03*
X116840000Y-73660000D03*
X119380000Y-73660000D03*
X116840000Y-76200000D03*
X119380000Y-76200000D03*
X116840000Y-78740000D03*
X119380000Y-78740000D03*
X116840000Y-81280000D03*
X119380000Y-81280000D03*
X116840000Y-83820000D03*
X119380000Y-83820000D03*
X116840000Y-86360000D03*
X119380000Y-86360000D03*
X116840000Y-88900000D03*
X119380000Y-88900000D03*
X116840000Y-91440000D03*
X119380000Y-91440000D03*
X116840000Y-93980000D03*
X119380000Y-93980000D03*
X116840000Y-96520000D03*
X119380000Y-96520000D03*
X116840000Y-99060000D03*
X119380000Y-99060000D03*
X116840000Y-101600000D03*
X119380000Y-101600000D03*
%TD*%
D12*
%TO.C,J8*%
X165100000Y-45720000D03*
D13*
X167640000Y-45720000D03*
X165100000Y-48260000D03*
X167640000Y-48260000D03*
X165100000Y-50800000D03*
X167640000Y-50800000D03*
X165100000Y-53340000D03*
X167640000Y-53340000D03*
X165100000Y-55880000D03*
X167640000Y-55880000D03*
X165100000Y-58420000D03*
X167640000Y-58420000D03*
X165100000Y-60960000D03*
X167640000Y-60960000D03*
X165100000Y-63500000D03*
X167640000Y-63500000D03*
X165100000Y-66040000D03*
X167640000Y-66040000D03*
X165100000Y-68580000D03*
X167640000Y-68580000D03*
X165100000Y-71120000D03*
X167640000Y-71120000D03*
X165100000Y-73660000D03*
X167640000Y-73660000D03*
X165100000Y-76200000D03*
X167640000Y-76200000D03*
X165100000Y-78740000D03*
X167640000Y-78740000D03*
X165100000Y-81280000D03*
X167640000Y-81280000D03*
X165100000Y-83820000D03*
X167640000Y-83820000D03*
X165100000Y-86360000D03*
X167640000Y-86360000D03*
X165100000Y-88900000D03*
X167640000Y-88900000D03*
X165100000Y-91440000D03*
X167640000Y-91440000D03*
X165100000Y-93980000D03*
X167640000Y-93980000D03*
X165100000Y-96520000D03*
X167640000Y-96520000D03*
X165100000Y-99060000D03*
X167640000Y-99060000D03*
X165100000Y-101600000D03*
X167640000Y-101600000D03*
%TD*%
D12*
%TO.C,J20*%
X95823469Y-99033400D03*
D13*
X95823469Y-96493400D03*
X95823469Y-93953400D03*
X95823469Y-91413400D03*
X95823469Y-88873400D03*
X95823469Y-86333400D03*
X93283469Y-99033400D03*
X93283469Y-96493400D03*
X93283469Y-93953400D03*
X93283469Y-91413400D03*
X93283469Y-88873400D03*
X93283469Y-86333400D03*
%TD*%
D12*
%TO.C,JP5*%
X161163000Y-61971000D03*
D13*
X161163000Y-64511000D03*
%TD*%
D14*
%TO.C,J2*%
X106680000Y-68580000D03*
D13*
X109220000Y-68580000D03*
%TD*%
D15*
%TO.C,J16*%
X141745000Y-133426200D03*
D13*
X141745000Y-130886200D03*
X141745000Y-128346200D03*
X141745000Y-125806200D03*
X141745000Y-123266200D03*
X141745000Y-120726200D03*
%TD*%
D16*
%TO.C,J21*%
X96965342Y-110820989D03*
X96965342Y-113320989D03*
X96965342Y-115320989D03*
X96965342Y-117820989D03*
X98465342Y-118320989D03*
X98465342Y-116320989D03*
X98465342Y-114320989D03*
X98465342Y-112320989D03*
X98465342Y-110320989D03*
D17*
X94965342Y-107750989D03*
X94965342Y-120890989D03*
%TD*%
D18*
%TO.C,JP8*%
X147980400Y-88087200D03*
D13*
X150520400Y-88087200D03*
X153060400Y-88087200D03*
%TD*%
D15*
%TO.C,J10*%
X136539669Y-82625000D03*
D13*
X136539669Y-80085000D03*
X136539669Y-77545000D03*
X136539669Y-75005000D03*
X136539669Y-72465000D03*
X136539669Y-69925000D03*
%TD*%
D12*
%TO.C,J11*%
X106680000Y-53340000D03*
D13*
X106680000Y-55880000D03*
X106680000Y-58420000D03*
X106680000Y-60960000D03*
X106680000Y-63500000D03*
X106680000Y-66040000D03*
X109220000Y-53340000D03*
X109220000Y-55880000D03*
X109220000Y-58420000D03*
X109220000Y-60960000D03*
X109220000Y-63500000D03*
X109220000Y-66040000D03*
%TD*%
D12*
%TO.C,JP4*%
X113030000Y-48255000D03*
D13*
X113030000Y-50795000D03*
%TD*%
D19*
%TO.C,J5*%
X131359200Y-48387000D03*
D20*
X133950000Y-48387000D03*
X129301800Y-48387000D03*
X136007400Y-48387000D03*
X129301800Y-50876200D03*
X136007400Y-50876200D03*
D21*
X125898200Y-45389800D03*
X132654600Y-44577000D03*
X139411000Y-45389800D03*
%TD*%
D22*
%TO.C,J1*%
X88490269Y-47623600D03*
X88490269Y-72623600D03*
D23*
X90540269Y-64438600D03*
D24*
X90540269Y-62148600D03*
X90540269Y-59858600D03*
X90540269Y-57568600D03*
X90540269Y-55278600D03*
X88560269Y-65583600D03*
X88560269Y-63293600D03*
X88560269Y-61003600D03*
X88560269Y-58713600D03*
X88560269Y-56423600D03*
X86580269Y-64438600D03*
X86580269Y-62148600D03*
X86580269Y-59858600D03*
X86580269Y-57568600D03*
X86580269Y-55278600D03*
%TD*%
D14*
%TO.C,J3*%
X106680000Y-73660000D03*
D13*
X109220000Y-73660000D03*
%TD*%
D12*
%TO.C,J14*%
X123355000Y-86964200D03*
D13*
X123355000Y-89504200D03*
%TD*%
D19*
%TO.C,J19*%
X150444200Y-48387000D03*
D20*
X153035000Y-48387000D03*
X148386800Y-48387000D03*
X155092400Y-48387000D03*
X148386800Y-50876200D03*
X155092400Y-50876200D03*
D21*
X144983200Y-45389800D03*
X151739600Y-44577000D03*
X158496000Y-45389800D03*
%TD*%
D18*
%TO.C,J15*%
X172987000Y-45669200D03*
D13*
X175527000Y-45669200D03*
X178067000Y-45669200D03*
%TD*%
D22*
%TO.C,J4*%
X174074338Y-136335000D03*
X174074338Y-111335000D03*
D25*
X172654338Y-129375000D03*
D24*
X172654338Y-126605000D03*
X172654338Y-123835000D03*
X172654338Y-121065000D03*
X172654338Y-118295000D03*
X175494338Y-127990000D03*
X175494338Y-125220000D03*
X175494338Y-122450000D03*
X175494338Y-119680000D03*
%TD*%
D15*
%TO.C,J18*%
X127013000Y-92009200D03*
D13*
X127013000Y-89469200D03*
X127013000Y-86929200D03*
%TD*%
D12*
%TO.C,JP6*%
X161163000Y-85090000D03*
D13*
X161163000Y-87630000D03*
%TD*%
D18*
%TO.C,J17*%
X106680000Y-71120000D03*
D13*
X109220000Y-71120000D03*
%TD*%
D12*
%TO.C,JP9*%
X116840000Y-107950000D03*
D13*
X116840000Y-110490000D03*
X116840000Y-113030000D03*
%TD*%
D12*
%TO.C,J12*%
X106680000Y-76200000D03*
D13*
X106680000Y-78740000D03*
X106680000Y-81280000D03*
X106680000Y-83820000D03*
X106680000Y-86360000D03*
X106680000Y-88900000D03*
X109220000Y-76200000D03*
X109220000Y-78740000D03*
X109220000Y-81280000D03*
X109220000Y-83820000D03*
X109220000Y-86360000D03*
X109220000Y-88900000D03*
%TD*%
D26*
%TO.C,JP1*%
X91459669Y-82625000D03*
D13*
X88919669Y-82625000D03*
%TD*%
D12*
%TO.C,J7*%
X172043185Y-94360000D03*
D13*
X172043185Y-96900000D03*
X172043185Y-99440000D03*
%TD*%
D12*
%TO.C,J6*%
X178138185Y-53340000D03*
D13*
X180678185Y-53340000D03*
X178138185Y-55880000D03*
X180678185Y-55880000D03*
X178138185Y-58420000D03*
X180678185Y-58420000D03*
X178138185Y-60960000D03*
X180678185Y-60960000D03*
X178138185Y-63500000D03*
X180678185Y-63500000D03*
X178138185Y-66040000D03*
X180678185Y-66040000D03*
X178138185Y-68580000D03*
X180678185Y-68580000D03*
X178138185Y-71120000D03*
X180678185Y-71120000D03*
X178138185Y-73660000D03*
X180678185Y-73660000D03*
X178138185Y-76200000D03*
X180678185Y-76200000D03*
X178138185Y-78740000D03*
X180678185Y-78740000D03*
X178138185Y-81280000D03*
X180678185Y-81280000D03*
X178138185Y-83820000D03*
X180678185Y-83820000D03*
X178138185Y-86360000D03*
X180678185Y-86360000D03*
X178138185Y-88900000D03*
X180678185Y-88900000D03*
X178138185Y-91440000D03*
X180678185Y-91440000D03*
X178138185Y-93980000D03*
X180678185Y-93980000D03*
X178138185Y-96520000D03*
X180678185Y-96520000D03*
X178138185Y-99060000D03*
X180678185Y-99060000D03*
X178138185Y-101600000D03*
X180678185Y-101600000D03*
%TD*%
M02*
