%TF.GenerationSoftware,KiCad,Pcbnew,6.0.9-8da3e8f707~117~ubuntu20.04.1*%
%TF.CreationDate,2022-12-25T13:31:21+01:00*%
%TF.ProjectId,arrow_deca_retro_cape,6172726f-775f-4646-9563-615f72657472,0.90*%
%TF.SameCoordinates,Original*%
%TF.FileFunction,Other,Comment*%
%FSLAX46Y46*%
G04 Gerber Fmt 4.6, Leading zero omitted, Abs format (unit mm)*
G04 Created by KiCad (PCBNEW 6.0.9-8da3e8f707~117~ubuntu20.04.1) date 2022-12-25 13:31:21*
%MOMM*%
%LPD*%
G01*
G04 APERTURE LIST*
%ADD10C,0.200000*%
%ADD11C,0.400000*%
%ADD12C,0.150000*%
%ADD13C,0.100000*%
G04 APERTURE END LIST*
D10*
X77545085Y-186492971D02*
X77545085Y-184992971D01*
X78402228Y-186492971D01*
X78402228Y-184992971D01*
X79330800Y-186492971D02*
X79187943Y-186421542D01*
X79116514Y-186350114D01*
X79045085Y-186207257D01*
X79045085Y-185778685D01*
X79116514Y-185635828D01*
X79187943Y-185564400D01*
X79330800Y-185492971D01*
X79545085Y-185492971D01*
X79687943Y-185564400D01*
X79759371Y-185635828D01*
X79830800Y-185778685D01*
X79830800Y-186207257D01*
X79759371Y-186350114D01*
X79687943Y-186421542D01*
X79545085Y-186492971D01*
X79330800Y-186492971D01*
X111602228Y-182277971D02*
X111602228Y-180777971D01*
X112316514Y-182277971D02*
X112316514Y-181277971D01*
X112316514Y-181420828D02*
X112387943Y-181349400D01*
X112530800Y-181277971D01*
X112745086Y-181277971D01*
X112887943Y-181349400D01*
X112959371Y-181492257D01*
X112959371Y-182277971D01*
X112959371Y-181492257D02*
X113030800Y-181349400D01*
X113173657Y-181277971D01*
X113387943Y-181277971D01*
X113530800Y-181349400D01*
X113602228Y-181492257D01*
X113602228Y-182277971D01*
X114316514Y-181277971D02*
X114316514Y-182777971D01*
X114316514Y-181349400D02*
X114459371Y-181277971D01*
X114745086Y-181277971D01*
X114887943Y-181349400D01*
X114959371Y-181420828D01*
X115030800Y-181563685D01*
X115030800Y-181992257D01*
X114959371Y-182135114D01*
X114887943Y-182206542D01*
X114745086Y-182277971D01*
X114459371Y-182277971D01*
X114316514Y-182206542D01*
X116245086Y-182206542D02*
X116102228Y-182277971D01*
X115816514Y-182277971D01*
X115673657Y-182206542D01*
X115602228Y-182063685D01*
X115602228Y-181492257D01*
X115673657Y-181349400D01*
X115816514Y-181277971D01*
X116102228Y-181277971D01*
X116245086Y-181349400D01*
X116316514Y-181492257D01*
X116316514Y-181635114D01*
X115602228Y-181777971D01*
X117602228Y-182277971D02*
X117602228Y-180777971D01*
X117602228Y-182206542D02*
X117459371Y-182277971D01*
X117173657Y-182277971D01*
X117030800Y-182206542D01*
X116959371Y-182135114D01*
X116887943Y-181992257D01*
X116887943Y-181563685D01*
X116959371Y-181420828D01*
X117030800Y-181349400D01*
X117173657Y-181277971D01*
X117459371Y-181277971D01*
X117602228Y-181349400D01*
X118959371Y-182277971D02*
X118959371Y-181492257D01*
X118887943Y-181349400D01*
X118745086Y-181277971D01*
X118459371Y-181277971D01*
X118316514Y-181349400D01*
X118959371Y-182206542D02*
X118816514Y-182277971D01*
X118459371Y-182277971D01*
X118316514Y-182206542D01*
X118245086Y-182063685D01*
X118245086Y-181920828D01*
X118316514Y-181777971D01*
X118459371Y-181706542D01*
X118816514Y-181706542D01*
X118959371Y-181635114D01*
X119673657Y-181277971D02*
X119673657Y-182277971D01*
X119673657Y-181420828D02*
X119745086Y-181349400D01*
X119887943Y-181277971D01*
X120102228Y-181277971D01*
X120245086Y-181349400D01*
X120316514Y-181492257D01*
X120316514Y-182277971D01*
X121673657Y-182206542D02*
X121530800Y-182277971D01*
X121245086Y-182277971D01*
X121102228Y-182206542D01*
X121030800Y-182135114D01*
X120959371Y-181992257D01*
X120959371Y-181563685D01*
X121030800Y-181420828D01*
X121102228Y-181349400D01*
X121245086Y-181277971D01*
X121530800Y-181277971D01*
X121673657Y-181349400D01*
X122887943Y-182206542D02*
X122745086Y-182277971D01*
X122459371Y-182277971D01*
X122316514Y-182206542D01*
X122245086Y-182063685D01*
X122245086Y-181492257D01*
X122316514Y-181349400D01*
X122459371Y-181277971D01*
X122745086Y-181277971D01*
X122887943Y-181349400D01*
X122959371Y-181492257D01*
X122959371Y-181635114D01*
X122245086Y-181777971D01*
X125602228Y-182135114D02*
X125530800Y-182206542D01*
X125316514Y-182277971D01*
X125173657Y-182277971D01*
X124959371Y-182206542D01*
X124816514Y-182063685D01*
X124745086Y-181920828D01*
X124673657Y-181635114D01*
X124673657Y-181420828D01*
X124745086Y-181135114D01*
X124816514Y-180992257D01*
X124959371Y-180849400D01*
X125173657Y-180777971D01*
X125316514Y-180777971D01*
X125530800Y-180849400D01*
X125602228Y-180920828D01*
X126459371Y-182277971D02*
X126316514Y-182206542D01*
X126245086Y-182135114D01*
X126173657Y-181992257D01*
X126173657Y-181563685D01*
X126245086Y-181420828D01*
X126316514Y-181349400D01*
X126459371Y-181277971D01*
X126673657Y-181277971D01*
X126816514Y-181349400D01*
X126887943Y-181420828D01*
X126959371Y-181563685D01*
X126959371Y-181992257D01*
X126887943Y-182135114D01*
X126816514Y-182206542D01*
X126673657Y-182277971D01*
X126459371Y-182277971D01*
X127602228Y-181277971D02*
X127602228Y-182277971D01*
X127602228Y-181420828D02*
X127673657Y-181349400D01*
X127816514Y-181277971D01*
X128030800Y-181277971D01*
X128173657Y-181349400D01*
X128245086Y-181492257D01*
X128245086Y-182277971D01*
X128745086Y-181277971D02*
X129316514Y-181277971D01*
X128959371Y-180777971D02*
X128959371Y-182063685D01*
X129030800Y-182206542D01*
X129173657Y-182277971D01*
X129316514Y-182277971D01*
X129816514Y-182277971D02*
X129816514Y-181277971D01*
X129816514Y-181563685D02*
X129887943Y-181420828D01*
X129959371Y-181349400D01*
X130102228Y-181277971D01*
X130245086Y-181277971D01*
X130959371Y-182277971D02*
X130816514Y-182206542D01*
X130745086Y-182135114D01*
X130673657Y-181992257D01*
X130673657Y-181563685D01*
X130745086Y-181420828D01*
X130816514Y-181349400D01*
X130959371Y-181277971D01*
X131173657Y-181277971D01*
X131316514Y-181349400D01*
X131387943Y-181420828D01*
X131459371Y-181563685D01*
X131459371Y-181992257D01*
X131387943Y-182135114D01*
X131316514Y-182206542D01*
X131173657Y-182277971D01*
X130959371Y-182277971D01*
X132316514Y-182277971D02*
X132173657Y-182206542D01*
X132102228Y-182063685D01*
X132102228Y-180777971D01*
X132887943Y-182135114D02*
X132959371Y-182206542D01*
X132887943Y-182277971D01*
X132816514Y-182206542D01*
X132887943Y-182135114D01*
X132887943Y-182277971D01*
X132887943Y-181349400D02*
X132959371Y-181420828D01*
X132887943Y-181492257D01*
X132816514Y-181420828D01*
X132887943Y-181349400D01*
X132887943Y-181492257D01*
X136445085Y-182277971D02*
X136445085Y-180777971D01*
X137302228Y-182277971D01*
X137302228Y-180777971D01*
X138230800Y-182277971D02*
X138087943Y-182206542D01*
X138016514Y-182135114D01*
X137945085Y-181992257D01*
X137945085Y-181563685D01*
X138016514Y-181420828D01*
X138087943Y-181349400D01*
X138230800Y-181277971D01*
X138445085Y-181277971D01*
X138587943Y-181349400D01*
X138659371Y-181420828D01*
X138730800Y-181563685D01*
X138730800Y-181992257D01*
X138659371Y-182135114D01*
X138587943Y-182206542D01*
X138445085Y-182277971D01*
X138230800Y-182277971D01*
X111602228Y-178062971D02*
X111602228Y-176562971D01*
X112102228Y-177634400D01*
X112602228Y-176562971D01*
X112602228Y-178062971D01*
X113316514Y-178062971D02*
X113316514Y-177062971D01*
X113316514Y-176562971D02*
X113245086Y-176634400D01*
X113316514Y-176705828D01*
X113387943Y-176634400D01*
X113316514Y-176562971D01*
X113316514Y-176705828D01*
X114030800Y-177062971D02*
X114030800Y-178062971D01*
X114030800Y-177205828D02*
X114102228Y-177134400D01*
X114245086Y-177062971D01*
X114459371Y-177062971D01*
X114602228Y-177134400D01*
X114673657Y-177277257D01*
X114673657Y-178062971D01*
X116530800Y-178062971D02*
X116530800Y-176562971D01*
X117173657Y-178062971D02*
X117173657Y-177277257D01*
X117102228Y-177134400D01*
X116959371Y-177062971D01*
X116745086Y-177062971D01*
X116602228Y-177134400D01*
X116530800Y-177205828D01*
X118102228Y-178062971D02*
X117959371Y-177991542D01*
X117887943Y-177920114D01*
X117816514Y-177777257D01*
X117816514Y-177348685D01*
X117887943Y-177205828D01*
X117959371Y-177134400D01*
X118102228Y-177062971D01*
X118316514Y-177062971D01*
X118459371Y-177134400D01*
X118530800Y-177205828D01*
X118602228Y-177348685D01*
X118602228Y-177777257D01*
X118530800Y-177920114D01*
X118459371Y-177991542D01*
X118316514Y-178062971D01*
X118102228Y-178062971D01*
X119459371Y-178062971D02*
X119316514Y-177991542D01*
X119245086Y-177848685D01*
X119245086Y-176562971D01*
X120602228Y-177991542D02*
X120459371Y-178062971D01*
X120173657Y-178062971D01*
X120030800Y-177991542D01*
X119959371Y-177848685D01*
X119959371Y-177277257D01*
X120030800Y-177134400D01*
X120173657Y-177062971D01*
X120459371Y-177062971D01*
X120602228Y-177134400D01*
X120673657Y-177277257D01*
X120673657Y-177420114D01*
X119959371Y-177562971D01*
X123102228Y-178062971D02*
X123102228Y-176562971D01*
X123102228Y-177991542D02*
X122959371Y-178062971D01*
X122673657Y-178062971D01*
X122530800Y-177991542D01*
X122459371Y-177920114D01*
X122387943Y-177777257D01*
X122387943Y-177348685D01*
X122459371Y-177205828D01*
X122530800Y-177134400D01*
X122673657Y-177062971D01*
X122959371Y-177062971D01*
X123102228Y-177134400D01*
X123816514Y-178062971D02*
X123816514Y-177062971D01*
X123816514Y-176562971D02*
X123745086Y-176634400D01*
X123816514Y-176705828D01*
X123887943Y-176634400D01*
X123816514Y-176562971D01*
X123816514Y-176705828D01*
X125173657Y-178062971D02*
X125173657Y-177277257D01*
X125102228Y-177134400D01*
X124959371Y-177062971D01*
X124673657Y-177062971D01*
X124530800Y-177134400D01*
X125173657Y-177991542D02*
X125030800Y-178062971D01*
X124673657Y-178062971D01*
X124530800Y-177991542D01*
X124459371Y-177848685D01*
X124459371Y-177705828D01*
X124530800Y-177562971D01*
X124673657Y-177491542D01*
X125030800Y-177491542D01*
X125173657Y-177420114D01*
X125887943Y-178062971D02*
X125887943Y-177062971D01*
X125887943Y-177205828D02*
X125959371Y-177134400D01*
X126102228Y-177062971D01*
X126316514Y-177062971D01*
X126459371Y-177134400D01*
X126530800Y-177277257D01*
X126530800Y-178062971D01*
X126530800Y-177277257D02*
X126602228Y-177134400D01*
X126745086Y-177062971D01*
X126959371Y-177062971D01*
X127102228Y-177134400D01*
X127173657Y-177277257D01*
X127173657Y-178062971D01*
X128459371Y-177991542D02*
X128316514Y-178062971D01*
X128030800Y-178062971D01*
X127887943Y-177991542D01*
X127816514Y-177848685D01*
X127816514Y-177277257D01*
X127887943Y-177134400D01*
X128030800Y-177062971D01*
X128316514Y-177062971D01*
X128459371Y-177134400D01*
X128530800Y-177277257D01*
X128530800Y-177420114D01*
X127816514Y-177562971D01*
X128959371Y-177062971D02*
X129530800Y-177062971D01*
X129173657Y-176562971D02*
X129173657Y-177848685D01*
X129245086Y-177991542D01*
X129387943Y-178062971D01*
X129530800Y-178062971D01*
X130602228Y-177991542D02*
X130459371Y-178062971D01*
X130173657Y-178062971D01*
X130030800Y-177991542D01*
X129959371Y-177848685D01*
X129959371Y-177277257D01*
X130030800Y-177134400D01*
X130173657Y-177062971D01*
X130459371Y-177062971D01*
X130602228Y-177134400D01*
X130673657Y-177277257D01*
X130673657Y-177420114D01*
X129959371Y-177562971D01*
X131316514Y-178062971D02*
X131316514Y-177062971D01*
X131316514Y-177348685D02*
X131387943Y-177205828D01*
X131459371Y-177134400D01*
X131602228Y-177062971D01*
X131745086Y-177062971D01*
X132245086Y-177920114D02*
X132316514Y-177991542D01*
X132245086Y-178062971D01*
X132173657Y-177991542D01*
X132245086Y-177920114D01*
X132245086Y-178062971D01*
X132245086Y-177134400D02*
X132316514Y-177205828D01*
X132245086Y-177277257D01*
X132173657Y-177205828D01*
X132245086Y-177134400D01*
X132245086Y-177277257D01*
X111602228Y-186492971D02*
X111602228Y-184992971D01*
X112173657Y-184992971D01*
X112316514Y-185064400D01*
X112387943Y-185135828D01*
X112459371Y-185278685D01*
X112459371Y-185492971D01*
X112387943Y-185635828D01*
X112316514Y-185707257D01*
X112173657Y-185778685D01*
X111602228Y-185778685D01*
X113316514Y-186492971D02*
X113173657Y-186421542D01*
X113102228Y-186278685D01*
X113102228Y-184992971D01*
X114530800Y-186492971D02*
X114530800Y-185707257D01*
X114459371Y-185564400D01*
X114316514Y-185492971D01*
X114030800Y-185492971D01*
X113887943Y-185564400D01*
X114530800Y-186421542D02*
X114387943Y-186492971D01*
X114030800Y-186492971D01*
X113887943Y-186421542D01*
X113816514Y-186278685D01*
X113816514Y-186135828D01*
X113887943Y-185992971D01*
X114030800Y-185921542D01*
X114387943Y-185921542D01*
X114530800Y-185850114D01*
X115030800Y-185492971D02*
X115602228Y-185492971D01*
X115245086Y-184992971D02*
X115245086Y-186278685D01*
X115316514Y-186421542D01*
X115459371Y-186492971D01*
X115602228Y-186492971D01*
X116673657Y-186421542D02*
X116530800Y-186492971D01*
X116245086Y-186492971D01*
X116102228Y-186421542D01*
X116030800Y-186278685D01*
X116030800Y-185707257D01*
X116102228Y-185564400D01*
X116245086Y-185492971D01*
X116530800Y-185492971D01*
X116673657Y-185564400D01*
X116745086Y-185707257D01*
X116745086Y-185850114D01*
X116030800Y-185992971D01*
X118030800Y-186492971D02*
X118030800Y-184992971D01*
X118030800Y-186421542D02*
X117887943Y-186492971D01*
X117602228Y-186492971D01*
X117459371Y-186421542D01*
X117387943Y-186350114D01*
X117316514Y-186207257D01*
X117316514Y-185778685D01*
X117387943Y-185635828D01*
X117459371Y-185564400D01*
X117602228Y-185492971D01*
X117887943Y-185492971D01*
X118030800Y-185564400D01*
X120387943Y-185707257D02*
X120602228Y-185778685D01*
X120673657Y-185850114D01*
X120745086Y-185992971D01*
X120745086Y-186207257D01*
X120673657Y-186350114D01*
X120602228Y-186421542D01*
X120459371Y-186492971D01*
X119887943Y-186492971D01*
X119887943Y-184992971D01*
X120387943Y-184992971D01*
X120530800Y-185064400D01*
X120602228Y-185135828D01*
X120673657Y-185278685D01*
X120673657Y-185421542D01*
X120602228Y-185564400D01*
X120530800Y-185635828D01*
X120387943Y-185707257D01*
X119887943Y-185707257D01*
X121602228Y-186492971D02*
X121459371Y-186421542D01*
X121387943Y-186350114D01*
X121316514Y-186207257D01*
X121316514Y-185778685D01*
X121387943Y-185635828D01*
X121459371Y-185564400D01*
X121602228Y-185492971D01*
X121816514Y-185492971D01*
X121959371Y-185564400D01*
X122030800Y-185635828D01*
X122102228Y-185778685D01*
X122102228Y-186207257D01*
X122030800Y-186350114D01*
X121959371Y-186421542D01*
X121816514Y-186492971D01*
X121602228Y-186492971D01*
X123387943Y-186492971D02*
X123387943Y-185707257D01*
X123316514Y-185564400D01*
X123173657Y-185492971D01*
X122887943Y-185492971D01*
X122745086Y-185564400D01*
X123387943Y-186421542D02*
X123245086Y-186492971D01*
X122887943Y-186492971D01*
X122745086Y-186421542D01*
X122673657Y-186278685D01*
X122673657Y-186135828D01*
X122745086Y-185992971D01*
X122887943Y-185921542D01*
X123245086Y-185921542D01*
X123387943Y-185850114D01*
X124102228Y-186492971D02*
X124102228Y-185492971D01*
X124102228Y-185778685D02*
X124173657Y-185635828D01*
X124245086Y-185564400D01*
X124387943Y-185492971D01*
X124530800Y-185492971D01*
X125673657Y-186492971D02*
X125673657Y-184992971D01*
X125673657Y-186421542D02*
X125530800Y-186492971D01*
X125245086Y-186492971D01*
X125102228Y-186421542D01*
X125030800Y-186350114D01*
X124959371Y-186207257D01*
X124959371Y-185778685D01*
X125030800Y-185635828D01*
X125102228Y-185564400D01*
X125245086Y-185492971D01*
X125530800Y-185492971D01*
X125673657Y-185564400D01*
X127530800Y-185707257D02*
X128030800Y-185707257D01*
X128245086Y-186492971D02*
X127530800Y-186492971D01*
X127530800Y-184992971D01*
X128245086Y-184992971D01*
X129530800Y-186492971D02*
X129530800Y-184992971D01*
X129530800Y-186421542D02*
X129387943Y-186492971D01*
X129102228Y-186492971D01*
X128959371Y-186421542D01*
X128887943Y-186350114D01*
X128816514Y-186207257D01*
X128816514Y-185778685D01*
X128887943Y-185635828D01*
X128959371Y-185564400D01*
X129102228Y-185492971D01*
X129387943Y-185492971D01*
X129530800Y-185564400D01*
X130887943Y-185492971D02*
X130887943Y-186707257D01*
X130816514Y-186850114D01*
X130745086Y-186921542D01*
X130602228Y-186992971D01*
X130387943Y-186992971D01*
X130245086Y-186921542D01*
X130887943Y-186421542D02*
X130745086Y-186492971D01*
X130459371Y-186492971D01*
X130316514Y-186421542D01*
X130245086Y-186350114D01*
X130173657Y-186207257D01*
X130173657Y-185778685D01*
X130245086Y-185635828D01*
X130316514Y-185564400D01*
X130459371Y-185492971D01*
X130745086Y-185492971D01*
X130887943Y-185564400D01*
X132173657Y-186421542D02*
X132030800Y-186492971D01*
X131745086Y-186492971D01*
X131602228Y-186421542D01*
X131530800Y-186278685D01*
X131530800Y-185707257D01*
X131602228Y-185564400D01*
X131745086Y-185492971D01*
X132030800Y-185492971D01*
X132173657Y-185564400D01*
X132245086Y-185707257D01*
X132245086Y-185850114D01*
X131530800Y-185992971D01*
X132887943Y-186350114D02*
X132959371Y-186421542D01*
X132887943Y-186492971D01*
X132816514Y-186421542D01*
X132887943Y-186350114D01*
X132887943Y-186492971D01*
X132887943Y-185564400D02*
X132959371Y-185635828D01*
X132887943Y-185707257D01*
X132816514Y-185635828D01*
X132887943Y-185564400D01*
X132887943Y-185707257D01*
X77545085Y-190707971D02*
X77545085Y-189207971D01*
X78402228Y-190707971D01*
X78402228Y-189207971D01*
X79330800Y-190707971D02*
X79187943Y-190636542D01*
X79116514Y-190565114D01*
X79045085Y-190422257D01*
X79045085Y-189993685D01*
X79116514Y-189850828D01*
X79187943Y-189779400D01*
X79330800Y-189707971D01*
X79545085Y-189707971D01*
X79687943Y-189779400D01*
X79759371Y-189850828D01*
X79830800Y-189993685D01*
X79830800Y-190422257D01*
X79759371Y-190565114D01*
X79687943Y-190636542D01*
X79545085Y-190707971D01*
X79330800Y-190707971D01*
X77830800Y-176562971D02*
X77973657Y-176562971D01*
X78116514Y-176634400D01*
X78187943Y-176705828D01*
X78259371Y-176848685D01*
X78330800Y-177134400D01*
X78330800Y-177491542D01*
X78259371Y-177777257D01*
X78187943Y-177920114D01*
X78116514Y-177991542D01*
X77973657Y-178062971D01*
X77830800Y-178062971D01*
X77687943Y-177991542D01*
X77616514Y-177920114D01*
X77545085Y-177777257D01*
X77473657Y-177491542D01*
X77473657Y-177134400D01*
X77545085Y-176848685D01*
X77616514Y-176705828D01*
X77687943Y-176634400D01*
X77830800Y-176562971D01*
X78973657Y-177920114D02*
X79045085Y-177991542D01*
X78973657Y-178062971D01*
X78902228Y-177991542D01*
X78973657Y-177920114D01*
X78973657Y-178062971D01*
X80473657Y-178062971D02*
X79616514Y-178062971D01*
X80045085Y-178062971D02*
X80045085Y-176562971D01*
X79902228Y-176777257D01*
X79759371Y-176920114D01*
X79616514Y-176991542D01*
X81045085Y-176705828D02*
X81116514Y-176634400D01*
X81259371Y-176562971D01*
X81616514Y-176562971D01*
X81759371Y-176634400D01*
X81830800Y-176705828D01*
X81902228Y-176848685D01*
X81902228Y-176991542D01*
X81830800Y-177205828D01*
X80973657Y-178062971D01*
X81902228Y-178062971D01*
X82402228Y-176562971D02*
X83402228Y-176562971D01*
X82759371Y-178062971D01*
X84259371Y-176562971D02*
X84402228Y-176562971D01*
X84545085Y-176634400D01*
X84616514Y-176705828D01*
X84687943Y-176848685D01*
X84759371Y-177134400D01*
X84759371Y-177491542D01*
X84687943Y-177777257D01*
X84616514Y-177920114D01*
X84545085Y-177991542D01*
X84402228Y-178062971D01*
X84259371Y-178062971D01*
X84116514Y-177991542D01*
X84045085Y-177920114D01*
X83973657Y-177777257D01*
X83902228Y-177491542D01*
X83902228Y-177134400D01*
X83973657Y-176848685D01*
X84045085Y-176705828D01*
X84116514Y-176634400D01*
X84259371Y-176562971D01*
X86545085Y-178062971D02*
X86545085Y-177062971D01*
X86545085Y-177205828D02*
X86616514Y-177134400D01*
X86759371Y-177062971D01*
X86973657Y-177062971D01*
X87116514Y-177134400D01*
X87187943Y-177277257D01*
X87187943Y-178062971D01*
X87187943Y-177277257D02*
X87259371Y-177134400D01*
X87402228Y-177062971D01*
X87616514Y-177062971D01*
X87759371Y-177134400D01*
X87830800Y-177277257D01*
X87830800Y-178062971D01*
X88545085Y-178062971D02*
X88545085Y-177062971D01*
X88545085Y-177205828D02*
X88616514Y-177134400D01*
X88759371Y-177062971D01*
X88973657Y-177062971D01*
X89116514Y-177134400D01*
X89187943Y-177277257D01*
X89187943Y-178062971D01*
X89187943Y-177277257D02*
X89259371Y-177134400D01*
X89402228Y-177062971D01*
X89616514Y-177062971D01*
X89759371Y-177134400D01*
X89830800Y-177277257D01*
X89830800Y-178062971D01*
X92759371Y-176491542D02*
X91473657Y-178420114D01*
X94687943Y-176562971D02*
X94830800Y-176562971D01*
X94973657Y-176634400D01*
X95045085Y-176705828D01*
X95116514Y-176848685D01*
X95187943Y-177134400D01*
X95187943Y-177491542D01*
X95116514Y-177777257D01*
X95045085Y-177920114D01*
X94973657Y-177991542D01*
X94830800Y-178062971D01*
X94687943Y-178062971D01*
X94545085Y-177991542D01*
X94473657Y-177920114D01*
X94402228Y-177777257D01*
X94330800Y-177491542D01*
X94330800Y-177134400D01*
X94402228Y-176848685D01*
X94473657Y-176705828D01*
X94545085Y-176634400D01*
X94687943Y-176562971D01*
X95830800Y-177920114D02*
X95902228Y-177991542D01*
X95830800Y-178062971D01*
X95759371Y-177991542D01*
X95830800Y-177920114D01*
X95830800Y-178062971D01*
X97330800Y-178062971D02*
X96473657Y-178062971D01*
X96902228Y-178062971D02*
X96902228Y-176562971D01*
X96759371Y-176777257D01*
X96616514Y-176920114D01*
X96473657Y-176991542D01*
X97902228Y-176705828D02*
X97973657Y-176634400D01*
X98116514Y-176562971D01*
X98473657Y-176562971D01*
X98616514Y-176634400D01*
X98687943Y-176705828D01*
X98759371Y-176848685D01*
X98759371Y-176991542D01*
X98687943Y-177205828D01*
X97830800Y-178062971D01*
X98759371Y-178062971D01*
X99259371Y-176562971D02*
X100259371Y-176562971D01*
X99616514Y-178062971D01*
X101116514Y-176562971D02*
X101259371Y-176562971D01*
X101402228Y-176634400D01*
X101473657Y-176705828D01*
X101545085Y-176848685D01*
X101616514Y-177134400D01*
X101616514Y-177491542D01*
X101545085Y-177777257D01*
X101473657Y-177920114D01*
X101402228Y-177991542D01*
X101259371Y-178062971D01*
X101116514Y-178062971D01*
X100973657Y-177991542D01*
X100902228Y-177920114D01*
X100830800Y-177777257D01*
X100759371Y-177491542D01*
X100759371Y-177134400D01*
X100830800Y-176848685D01*
X100902228Y-176705828D01*
X100973657Y-176634400D01*
X101116514Y-176562971D01*
X103402228Y-178062971D02*
X103402228Y-177062971D01*
X103402228Y-177205828D02*
X103473657Y-177134400D01*
X103616514Y-177062971D01*
X103830800Y-177062971D01*
X103973657Y-177134400D01*
X104045085Y-177277257D01*
X104045085Y-178062971D01*
X104045085Y-177277257D02*
X104116514Y-177134400D01*
X104259371Y-177062971D01*
X104473657Y-177062971D01*
X104616514Y-177134400D01*
X104687943Y-177277257D01*
X104687943Y-178062971D01*
X105402228Y-178062971D02*
X105402228Y-177062971D01*
X105402228Y-177205828D02*
X105473657Y-177134400D01*
X105616514Y-177062971D01*
X105830800Y-177062971D01*
X105973657Y-177134400D01*
X106045085Y-177277257D01*
X106045085Y-178062971D01*
X106045085Y-177277257D02*
X106116514Y-177134400D01*
X106259371Y-177062971D01*
X106473657Y-177062971D01*
X106616514Y-177134400D01*
X106687943Y-177277257D01*
X106687943Y-178062971D01*
X45845085Y-182135114D02*
X45773657Y-182206542D01*
X45559371Y-182277971D01*
X45416514Y-182277971D01*
X45202228Y-182206542D01*
X45059371Y-182063685D01*
X44987942Y-181920828D01*
X44916514Y-181635114D01*
X44916514Y-181420828D01*
X44987942Y-181135114D01*
X45059371Y-180992257D01*
X45202228Y-180849400D01*
X45416514Y-180777971D01*
X45559371Y-180777971D01*
X45773657Y-180849400D01*
X45845085Y-180920828D01*
X46702228Y-182277971D02*
X46559371Y-182206542D01*
X46487942Y-182135114D01*
X46416514Y-181992257D01*
X46416514Y-181563685D01*
X46487942Y-181420828D01*
X46559371Y-181349400D01*
X46702228Y-181277971D01*
X46916514Y-181277971D01*
X47059371Y-181349400D01*
X47130800Y-181420828D01*
X47202228Y-181563685D01*
X47202228Y-181992257D01*
X47130800Y-182135114D01*
X47059371Y-182206542D01*
X46916514Y-182277971D01*
X46702228Y-182277971D01*
X47845085Y-181277971D02*
X47845085Y-182777971D01*
X47845085Y-181349400D02*
X47987942Y-181277971D01*
X48273657Y-181277971D01*
X48416514Y-181349400D01*
X48487942Y-181420828D01*
X48559371Y-181563685D01*
X48559371Y-181992257D01*
X48487942Y-182135114D01*
X48416514Y-182206542D01*
X48273657Y-182277971D01*
X47987942Y-182277971D01*
X47845085Y-182206542D01*
X49202228Y-181277971D02*
X49202228Y-182777971D01*
X49202228Y-181349400D02*
X49345085Y-181277971D01*
X49630800Y-181277971D01*
X49773657Y-181349400D01*
X49845085Y-181420828D01*
X49916514Y-181563685D01*
X49916514Y-181992257D01*
X49845085Y-182135114D01*
X49773657Y-182206542D01*
X49630800Y-182277971D01*
X49345085Y-182277971D01*
X49202228Y-182206542D01*
X51130800Y-182206542D02*
X50987942Y-182277971D01*
X50702228Y-182277971D01*
X50559371Y-182206542D01*
X50487942Y-182063685D01*
X50487942Y-181492257D01*
X50559371Y-181349400D01*
X50702228Y-181277971D01*
X50987942Y-181277971D01*
X51130800Y-181349400D01*
X51202228Y-181492257D01*
X51202228Y-181635114D01*
X50487942Y-181777971D01*
X51845085Y-182277971D02*
X51845085Y-181277971D01*
X51845085Y-181563685D02*
X51916514Y-181420828D01*
X51987942Y-181349400D01*
X52130800Y-181277971D01*
X52273657Y-181277971D01*
X54416514Y-181492257D02*
X53916514Y-181492257D01*
X53916514Y-182277971D02*
X53916514Y-180777971D01*
X54630800Y-180777971D01*
X55202228Y-182277971D02*
X55202228Y-181277971D01*
X55202228Y-180777971D02*
X55130800Y-180849400D01*
X55202228Y-180920828D01*
X55273657Y-180849400D01*
X55202228Y-180777971D01*
X55202228Y-180920828D01*
X55916514Y-181277971D02*
X55916514Y-182277971D01*
X55916514Y-181420828D02*
X55987942Y-181349400D01*
X56130800Y-181277971D01*
X56345085Y-181277971D01*
X56487942Y-181349400D01*
X56559371Y-181492257D01*
X56559371Y-182277971D01*
X57273657Y-182277971D02*
X57273657Y-181277971D01*
X57273657Y-180777971D02*
X57202228Y-180849400D01*
X57273657Y-180920828D01*
X57345085Y-180849400D01*
X57273657Y-180777971D01*
X57273657Y-180920828D01*
X57916514Y-182206542D02*
X58059371Y-182277971D01*
X58345085Y-182277971D01*
X58487942Y-182206542D01*
X58559371Y-182063685D01*
X58559371Y-181992257D01*
X58487942Y-181849400D01*
X58345085Y-181777971D01*
X58130800Y-181777971D01*
X57987942Y-181706542D01*
X57916514Y-181563685D01*
X57916514Y-181492257D01*
X57987942Y-181349400D01*
X58130800Y-181277971D01*
X58345085Y-181277971D01*
X58487942Y-181349400D01*
X59202228Y-182277971D02*
X59202228Y-180777971D01*
X59845085Y-182277971D02*
X59845085Y-181492257D01*
X59773657Y-181349400D01*
X59630800Y-181277971D01*
X59416514Y-181277971D01*
X59273657Y-181349400D01*
X59202228Y-181420828D01*
X60559371Y-182135114D02*
X60630800Y-182206542D01*
X60559371Y-182277971D01*
X60487942Y-182206542D01*
X60559371Y-182135114D01*
X60559371Y-182277971D01*
X60559371Y-181349400D02*
X60630800Y-181420828D01*
X60559371Y-181492257D01*
X60487942Y-181420828D01*
X60559371Y-181349400D01*
X60559371Y-181492257D01*
X45487942Y-173062257D02*
X45702228Y-173133685D01*
X45773657Y-173205114D01*
X45845085Y-173347971D01*
X45845085Y-173562257D01*
X45773657Y-173705114D01*
X45702228Y-173776542D01*
X45559371Y-173847971D01*
X44987942Y-173847971D01*
X44987942Y-172347971D01*
X45487942Y-172347971D01*
X45630800Y-172419400D01*
X45702228Y-172490828D01*
X45773657Y-172633685D01*
X45773657Y-172776542D01*
X45702228Y-172919400D01*
X45630800Y-172990828D01*
X45487942Y-173062257D01*
X44987942Y-173062257D01*
X46702228Y-173847971D02*
X46559371Y-173776542D01*
X46487942Y-173705114D01*
X46416514Y-173562257D01*
X46416514Y-173133685D01*
X46487942Y-172990828D01*
X46559371Y-172919400D01*
X46702228Y-172847971D01*
X46916514Y-172847971D01*
X47059371Y-172919400D01*
X47130800Y-172990828D01*
X47202228Y-173133685D01*
X47202228Y-173562257D01*
X47130800Y-173705114D01*
X47059371Y-173776542D01*
X46916514Y-173847971D01*
X46702228Y-173847971D01*
X48487942Y-173847971D02*
X48487942Y-173062257D01*
X48416514Y-172919400D01*
X48273657Y-172847971D01*
X47987942Y-172847971D01*
X47845085Y-172919400D01*
X48487942Y-173776542D02*
X48345085Y-173847971D01*
X47987942Y-173847971D01*
X47845085Y-173776542D01*
X47773657Y-173633685D01*
X47773657Y-173490828D01*
X47845085Y-173347971D01*
X47987942Y-173276542D01*
X48345085Y-173276542D01*
X48487942Y-173205114D01*
X49202228Y-173847971D02*
X49202228Y-172847971D01*
X49202228Y-173133685D02*
X49273657Y-172990828D01*
X49345085Y-172919400D01*
X49487942Y-172847971D01*
X49630800Y-172847971D01*
X50773657Y-173847971D02*
X50773657Y-172347971D01*
X50773657Y-173776542D02*
X50630800Y-173847971D01*
X50345085Y-173847971D01*
X50202228Y-173776542D01*
X50130800Y-173705114D01*
X50059371Y-173562257D01*
X50059371Y-173133685D01*
X50130800Y-172990828D01*
X50202228Y-172919400D01*
X50345085Y-172847971D01*
X50630800Y-172847971D01*
X50773657Y-172919400D01*
X52845085Y-173847971D02*
X52702228Y-173776542D01*
X52630800Y-173705114D01*
X52559371Y-173562257D01*
X52559371Y-173133685D01*
X52630800Y-172990828D01*
X52702228Y-172919400D01*
X52845085Y-172847971D01*
X53059371Y-172847971D01*
X53202228Y-172919400D01*
X53273657Y-172990828D01*
X53345085Y-173133685D01*
X53345085Y-173562257D01*
X53273657Y-173705114D01*
X53202228Y-173776542D01*
X53059371Y-173847971D01*
X52845085Y-173847971D01*
X53845085Y-172847971D02*
X54202228Y-173847971D01*
X54559371Y-172847971D01*
X55702228Y-173776542D02*
X55559371Y-173847971D01*
X55273657Y-173847971D01*
X55130800Y-173776542D01*
X55059371Y-173633685D01*
X55059371Y-173062257D01*
X55130800Y-172919400D01*
X55273657Y-172847971D01*
X55559371Y-172847971D01*
X55702228Y-172919400D01*
X55773657Y-173062257D01*
X55773657Y-173205114D01*
X55059371Y-173347971D01*
X56416514Y-173847971D02*
X56416514Y-172847971D01*
X56416514Y-173133685D02*
X56487942Y-172990828D01*
X56559371Y-172919400D01*
X56702228Y-172847971D01*
X56845085Y-172847971D01*
X57987942Y-173847971D02*
X57987942Y-173062257D01*
X57916514Y-172919400D01*
X57773657Y-172847971D01*
X57487942Y-172847971D01*
X57345085Y-172919400D01*
X57987942Y-173776542D02*
X57845085Y-173847971D01*
X57487942Y-173847971D01*
X57345085Y-173776542D01*
X57273657Y-173633685D01*
X57273657Y-173490828D01*
X57345085Y-173347971D01*
X57487942Y-173276542D01*
X57845085Y-173276542D01*
X57987942Y-173205114D01*
X58916514Y-173847971D02*
X58773657Y-173776542D01*
X58702228Y-173633685D01*
X58702228Y-172347971D01*
X59702228Y-173847971D02*
X59559371Y-173776542D01*
X59487942Y-173633685D01*
X59487942Y-172347971D01*
X62059371Y-173847971D02*
X62059371Y-172347971D01*
X62059371Y-173776542D02*
X61916514Y-173847971D01*
X61630800Y-173847971D01*
X61487942Y-173776542D01*
X61416514Y-173705114D01*
X61345085Y-173562257D01*
X61345085Y-173133685D01*
X61416514Y-172990828D01*
X61487942Y-172919400D01*
X61630800Y-172847971D01*
X61916514Y-172847971D01*
X62059371Y-172919400D01*
X62773657Y-173847971D02*
X62773657Y-172847971D01*
X62773657Y-172347971D02*
X62702228Y-172419400D01*
X62773657Y-172490828D01*
X62845085Y-172419400D01*
X62773657Y-172347971D01*
X62773657Y-172490828D01*
X63487942Y-173847971D02*
X63487942Y-172847971D01*
X63487942Y-172990828D02*
X63559371Y-172919400D01*
X63702228Y-172847971D01*
X63916514Y-172847971D01*
X64059371Y-172919400D01*
X64130800Y-173062257D01*
X64130800Y-173847971D01*
X64130800Y-173062257D02*
X64202228Y-172919400D01*
X64345085Y-172847971D01*
X64559371Y-172847971D01*
X64702228Y-172919400D01*
X64773657Y-173062257D01*
X64773657Y-173847971D01*
X66059371Y-173776542D02*
X65916514Y-173847971D01*
X65630800Y-173847971D01*
X65487942Y-173776542D01*
X65416514Y-173633685D01*
X65416514Y-173062257D01*
X65487942Y-172919400D01*
X65630800Y-172847971D01*
X65916514Y-172847971D01*
X66059371Y-172919400D01*
X66130800Y-173062257D01*
X66130800Y-173205114D01*
X65416514Y-173347971D01*
X66773657Y-172847971D02*
X66773657Y-173847971D01*
X66773657Y-172990828D02*
X66845085Y-172919400D01*
X66987942Y-172847971D01*
X67202228Y-172847971D01*
X67345085Y-172919400D01*
X67416514Y-173062257D01*
X67416514Y-173847971D01*
X68059371Y-173776542D02*
X68202228Y-173847971D01*
X68487942Y-173847971D01*
X68630800Y-173776542D01*
X68702228Y-173633685D01*
X68702228Y-173562257D01*
X68630800Y-173419400D01*
X68487942Y-173347971D01*
X68273657Y-173347971D01*
X68130800Y-173276542D01*
X68059371Y-173133685D01*
X68059371Y-173062257D01*
X68130800Y-172919400D01*
X68273657Y-172847971D01*
X68487942Y-172847971D01*
X68630800Y-172919400D01*
X69345085Y-173847971D02*
X69345085Y-172847971D01*
X69345085Y-172347971D02*
X69273657Y-172419400D01*
X69345085Y-172490828D01*
X69416514Y-172419400D01*
X69345085Y-172347971D01*
X69345085Y-172490828D01*
X70273657Y-173847971D02*
X70130800Y-173776542D01*
X70059371Y-173705114D01*
X69987942Y-173562257D01*
X69987942Y-173133685D01*
X70059371Y-172990828D01*
X70130800Y-172919400D01*
X70273657Y-172847971D01*
X70487942Y-172847971D01*
X70630800Y-172919400D01*
X70702228Y-172990828D01*
X70773657Y-173133685D01*
X70773657Y-173562257D01*
X70702228Y-173705114D01*
X70630800Y-173776542D01*
X70487942Y-173847971D01*
X70273657Y-173847971D01*
X71416514Y-172847971D02*
X71416514Y-173847971D01*
X71416514Y-172990828D02*
X71487942Y-172919400D01*
X71630800Y-172847971D01*
X71845085Y-172847971D01*
X71987942Y-172919400D01*
X72059371Y-173062257D01*
X72059371Y-173847971D01*
X72702228Y-173776542D02*
X72845085Y-173847971D01*
X73130800Y-173847971D01*
X73273657Y-173776542D01*
X73345085Y-173633685D01*
X73345085Y-173562257D01*
X73273657Y-173419400D01*
X73130800Y-173347971D01*
X72916514Y-173347971D01*
X72773657Y-173276542D01*
X72702228Y-173133685D01*
X72702228Y-173062257D01*
X72773657Y-172919400D01*
X72916514Y-172847971D01*
X73130800Y-172847971D01*
X73273657Y-172919400D01*
X73987942Y-173705114D02*
X74059371Y-173776542D01*
X73987942Y-173847971D01*
X73916514Y-173776542D01*
X73987942Y-173705114D01*
X73987942Y-173847971D01*
X73987942Y-172919400D02*
X74059371Y-172990828D01*
X73987942Y-173062257D01*
X73916514Y-172990828D01*
X73987942Y-172919400D01*
X73987942Y-173062257D01*
X137230800Y-169632971D02*
X136373657Y-169632971D01*
X136802228Y-169632971D02*
X136802228Y-168132971D01*
X136659371Y-168347257D01*
X136516514Y-168490114D01*
X136373657Y-168561542D01*
X137873657Y-169490114D02*
X137945085Y-169561542D01*
X137873657Y-169632971D01*
X137802228Y-169561542D01*
X137873657Y-169490114D01*
X137873657Y-169632971D01*
X139230800Y-168132971D02*
X138945085Y-168132971D01*
X138802228Y-168204400D01*
X138730800Y-168275828D01*
X138587943Y-168490114D01*
X138516514Y-168775828D01*
X138516514Y-169347257D01*
X138587943Y-169490114D01*
X138659371Y-169561542D01*
X138802228Y-169632971D01*
X139087943Y-169632971D01*
X139230800Y-169561542D01*
X139302228Y-169490114D01*
X139373657Y-169347257D01*
X139373657Y-168990114D01*
X139302228Y-168847257D01*
X139230800Y-168775828D01*
X139087943Y-168704400D01*
X138802228Y-168704400D01*
X138659371Y-168775828D01*
X138587943Y-168847257D01*
X138516514Y-168990114D01*
X140302228Y-168132971D02*
X140445085Y-168132971D01*
X140587943Y-168204400D01*
X140659371Y-168275828D01*
X140730800Y-168418685D01*
X140802228Y-168704400D01*
X140802228Y-169061542D01*
X140730800Y-169347257D01*
X140659371Y-169490114D01*
X140587943Y-169561542D01*
X140445085Y-169632971D01*
X140302228Y-169632971D01*
X140159371Y-169561542D01*
X140087943Y-169490114D01*
X140016514Y-169347257D01*
X139945085Y-169061542D01*
X139945085Y-168704400D01*
X140016514Y-168418685D01*
X140087943Y-168275828D01*
X140159371Y-168204400D01*
X140302228Y-168132971D01*
X141730800Y-168132971D02*
X141873657Y-168132971D01*
X142016514Y-168204400D01*
X142087943Y-168275828D01*
X142159371Y-168418685D01*
X142230800Y-168704400D01*
X142230800Y-169061542D01*
X142159371Y-169347257D01*
X142087943Y-169490114D01*
X142016514Y-169561542D01*
X141873657Y-169632971D01*
X141730800Y-169632971D01*
X141587943Y-169561542D01*
X141516514Y-169490114D01*
X141445085Y-169347257D01*
X141373657Y-169061542D01*
X141373657Y-168704400D01*
X141445085Y-168418685D01*
X141516514Y-168275828D01*
X141587943Y-168204400D01*
X141730800Y-168132971D01*
X143159371Y-168132971D02*
X143302228Y-168132971D01*
X143445085Y-168204400D01*
X143516514Y-168275828D01*
X143587943Y-168418685D01*
X143659371Y-168704400D01*
X143659371Y-169061542D01*
X143587943Y-169347257D01*
X143516514Y-169490114D01*
X143445085Y-169561542D01*
X143302228Y-169632971D01*
X143159371Y-169632971D01*
X143016514Y-169561542D01*
X142945085Y-169490114D01*
X142873657Y-169347257D01*
X142802228Y-169061542D01*
X142802228Y-168704400D01*
X142873657Y-168418685D01*
X142945085Y-168275828D01*
X143016514Y-168204400D01*
X143159371Y-168132971D01*
X145445085Y-169632971D02*
X145445085Y-168632971D01*
X145445085Y-168775828D02*
X145516514Y-168704400D01*
X145659371Y-168632971D01*
X145873657Y-168632971D01*
X146016514Y-168704400D01*
X146087943Y-168847257D01*
X146087943Y-169632971D01*
X146087943Y-168847257D02*
X146159371Y-168704400D01*
X146302228Y-168632971D01*
X146516514Y-168632971D01*
X146659371Y-168704400D01*
X146730800Y-168847257D01*
X146730800Y-169632971D01*
X147445085Y-169632971D02*
X147445085Y-168632971D01*
X147445085Y-168775828D02*
X147516514Y-168704400D01*
X147659371Y-168632971D01*
X147873657Y-168632971D01*
X148016514Y-168704400D01*
X148087943Y-168847257D01*
X148087943Y-169632971D01*
X148087943Y-168847257D02*
X148159371Y-168704400D01*
X148302228Y-168632971D01*
X148516514Y-168632971D01*
X148659371Y-168704400D01*
X148730800Y-168847257D01*
X148730800Y-169632971D01*
X45845085Y-186350114D02*
X45773657Y-186421542D01*
X45559371Y-186492971D01*
X45416514Y-186492971D01*
X45202228Y-186421542D01*
X45059371Y-186278685D01*
X44987942Y-186135828D01*
X44916514Y-185850114D01*
X44916514Y-185635828D01*
X44987942Y-185350114D01*
X45059371Y-185207257D01*
X45202228Y-185064400D01*
X45416514Y-184992971D01*
X45559371Y-184992971D01*
X45773657Y-185064400D01*
X45845085Y-185135828D01*
X47130800Y-186492971D02*
X47130800Y-185707257D01*
X47059371Y-185564400D01*
X46916514Y-185492971D01*
X46630800Y-185492971D01*
X46487942Y-185564400D01*
X47130800Y-186421542D02*
X46987942Y-186492971D01*
X46630800Y-186492971D01*
X46487942Y-186421542D01*
X46416514Y-186278685D01*
X46416514Y-186135828D01*
X46487942Y-185992971D01*
X46630800Y-185921542D01*
X46987942Y-185921542D01*
X47130800Y-185850114D01*
X47773657Y-186421542D02*
X47916514Y-186492971D01*
X48202228Y-186492971D01*
X48345085Y-186421542D01*
X48416514Y-186278685D01*
X48416514Y-186207257D01*
X48345085Y-186064400D01*
X48202228Y-185992971D01*
X47987942Y-185992971D01*
X47845085Y-185921542D01*
X47773657Y-185778685D01*
X47773657Y-185707257D01*
X47845085Y-185564400D01*
X47987942Y-185492971D01*
X48202228Y-185492971D01*
X48345085Y-185564400D01*
X48845085Y-185492971D02*
X49416514Y-185492971D01*
X49059371Y-184992971D02*
X49059371Y-186278685D01*
X49130800Y-186421542D01*
X49273657Y-186492971D01*
X49416514Y-186492971D01*
X50487942Y-186421542D02*
X50345085Y-186492971D01*
X50059371Y-186492971D01*
X49916514Y-186421542D01*
X49845085Y-186278685D01*
X49845085Y-185707257D01*
X49916514Y-185564400D01*
X50059371Y-185492971D01*
X50345085Y-185492971D01*
X50487942Y-185564400D01*
X50559371Y-185707257D01*
X50559371Y-185850114D01*
X49845085Y-185992971D01*
X51416514Y-186492971D02*
X51273657Y-186421542D01*
X51202228Y-186278685D01*
X51202228Y-184992971D01*
X52202228Y-186492971D02*
X52059371Y-186421542D01*
X51987942Y-186278685D01*
X51987942Y-184992971D01*
X53416514Y-186492971D02*
X53416514Y-185707257D01*
X53345085Y-185564400D01*
X53202228Y-185492971D01*
X52916514Y-185492971D01*
X52773657Y-185564400D01*
X53416514Y-186421542D02*
X53273657Y-186492971D01*
X52916514Y-186492971D01*
X52773657Y-186421542D01*
X52702228Y-186278685D01*
X52702228Y-186135828D01*
X52773657Y-185992971D01*
X52916514Y-185921542D01*
X53273657Y-185921542D01*
X53416514Y-185850114D01*
X53916514Y-185492971D02*
X54487942Y-185492971D01*
X54130800Y-184992971D02*
X54130800Y-186278685D01*
X54202228Y-186421542D01*
X54345085Y-186492971D01*
X54487942Y-186492971D01*
X55559371Y-186421542D02*
X55416514Y-186492971D01*
X55130800Y-186492971D01*
X54987942Y-186421542D01*
X54916514Y-186278685D01*
X54916514Y-185707257D01*
X54987942Y-185564400D01*
X55130800Y-185492971D01*
X55416514Y-185492971D01*
X55559371Y-185564400D01*
X55630800Y-185707257D01*
X55630800Y-185850114D01*
X54916514Y-185992971D01*
X56916514Y-186492971D02*
X56916514Y-184992971D01*
X56916514Y-186421542D02*
X56773657Y-186492971D01*
X56487942Y-186492971D01*
X56345085Y-186421542D01*
X56273657Y-186350114D01*
X56202228Y-186207257D01*
X56202228Y-185778685D01*
X56273657Y-185635828D01*
X56345085Y-185564400D01*
X56487942Y-185492971D01*
X56773657Y-185492971D01*
X56916514Y-185564400D01*
X58773657Y-185492971D02*
X58773657Y-186992971D01*
X58773657Y-185564400D02*
X58916514Y-185492971D01*
X59202228Y-185492971D01*
X59345085Y-185564400D01*
X59416514Y-185635828D01*
X59487942Y-185778685D01*
X59487942Y-186207257D01*
X59416514Y-186350114D01*
X59345085Y-186421542D01*
X59202228Y-186492971D01*
X58916514Y-186492971D01*
X58773657Y-186421542D01*
X60773657Y-186492971D02*
X60773657Y-185707257D01*
X60702228Y-185564400D01*
X60559371Y-185492971D01*
X60273657Y-185492971D01*
X60130800Y-185564400D01*
X60773657Y-186421542D02*
X60630800Y-186492971D01*
X60273657Y-186492971D01*
X60130800Y-186421542D01*
X60059371Y-186278685D01*
X60059371Y-186135828D01*
X60130800Y-185992971D01*
X60273657Y-185921542D01*
X60630800Y-185921542D01*
X60773657Y-185850114D01*
X62130800Y-186492971D02*
X62130800Y-184992971D01*
X62130800Y-186421542D02*
X61987942Y-186492971D01*
X61702228Y-186492971D01*
X61559371Y-186421542D01*
X61487942Y-186350114D01*
X61416514Y-186207257D01*
X61416514Y-185778685D01*
X61487942Y-185635828D01*
X61559371Y-185564400D01*
X61702228Y-185492971D01*
X61987942Y-185492971D01*
X62130800Y-185564400D01*
X62773657Y-186421542D02*
X62916514Y-186492971D01*
X63202228Y-186492971D01*
X63345085Y-186421542D01*
X63416514Y-186278685D01*
X63416514Y-186207257D01*
X63345085Y-186064400D01*
X63202228Y-185992971D01*
X62987942Y-185992971D01*
X62845085Y-185921542D01*
X62773657Y-185778685D01*
X62773657Y-185707257D01*
X62845085Y-185564400D01*
X62987942Y-185492971D01*
X63202228Y-185492971D01*
X63345085Y-185564400D01*
X64059371Y-186350114D02*
X64130800Y-186421542D01*
X64059371Y-186492971D01*
X63987942Y-186421542D01*
X64059371Y-186350114D01*
X64059371Y-186492971D01*
X64059371Y-185564400D02*
X64130800Y-185635828D01*
X64059371Y-185707257D01*
X63987942Y-185635828D01*
X64059371Y-185564400D01*
X64059371Y-185707257D01*
X77616514Y-173847971D02*
X77902228Y-173847971D01*
X78045085Y-173776542D01*
X78116514Y-173705114D01*
X78259371Y-173490828D01*
X78330800Y-173205114D01*
X78330800Y-172633685D01*
X78259371Y-172490828D01*
X78187943Y-172419400D01*
X78045085Y-172347971D01*
X77759371Y-172347971D01*
X77616514Y-172419400D01*
X77545085Y-172490828D01*
X77473657Y-172633685D01*
X77473657Y-172990828D01*
X77545085Y-173133685D01*
X77616514Y-173205114D01*
X77759371Y-173276542D01*
X78045085Y-173276542D01*
X78187943Y-173205114D01*
X78259371Y-173133685D01*
X78330800Y-172990828D01*
X79045085Y-173847971D02*
X79330800Y-173847971D01*
X79473657Y-173776542D01*
X79545085Y-173705114D01*
X79687943Y-173490828D01*
X79759371Y-173205114D01*
X79759371Y-172633685D01*
X79687943Y-172490828D01*
X79616514Y-172419400D01*
X79473657Y-172347971D01*
X79187943Y-172347971D01*
X79045085Y-172419400D01*
X78973657Y-172490828D01*
X78902228Y-172633685D01*
X78902228Y-172990828D01*
X78973657Y-173133685D01*
X79045085Y-173205114D01*
X79187943Y-173276542D01*
X79473657Y-173276542D01*
X79616514Y-173205114D01*
X79687943Y-173133685D01*
X79759371Y-172990828D01*
X80402228Y-173705114D02*
X80473657Y-173776542D01*
X80402228Y-173847971D01*
X80330800Y-173776542D01*
X80402228Y-173705114D01*
X80402228Y-173847971D01*
X81187943Y-173847971D02*
X81473657Y-173847971D01*
X81616514Y-173776542D01*
X81687943Y-173705114D01*
X81830800Y-173490828D01*
X81902228Y-173205114D01*
X81902228Y-172633685D01*
X81830800Y-172490828D01*
X81759371Y-172419400D01*
X81616514Y-172347971D01*
X81330800Y-172347971D01*
X81187943Y-172419400D01*
X81116514Y-172490828D01*
X81045085Y-172633685D01*
X81045085Y-172990828D01*
X81116514Y-173133685D01*
X81187943Y-173205114D01*
X81330800Y-173276542D01*
X81616514Y-173276542D01*
X81759371Y-173205114D01*
X81830800Y-173133685D01*
X81902228Y-172990828D01*
X82759371Y-172990828D02*
X82616514Y-172919400D01*
X82545085Y-172847971D01*
X82473657Y-172705114D01*
X82473657Y-172633685D01*
X82545085Y-172490828D01*
X82616514Y-172419400D01*
X82759371Y-172347971D01*
X83045085Y-172347971D01*
X83187943Y-172419400D01*
X83259371Y-172490828D01*
X83330800Y-172633685D01*
X83330800Y-172705114D01*
X83259371Y-172847971D01*
X83187943Y-172919400D01*
X83045085Y-172990828D01*
X82759371Y-172990828D01*
X82616514Y-173062257D01*
X82545085Y-173133685D01*
X82473657Y-173276542D01*
X82473657Y-173562257D01*
X82545085Y-173705114D01*
X82616514Y-173776542D01*
X82759371Y-173847971D01*
X83045085Y-173847971D01*
X83187943Y-173776542D01*
X83259371Y-173705114D01*
X83330800Y-173562257D01*
X83330800Y-173276542D01*
X83259371Y-173133685D01*
X83187943Y-173062257D01*
X83045085Y-172990828D01*
X83830800Y-172347971D02*
X84759371Y-172347971D01*
X84259371Y-172919400D01*
X84473657Y-172919400D01*
X84616514Y-172990828D01*
X84687943Y-173062257D01*
X84759371Y-173205114D01*
X84759371Y-173562257D01*
X84687943Y-173705114D01*
X84616514Y-173776542D01*
X84473657Y-173847971D01*
X84045085Y-173847971D01*
X83902228Y-173776542D01*
X83830800Y-173705114D01*
X85330800Y-172490828D02*
X85402228Y-172419400D01*
X85545085Y-172347971D01*
X85902228Y-172347971D01*
X86045085Y-172419400D01*
X86116514Y-172490828D01*
X86187943Y-172633685D01*
X86187943Y-172776542D01*
X86116514Y-172990828D01*
X85259371Y-173847971D01*
X86187943Y-173847971D01*
X87973657Y-173847971D02*
X87973657Y-172847971D01*
X87973657Y-172990828D02*
X88045085Y-172919400D01*
X88187943Y-172847971D01*
X88402228Y-172847971D01*
X88545085Y-172919400D01*
X88616514Y-173062257D01*
X88616514Y-173847971D01*
X88616514Y-173062257D02*
X88687943Y-172919400D01*
X88830800Y-172847971D01*
X89045085Y-172847971D01*
X89187943Y-172919400D01*
X89259371Y-173062257D01*
X89259371Y-173847971D01*
X89973657Y-173847971D02*
X89973657Y-172847971D01*
X89973657Y-172990828D02*
X90045085Y-172919400D01*
X90187943Y-172847971D01*
X90402228Y-172847971D01*
X90545085Y-172919400D01*
X90616514Y-173062257D01*
X90616514Y-173847971D01*
X90616514Y-173062257D02*
X90687943Y-172919400D01*
X90830800Y-172847971D01*
X91045085Y-172847971D01*
X91187943Y-172919400D01*
X91259371Y-173062257D01*
X91259371Y-173847971D01*
X92973657Y-173847971D02*
X93759371Y-172847971D01*
X92973657Y-172847971D02*
X93759371Y-173847971D01*
X95545085Y-173847971D02*
X95830800Y-173847971D01*
X95973657Y-173776542D01*
X96045085Y-173705114D01*
X96187943Y-173490828D01*
X96259371Y-173205114D01*
X96259371Y-172633685D01*
X96187943Y-172490828D01*
X96116514Y-172419400D01*
X95973657Y-172347971D01*
X95687943Y-172347971D01*
X95545085Y-172419400D01*
X95473657Y-172490828D01*
X95402228Y-172633685D01*
X95402228Y-172990828D01*
X95473657Y-173133685D01*
X95545085Y-173205114D01*
X95687943Y-173276542D01*
X95973657Y-173276542D01*
X96116514Y-173205114D01*
X96187943Y-173133685D01*
X96259371Y-172990828D01*
X96973657Y-173847971D02*
X97259371Y-173847971D01*
X97402228Y-173776542D01*
X97473657Y-173705114D01*
X97616514Y-173490828D01*
X97687943Y-173205114D01*
X97687943Y-172633685D01*
X97616514Y-172490828D01*
X97545085Y-172419400D01*
X97402228Y-172347971D01*
X97116514Y-172347971D01*
X96973657Y-172419400D01*
X96902228Y-172490828D01*
X96830800Y-172633685D01*
X96830800Y-172990828D01*
X96902228Y-173133685D01*
X96973657Y-173205114D01*
X97116514Y-173276542D01*
X97402228Y-173276542D01*
X97545085Y-173205114D01*
X97616514Y-173133685D01*
X97687943Y-172990828D01*
X98330800Y-173705114D02*
X98402228Y-173776542D01*
X98330800Y-173847971D01*
X98259371Y-173776542D01*
X98330800Y-173705114D01*
X98330800Y-173847971D01*
X99116514Y-173847971D02*
X99402228Y-173847971D01*
X99545085Y-173776542D01*
X99616514Y-173705114D01*
X99759371Y-173490828D01*
X99830800Y-173205114D01*
X99830800Y-172633685D01*
X99759371Y-172490828D01*
X99687943Y-172419400D01*
X99545085Y-172347971D01*
X99259371Y-172347971D01*
X99116514Y-172419400D01*
X99045085Y-172490828D01*
X98973657Y-172633685D01*
X98973657Y-172990828D01*
X99045085Y-173133685D01*
X99116514Y-173205114D01*
X99259371Y-173276542D01*
X99545085Y-173276542D01*
X99687943Y-173205114D01*
X99759371Y-173133685D01*
X99830800Y-172990828D01*
X101116514Y-172347971D02*
X100830800Y-172347971D01*
X100687943Y-172419400D01*
X100616514Y-172490828D01*
X100473657Y-172705114D01*
X100402228Y-172990828D01*
X100402228Y-173562257D01*
X100473657Y-173705114D01*
X100545085Y-173776542D01*
X100687943Y-173847971D01*
X100973657Y-173847971D01*
X101116514Y-173776542D01*
X101187943Y-173705114D01*
X101259371Y-173562257D01*
X101259371Y-173205114D01*
X101187943Y-173062257D01*
X101116514Y-172990828D01*
X100973657Y-172919400D01*
X100687943Y-172919400D01*
X100545085Y-172990828D01*
X100473657Y-173062257D01*
X100402228Y-173205114D01*
X101759371Y-172347971D02*
X102687943Y-172347971D01*
X102187943Y-172919400D01*
X102402228Y-172919400D01*
X102545085Y-172990828D01*
X102616514Y-173062257D01*
X102687943Y-173205114D01*
X102687943Y-173562257D01*
X102616514Y-173705114D01*
X102545085Y-173776542D01*
X102402228Y-173847971D01*
X101973657Y-173847971D01*
X101830800Y-173776542D01*
X101759371Y-173705114D01*
X103616514Y-172347971D02*
X103759371Y-172347971D01*
X103902228Y-172419400D01*
X103973657Y-172490828D01*
X104045085Y-172633685D01*
X104116514Y-172919400D01*
X104116514Y-173276542D01*
X104045085Y-173562257D01*
X103973657Y-173705114D01*
X103902228Y-173776542D01*
X103759371Y-173847971D01*
X103616514Y-173847971D01*
X103473657Y-173776542D01*
X103402228Y-173705114D01*
X103330800Y-173562257D01*
X103259371Y-173276542D01*
X103259371Y-172919400D01*
X103330800Y-172633685D01*
X103402228Y-172490828D01*
X103473657Y-172419400D01*
X103616514Y-172347971D01*
X105902228Y-173847971D02*
X105902228Y-172847971D01*
X105902228Y-172990828D02*
X105973657Y-172919400D01*
X106116514Y-172847971D01*
X106330800Y-172847971D01*
X106473657Y-172919400D01*
X106545085Y-173062257D01*
X106545085Y-173847971D01*
X106545085Y-173062257D02*
X106616514Y-172919400D01*
X106759371Y-172847971D01*
X106973657Y-172847971D01*
X107116514Y-172919400D01*
X107187943Y-173062257D01*
X107187943Y-173847971D01*
X107902228Y-173847971D02*
X107902228Y-172847971D01*
X107902228Y-172990828D02*
X107973657Y-172919400D01*
X108116514Y-172847971D01*
X108330800Y-172847971D01*
X108473657Y-172919400D01*
X108545085Y-173062257D01*
X108545085Y-173847971D01*
X108545085Y-173062257D02*
X108616514Y-172919400D01*
X108759371Y-172847971D01*
X108973657Y-172847971D01*
X109116514Y-172919400D01*
X109187943Y-173062257D01*
X109187943Y-173847971D01*
X44987942Y-189922257D02*
X45487942Y-189922257D01*
X45702228Y-190707971D02*
X44987942Y-190707971D01*
X44987942Y-189207971D01*
X45702228Y-189207971D01*
X46987942Y-190707971D02*
X46987942Y-189207971D01*
X46987942Y-190636542D02*
X46845085Y-190707971D01*
X46559371Y-190707971D01*
X46416514Y-190636542D01*
X46345085Y-190565114D01*
X46273657Y-190422257D01*
X46273657Y-189993685D01*
X46345085Y-189850828D01*
X46416514Y-189779400D01*
X46559371Y-189707971D01*
X46845085Y-189707971D01*
X46987942Y-189779400D01*
X48345085Y-189707971D02*
X48345085Y-190922257D01*
X48273657Y-191065114D01*
X48202228Y-191136542D01*
X48059371Y-191207971D01*
X47845085Y-191207971D01*
X47702228Y-191136542D01*
X48345085Y-190636542D02*
X48202228Y-190707971D01*
X47916514Y-190707971D01*
X47773657Y-190636542D01*
X47702228Y-190565114D01*
X47630800Y-190422257D01*
X47630800Y-189993685D01*
X47702228Y-189850828D01*
X47773657Y-189779400D01*
X47916514Y-189707971D01*
X48202228Y-189707971D01*
X48345085Y-189779400D01*
X49630800Y-190636542D02*
X49487942Y-190707971D01*
X49202228Y-190707971D01*
X49059371Y-190636542D01*
X48987942Y-190493685D01*
X48987942Y-189922257D01*
X49059371Y-189779400D01*
X49202228Y-189707971D01*
X49487942Y-189707971D01*
X49630800Y-189779400D01*
X49702228Y-189922257D01*
X49702228Y-190065114D01*
X48987942Y-190207971D01*
X52130800Y-190636542D02*
X51987942Y-190707971D01*
X51702228Y-190707971D01*
X51559371Y-190636542D01*
X51487942Y-190565114D01*
X51416514Y-190422257D01*
X51416514Y-189993685D01*
X51487942Y-189850828D01*
X51559371Y-189779400D01*
X51702228Y-189707971D01*
X51987942Y-189707971D01*
X52130800Y-189779400D01*
X53416514Y-190707971D02*
X53416514Y-189922257D01*
X53345085Y-189779400D01*
X53202228Y-189707971D01*
X52916514Y-189707971D01*
X52773657Y-189779400D01*
X53416514Y-190636542D02*
X53273657Y-190707971D01*
X52916514Y-190707971D01*
X52773657Y-190636542D01*
X52702228Y-190493685D01*
X52702228Y-190350828D01*
X52773657Y-190207971D01*
X52916514Y-190136542D01*
X53273657Y-190136542D01*
X53416514Y-190065114D01*
X54130800Y-190707971D02*
X54130800Y-189707971D01*
X54130800Y-189993685D02*
X54202228Y-189850828D01*
X54273657Y-189779400D01*
X54416514Y-189707971D01*
X54559371Y-189707971D01*
X55702228Y-190707971D02*
X55702228Y-189207971D01*
X55702228Y-190636542D02*
X55559371Y-190707971D01*
X55273657Y-190707971D01*
X55130800Y-190636542D01*
X55059371Y-190565114D01*
X54987942Y-190422257D01*
X54987942Y-189993685D01*
X55059371Y-189850828D01*
X55130800Y-189779400D01*
X55273657Y-189707971D01*
X55559371Y-189707971D01*
X55702228Y-189779400D01*
X58202228Y-190636542D02*
X58059371Y-190707971D01*
X57773657Y-190707971D01*
X57630800Y-190636542D01*
X57559371Y-190565114D01*
X57487942Y-190422257D01*
X57487942Y-189993685D01*
X57559371Y-189850828D01*
X57630800Y-189779400D01*
X57773657Y-189707971D01*
X58059371Y-189707971D01*
X58202228Y-189779400D01*
X59059371Y-190707971D02*
X58916514Y-190636542D01*
X58845085Y-190565114D01*
X58773657Y-190422257D01*
X58773657Y-189993685D01*
X58845085Y-189850828D01*
X58916514Y-189779400D01*
X59059371Y-189707971D01*
X59273657Y-189707971D01*
X59416514Y-189779400D01*
X59487942Y-189850828D01*
X59559371Y-189993685D01*
X59559371Y-190422257D01*
X59487942Y-190565114D01*
X59416514Y-190636542D01*
X59273657Y-190707971D01*
X59059371Y-190707971D01*
X60202228Y-189707971D02*
X60202228Y-190707971D01*
X60202228Y-189850828D02*
X60273657Y-189779400D01*
X60416514Y-189707971D01*
X60630800Y-189707971D01*
X60773657Y-189779400D01*
X60845085Y-189922257D01*
X60845085Y-190707971D01*
X61559371Y-189707971D02*
X61559371Y-190707971D01*
X61559371Y-189850828D02*
X61630800Y-189779400D01*
X61773657Y-189707971D01*
X61987942Y-189707971D01*
X62130800Y-189779400D01*
X62202228Y-189922257D01*
X62202228Y-190707971D01*
X63487942Y-190636542D02*
X63345085Y-190707971D01*
X63059371Y-190707971D01*
X62916514Y-190636542D01*
X62845085Y-190493685D01*
X62845085Y-189922257D01*
X62916514Y-189779400D01*
X63059371Y-189707971D01*
X63345085Y-189707971D01*
X63487942Y-189779400D01*
X63559371Y-189922257D01*
X63559371Y-190065114D01*
X62845085Y-190207971D01*
X64845085Y-190636542D02*
X64702228Y-190707971D01*
X64416514Y-190707971D01*
X64273657Y-190636542D01*
X64202228Y-190565114D01*
X64130800Y-190422257D01*
X64130800Y-189993685D01*
X64202228Y-189850828D01*
X64273657Y-189779400D01*
X64416514Y-189707971D01*
X64702228Y-189707971D01*
X64845085Y-189779400D01*
X65273657Y-189707971D02*
X65845085Y-189707971D01*
X65487942Y-189207971D02*
X65487942Y-190493685D01*
X65559371Y-190636542D01*
X65702228Y-190707971D01*
X65845085Y-190707971D01*
X66559371Y-190707971D02*
X66416514Y-190636542D01*
X66345085Y-190565114D01*
X66273657Y-190422257D01*
X66273657Y-189993685D01*
X66345085Y-189850828D01*
X66416514Y-189779400D01*
X66559371Y-189707971D01*
X66773657Y-189707971D01*
X66916514Y-189779400D01*
X66987942Y-189850828D01*
X67059371Y-189993685D01*
X67059371Y-190422257D01*
X66987942Y-190565114D01*
X66916514Y-190636542D01*
X66773657Y-190707971D01*
X66559371Y-190707971D01*
X67702228Y-190707971D02*
X67702228Y-189707971D01*
X67702228Y-189993685D02*
X67773657Y-189850828D01*
X67845085Y-189779400D01*
X67987942Y-189707971D01*
X68130800Y-189707971D01*
X68559371Y-190636542D02*
X68702228Y-190707971D01*
X68987942Y-190707971D01*
X69130800Y-190636542D01*
X69202228Y-190493685D01*
X69202228Y-190422257D01*
X69130800Y-190279400D01*
X68987942Y-190207971D01*
X68773657Y-190207971D01*
X68630800Y-190136542D01*
X68559371Y-189993685D01*
X68559371Y-189922257D01*
X68630800Y-189779400D01*
X68773657Y-189707971D01*
X68987942Y-189707971D01*
X69130800Y-189779400D01*
X69845085Y-190565114D02*
X69916514Y-190636542D01*
X69845085Y-190707971D01*
X69773657Y-190636542D01*
X69845085Y-190565114D01*
X69845085Y-190707971D01*
X69845085Y-189779400D02*
X69916514Y-189850828D01*
X69845085Y-189922257D01*
X69773657Y-189850828D01*
X69845085Y-189779400D01*
X69845085Y-189922257D01*
X112102228Y-168847257D02*
X112316514Y-168918685D01*
X112387943Y-168990114D01*
X112459371Y-169132971D01*
X112459371Y-169347257D01*
X112387943Y-169490114D01*
X112316514Y-169561542D01*
X112173657Y-169632971D01*
X111602228Y-169632971D01*
X111602228Y-168132971D01*
X112102228Y-168132971D01*
X112245086Y-168204400D01*
X112316514Y-168275828D01*
X112387943Y-168418685D01*
X112387943Y-168561542D01*
X112316514Y-168704400D01*
X112245086Y-168775828D01*
X112102228Y-168847257D01*
X111602228Y-168847257D01*
X113316514Y-169632971D02*
X113173657Y-169561542D01*
X113102228Y-169490114D01*
X113030800Y-169347257D01*
X113030800Y-168918685D01*
X113102228Y-168775828D01*
X113173657Y-168704400D01*
X113316514Y-168632971D01*
X113530800Y-168632971D01*
X113673657Y-168704400D01*
X113745086Y-168775828D01*
X113816514Y-168918685D01*
X113816514Y-169347257D01*
X113745086Y-169490114D01*
X113673657Y-169561542D01*
X113530800Y-169632971D01*
X113316514Y-169632971D01*
X115102228Y-169632971D02*
X115102228Y-168847257D01*
X115030800Y-168704400D01*
X114887943Y-168632971D01*
X114602228Y-168632971D01*
X114459371Y-168704400D01*
X115102228Y-169561542D02*
X114959371Y-169632971D01*
X114602228Y-169632971D01*
X114459371Y-169561542D01*
X114387943Y-169418685D01*
X114387943Y-169275828D01*
X114459371Y-169132971D01*
X114602228Y-169061542D01*
X114959371Y-169061542D01*
X115102228Y-168990114D01*
X115816514Y-169632971D02*
X115816514Y-168632971D01*
X115816514Y-168918685D02*
X115887943Y-168775828D01*
X115959371Y-168704400D01*
X116102228Y-168632971D01*
X116245086Y-168632971D01*
X117387943Y-169632971D02*
X117387943Y-168132971D01*
X117387943Y-169561542D02*
X117245086Y-169632971D01*
X116959371Y-169632971D01*
X116816514Y-169561542D01*
X116745086Y-169490114D01*
X116673657Y-169347257D01*
X116673657Y-168918685D01*
X116745086Y-168775828D01*
X116816514Y-168704400D01*
X116959371Y-168632971D01*
X117245086Y-168632971D01*
X117387943Y-168704400D01*
X119030800Y-168132971D02*
X119887943Y-168132971D01*
X119459371Y-169632971D02*
X119459371Y-168132971D01*
X120387943Y-169632971D02*
X120387943Y-168132971D01*
X121030800Y-169632971D02*
X121030800Y-168847257D01*
X120959371Y-168704400D01*
X120816514Y-168632971D01*
X120602228Y-168632971D01*
X120459371Y-168704400D01*
X120387943Y-168775828D01*
X121745086Y-169632971D02*
X121745086Y-168632971D01*
X121745086Y-168132971D02*
X121673657Y-168204400D01*
X121745086Y-168275828D01*
X121816514Y-168204400D01*
X121745086Y-168132971D01*
X121745086Y-168275828D01*
X123102228Y-169561542D02*
X122959371Y-169632971D01*
X122673657Y-169632971D01*
X122530800Y-169561542D01*
X122459371Y-169490114D01*
X122387943Y-169347257D01*
X122387943Y-168918685D01*
X122459371Y-168775828D01*
X122530800Y-168704400D01*
X122673657Y-168632971D01*
X122959371Y-168632971D01*
X123102228Y-168704400D01*
X123745086Y-169632971D02*
X123745086Y-168132971D01*
X123887943Y-169061542D02*
X124316514Y-169632971D01*
X124316514Y-168632971D02*
X123745086Y-169204400D01*
X124959371Y-168632971D02*
X124959371Y-169632971D01*
X124959371Y-168775828D02*
X125030800Y-168704400D01*
X125173657Y-168632971D01*
X125387943Y-168632971D01*
X125530800Y-168704400D01*
X125602228Y-168847257D01*
X125602228Y-169632971D01*
X126887943Y-169561542D02*
X126745086Y-169632971D01*
X126459371Y-169632971D01*
X126316514Y-169561542D01*
X126245086Y-169418685D01*
X126245086Y-168847257D01*
X126316514Y-168704400D01*
X126459371Y-168632971D01*
X126745086Y-168632971D01*
X126887943Y-168704400D01*
X126959371Y-168847257D01*
X126959371Y-168990114D01*
X126245086Y-169132971D01*
X127530800Y-169561542D02*
X127673657Y-169632971D01*
X127959371Y-169632971D01*
X128102228Y-169561542D01*
X128173657Y-169418685D01*
X128173657Y-169347257D01*
X128102228Y-169204400D01*
X127959371Y-169132971D01*
X127745086Y-169132971D01*
X127602228Y-169061542D01*
X127530800Y-168918685D01*
X127530800Y-168847257D01*
X127602228Y-168704400D01*
X127745086Y-168632971D01*
X127959371Y-168632971D01*
X128102228Y-168704400D01*
X128745086Y-169561542D02*
X128887943Y-169632971D01*
X129173657Y-169632971D01*
X129316514Y-169561542D01*
X129387943Y-169418685D01*
X129387943Y-169347257D01*
X129316514Y-169204400D01*
X129173657Y-169132971D01*
X128959371Y-169132971D01*
X128816514Y-169061542D01*
X128745086Y-168918685D01*
X128745086Y-168847257D01*
X128816514Y-168704400D01*
X128959371Y-168632971D01*
X129173657Y-168632971D01*
X129316514Y-168704400D01*
X130030800Y-169490114D02*
X130102228Y-169561542D01*
X130030800Y-169632971D01*
X129959371Y-169561542D01*
X130030800Y-169490114D01*
X130030800Y-169632971D01*
X130030800Y-168704400D02*
X130102228Y-168775828D01*
X130030800Y-168847257D01*
X129959371Y-168775828D01*
X130030800Y-168704400D01*
X130030800Y-168847257D01*
D11*
X45153657Y-163491542D02*
X45439371Y-163586780D01*
X45534609Y-163682019D01*
X45629847Y-163872495D01*
X45629847Y-164158209D01*
X45534609Y-164348685D01*
X45439371Y-164443923D01*
X45248895Y-164539161D01*
X44486990Y-164539161D01*
X44486990Y-162539161D01*
X45153657Y-162539161D01*
X45344133Y-162634400D01*
X45439371Y-162729638D01*
X45534609Y-162920114D01*
X45534609Y-163110590D01*
X45439371Y-163301066D01*
X45344133Y-163396304D01*
X45153657Y-163491542D01*
X44486990Y-163491542D01*
X46867942Y-162539161D02*
X47248895Y-162539161D01*
X47439371Y-162634400D01*
X47629847Y-162824876D01*
X47725085Y-163205828D01*
X47725085Y-163872495D01*
X47629847Y-164253447D01*
X47439371Y-164443923D01*
X47248895Y-164539161D01*
X46867942Y-164539161D01*
X46677466Y-164443923D01*
X46486990Y-164253447D01*
X46391752Y-163872495D01*
X46391752Y-163205828D01*
X46486990Y-162824876D01*
X46677466Y-162634400D01*
X46867942Y-162539161D01*
X48486990Y-163967733D02*
X49439371Y-163967733D01*
X48296514Y-164539161D02*
X48963180Y-162539161D01*
X49629847Y-164539161D01*
X51439371Y-164539161D02*
X50772704Y-163586780D01*
X50296514Y-164539161D02*
X50296514Y-162539161D01*
X51058419Y-162539161D01*
X51248895Y-162634400D01*
X51344133Y-162729638D01*
X51439371Y-162920114D01*
X51439371Y-163205828D01*
X51344133Y-163396304D01*
X51248895Y-163491542D01*
X51058419Y-163586780D01*
X50296514Y-163586780D01*
X52296514Y-164539161D02*
X52296514Y-162539161D01*
X52772704Y-162539161D01*
X53058419Y-162634400D01*
X53248895Y-162824876D01*
X53344133Y-163015352D01*
X53439371Y-163396304D01*
X53439371Y-163682019D01*
X53344133Y-164062971D01*
X53248895Y-164253447D01*
X53058419Y-164443923D01*
X52772704Y-164539161D01*
X52296514Y-164539161D01*
X56963180Y-164348685D02*
X56867942Y-164443923D01*
X56582228Y-164539161D01*
X56391752Y-164539161D01*
X56106038Y-164443923D01*
X55915561Y-164253447D01*
X55820323Y-164062971D01*
X55725085Y-163682019D01*
X55725085Y-163396304D01*
X55820323Y-163015352D01*
X55915561Y-162824876D01*
X56106038Y-162634400D01*
X56391752Y-162539161D01*
X56582228Y-162539161D01*
X56867942Y-162634400D01*
X56963180Y-162729638D01*
X57820323Y-164539161D02*
X57820323Y-162539161D01*
X57820323Y-163491542D02*
X58963180Y-163491542D01*
X58963180Y-164539161D02*
X58963180Y-162539161D01*
X59820323Y-163967733D02*
X60772704Y-163967733D01*
X59629847Y-164539161D02*
X60296514Y-162539161D01*
X60963180Y-164539161D01*
X62772704Y-164539161D02*
X62106038Y-163586780D01*
X61629847Y-164539161D02*
X61629847Y-162539161D01*
X62391752Y-162539161D01*
X62582228Y-162634400D01*
X62677466Y-162729638D01*
X62772704Y-162920114D01*
X62772704Y-163205828D01*
X62677466Y-163396304D01*
X62582228Y-163491542D01*
X62391752Y-163586780D01*
X61629847Y-163586780D01*
X63534609Y-163967733D02*
X64486990Y-163967733D01*
X63344133Y-164539161D02*
X64010800Y-162539161D01*
X64677466Y-164539161D01*
X66486990Y-164348685D02*
X66391752Y-164443923D01*
X66106038Y-164539161D01*
X65915561Y-164539161D01*
X65629847Y-164443923D01*
X65439371Y-164253447D01*
X65344133Y-164062971D01*
X65248895Y-163682019D01*
X65248895Y-163396304D01*
X65344133Y-163015352D01*
X65439371Y-162824876D01*
X65629847Y-162634400D01*
X65915561Y-162539161D01*
X66106038Y-162539161D01*
X66391752Y-162634400D01*
X66486990Y-162729638D01*
X67058419Y-162539161D02*
X68201276Y-162539161D01*
X67629847Y-164539161D02*
X67629847Y-162539161D01*
X68867942Y-163491542D02*
X69534609Y-163491542D01*
X69820323Y-164539161D02*
X68867942Y-164539161D01*
X68867942Y-162539161D01*
X69820323Y-162539161D01*
X71820323Y-164539161D02*
X71153657Y-163586780D01*
X70677466Y-164539161D02*
X70677466Y-162539161D01*
X71439371Y-162539161D01*
X71629847Y-162634400D01*
X71725085Y-162729638D01*
X71820323Y-162920114D01*
X71820323Y-163205828D01*
X71725085Y-163396304D01*
X71629847Y-163491542D01*
X71439371Y-163586780D01*
X70677466Y-163586780D01*
X72677466Y-164539161D02*
X72677466Y-162539161D01*
X73534609Y-164443923D02*
X73820323Y-164539161D01*
X74296514Y-164539161D01*
X74486990Y-164443923D01*
X74582228Y-164348685D01*
X74677466Y-164158209D01*
X74677466Y-163967733D01*
X74582228Y-163777257D01*
X74486990Y-163682019D01*
X74296514Y-163586780D01*
X73915561Y-163491542D01*
X73725085Y-163396304D01*
X73629847Y-163301066D01*
X73534609Y-163110590D01*
X73534609Y-162920114D01*
X73629847Y-162729638D01*
X73725085Y-162634400D01*
X73915561Y-162539161D01*
X74391752Y-162539161D01*
X74677466Y-162634400D01*
X75248895Y-162539161D02*
X76391752Y-162539161D01*
X75820323Y-164539161D02*
X75820323Y-162539161D01*
X77058419Y-164539161D02*
X77058419Y-162539161D01*
X79153657Y-164348685D02*
X79058419Y-164443923D01*
X78772704Y-164539161D01*
X78582228Y-164539161D01*
X78296514Y-164443923D01*
X78106038Y-164253447D01*
X78010800Y-164062971D01*
X77915561Y-163682019D01*
X77915561Y-163396304D01*
X78010800Y-163015352D01*
X78106038Y-162824876D01*
X78296514Y-162634400D01*
X78582228Y-162539161D01*
X78772704Y-162539161D01*
X79058419Y-162634400D01*
X79153657Y-162729638D01*
X79915561Y-164443923D02*
X80201276Y-164539161D01*
X80677466Y-164539161D01*
X80867942Y-164443923D01*
X80963180Y-164348685D01*
X81058419Y-164158209D01*
X81058419Y-163967733D01*
X80963180Y-163777257D01*
X80867942Y-163682019D01*
X80677466Y-163586780D01*
X80296514Y-163491542D01*
X80106038Y-163396304D01*
X80010800Y-163301066D01*
X79915561Y-163110590D01*
X79915561Y-162920114D01*
X80010800Y-162729638D01*
X80106038Y-162634400D01*
X80296514Y-162539161D01*
X80772704Y-162539161D01*
X81058419Y-162634400D01*
D10*
X136730800Y-176562971D02*
X136873657Y-176562971D01*
X137016514Y-176634400D01*
X137087943Y-176705828D01*
X137159371Y-176848685D01*
X137230800Y-177134400D01*
X137230800Y-177491542D01*
X137159371Y-177777257D01*
X137087943Y-177920114D01*
X137016514Y-177991542D01*
X136873657Y-178062971D01*
X136730800Y-178062971D01*
X136587943Y-177991542D01*
X136516514Y-177920114D01*
X136445085Y-177777257D01*
X136373657Y-177491542D01*
X136373657Y-177134400D01*
X136445085Y-176848685D01*
X136516514Y-176705828D01*
X136587943Y-176634400D01*
X136730800Y-176562971D01*
X137873657Y-177920114D02*
X137945085Y-177991542D01*
X137873657Y-178062971D01*
X137802228Y-177991542D01*
X137873657Y-177920114D01*
X137873657Y-178062971D01*
X138445085Y-176562971D02*
X139373657Y-176562971D01*
X138873657Y-177134400D01*
X139087943Y-177134400D01*
X139230800Y-177205828D01*
X139302228Y-177277257D01*
X139373657Y-177420114D01*
X139373657Y-177777257D01*
X139302228Y-177920114D01*
X139230800Y-177991542D01*
X139087943Y-178062971D01*
X138659371Y-178062971D01*
X138516514Y-177991542D01*
X138445085Y-177920114D01*
X140302228Y-176562971D02*
X140445085Y-176562971D01*
X140587943Y-176634400D01*
X140659371Y-176705828D01*
X140730800Y-176848685D01*
X140802228Y-177134400D01*
X140802228Y-177491542D01*
X140730800Y-177777257D01*
X140659371Y-177920114D01*
X140587943Y-177991542D01*
X140445085Y-178062971D01*
X140302228Y-178062971D01*
X140159371Y-177991542D01*
X140087943Y-177920114D01*
X140016514Y-177777257D01*
X139945085Y-177491542D01*
X139945085Y-177134400D01*
X140016514Y-176848685D01*
X140087943Y-176705828D01*
X140159371Y-176634400D01*
X140302228Y-176562971D01*
X141730800Y-176562971D02*
X141873657Y-176562971D01*
X142016514Y-176634400D01*
X142087943Y-176705828D01*
X142159371Y-176848685D01*
X142230800Y-177134400D01*
X142230800Y-177491542D01*
X142159371Y-177777257D01*
X142087943Y-177920114D01*
X142016514Y-177991542D01*
X141873657Y-178062971D01*
X141730800Y-178062971D01*
X141587943Y-177991542D01*
X141516514Y-177920114D01*
X141445085Y-177777257D01*
X141373657Y-177491542D01*
X141373657Y-177134400D01*
X141445085Y-176848685D01*
X141516514Y-176705828D01*
X141587943Y-176634400D01*
X141730800Y-176562971D01*
X143159371Y-176562971D02*
X143302228Y-176562971D01*
X143445085Y-176634400D01*
X143516514Y-176705828D01*
X143587943Y-176848685D01*
X143659371Y-177134400D01*
X143659371Y-177491542D01*
X143587943Y-177777257D01*
X143516514Y-177920114D01*
X143445085Y-177991542D01*
X143302228Y-178062971D01*
X143159371Y-178062971D01*
X143016514Y-177991542D01*
X142945085Y-177920114D01*
X142873657Y-177777257D01*
X142802228Y-177491542D01*
X142802228Y-177134400D01*
X142873657Y-176848685D01*
X142945085Y-176705828D01*
X143016514Y-176634400D01*
X143159371Y-176562971D01*
X145445085Y-178062971D02*
X145445085Y-177062971D01*
X145445085Y-177205828D02*
X145516514Y-177134400D01*
X145659371Y-177062971D01*
X145873657Y-177062971D01*
X146016514Y-177134400D01*
X146087943Y-177277257D01*
X146087943Y-178062971D01*
X146087943Y-177277257D02*
X146159371Y-177134400D01*
X146302228Y-177062971D01*
X146516514Y-177062971D01*
X146659371Y-177134400D01*
X146730800Y-177277257D01*
X146730800Y-178062971D01*
X147445085Y-178062971D02*
X147445085Y-177062971D01*
X147445085Y-177205828D02*
X147516514Y-177134400D01*
X147659371Y-177062971D01*
X147873657Y-177062971D01*
X148016514Y-177134400D01*
X148087943Y-177277257D01*
X148087943Y-178062971D01*
X148087943Y-177277257D02*
X148159371Y-177134400D01*
X148302228Y-177062971D01*
X148516514Y-177062971D01*
X148659371Y-177134400D01*
X148730800Y-177277257D01*
X148730800Y-178062971D01*
X136445085Y-186492971D02*
X136445085Y-184992971D01*
X137302228Y-186492971D01*
X137302228Y-184992971D01*
X138230800Y-186492971D02*
X138087943Y-186421542D01*
X138016514Y-186350114D01*
X137945085Y-186207257D01*
X137945085Y-185778685D01*
X138016514Y-185635828D01*
X138087943Y-185564400D01*
X138230800Y-185492971D01*
X138445085Y-185492971D01*
X138587943Y-185564400D01*
X138659371Y-185635828D01*
X138730800Y-185778685D01*
X138730800Y-186207257D01*
X138659371Y-186350114D01*
X138587943Y-186421542D01*
X138445085Y-186492971D01*
X138230800Y-186492971D01*
X44987942Y-178062971D02*
X44987942Y-176562971D01*
X45487942Y-177634400D01*
X45987942Y-176562971D01*
X45987942Y-178062971D01*
X46702228Y-178062971D02*
X46702228Y-177062971D01*
X46702228Y-176562971D02*
X46630800Y-176634400D01*
X46702228Y-176705828D01*
X46773657Y-176634400D01*
X46702228Y-176562971D01*
X46702228Y-176705828D01*
X47416514Y-177062971D02*
X47416514Y-178062971D01*
X47416514Y-177205828D02*
X47487942Y-177134400D01*
X47630800Y-177062971D01*
X47845085Y-177062971D01*
X47987942Y-177134400D01*
X48059371Y-177277257D01*
X48059371Y-178062971D01*
X49702228Y-177062971D02*
X50273657Y-177062971D01*
X49916514Y-176562971D02*
X49916514Y-177848685D01*
X49987942Y-177991542D01*
X50130800Y-178062971D01*
X50273657Y-178062971D01*
X50773657Y-178062971D02*
X50773657Y-177062971D01*
X50773657Y-177348685D02*
X50845085Y-177205828D01*
X50916514Y-177134400D01*
X51059371Y-177062971D01*
X51202228Y-177062971D01*
X52345085Y-178062971D02*
X52345085Y-177277257D01*
X52273657Y-177134400D01*
X52130800Y-177062971D01*
X51845085Y-177062971D01*
X51702228Y-177134400D01*
X52345085Y-177991542D02*
X52202228Y-178062971D01*
X51845085Y-178062971D01*
X51702228Y-177991542D01*
X51630800Y-177848685D01*
X51630800Y-177705828D01*
X51702228Y-177562971D01*
X51845085Y-177491542D01*
X52202228Y-177491542D01*
X52345085Y-177420114D01*
X53702228Y-177991542D02*
X53559371Y-178062971D01*
X53273657Y-178062971D01*
X53130800Y-177991542D01*
X53059371Y-177920114D01*
X52987942Y-177777257D01*
X52987942Y-177348685D01*
X53059371Y-177205828D01*
X53130800Y-177134400D01*
X53273657Y-177062971D01*
X53559371Y-177062971D01*
X53702228Y-177134400D01*
X54345085Y-178062971D02*
X54345085Y-176562971D01*
X54487942Y-177491542D02*
X54916514Y-178062971D01*
X54916514Y-177062971D02*
X54345085Y-177634400D01*
X56630800Y-176491542D02*
X55345085Y-178420114D01*
X57059371Y-177991542D02*
X57202228Y-178062971D01*
X57487942Y-178062971D01*
X57630800Y-177991542D01*
X57702228Y-177848685D01*
X57702228Y-177777257D01*
X57630800Y-177634400D01*
X57487942Y-177562971D01*
X57273657Y-177562971D01*
X57130800Y-177491542D01*
X57059371Y-177348685D01*
X57059371Y-177277257D01*
X57130800Y-177134400D01*
X57273657Y-177062971D01*
X57487942Y-177062971D01*
X57630800Y-177134400D01*
X58345085Y-177062971D02*
X58345085Y-178562971D01*
X58345085Y-177134400D02*
X58487942Y-177062971D01*
X58773657Y-177062971D01*
X58916514Y-177134400D01*
X58987942Y-177205828D01*
X59059371Y-177348685D01*
X59059371Y-177777257D01*
X58987942Y-177920114D01*
X58916514Y-177991542D01*
X58773657Y-178062971D01*
X58487942Y-178062971D01*
X58345085Y-177991542D01*
X60345085Y-178062971D02*
X60345085Y-177277257D01*
X60273657Y-177134400D01*
X60130800Y-177062971D01*
X59845085Y-177062971D01*
X59702228Y-177134400D01*
X60345085Y-177991542D02*
X60202228Y-178062971D01*
X59845085Y-178062971D01*
X59702228Y-177991542D01*
X59630800Y-177848685D01*
X59630800Y-177705828D01*
X59702228Y-177562971D01*
X59845085Y-177491542D01*
X60202228Y-177491542D01*
X60345085Y-177420114D01*
X61702228Y-177991542D02*
X61559371Y-178062971D01*
X61273657Y-178062971D01*
X61130800Y-177991542D01*
X61059371Y-177920114D01*
X60987942Y-177777257D01*
X60987942Y-177348685D01*
X61059371Y-177205828D01*
X61130800Y-177134400D01*
X61273657Y-177062971D01*
X61559371Y-177062971D01*
X61702228Y-177134400D01*
X62345085Y-178062971D02*
X62345085Y-177062971D01*
X62345085Y-176562971D02*
X62273657Y-176634400D01*
X62345085Y-176705828D01*
X62416514Y-176634400D01*
X62345085Y-176562971D01*
X62345085Y-176705828D01*
X63059371Y-177062971D02*
X63059371Y-178062971D01*
X63059371Y-177205828D02*
X63130800Y-177134400D01*
X63273657Y-177062971D01*
X63487942Y-177062971D01*
X63630800Y-177134400D01*
X63702228Y-177277257D01*
X63702228Y-178062971D01*
X65059371Y-177062971D02*
X65059371Y-178277257D01*
X64987942Y-178420114D01*
X64916514Y-178491542D01*
X64773657Y-178562971D01*
X64559371Y-178562971D01*
X64416514Y-178491542D01*
X65059371Y-177991542D02*
X64916514Y-178062971D01*
X64630800Y-178062971D01*
X64487942Y-177991542D01*
X64416514Y-177920114D01*
X64345085Y-177777257D01*
X64345085Y-177348685D01*
X64416514Y-177205828D01*
X64487942Y-177134400D01*
X64630800Y-177062971D01*
X64916514Y-177062971D01*
X65059371Y-177134400D01*
X65773657Y-177920114D02*
X65845085Y-177991542D01*
X65773657Y-178062971D01*
X65702228Y-177991542D01*
X65773657Y-177920114D01*
X65773657Y-178062971D01*
X65773657Y-177134400D02*
X65845085Y-177205828D01*
X65773657Y-177277257D01*
X65702228Y-177205828D01*
X65773657Y-177134400D01*
X65773657Y-177277257D01*
X45845085Y-169490114D02*
X45773657Y-169561542D01*
X45559371Y-169632971D01*
X45416514Y-169632971D01*
X45202228Y-169561542D01*
X45059371Y-169418685D01*
X44987942Y-169275828D01*
X44916514Y-168990114D01*
X44916514Y-168775828D01*
X44987942Y-168490114D01*
X45059371Y-168347257D01*
X45202228Y-168204400D01*
X45416514Y-168132971D01*
X45559371Y-168132971D01*
X45773657Y-168204400D01*
X45845085Y-168275828D01*
X46702228Y-169632971D02*
X46559371Y-169561542D01*
X46487942Y-169490114D01*
X46416514Y-169347257D01*
X46416514Y-168918685D01*
X46487942Y-168775828D01*
X46559371Y-168704400D01*
X46702228Y-168632971D01*
X46916514Y-168632971D01*
X47059371Y-168704400D01*
X47130800Y-168775828D01*
X47202228Y-168918685D01*
X47202228Y-169347257D01*
X47130800Y-169490114D01*
X47059371Y-169561542D01*
X46916514Y-169632971D01*
X46702228Y-169632971D01*
X47845085Y-168632971D02*
X47845085Y-170132971D01*
X47845085Y-168704400D02*
X47987942Y-168632971D01*
X48273657Y-168632971D01*
X48416514Y-168704400D01*
X48487942Y-168775828D01*
X48559371Y-168918685D01*
X48559371Y-169347257D01*
X48487942Y-169490114D01*
X48416514Y-169561542D01*
X48273657Y-169632971D01*
X47987942Y-169632971D01*
X47845085Y-169561542D01*
X49202228Y-168632971D02*
X49202228Y-170132971D01*
X49202228Y-168704400D02*
X49345085Y-168632971D01*
X49630800Y-168632971D01*
X49773657Y-168704400D01*
X49845085Y-168775828D01*
X49916514Y-168918685D01*
X49916514Y-169347257D01*
X49845085Y-169490114D01*
X49773657Y-169561542D01*
X49630800Y-169632971D01*
X49345085Y-169632971D01*
X49202228Y-169561542D01*
X51130800Y-169561542D02*
X50987942Y-169632971D01*
X50702228Y-169632971D01*
X50559371Y-169561542D01*
X50487942Y-169418685D01*
X50487942Y-168847257D01*
X50559371Y-168704400D01*
X50702228Y-168632971D01*
X50987942Y-168632971D01*
X51130800Y-168704400D01*
X51202228Y-168847257D01*
X51202228Y-168990114D01*
X50487942Y-169132971D01*
X51845085Y-169632971D02*
X51845085Y-168632971D01*
X51845085Y-168918685D02*
X51916514Y-168775828D01*
X51987942Y-168704400D01*
X52130800Y-168632971D01*
X52273657Y-168632971D01*
X54630800Y-169632971D02*
X53916514Y-169632971D01*
X53916514Y-168132971D01*
X55773657Y-169632971D02*
X55773657Y-168847257D01*
X55702228Y-168704400D01*
X55559371Y-168632971D01*
X55273657Y-168632971D01*
X55130800Y-168704400D01*
X55773657Y-169561542D02*
X55630800Y-169632971D01*
X55273657Y-169632971D01*
X55130800Y-169561542D01*
X55059371Y-169418685D01*
X55059371Y-169275828D01*
X55130800Y-169132971D01*
X55273657Y-169061542D01*
X55630800Y-169061542D01*
X55773657Y-168990114D01*
X56345085Y-168632971D02*
X56702228Y-169632971D01*
X57059371Y-168632971D02*
X56702228Y-169632971D01*
X56559371Y-169990114D01*
X56487942Y-170061542D01*
X56345085Y-170132971D01*
X58202228Y-169561542D02*
X58059371Y-169632971D01*
X57773657Y-169632971D01*
X57630800Y-169561542D01*
X57559371Y-169418685D01*
X57559371Y-168847257D01*
X57630800Y-168704400D01*
X57773657Y-168632971D01*
X58059371Y-168632971D01*
X58202228Y-168704400D01*
X58273657Y-168847257D01*
X58273657Y-168990114D01*
X57559371Y-169132971D01*
X58916514Y-169632971D02*
X58916514Y-168632971D01*
X58916514Y-168918685D02*
X58987942Y-168775828D01*
X59059371Y-168704400D01*
X59202228Y-168632971D01*
X59345085Y-168632971D01*
X61845085Y-169490114D02*
X61773657Y-169561542D01*
X61559371Y-169632971D01*
X61416514Y-169632971D01*
X61202228Y-169561542D01*
X61059371Y-169418685D01*
X60987942Y-169275828D01*
X60916514Y-168990114D01*
X60916514Y-168775828D01*
X60987942Y-168490114D01*
X61059371Y-168347257D01*
X61202228Y-168204400D01*
X61416514Y-168132971D01*
X61559371Y-168132971D01*
X61773657Y-168204400D01*
X61845085Y-168275828D01*
X62702228Y-169632971D02*
X62559371Y-169561542D01*
X62487942Y-169490114D01*
X62416514Y-169347257D01*
X62416514Y-168918685D01*
X62487942Y-168775828D01*
X62559371Y-168704400D01*
X62702228Y-168632971D01*
X62916514Y-168632971D01*
X63059371Y-168704400D01*
X63130800Y-168775828D01*
X63202228Y-168918685D01*
X63202228Y-169347257D01*
X63130800Y-169490114D01*
X63059371Y-169561542D01*
X62916514Y-169632971D01*
X62702228Y-169632971D01*
X64487942Y-168632971D02*
X64487942Y-169632971D01*
X63845085Y-168632971D02*
X63845085Y-169418685D01*
X63916514Y-169561542D01*
X64059371Y-169632971D01*
X64273657Y-169632971D01*
X64416514Y-169561542D01*
X64487942Y-169490114D01*
X65202228Y-168632971D02*
X65202228Y-169632971D01*
X65202228Y-168775828D02*
X65273657Y-168704400D01*
X65416514Y-168632971D01*
X65630800Y-168632971D01*
X65773657Y-168704400D01*
X65845085Y-168847257D01*
X65845085Y-169632971D01*
X66345085Y-168632971D02*
X66916514Y-168632971D01*
X66559371Y-168132971D02*
X66559371Y-169418685D01*
X66630800Y-169561542D01*
X66773657Y-169632971D01*
X66916514Y-169632971D01*
X67416514Y-169490114D02*
X67487942Y-169561542D01*
X67416514Y-169632971D01*
X67345085Y-169561542D01*
X67416514Y-169490114D01*
X67416514Y-169632971D01*
X67416514Y-168704400D02*
X67487942Y-168775828D01*
X67416514Y-168847257D01*
X67345085Y-168775828D01*
X67416514Y-168704400D01*
X67416514Y-168847257D01*
X77545085Y-182277971D02*
X77545085Y-180777971D01*
X78402228Y-182277971D01*
X78402228Y-180777971D01*
X79330800Y-182277971D02*
X79187943Y-182206542D01*
X79116514Y-182135114D01*
X79045085Y-181992257D01*
X79045085Y-181563685D01*
X79116514Y-181420828D01*
X79187943Y-181349400D01*
X79330800Y-181277971D01*
X79545085Y-181277971D01*
X79687943Y-181349400D01*
X79759371Y-181420828D01*
X79830800Y-181563685D01*
X79830800Y-181992257D01*
X79759371Y-182135114D01*
X79687943Y-182206542D01*
X79545085Y-182277971D01*
X79330800Y-182277971D01*
X80473657Y-181277971D02*
X80473657Y-182277971D01*
X80473657Y-181420828D02*
X80545085Y-181349400D01*
X80687943Y-181277971D01*
X80902228Y-181277971D01*
X81045085Y-181349400D01*
X81116514Y-181492257D01*
X81116514Y-182277971D01*
X82402228Y-182206542D02*
X82259371Y-182277971D01*
X81973657Y-182277971D01*
X81830800Y-182206542D01*
X81759371Y-182063685D01*
X81759371Y-181492257D01*
X81830800Y-181349400D01*
X81973657Y-181277971D01*
X82259371Y-181277971D01*
X82402228Y-181349400D01*
X82473657Y-181492257D01*
X82473657Y-181635114D01*
X81759371Y-181777971D01*
X77473657Y-168275828D02*
X77545085Y-168204400D01*
X77687943Y-168132971D01*
X78045085Y-168132971D01*
X78187943Y-168204400D01*
X78259371Y-168275828D01*
X78330800Y-168418685D01*
X78330800Y-168561542D01*
X78259371Y-168775828D01*
X77402228Y-169632971D01*
X78330800Y-169632971D01*
D12*
X68475621Y-86418571D02*
X68428002Y-86513809D01*
X68380383Y-86561428D01*
X68285145Y-86609047D01*
X68237526Y-86609047D01*
X68142288Y-86561428D01*
X68094669Y-86513809D01*
X68047049Y-86418571D01*
X68047049Y-86228095D01*
X68094669Y-86132857D01*
X68142288Y-86085238D01*
X68237526Y-86037619D01*
X68285145Y-86037619D01*
X68380383Y-86085238D01*
X68428002Y-86132857D01*
X68475621Y-86228095D01*
X68475621Y-86418571D01*
X68523240Y-86513809D01*
X68570859Y-86561428D01*
X68666097Y-86609047D01*
X68856573Y-86609047D01*
X68951811Y-86561428D01*
X68999430Y-86513809D01*
X69047049Y-86418571D01*
X69047049Y-86228095D01*
X68999430Y-86132857D01*
X68951811Y-86085238D01*
X68856573Y-86037619D01*
X68666097Y-86037619D01*
X68570859Y-86085238D01*
X68523240Y-86132857D01*
X68475621Y-86228095D01*
X68142288Y-85656666D02*
X68094669Y-85609047D01*
X68047049Y-85513809D01*
X68047049Y-85275714D01*
X68094669Y-85180476D01*
X68142288Y-85132857D01*
X68237526Y-85085238D01*
X68332764Y-85085238D01*
X68475621Y-85132857D01*
X69047049Y-85704285D01*
X69047049Y-85085238D01*
X68951811Y-84656666D02*
X68999430Y-84609047D01*
X69047049Y-84656666D01*
X68999430Y-84704285D01*
X68951811Y-84656666D01*
X69047049Y-84656666D01*
X68142288Y-84228095D02*
X68094669Y-84180476D01*
X68047049Y-84085238D01*
X68047049Y-83847142D01*
X68094669Y-83751904D01*
X68142288Y-83704285D01*
X68237526Y-83656666D01*
X68332764Y-83656666D01*
X68475621Y-83704285D01*
X69047049Y-84275714D01*
X69047049Y-83656666D01*
X69047049Y-83180476D02*
X69047049Y-82990000D01*
X68999430Y-82894761D01*
X68951811Y-82847142D01*
X68808954Y-82751904D01*
X68618478Y-82704285D01*
X68237526Y-82704285D01*
X68142288Y-82751904D01*
X68094669Y-82799523D01*
X68047049Y-82894761D01*
X68047049Y-83085238D01*
X68094669Y-83180476D01*
X68142288Y-83228095D01*
X68237526Y-83275714D01*
X68475621Y-83275714D01*
X68570859Y-83228095D01*
X68618478Y-83180476D01*
X68666097Y-83085238D01*
X68666097Y-82894761D01*
X68618478Y-82799523D01*
X68570859Y-82751904D01*
X68475621Y-82704285D01*
X68047049Y-81847142D02*
X68047049Y-82037619D01*
X68094669Y-82132857D01*
X68142288Y-82180476D01*
X68285145Y-82275714D01*
X68475621Y-82323333D01*
X68856573Y-82323333D01*
X68951811Y-82275714D01*
X68999430Y-82228095D01*
X69047049Y-82132857D01*
X69047049Y-81942380D01*
X68999430Y-81847142D01*
X68951811Y-81799523D01*
X68856573Y-81751904D01*
X68618478Y-81751904D01*
X68523240Y-81799523D01*
X68475621Y-81847142D01*
X68428002Y-81942380D01*
X68428002Y-82132857D01*
X68475621Y-82228095D01*
X68523240Y-82275714D01*
X68618478Y-82323333D01*
X68047049Y-81132857D02*
X68047049Y-81037619D01*
X68094669Y-80942380D01*
X68142288Y-80894761D01*
X68237526Y-80847142D01*
X68428002Y-80799523D01*
X68666097Y-80799523D01*
X68856573Y-80847142D01*
X68951811Y-80894761D01*
X68999430Y-80942380D01*
X69047049Y-81037619D01*
X69047049Y-81132857D01*
X68999430Y-81228095D01*
X68951811Y-81275714D01*
X68856573Y-81323333D01*
X68666097Y-81370952D01*
X68428002Y-81370952D01*
X68237526Y-81323333D01*
X68142288Y-81275714D01*
X68094669Y-81228095D01*
X68047049Y-81132857D01*
X69047049Y-79609047D02*
X68380383Y-79609047D01*
X68475621Y-79609047D02*
X68428002Y-79561428D01*
X68380383Y-79466190D01*
X68380383Y-79323333D01*
X68428002Y-79228095D01*
X68523240Y-79180476D01*
X69047049Y-79180476D01*
X68523240Y-79180476D02*
X68428002Y-79132857D01*
X68380383Y-79037619D01*
X68380383Y-78894761D01*
X68428002Y-78799523D01*
X68523240Y-78751904D01*
X69047049Y-78751904D01*
X69047049Y-78275714D02*
X68380383Y-78275714D01*
X68475621Y-78275714D02*
X68428002Y-78228095D01*
X68380383Y-78132857D01*
X68380383Y-77990000D01*
X68428002Y-77894761D01*
X68523240Y-77847142D01*
X69047049Y-77847142D01*
X68523240Y-77847142D02*
X68428002Y-77799523D01*
X68380383Y-77704285D01*
X68380383Y-77561428D01*
X68428002Y-77466190D01*
X68523240Y-77418571D01*
X69047049Y-77418571D01*
D13*
X77364669Y-40574000D02*
X68008249Y-40574000D01*
X77364669Y-122870000D02*
X68008249Y-122870000D01*
X68594669Y-40574000D02*
X68594669Y-76605476D01*
X68594669Y-87374524D02*
X68594669Y-122870000D01*
X68594669Y-40574000D02*
X68008248Y-41700504D01*
X68594669Y-40574000D02*
X69181090Y-41700504D01*
X68594669Y-122870000D02*
X69181090Y-121743496D01*
X68594669Y-122870000D02*
X68008248Y-121743496D01*
D12*
X128602452Y-35572381D02*
X128792928Y-35572381D01*
X128888166Y-35524762D01*
X128935785Y-35477143D01*
X129031023Y-35334286D01*
X129078642Y-35143810D01*
X129078642Y-34762858D01*
X129031023Y-34667620D01*
X128983404Y-34620001D01*
X128888166Y-34572381D01*
X128697690Y-34572381D01*
X128602452Y-34620001D01*
X128554833Y-34667620D01*
X128507214Y-34762858D01*
X128507214Y-35000953D01*
X128554833Y-35096191D01*
X128602452Y-35143810D01*
X128697690Y-35191429D01*
X128888166Y-35191429D01*
X128983404Y-35143810D01*
X129031023Y-35096191D01*
X129078642Y-35000953D01*
X129554833Y-35572381D02*
X129745309Y-35572381D01*
X129840547Y-35524762D01*
X129888166Y-35477143D01*
X129983404Y-35334286D01*
X130031023Y-35143810D01*
X130031023Y-34762858D01*
X129983404Y-34667620D01*
X129935785Y-34620001D01*
X129840547Y-34572381D01*
X129650071Y-34572381D01*
X129554833Y-34620001D01*
X129507214Y-34667620D01*
X129459595Y-34762858D01*
X129459595Y-35000953D01*
X129507214Y-35096191D01*
X129554833Y-35143810D01*
X129650071Y-35191429D01*
X129840547Y-35191429D01*
X129935785Y-35143810D01*
X129983404Y-35096191D01*
X130031023Y-35000953D01*
X130459595Y-35477143D02*
X130507214Y-35524762D01*
X130459595Y-35572381D01*
X130411976Y-35524762D01*
X130459595Y-35477143D01*
X130459595Y-35572381D01*
X130983404Y-35572381D02*
X131173881Y-35572381D01*
X131269119Y-35524762D01*
X131316738Y-35477143D01*
X131411976Y-35334286D01*
X131459595Y-35143810D01*
X131459595Y-34762858D01*
X131411976Y-34667620D01*
X131364357Y-34620001D01*
X131269119Y-34572381D01*
X131078642Y-34572381D01*
X130983404Y-34620001D01*
X130935785Y-34667620D01*
X130888166Y-34762858D01*
X130888166Y-35000953D01*
X130935785Y-35096191D01*
X130983404Y-35143810D01*
X131078642Y-35191429D01*
X131269119Y-35191429D01*
X131364357Y-35143810D01*
X131411976Y-35096191D01*
X131459595Y-35000953D01*
X132031023Y-35000953D02*
X131935785Y-34953334D01*
X131888166Y-34905715D01*
X131840547Y-34810477D01*
X131840547Y-34762858D01*
X131888166Y-34667620D01*
X131935785Y-34620001D01*
X132031023Y-34572381D01*
X132221500Y-34572381D01*
X132316738Y-34620001D01*
X132364357Y-34667620D01*
X132411976Y-34762858D01*
X132411976Y-34810477D01*
X132364357Y-34905715D01*
X132316738Y-34953334D01*
X132221500Y-35000953D01*
X132031023Y-35000953D01*
X131935785Y-35048572D01*
X131888166Y-35096191D01*
X131840547Y-35191429D01*
X131840547Y-35381905D01*
X131888166Y-35477143D01*
X131935785Y-35524762D01*
X132031023Y-35572381D01*
X132221500Y-35572381D01*
X132316738Y-35524762D01*
X132364357Y-35477143D01*
X132411976Y-35381905D01*
X132411976Y-35191429D01*
X132364357Y-35096191D01*
X132316738Y-35048572D01*
X132221500Y-35000953D01*
X132745309Y-34572381D02*
X133364357Y-34572381D01*
X133031023Y-34953334D01*
X133173881Y-34953334D01*
X133269119Y-35000953D01*
X133316738Y-35048572D01*
X133364357Y-35143810D01*
X133364357Y-35381905D01*
X133316738Y-35477143D01*
X133269119Y-35524762D01*
X133173881Y-35572381D01*
X132888166Y-35572381D01*
X132792928Y-35524762D01*
X132745309Y-35477143D01*
X133745309Y-34667620D02*
X133792928Y-34620001D01*
X133888166Y-34572381D01*
X134126262Y-34572381D01*
X134221500Y-34620001D01*
X134269119Y-34667620D01*
X134316738Y-34762858D01*
X134316738Y-34858096D01*
X134269119Y-35000953D01*
X133697690Y-35572381D01*
X134316738Y-35572381D01*
X135507214Y-35572381D02*
X135507214Y-34905715D01*
X135507214Y-35000953D02*
X135554833Y-34953334D01*
X135650071Y-34905715D01*
X135792928Y-34905715D01*
X135888166Y-34953334D01*
X135935785Y-35048572D01*
X135935785Y-35572381D01*
X135935785Y-35048572D02*
X135983404Y-34953334D01*
X136078642Y-34905715D01*
X136221500Y-34905715D01*
X136316738Y-34953334D01*
X136364357Y-35048572D01*
X136364357Y-35572381D01*
X136840547Y-35572381D02*
X136840547Y-34905715D01*
X136840547Y-35000953D02*
X136888166Y-34953334D01*
X136983404Y-34905715D01*
X137126262Y-34905715D01*
X137221500Y-34953334D01*
X137269119Y-35048572D01*
X137269119Y-35572381D01*
X137269119Y-35048572D02*
X137316738Y-34953334D01*
X137411976Y-34905715D01*
X137554833Y-34905715D01*
X137650071Y-34953334D01*
X137697690Y-35048572D01*
X137697690Y-35572381D01*
D13*
X183117854Y-40836000D02*
X183117854Y-35683581D01*
X83134669Y-40836000D02*
X83134669Y-35683581D01*
X183117854Y-36270001D02*
X83134669Y-36270001D01*
X183117854Y-36270001D02*
X83134669Y-36270001D01*
X183117854Y-36270001D02*
X181991350Y-35683580D01*
X183117854Y-36270001D02*
X181991350Y-36856422D01*
X83134669Y-36270001D02*
X84261173Y-36856422D01*
X83134669Y-36270001D02*
X84261173Y-35683580D01*
D12*
X62697049Y-86513809D02*
X62697049Y-86323333D01*
X62649430Y-86228095D01*
X62601811Y-86180476D01*
X62458954Y-86085238D01*
X62268478Y-86037619D01*
X61887526Y-86037619D01*
X61792288Y-86085238D01*
X61744669Y-86132857D01*
X61697049Y-86228095D01*
X61697049Y-86418571D01*
X61744669Y-86513809D01*
X61792288Y-86561428D01*
X61887526Y-86609047D01*
X62125621Y-86609047D01*
X62220859Y-86561428D01*
X62268478Y-86513809D01*
X62316097Y-86418571D01*
X62316097Y-86228095D01*
X62268478Y-86132857D01*
X62220859Y-86085238D01*
X62125621Y-86037619D01*
X62697049Y-85561428D02*
X62697049Y-85370952D01*
X62649430Y-85275714D01*
X62601811Y-85228095D01*
X62458954Y-85132857D01*
X62268478Y-85085238D01*
X61887526Y-85085238D01*
X61792288Y-85132857D01*
X61744669Y-85180476D01*
X61697049Y-85275714D01*
X61697049Y-85466190D01*
X61744669Y-85561428D01*
X61792288Y-85609047D01*
X61887526Y-85656666D01*
X62125621Y-85656666D01*
X62220859Y-85609047D01*
X62268478Y-85561428D01*
X62316097Y-85466190D01*
X62316097Y-85275714D01*
X62268478Y-85180476D01*
X62220859Y-85132857D01*
X62125621Y-85085238D01*
X62601811Y-84656666D02*
X62649430Y-84609047D01*
X62697049Y-84656666D01*
X62649430Y-84704285D01*
X62601811Y-84656666D01*
X62697049Y-84656666D01*
X62697049Y-84132857D02*
X62697049Y-83942380D01*
X62649430Y-83847142D01*
X62601811Y-83799523D01*
X62458954Y-83704285D01*
X62268478Y-83656666D01*
X61887526Y-83656666D01*
X61792288Y-83704285D01*
X61744669Y-83751904D01*
X61697049Y-83847142D01*
X61697049Y-84037619D01*
X61744669Y-84132857D01*
X61792288Y-84180476D01*
X61887526Y-84228095D01*
X62125621Y-84228095D01*
X62220859Y-84180476D01*
X62268478Y-84132857D01*
X62316097Y-84037619D01*
X62316097Y-83847142D01*
X62268478Y-83751904D01*
X62220859Y-83704285D01*
X62125621Y-83656666D01*
X61697049Y-82799523D02*
X61697049Y-82990000D01*
X61744669Y-83085238D01*
X61792288Y-83132857D01*
X61935145Y-83228095D01*
X62125621Y-83275714D01*
X62506573Y-83275714D01*
X62601811Y-83228095D01*
X62649430Y-83180476D01*
X62697049Y-83085238D01*
X62697049Y-82894761D01*
X62649430Y-82799523D01*
X62601811Y-82751904D01*
X62506573Y-82704285D01*
X62268478Y-82704285D01*
X62173240Y-82751904D01*
X62125621Y-82799523D01*
X62078002Y-82894761D01*
X62078002Y-83085238D01*
X62125621Y-83180476D01*
X62173240Y-83228095D01*
X62268478Y-83275714D01*
X61697049Y-82370952D02*
X61697049Y-81751904D01*
X62078002Y-82085238D01*
X62078002Y-81942380D01*
X62125621Y-81847142D01*
X62173240Y-81799523D01*
X62268478Y-81751904D01*
X62506573Y-81751904D01*
X62601811Y-81799523D01*
X62649430Y-81847142D01*
X62697049Y-81942380D01*
X62697049Y-82228095D01*
X62649430Y-82323333D01*
X62601811Y-82370952D01*
X61697049Y-81132857D02*
X61697049Y-81037619D01*
X61744669Y-80942380D01*
X61792288Y-80894761D01*
X61887526Y-80847142D01*
X62078002Y-80799523D01*
X62316097Y-80799523D01*
X62506573Y-80847142D01*
X62601811Y-80894761D01*
X62649430Y-80942380D01*
X62697049Y-81037619D01*
X62697049Y-81132857D01*
X62649430Y-81228095D01*
X62601811Y-81275714D01*
X62506573Y-81323333D01*
X62316097Y-81370952D01*
X62078002Y-81370952D01*
X61887526Y-81323333D01*
X61792288Y-81275714D01*
X61744669Y-81228095D01*
X61697049Y-81132857D01*
X62697049Y-79609047D02*
X62030383Y-79609047D01*
X62125621Y-79609047D02*
X62078002Y-79561428D01*
X62030383Y-79466190D01*
X62030383Y-79323333D01*
X62078002Y-79228095D01*
X62173240Y-79180476D01*
X62697049Y-79180476D01*
X62173240Y-79180476D02*
X62078002Y-79132857D01*
X62030383Y-79037619D01*
X62030383Y-78894761D01*
X62078002Y-78799523D01*
X62173240Y-78751904D01*
X62697049Y-78751904D01*
X62697049Y-78275714D02*
X62030383Y-78275714D01*
X62125621Y-78275714D02*
X62078002Y-78228095D01*
X62030383Y-78132857D01*
X62030383Y-77990000D01*
X62078002Y-77894761D01*
X62173240Y-77847142D01*
X62697049Y-77847142D01*
X62173240Y-77847142D02*
X62078002Y-77799523D01*
X62030383Y-77704285D01*
X62030383Y-77561428D01*
X62078002Y-77466190D01*
X62173240Y-77418571D01*
X62697049Y-77418571D01*
D13*
X78214669Y-40574000D02*
X61658249Y-40574000D01*
X61658249Y-140537000D02*
X78214669Y-140537000D01*
X62244669Y-40574000D02*
X62244669Y-76605476D01*
X62244669Y-87374524D02*
X62244669Y-140537000D01*
X62244669Y-40574000D02*
X61658248Y-41700504D01*
X62244669Y-40574000D02*
X62831090Y-41700504D01*
X62244669Y-140537000D02*
X62831090Y-139410496D01*
X62244669Y-140537000D02*
X61658248Y-139410496D01*
%TO.C,J21*%
G36*
X93215342Y-120820989D02*
G01*
X84715342Y-120820989D01*
X84715342Y-120320989D01*
X93215342Y-120320989D01*
X93215342Y-120820989D01*
G37*
G36*
X93215342Y-108320989D02*
G01*
X84715342Y-108320989D01*
X84715342Y-107820989D01*
X93215342Y-107820989D01*
X93215342Y-108320989D01*
G37*
G36*
X93215342Y-120320989D02*
G01*
X92715342Y-119820989D01*
X92715342Y-108320989D01*
X93215342Y-108320989D01*
X93215342Y-120320989D01*
G37*
%TD*%
M02*
